<svg width="228" height="228" viewBox="0 0 228 228" fill="none" xmlns="http://www.w3.org/2000/svg">
<g filter="url(#filter0_d_1_1326)">
<rect width="220" height="220" rx="10" fill="url(#paint0_linear_1_1326)"/>
<rect x="1" y="1" width="218" height="218" rx="9" stroke="white" stroke-width="2"/>
</g>
<path d="M85.5312 168H75.875V141.562C75.875 141.021 75.875 140.375 75.875 139.625C75.8958 138.854 75.9167 138.062 75.9375 137.25C75.9792 136.417 76.0104 135.583 76.0312 134.75C76.0729 133.917 76.1042 133.156 76.125 132.469C76.0208 132.594 75.8438 132.781 75.5938 133.031C75.3438 133.281 75.0625 133.562 74.75 133.875C74.4375 134.167 74.1146 134.469 73.7812 134.781C73.4479 135.094 73.125 135.375 72.8125 135.625L67.5625 139.844L62.875 134.031L77.5938 122.312H85.5312V168ZM125.909 168H95.2525V161.281L106.002 149.688C107.357 148.229 108.586 146.885 109.69 145.656C110.794 144.427 111.742 143.229 112.534 142.062C113.325 140.896 113.94 139.708 114.377 138.5C114.815 137.292 115.034 135.99 115.034 134.594C115.034 133.052 114.565 131.854 113.627 131C112.711 130.146 111.471 129.719 109.909 129.719C108.263 129.719 106.68 130.125 105.159 130.938C103.638 131.75 102.044 132.906 100.377 134.406L95.1275 128.188C96.065 127.333 97.0442 126.521 98.065 125.75C99.0858 124.958 100.211 124.26 101.44 123.656C102.669 123.052 104.023 122.573 105.502 122.219C106.982 121.844 108.638 121.656 110.471 121.656C112.659 121.656 114.617 121.958 116.346 122.562C118.096 123.167 119.586 124.031 120.815 125.156C122.044 126.26 122.982 127.604 123.627 129.188C124.294 130.771 124.627 132.552 124.627 134.531C124.627 136.323 124.315 138.042 123.69 139.688C123.065 141.312 122.211 142.917 121.127 144.5C120.044 146.062 118.784 147.625 117.346 149.188C115.93 150.729 114.409 152.302 112.784 153.906L107.284 159.438V159.875H125.909V168ZM140.224 150.75H128.755V143.906H140.224V132.375H147.067V143.906H158.505V150.75H147.067V162.125H140.224V150.75Z" fill="#31393C"/>
<path d="M37.4247 182.364H39.0384L42.2656 187.795H42.402L45.6293 182.364H47.2429L43.0384 189.205V194H41.6293V189.205L37.4247 182.364ZM51.3082 194.182C50.4673 194.182 49.742 193.996 49.1321 193.625C48.526 193.25 48.0582 192.727 47.7287 192.057C47.4029 191.383 47.2401 190.598 47.2401 189.705C47.2401 188.811 47.4029 188.023 47.7287 187.341C48.0582 186.655 48.5166 186.121 49.1037 185.739C49.6946 185.352 50.384 185.159 51.1719 185.159C51.6264 185.159 52.0753 185.235 52.5185 185.386C52.9616 185.538 53.3651 185.784 53.7287 186.125C54.0923 186.462 54.3821 186.909 54.598 187.466C54.8139 188.023 54.9219 188.708 54.9219 189.523V190.091H48.1946V188.932H53.5582C53.5582 188.439 53.4598 188 53.2628 187.614C53.0696 187.227 52.7931 186.922 52.4332 186.699C52.0772 186.475 51.6567 186.364 51.1719 186.364C50.6378 186.364 50.1757 186.496 49.7855 186.761C49.3991 187.023 49.1018 187.364 48.8935 187.784C48.6851 188.205 48.581 188.655 48.581 189.136V189.909C48.581 190.568 48.6946 191.127 48.9219 191.585C49.1529 192.04 49.473 192.386 49.8821 192.625C50.2912 192.86 50.7666 192.977 51.3082 192.977C51.6605 192.977 51.9787 192.928 52.2628 192.83C52.5507 192.727 52.7988 192.576 53.0071 192.375C53.2154 192.17 53.3764 191.917 53.4901 191.614L54.7855 191.977C54.6491 192.417 54.42 192.803 54.098 193.136C53.776 193.466 53.3783 193.723 52.9048 193.909C52.4313 194.091 51.8991 194.182 51.3082 194.182ZM59.5298 194.205C58.9768 194.205 58.4749 194.1 58.0241 193.892C57.5734 193.68 57.2154 193.375 56.9503 192.977C56.6851 192.576 56.5526 192.091 56.5526 191.523C56.5526 191.023 56.651 190.617 56.848 190.307C57.045 189.992 57.3082 189.746 57.6378 189.568C57.9673 189.39 58.331 189.258 58.7287 189.17C59.1302 189.08 59.5336 189.008 59.9389 188.955C60.4692 188.886 60.8991 188.835 61.2287 188.801C61.562 188.763 61.8045 188.701 61.956 188.614C62.1113 188.527 62.1889 188.375 62.1889 188.159V188.114C62.1889 187.553 62.0355 187.117 61.7287 186.807C61.4257 186.496 60.9654 186.341 60.348 186.341C59.7079 186.341 59.206 186.481 58.8423 186.761C58.4787 187.042 58.223 187.341 58.0753 187.659L56.8026 187.205C57.0298 186.674 57.3329 186.261 57.7116 185.966C58.0942 185.667 58.5109 185.458 58.9616 185.341C59.4162 185.22 59.8632 185.159 60.3026 185.159C60.5829 185.159 60.9048 185.193 61.2685 185.261C61.6359 185.326 61.9901 185.46 62.331 185.665C62.6757 185.869 62.9616 186.178 63.1889 186.591C63.4162 187.004 63.5298 187.557 63.5298 188.25V194H62.1889V192.818H62.1207C62.0298 193.008 61.8783 193.21 61.6662 193.426C61.4541 193.642 61.1719 193.826 60.8196 193.977C60.4673 194.129 60.0374 194.205 59.5298 194.205ZM59.7344 193C60.2647 193 60.7116 192.896 61.0753 192.688C61.4427 192.479 61.7192 192.21 61.9048 191.881C62.0942 191.551 62.1889 191.205 62.1889 190.841V189.614C62.1321 189.682 62.0071 189.744 61.8139 189.801C61.6245 189.854 61.4048 189.902 61.1548 189.943C60.9086 189.981 60.6681 190.015 60.4332 190.045C60.2022 190.072 60.0147 190.095 59.8707 190.114C59.5223 190.159 59.1965 190.233 58.8935 190.335C58.5942 190.434 58.3518 190.583 58.1662 190.784C57.9844 190.981 57.8935 191.25 57.8935 191.591C57.8935 192.057 58.0658 192.409 58.4105 192.648C58.759 192.883 59.2003 193 59.7344 193ZM65.9773 194V185.273H67.2727V186.591H67.3636C67.5227 186.159 67.8106 185.809 68.2273 185.54C68.6439 185.271 69.1136 185.136 69.6364 185.136C69.7348 185.136 69.858 185.138 70.0057 185.142C70.1534 185.146 70.2652 185.152 70.3409 185.159V186.523C70.2955 186.511 70.1913 186.494 70.0284 186.472C69.8693 186.445 69.7008 186.432 69.5227 186.432C69.0985 186.432 68.7197 186.521 68.3864 186.699C68.0568 186.873 67.7955 187.116 67.6023 187.426C67.4129 187.733 67.3182 188.083 67.3182 188.477V194H65.9773ZM78.1122 187.227L76.9077 187.568C76.8319 187.367 76.7202 187.172 76.5724 186.983C76.4285 186.79 76.2315 186.631 75.9815 186.506C75.7315 186.381 75.4115 186.318 75.0213 186.318C74.4872 186.318 74.0421 186.441 73.6861 186.688C73.3338 186.93 73.1577 187.239 73.1577 187.614C73.1577 187.947 73.2789 188.21 73.5213 188.403C73.7637 188.597 74.1425 188.758 74.6577 188.886L75.9531 189.205C76.7334 189.394 77.3149 189.684 77.6974 190.074C78.08 190.46 78.2713 190.958 78.2713 191.568C78.2713 192.068 78.1274 192.515 77.8395 192.909C77.5554 193.303 77.1577 193.614 76.6463 193.841C76.1349 194.068 75.5402 194.182 74.8622 194.182C73.9721 194.182 73.2353 193.989 72.652 193.602C72.0687 193.216 71.6993 192.652 71.544 191.909L72.8168 191.591C72.938 192.061 73.1671 192.413 73.5043 192.648C73.8452 192.883 74.2902 193 74.8395 193C75.4645 193 75.9607 192.867 76.3281 192.602C76.6993 192.333 76.8849 192.011 76.8849 191.636C76.8849 191.333 76.7789 191.08 76.5668 190.875C76.3546 190.667 76.0289 190.511 75.5895 190.409L74.1349 190.068C73.3357 189.879 72.7486 189.585 72.3736 189.188C72.0024 188.786 71.8168 188.284 71.8168 187.682C71.8168 187.189 71.955 186.754 72.2315 186.375C72.5118 185.996 72.8925 185.699 73.3736 185.483C73.8584 185.267 74.4077 185.159 75.0213 185.159C75.8849 185.159 76.563 185.348 77.0554 185.727C77.5516 186.106 77.9039 186.606 78.1122 187.227ZM88.3352 194.182C87.5473 194.182 86.8561 193.994 86.2614 193.619C85.6705 193.244 85.2083 192.72 84.875 192.045C84.5455 191.371 84.3807 190.583 84.3807 189.682C84.3807 188.773 84.5455 187.979 84.875 187.301C85.2083 186.623 85.6705 186.097 86.2614 185.722C86.8561 185.347 87.5473 185.159 88.3352 185.159C89.1231 185.159 89.8125 185.347 90.4034 185.722C90.9981 186.097 91.4602 186.623 91.7898 187.301C92.1231 187.979 92.2898 188.773 92.2898 189.682C92.2898 190.583 92.1231 191.371 91.7898 192.045C91.4602 192.72 90.9981 193.244 90.4034 193.619C89.8125 193.994 89.1231 194.182 88.3352 194.182ZM88.3352 192.977C88.9337 192.977 89.4261 192.824 89.8125 192.517C90.1989 192.21 90.4848 191.807 90.6705 191.307C90.8561 190.807 90.9489 190.265 90.9489 189.682C90.9489 189.098 90.8561 188.555 90.6705 188.051C90.4848 187.547 90.1989 187.14 89.8125 186.83C89.4261 186.519 88.9337 186.364 88.3352 186.364C87.7367 186.364 87.2443 186.519 86.858 186.83C86.4716 187.14 86.1856 187.547 86 188.051C85.8144 188.555 85.7216 189.098 85.7216 189.682C85.7216 190.265 85.8144 190.807 86 191.307C86.1856 191.807 86.4716 192.21 86.858 192.517C87.2443 192.824 87.7367 192.977 88.3352 192.977ZM98.223 185.273V186.409H93.5185V185.273H98.223ZM94.9276 194V184.068C94.9276 183.568 95.045 183.152 95.2798 182.818C95.5147 182.485 95.8196 182.235 96.1946 182.068C96.5696 181.902 96.9654 181.818 97.3821 181.818C97.7116 181.818 97.9806 181.845 98.1889 181.898C98.3973 181.951 98.5526 182 98.6548 182.045L98.2685 183.205C98.2003 183.182 98.1056 183.153 97.9844 183.119C97.867 183.085 97.7116 183.068 97.5185 183.068C97.0753 183.068 96.7552 183.18 96.5582 183.403C96.3651 183.627 96.2685 183.955 96.2685 184.386V194H94.9276ZM104.784 194V182.364H111.807V183.614H106.193V187.545H111.443V188.795H106.193V192.75H111.898V194H104.784ZM115.165 185.273L117.256 188.841L119.347 185.273H120.892L118.074 189.636L120.892 194H119.347L117.256 190.614L115.165 194H113.619L116.392 189.636L113.619 185.273H115.165ZM125.991 194.182C125.173 194.182 124.469 193.989 123.878 193.602C123.287 193.216 122.832 192.684 122.514 192.006C122.196 191.328 122.037 190.553 122.037 189.682C122.037 188.795 122.2 188.013 122.526 187.335C122.855 186.653 123.313 186.121 123.901 185.739C124.491 185.352 125.181 185.159 125.969 185.159C126.582 185.159 127.135 185.273 127.628 185.5C128.12 185.727 128.524 186.045 128.838 186.455C129.152 186.864 129.348 187.341 129.423 187.886H128.082C127.98 187.489 127.753 187.136 127.401 186.83C127.052 186.519 126.582 186.364 125.991 186.364C125.469 186.364 125.01 186.5 124.616 186.773C124.226 187.042 123.921 187.422 123.702 187.915C123.486 188.403 123.378 188.977 123.378 189.636C123.378 190.311 123.484 190.898 123.696 191.398C123.912 191.898 124.215 192.286 124.605 192.562C124.999 192.839 125.461 192.977 125.991 192.977C126.34 192.977 126.656 192.917 126.94 192.795C127.224 192.674 127.465 192.5 127.662 192.273C127.859 192.045 127.999 191.773 128.082 191.455H129.423C129.348 191.97 129.16 192.434 128.861 192.847C128.565 193.256 128.173 193.581 127.685 193.824C127.2 194.062 126.635 194.182 125.991 194.182ZM135.043 194.182C134.202 194.182 133.476 193.996 132.866 193.625C132.26 193.25 131.793 192.727 131.463 192.057C131.137 191.383 130.974 190.598 130.974 189.705C130.974 188.811 131.137 188.023 131.463 187.341C131.793 186.655 132.251 186.121 132.838 185.739C133.429 185.352 134.118 185.159 134.906 185.159C135.361 185.159 135.81 185.235 136.253 185.386C136.696 185.538 137.099 185.784 137.463 186.125C137.827 186.462 138.116 186.909 138.332 187.466C138.548 188.023 138.656 188.708 138.656 189.523V190.091H131.929V188.932H137.293C137.293 188.439 137.194 188 136.997 187.614C136.804 187.227 136.527 186.922 136.168 186.699C135.812 186.475 135.391 186.364 134.906 186.364C134.372 186.364 133.91 186.496 133.52 186.761C133.134 187.023 132.836 187.364 132.628 187.784C132.42 188.205 132.315 188.655 132.315 189.136V189.909C132.315 190.568 132.429 191.127 132.656 191.585C132.887 192.04 133.207 192.386 133.616 192.625C134.026 192.86 134.501 192.977 135.043 192.977C135.395 192.977 135.713 192.928 135.997 192.83C136.285 192.727 136.533 192.576 136.741 192.375C136.95 192.17 137.111 191.917 137.224 191.614L138.52 191.977C138.384 192.417 138.154 192.803 137.832 193.136C137.51 193.466 137.113 193.723 136.639 193.909C136.166 194.091 135.634 194.182 135.043 194.182ZM142.037 182.364V194H140.696V182.364H142.037ZM145.834 182.364V194H144.493V182.364H145.834ZM151.949 194.182C151.108 194.182 150.383 193.996 149.773 193.625C149.167 193.25 148.699 192.727 148.369 192.057C148.044 191.383 147.881 190.598 147.881 189.705C147.881 188.811 148.044 188.023 148.369 187.341C148.699 186.655 149.157 186.121 149.744 185.739C150.335 185.352 151.025 185.159 151.812 185.159C152.267 185.159 152.716 185.235 153.159 185.386C153.602 185.538 154.006 185.784 154.369 186.125C154.733 186.462 155.023 186.909 155.239 187.466C155.455 188.023 155.562 188.708 155.562 189.523V190.091H148.835V188.932H154.199C154.199 188.439 154.1 188 153.903 187.614C153.71 187.227 153.434 186.922 153.074 186.699C152.718 186.475 152.297 186.364 151.812 186.364C151.278 186.364 150.816 186.496 150.426 186.761C150.04 187.023 149.742 187.364 149.534 187.784C149.326 188.205 149.222 188.655 149.222 189.136V189.909C149.222 190.568 149.335 191.127 149.562 191.585C149.794 192.04 150.114 192.386 150.523 192.625C150.932 192.86 151.407 192.977 151.949 192.977C152.301 192.977 152.619 192.928 152.903 192.83C153.191 192.727 153.439 192.576 153.648 192.375C153.856 192.17 154.017 191.917 154.131 191.614L155.426 191.977C155.29 192.417 155.061 192.803 154.739 193.136C154.417 193.466 154.019 193.723 153.545 193.909C153.072 194.091 152.54 194.182 151.949 194.182ZM158.943 188.75V194H157.602V185.273H158.898V186.636H159.011C159.216 186.193 159.527 185.837 159.943 185.568C160.36 185.295 160.898 185.159 161.557 185.159C162.148 185.159 162.665 185.28 163.108 185.523C163.551 185.761 163.896 186.125 164.142 186.614C164.388 187.098 164.511 187.712 164.511 188.455V194H163.17V188.545C163.17 187.86 162.992 187.326 162.636 186.943C162.28 186.557 161.792 186.364 161.17 186.364C160.742 186.364 160.36 186.456 160.023 186.642C159.689 186.828 159.426 187.098 159.233 187.455C159.04 187.811 158.943 188.242 158.943 188.75ZM170.507 194.182C169.689 194.182 168.984 193.989 168.393 193.602C167.803 193.216 167.348 192.684 167.03 192.006C166.712 191.328 166.553 190.553 166.553 189.682C166.553 188.795 166.715 188.013 167.041 187.335C167.371 186.653 167.829 186.121 168.416 185.739C169.007 185.352 169.696 185.159 170.484 185.159C171.098 185.159 171.651 185.273 172.143 185.5C172.636 185.727 173.039 186.045 173.354 186.455C173.668 186.864 173.863 187.341 173.939 187.886H172.598C172.496 187.489 172.268 187.136 171.916 186.83C171.568 186.519 171.098 186.364 170.507 186.364C169.984 186.364 169.526 186.5 169.132 186.773C168.742 187.042 168.437 187.422 168.217 187.915C168.001 188.403 167.893 188.977 167.893 189.636C167.893 190.311 168 190.898 168.212 191.398C168.428 191.898 168.731 192.286 169.121 192.562C169.515 192.839 169.977 192.977 170.507 192.977C170.856 192.977 171.172 192.917 171.456 192.795C171.74 192.674 171.981 192.5 172.178 192.273C172.375 192.045 172.515 191.773 172.598 191.455H173.939C173.863 191.97 173.676 192.434 173.376 192.847C173.081 193.256 172.689 193.581 172.2 193.824C171.715 194.062 171.151 194.182 170.507 194.182ZM179.558 194.182C178.717 194.182 177.992 193.996 177.382 193.625C176.776 193.25 176.308 192.727 175.979 192.057C175.653 191.383 175.49 190.598 175.49 189.705C175.49 188.811 175.653 188.023 175.979 187.341C176.308 186.655 176.767 186.121 177.354 185.739C177.945 185.352 178.634 185.159 179.422 185.159C179.876 185.159 180.325 185.235 180.768 185.386C181.212 185.538 181.615 185.784 181.979 186.125C182.342 186.462 182.632 186.909 182.848 187.466C183.064 188.023 183.172 188.708 183.172 189.523V190.091H176.445V188.932H181.808C181.808 188.439 181.71 188 181.513 187.614C181.32 187.227 181.043 186.922 180.683 186.699C180.327 186.475 179.907 186.364 179.422 186.364C178.888 186.364 178.426 186.496 178.036 186.761C177.649 187.023 177.352 187.364 177.143 187.784C176.935 188.205 176.831 188.655 176.831 189.136V189.909C176.831 190.568 176.945 191.127 177.172 191.585C177.403 192.04 177.723 192.386 178.132 192.625C178.541 192.86 179.017 192.977 179.558 192.977C179.911 192.977 180.229 192.928 180.513 192.83C180.801 192.727 181.049 192.576 181.257 192.375C181.465 192.17 181.626 191.917 181.74 191.614L183.036 191.977C182.899 192.417 182.67 192.803 182.348 193.136C182.026 193.466 181.628 193.723 181.155 193.909C180.681 194.091 180.149 194.182 179.558 194.182Z" fill="#31393C"/>
<path d="M137.14 27.7777H84.7016C78.8094 27.7777 74 32.5997 74 38.4794V74.2984C74 80.1906 78.822 85 84.7016 85H137.14C143.032 85 147.841 80.178 147.841 74.2984V38.4794C147.854 32.5872 143.032 27.7777 137.14 27.7777Z" fill="url(#paint1_linear_1_1326)" stroke="#3E96F4" stroke-width="2" stroke-miterlimit="10" stroke-linecap="round" stroke-linejoin="round"/>
<path d="M90.7214 25V30.9016" stroke="#3E96F4" stroke-width="4" stroke-miterlimit="10" stroke-linecap="round" stroke-linejoin="round"/>
<path d="M131.049 25V30.9016" stroke="#3E96F4" stroke-width="4" stroke-miterlimit="10" stroke-linecap="round" stroke-linejoin="round"/>
<path d="M102.139 68.133H97.3903V55.1309C97.3903 54.8645 97.3903 54.5469 97.3903 54.178C97.4005 53.7989 97.4108 53.4096 97.421 53.01C97.4415 52.6002 97.4569 52.1903 97.4671 51.7805C97.4876 51.3707 97.503 50.9967 97.5132 50.6586C97.462 50.72 97.3749 50.8123 97.252 50.9352C97.129 51.0582 96.9907 51.1965 96.837 51.3502C96.6833 51.4936 96.5245 51.6422 96.3606 51.7959C96.1966 51.9496 96.0378 52.0879 95.8841 52.2108L93.3022 54.2856L90.9968 51.427L98.2356 45.6637H102.139V68.133Z" fill="#31393C"/>
<path d="M121.997 68.133H106.92V64.8287L112.207 59.1268C112.873 58.4096 113.478 57.7487 114.021 57.1442C114.564 56.5397 115.03 55.9506 115.419 55.3768C115.809 54.803 116.111 54.219 116.326 53.6248C116.541 53.0305 116.649 52.3901 116.649 51.7036C116.649 50.9455 116.418 50.3563 115.957 49.9362C115.506 49.5161 114.897 49.3061 114.128 49.3061C113.319 49.3061 112.54 49.5059 111.792 49.9055C111.044 50.3051 110.26 50.8737 109.441 51.6114L106.859 48.553C107.32 48.133 107.801 47.7334 108.303 47.3543C108.805 46.9649 109.359 46.6217 109.963 46.3245C110.568 46.0274 111.234 45.7918 111.961 45.6176C112.689 45.4332 113.503 45.3409 114.405 45.3409C115.481 45.3409 116.444 45.4895 117.294 45.7866C118.155 46.0838 118.887 46.509 119.492 47.0623C120.096 47.6053 120.557 48.2661 120.875 49.0448C121.203 49.8235 121.367 50.6996 121.367 51.6729C121.367 52.5541 121.213 53.3993 120.906 54.2088C120.598 55.008 120.178 55.7969 119.646 56.5756C119.113 57.344 118.493 58.1125 117.786 58.8809C117.089 59.6391 116.341 60.4127 115.542 61.2016L112.837 63.9219V64.1371H121.997V68.133Z" fill="#31393C"/>
<path d="M126.117 51.7116H122.733V49.6922H126.117V46.2895H128.137V49.6922H131.512V51.7116H128.137V55.0682H126.117V51.7116Z" fill="#31393C"/>
<defs>
<filter id="filter0_d_1_1326" x="0" y="0" width="228" height="228" filterUnits="userSpaceOnUse" color-interpolation-filters="sRGB">
<feFlood flood-opacity="0" result="BackgroundImageFix"/>
<feColorMatrix in="SourceAlpha" type="matrix" values="0 0 0 0 0 0 0 0 0 0 0 0 0 0 0 0 0 0 127 0" result="hardAlpha"/>
<feOffset dx="4" dy="4"/>
<feGaussianBlur stdDeviation="2"/>
<feComposite in2="hardAlpha" operator="out"/>
<feColorMatrix type="matrix" values="0 0 0 0 0.243137 0 0 0 0 0.588235 0 0 0 0 0.956863 0 0 0 0.15 0"/>
<feBlend mode="normal" in2="BackgroundImageFix" result="effect1_dropShadow_1_1326"/>
<feBlend mode="normal" in="SourceGraphic" in2="effect1_dropShadow_1_1326" result="shape"/>
</filter>
<linearGradient id="paint0_linear_1_1326" x1="0" y1="0" x2="220" y2="220" gradientUnits="userSpaceOnUse">
<stop stop-color="#ECF5FF"/>
<stop offset="1" stop-color="white"/>
</linearGradient>
<linearGradient id="paint1_linear_1_1326" x1="74" y1="34.8361" x2="147.771" y2="85.0001" gradientUnits="userSpaceOnUse">
<stop stop-color="#9FCEFF"/>
<stop offset="1" stop-color="#E7F2FF"/>
</linearGradient>
</defs>
</svg>
