<svg width="35" height="35" viewBox="0 0 35 35" fill="none" xmlns="http://www.w3.org/2000/svg">
<g id="Group">
<path id="Vector" d="M31.6129 18.9282V7.85806C33.5249 7.58258 35 5.93815 35 3.95161C35 1.77315 33.2274 0 31.0484 0C28.8694 0 27.0968 1.77315 27.0968 3.95161H0V26.5323H16.9643C17.2578 31.2494 21.1784 35 25.9677 35C30.9479 35 35 30.9479 35 25.9677C35 23.1231 33.6751 20.5851 31.6129 18.9282ZM31.0484 1.12903C32.6048 1.12903 33.871 2.39524 33.871 3.95161C33.871 5.50798 32.6048 6.77419 31.0484 6.77419C29.492 6.77419 28.2258 5.50798 28.2258 3.95161C28.2258 2.39524 29.492 1.12903 31.0484 1.12903ZM1.12903 5.08065H27.2633C27.3974 5.52536 27.609 5.94291 27.8882 6.31411L24.4356 9.76669C24.2144 9.66056 23.9705 9.59677 23.7097 9.59677C23.4489 9.59677 23.205 9.66056 22.9843 9.76669L21.8468 8.62919C21.9523 8.4079 22.0161 8.16403 22.0161 7.90323C22.0161 6.96952 21.2563 6.20968 20.3226 6.20968C19.3889 6.20968 18.629 6.96952 18.629 7.90323C18.629 8.16403 18.6928 8.4079 18.799 8.62863L15.9679 11.4597C15.7417 11.3495 15.4936 11.2916 15.2419 11.2903C14.3082 11.2903 13.5484 12.0502 13.5484 12.9839C13.5484 13.9176 14.3082 14.6774 15.2419 14.6774C16.1756 14.6774 16.9355 13.9176 16.9355 12.9839C16.9344 12.7323 16.8763 12.4843 16.7656 12.2585L19.5966 9.42742C19.8179 9.53298 20.0618 9.59677 20.3226 9.59677C20.5834 9.59677 20.8273 9.53298 21.048 9.42685L22.1855 10.5644C22.0799 10.7856 22.0161 11.0295 22.0161 11.2903C22.0161 12.224 22.776 12.9839 23.7097 12.9839C24.6434 12.9839 25.4032 12.224 25.4032 11.2903C25.4021 11.0388 25.344 10.7908 25.2333 10.5649L28.6865 7.11234C29.2135 7.50797 29.8316 7.76461 30.4839 7.85863V18.1582C29.1133 17.3579 27.5548 16.936 25.9677 16.9355C23.2694 16.9355 20.8498 18.1311 19.1935 20.0138V17.5H15.8065V24.2742H17.1003C17.0314 24.6473 16.9859 25.0244 16.9643 25.4032H1.12903V5.08065ZM23.7097 10.7258C23.8215 10.7257 23.9308 10.7588 24.0238 10.8208C24.1168 10.8829 24.1894 10.9711 24.2322 11.0744C24.275 11.1777 24.2863 11.2913 24.2645 11.401C24.2427 11.5107 24.1889 11.6114 24.1098 11.6905C24.0308 11.7695 23.93 11.8234 23.8203 11.8451C23.7107 11.8669 23.597 11.8557 23.4937 11.8128C23.3905 11.77 23.3022 11.6975 23.2402 11.6045C23.1781 11.5115 23.145 11.4021 23.1452 11.2903C23.1452 10.9787 23.3986 10.7258 23.7097 10.7258ZM19.7581 7.90323C19.758 7.79142 19.791 7.68209 19.8531 7.58907C19.9151 7.49606 20.0034 7.42354 20.1066 7.3807C20.2099 7.33786 20.3236 7.32663 20.4332 7.34841C20.5429 7.3702 20.6437 7.42403 20.7227 7.50309C20.8018 7.58215 20.8556 7.68289 20.8774 7.79256C20.8992 7.90223 20.8879 8.01589 20.8451 8.11917C20.8023 8.22245 20.7297 8.31069 20.6367 8.37274C20.5437 8.43479 20.4344 8.46785 20.3226 8.46774C20.0115 8.46774 19.7581 8.21484 19.7581 7.90323ZM15.8065 12.9839C15.7999 13.1292 15.7376 13.2665 15.6325 13.367C15.5273 13.4676 15.3874 13.5237 15.2419 13.5237C15.0964 13.5237 14.9565 13.4676 14.8514 13.367C14.7462 13.2665 14.6839 13.1292 14.6774 12.9839C14.6839 12.8385 14.7462 12.7013 14.8514 12.6007C14.9565 12.5002 15.0964 12.444 15.2419 12.444C15.3874 12.444 15.5273 12.5002 15.6325 12.6007C15.7376 12.7013 15.7999 12.8385 15.8065 12.9839ZM25.9677 30.4839C23.4777 30.4839 21.4516 28.4578 21.4516 25.9677C21.4516 23.4777 23.4777 21.4516 25.9677 21.4516C28.4578 21.4516 30.4839 23.4777 30.4839 25.9677C30.4839 28.4578 28.4578 30.4839 25.9677 30.4839ZM18.0645 21.6046C17.793 22.096 17.5683 22.6118 17.3933 23.1452H16.9355V18.629H18.0645V21.6046ZM25.4032 18.0933V20.3514C22.5547 20.6359 20.3226 23.0458 20.3226 25.9677C20.3226 26.7936 20.5055 27.5766 20.8256 28.2845L18.8673 29.4152C18.3402 28.3423 18.0656 27.1631 18.0645 25.9677C18.0645 21.8005 21.3088 18.3846 25.4032 18.0933ZM25.9677 33.871C23.2502 33.871 20.8487 32.4919 19.4261 30.3964L21.3923 29.2611C22.4186 30.6826 24.0845 31.6129 25.9677 31.6129C27.851 31.6129 29.5169 30.6826 30.5431 29.2611L32.5094 30.3964C31.0868 32.4919 28.6853 33.871 25.9677 33.871ZM33.0682 29.4152L31.1099 28.2845C31.4408 27.5569 31.6123 26.767 31.6129 25.9677C31.6129 23.0458 29.3808 20.6353 26.5323 20.3514V18.0933C30.6267 18.3846 33.871 21.8005 33.871 25.9677C33.871 27.2046 33.5774 28.372 33.0682 29.4152Z" fill="url(#paint0_linear_305_304)"/>
<path id="Vector_2" d="M25.9677 22.5807C24.0998 22.5807 22.5806 24.0998 22.5806 25.9678C22.5806 27.8358 24.0998 29.3549 25.9677 29.3549C27.8357 29.3549 29.3548 27.8358 29.3548 25.9678C29.3548 24.0998 27.8357 22.5807 25.9677 22.5807ZM25.9677 28.2258C24.7224 28.2258 23.7097 27.2131 23.7097 25.9678C23.7097 24.7225 24.7224 23.7097 25.9677 23.7097C27.2131 23.7097 28.2258 24.7225 28.2258 25.9678C28.2258 27.2131 27.2131 28.2258 25.9677 28.2258ZM2.25806 6.20972H3.38709V7.33875H2.25806V6.20972ZM4.51612 6.20972H12.4193V7.33875H4.51612V6.20972ZM2.25806 8.46778H3.38709V9.59681H2.25806V8.46778ZM4.51612 8.46778H12.4193V9.59681H4.51612V8.46778ZM2.25806 10.7258H3.38709V11.8549H2.25806V10.7258ZM4.51612 10.7258H12.4193V11.8549H4.51612V10.7258ZM2.25806 12.9839H3.38709V14.1129H2.25806V12.9839ZM4.51612 12.9839H12.4193V14.1129H4.51612V12.9839ZM2.25806 24.2742H5.64515V18.6291H2.25806V24.2742ZM3.38709 19.7581H4.51612V23.1452H3.38709V19.7581ZM6.77419 24.2742H10.1613V19.7581H6.77419V24.2742ZM7.90322 20.8871H9.03225V23.1452H7.90322V20.8871ZM11.2903 24.2742H14.6774V15.242H11.2903V24.2742ZM12.4193 16.371H13.5484V23.1452H12.4193V16.371Z" fill="url(#paint1_linear_305_304)"/>
</g>
<defs>
<linearGradient id="paint0_linear_305_304" x1="5.41793" y1="4.37256" x2="29.4661" y2="28.2105" gradientUnits="userSpaceOnUse">
<stop stop-color="#3E96F4"/>
<stop offset="1" stop-color="#31393C"/>
</linearGradient>
<linearGradient id="paint1_linear_305_304" x1="6.45258" y1="9.10125" x2="22.1815" y2="27.3546" gradientUnits="userSpaceOnUse">
<stop stop-color="#3E96F4"/>
<stop offset="1" stop-color="#31393C"/>
</linearGradient>
</defs>
</svg>
