<svg width="568" height="503" viewBox="0 0 568 503" fill="none" xmlns="http://www.w3.org/2000/svg">
<g filter="url(#filter0_di_1_2258)">
<ellipse cx="284.452" cy="251.022" rx="181.452" ry="181.022" fill="url(#paint0_linear_1_2258)"/>
</g>
<path opacity="0.4" d="M372.47 109.7C376.54 109.12 380.31 111.95 380.89 116.02C381.47 120.09 378.64 123.86 374.57 124.44C370.5 125.02 366.73 122.19 366.15 118.12C365.57 114.05 368.4 110.28 372.47 109.7Z" fill="#E9F4FF"/>
<path d="M364.28 120.92C364.64 121.79 365.12 122.59 365.7 123.31L364.86 125.08L366.56 126.35L368.26 127.63L369.72 126.33C370.57 126.68 371.47 126.92 372.41 127.02L373.06 128.86L375.16 128.56L377.26 128.26L377.37 126.31C378.24 125.95 379.04 125.47 379.76 124.89L381.53 125.73L382.8 124.03L384.08 122.33L382.78 120.87C383.13 120.02 383.37 119.12 383.47 118.18L385.31 117.53L385.01 115.43L384.71 113.33L382.76 113.22C382.4 112.35 381.92 111.55 381.34 110.83L382.18 109.06L380.48 107.78L378.78 106.51L377.32 107.81C376.47 107.46 375.57 107.22 374.63 107.12L373.98 105.28L371.88 105.58L369.78 105.88L369.67 107.83C368.8 108.19 368 108.67 367.28 109.25L365.51 108.41L364.23 110.11L362.96 111.81L364.26 113.27C363.91 114.12 363.67 115.02 363.57 115.96L361.73 116.61L362.03 118.71L362.33 120.81L364.28 120.92ZM372.47 109.7C376.54 109.12 380.31 111.95 380.89 116.02C381.47 120.09 378.64 123.86 374.57 124.44C370.5 125.02 366.73 122.19 366.15 118.12C365.57 114.05 368.4 110.28 372.47 109.7ZM372.47 109.7C376.54 109.12 380.31 111.95 380.89 116.02C381.47 120.09 378.64 123.86 374.57 124.44C370.5 125.02 366.73 122.19 366.15 118.12C365.57 114.05 368.4 110.28 372.47 109.7Z" stroke="#EEF7FF" stroke-width="0.5" stroke-miterlimit="10"/>
<path d="M270.38 188.14H258.8V191.08H270.38V188.14Z" fill="white"/>
<path d="M268.06 193.57H258.8V196.51H268.06V193.57Z" fill="white"/>
<path d="M271.49 321.37H259.34V325.29H271.49V321.37Z" fill="white"/>
<path d="M390.38 161.14H372.09V164.08H390.38V161.14Z" fill="#D4EAFF"/>
<path d="M398.03 166.57H372.09V169.51H398.03V166.57Z" fill="#EEF7FF"/>
<path d="M249.1 188.14H227.63V191.08H249.1V188.14Z" fill="white"/>
<path d="M241.36 193.57H227.63V196.51H241.36V193.57Z" fill="white"/>
<path d="M318.66 188.14H305.35V191.08H318.66V188.14Z" fill="white"/>
<path d="M320.86 193.57H305.35V196.51H320.86V193.57Z" fill="white"/>
<path d="M240.6 321.37H228.45V325.29H240.6V321.37Z" fill="white"/>
<path d="M317.5 321.37H305.35V325.29H317.5V321.37Z" fill="white"/>
<path d="M372.53 237.94H368.86V253.78H372.53V237.94Z" fill="#D4EAFF"/>
<path d="M381.64 231.5H377.97V253.78H381.64V231.5Z" fill="#D4EAFF"/>
<path d="M390.75 228.15H387.08V253.79H390.75V228.15Z" fill="#D4EAFF"/>
<path d="M399.87 226.75H396.2V253.79H399.87V226.75Z" fill="#D4EAFF"/>
<path d="M372.53 243.84H368.86V253.78H372.53V243.84Z" fill="#4E7ED6"/>
<path d="M381.64 239.81H377.97V253.79H381.64V239.81Z" fill="#4E7ED6"/>
<path d="M390.75 237.7H387.08V253.79H390.75V237.7Z" fill="#4E7ED6"/>
<path d="M399.87 236.82H396.2V253.78H399.87V236.82Z" fill="#4E7ED6"/>
<path d="M311.26 134.03H215.3C209.14 134.03 204.14 139.03 204.14 145.19V312.4C204.14 318.56 209.14 323.56 215.3 323.56H311.26C317.42 323.56 322.42 318.56 322.42 312.4V145.19C322.42 139.02 317.42 134.03 311.26 134.03Z" fill="white" stroke="#92C9FF" stroke-width="0.5" stroke-miterlimit="10"/>
<path d="M311.4 169.51H276.52V173.92H311.4V169.51Z" fill="#D4EAFF"/>
<path d="M308.53 188H276.52V192.41H308.53V188Z" fill="#D4EAFF"/>
<path d="M304.22 178.76H276.52V183.17H304.22V178.76Z" fill="#D4EAFF"/>
<path d="M235.31 209.8C231.96 209.8 228.72 209.1 225.7 207.73C217.41 203.96 212.05 195.64 212.05 186.54C212.05 173.71 222.49 163.28 235.31 163.28C248.14 163.28 258.57 173.72 258.57 186.54C258.57 195.64 253.21 203.96 244.92 207.73C241.9 209.1 238.67 209.8 235.31 209.8ZM235.31 164.5C223.16 164.5 213.28 174.38 213.28 186.53C213.28 195.15 218.35 203.03 226.21 206.6C229.07 207.9 232.14 208.56 235.32 208.56C238.5 208.56 241.56 207.9 244.43 206.6C252.28 203.03 257.36 195.15 257.36 186.53C257.35 174.39 247.46 164.5 235.31 164.5Z" fill="#E9F4FF"/>
<path d="M297.7 215.86H257.63V219.79H297.7V215.86Z" fill="#EEF7FF"/>
<path d="M297.7 226.44H257.63V230.37H297.7V226.44Z" fill="#EEF7FF"/>
<path d="M297.7 237.02H257.63V240.95H297.7V237.02Z" fill="#EEF7FF"/>
<path d="M312.57 215.86H305.88V219.79H312.57V215.86Z" fill="#4E7ED6"/>
<path d="M312.57 226.44H305.88V230.37H312.57V226.44Z" fill="#4E7ED6"/>
<path d="M312.57 237.02H305.88V240.95H312.57V237.02Z" fill="#4E7ED6"/>
<path d="M258.22 349.48H194.09C189.69 349.48 186.12 345.91 186.12 341.51V235.87C186.12 231.47 189.69 227.9 194.09 227.9H258.22C262.62 227.9 266.19 231.47 266.19 235.87V341.51C266.19 345.91 262.62 349.48 258.22 349.48Z" fill="white" stroke="#92C9FF" stroke-width="0.5" stroke-miterlimit="10"/>
<path d="M256.83 245.98C254.87 240.49 249.62 237.12 244.1 237.29C242.76 237.33 241.41 237.58 240.08 238.05C236.05 239.49 233.17 242.7 231.98 246.48C231.16 249.11 231.15 252.01 232.15 254.8C232.25 255.08 232.36 255.35 232.47 255.62C232.99 256.83 233.68 257.92 234.5 258.88C237.93 262.91 243.62 264.62 248.9 262.73C255.71 260.3 259.26 252.8 256.83 245.98ZM247.79 259.65C243.83 261.07 239.57 259.79 236.99 256.77C236.38 256.05 235.86 255.23 235.47 254.32C235.38 254.12 235.3 253.92 235.23 253.71C234.48 251.62 234.49 249.44 235.1 247.47C235.99 244.63 238.15 242.23 241.17 241.15C242.17 240.79 243.18 240.61 244.18 240.58C248.32 240.45 252.25 242.98 253.73 247.1C255.56 252.19 252.9 257.82 247.79 259.65Z" fill="#EEF7FF"/>
<path d="M235.11 247.46L231.98 246.48C233.17 242.69 236.05 239.49 240.08 238.05C241.41 237.57 242.76 237.33 244.1 237.29L244.2 240.57C243.2 240.6 242.18 240.79 241.19 241.14C238.16 242.22 235.99 244.62 235.11 247.46Z" fill="#4E7ED6"/>
<path d="M235.48 254.31L232.47 255.62C232.35 255.35 232.25 255.08 232.15 254.8C231.15 252.01 231.16 249.11 231.98 246.48L235.11 247.46C234.49 249.43 234.49 251.61 235.24 253.7C235.31 253.91 235.39 254.11 235.48 254.31Z" fill="#72A2E8"/>
<path d="M234.5 258.89C233.68 257.93 232.99 256.84 232.47 255.63L235.48 254.32C235.87 255.23 236.39 256.05 237 256.77L234.5 258.89Z" fill="#98C2F4"/>
<path d="M334.36 299.03H327.3V322.19H334.36V299.03Z" fill="#D4EAFF"/>
<path d="M323.86 305.53H316.8V322.2H323.86V305.53Z" fill="#D4EAFF"/>
<path d="M344.55 288.29H337.49V322.19H344.55V288.29Z" fill="#D4EAFF"/>
<path d="M196.82 319.64L196.2 319.17L207.71 304.19L221.92 304.96L232.64 287.9L244.18 286.71L251.12 272.99L251.81 273.34L244.68 287.44L233.09 288.63L222.34 305.76L208.08 304.99L196.82 319.64Z" fill="#4E7ED6"/>
<path d="M218.59 245.16H198.5C197.23 245.16 196.2 244.13 196.2 242.86C196.2 241.59 197.23 240.56 198.5 240.56H218.59C219.86 240.56 220.89 241.59 220.89 242.86C220.89 244.13 219.86 245.16 218.59 245.16Z" fill="#4E7ED6"/>
<path d="M218.59 253.17H198.5C197.23 253.17 196.2 252.14 196.2 250.87C196.2 249.6 197.23 248.57 198.5 248.57H218.59C219.86 248.57 220.89 249.6 220.89 250.87C220.89 252.14 219.86 253.17 218.59 253.17Z" fill="#D4EAFF"/>
<path d="M218.59 261.18H198.5C197.23 261.18 196.2 260.15 196.2 258.88C196.2 257.61 197.23 256.58 198.5 256.58H218.59C219.86 256.58 220.89 257.61 220.89 258.88C220.89 260.15 219.86 261.18 218.59 261.18Z" fill="#D4EAFF"/>
<path d="M238.34 173.79H232.28V199.28H238.34V173.79Z" fill="#92C9FF"/>
<path d="M248.06 189.567V183.507H222.57V189.567H248.06Z" fill="#92C9FF"/>
<path d="M395.31 177.85C388.45 174.6 380.51 176.33 375.57 181.58C374.37 182.85 373.35 184.33 372.57 185.99C370.19 191.03 370.48 196.64 372.88 201.23C374.54 204.41 377.21 207.09 380.71 208.74C381.06 208.9 381.41 209.06 381.76 209.2C383.36 209.83 385 210.2 386.64 210.33C393.52 210.89 400.33 207.21 403.46 200.61C407.48 192.07 403.84 181.89 395.31 177.85ZM399.58 198.77C397.24 203.72 392.13 206.48 386.97 206.06C385.74 205.96 384.51 205.68 383.31 205.21C383.05 205.11 382.78 204.99 382.52 204.87C379.9 203.63 377.9 201.62 376.65 199.24C374.85 195.8 374.63 191.59 376.42 187.82C377.01 186.57 377.77 185.47 378.67 184.51C382.37 180.58 388.33 179.28 393.47 181.72C399.87 184.74 402.6 192.38 399.58 198.77Z" fill="#EEF7FF"/>
<path d="M376.66 199.24L372.87 201.22C370.47 196.64 370.18 191.02 372.56 185.98C373.35 184.32 374.37 182.84 375.56 181.57L378.67 184.5C377.77 185.45 377.01 186.56 376.42 187.81C374.64 191.59 374.86 195.8 376.66 199.24Z" fill="#4E7ED6"/>
<path d="M383.31 205.21L381.74 209.19C381.39 209.05 381.04 208.9 380.69 208.73C377.2 207.08 374.53 204.4 372.86 201.22L376.65 199.24C377.9 201.62 379.9 203.63 382.52 204.87C382.79 204.99 383.05 205.11 383.31 205.21Z" fill="#72A2E8"/>
<path d="M386.63 210.33C384.99 210.2 383.35 209.83 381.75 209.2L383.32 205.22C384.52 205.69 385.75 205.97 386.98 206.07L386.63 210.33Z" fill="#98C2F4"/>
<path d="M382.75 221.58H350.86V220.95H382.12V207.44H382.75V221.58Z" fill="#92C9FF"/>
<path d="M367.65 214.35H350.86V218.15H367.65V214.35Z" fill="#D4EAFF"/>
<path d="M172.03 343.25C172.03 343.25 172.5 344.36 173.38 345.51C174.03 346.36 176.05 349.83 176.94 350.08C177.83 350.32 180.58 350.81 180.82 352.34C181.06 353.88 181.18 354.97 178.48 355.09C175.77 355.21 173.99 355.37 172.7 353.47C171.41 351.57 169.35 350.2 169.35 350.2V355.16H168.3C168.3 355.16 167.82 350 167.53 349.64C167.25 349.28 166.52 345.32 169.03 343.25C171.53 341.19 172.03 343.25 172.03 343.25Z" fill="#D4EAFF"/>
<path d="M176.94 350.08C176.94 350.08 174.52 350.69 173.59 350.08C172.66 349.47 169.5 344.13 168.45 343.81C168.45 343.81 169.46 341.75 172.03 343.25C172.03 343.25 176.25 349.19 176.94 350.08Z" fill="#EEA886"/>
<path d="M171.39 223.71C171.39 223.71 176.62 234.73 173.02 235.39C168.08 236.3 166.08 227.16 166.08 227.16L171.39 223.71Z" fill="#163342"/>
<path d="M199.94 251.1C199.94 251.1 201.57 250.59 201.71 249.62C201.82 248.8 202.56 247.81 202.79 247.51C203.09 247.1 203.56 245.51 204.08 245.89C204.6 246.27 203.43 248.55 203.29 249.08C203.14 249.61 205.38 248.6 205.93 248.74C206.48 248.88 207.94 252.68 206.32 253.19C204.71 253.7 202.64 253.18 202.38 253.33C202.11 253.48 201.22 253.75 201.22 253.75L199.94 251.1Z" fill="#EEA886"/>
<path d="M205.52 248.77C205.52 248.77 210.57 247.53 210.97 247.73C211.38 247.93 211.43 248.21 210.96 248.34C210.49 248.48 206.12 249.68 206.12 249.68C206.12 249.68 212.34 249.22 212.71 249.31C212.93 249.36 213.06 249.89 212.81 249.99C212.56 250.09 206.43 250.9 206.43 250.9C206.43 250.9 212.24 250.48 212.52 250.65C212.77 250.8 212.77 251.31 212.34 251.37C211.91 251.43 206.54 252.13 206.54 252.13C206.54 252.13 210.79 252.09 210.94 252.37C211.04 252.54 211.17 253 210.07 252.97C208.97 252.95 206.38 253.16 206.38 253.16L205.52 248.77Z" fill="#EEA886"/>
<path d="M158.47 346.46C158.47 346.46 161.18 350.48 162.27 351.45C162.27 351.45 164.69 352.34 164.94 354.04C165.18 355.74 165.14 356.87 162.27 356.95C159.4 357.03 157.52 356.52 156.99 354.78C156.46 353.04 155.31 351.86 155.31 351.86V355.5H154.68C154.68 355.5 154.52 351.98 154.48 351.34C154.44 350.69 154.02 348.21 155.38 347.11C156.74 346 158.47 346.46 158.47 346.46Z" fill="#D4EAFF"/>
<path d="M156.66 268.84C156.66 268.84 153.24 273.29 152.31 278.56C151.38 283.83 152.86 301.54 152.82 304.14C152.78 306.75 150.35 313.23 150.84 318.14C151.32 323.05 153.24 347.49 153.24 347.49L158.48 346.45C158.48 346.45 158.18 321.53 158.48 319.47C158.78 317.41 159.39 309.9 159.51 309.05C159.63 308.2 167.21 285.91 167.21 282.11C167.2 278.32 164.9 262.64 156.66 268.84Z" fill="#323B3D"/>
<path d="M173.83 270.58C173.83 270.58 179.45 292.02 180.11 294.99C180.78 297.96 181.74 300.41 181.74 301.67C181.74 304.6 180.65 309.3 180.65 309.3L173.52 343.42H166.73C166.73 343.42 170.52 322.95 170.62 318.95C170.72 314.94 173.81 309.24 173.2 307.54C172.59 305.84 163.44 286.26 163.44 286.26C163.44 286.26 156.51 264.35 173.83 270.58Z" fill="#323B3D"/>
<path d="M162.27 351.45C162.27 351.45 159.5 353 157.71 351.01C156.2 349.33 155.37 347.1 155.37 347.1L158.47 346.46L162.27 351.45Z" fill="#EEA886"/>
<path d="M171.51 234.14C171.51 234.14 173.83 234.36 175.58 236.23C177.33 238.11 178.97 241.1 179.43 242.1C179.89 243.1 186.31 252.37 186.65 252.58C186.98 252.79 189.79 252.05 192.04 251.86C195.71 251.55 201.2 249.68 201.2 249.68L202.02 253.83C202.02 253.83 188.51 258.19 185.39 257.42C181.58 256.48 172.8 245.22 172.8 245.22C172.8 245.22 166.26 237.56 171.51 234.14Z" fill="#D4EAFF"/>
<path d="M167.47 232.52C167.47 232.52 170.47 233.94 171.51 234.14C172.55 234.35 176.59 239.6 177.3 241.52C178.01 243.44 177.3 246.31 175.84 249.69C174.38 253.07 175.76 254.19 175.09 257.57C174.42 260.95 174.64 273.57 174.76 275.45C174.89 277.33 155.26 280.17 151.38 276.75C151.38 276.75 154 265.37 157.11 262.12C157.78 261.42 157.71 256.74 157.25 255.57C156.79 254.4 151.62 245.69 151.62 245.69C151.62 245.69 151.24 236.86 153.5 235.11C155.46 233.59 160.8 233.05 161.75 232.71C162.72 232.37 165.51 232.23 167.47 232.52Z" fill="#3481CE"/>
<path d="M168.9 229.06C168.9 229.06 168.3 234.56 168.43 236.36C168.43 236.36 165.31 239.48 161.77 232.71C161.77 232.71 163.26 229.92 162.14 226.12C161.01 222.31 168.9 229.06 168.9 229.06Z" fill="#EEA886"/>
<path d="M177.63 250.93C177.63 250.93 178.38 245.94 177.58 242.9C177.58 242.9 177.58 245.51 176.15 249.22L177.63 250.93Z" fill="#AAADBA"/>
<path d="M159.69 218.73C159.69 218.73 159 217.9 158.75 218.74C158.49 219.57 159.33 222.04 159.43 222.4C159.43 222.4 159.85 223.79 160.01 223.61C160.17 223.43 159.69 218.73 159.69 218.73Z" fill="#EEA987"/>
<path d="M171.71 218.83C171.71 218.83 172.4 218 172.65 218.84C172.91 219.67 172.07 222.14 171.97 222.5C171.97 222.5 171.55 223.89 171.39 223.71C171.23 223.53 171.71 218.83 171.71 218.83Z" fill="#EEA987"/>
<path d="M166.78 210.82C166.78 210.82 173.09 211.79 172.17 221.74C171.25 231.69 165.67 230.9 165.3 230.89C164.93 230.88 159.71 231.1 159.26 218.96C159.26 218.96 159.05 209.98 166.78 210.82Z" fill="#EEA987"/>
<path d="M160.47 218.36C160.47 218.36 167.48 220.44 170.83 219.78C170.83 219.78 171.04 221.02 171.53 221.09C172.01 221.17 172.26 218.72 172.26 218.72C172.26 218.72 172.42 210.63 165.11 210.56C157.79 210.48 159.28 219.32 159.28 219.32L159.38 220.83C159.37 220.84 160.42 221.25 160.47 218.36Z" fill="#163342"/>
<path d="M162.82 229.94C162.82 229.94 165.03 232.03 168.43 230.11C168.43 230.11 167.43 231.79 165.52 231.75C163.61 231.7 162.82 229.94 162.82 229.94Z" fill="#A77860"/>
<path d="M159.37 233.19C159.37 233.19 161.51 239.52 167.4 239.06C173.29 238.59 170.19 233.71 170.19 233.71C170.19 233.71 168.72 232.87 168.31 232.79C167.9 232.71 161.8 232.63 161.8 232.63L159.37 233.19Z" fill="#EEA886"/>
<path d="M170.19 233.71C170.19 233.71 173.27 242.24 173.27 250.93C173.27 259.62 173.52 273.79 174.6 278.26C175.68 282.73 178.74 296.56 178.74 296.56L181.14 295.32C181.14 295.32 175.36 273.25 174.93 271.65C174.49 270.06 175.26 253.24 175.68 251.83C176.09 250.42 177.86 244.15 177.58 242.42C177.23 240.23 175.18 236.98 171.87 234.2L170.19 233.71Z" fill="#D4EAFF"/>
<path d="M160.53 232.92C160.53 232.92 162.45 239.06 163.42 246.92C164.39 254.78 160.44 291.27 157.79 299.55L147.52 297.89C147.52 297.89 149.73 272.1 152.73 267.41C155.73 262.72 156.69 258.56 153.45 248.77C150.21 238.97 154.87 234.12 154.87 234.12C154.87 234.12 159.63 233.02 160.53 232.92Z" fill="#D4EAFF"/>
<path d="M171.61 258.95L159.16 280.51L145.32 272.52L157.23 250.64L171.61 258.95Z" fill="#616161"/>
<path d="M170.11 259.69L159.05 278.84L146.76 271.75L157.34 252.31L170.11 259.69Z" fill="#E0CEC7"/>
<path d="M166.03 257.97L166.81 256.62L161.84 253.75L160.87 254.99L166.03 257.97Z" fill="#616161"/>
<path d="M165.44 273.27C165.44 273.27 164.87 273.27 164.63 273.15C164.63 273.15 164.2 272.9 163.88 272.74C163.78 272.69 163.69 272.65 163.63 272.63C163.38 272.54 162.79 272.43 162.24 272.04C161.69 271.66 159.74 269.4 159.74 269.4L160.66 268L161.34 266.57C161.34 266.57 165.43 266.83 165.99 267.13C166.04 267.16 166.1 267.19 166.14 267.22C166.58 267.52 166.79 267.92 167.01 268.11C167.09 268.18 167.83 268.9 167.8 269.21C167.76 269.64 167.57 269.92 167.31 270.06C167.31 270.06 167.2 270.89 166.79 271.28C166.79 271.28 166.72 272.05 166.07 272.39C166.06 272.38 165.89 273.16 165.44 273.27Z" fill="#EEA886"/>
<path d="M157 234.14C157 234.14 153.22 233.06 151.05 237.22C148.88 241.39 148.89 243.16 148.6 245.2C148.33 247.12 147.09 252.37 146.97 252.91C146.85 253.45 144.05 259.91 145.33 262.17C146.62 264.44 159.71 271.12 159.62 271.62C159.54 272.12 161.89 266.57 161.89 266.57C161.89 266.57 156.59 263.62 155.73 262.71C154.32 261.23 151.35 259.64 151.96 257.81C152.68 255.66 154.83 248.4 155.33 247.34C155.83 246.28 160.19 235.5 157 234.14Z" fill="#D4EAFF"/>
<path d="M213.83 145.43C215.31 145.43 216.51 144.23 216.51 142.75C216.51 141.27 215.31 140.07 213.83 140.07C212.35 140.07 211.15 141.27 211.15 142.75C211.15 144.23 212.35 145.43 213.83 145.43Z" fill="#3481CE"/>
<path d="M224.04 140.07C223.51 140.07 222.99 140.23 222.55 140.52C222.11 140.81 221.77 141.23 221.56 141.72C221.36 142.21 221.3 142.75 221.41 143.27C221.51 143.79 221.77 144.27 222.14 144.64C222.51 145.01 222.99 145.27 223.51 145.37C224.03 145.47 224.57 145.42 225.06 145.22C225.55 145.02 225.97 144.67 226.26 144.23C226.55 143.79 226.71 143.27 226.71 142.74C226.71 142.03 226.43 141.35 225.92 140.84C225.44 140.35 224.76 140.07 224.04 140.07Z" fill="#3481CE"/>
<path d="M234.27 145.43C233.74 145.43 233.22 145.27 232.78 144.98C232.34 144.69 231.99 144.27 231.79 143.78C231.59 143.29 231.53 142.75 231.64 142.23C231.74 141.71 232 141.23 232.37 140.86C232.75 140.49 233.22 140.23 233.74 140.13C234.26 140.03 234.8 140.08 235.29 140.28C235.78 140.48 236.2 140.83 236.49 141.27C236.78 141.71 236.94 142.23 236.94 142.76C236.94 143.47 236.66 144.15 236.15 144.65C235.66 145.14 234.98 145.43 234.27 145.43ZM234.27 140.57C233.84 140.57 233.42 140.7 233.06 140.94C232.7 141.18 232.42 141.52 232.26 141.92C232.09 142.32 232.05 142.76 232.14 143.18C232.22 143.6 232.43 143.99 232.74 144.3C233.04 144.6 233.43 144.81 233.86 144.9C234.28 144.98 234.72 144.94 235.12 144.78C235.52 144.62 235.86 144.34 236.1 143.98C236.34 143.62 236.47 143.2 236.47 142.77C236.47 142.19 236.24 141.64 235.83 141.23C235.4 140.8 234.85 140.57 234.27 140.57Z" fill="#92C9FF"/>
<path d="M300.18 145.73H250.39C249.99 145.74 249.6 145.67 249.22 145.53C248.85 145.38 248.51 145.17 248.23 144.89C247.94 144.61 247.72 144.28 247.56 143.91C247.41 143.54 247.33 143.15 247.33 142.75C247.33 142.35 247.41 141.96 247.56 141.59C247.71 141.22 247.94 140.89 248.23 140.61C248.52 140.33 248.85 140.11 249.22 139.97C249.59 139.82 249.99 139.76 250.39 139.77H300.18C300.96 139.79 301.7 140.11 302.24 140.67C302.78 141.23 303.09 141.97 303.09 142.75C303.09 143.53 302.79 144.28 302.24 144.83C301.7 145.39 300.96 145.71 300.18 145.73ZM250.39 140.27C250.06 140.26 249.73 140.32 249.42 140.44C249.11 140.56 248.83 140.74 248.59 140.97C248.35 141.2 248.16 141.48 248.03 141.78C247.9 142.09 247.83 142.41 247.83 142.75C247.83 143.08 247.9 143.41 248.03 143.72C248.16 144.03 248.35 144.3 248.59 144.53C248.83 144.76 249.11 144.94 249.42 145.06C249.73 145.18 250.06 145.24 250.39 145.23H300.18C300.83 145.21 301.44 144.94 301.89 144.48C302.34 144.02 302.59 143.4 302.59 142.75C302.59 142.1 302.34 141.48 301.89 141.02C301.44 140.56 300.83 140.29 300.18 140.27H250.39Z" fill="#92C9FF"/>
<path d="M203.86 150.78H322.36" stroke="#92C9FF" stroke-width="0.5" stroke-miterlimit="10"/>
<path d="M311.57 155.15C312.54 157.47 313.82 159.61 315.35 161.53L313.1 166.24L317.64 169.64L322.18 173.04L326.08 169.56C328.35 170.5 330.76 171.13 333.26 171.4L335 176.32L340.62 175.52L346.24 174.72L346.54 169.51C348.86 168.54 351 167.26 352.92 165.73L357.63 167.98L361.03 163.44L364.43 158.9L360.95 155C361.89 152.73 362.52 150.32 362.79 147.82L367.71 146.08L366.91 140.46L366.11 134.84L360.9 134.54C359.93 132.22 358.65 130.08 357.12 128.16L359.37 123.45L354.83 120.05L350.29 116.65L346.39 120.13C344.12 119.19 341.71 118.56 339.21 118.29L337.47 113.37L331.85 114.17L326.23 114.97L325.93 120.18C323.61 121.15 321.47 122.43 319.55 123.96L314.84 121.71L311.44 126.25L308.04 130.79L311.52 134.69C310.58 136.96 309.95 139.37 309.68 141.87L304.76 143.61L305.56 149.23L306.36 154.85L311.57 155.15ZM333.43 125.18C344.3 123.63 354.37 131.18 355.92 142.05C357.47 152.92 349.92 162.99 339.05 164.54C328.18 166.09 318.11 158.54 316.56 147.67C315 136.8 322.56 126.73 333.43 125.18Z" fill="#92C9FF" stroke="#92C9FF" stroke-width="0.5" stroke-miterlimit="10" stroke-dasharray="2 2"/>
<path d="M376.21 303.93C376.21 310.08 368.55 362.82 314.33 362.82C265.65 362.82 252.45 310.07 252.45 303.93C252.45 297.79 280.16 298.77 314.33 298.77C348.5 298.77 376.21 297.78 376.21 303.93Z" fill="#3481CE"/>
<path d="M314.33 315.06C348.505 315.06 376.21 310.077 376.21 303.93C376.21 297.783 348.505 292.8 314.33 292.8C280.155 292.8 252.45 297.783 252.45 303.93C252.45 310.077 280.155 315.06 314.33 315.06Z" fill="#2B73AD"/>
<path d="M311.85 292.69L331.72 257.84C330.03 254.18 329.89 249.83 331.71 245.88C335.01 238.69 343.51 235.54 350.7 238.84C357.89 242.14 361.04 250.64 357.74 257.83C355.99 261.65 352.76 264.33 349.05 265.51L339.06 293.54L331.73 314.69C326.54 314.94 320.93 314.95 315.29 314.95C309.96 314.95 304.78 314.83 299.84 314.6L299.47 314.43L311.85 292.69Z" fill="#92C9FF"/>
<path d="M415.74 281.05L410.28 276.04H372.59L366.63 281.05C366.66 281.06 366.68 281.03 366.71 281.03H366.62V357.06H415.81V281.03H415.65C415.69 281.03 415.72 281.06 415.74 281.05Z" fill="#D4EAFF"/>
<path d="M409.631 311.258C411.249 301.287 404.478 291.892 394.507 290.274C384.536 288.655 375.141 295.427 373.523 305.398C371.905 315.369 378.676 324.763 388.647 326.382C398.618 328 408.013 321.229 409.631 311.258Z" fill="white"/>
<path d="M396.06 302.25C400.32 304.8 399.45 309.62 396.92 312.24C394.39 314.87 389.48 316.04 386.9 311.76C383.91 306.8 384.19 299.98 384.19 299.98C384.19 299.98 391.14 299.3 396.06 302.25Z" fill="#3481CE"/>
<path d="M399.03 318.19C398.93 318.19 398.83 318.13 398.8 318.02C397.44 314.1 395.41 310.6 392.77 307.63C390.91 305.54 388.74 303.71 386.33 302.19C386.21 302.12 386.18 301.96 386.25 301.85C386.32 301.73 386.48 301.7 386.59 301.77C389.05 303.32 391.25 305.18 393.14 307.3C395.83 310.32 397.89 313.87 399.27 317.86C399.31 317.99 399.25 318.13 399.12 318.18C399.08 318.18 399.05 318.19 399.03 318.19Z" fill="#323B3D"/>
<path d="M410.46 266.16H372.09V276.39H410.46V266.16Z" fill="#3481CE"/>
<path d="M399.97 325.44H385.07V361.93H399.97V325.44Z" fill="#D4EAFF"/>
<path d="M400.53 336.47H384.31V348.92H400.53V336.47Z" fill="#92C9FF"/>
<path d="M400.72 363.03H384.31C384.17 363.03 384.06 362.92 384.06 362.78V327.13C384.06 326.99 384.17 326.88 384.31 326.88H400.72C400.86 326.88 400.97 326.99 400.97 327.13V362.78C400.97 362.92 400.86 363.03 400.72 363.03ZM384.56 362.54H400.47V327.39H384.56V362.54Z" fill="#3481CE"/>
<path d="M401.66 321.1H383.37V327.79H401.66V321.1Z" fill="#3481CE"/>
<path d="M383.94 324.74C383.8 324.74 383.69 324.63 383.69 324.49C383.69 324.35 383.8 324.24 383.94 324.24L400.91 324.15C401.05 324.15 401.16 324.26 401.16 324.4C401.16 324.54 401.05 324.65 400.91 324.65L383.94 324.74Z" fill="#323B3D"/>
<path d="M364.2 340.68C361.54 343.37 357.61 343.81 354.35 340.58C351.92 338.18 360.66 327.54 363.98 330.83C367.11 333.92 366.86 337.99 364.2 340.68Z" fill="#92C9FF"/>
<path d="M363.25 339.74C360.73 342.29 356.9 342.64 354.43 340.63C354.29 340.52 354.72 339.57 354.72 339.57C354.72 339.57 353.82 340.06 353.72 339.95C351.61 337.51 351.89 333.63 354.44 331.05C356.98 328.47 360.87 328.15 363.33 330.22C363.44 330.31 362.97 331.22 362.97 331.22C362.97 331.22 363.91 330.78 364.03 330.92C366.07 333.36 365.77 337.19 363.25 339.74Z" fill="#D4EAFF"/>
<path d="M353.73 339.94C353.83 340.05 353.93 340.16 354.03 340.27C354.16 340.4 354.3 340.52 354.44 340.63L364.03 330.92C363.91 330.78 363.79 330.65 363.66 330.52C363.55 330.41 363.44 330.32 363.33 330.22L353.73 339.94Z" fill="#92C9FF"/>
<path d="M365.5 337.56L371.1 330.75C372.67 328.84 375.52 328.56 377.43 330.13C379.34 331.7 379.62 334.55 378.05 336.46L372.45 343.27L365.5 337.56Z" fill="#92C9FF"/>
<path d="M372.45 343.27L366.85 350.08C365.28 351.99 362.43 352.27 360.52 350.7C358.61 349.13 358.33 346.28 359.9 344.37L365.5 337.56L372.45 343.27Z" fill="#D4EAFF"/>
<path d="M376.11 329.38C376.58 329.55 377.03 329.8 377.43 330.13C379.34 331.7 379.62 334.55 378.05 336.46L372.45 343.27L370.14 341.37L375.74 334.56C376.98 333.05 377.06 330.96 376.11 329.38Z" fill="#78B7EA"/>
<path d="M364.53 348.18L370.13 341.37L372.44 343.27L366.84 350.08C365.27 351.99 362.42 352.27 360.51 350.7C360.1 350.37 359.77 349.98 359.52 349.55C361.26 350.18 363.29 349.69 364.53 348.18Z" fill="#B7D5ED"/>
<path d="M364.23 351.75L356.82 356.54C354.74 357.88 354.14 360.68 355.48 362.76C356.82 364.84 359.62 365.44 361.7 364.1L369.11 359.31L364.23 351.75Z" fill="#D4EAFF"/>
<path d="M369.11 359.31L376.52 354.52C378.6 353.18 379.2 350.38 377.86 348.3C376.52 346.22 373.72 345.62 371.64 346.96L364.23 351.75L369.11 359.31Z" fill="#92C9FF"/>
<path d="M354.88 361.36C354.99 361.84 355.19 362.32 355.48 362.76C356.82 364.84 359.62 365.44 361.7 364.1L369.11 359.31L367.48 356.79L360.07 361.58C358.43 362.64 356.35 362.49 354.88 361.36Z" fill="#B7D5ED"/>
<path d="M374.89 352.01L367.48 356.8L369.11 359.32L376.52 354.53C378.6 353.19 379.2 350.39 377.86 348.31C377.58 347.87 377.22 347.5 376.83 347.19C377.25 348.99 376.53 350.95 374.89 352.01Z" fill="#78B7EA"/>
<path d="M350.07 340.65L341.26 341.07C338.79 341.19 336.86 343.31 336.98 345.78C337.1 348.25 339.22 350.18 341.69 350.06L350.5 349.64L350.07 340.65Z" fill="#D4EAFF"/>
<path d="M350.5 349.63L359.31 349.21C361.78 349.09 363.71 346.97 363.59 344.5C363.47 342.03 361.35 340.1 358.88 340.22L350.07 340.64L350.5 349.63Z" fill="#92C9FF"/>
<path d="M337.16 344.27C337.02 344.75 336.95 345.25 336.97 345.78C337.09 348.25 339.21 350.18 341.68 350.06L350.49 349.64L350.35 346.65L341.54 347.07C339.6 347.16 337.87 345.98 337.16 344.27Z" fill="#B7D5ED"/>
<path d="M359.16 346.22L350.35 346.64L350.49 349.63L359.3 349.21C361.77 349.09 363.7 346.97 363.58 344.5C363.55 343.98 363.44 343.48 363.25 343.02C362.72 344.79 361.11 346.12 359.16 346.22Z" fill="#78B7EA"/>
<path d="M353.54 361.14C349.68 362.2 345.86 360.52 344.58 355.84C343.63 352.36 357.25 347.25 358.56 352.02C359.78 356.5 357.4 360.09 353.54 361.14Z" fill="#92C9FF"/>
<path d="M353.17 359.79C349.52 360.79 345.83 359.08 344.63 355.94C344.56 355.76 345.46 355.12 345.46 355.12C345.46 355.12 344.38 355.09 344.35 354.94C343.71 351.6 346.03 348.19 349.72 347.18C353.41 346.17 357.14 347.93 358.29 351.13C358.34 351.28 357.43 351.85 357.43 351.85C357.43 351.85 358.53 351.95 358.56 352.14C359.13 355.44 356.82 358.79 353.17 359.79Z" fill="#D4EAFF"/>
<path d="M344.35 354.93C344.38 355.08 344.41 355.24 344.45 355.39C344.5 355.58 344.56 355.76 344.63 355.94L358.55 352.13C358.52 351.94 358.48 351.76 358.43 351.57C358.39 351.42 358.34 351.27 358.29 351.12L344.35 354.93Z" fill="#92C9FF"/>
<path d="M398.95 340.55L397.19 342.35C397.19 342.35 397.11 361.81 397.11 361.85C397.11 363.22 400.65 364.37 405.02 364.31C413.34 364.2 413.09 361.78 413.09 361.78V342.35L411.19 340.55C409.53 342.12 400.21 341.9 398.95 340.55Z" fill="#92C9FF"/>
<path d="M405 341.66C408.468 341.66 411.28 341.266 411.28 340.78C411.28 340.294 408.468 339.9 405 339.9C401.532 339.9 398.72 340.294 398.72 340.78C398.72 341.266 401.532 341.66 405 341.66Z" fill="#78B7EA"/>
<path d="M405.06 365.12C400.65 365.12 396.19 364.19 396.19 362.42V341.96L399.67 338.96V334.7H410.6V338.97L413.83 341.97V362.28C413.83 362.31 413.83 362.33 413.83 362.35C413.83 364.15 409.31 365.12 405.06 365.12ZM396.69 342.19V362.42C396.69 363.49 400.05 364.63 405.06 364.63C410.01 364.63 413.33 363.45 413.33 362.35C413.33 362.3 413.33 362.25 413.33 362.25V342.18L410.1 339.18V335.19H400.16V339.18L396.69 342.19Z" fill="#363E44"/>
<path d="M411.81 353.55V343.1L410.43 343.53V354.09L411.81 353.55Z" fill="white"/>
<path d="M410.43 355.35V362.14L411.81 361.72V354.84L410.43 355.35Z" fill="white"/>
<path d="M406.34 353.37H403.01C402.87 353.37 402.76 353.26 402.76 353.12V331.78C402.76 331.64 402.87 331.53 403.01 331.53H406.34C406.48 331.53 406.59 331.64 406.59 331.78V353.12C406.59 353.25 406.47 353.37 406.34 353.37ZM403.26 352.87H406.09V332.03H403.26V352.87Z" fill="#3481CE"/>
<path d="M411.35 328.96L397.95 329.32L398.11 335.2H398.12C398.12 335.22 398.12 335.24 398.12 335.26C398.15 336.24 401.17 336.96 404.87 336.86C408.57 336.76 411.55 335.88 411.52 334.9C411.52 334.88 411.52 334.86 411.51 334.84H411.52L411.35 328.96Z" fill="#363E44"/>
<path d="M404.683 330.916C408.381 330.816 411.359 329.939 411.332 328.957C411.306 327.974 408.286 327.258 404.587 327.357C400.888 327.456 397.911 328.333 397.938 329.316C397.964 330.299 400.984 331.015 404.683 330.916Z" fill="#2D353A"/>
<path d="M407.43 329.34L401.89 329.49L401.61 318.87C401.57 317.34 402.78 316.06 404.31 316.02C405.84 315.98 407.12 317.19 407.16 318.72L407.43 329.34Z" fill="#363E44"/>
<rect x="437.5" y="306.5" width="41.9982" height="5.01975" rx="2.50987" fill="white" stroke="#B5CBE3"/>
<defs>
<filter id="filter0_di_1_2258" x="33" y="0" width="502.905" height="502.045" filterUnits="userSpaceOnUse" color-interpolation-filters="sRGB">
<feFlood flood-opacity="0" result="BackgroundImageFix"/>
<feColorMatrix in="SourceAlpha" type="matrix" values="0 0 0 0 0 0 0 0 0 0 0 0 0 0 0 0 0 0 127 0" result="hardAlpha"/>
<feOffset/>
<feGaussianBlur stdDeviation="35"/>
<feComposite in2="hardAlpha" operator="out"/>
<feColorMatrix type="matrix" values="0 0 0 0 0.243137 0 0 0 0 0.588235 0 0 0 0 0.956863 0 0 0 0.1 0"/>
<feBlend mode="normal" in2="BackgroundImageFix" result="effect1_dropShadow_1_2258"/>
<feBlend mode="normal" in="SourceGraphic" in2="effect1_dropShadow_1_2258" result="shape"/>
<feColorMatrix in="SourceAlpha" type="matrix" values="0 0 0 0 0 0 0 0 0 0 0 0 0 0 0 0 0 0 127 0" result="hardAlpha"/>
<feOffset/>
<feGaussianBlur stdDeviation="35"/>
<feComposite in2="hardAlpha" operator="arithmetic" k2="-1" k3="1"/>
<feColorMatrix type="matrix" values="0 0 0 0 0.243137 0 0 0 0 0.588235 0 0 0 0 0.956863 0 0 0 0.05 0"/>
<feBlend mode="normal" in2="shape" result="effect2_innerShadow_1_2258"/>
</filter>
<linearGradient id="paint0_linear_1_2258" x1="174.65" y1="99.9234" x2="413.02" y2="383.773" gradientUnits="userSpaceOnUse">
<stop stop-color="#92C9FF"/>
<stop offset="1" stop-color="#D4EAFF"/>
</linearGradient>
</defs>
</svg>
