<svg width="15" height="14" viewBox="0 0 15 14" fill="none" xmlns="http://www.w3.org/2000/svg">
<path d="M13.3353 2.36795H9.88724C9.88724 2.03561 9.80415 1.74481 9.72107 1.45401C9.51335 0.95549 9.09792 0.498516 8.59941 0.290801C8.14243 0.0830862 7.60237 0 7.06231 0C6.64688 0.041543 6.18991 0.124629 5.81602 0.332344C5.10979 0.747775 4.65282 1.53709 4.65282 2.36795H1.20475C0.540059 2.36795 0 2.90801 0 3.5727V12.7953C0 13.4599 0.540059 14 1.20475 14H13.3353C14 14 14.5401 13.4599 14.5401 12.7953V3.5727C14.5401 2.90801 14 2.36795 13.3353 2.36795ZM5.48368 2.32641C5.48368 1.74481 5.85757 1.1632 6.39763 0.95549C6.68843 0.830861 6.97923 0.789318 7.31157 0.789318C7.64392 0.789318 7.93472 0.830861 8.22552 0.95549C8.72404 1.20475 9.05638 1.74481 9.05638 2.32641H5.48368ZM1.20475 3.19881H13.3353C13.543 3.19881 13.7092 3.36499 13.7092 3.5727V7.35312H7.68546V6.68843C7.68546 6.43917 7.51929 6.273 7.27003 6.273C7.02077 6.273 6.8546 6.43917 6.8546 6.68843V7.35312H0.83086V3.5727C0.83086 3.36499 0.997032 3.19881 1.20475 3.19881ZM13.3353 13.1691H1.20475C0.997032 13.1691 0.83086 13.003 0.83086 12.7953V8.18398H6.8546V8.84866C6.8546 9.09792 7.02077 9.26409 7.27003 9.26409C7.51929 9.26409 7.68546 9.09792 7.68546 8.84866V8.18398H13.7092V12.7953C13.7092 12.9614 13.543 13.1691 13.3353 13.1691Z" fill="#A1A1A1"/>
</svg>
