<svg width="38" height="37" viewBox="0 0 38 37" fill="none" xmlns="http://www.w3.org/2000/svg">
<g id="Group">
<path id="Vector (Stroke)" fill-rule="evenodd" clip-rule="evenodd" d="M17.9647 2.71677C17.9683 2.67752 17.968 2.63733 17.9637 2.59663C17.9281 2.26718 17.6321 2.02896 17.3027 2.06456C14.1531 2.40487 11.2705 3.63399 8.90982 5.49504C8.64959 5.7002 8.60494 6.07746 8.8101 6.33769C9.01525 6.59792 9.39252 6.64257 9.65274 6.43741C11.2917 5.14534 13.2008 4.18244 15.2815 3.64769C14.0109 4.84618 12.9519 6.61055 12.1638 8.70148C12.0469 9.01156 12.2035 9.35767 12.5136 9.47454C12.8237 9.59142 13.1698 9.4348 13.2866 9.12472C14.393 6.18952 15.9611 4.20197 17.6402 3.47751C17.9352 3.35023 18.076 3.01442 17.9647 2.71677ZM20.2258 2.59663C20.2614 2.26718 20.5574 2.02896 20.8868 2.06456C24.0364 2.40487 26.919 3.63399 29.2797 5.49504C29.5399 5.7002 29.5845 6.07746 29.3794 6.33769C29.1742 6.59792 28.797 6.64257 28.5367 6.43741C26.8977 5.14528 24.9886 4.18235 22.9077 3.64762C24.1775 4.84527 25.2357 6.60789 26.0242 8.69698C26.1412 9.00701 25.9848 9.35319 25.6747 9.4702C25.3647 9.58721 25.0185 9.43074 24.9015 9.12072C23.7945 6.18753 22.2278 4.20197 20.5492 3.47748C20.2542 3.35017 20.1135 3.01439 20.2248 2.71677C20.2212 2.67752 20.2214 2.63733 20.2258 2.59663ZM8.81013 7.87887C9.0153 7.61866 9.39257 7.57404 9.65278 7.77922C10.1622 8.18087 10.6965 8.54978 11.2527 8.88373C11.5367 9.05432 11.6287 9.42291 11.4581 9.70699C11.2876 9.99108 10.919 10.0831 10.6349 9.91249C10.0352 9.5524 9.45903 9.15461 8.90978 8.72153C8.64957 8.51635 8.60495 8.13908 8.81013 7.87887ZM29.3792 7.87863C29.5845 8.13873 29.5401 8.51602 29.28 8.72133C28.7287 9.15647 28.148 9.55707 27.543 9.91876C27.2586 10.0888 26.8901 9.99606 26.7201 9.71164C26.5501 9.42722 26.6428 9.05881 26.9272 8.88878C27.4876 8.55376 28.0257 8.1826 28.5365 7.77941C28.7966 7.5741 29.1739 7.61852 29.3792 7.87863ZM7.19771 7.92092C7.45396 8.13102 7.49138 8.50907 7.28128 8.76532C6.78045 9.37616 6.32789 10.025 5.92772 10.7061C5.75984 10.9918 5.39214 11.0873 5.10645 10.9194C4.82075 10.7515 4.72523 10.3838 4.89311 10.0981C5.32481 9.36345 5.81302 8.66345 6.35331 8.00448C6.56341 7.74823 6.94146 7.71082 7.19771 7.92092ZM30.9918 7.92087C31.2481 7.7108 31.6262 7.74826 31.8362 8.00454C33.8067 10.4085 35.1108 13.3815 35.4629 16.6407C35.4985 16.9701 35.2603 17.266 34.9308 17.3016C34.6014 17.3372 34.3054 17.099 34.2699 16.7695C33.9436 13.7498 32.7356 10.9947 30.9082 8.76526C30.6981 8.50898 30.7356 8.13093 30.9918 7.92087ZM13.3643 10.595C13.4721 10.2816 13.8135 10.115 14.1268 10.2227C15.1804 10.585 16.2872 10.8357 17.4317 10.9597C17.7612 10.9954 17.9993 11.2914 17.9636 11.6208C17.9279 11.9503 17.6319 12.1884 17.3025 12.1527C16.068 12.019 14.8737 11.7485 13.7366 11.3575C13.4232 11.2497 13.2566 10.9084 13.3643 10.595ZM24.8097 10.6003C24.9173 10.9137 24.7504 11.255 24.437 11.3626C23.3041 11.7515 22.1155 12.0197 20.8869 12.1527C20.5575 12.1884 20.2615 11.9502 20.2259 11.6208C20.1902 11.2914 20.4283 10.9954 20.7578 10.9597C21.8969 10.8364 22.9981 10.5878 24.0474 10.2276C24.3608 10.12 24.7021 10.2868 24.8097 10.6003ZM26.3001 11.6442C26.6242 11.5751 26.9429 11.7819 27.0119 12.106C27.3168 13.5368 27.5211 15.0702 27.6084 16.6717C27.6264 17.0026 27.3728 17.2855 27.0419 17.3035C26.711 17.3215 26.4282 17.0679 26.4101 16.7371C26.3261 15.1949 26.1296 13.7234 25.8383 12.356C25.7692 12.0319 25.976 11.7132 26.3001 11.6442ZM11.8888 11.6484C12.2129 11.7175 12.4196 12.0362 12.3505 12.3603C12.0592 13.727 11.8627 15.197 11.7794 16.7368C11.7615 17.0677 11.4787 17.3214 11.1478 17.3035C10.8169 17.2856 10.5632 17.0029 10.5811 16.672C10.6677 15.0723 10.872 13.5402 11.1769 12.1101C11.2459 11.7861 11.5647 11.5793 11.8888 11.6484ZM4.5478 12.0643C4.8561 12.1858 5.00753 12.5342 4.88603 12.8425C4.38957 14.1023 4.06454 15.423 3.91966 16.7693C3.8842 17.0988 3.58837 17.3371 3.25891 17.3017C2.92944 17.2662 2.69109 16.9704 2.72655 16.6409C2.88292 15.1878 3.23374 13.7623 3.7696 12.4025C3.8911 12.0943 4.23951 11.9428 4.5478 12.0643ZM4.35868 18.4327C4.35868 18.1014 4.62731 17.8327 4.95868 17.8327H9.40377C9.73514 17.8327 10.0038 18.1014 10.0038 18.4327C10.0038 18.7641 9.73514 19.0327 9.40377 19.0327H4.95868C4.62731 19.0327 4.35868 18.7641 4.35868 18.4327ZM12.2626 18.4327C12.2626 18.1014 12.5312 17.8327 12.8626 17.8327H17.365C17.6964 17.8327 17.965 18.1014 17.965 18.4327C17.965 18.7641 17.6964 19.0327 17.365 19.0327H12.8626C12.5312 19.0327 12.2626 18.7641 12.2626 18.4327ZM20.2245 18.4327C20.2245 18.1014 20.4931 17.8327 20.8245 17.8327H25.3269C25.6583 17.8327 25.9269 18.1014 25.9269 18.4327C25.9269 18.7641 25.6583 19.0327 25.3269 19.0327H20.8245C20.4931 19.0327 20.2245 18.7641 20.2245 18.4327ZM28.1857 18.4327C28.1857 18.1014 28.4543 17.8327 28.7857 17.8327H29.6609C29.9922 17.8327 30.2609 18.1014 30.2609 18.4327C30.2609 18.7641 29.9922 19.0327 29.6609 19.0327H28.7857C28.4543 19.0327 28.1857 18.7641 28.1857 18.4327ZM31.539 18.4327C31.539 18.1014 31.8076 17.8327 32.139 17.8327H33.2308C33.5622 17.8327 33.8308 18.1014 33.8308 18.4327C33.8308 18.7641 33.5622 19.0327 33.2308 19.0327H32.139C31.8076 19.0327 31.539 18.7641 31.539 18.4327ZM3.25866 19.5638C3.58812 19.5282 3.88404 19.7665 3.91963 20.0959C4.24586 23.1157 5.45387 25.8707 7.28133 28.1002C7.49139 28.3565 7.45393 28.7345 7.19765 28.9446C6.94137 29.1547 6.56333 29.1172 6.35326 28.8609C4.38277 26.4569 3.07865 23.4839 2.72657 20.2248C2.69098 19.8953 2.92921 19.5994 3.25866 19.5638ZM34.9308 19.5638C35.2603 19.5994 35.4985 19.8953 35.4629 20.2248C35.1108 23.4839 33.8067 26.4569 31.8362 28.8609C31.6262 29.1172 31.2481 29.1547 30.9918 28.9446C30.7356 28.7345 30.6981 28.3565 30.9082 28.1002C32.7356 25.8707 33.9436 23.1157 34.2699 20.0959C34.3054 19.7665 34.6014 19.5282 34.9308 19.5638ZM27.0417 19.5619C27.3726 19.5799 27.6263 19.8626 27.6084 20.1935C27.5088 22.0318 27.254 23.7806 26.8691 25.388C26.792 25.7103 26.4682 25.909 26.1459 25.8319C25.8237 25.7547 25.625 25.4309 25.7021 25.1086C26.0692 23.5752 26.3143 21.8985 26.4101 20.1286C26.428 19.7977 26.7108 19.544 27.0417 19.5619ZM11.1478 19.5619C11.4787 19.544 11.7614 19.7977 11.7794 20.1286C11.8752 21.897 12.1203 23.5731 12.4867 25.106C12.5638 25.4283 12.365 25.752 12.0427 25.8291C11.7204 25.9061 11.3966 25.7073 11.3196 25.385C10.9355 23.7784 10.6807 22.0305 10.5811 20.1935C10.5632 19.8626 10.8169 19.5799 11.1478 19.5619ZM17.9636 25.2447C17.9993 25.5742 17.7611 25.8701 17.4316 25.9058C16.2224 26.0366 15.0565 26.3083 13.9502 26.7052C13.6383 26.8171 13.2948 26.655 13.1829 26.3431C13.071 26.0312 13.2331 25.6876 13.545 25.5757C14.7398 25.1471 15.9983 24.8538 17.3026 24.7127C17.632 24.6771 17.928 24.9153 17.9636 25.2447ZM20.2259 25.2445C20.2617 24.915 20.5577 24.677 20.8871 24.7127C22.186 24.8538 23.4392 25.1448 24.6304 25.5705C24.9424 25.682 25.105 26.0254 24.9934 26.3375C24.8819 26.6495 24.5385 26.812 24.2265 26.7005C23.1236 26.3063 21.9624 26.0366 20.7576 25.9057C20.4282 25.87 20.1901 25.5739 20.2259 25.2445ZM27.0288 27.3271C27.2052 27.0465 27.5757 26.9622 27.8562 27.1386C28.3496 27.4489 28.8244 27.7848 29.2798 28.144C29.54 28.3492 29.5845 28.7265 29.3793 28.9866C29.1741 29.2468 28.7968 29.2914 28.5366 29.0862C28.1141 28.7529 27.6741 28.4416 27.2173 28.1544C26.9368 27.978 26.8524 27.6076 27.0288 27.3271ZM11.1474 27.3341C11.3243 27.6143 11.2404 27.9849 10.9602 28.1617C10.5077 28.4472 10.0712 28.7558 9.65319 29.0859C9.39316 29.2913 9.01585 29.247 8.81045 28.987C8.60505 28.727 8.64934 28.3497 8.90937 28.1443C9.36088 27.7876 9.83202 27.4547 10.3198 27.1468C10.6001 26.97 10.9706 27.0538 11.1474 27.3341ZM12.7175 27.9594C13.0237 27.8327 13.3746 27.9783 13.5013 28.2845C14.5941 30.927 16.0694 32.71 17.6403 33.388C17.9353 33.5153 18.076 33.8511 17.9647 34.1487C17.9683 34.1879 17.9681 34.2281 17.9637 34.2688C17.9281 34.5983 17.6321 34.8365 17.3027 34.8009C14.1531 34.4606 11.2705 33.2315 8.90982 31.3704C8.64959 31.1653 8.60494 30.788 8.8101 30.5278C9.01525 30.2675 9.39252 30.2229 9.65274 30.428C11.2918 31.7202 13.201 32.6831 15.2818 33.2178C14.1286 32.1301 13.151 30.5776 12.3924 28.7431C12.2657 28.4369 12.4113 28.086 12.7175 27.9594ZM25.4701 27.9658C25.7762 28.0926 25.9217 28.4435 25.7949 28.7497C25.0366 30.5815 24.0599 32.1314 22.9081 33.2178C24.9887 32.683 26.8978 31.7201 28.5367 30.428C28.797 30.2229 29.1742 30.2675 29.3794 30.5278C29.5845 30.788 29.5399 31.1653 29.2797 31.3704C26.919 33.2315 24.0364 34.4606 20.8868 34.8009C20.5574 34.8365 20.2614 34.5983 20.2258 34.2688C20.2214 34.2281 20.2212 34.1879 20.2248 34.1487C20.1135 33.8511 20.2542 33.5153 20.5492 33.388C22.1189 32.7106 23.5934 30.9303 24.6862 28.2907C24.8129 27.9845 25.1639 27.8391 25.4701 27.9658Z" fill="url(#paint0_linear_305_275)"/>
<path id="Vector (Stroke)_2" fill-rule="evenodd" clip-rule="evenodd" d="M7.98331 5.97856C7.35957 5.97856 6.85393 6.48421 6.85393 7.10795C6.85393 7.73169 7.35957 8.23733 7.98331 8.23733C8.60705 8.23733 9.1127 7.73169 9.1127 7.10795C9.1127 6.48421 8.60706 5.97856 7.98331 5.97856ZM5.65393 7.10795C5.65393 5.82146 6.69683 4.77856 7.98331 4.77856C9.2698 4.77856 10.3127 5.82146 10.3127 7.10795C10.3127 8.39443 9.2698 9.43733 7.98331 9.43733C6.69683 9.43733 5.65393 8.39443 5.65393 7.10795Z" fill="url(#paint1_linear_305_275)"/>
<path id="Vector (Stroke)_3" fill-rule="evenodd" clip-rule="evenodd" d="M12.2175 9.43755C11.5937 9.43755 11.0881 9.94319 11.0881 10.5669C11.0881 11.1907 11.5937 11.6963 12.2175 11.6963C12.8412 11.6963 13.3469 11.1907 13.3469 10.5669C13.3469 9.94319 12.8412 9.43755 12.2175 9.43755ZM9.88809 10.5669C9.88809 9.28045 10.931 8.23755 12.2175 8.23755C13.504 8.23755 14.5469 9.28045 14.5469 10.5669C14.5469 11.8534 13.504 12.8963 12.2175 12.8963C10.931 12.8963 9.88809 11.8534 9.88809 10.5669Z" fill="url(#paint2_linear_305_275)"/>
<path id="Vector (Stroke)_4" fill-rule="evenodd" clip-rule="evenodd" d="M11.1332 17.3033C10.5094 17.3033 10.0038 17.8089 10.0038 18.4327C10.0038 19.0564 10.5094 19.562 11.1332 19.562C11.7569 19.562 12.2626 19.0564 12.2626 18.4327C12.2626 17.8089 11.7569 17.3033 11.1332 17.3033ZM8.8038 18.4327C8.8038 17.1462 9.8467 16.1033 11.1332 16.1033C12.4197 16.1033 13.4626 17.1462 13.4626 18.4327C13.4626 19.7191 12.4197 20.762 11.1332 20.762C9.8467 20.762 8.8038 19.7191 8.8038 18.4327Z" fill="url(#paint3_linear_305_275)"/>
<path id="Vector (Stroke)_5" fill-rule="evenodd" clip-rule="evenodd" d="M27.0563 17.3033C26.4326 17.3033 25.927 17.8089 25.927 18.4327C25.927 19.0564 26.4326 19.562 27.0563 19.562C27.6801 19.562 28.1857 19.0564 28.1857 18.4327C28.1857 17.8089 27.6801 17.3033 27.0563 17.3033ZM24.727 18.4327C24.727 17.1462 25.7699 16.1033 27.0563 16.1033C28.3428 16.1033 29.3857 17.1462 29.3857 18.4327C29.3857 19.7191 28.3428 20.762 27.0563 20.762C25.7699 20.762 24.727 19.7191 24.727 18.4327Z" fill="url(#paint4_linear_305_275)"/>
<path id="Vector (Stroke)_6" fill-rule="evenodd" clip-rule="evenodd" d="M34.9601 17.3033C34.3363 17.3033 33.8307 17.8089 33.8307 18.4327C33.8307 19.0564 34.3363 19.562 34.9601 19.562C35.5838 19.562 36.0894 19.0564 36.0894 18.4327C36.0894 17.8089 35.5838 17.3033 34.9601 17.3033ZM32.6307 18.4327C32.6307 17.1462 33.6736 16.1033 34.9601 16.1033C36.2465 16.1033 37.2894 17.1462 37.2894 18.4327C37.2894 19.7191 36.2465 20.762 34.9601 20.762C33.6736 20.762 32.6307 19.7191 32.6307 18.4327Z" fill="url(#paint5_linear_305_275)"/>
<path id="Vector (Stroke)_7" fill-rule="evenodd" clip-rule="evenodd" d="M3.22944 17.3033C2.6057 17.3033 2.10005 17.8089 2.10005 18.4327C2.10005 19.0564 2.6057 19.562 3.22944 19.562C3.85318 19.562 4.35882 19.0564 4.35882 18.4327C4.35882 17.8089 3.85318 17.3033 3.22944 17.3033ZM0.900055 18.4327C0.900055 17.1462 1.94296 16.1033 3.22944 16.1033C4.51592 16.1033 5.55882 17.1462 5.55882 18.4327C5.55882 19.7191 4.51592 20.762 3.22944 20.762C1.94296 20.762 0.900055 19.7191 0.900055 18.4327Z" fill="url(#paint6_linear_305_275)"/>
<path id="Vector (Stroke)_8" fill-rule="evenodd" clip-rule="evenodd" d="M7.98331 28.628C7.35957 28.628 6.85393 29.1336 6.85393 29.7574C6.85393 30.3811 7.35957 30.8867 7.98331 30.8867C8.60706 30.8867 9.1127 30.3811 9.1127 29.7574C9.1127 29.1336 8.60706 28.628 7.98331 28.628ZM5.65393 29.7574C5.65393 28.4709 6.69683 27.428 7.98331 27.428C9.2698 27.428 10.3127 28.4709 10.3127 29.7574C10.3127 31.0438 9.2698 32.0867 7.98331 32.0867C6.69683 32.0867 5.65393 31.0438 5.65393 29.7574Z" fill="url(#paint7_linear_305_275)"/>
<path id="Vector (Stroke)_9" fill-rule="evenodd" clip-rule="evenodd" d="M30.2063 5.97856C29.5825 5.97856 29.0769 6.48421 29.0769 7.10795C29.0769 7.73169 29.5825 8.23733 30.2063 8.23733C30.83 8.23733 31.3357 7.73169 31.3357 7.10795C31.3357 6.48421 30.83 5.97856 30.2063 5.97856ZM27.8769 7.10795C27.8769 5.82146 28.9198 4.77856 30.2063 4.77856C31.4928 4.77856 32.5357 5.82146 32.5357 7.10795C32.5357 8.39443 31.4928 9.43733 30.2063 9.43733C28.9198 9.43733 27.8769 8.39443 27.8769 7.10795Z" fill="url(#paint8_linear_305_275)"/>
<path id="Vector (Stroke)_10" fill-rule="evenodd" clip-rule="evenodd" d="M30.2063 28.628C29.5825 28.628 29.0769 29.1336 29.0769 29.7574C29.0769 30.3811 29.5825 30.8867 30.2063 30.8867C30.83 30.8867 31.3357 30.3811 31.3357 29.7574C31.3357 29.1336 30.83 28.628 30.2063 28.628ZM27.8769 29.7574C27.8769 28.4709 28.9198 27.428 30.2063 27.428C31.4928 27.428 32.5357 28.4709 32.5357 29.7574C32.5357 31.0438 31.4928 32.0867 30.2063 32.0867C28.9198 32.0867 27.8769 31.0438 27.8769 29.7574Z" fill="url(#paint9_linear_305_275)"/>
<path id="Vector (Stroke)_11" fill-rule="evenodd" clip-rule="evenodd" d="M12.2175 25.8165C11.5937 25.8165 11.0881 26.3221 11.0881 26.9458C11.0881 27.5696 11.5937 28.0752 12.2175 28.0752C12.8412 28.0752 13.3469 27.5696 13.3469 26.9458C13.3469 26.3221 12.8412 25.8165 12.2175 25.8165ZM9.88809 26.9458C9.88809 25.6594 10.931 24.6165 12.2175 24.6165C13.504 24.6165 14.5469 25.6594 14.5469 26.9458C14.5469 28.2323 13.504 29.2752 12.2175 29.2752C10.931 29.2752 9.88809 28.2323 9.88809 26.9458Z" fill="url(#paint10_linear_305_275)"/>
<path id="Vector (Stroke)_12" fill-rule="evenodd" clip-rule="evenodd" d="M25.9558 9.43755C25.3321 9.43755 24.8264 9.94319 24.8264 10.5669C24.8264 11.1907 25.3321 11.6963 25.9558 11.6963C26.5796 11.6963 27.0852 11.1907 27.0852 10.5669C27.0852 9.94319 26.5796 9.43755 25.9558 9.43755ZM23.6264 10.5669C23.6264 9.28045 24.6693 8.23755 25.9558 8.23755C27.2423 8.23755 28.2852 9.28045 28.2852 10.5669C28.2852 11.8534 27.2423 12.8963 25.9558 12.8963C24.6693 12.8963 23.6264 11.8534 23.6264 10.5669Z" fill="url(#paint11_linear_305_275)"/>
<path id="Vector (Stroke)_13" fill-rule="evenodd" clip-rule="evenodd" d="M25.9558 25.8165C25.3321 25.8165 24.8264 26.3221 24.8264 26.9458C24.8264 27.5696 25.3321 28.0752 25.9558 28.0752C26.5796 28.0752 27.0852 27.5696 27.0852 26.9458C27.0852 26.3221 26.5796 25.8165 25.9558 25.8165ZM23.6264 26.9458C23.6264 25.6594 24.6693 24.6165 25.9558 24.6165C27.2423 24.6165 28.2852 25.6594 28.2852 26.9458C28.2852 28.2323 27.2423 29.2752 25.9558 29.2752C24.6693 29.2752 23.6264 28.2323 23.6264 26.9458Z" fill="url(#paint12_linear_305_275)"/>
<path id="Vector (Stroke)_14" fill-rule="evenodd" clip-rule="evenodd" d="M19.0948 3.69678C19.4261 3.69678 19.6948 3.96541 19.6948 4.29678V9.92005C19.6948 10.2514 19.4261 10.52 19.0948 10.52C18.7634 10.52 18.4948 10.2514 18.4948 9.92005V4.29678C18.4948 3.96541 18.7634 3.69678 19.0948 3.69678ZM19.0948 12.7788C19.4261 12.7788 19.6948 13.0475 19.6948 13.3788V16.7031C19.6948 17.0345 19.4261 17.3031 19.0948 17.3031C18.7634 17.3031 18.4948 17.0345 18.4948 16.7031V13.3788C18.4948 13.0475 18.7634 12.7788 19.0948 12.7788ZM19.0948 19.5626C19.4261 19.5626 19.6948 19.8312 19.6948 20.1626V23.4868C19.6948 23.8182 19.4261 24.0868 19.0948 24.0868C18.7634 24.0868 18.4948 23.8182 18.4948 23.4868V20.1626C18.4948 19.8312 18.7634 19.5626 19.0948 19.5626ZM19.0948 26.3456C19.4261 26.3456 19.6948 26.6143 19.6948 26.9456V32.5689C19.6948 32.9003 19.4261 33.1689 19.0948 33.1689C18.7634 33.1689 18.4948 32.9003 18.4948 32.5689V26.9456C18.4948 26.6143 18.7634 26.3456 19.0948 26.3456Z" fill="url(#paint13_linear_305_275)"/>
<path id="Vector (Stroke)_15" fill-rule="evenodd" clip-rule="evenodd" d="M19.0948 17.3033C18.471 17.3033 17.9654 17.8089 17.9654 18.4327C17.9654 19.0564 18.471 19.562 19.0948 19.562C19.7185 19.562 20.2241 19.0564 20.2241 18.4327C20.2241 17.8089 19.7185 17.3033 19.0948 17.3033ZM16.7654 18.4327C16.7654 17.1462 17.8083 16.1033 19.0948 16.1033C20.3812 16.1033 21.4241 17.1462 21.4241 18.4327C21.4241 19.7191 20.3812 20.762 19.0948 20.762C17.8083 20.762 16.7654 19.7191 16.7654 18.4327Z" fill="url(#paint14_linear_305_275)"/>
<path id="Vector (Stroke)_16" fill-rule="evenodd" clip-rule="evenodd" d="M19.0948 10.5198C18.471 10.5198 17.9654 11.0255 17.9654 11.6492C17.9654 12.2729 18.471 12.7786 19.0948 12.7786C19.7185 12.7786 20.2241 12.2729 20.2241 11.6492C20.2241 11.0255 19.7185 10.5198 19.0948 10.5198ZM16.7654 11.6492C16.7654 10.3627 17.8083 9.31982 19.0948 9.31982C20.3812 9.31982 21.4241 10.3627 21.4241 11.6492C21.4241 12.9357 20.3812 13.9786 19.0948 13.9786C17.8083 13.9786 16.7654 12.9357 16.7654 11.6492Z" fill="url(#paint15_linear_305_275)"/>
<path id="Vector (Stroke)_17" fill-rule="evenodd" clip-rule="evenodd" d="M19.0948 1.43804C18.471 1.43804 17.9654 1.94368 17.9654 2.56742C17.9654 3.19116 18.471 3.6968 19.0948 3.6968C19.7185 3.6968 20.2241 3.19116 20.2241 2.56742C20.2241 1.94368 19.7185 1.43804 19.0948 1.43804ZM16.7654 2.56742C16.7654 1.28094 17.8083 0.238037 19.0948 0.238037C20.3812 0.238037 21.4241 1.28094 21.4241 2.56742C21.4241 3.8539 20.3812 4.8968 19.0948 4.8968C17.8083 4.8968 16.7654 3.8539 16.7654 2.56742Z" fill="url(#paint16_linear_305_275)"/>
<path id="Vector (Stroke)_18" fill-rule="evenodd" clip-rule="evenodd" d="M18.2017 32.1467C19.3896 31.6536 20.753 32.2161 21.2464 33.4046C21.716 34.5357 21.2277 35.8265 20.1532 36.3729C19.8578 36.523 19.4966 36.4053 19.3464 36.1099C19.1962 35.8146 19.3139 35.4534 19.6093 35.3032C20.1287 35.0391 20.3657 34.4128 20.1381 33.8646L20.1381 33.8646C19.8991 33.2888 19.2382 33.0157 18.6618 33.255C18.0854 33.4943 17.8123 34.155 18.0512 34.7307M18.2017 32.1467C17.0138 32.6398 16.4496 34.0024 16.9429 35.1909ZM17.0411 35.3974C17.0052 35.3307 16.9724 35.2619 16.943 35.1911L16.9429 35.1909M18.0512 34.7309C18.0653 34.7646 18.0806 34.7969 18.0974 34.8279C18.2546 35.1196 18.1456 35.4835 17.854 35.6408C17.5623 35.798 17.1983 35.689 17.0411 35.3974" fill="url(#paint17_linear_305_275)"/>
<path id="Vector (Stroke)_19" fill-rule="evenodd" clip-rule="evenodd" d="M19.0948 24.0867C18.471 24.0867 17.9654 24.5924 17.9654 25.2161C17.9654 25.8398 18.471 26.3455 19.0948 26.3455C19.7185 26.3455 20.2241 25.8398 20.2241 25.2161C20.2241 24.5924 19.7185 24.0867 19.0948 24.0867ZM16.7654 25.2161C16.7654 23.9296 17.8083 22.8867 19.0948 22.8867C20.3812 22.8867 21.4241 23.9296 21.4241 25.2161C21.4241 26.5026 20.3812 27.5455 19.0948 27.5455C17.8083 27.5455 16.7654 26.5026 16.7654 25.2161Z" fill="url(#paint18_linear_305_275)"/>
</g>
<defs>
<linearGradient id="paint0_linear_305_275" x1="7.00985" y1="6.23674" x2="35.4388" y2="32.0283" gradientUnits="userSpaceOnUse">
<stop stop-color="#3E96F4"/>
<stop offset="1" stop-color="#31393C"/>
</linearGradient>
<linearGradient id="paint1_linear_305_275" x1="6.26386" y1="5.37269" x2="10.3088" y2="9.04234" gradientUnits="userSpaceOnUse">
<stop stop-color="#3E96F4"/>
<stop offset="1" stop-color="#31393C"/>
</linearGradient>
<linearGradient id="paint2_linear_305_275" x1="10.498" y1="8.83167" x2="14.5429" y2="12.5013" gradientUnits="userSpaceOnUse">
<stop stop-color="#3E96F4"/>
<stop offset="1" stop-color="#31393C"/>
</linearGradient>
<linearGradient id="paint3_linear_305_275" x1="9.41373" y1="16.6974" x2="13.4586" y2="20.3671" gradientUnits="userSpaceOnUse">
<stop stop-color="#3E96F4"/>
<stop offset="1" stop-color="#31393C"/>
</linearGradient>
<linearGradient id="paint4_linear_305_275" x1="25.3369" y1="16.6974" x2="29.3818" y2="20.3671" gradientUnits="userSpaceOnUse">
<stop stop-color="#3E96F4"/>
<stop offset="1" stop-color="#31393C"/>
</linearGradient>
<linearGradient id="paint5_linear_305_275" x1="33.2406" y1="16.6974" x2="37.2855" y2="20.3671" gradientUnits="userSpaceOnUse">
<stop stop-color="#3E96F4"/>
<stop offset="1" stop-color="#31393C"/>
</linearGradient>
<linearGradient id="paint6_linear_305_275" x1="1.50998" y1="16.6974" x2="5.55489" y2="20.3671" gradientUnits="userSpaceOnUse">
<stop stop-color="#3E96F4"/>
<stop offset="1" stop-color="#31393C"/>
</linearGradient>
<linearGradient id="paint7_linear_305_275" x1="6.26386" y1="28.0221" x2="10.3088" y2="31.6918" gradientUnits="userSpaceOnUse">
<stop stop-color="#3E96F4"/>
<stop offset="1" stop-color="#31393C"/>
</linearGradient>
<linearGradient id="paint8_linear_305_275" x1="28.4868" y1="5.37269" x2="32.5317" y2="9.04234" gradientUnits="userSpaceOnUse">
<stop stop-color="#3E96F4"/>
<stop offset="1" stop-color="#31393C"/>
</linearGradient>
<linearGradient id="paint9_linear_305_275" x1="28.4868" y1="28.0221" x2="32.5317" y2="31.6918" gradientUnits="userSpaceOnUse">
<stop stop-color="#3E96F4"/>
<stop offset="1" stop-color="#31393C"/>
</linearGradient>
<linearGradient id="paint10_linear_305_275" x1="10.498" y1="25.2106" x2="14.5429" y2="28.8802" gradientUnits="userSpaceOnUse">
<stop stop-color="#3E96F4"/>
<stop offset="1" stop-color="#31393C"/>
</linearGradient>
<linearGradient id="paint11_linear_305_275" x1="24.2364" y1="8.83167" x2="28.2813" y2="12.5013" gradientUnits="userSpaceOnUse">
<stop stop-color="#3E96F4"/>
<stop offset="1" stop-color="#31393C"/>
</linearGradient>
<linearGradient id="paint12_linear_305_275" x1="24.2364" y1="25.2106" x2="28.2813" y2="28.8802" gradientUnits="userSpaceOnUse">
<stop stop-color="#3E96F4"/>
<stop offset="1" stop-color="#31393C"/>
</linearGradient>
<linearGradient id="paint13_linear_305_275" x1="18.6519" y1="7.4553" x2="20.5487" y2="7.52537" gradientUnits="userSpaceOnUse">
<stop stop-color="#3E96F4"/>
<stop offset="1" stop-color="#31393C"/>
</linearGradient>
<linearGradient id="paint14_linear_305_275" x1="17.3753" y1="16.6974" x2="21.4202" y2="20.3671" gradientUnits="userSpaceOnUse">
<stop stop-color="#3E96F4"/>
<stop offset="1" stop-color="#31393C"/>
</linearGradient>
<linearGradient id="paint15_linear_305_275" x1="17.3753" y1="9.91395" x2="21.4202" y2="13.5836" gradientUnits="userSpaceOnUse">
<stop stop-color="#3E96F4"/>
<stop offset="1" stop-color="#31393C"/>
</linearGradient>
<linearGradient id="paint16_linear_305_275" x1="17.3753" y1="0.832161" x2="21.4202" y2="4.50182" gradientUnits="userSpaceOnUse">
<stop stop-color="#3E96F4"/>
<stop offset="1" stop-color="#31393C"/>
</linearGradient>
<linearGradient id="paint17_linear_305_275" x1="17.3745" y1="32.5381" x2="21.268" y2="36.2209" gradientUnits="userSpaceOnUse">
<stop stop-color="#3E96F4"/>
<stop offset="1" stop-color="#31393C"/>
</linearGradient>
<linearGradient id="paint18_linear_305_275" x1="17.3753" y1="23.4808" x2="21.4202" y2="27.1505" gradientUnits="userSpaceOnUse">
<stop stop-color="#3E96F4"/>
<stop offset="1" stop-color="#31393C"/>
</linearGradient>
</defs>
</svg>
