<svg width="78" height="78" viewBox="0 0 78 78" fill="none" xmlns="http://www.w3.org/2000/svg">
<circle cx="36" cy="36" r="37.5" transform="matrix(1 0 0 -1 3 75)" fill="#3E96F4" stroke="white" stroke-width="3"/>
<path d="M35.9166 24.6296C36.046 25.2634 36.1111 25.9086 36.1108 26.5554C36.1108 31.8327 31.8327 36.1108 26.5554 36.1108C21.2781 36.1108 17 31.8326 17 26.5554C17 21.2782 21.2781 17 26.5554 17C30.092 17 33.1799 18.9214 34.8321 21.7771M55.3901 35.109C54.1065 35.7501 52.6585 36.1107 51.1263 36.1107C45.849 36.1107 41.5709 31.8326 41.5709 26.5553C41.5709 21.278 45.849 17 51.1263 17C56.4036 17 60.6816 21.2781 60.6816 26.5554C60.6816 29.1867 59.6181 31.5695 57.8974 33.2976" stroke="white" stroke-width="1.5" stroke-miterlimit="10" stroke-linecap="round" stroke-linejoin="round"/>
<path d="M51.1257 60.6816C56.403 60.6816 60.6811 56.4035 60.6811 51.1262C60.6811 45.8489 56.403 41.5708 51.1257 41.5708C45.8484 41.5708 41.5703 45.8489 41.5703 51.1262C41.5703 56.4035 45.8484 60.6816 51.1257 60.6816Z" stroke="white" stroke-width="1.5" stroke-miterlimit="10" stroke-linecap="round" stroke-linejoin="round"/>
<path d="M26.5554 60.6816C31.8327 60.6816 36.1108 56.4035 36.1108 51.1262C36.1108 45.849 31.8327 41.5709 26.5554 41.5709C21.2781 41.5709 17 45.849 17 51.1262C17 56.4035 21.2781 60.6816 26.5554 60.6816Z" stroke="white" stroke-width="1.5" stroke-miterlimit="10" stroke-linecap="round" stroke-linejoin="round"/>
<path d="M31.6362 49.1261C31.8868 49.7631 32.015 50.4417 32.0142 51.1262C32.0142 54.1418 29.5696 56.5864 26.554 56.5864C23.5383 56.5864 21.0938 54.1418 21.0938 51.1262C21.0938 48.1106 23.5383 45.666 26.554 45.666C27.752 45.666 28.86 46.0519 29.7603 46.7061" stroke="white" stroke-width="1.5" stroke-miterlimit="10" stroke-linecap="round" stroke-linejoin="round"/>
<path d="M42.2523 41.5709V36.7932C42.2523 34.9085 40.7244 33.3806 38.8397 33.3806C36.955 33.3806 35.4271 34.9085 35.4271 36.7932V42.1038C35.4271 42.8318 36.0174 43.4221 36.7455 43.4221H38.1572M26.5543 45.6661C28.062 45.6661 29.2843 48.1106 29.2843 51.1263C29.2843 54.1419 28.062 56.5865 26.5543 56.5865C25.0465 56.5865 23.8242 54.1419 23.8242 51.1263C23.8242 48.1106 25.0465 45.6661 26.5543 45.6661Z" stroke="white" stroke-width="1.5" stroke-miterlimit="10" stroke-linecap="round" stroke-linejoin="round"/>
<path d="M32.0149 51.1263H21.0938M26.5547 45.6661V56.5865M35.4275 40.692H34.0158C33.2877 40.692 32.6974 40.1017 32.6974 39.3737V37.9152C32.6974 37.1871 33.2877 36.5968 34.0158 36.5968H35.4275V40.692ZM42.2527 40.692H43.6644C44.3925 40.692 44.9828 40.1017 44.9828 39.3737V37.9152C44.9828 37.1871 44.3925 36.5968 43.6644 36.5968H42.2527V40.692ZM55.7063 46.1325C55.6064 46.0224 55.4979 45.9204 55.382 45.8273C55.2424 45.7146 55.066 45.6576 54.8868 45.6671C54.7077 45.6767 54.5384 45.7522 54.4115 45.8791L52.0394 48.2511C51.7853 48.5052 51.7531 48.9084 51.9681 49.1962C52.0381 49.29 52.1148 49.3786 52.1976 49.4613C52.3992 49.6633 52.635 49.828 52.8941 49.9477C53.2035 50.0904 53.3456 50.4542 53.2062 50.7652C52.9877 51.2526 52.6467 51.7492 52.1976 52.1983C51.7485 52.6473 51.2519 52.9884 50.7645 53.2068C50.4535 53.3462 50.0897 53.2042 49.947 52.8947C49.8274 52.6357 49.6627 52.3999 49.4606 52.1983C49.3779 52.1155 49.2893 52.0388 49.1955 51.9687C48.9076 51.7537 48.5046 51.786 48.2505 52.0401L45.8785 54.4121C45.7516 54.5389 45.6761 54.7082 45.6665 54.8873C45.6569 55.0664 45.7139 55.2428 45.8265 55.3824C45.9196 55.4985 46.0217 55.607 46.1319 55.707C47.9251 57.3574 51.4223 56.6229 54.0222 54.0228C56.6222 51.4229 57.3567 47.9259 55.7063 46.1325ZM54.3885 21.0952H47.8626C46.6491 21.0952 45.6653 22.079 45.6653 23.2925V27.0883C45.6653 28.3018 46.6491 29.2856 47.8626 29.2856H51.1255L52.7303 30.8904C53.1456 31.3056 53.8556 31.0115 53.8556 30.4243V29.2856H54.3884C55.6019 29.2856 56.5857 28.3018 56.5857 27.0883V23.2925C56.5857 22.0789 55.602 21.0952 54.3885 21.0952ZM31.3557 30.6505H21.7536C21.5788 30.6505 21.4111 30.5811 21.2875 30.4574C21.1639 30.3338 21.0945 30.1662 21.0945 29.9913V23.1194C21.0945 22.9446 21.1639 22.7769 21.2875 22.6533C21.4111 22.5297 21.5788 22.4602 21.7536 22.4602H31.3557C31.5305 22.4602 31.6982 22.5297 31.8218 22.6533C31.9454 22.7769 32.0149 22.9446 32.0149 23.1194V29.9914C32.0148 30.1662 31.9454 30.3339 31.8218 30.4575C31.6981 30.5811 31.5305 30.6505 31.3557 30.6505Z" stroke="white" stroke-width="1.5" stroke-miterlimit="10" stroke-linecap="round" stroke-linejoin="round"/>
<path d="M21.2891 22.6533L25.389 26.7532C26.0337 27.3979 27.0789 27.3979 27.7235 26.7532L31.8235 22.6533M27.9213 26.5554L31.8234 30.4575M21.2891 30.4575L25.1911 26.5554M35.5174 47.802C36.5527 48.1862 37.6727 48.3961 38.8417 48.3961C40.0107 48.3961 41.1306 48.1862 42.166 47.802M29.8805 35.5166C29.4963 36.5519 29.2863 37.6718 29.2863 38.8408C29.2863 40.0099 29.4963 41.1298 29.8805 42.1651M42.166 29.8797C41.1307 29.4954 40.0107 29.2855 38.8417 29.2855C37.6727 29.2855 36.5528 29.4955 35.5174 29.8797M47.8029 42.1651C48.187 41.1299 48.397 40.0099 48.397 38.8408C48.397 37.6718 48.187 36.5519 47.8029 35.5166" stroke="white" stroke-width="1.5" stroke-miterlimit="10" stroke-linecap="round" stroke-linejoin="round"/>
</svg>
