<svg width="15" height="20" viewBox="0 0 15 20" fill="none" xmlns="http://www.w3.org/2000/svg">
<path d="M7.5 0.840088C3.81682 0.840088 0.820312 3.8366 0.820312 7.51978C0.820312 8.7642 1.16502 9.97864 1.8174 11.0323L7.11978 19.5769C7.22135 19.7406 7.40029 19.8401 7.59274 19.8401C7.59422 19.8401 7.59567 19.8401 7.59715 19.8401C7.79127 19.8386 7.97058 19.736 8.0703 19.5695L13.2375 10.942C13.8539 9.91066 14.1797 8.72728 14.1797 7.51978C14.1797 3.8366 11.1832 0.840088 7.5 0.840088ZM12.2821 10.3704L7.58431 18.2142L2.76362 10.4457C2.2206 9.56873 1.92617 8.55698 1.92617 7.51978C1.92617 4.45046 4.43068 1.94595 7.5 1.94595C10.5693 1.94595 13.0701 4.45046 13.0701 7.51978C13.0701 8.52622 12.7951 9.5121 12.2821 10.3704Z" fill="#31393C"/>
<path d="M7.5 4.17993C5.65841 4.17993 4.16016 5.67819 4.16016 7.51978C4.16016 9.3496 5.63403 10.8596 7.5 10.8596C9.38898 10.8596 10.8398 9.32949 10.8398 7.51978C10.8398 5.67819 9.34159 4.17993 7.5 4.17993ZM7.5 9.75376C6.26585 9.75376 5.26602 8.75058 5.26602 7.51978C5.26602 6.29205 6.27227 5.28579 7.5 5.28579C8.72773 5.28579 9.73027 6.29205 9.73027 7.51978C9.73027 8.73262 8.7537 9.75376 7.5 9.75376Z" fill="#31393C"/>
</svg>
