<svg width="568" height="503" viewBox="0 0 568 503" fill="none" xmlns="http://www.w3.org/2000/svg">
<g filter="url(#filter0_di_1_2113)">
<ellipse cx="284.452" cy="251.022" rx="181.452" ry="181.022" fill="white"/>
<path d="M465.405 251.022C465.405 350.721 384.391 431.545 284.452 431.545C184.514 431.545 103.5 350.721 103.5 251.022C103.5 151.324 184.514 70.5 284.452 70.5C384.391 70.5 465.405 151.324 465.405 251.022Z" stroke="#B5CBE3"/>
</g>
<path d="M410.137 351.776H389.471V351.932H410.137V351.776Z" fill="#ECECEC"/>
<path d="M336.079 353.468H330.652V353.624H336.079V353.468Z" fill="#ECECEC"/>
<path d="M388.847 345.972H376.866V346.128H388.847V345.972Z" fill="#ECECEC"/>
<path d="M198.573 347.021H194.62V347.178H198.573V347.021Z" fill="#ECECEC"/>
<path d="M269.883 349.659H211.42V349.815H269.883V349.659Z" fill="#ECECEC"/>
<path d="M277.286 313.872H156.78C154.812 313.872 153.217 312.275 153.217 310.306V140.783C153.217 138.813 154.812 137.217 156.78 137.217H277.286C279.254 137.217 280.849 138.813 280.849 140.783V310.306C280.849 312.267 279.245 313.872 277.286 313.872ZM156.78 137.373C154.899 137.373 153.373 138.9 153.373 140.783V310.306C153.373 312.188 154.899 313.715 156.78 313.715H277.286C279.167 313.715 280.693 312.188 280.693 310.306V140.783C280.693 138.9 279.167 137.373 277.286 137.373H156.78Z" fill="white" stroke="#92C9FF" stroke-width="0.5" stroke-miterlimit="10"/>
<path d="M412.27 313.872H291.763C289.795 313.872 288.2 312.275 288.2 310.306V140.783C288.2 138.813 289.795 137.217 291.763 137.217H412.27C414.237 137.217 415.833 138.813 415.833 140.783V310.306C415.824 312.267 414.229 313.872 412.27 313.872ZM291.763 137.373C289.882 137.373 288.356 138.9 288.356 140.783V310.306C288.356 312.188 289.882 313.715 291.763 313.715H412.27C414.151 313.715 415.677 312.188 415.677 310.306V140.783C415.677 138.9 414.151 137.373 412.27 137.373H291.763Z" fill="white" stroke="#92C9FF" stroke-width="0.5" stroke-miterlimit="10"/>
<path d="M222.473 254.426H208.49V313.733H222.473V254.426Z" fill="#D4EAFF"/>
<path d="M245.775 234.203H231.792V313.733H245.775V234.203Z" fill="#D4EAFF"/>
<path d="M269.077 254.426H255.094V313.733H269.077V254.426Z" fill="#D4EAFF"/>
<path d="M175.869 274.64H161.886V313.724H175.869V274.64Z" fill="#D4EAFF"/>
<path d="M199.171 264.88H185.188V313.733H199.171V264.88Z" fill="#D4EAFF"/>
<path d="M292.379 274.64H278.396V313.724H292.379V274.64Z" fill="#D4EAFF"/>
<path d="M408.889 213.979H394.906V313.733H408.889V213.979Z" fill="#D4EAFF"/>
<path d="M315.681 254.426H301.698V313.733H315.681V254.426Z" fill="#D4EAFF"/>
<path d="M385.587 234.203H371.604V313.733H385.587V234.203Z" fill="#D4EAFF"/>
<path d="M362.285 244.657H348.302V313.724H362.285V244.657Z" fill="#D4EAFF"/>
<path d="M338.983 264.88H325V313.733H338.983V264.88Z" fill="#D4EAFF"/>
<path d="M181.245 237.805C182.483 232.559 179.237 227.303 173.995 226.064C168.753 224.825 163.5 228.074 162.263 233.32C161.025 238.565 164.271 243.822 169.513 245.061C174.754 246.3 180.007 243.051 181.245 237.805Z" fill="#E1E1E1"/>
<path d="M179.82 242.459C183.629 238.647 183.629 232.467 179.82 228.656C176.012 224.844 169.837 224.844 166.028 228.656C162.22 232.467 162.22 238.647 166.028 242.459C169.837 246.27 176.012 246.27 179.82 242.459Z" fill="#E7E7E7"/>
<path d="M172.921 242.861C176.953 242.861 180.221 239.59 180.221 235.556C180.221 231.522 176.953 228.251 172.921 228.251C168.89 228.251 165.622 231.522 165.622 235.556C165.622 239.59 168.89 242.861 172.921 242.861Z" fill="#F0F0F0"/>
<path d="M176.129 237.109C176.415 238.723 175.305 239.807 173.303 239.972L173.268 241.308H172.054L172.089 239.972C170.919 239.859 169.835 239.495 169.133 239.035L169.679 237.525C170.407 238.003 171.274 238.306 172.124 238.384L172.176 236.328C170.988 235.99 169.67 235.539 169.41 234.072C169.124 232.459 170.26 231.366 172.297 231.218L172.332 229.882H173.545L173.511 231.227C174.386 231.314 175.218 231.556 175.869 231.921L175.392 233.43C174.811 233.075 174.143 232.875 173.476 232.797L173.424 234.931C174.612 235.27 175.886 235.712 176.129 237.109ZM172.228 234.602L172.271 232.849C171.603 232.979 171.283 233.361 171.352 233.821C171.413 234.203 171.751 234.419 172.228 234.602ZM174.221 237.421C174.161 237.066 173.84 236.849 173.389 236.692L173.355 238.358C173.987 238.219 174.299 237.881 174.221 237.421Z" fill="white"/>
<path d="M267.421 181.02C273.042 181.02 277.598 176.46 277.598 170.835C277.598 165.21 273.042 160.65 267.421 160.65C261.8 160.65 257.244 165.21 257.244 170.835C257.244 176.46 261.8 181.02 267.421 181.02Z" fill="#E1E1E1"/>
<path opacity="0.8" d="M267.291 179.008C271.801 179.008 275.457 175.349 275.457 170.835C275.457 166.322 271.801 162.663 267.291 162.663C262.781 162.663 259.125 166.322 259.125 170.835C259.125 175.349 262.781 179.008 267.291 179.008Z" fill="white"/>
<path d="M267.274 172.345C267.733 172.345 268.106 171.972 268.106 171.512C268.106 171.052 267.733 170.679 267.274 170.679C266.814 170.679 266.441 171.052 266.441 171.512C266.441 171.972 266.814 172.345 267.274 172.345Z" fill="#E1E1E1"/>
<path d="M267.178 171.816L263.667 168.51L264.005 168.146L267.187 171.147L272.9 166.098L273.229 166.471L267.178 171.816Z" fill="#E1E1E1"/>
<path d="M263.31 241.456H222.107V349.954H263.31V241.456Z" fill="#007CFF"/>
<path opacity="0.5" d="M263.44 241.456H232.718V349.954H263.44V241.456Z" fill="black"/>
<path d="M209.225 260.811H168.021V349.963H209.225V260.811Z" fill="#007CFF"/>
<path opacity="0.4" d="M209.225 260.594H178.502V349.963H209.225V260.594Z" fill="black"/>
<path d="M184.059 350.075C184.007 351.403 188.203 352.661 193.439 352.886C198.675 353.112 202.966 352.21 203.027 350.882C203.087 349.555 198.883 348.297 193.647 348.071C188.411 347.854 184.12 348.748 184.059 350.075Z" fill="#007CFF"/>
<path d="M184.158 347.672L184.056 350.073L203.024 350.878L203.126 348.477L184.158 347.672Z" fill="#007CFF"/>
<path d="M184.163 347.672C184.103 349 188.307 350.258 193.543 350.483C198.779 350.709 203.07 349.806 203.131 348.479C203.192 347.152 198.987 345.894 193.751 345.668C188.515 345.451 184.224 346.345 184.163 347.672Z" fill="#007CFF"/>
<path opacity="0.4" d="M184.163 347.672C184.103 349 188.307 350.258 193.543 350.483C198.779 350.709 203.07 349.806 203.131 348.479C203.192 347.152 198.987 345.894 193.751 345.668C188.515 345.451 184.224 346.345 184.163 347.672Z" fill="white"/>
<path d="M185.377 347.629C185.377 347.707 185.403 347.802 185.455 347.863C186.088 347.082 189.555 346.622 193.699 346.796C197.852 346.97 201.267 347.724 201.822 348.557C201.883 348.496 201.917 348.41 201.926 348.332C201.961 347.429 198.294 346.527 193.716 346.336C189.157 346.145 185.412 346.735 185.377 347.629Z" fill="#007CFF"/>
<path opacity="0.4" d="M185.377 347.629C185.377 347.707 185.403 347.802 185.455 347.863C186.088 347.082 189.555 346.622 193.699 346.796C197.852 346.97 201.267 347.724 201.822 348.557C201.883 348.496 201.917 348.41 201.926 348.332C201.961 347.429 198.294 346.527 193.716 346.336C189.157 346.145 185.412 346.735 185.377 347.629Z" fill="#007CFF"/>
<path opacity="0.4" d="M185.455 347.872C186.018 348.705 189.434 349.451 193.578 349.633C197.73 349.806 201.198 349.355 201.822 348.575C201.267 347.742 197.851 346.996 193.699 346.813C189.555 346.631 186.088 347.091 185.455 347.872Z" fill="#007CFF"/>
<path d="M182.065 346.44C182.013 347.768 186.209 349.026 191.445 349.251C196.681 349.477 200.972 348.574 201.033 347.247C201.085 345.92 196.889 344.662 191.653 344.436C186.417 344.211 182.126 345.113 182.065 346.44Z" fill="#007CFF"/>
<path d="M182.173 344.045L182.071 346.446L201.039 347.251L201.14 344.85L182.173 344.045Z" fill="#007CFF"/>
<path d="M182.169 344.037C182.117 345.364 186.313 346.622 191.549 346.848C196.785 347.074 201.076 346.171 201.137 344.844C201.198 343.517 196.993 342.259 191.757 342.033C186.521 341.807 182.23 342.71 182.169 344.037Z" fill="#007CFF"/>
<path opacity="0.4" d="M182.169 344.037C182.117 345.364 186.313 346.622 191.549 346.848C196.785 347.074 201.076 346.171 201.137 344.844C201.198 343.517 196.993 342.259 191.757 342.033C186.521 341.807 182.23 342.71 182.169 344.037Z" fill="white"/>
<path d="M183.383 343.994C183.383 344.072 183.409 344.167 183.461 344.228C184.094 343.447 187.561 342.987 191.705 343.17C195.858 343.343 199.273 344.098 199.828 344.931C199.889 344.87 199.923 344.783 199.932 344.705C199.967 343.803 196.3 342.901 191.723 342.71C187.163 342.51 183.418 343.091 183.383 343.994Z" fill="#007CFF"/>
<path opacity="0.4" d="M183.383 343.994C183.383 344.072 183.409 344.167 183.461 344.228C184.094 343.447 187.561 342.987 191.705 343.17C195.858 343.343 199.273 344.098 199.828 344.931C199.889 344.87 199.923 344.783 199.932 344.705C199.967 343.803 196.3 342.901 191.723 342.71C187.163 342.51 183.418 343.091 183.383 343.994Z" fill="#007CFF"/>
<path opacity="0.4" d="M183.461 344.228C184.025 345.061 187.44 345.807 191.584 345.989C195.736 346.163 199.204 345.712 199.828 344.931C199.273 344.098 195.858 343.352 191.705 343.17C187.562 342.987 184.094 343.447 183.461 344.228Z" fill="#007CFF"/>
<path d="M182.325 342.05C182.265 343.378 186.469 344.636 191.705 344.861C196.941 345.087 201.232 344.185 201.293 342.857C201.345 341.53 197.149 340.272 191.913 340.046C186.677 339.829 182.386 340.723 182.325 342.05Z" fill="#007CFF"/>
<path d="M182.425 339.652L182.323 342.053L201.291 342.859L201.392 340.458L182.425 339.652Z" fill="#007CFF"/>
<path d="M182.429 339.647C182.377 340.975 186.573 342.233 191.809 342.458C197.045 342.684 201.336 341.781 201.397 340.454C201.458 339.127 197.253 337.869 192.017 337.643C186.773 337.426 182.481 338.32 182.429 339.647Z" fill="#007CFF"/>
<path opacity="0.4" d="M182.429 339.647C182.377 340.975 186.573 342.233 191.809 342.458C197.045 342.684 201.336 341.781 201.397 340.454C201.458 339.127 197.253 337.869 192.017 337.643C186.773 337.426 182.481 338.32 182.429 339.647Z" fill="white"/>
<path d="M183.635 339.604C183.635 339.682 183.661 339.777 183.713 339.838C184.345 339.057 187.813 338.597 191.957 338.771C196.109 338.944 199.525 339.699 200.079 340.532C200.14 340.471 200.175 340.385 200.183 340.307C200.218 339.404 196.551 338.502 191.974 338.311C187.423 338.12 183.678 338.71 183.635 339.604Z" fill="#007CFF"/>
<path opacity="0.4" d="M183.635 339.604C183.635 339.682 183.661 339.777 183.713 339.838C184.345 339.057 187.813 338.597 191.957 338.771C196.109 338.944 199.525 339.699 200.079 340.532C200.14 340.471 200.175 340.385 200.183 340.307C200.218 339.404 196.551 338.502 191.974 338.311C187.423 338.12 183.678 338.71 183.635 339.604Z" fill="#007CFF"/>
<path opacity="0.4" d="M183.721 339.847C184.285 340.68 187.7 341.426 191.844 341.608C195.996 341.781 199.464 341.33 200.088 340.549C199.533 339.717 196.118 338.971 191.965 338.788C187.822 338.606 184.354 339.066 183.721 339.847Z" fill="#007CFF"/>
<path d="M180.332 338.415C180.271 339.743 184.475 341.001 189.711 341.226C194.947 341.452 199.239 340.549 199.299 339.222C199.36 337.895 195.156 336.637 189.92 336.411C184.683 336.186 180.392 337.088 180.332 338.415Z" fill="#007CFF"/>
<path d="M180.44 336.022L180.338 338.423L199.305 339.23L199.408 336.829L180.44 336.022Z" fill="#007CFF"/>
<path d="M180.436 336.012C180.375 337.339 184.579 338.597 189.815 338.823C195.051 339.049 199.343 338.146 199.403 336.819C199.455 335.492 195.26 334.234 190.024 334.008C184.788 333.782 180.496 334.685 180.436 336.012Z" fill="#007CFF"/>
<path opacity="0.4" d="M180.436 336.012C180.375 337.339 184.579 338.597 189.815 338.823C195.051 339.049 199.343 338.146 199.403 336.819C199.455 335.492 195.26 334.234 190.024 334.008C184.788 333.782 180.496 334.685 180.436 336.012Z" fill="white"/>
<path d="M181.649 335.969C181.649 336.047 181.675 336.142 181.727 336.203C182.36 335.422 185.828 334.962 189.972 335.145C194.124 335.318 197.54 336.073 198.094 336.906C198.155 336.845 198.19 336.758 198.198 336.68C198.233 335.778 194.566 334.876 189.989 334.685C185.429 334.485 181.684 335.066 181.649 335.969Z" fill="#007CFF"/>
<path opacity="0.4" d="M181.649 335.969C181.649 336.047 181.675 336.142 181.727 336.203C182.36 335.422 185.828 334.962 189.972 335.145C194.124 335.318 197.54 336.073 198.094 336.906C198.155 336.845 198.19 336.758 198.198 336.68C198.233 335.778 194.566 334.876 189.989 334.685C185.429 334.485 181.684 335.066 181.649 335.969Z" fill="#007CFF"/>
<path opacity="0.4" d="M181.727 336.203C182.291 337.036 185.706 337.782 189.85 337.964C194.002 338.138 197.47 337.686 198.094 336.906C197.539 336.073 194.124 335.327 189.971 335.145C185.828 334.962 182.36 335.422 181.727 336.203Z" fill="#007CFF"/>
<path d="M183.375 335.327C183.322 336.654 187.518 337.912 192.754 338.138C197.99 338.363 202.281 337.461 202.342 336.134C202.403 334.806 198.198 333.548 192.962 333.323C187.726 333.106 183.435 333.999 183.375 335.327Z" fill="#007CFF"/>
<path d="M183.476 332.928L183.375 335.329L202.342 336.135L202.444 333.734L183.476 332.928Z" fill="#007CFF"/>
<path d="M183.478 332.924C183.418 334.251 187.622 335.509 192.858 335.734C198.094 335.96 202.385 335.058 202.446 333.73C202.507 332.403 198.302 331.145 193.066 330.919C187.83 330.703 183.539 331.596 183.478 332.924Z" fill="#007CFF"/>
<path opacity="0.4" d="M183.478 332.924C183.418 334.251 187.622 335.509 192.858 335.734C198.094 335.96 202.385 335.058 202.446 333.73C202.507 332.403 198.302 331.145 193.066 330.919C187.83 330.703 183.539 331.596 183.478 332.924Z" fill="white"/>
<path d="M184.692 332.88C184.692 332.958 184.718 333.054 184.77 333.114C185.403 332.334 188.871 331.874 193.014 332.047C197.167 332.221 200.582 332.976 201.137 333.808C201.198 333.748 201.232 333.661 201.241 333.583C201.276 332.681 197.609 331.778 193.032 331.587C188.472 331.397 184.727 331.987 184.692 332.88Z" fill="#007CFF"/>
<path opacity="0.4" d="M184.692 332.88C184.692 332.958 184.718 333.054 184.77 333.114C185.403 332.334 188.871 331.874 193.014 332.047C197.167 332.221 200.582 332.976 201.137 333.808C201.198 333.748 201.232 333.661 201.241 333.583C201.276 332.681 197.609 331.778 193.032 331.587C188.472 331.397 184.727 331.987 184.692 332.88Z" fill="#007CFF"/>
<path opacity="0.4" d="M184.77 333.123C185.334 333.956 188.749 334.702 192.893 334.884C197.045 335.058 200.513 334.607 201.137 333.826C200.582 332.993 197.167 332.247 193.014 332.065C188.871 331.882 185.403 332.342 184.77 333.123Z" fill="#007CFF"/>
<path d="M181.381 331.692C181.32 333.019 185.524 334.277 190.76 334.503C195.996 334.728 200.287 333.826 200.348 332.498C200.409 331.171 196.204 329.913 190.968 329.687C185.732 329.462 181.441 330.364 181.381 331.692Z" fill="#007CFF"/>
<path d="M181.487 329.284L181.385 331.685L200.353 332.491L200.455 330.09L181.487 329.284Z" fill="#007CFF"/>
<path d="M181.485 329.28C181.424 330.607 185.628 331.865 190.864 332.091C196.1 332.316 200.391 331.414 200.452 330.087C200.513 328.759 196.308 327.501 191.072 327.276C185.836 327.059 181.545 327.952 181.485 329.28Z" fill="#007CFF"/>
<path opacity="0.4" d="M181.485 329.28C181.424 330.607 185.628 331.865 190.864 332.091C196.1 332.316 200.391 331.414 200.452 330.087C200.513 328.759 196.308 327.501 191.072 327.276C185.836 327.059 181.545 327.952 181.485 329.28Z" fill="white"/>
<path d="M182.698 329.245C182.698 329.323 182.724 329.419 182.776 329.479C183.409 328.698 186.877 328.239 191.02 328.421C195.173 328.594 198.588 329.349 199.143 330.182C199.204 330.121 199.239 330.035 199.247 329.956C199.282 329.054 195.615 328.152 191.038 327.961C186.478 327.761 182.733 328.343 182.698 329.245Z" fill="#007CFF"/>
<path opacity="0.4" d="M182.698 329.245C182.698 329.323 182.724 329.419 182.776 329.479C183.409 328.698 186.877 328.239 191.02 328.421C195.173 328.594 198.588 329.349 199.143 330.182C199.204 330.121 199.239 330.035 199.247 329.956C199.282 329.054 195.615 328.152 191.038 327.961C186.478 327.761 182.733 328.343 182.698 329.245Z" fill="#007CFF"/>
<path opacity="0.4" d="M182.776 329.479C183.34 330.312 186.755 331.058 190.899 331.24C195.051 331.414 198.519 330.963 199.143 330.182C198.588 329.349 195.173 328.603 191.02 328.421C186.877 328.239 183.409 328.698 182.776 329.479Z" fill="#007CFF"/>
<path d="M155.773 348.913C155.712 350.24 159.916 351.498 165.152 351.724C170.388 351.949 174.68 351.047 174.74 349.72C174.801 348.392 170.596 347.134 165.36 346.909C160.124 346.692 155.833 347.585 155.773 348.913Z" fill="#007CFF"/>
<path d="M155.875 346.51L155.773 348.911L174.741 349.717L174.843 347.316L155.875 346.51Z" fill="#007CFF"/>
<path d="M155.877 346.51C155.816 347.837 160.02 349.095 165.256 349.321C170.492 349.546 174.784 348.644 174.844 347.317C174.905 345.989 170.7 344.731 165.464 344.506C160.228 344.289 155.937 345.182 155.877 346.51Z" fill="#007CFF"/>
<path opacity="0.4" d="M155.877 346.51C155.816 347.837 160.02 349.095 165.256 349.321C170.492 349.546 174.784 348.644 174.844 347.317C174.905 345.989 170.7 344.731 165.464 344.506C160.228 344.289 155.937 345.182 155.877 346.51Z" fill="white"/>
<path d="M157.09 346.466C157.09 346.544 157.116 346.64 157.168 346.701C157.801 345.92 161.269 345.46 165.412 345.642C169.565 345.816 172.98 346.57 173.535 347.403C173.596 347.343 173.631 347.256 173.639 347.178C173.674 346.275 170.007 345.373 165.43 345.182C160.87 344.983 157.125 345.573 157.09 346.466Z" fill="#007CFF"/>
<path opacity="0.4" d="M157.09 346.466C157.09 346.544 157.116 346.64 157.168 346.701C157.801 345.92 161.269 345.46 165.412 345.642C169.565 345.816 172.98 346.57 173.535 347.403C173.596 347.343 173.631 347.256 173.639 347.178C173.674 346.275 170.007 345.373 165.43 345.182C160.87 344.983 157.125 345.573 157.09 346.466Z" fill="#007CFF"/>
<path opacity="0.4" d="M157.168 346.709C157.732 347.542 161.147 348.288 165.291 348.47C169.443 348.644 172.911 348.193 173.535 347.412C172.98 346.579 169.565 345.833 165.412 345.651C161.269 345.469 157.801 345.928 157.168 346.709Z" fill="#007CFF"/>
<path d="M164.025 346.57C163.722 347.863 167.606 349.893 172.703 351.108C177.8 352.322 182.187 352.253 182.49 350.96C182.794 349.668 178.91 347.638 173.813 346.423C168.715 345.217 164.338 345.278 164.025 346.57Z" fill="#007CFF"/>
<path d="M164.594 344.237L164.039 346.575L182.509 350.972L183.065 348.634L164.594 344.237Z" fill="#007CFF"/>
<path d="M164.58 344.228C164.277 345.521 168.161 347.551 173.258 348.765C178.355 349.98 182.742 349.911 183.045 348.618C183.349 347.325 179.465 345.295 174.368 344.08C169.27 342.875 164.892 342.935 164.58 344.228Z" fill="#007CFF"/>
<path opacity="0.4" d="M164.58 344.228C164.277 345.521 168.161 347.551 173.258 348.765C178.355 349.98 182.742 349.911 183.045 348.618C183.349 347.325 179.465 345.295 174.368 344.08C169.27 342.875 164.892 342.935 164.58 344.228Z" fill="white"/>
<path d="M165.776 344.419C165.759 344.497 165.768 344.592 165.811 344.67C166.583 344.028 170.076 344.237 174.107 345.191C178.156 346.154 181.363 347.542 181.753 348.462C181.823 348.418 181.875 348.332 181.892 348.254C182.1 347.377 178.667 345.798 174.211 344.74C169.773 343.681 165.984 343.543 165.776 344.419Z" fill="#007CFF"/>
<path opacity="0.4" d="M165.776 344.419C165.759 344.497 165.768 344.592 165.811 344.67C166.583 344.028 170.076 344.237 174.107 345.191C178.156 346.154 181.363 347.542 181.753 348.462C181.823 348.418 181.875 348.332 181.892 348.254C182.1 347.377 178.667 345.798 174.211 344.74C169.773 343.681 165.984 343.543 165.776 344.419Z" fill="#007CFF"/>
<path opacity="0.4" d="M165.811 344.67C166.21 345.59 169.418 346.978 173.457 347.941C177.506 348.904 180.991 349.112 181.753 348.462C181.363 347.542 178.156 346.154 174.107 345.191C170.076 344.228 166.583 344.02 165.811 344.67Z" fill="#007CFF"/>
<path d="M188.099 330.902C192.824 330.902 196.655 327.068 196.655 322.339C196.655 317.61 192.824 313.776 188.099 313.776C183.373 313.776 179.543 317.61 179.543 322.339C179.543 327.068 183.373 330.902 188.099 330.902Z" fill="#007CFF"/>
<path d="M189.122 330.902C193.847 330.902 197.678 327.068 197.678 322.339C197.678 317.61 193.847 313.776 189.122 313.776C184.396 313.776 180.566 317.61 180.566 322.339C180.566 327.068 184.396 330.902 189.122 330.902Z" fill="#007CFF"/>
<path opacity="0.5" d="M189.122 330.902C193.847 330.902 197.678 327.068 197.678 322.339C197.678 317.61 193.847 313.776 189.122 313.776C184.396 313.776 180.566 317.61 180.566 322.339C180.566 327.068 184.396 330.902 189.122 330.902Z" fill="white"/>
<path d="M193.644 326.868C196.142 324.367 196.142 320.314 193.644 317.813C191.145 315.313 187.094 315.313 184.596 317.813C182.098 320.314 182.098 324.367 184.596 326.868C187.094 329.368 191.145 329.368 193.644 326.868Z" fill="#007CFF"/>
<path d="M192.789 321.784C193.777 322.834 193.482 324.152 192.104 325.246L192.72 326.243L191.835 326.833L191.211 325.835C190.301 326.321 189.33 326.582 188.602 326.582L188.281 325.211C189.044 325.211 189.824 325.011 190.483 324.664L189.529 323.137C188.498 323.458 187.319 323.771 186.417 322.816C185.429 321.767 185.732 320.422 187.154 319.337L186.539 318.34L187.423 317.75L188.047 318.756C188.732 318.392 189.451 318.175 190.102 318.123L190.474 319.459C189.876 319.485 189.287 319.65 188.767 319.927L189.763 321.515C190.786 321.177 191.931 320.882 192.789 321.784ZM188.723 321.845L187.917 320.543C187.492 320.96 187.44 321.393 187.709 321.697C187.934 321.94 188.29 321.94 188.723 321.845ZM191.541 322.938C191.324 322.712 190.986 322.704 190.578 322.808L191.35 324.04C191.749 323.641 191.818 323.241 191.541 322.938Z" fill="white"/>
<path d="M238.188 348.574C238.136 349.902 242.332 351.16 247.568 351.385C252.804 351.611 257.095 350.709 257.156 349.381C257.216 348.054 253.012 346.796 247.776 346.57C242.54 346.354 238.249 347.247 238.188 348.574Z" fill="#007CFF"/>
<path d="M238.284 346.171L238.182 348.572L257.15 349.378L257.252 346.977L238.284 346.171Z" fill="#007CFF"/>
<path d="M238.292 346.171C238.231 347.499 242.436 348.757 247.672 348.982C252.908 349.208 257.199 348.306 257.26 346.978C257.32 345.651 253.116 344.393 247.88 344.167C242.635 343.95 238.344 344.844 238.292 346.171Z" fill="#007CFF"/>
<path opacity="0.4" d="M238.292 346.171C238.231 347.499 242.436 348.757 247.672 348.982C252.908 349.208 257.199 348.306 257.26 346.978C257.32 345.651 253.116 344.393 247.88 344.167C242.635 343.95 238.344 344.844 238.292 346.171Z" fill="white"/>
<path d="M239.506 346.137C239.506 346.215 239.532 346.31 239.584 346.371C240.217 345.59 243.684 345.13 247.828 345.304C251.98 345.477 255.396 346.232 255.951 347.065C256.011 347.004 256.046 346.917 256.055 346.839C256.089 345.937 252.423 345.035 247.845 344.844C243.286 344.644 239.541 345.234 239.506 346.137Z" fill="#007CFF"/>
<path opacity="0.4" d="M239.506 346.137C239.506 346.215 239.532 346.31 239.584 346.371C240.217 345.59 243.684 345.13 247.828 345.304C251.98 345.477 255.396 346.232 255.951 347.065C256.011 347.004 256.046 346.917 256.055 346.839C256.089 345.937 252.423 345.035 247.845 344.844C243.286 344.644 239.541 345.234 239.506 346.137Z" fill="#007CFF"/>
<path opacity="0.4" d="M239.584 346.371C240.147 347.204 243.563 347.95 247.707 348.132C251.859 348.306 255.326 347.854 255.951 347.074C255.396 346.241 251.98 345.495 247.828 345.312C243.684 345.13 240.217 345.59 239.584 346.371Z" fill="#007CFF"/>
<path d="M236.194 344.939C236.142 346.267 240.338 347.525 245.574 347.75C250.81 347.976 255.101 347.074 255.162 345.746C255.214 344.419 251.018 343.161 245.782 342.935C240.546 342.718 236.255 343.612 236.194 344.939Z" fill="#007CFF"/>
<path d="M236.301 342.544L236.199 344.945L255.167 345.751L255.269 343.35L236.301 342.544Z" fill="#007CFF"/>
<path d="M236.298 342.536C236.246 343.864 240.442 345.122 245.678 345.347C250.914 345.573 255.205 344.67 255.266 343.343C255.326 342.016 251.122 340.758 245.886 340.532C240.65 340.307 236.359 341.209 236.298 342.536Z" fill="#007CFF"/>
<path opacity="0.4" d="M236.298 342.536C236.246 343.864 240.442 345.122 245.678 345.347C250.914 345.573 255.205 344.67 255.266 343.343C255.326 342.016 251.122 340.758 245.886 340.532C240.65 340.307 236.359 341.209 236.298 342.536Z" fill="white"/>
<path d="M237.512 342.493C237.512 342.571 237.538 342.666 237.59 342.727C238.223 341.946 241.69 341.486 245.834 341.669C249.986 341.842 253.402 342.597 253.957 343.43C254.017 343.369 254.052 343.282 254.061 343.204C254.095 342.302 250.428 341.4 245.851 341.209C241.291 341.009 237.546 341.591 237.512 342.493Z" fill="#007CFF"/>
<path opacity="0.4" d="M237.512 342.493C237.512 342.571 237.538 342.666 237.59 342.727C238.223 341.946 241.69 341.486 245.834 341.669C249.986 341.842 253.402 342.597 253.957 343.43C254.017 343.369 254.052 343.282 254.061 343.204C254.095 342.302 250.428 341.4 245.851 341.209C241.291 341.009 237.546 341.591 237.512 342.493Z" fill="#007CFF"/>
<path opacity="0.4" d="M237.59 342.727C238.153 343.56 241.569 344.306 245.713 344.488C249.865 344.662 253.333 344.211 253.957 343.43C253.402 342.597 249.986 341.851 245.834 341.669C241.69 341.486 238.223 341.946 237.59 342.727Z" fill="#007CFF"/>
<path d="M236.454 340.549C236.394 341.877 240.598 343.135 245.834 343.36C251.07 343.586 255.361 342.684 255.422 341.356C255.474 340.029 251.278 338.771 246.042 338.545C240.806 338.328 236.515 339.222 236.454 340.549Z" fill="#007CFF"/>
<path d="M236.552 338.152L236.45 340.553L255.418 341.358L255.52 338.957L236.552 338.152Z" fill="#007CFF"/>
<path d="M236.558 338.146C236.506 339.474 240.702 340.732 245.938 340.957C251.174 341.183 255.465 340.281 255.526 338.953C255.587 337.626 251.382 336.368 246.146 336.142C240.901 335.925 236.61 336.819 236.558 338.146Z" fill="#007CFF"/>
<path opacity="0.4" d="M236.558 338.146C236.506 339.474 240.702 340.732 245.938 340.957C251.174 341.183 255.465 340.281 255.526 338.953C255.587 337.626 251.382 336.368 246.146 336.142C240.901 335.925 236.61 336.819 236.558 338.146Z" fill="white"/>
<path d="M237.763 338.112C237.763 338.19 237.789 338.285 237.841 338.346C238.474 337.565 241.942 337.105 246.085 337.279C250.238 337.452 253.653 338.207 254.208 339.04C254.269 338.979 254.303 338.892 254.312 338.814C254.347 337.912 250.68 337.01 246.103 336.819C241.551 336.619 237.807 337.209 237.763 338.112Z" fill="#007CFF"/>
<path opacity="0.4" d="M237.763 338.112C237.763 338.19 237.789 338.285 237.841 338.346C238.474 337.565 241.942 337.105 246.085 337.279C250.238 337.452 253.653 338.207 254.208 339.04C254.269 338.979 254.303 338.892 254.312 338.814C254.347 337.912 250.68 337.01 246.103 336.819C241.551 336.619 237.807 337.209 237.763 338.112Z" fill="#007CFF"/>
<path opacity="0.4" d="M237.85 338.346C238.413 339.179 241.829 339.925 245.973 340.107C250.125 340.281 253.593 339.829 254.217 339.049C253.662 338.216 250.246 337.47 246.094 337.287C241.95 337.105 238.483 337.565 237.85 338.346Z" fill="#007CFF"/>
<path d="M234.46 336.914C234.4 338.242 238.604 339.5 243.84 339.725C249.076 339.951 253.367 339.049 253.428 337.721C253.489 336.394 249.284 335.136 244.048 334.91C238.812 334.693 234.521 335.587 234.46 336.914Z" fill="#007CFF"/>
<path d="M234.57 334.521L234.468 336.922L253.435 337.73L253.537 335.329L234.57 334.521Z" fill="#007CFF"/>
<path d="M234.564 334.511C234.504 335.839 238.708 337.097 243.944 337.322C249.18 337.548 253.471 336.645 253.532 335.318C253.584 333.991 249.388 332.733 244.152 332.507C238.916 332.282 234.625 333.184 234.564 334.511Z" fill="#007CFF"/>
<path opacity="0.4" d="M234.564 334.511C234.504 335.839 238.708 337.097 243.944 337.322C249.18 337.548 253.471 336.645 253.532 335.318C253.584 333.991 249.388 332.733 244.152 332.507C238.916 332.282 234.625 333.184 234.564 334.511Z" fill="white"/>
<path d="M235.778 334.468C235.778 334.546 235.804 334.641 235.856 334.702C236.489 333.921 239.956 333.461 244.1 333.644C248.253 333.817 251.668 334.572 252.223 335.405C252.284 335.344 252.318 335.257 252.327 335.179C252.362 334.277 248.695 333.375 244.118 333.184C239.558 332.984 235.813 333.566 235.778 334.468Z" fill="#007CFF"/>
<path opacity="0.4" d="M235.778 334.468C235.778 334.546 235.804 334.641 235.856 334.702C236.489 333.921 239.956 333.461 244.1 333.644C248.253 333.817 251.668 334.572 252.223 335.405C252.284 335.344 252.318 335.257 252.327 335.179C252.362 334.277 248.695 333.375 244.118 333.184C239.558 332.984 235.813 333.566 235.778 334.468Z" fill="#007CFF"/>
<path opacity="0.4" d="M235.856 334.702C236.419 335.535 239.835 336.281 243.979 336.463C248.131 336.637 251.599 336.186 252.223 335.405C251.668 334.572 248.253 333.826 244.1 333.644C239.956 333.461 236.489 333.921 235.856 334.702Z" fill="#007CFF"/>
<path d="M237.503 333.826C237.451 335.153 241.647 336.411 246.883 336.637C252.119 336.862 256.41 335.96 256.471 334.633C256.531 333.305 252.327 332.047 247.091 331.822C241.855 331.605 237.564 332.498 237.503 333.826Z" fill="#007CFF"/>
<path d="M237.604 331.428L237.502 333.829L256.47 334.634L256.571 332.233L237.604 331.428Z" fill="#007CFF"/>
<path d="M237.607 331.423C237.546 332.75 241.751 334.008 246.987 334.234C252.223 334.459 256.514 333.557 256.575 332.229C256.635 330.902 252.431 329.644 247.195 329.419C241.959 329.202 237.668 330.095 237.607 331.423Z" fill="#007CFF"/>
<path opacity="0.4" d="M237.607 331.423C237.546 332.75 241.751 334.008 246.987 334.234C252.223 334.459 256.514 333.557 256.575 332.229C256.635 330.902 252.431 329.644 247.195 329.419C241.959 329.202 237.668 330.095 237.607 331.423Z" fill="white"/>
<path d="M238.821 331.379C238.821 331.457 238.847 331.553 238.899 331.614C239.532 330.833 242.999 330.373 247.143 330.546C251.295 330.72 254.711 331.475 255.266 332.308C255.326 332.247 255.361 332.16 255.37 332.082C255.404 331.18 251.737 330.277 247.16 330.087C242.6 329.896 238.855 330.486 238.821 331.379Z" fill="#007CFF"/>
<path opacity="0.4" d="M238.821 331.379C238.821 331.457 238.847 331.553 238.899 331.614C239.532 330.833 242.999 330.373 247.143 330.546C251.295 330.72 254.711 331.475 255.266 332.308C255.326 332.247 255.361 332.16 255.37 332.082C255.404 331.18 251.737 330.277 247.16 330.087C242.6 329.896 238.855 330.486 238.821 331.379Z" fill="#007CFF"/>
<path opacity="0.4" d="M238.899 331.622C239.462 332.455 242.878 333.201 247.022 333.383C251.174 333.557 254.642 333.106 255.266 332.325C254.711 331.492 251.295 330.746 247.143 330.564C242.999 330.382 239.532 330.841 238.899 331.622Z" fill="#007CFF"/>
<path d="M235.509 330.191C235.449 331.518 239.653 332.776 244.889 333.002C250.125 333.227 254.416 332.325 254.477 330.998C254.537 329.67 250.333 328.412 245.097 328.187C239.861 327.961 235.57 328.863 235.509 330.191Z" fill="#007CFF"/>
<path d="M235.613 327.784L235.511 330.185L254.479 330.99L254.581 328.589L235.613 327.784Z" fill="#007CFF"/>
<path d="M235.613 327.788C235.553 329.115 239.757 330.373 244.993 330.598C250.229 330.824 254.52 329.922 254.581 328.594C254.641 327.267 250.437 326.009 245.201 325.783C239.965 325.558 235.674 326.451 235.613 327.788Z" fill="#007CFF"/>
<path opacity="0.4" d="M235.613 327.788C235.553 329.115 239.757 330.373 244.993 330.598C250.229 330.824 254.52 329.922 254.581 328.594C254.641 327.267 250.437 326.009 245.201 325.783C239.965 325.558 235.674 326.451 235.613 327.788Z" fill="white"/>
<path d="M236.827 327.744C236.827 327.822 236.853 327.918 236.905 327.978C237.538 327.198 241.005 326.738 245.149 326.92C249.301 327.093 252.717 327.848 253.272 328.681C253.333 328.62 253.367 328.534 253.376 328.456C253.411 327.553 249.744 326.651 245.166 326.46C240.607 326.261 236.862 326.842 236.827 327.744Z" fill="#007CFF"/>
<path opacity="0.4" d="M236.827 327.744C236.827 327.822 236.853 327.918 236.905 327.978C237.538 327.198 241.005 326.738 245.149 326.92C249.301 327.093 252.717 327.848 253.272 328.681C253.333 328.62 253.367 328.534 253.376 328.456C253.411 327.553 249.744 326.651 245.166 326.46C240.607 326.261 236.862 326.842 236.827 327.744Z" fill="#007CFF"/>
<path opacity="0.4" d="M236.905 327.978C237.468 328.811 240.884 329.557 245.028 329.74C249.18 329.913 252.648 329.462 253.272 328.681C252.717 327.848 249.301 327.102 245.149 326.92C241.005 326.738 237.538 327.198 236.905 327.978Z" fill="#007CFF"/>
<path d="M256.462 327.605C256.514 328.933 252.318 330.191 247.082 330.416C241.846 330.642 237.555 329.74 237.494 328.412C237.434 327.085 241.638 325.827 246.874 325.601C252.11 325.376 256.401 326.278 256.462 327.605Z" fill="#007CFF"/>
<path d="M256.353 325.203L237.385 326.009L237.487 328.41L256.454 327.604L256.353 325.203Z" fill="#007CFF"/>
<path d="M256.358 325.202C256.419 326.53 252.214 327.788 246.978 328.013C241.742 328.239 237.451 327.336 237.391 326.009C237.33 324.682 241.534 323.424 246.77 323.198C252.015 322.972 256.306 323.875 256.358 325.202Z" fill="#007CFF"/>
<path opacity="0.4" d="M256.358 325.202C256.419 326.53 252.214 327.788 246.978 328.013C241.742 328.239 237.451 327.336 237.391 326.009C237.33 324.682 241.534 323.424 246.77 323.198C252.015 322.972 256.306 323.875 256.358 325.202Z" fill="white"/>
<path d="M255.153 325.159C255.153 325.237 255.127 325.332 255.075 325.393C254.442 324.612 250.975 324.152 246.831 324.326C242.678 324.499 239.263 325.254 238.708 326.087C238.647 326.026 238.613 325.94 238.604 325.862C238.569 324.959 242.236 324.057 246.813 323.866C251.365 323.675 255.11 324.257 255.153 325.159Z" fill="#007CFF"/>
<path opacity="0.4" d="M255.153 325.159C255.153 325.237 255.127 325.332 255.075 325.393C254.442 324.612 250.975 324.152 246.831 324.326C242.678 324.499 239.263 325.254 238.708 326.087C238.647 326.026 238.613 325.94 238.604 325.862C238.569 324.959 242.236 324.057 246.813 323.866C251.365 323.675 255.11 324.257 255.153 325.159Z" fill="#007CFF"/>
<path opacity="0.4" d="M255.066 325.393C254.503 326.226 251.087 326.972 246.944 327.154C242.791 327.328 239.324 326.877 238.699 326.096C239.254 325.263 242.67 324.517 246.822 324.335C250.966 324.152 254.434 324.612 255.066 325.393Z" fill="#007CFF"/>
<path d="M258.456 323.962C258.508 325.289 254.312 326.547 249.076 326.772C243.84 326.998 239.549 326.096 239.488 324.768C239.436 323.441 243.632 322.183 248.868 321.957C254.104 321.741 258.395 322.634 258.456 323.962Z" fill="#007CFF"/>
<path d="M258.356 321.554L239.388 322.359L239.49 324.76L258.457 323.955L258.356 321.554Z" fill="#007CFF"/>
<path d="M258.352 321.558C258.404 322.886 254.208 324.144 248.972 324.369C243.736 324.595 239.445 323.693 239.384 322.365C239.324 321.038 243.528 319.78 248.764 319.554C254.009 319.337 258.3 320.231 258.352 321.558Z" fill="#007CFF"/>
<path opacity="0.4" d="M258.352 321.558C258.404 322.886 254.208 324.144 248.972 324.369C243.736 324.595 239.445 323.693 239.384 322.365C239.324 321.038 243.528 319.78 248.764 319.554C254.009 319.337 258.3 320.231 258.352 321.558Z" fill="white"/>
<path d="M257.147 321.515C257.147 321.593 257.121 321.688 257.069 321.749C256.436 320.968 252.968 320.509 248.825 320.691C244.672 320.864 241.257 321.619 240.702 322.452C240.641 322.391 240.607 322.304 240.598 322.226C240.563 321.324 244.23 320.422 248.807 320.231C253.359 320.031 257.104 320.621 257.147 321.515Z" fill="#007CFF"/>
<path opacity="0.4" d="M257.147 321.515C257.147 321.593 257.121 321.688 257.069 321.749C256.436 320.968 252.968 320.509 248.825 320.691C244.672 320.864 241.257 321.619 240.702 322.452C240.641 322.391 240.607 322.304 240.598 322.226C240.563 321.324 244.23 320.422 248.807 320.231C253.359 320.031 257.104 320.621 257.147 321.515Z" fill="#007CFF"/>
<path opacity="0.4" d="M257.06 321.758C256.497 322.591 253.081 323.337 248.937 323.519C244.785 323.693 241.317 323.241 240.693 322.461C241.248 321.628 244.663 320.882 248.816 320.699C252.96 320.517 256.427 320.977 257.06 321.758Z" fill="#007CFF"/>
<path d="M258.196 319.58C258.256 320.908 254.052 322.166 248.816 322.391C243.58 322.617 239.289 321.715 239.228 320.387C239.176 319.06 243.372 317.802 248.608 317.576C253.852 317.359 258.144 318.253 258.196 319.58Z" fill="#007CFF"/>
<path d="M258.1 317.175L239.132 317.981L239.234 320.382L258.201 319.576L258.1 317.175Z" fill="#007CFF"/>
<path d="M258.092 317.177C258.144 318.505 253.948 319.762 248.712 319.988C243.476 320.214 239.185 319.311 239.124 317.984C239.064 316.657 243.268 315.399 248.504 315.173C253.749 314.947 258.04 315.85 258.092 317.177Z" fill="#007CFF"/>
<path opacity="0.4" d="M258.092 317.177C258.144 318.505 253.948 319.762 248.712 319.988C243.476 320.214 239.185 319.311 239.124 317.984C239.064 316.657 243.268 315.399 248.504 315.173C253.749 314.947 258.04 315.85 258.092 317.177Z" fill="white"/>
<path d="M256.887 317.134C256.887 317.212 256.861 317.307 256.809 317.368C256.176 316.587 252.708 316.127 248.565 316.301C244.412 316.474 240.997 317.229 240.442 318.062C240.381 318.001 240.347 317.915 240.338 317.836C240.303 316.934 243.97 316.032 248.547 315.841C253.099 315.65 256.844 316.231 256.887 317.134Z" fill="#007CFF"/>
<path opacity="0.4" d="M256.887 317.134C256.887 317.212 256.861 317.307 256.809 317.368C256.176 316.587 252.708 316.127 248.565 316.301C244.412 316.474 240.997 317.229 240.442 318.062C240.381 318.001 240.347 317.915 240.338 317.836C240.303 316.934 243.97 316.032 248.547 315.841C253.099 315.65 256.844 316.231 256.887 317.134Z" fill="#007CFF"/>
<path opacity="0.4" d="M256.8 317.368C256.237 318.201 252.821 318.947 248.677 319.129C244.525 319.303 241.057 318.852 240.433 318.071C240.988 317.238 244.403 316.492 248.556 316.31C252.7 316.127 256.167 316.587 256.8 317.368Z" fill="#007CFF"/>
<path d="M260.19 315.936C260.25 317.264 256.046 318.522 250.81 318.747C245.574 318.973 241.283 318.071 241.222 316.743C241.161 315.416 245.366 314.158 250.602 313.932C255.838 313.716 260.129 314.609 260.19 315.936Z" fill="#007CFF"/>
<path d="M260.094 313.526L241.126 314.333L241.228 316.734L260.196 315.927L260.094 313.526Z" fill="#007CFF"/>
<path d="M260.085 313.533C260.146 314.861 255.942 316.119 250.706 316.344C245.47 316.57 241.179 315.668 241.118 314.34C241.066 313.013 245.262 311.755 250.498 311.529C255.742 311.312 260.033 312.206 260.085 313.533Z" fill="#007CFF"/>
<path opacity="0.4" d="M260.085 313.533C260.146 314.861 255.942 316.119 250.706 316.344C245.47 316.57 241.179 315.668 241.118 314.34C241.066 313.013 245.262 311.755 250.498 311.529C255.742 311.312 260.033 312.206 260.085 313.533Z" fill="white"/>
<path d="M258.881 313.49C258.881 313.568 258.854 313.663 258.802 313.724C258.17 312.943 254.702 312.484 250.558 312.666C246.406 312.839 242.99 313.594 242.436 314.427C242.375 314.366 242.34 314.279 242.332 314.201C242.297 313.299 245.964 312.397 250.541 312.206C255.092 312.006 258.837 312.596 258.881 313.49Z" fill="#007CFF"/>
<path opacity="0.4" d="M258.881 313.49C258.881 313.568 258.854 313.663 258.802 313.724C258.17 312.943 254.702 312.484 250.558 312.666C246.406 312.839 242.99 313.594 242.436 314.427C242.375 314.366 242.34 314.279 242.332 314.201C242.297 313.299 245.964 312.397 250.541 312.206C255.092 312.006 258.837 312.596 258.881 313.49Z" fill="#007CFF"/>
<path opacity="0.4" d="M258.794 313.733C258.23 314.566 254.815 315.312 250.671 315.494C246.519 315.668 243.051 315.216 242.427 314.436C242.982 313.603 246.397 312.857 250.55 312.674C254.694 312.492 258.161 312.952 258.794 313.733Z" fill="#007CFF"/>
<path d="M257.147 312.857C257.199 314.184 253.003 315.442 247.767 315.668C242.531 315.893 238.24 314.991 238.179 313.663C238.127 312.336 242.323 311.078 247.559 310.853C252.795 310.627 257.086 311.529 257.147 312.857Z" fill="#007CFF"/>
<path d="M257.047 310.449L238.079 311.254L238.181 313.655L257.149 312.85L257.047 310.449Z" fill="#007CFF"/>
<path d="M257.043 310.453C257.103 311.781 252.899 313.039 247.663 313.264C242.427 313.49 238.136 312.588 238.075 311.26C238.014 309.933 242.219 308.675 247.455 308.449C252.7 308.224 256.991 309.117 257.043 310.453Z" fill="#007CFF"/>
<path opacity="0.4" d="M257.043 310.453C257.103 311.781 252.899 313.039 247.663 313.264C242.427 313.49 238.136 312.588 238.075 311.26C238.014 309.933 242.219 308.675 247.455 308.449C252.7 308.224 256.991 309.117 257.043 310.453Z" fill="white"/>
<path d="M255.838 310.41C255.838 310.488 255.812 310.584 255.76 310.644C255.127 309.864 251.659 309.404 247.516 309.577C243.363 309.751 239.948 310.506 239.393 311.338C239.332 311.278 239.297 311.191 239.289 311.113C239.254 310.211 242.921 309.308 247.498 309.117C252.049 308.927 255.794 309.508 255.838 310.41Z" fill="#007CFF"/>
<path opacity="0.4" d="M255.838 310.41C255.838 310.488 255.812 310.584 255.76 310.644C255.127 309.864 251.659 309.404 247.516 309.577C243.363 309.751 239.948 310.506 239.393 311.338C239.332 311.278 239.297 311.191 239.289 311.113C239.254 310.211 242.921 309.308 247.498 309.117C252.049 308.927 255.794 309.508 255.838 310.41Z" fill="#007CFF"/>
<path opacity="0.4" d="M255.751 310.644C255.187 311.477 251.772 312.223 247.628 312.405C243.476 312.579 240.008 312.128 239.384 311.347C239.939 310.514 243.354 309.768 247.507 309.586C251.651 309.404 255.118 309.864 255.751 310.644Z" fill="#007CFF"/>
<path d="M259.141 309.213C259.201 310.54 254.997 311.798 249.761 312.024C244.525 312.249 240.234 311.347 240.173 310.02C240.112 308.692 244.317 307.434 249.553 307.209C254.789 306.992 259.08 307.885 259.141 309.213Z" fill="#007CFF"/>
<path d="M259.032 306.811L240.064 307.616L240.166 310.017L259.134 309.212L259.032 306.811Z" fill="#007CFF"/>
<path d="M259.037 306.81C259.098 308.137 254.893 309.395 249.657 309.621C244.421 309.846 240.13 308.944 240.069 307.616C240.009 306.289 244.213 305.031 249.449 304.806C254.694 304.589 258.985 305.482 259.037 306.81Z" fill="#007CFF"/>
<path opacity="0.4" d="M259.037 306.81C259.098 308.137 254.893 309.395 249.657 309.621C244.421 309.846 240.13 308.944 240.069 307.616C240.009 306.289 244.213 305.031 249.449 304.806C254.694 304.589 258.985 305.482 259.037 306.81Z" fill="white"/>
<path d="M257.823 306.766C257.823 306.844 257.797 306.94 257.745 307.001C257.112 306.22 253.644 305.76 249.501 305.933C245.348 306.107 241.933 306.862 241.378 307.695C241.317 307.634 241.283 307.547 241.274 307.469C241.239 306.567 244.906 305.664 249.483 305.474C254.043 305.283 257.788 305.873 257.823 306.766Z" fill="#007CFF"/>
<path opacity="0.4" d="M257.823 306.766C257.823 306.844 257.797 306.94 257.745 307.001C257.112 306.22 253.644 305.76 249.501 305.933C245.348 306.107 241.933 306.862 241.378 307.695C241.317 307.634 241.283 307.547 241.274 307.469C241.239 306.567 244.906 305.664 249.483 305.474C254.043 305.283 257.788 305.873 257.823 306.766Z" fill="#007CFF"/>
<path opacity="0.4" d="M257.745 307.001C257.181 307.833 253.766 308.579 249.622 308.762C245.47 308.935 242.002 308.484 241.378 307.703C241.933 306.87 245.348 306.124 249.501 305.942C253.644 305.769 257.112 306.22 257.745 307.001Z" fill="#007CFF"/>
<path d="M251.247 306.473C255.671 304.813 257.913 299.877 256.254 295.449C254.595 291.021 249.663 288.778 245.238 290.438C240.814 292.099 238.572 297.034 240.231 301.462C241.89 305.89 246.822 308.133 251.247 306.473Z" fill="#007CFF"/>
<path d="M255.704 304.44C258.766 300.838 258.332 295.434 254.733 292.369C251.134 289.304 245.734 289.739 242.671 293.341C239.608 296.943 240.043 302.347 243.642 305.412C247.241 308.477 252.641 308.042 255.704 304.44Z" fill="#007CFF"/>
<path opacity="0.4" d="M255.704 304.44C258.766 300.838 258.332 295.434 254.733 292.369C251.134 289.304 245.734 289.739 242.671 293.341C239.608 296.943 240.043 302.347 243.642 305.412C247.241 308.477 252.641 308.042 255.704 304.44Z" fill="white"/>
<path d="M255.006 301.535C253.54 304.753 249.752 306.176 246.527 304.719C243.311 303.253 241.889 299.461 243.346 296.234C244.811 293.015 248.599 291.592 251.824 293.05C255.049 294.525 256.471 298.316 255.006 301.535Z" fill="#007CFF"/>
<path d="M216.854 350.691C216.819 351.49 219.359 352.253 222.515 352.383C225.679 352.513 228.271 351.975 228.305 351.177C228.34 350.379 225.8 349.616 222.645 349.485C219.481 349.347 216.889 349.885 216.854 350.691Z" fill="#007CFF"/>
<path d="M216.921 349.242L216.86 350.689L228.31 351.176L228.371 349.728L216.921 349.242Z" fill="#007CFF"/>
<path d="M216.915 349.234C216.88 350.032 219.42 350.795 222.575 350.926C225.74 351.056 228.332 350.518 228.366 349.72C228.401 348.922 225.861 348.158 222.705 348.028C219.541 347.889 216.949 348.436 216.915 349.234Z" fill="#007CFF"/>
<path opacity="0.4" d="M216.915 349.234C216.88 350.032 219.42 350.795 222.575 350.926C225.74 351.056 228.332 350.518 228.366 349.72C228.401 348.922 225.861 348.158 222.705 348.028C219.541 347.889 216.949 348.436 216.915 349.234Z" fill="white"/>
<path d="M217.651 349.208C217.651 349.251 217.669 349.312 217.703 349.347C218.085 348.878 220.183 348.601 222.679 348.705C225.185 348.809 227.248 349.269 227.586 349.763C227.621 349.728 227.647 349.668 227.647 349.624C227.673 349.078 225.453 348.54 222.688 348.418C219.931 348.314 217.669 348.67 217.651 349.208Z" fill="#007CFF"/>
<path opacity="0.4" d="M217.651 349.208C217.651 349.251 217.669 349.312 217.703 349.347C218.085 348.878 220.183 348.601 222.679 348.705C225.185 348.809 227.248 349.269 227.586 349.763C227.621 349.728 227.647 349.668 227.647 349.624C227.673 349.078 225.453 348.54 222.688 348.418C219.931 348.314 217.669 348.67 217.651 349.208Z" fill="#007CFF"/>
<path opacity="0.4" d="M217.695 349.355C218.033 349.859 220.096 350.31 222.601 350.414C225.107 350.518 227.205 350.24 227.577 349.772C227.239 349.269 225.176 348.817 222.671 348.713C220.174 348.609 218.076 348.878 217.695 349.355Z" fill="#007CFF"/>
<path d="M215.649 348.488C215.614 349.286 218.154 350.049 221.31 350.179C224.474 350.31 227.066 349.772 227.1 348.974C227.135 348.175 224.595 347.412 221.44 347.282C218.275 347.143 215.683 347.69 215.649 348.488Z" fill="#007CFF"/>
<path d="M215.715 347.048L215.653 348.495L227.103 348.983L227.165 347.535L215.715 347.048Z" fill="#007CFF"/>
<path d="M215.718 347.039C215.683 347.837 218.223 348.601 221.379 348.731C224.543 348.861 227.135 348.323 227.17 347.525C227.204 346.727 224.664 345.963 221.509 345.833C218.336 345.694 215.753 346.232 215.718 347.039Z" fill="#007CFF"/>
<path opacity="0.4" d="M215.718 347.039C215.683 347.837 218.223 348.601 221.379 348.731C224.543 348.861 227.135 348.323 227.17 347.525C227.204 346.727 224.664 345.963 221.509 345.833C218.336 345.694 215.753 346.232 215.718 347.039Z" fill="white"/>
<path d="M216.446 347.013C216.446 347.056 216.464 347.117 216.498 347.152C216.88 346.683 218.978 346.406 221.474 346.51C223.98 346.614 226.043 347.074 226.381 347.568C226.416 347.533 226.442 347.473 226.442 347.429C226.468 346.883 224.248 346.345 221.483 346.223C218.726 346.119 216.472 346.466 216.446 347.013Z" fill="#007CFF"/>
<path opacity="0.4" d="M216.446 347.013C216.446 347.056 216.464 347.117 216.498 347.152C216.88 346.683 218.978 346.406 221.474 346.51C223.98 346.614 226.043 347.074 226.381 347.568C226.416 347.533 226.442 347.473 226.442 347.429C226.468 346.883 224.248 346.345 221.483 346.223C218.726 346.119 216.472 346.466 216.446 347.013Z" fill="#007CFF"/>
<path opacity="0.4" d="M216.49 347.152C216.828 347.655 218.891 348.106 221.396 348.21C223.902 348.314 226 348.037 226.372 347.568C226.034 347.065 223.971 346.614 221.466 346.51C218.969 346.406 216.88 346.683 216.49 347.152Z" fill="#007CFF"/>
<path d="M215.805 345.842C215.77 346.64 218.31 347.403 221.466 347.533C224.63 347.664 227.222 347.126 227.257 346.327C227.291 345.529 224.751 344.766 221.596 344.636C218.432 344.497 215.84 345.043 215.805 345.842Z" fill="#007CFF"/>
<path d="M215.873 344.399L215.811 345.847L227.261 346.334L227.323 344.886L215.873 344.399Z" fill="#007CFF"/>
<path d="M215.874 344.393C215.84 345.191 218.38 345.954 221.535 346.085C224.699 346.215 227.291 345.677 227.326 344.879C227.361 344.081 224.821 343.317 221.665 343.187C218.492 343.048 215.909 343.586 215.874 344.393Z" fill="#007CFF"/>
<path opacity="0.4" d="M215.874 344.393C215.84 345.191 218.38 345.954 221.535 346.085C224.699 346.215 227.291 345.677 227.326 344.879C227.361 344.081 224.821 343.317 221.665 343.187C218.492 343.048 215.909 343.586 215.874 344.393Z" fill="white"/>
<path d="M216.603 344.367C216.603 344.41 216.62 344.471 216.655 344.506C217.036 344.037 219.134 343.759 221.631 343.864C224.136 343.968 226.199 344.428 226.537 344.922C226.572 344.887 226.598 344.827 226.598 344.783C226.624 344.237 224.405 343.699 221.639 343.577C218.882 343.465 216.629 343.82 216.603 344.367Z" fill="#007CFF"/>
<path opacity="0.4" d="M216.603 344.367C216.603 344.41 216.62 344.471 216.655 344.506C217.036 344.037 219.134 343.759 221.631 343.864C224.136 343.968 226.199 344.428 226.537 344.922C226.572 344.887 226.598 344.827 226.598 344.783C226.624 344.237 224.405 343.699 221.639 343.577C218.882 343.465 216.629 343.82 216.603 344.367Z" fill="#007CFF"/>
<path opacity="0.4" d="M216.646 344.506C216.984 345.009 219.047 345.46 221.553 345.564C224.058 345.668 226.156 345.391 226.529 344.922C226.19 344.419 224.127 343.968 221.622 343.864C219.125 343.759 217.036 344.037 216.646 344.506Z" fill="#007CFF"/>
<path d="M214.609 343.647C214.574 344.445 217.114 345.208 220.27 345.338C223.434 345.469 226.026 344.931 226.06 344.133C226.095 343.334 223.555 342.571 220.4 342.441C217.235 342.302 214.643 342.84 214.609 343.647Z" fill="#007CFF"/>
<path d="M214.667 342.192L214.606 343.639L226.056 344.125L226.117 342.678L214.667 342.192Z" fill="#007CFF"/>
<path d="M214.67 342.189C214.635 342.987 217.175 343.751 220.33 343.881C223.494 344.011 226.087 343.473 226.121 342.675C226.156 341.877 223.616 341.113 220.46 340.983C217.296 340.844 214.704 341.391 214.67 342.189Z" fill="#007CFF"/>
<path opacity="0.4" d="M214.67 342.189C214.635 342.987 217.175 343.751 220.33 343.881C223.494 344.011 226.087 343.473 226.121 342.675C226.156 341.877 223.616 341.113 220.46 340.983C217.296 340.844 214.704 341.391 214.67 342.189Z" fill="white"/>
<path d="M215.397 342.163C215.397 342.207 215.415 342.267 215.449 342.302C215.831 341.834 217.929 341.556 220.425 341.66C222.931 341.764 224.994 342.224 225.332 342.718C225.367 342.684 225.393 342.623 225.393 342.58C225.419 342.033 223.199 341.495 220.434 341.374C217.686 341.27 215.423 341.625 215.397 342.163Z" fill="#007CFF"/>
<path opacity="0.4" d="M215.397 342.163C215.397 342.207 215.415 342.267 215.449 342.302C215.831 341.834 217.929 341.556 220.425 341.66C222.931 341.764 224.994 342.224 225.332 342.718C225.367 342.684 225.393 342.623 225.393 342.58C225.419 342.033 223.199 341.495 220.434 341.374C217.686 341.27 215.423 341.625 215.397 342.163Z" fill="#007CFF"/>
<path opacity="0.4" d="M215.449 342.311C215.788 342.814 217.851 343.265 220.356 343.369C222.861 343.473 224.959 343.196 225.332 342.727C224.994 342.224 222.931 341.773 220.425 341.669C217.92 341.565 215.831 341.833 215.449 342.311Z" fill="#007CFF"/>
<path d="M216.446 341.781C216.412 342.58 218.952 343.343 222.107 343.473C225.271 343.603 227.863 343.065 227.898 342.267C227.933 341.469 225.393 340.706 222.237 340.575C219.064 340.437 216.481 340.975 216.446 341.781Z" fill="#007CFF"/>
<path d="M216.508 340.339L216.446 341.787L227.896 342.274L227.958 340.827L216.508 340.339Z" fill="#007CFF"/>
<path d="M216.507 340.324C216.473 341.122 219.013 341.886 222.168 342.016C225.332 342.146 227.924 341.608 227.959 340.81C227.994 340.012 225.454 339.248 222.298 339.118C219.134 338.988 216.542 339.526 216.507 340.324Z" fill="#007CFF"/>
<path opacity="0.4" d="M216.507 340.324C216.473 341.122 219.013 341.886 222.168 342.016C225.332 342.146 227.924 341.608 227.959 340.81C227.994 340.012 225.454 339.248 222.298 339.118C219.134 338.988 216.542 339.526 216.507 340.324Z" fill="white"/>
<path d="M217.235 340.307C217.235 340.35 217.253 340.411 217.287 340.445C217.669 339.977 219.767 339.699 222.263 339.803C224.769 339.907 226.832 340.367 227.17 340.862C227.205 340.827 227.231 340.766 227.231 340.723C227.257 340.176 225.037 339.639 222.272 339.517C219.524 339.404 217.261 339.76 217.235 340.307Z" fill="#007CFF"/>
<path opacity="0.4" d="M217.235 340.307C217.235 340.35 217.253 340.411 217.287 340.445C217.669 339.977 219.767 339.699 222.263 339.803C224.769 339.907 226.832 340.367 227.17 340.862C227.205 340.827 227.231 340.766 227.231 340.723C227.257 340.176 225.037 339.639 222.272 339.517C219.524 339.404 217.261 339.76 217.235 340.307Z" fill="#007CFF"/>
<path opacity="0.4" d="M217.287 340.445C217.625 340.949 219.689 341.4 222.194 341.504C224.699 341.608 226.797 341.33 227.17 340.862C226.832 340.359 224.769 339.907 222.263 339.803C219.758 339.699 217.669 339.977 217.287 340.445Z" fill="#007CFF"/>
<path d="M208.367 350.561C208.558 351.342 211.211 351.351 214.279 350.579C217.348 349.806 219.68 348.557 219.489 347.776C219.299 346.996 216.646 346.987 213.577 347.759C210.508 348.522 208.176 349.78 208.367 350.561Z" fill="#007CFF"/>
<path d="M219.125 346.354L208.008 349.14L208.36 350.545L219.476 347.76L219.125 346.354Z" fill="#007CFF"/>
<path d="M208.02 349.147C208.211 349.928 210.864 349.937 213.933 349.164C217.001 348.392 219.333 347.143 219.143 346.362C218.952 345.581 216.299 345.573 213.23 346.345C210.153 347.117 207.821 348.375 208.02 349.147Z" fill="#007CFF"/>
<path opacity="0.4" d="M208.02 349.147C208.211 349.928 210.864 349.937 213.933 349.164C217.001 348.392 219.333 347.143 219.143 346.362C218.952 345.581 216.299 345.573 213.23 346.345C210.153 347.117 207.821 348.375 208.02 349.147Z" fill="white"/>
<path d="M208.714 348.922C208.723 348.965 208.757 349.017 208.801 349.043C209.035 348.479 210.959 347.62 213.395 347.013C215.831 346.406 217.938 346.249 218.397 346.64C218.423 346.596 218.423 346.536 218.414 346.492C218.284 345.963 216.004 346.076 213.317 346.744C210.647 347.412 208.575 348.392 208.714 348.922Z" fill="#007CFF"/>
<path opacity="0.4" d="M208.714 348.922C208.723 348.965 208.757 349.017 208.801 349.043C209.035 348.479 210.959 347.62 213.395 347.013C215.831 346.406 217.938 346.249 218.397 346.64C218.423 346.596 218.423 346.536 218.414 346.492C218.284 345.963 216.004 346.076 213.317 346.744C210.647 347.412 208.575 348.392 208.714 348.922Z" fill="#007CFF"/>
<path opacity="0.4" d="M208.801 349.043C209.269 349.425 211.375 349.277 213.802 348.67C216.238 348.063 218.172 347.195 218.397 346.64C217.938 346.249 215.831 346.406 213.395 347.013C210.959 347.62 209.035 348.479 208.801 349.043Z" fill="#007CFF"/>
<path d="M203.062 350.691C203.027 351.49 205.567 352.253 208.722 352.383C211.887 352.513 214.479 351.975 214.513 351.177C214.548 350.379 212.008 349.616 208.852 349.485C205.688 349.347 203.096 349.885 203.062 350.691Z" fill="#007CFF"/>
<path d="M203.127 349.24L203.065 350.696L214.515 351.184L214.577 349.728L203.127 349.24Z" fill="#007CFF"/>
<path d="M203.122 349.234C203.088 350.032 205.628 350.795 208.783 350.926C211.947 351.056 214.539 350.518 214.574 349.72C214.609 348.922 212.069 348.158 208.913 348.028C205.749 347.889 203.157 348.436 203.122 349.234Z" fill="#007CFF"/>
<path opacity="0.4" d="M203.122 349.234C203.088 350.032 205.628 350.795 208.783 350.926C211.947 351.056 214.539 350.518 214.574 349.72C214.609 348.922 212.069 348.158 208.913 348.028C205.749 347.889 203.157 348.436 203.122 349.234Z" fill="white"/>
<path d="M203.851 349.208C203.851 349.251 203.868 349.312 203.903 349.347C204.284 348.878 206.382 348.601 208.879 348.705C211.384 348.809 213.447 349.269 213.785 349.763C213.82 349.728 213.846 349.668 213.846 349.624C213.872 349.078 211.653 348.54 208.887 348.418C206.139 348.314 203.877 348.67 203.851 349.208Z" fill="#007CFF"/>
<path opacity="0.4" d="M203.851 349.208C203.851 349.251 203.868 349.312 203.903 349.347C204.284 348.878 206.382 348.601 208.879 348.705C211.384 348.809 213.447 349.269 213.785 349.763C213.82 349.728 213.846 349.668 213.846 349.624C213.872 349.078 211.653 348.54 208.887 348.418C206.139 348.314 203.877 348.67 203.851 349.208Z" fill="#007CFF"/>
<path opacity="0.4" d="M203.903 349.355C204.241 349.859 206.304 350.31 208.809 350.414C211.315 350.518 213.412 350.24 213.785 349.772C213.447 349.269 211.384 348.817 208.879 348.713C206.373 348.609 204.284 348.878 203.903 349.355Z" fill="#007CFF"/>
<path d="M262.21 350.622C262.175 351.446 264.784 352.227 268.035 352.366C271.286 352.505 273.947 351.949 273.991 351.125C274.025 350.301 271.416 349.52 268.165 349.381C264.914 349.243 262.244 349.798 262.21 350.622Z" fill="#007CFF"/>
<path d="M262.279 349.136L262.216 350.627L273.995 351.129L274.058 349.638L262.279 349.136Z" fill="#007CFF"/>
<path d="M262.27 349.13C262.236 349.954 264.845 350.735 268.096 350.874C271.347 351.012 274.008 350.457 274.051 349.633C274.086 348.809 271.477 348.028 268.226 347.889C264.975 347.75 262.305 348.306 262.27 349.13Z" fill="#007CFF"/>
<path opacity="0.4" d="M262.27 349.13C262.236 349.954 264.845 350.735 268.096 350.874C271.347 351.012 274.008 350.457 274.051 349.633C274.086 348.809 271.477 348.028 268.226 347.889C264.975 347.75 262.305 348.306 262.27 349.13Z" fill="white"/>
<path d="M263.024 349.104C263.024 349.156 263.042 349.208 263.076 349.251C263.467 348.765 265.625 348.479 268.2 348.592C270.783 348.705 272.898 349.164 273.245 349.685C273.28 349.65 273.306 349.59 273.306 349.546C273.332 348.991 271.052 348.427 268.208 348.306C265.374 348.184 263.05 348.548 263.024 349.104Z" fill="#007CFF"/>
<path opacity="0.4" d="M263.024 349.104C263.024 349.156 263.042 349.208 263.076 349.251C263.467 348.765 265.625 348.479 268.2 348.592C270.783 348.705 272.898 349.164 273.245 349.685C273.28 349.65 273.306 349.59 273.306 349.546C273.332 348.991 271.052 348.427 268.208 348.306C265.374 348.184 263.05 348.548 263.024 349.104Z" fill="#007CFF"/>
<path opacity="0.4" d="M263.076 349.251C263.432 349.772 265.547 350.232 268.122 350.344C270.705 350.457 272.855 350.171 273.245 349.685C272.898 349.173 270.783 348.705 268.2 348.592C265.625 348.479 263.467 348.765 263.076 349.251Z" fill="#007CFF"/>
<path d="M260.97 348.358C260.935 349.182 263.544 349.963 266.795 350.101C270.046 350.24 272.708 349.685 272.751 348.861C272.786 348.037 270.176 347.256 266.925 347.117C263.675 346.978 261.004 347.533 260.97 348.358Z" fill="#007CFF"/>
<path d="M261.03 346.866L260.966 348.357L272.745 348.857L272.809 347.366L261.03 346.866Z" fill="#007CFF"/>
<path d="M261.039 346.865C261.004 347.69 263.614 348.47 266.865 348.609C270.116 348.748 272.777 348.193 272.812 347.369C272.846 346.544 270.237 345.764 266.986 345.625C263.735 345.486 261.074 346.041 261.039 346.865Z" fill="#007CFF"/>
<path opacity="0.4" d="M261.039 346.865C261.004 347.69 263.614 348.47 266.865 348.609C270.116 348.748 272.777 348.193 272.812 347.369C272.846 346.544 270.237 345.764 266.986 345.625C263.735 345.486 261.074 346.041 261.039 346.865Z" fill="white"/>
<path d="M261.785 346.839C261.785 346.891 261.802 346.943 261.837 346.987C262.227 346.501 264.385 346.215 266.96 346.328C269.543 346.44 271.659 346.9 272.005 347.421C272.04 347.386 272.066 347.325 272.066 347.282C272.092 346.727 269.812 346.163 266.969 346.041C264.134 345.92 261.811 346.284 261.785 346.839Z" fill="#007CFF"/>
<path opacity="0.4" d="M261.785 346.839C261.785 346.891 261.802 346.943 261.837 346.987C262.227 346.501 264.385 346.215 266.96 346.328C269.543 346.44 271.659 346.9 272.005 347.421C272.04 347.386 272.066 347.325 272.066 347.282C272.092 346.727 269.812 346.163 266.969 346.041C264.134 345.92 261.811 346.284 261.785 346.839Z" fill="#007CFF"/>
<path opacity="0.4" d="M261.837 346.987C262.192 347.507 264.307 347.967 266.882 348.08C269.465 348.193 271.615 347.906 272.005 347.421C271.659 346.909 269.543 346.44 266.96 346.327C264.385 346.223 262.235 346.501 261.837 346.987Z" fill="#007CFF"/>
<path d="M263.622 346.692C263.588 347.516 266.197 348.297 269.448 348.436C272.699 348.575 275.36 348.019 275.403 347.195C275.438 346.371 272.829 345.59 269.578 345.451C266.327 345.304 263.657 345.868 263.622 346.692Z" fill="#007CFF"/>
<path d="M263.698 345.205L263.634 346.696L275.413 347.197L275.477 345.706L263.698 345.205Z" fill="#007CFF"/>
<path d="M263.692 345.191C263.657 346.015 266.266 346.796 269.517 346.935C272.768 347.074 275.429 346.518 275.473 345.694C275.507 344.87 272.898 344.089 269.647 343.95C266.388 343.812 263.726 344.367 263.692 345.191Z" fill="#007CFF"/>
<path opacity="0.4" d="M263.692 345.191C263.657 346.015 266.266 346.796 269.517 346.935C272.768 347.074 275.429 346.518 275.473 345.694C275.507 344.87 272.898 344.089 269.647 343.95C266.388 343.812 263.726 344.367 263.692 345.191Z" fill="white"/>
<path d="M264.437 345.174C264.437 345.226 264.455 345.278 264.489 345.321C264.879 344.835 267.038 344.549 269.613 344.662C272.196 344.775 274.311 345.234 274.658 345.755C274.693 345.72 274.719 345.659 274.719 345.616C274.745 345.061 272.465 344.497 269.621 344.375C266.787 344.245 264.463 344.61 264.437 345.174Z" fill="#007CFF"/>
<path opacity="0.4" d="M264.437 345.174C264.437 345.226 264.455 345.278 264.489 345.321C264.879 344.835 267.038 344.549 269.613 344.662C272.196 344.775 274.311 345.234 274.658 345.755C274.693 345.72 274.719 345.659 274.719 345.616C274.745 345.061 272.465 344.497 269.621 344.375C266.787 344.245 264.463 344.61 264.437 345.174Z" fill="#007CFF"/>
<path opacity="0.4" d="M264.489 345.312C264.845 345.833 266.96 346.293 269.535 346.406C272.118 346.518 274.268 346.232 274.658 345.746C274.311 345.234 272.196 344.766 269.613 344.653C267.038 344.549 264.888 344.835 264.489 345.312Z" fill="#007CFF"/>
<path d="M263.657 344.428C263.623 345.252 266.232 346.033 269.483 346.171C272.734 346.31 275.395 345.755 275.438 344.931C275.473 344.107 272.864 343.326 269.613 343.187C266.353 343.048 263.692 343.603 263.657 344.428Z" fill="#007CFF"/>
<path d="M263.718 342.931L263.655 344.421L275.434 344.922L275.497 343.431L263.718 342.931Z" fill="#007CFF"/>
<path d="M263.718 342.935C263.683 343.759 266.293 344.54 269.544 344.679C272.794 344.818 275.456 344.263 275.499 343.438C275.534 342.614 272.924 341.833 269.674 341.695C266.423 341.556 263.753 342.111 263.718 342.935Z" fill="#007CFF"/>
<path opacity="0.4" d="M263.718 342.935C263.683 343.759 266.293 344.54 269.544 344.679C272.794 344.818 275.456 344.263 275.499 343.438C275.534 342.614 272.924 341.833 269.674 341.695C266.423 341.556 263.753 342.111 263.718 342.935Z" fill="white"/>
<path d="M264.472 342.909C264.472 342.961 264.49 343.013 264.524 343.057C264.914 342.571 267.073 342.285 269.648 342.397C272.231 342.51 274.346 342.97 274.693 343.491C274.727 343.456 274.753 343.395 274.753 343.352C274.78 342.796 272.5 342.233 269.656 342.111C266.821 341.99 264.498 342.354 264.472 342.909Z" fill="#007CFF"/>
<path opacity="0.4" d="M264.472 342.909C264.472 342.961 264.49 343.013 264.524 343.057C264.914 342.571 267.073 342.285 269.648 342.397C272.231 342.51 274.346 342.97 274.693 343.491C274.727 343.456 274.753 343.395 274.753 343.352C274.78 342.796 272.5 342.233 269.656 342.111C266.821 341.99 264.498 342.354 264.472 342.909Z" fill="#007CFF"/>
<path opacity="0.4" d="M264.524 343.057C264.88 343.577 266.995 344.037 269.569 344.15C272.153 344.263 274.303 343.976 274.693 343.491C274.346 342.979 272.231 342.51 269.648 342.397C267.073 342.285 264.914 342.571 264.524 343.057Z" fill="#007CFF"/>
<path d="M261.239 342.58C261.204 343.404 263.813 344.185 267.064 344.323C270.315 344.462 272.976 343.907 273.02 343.083C273.054 342.259 270.445 341.478 267.194 341.339C263.935 341.2 261.273 341.755 261.239 342.58Z" fill="#007CFF"/>
<path d="M261.3 341.085L261.237 342.575L273.016 343.077L273.079 341.586L261.3 341.085Z" fill="#007CFF"/>
<path d="M261.299 341.087C261.265 341.912 263.874 342.692 267.125 342.831C270.376 342.97 273.037 342.415 273.08 341.591C273.115 340.766 270.506 339.986 267.255 339.847C264.004 339.708 261.334 340.263 261.299 341.087Z" fill="#007CFF"/>
<path opacity="0.4" d="M261.299 341.087C261.265 341.912 263.874 342.692 267.125 342.831C270.376 342.97 273.037 342.415 273.08 341.591C273.115 340.766 270.506 339.986 267.255 339.847C264.004 339.708 261.334 340.263 261.299 341.087Z" fill="white"/>
<path d="M262.053 341.061C262.053 341.113 262.071 341.165 262.105 341.209C262.496 340.723 264.654 340.437 267.229 340.549C269.812 340.662 271.927 341.122 272.274 341.643C272.309 341.608 272.335 341.547 272.335 341.504C272.361 340.949 270.081 340.385 267.237 340.263C264.403 340.142 262.079 340.506 262.053 341.061Z" fill="#007CFF"/>
<path opacity="0.4" d="M262.053 341.061C262.053 341.113 262.071 341.165 262.105 341.209C262.496 340.723 264.654 340.437 267.229 340.549C269.812 340.662 271.927 341.122 272.274 341.643C272.309 341.608 272.335 341.547 272.335 341.504C272.361 340.949 270.081 340.385 267.237 340.263C264.403 340.142 262.079 340.506 262.053 341.061Z" fill="#007CFF"/>
<path opacity="0.4" d="M262.105 341.209C262.461 341.729 264.576 342.189 267.151 342.302C269.734 342.415 271.884 342.128 272.274 341.643C271.927 341.131 269.812 340.662 267.229 340.549C264.645 340.437 262.496 340.723 262.105 341.209Z" fill="#007CFF"/>
<path d="M276.444 347.082C276.106 347.811 278.152 349.485 281.012 350.839C283.873 352.184 286.474 352.687 286.82 351.967C287.159 351.238 285.113 349.564 282.252 348.21C279.383 346.857 276.782 346.354 276.444 347.082Z" fill="#007CFF"/>
<path d="M277.055 345.755L276.439 347.066L286.812 351.943L287.427 350.632L277.055 345.755Z" fill="#007CFF"/>
<path d="M277.059 345.764C276.721 346.492 278.767 348.167 281.628 349.52C284.488 350.865 287.089 351.368 287.436 350.648C287.774 349.919 285.728 348.245 282.867 346.891C279.998 345.538 277.397 345.035 277.059 345.764Z" fill="#007CFF"/>
<path opacity="0.4" d="M277.059 345.764C276.721 346.492 278.767 348.167 281.628 349.52C284.488 350.865 287.089 351.368 287.436 350.648C287.774 349.919 285.728 348.245 282.867 346.891C279.998 345.538 277.397 345.035 277.059 345.764Z" fill="white"/>
<path d="M277.744 346.024C277.727 346.067 277.718 346.128 277.736 346.171C278.273 345.885 280.31 346.44 282.573 347.507C284.844 348.575 286.569 349.789 286.691 350.388C286.734 350.37 286.777 350.327 286.803 350.284C287.037 349.789 285.199 348.436 282.694 347.256C280.197 346.085 277.97 345.529 277.744 346.024Z" fill="#007CFF"/>
<path opacity="0.4" d="M277.744 346.024C277.727 346.067 277.718 346.128 277.736 346.171C278.273 345.885 280.31 346.44 282.573 347.507C284.844 348.575 286.569 349.789 286.691 350.388C286.734 350.37 286.777 350.327 286.803 350.284C287.037 349.789 285.199 348.436 282.694 347.256C280.197 346.085 277.97 345.529 277.744 346.024Z" fill="#007CFF"/>
<path opacity="0.4" d="M277.727 346.171C277.848 346.77 279.573 347.985 281.845 349.052C284.116 350.119 286.153 350.674 286.682 350.388C286.569 349.798 284.835 348.583 282.564 347.507C280.301 346.44 278.264 345.885 277.727 346.171Z" fill="#007CFF"/>
<path d="M270.419 349.659C270.384 350.457 272.924 351.221 276.08 351.351C279.244 351.481 281.836 350.943 281.871 350.145C281.905 349.347 279.365 348.583 276.21 348.453C273.046 348.314 270.454 348.852 270.419 349.659Z" fill="#007CFF"/>
<path d="M270.491 348.212L270.429 349.659L281.879 350.147L281.941 348.699L270.491 348.212Z" fill="#007CFF"/>
<path d="M270.48 348.201C270.445 349 272.985 349.763 276.141 349.893C279.305 350.023 281.897 349.485 281.931 348.687C281.966 347.889 279.426 347.126 276.271 346.996C273.107 346.857 270.515 347.403 270.48 348.201Z" fill="#007CFF"/>
<path opacity="0.4" d="M270.48 348.201C270.445 349 272.985 349.763 276.141 349.893C279.305 350.023 281.897 349.485 281.931 348.687C281.966 347.889 279.426 347.126 276.271 346.996C273.107 346.857 270.515 347.403 270.48 348.201Z" fill="white"/>
<path d="M271.217 348.175C271.217 348.219 271.234 348.28 271.269 348.314C271.65 347.846 273.748 347.568 276.245 347.672C278.75 347.776 280.813 348.236 281.151 348.731C281.186 348.696 281.212 348.635 281.212 348.592C281.238 348.045 279.019 347.507 276.253 347.386C273.496 347.282 271.234 347.638 271.217 348.175Z" fill="#007CFF"/>
<path opacity="0.4" d="M271.217 348.175C271.217 348.219 271.234 348.28 271.269 348.314C271.65 347.846 273.748 347.568 276.245 347.672C278.75 347.776 280.813 348.236 281.151 348.731C281.186 348.696 281.212 348.635 281.212 348.592C281.238 348.045 279.019 347.507 276.253 347.386C273.496 347.282 271.234 347.638 271.217 348.175Z" fill="#007CFF"/>
<path opacity="0.4" d="M271.26 348.323C271.598 348.826 273.661 349.277 276.167 349.381C278.672 349.485 280.77 349.208 281.143 348.739C280.804 348.236 278.741 347.785 276.236 347.681C273.739 347.577 271.641 347.846 271.26 348.323Z" fill="#007CFF"/>
<path d="M252.041 299.314C252.37 300.711 251.451 301.717 249.709 301.96L249.744 303.131L248.677 303.192L248.643 302.021C247.611 301.986 246.649 301.717 246.007 301.353L246.415 300.008C247.074 300.39 247.845 300.607 248.599 300.641L248.547 298.845C247.49 298.611 246.319 298.281 246.016 297.006C245.687 295.609 246.623 294.594 248.4 294.36L248.365 293.189L249.432 293.128L249.475 294.308C250.246 294.334 250.983 294.507 251.573 294.794L251.235 296.139C250.706 295.861 250.108 295.713 249.527 295.679L249.588 297.553C250.619 297.787 251.755 298.108 252.041 299.314ZM248.495 297.327L248.452 295.791C247.871 295.939 247.611 296.286 247.698 296.685C247.767 297.015 248.079 297.188 248.495 297.327ZM250.385 299.687C250.316 299.383 250.021 299.21 249.622 299.088L249.674 300.546C250.22 300.398 250.48 300.086 250.385 299.687Z" fill="white"/>
<path d="M212.33 202.215V205.989C214.757 206.18 216.977 207.152 218.728 208.644L221.389 205.981C218.953 203.812 215.798 202.424 212.33 202.215Z" fill="#007CFF"/>
<path d="M210.51 228.485C205.005 228.043 200.618 223.653 200.176 218.144H196.405C196.856 225.727 202.924 231.8 210.501 232.251V228.485H210.51Z" fill="#007CFF"/>
<path d="M200.185 216.331C200.627 210.822 205.014 206.432 210.518 205.989V202.215C202.933 202.675 196.865 208.739 196.414 216.331H200.185Z" fill="#007CFF"/>
<path opacity="0.2" d="M200.185 216.331C200.627 210.822 205.014 206.432 210.518 205.989V202.215C202.933 202.675 196.865 208.739 196.414 216.331H200.185Z" fill="black"/>
<path d="M222.681 207.265L220.019 209.928C221.692 211.897 222.707 214.448 222.707 217.242C222.707 223.167 218.138 228.026 212.339 228.494V232.268C220.219 231.8 226.469 225.249 226.469 217.25C226.46 213.407 225.03 209.919 222.681 207.265Z" fill="#007CFF"/>
<path d="M212.33 202.215V205.989C214.757 206.18 216.977 207.152 218.728 208.644L221.389 205.981C218.953 203.812 215.798 202.424 212.33 202.215Z" fill="white"/>
<path d="M210.51 228.485C205.005 228.043 200.618 223.653 200.176 218.144H196.405C196.856 225.727 202.924 231.8 210.501 232.251V228.485H210.51Z" fill="white"/>
<path d="M200.185 216.331C200.627 210.822 205.014 206.432 210.518 205.989V202.215C202.933 202.675 196.865 208.739 196.414 216.331H200.185Z" fill="white"/>
<path opacity="0.5" d="M222.681 207.265L220.019 209.928C221.692 211.897 222.707 214.448 222.707 217.242C222.707 223.167 218.138 228.026 212.339 228.494V232.268C220.219 231.8 226.469 225.249 226.469 217.25C226.46 213.407 225.03 209.919 222.681 207.265Z" fill="white"/>
<path d="M238.77 198.242L243.547 204.723L271.053 193.288L297.866 202.84L322.165 187.111L323.907 189.427L329.672 179.971L316.738 178.956L318.723 181.576L294.407 197.149L267.993 187.779L238.77 198.242Z" fill="#007CFF"/>
<path d="M238.77 198.242L243.547 204.723L271.053 193.288L297.866 202.84L322.165 187.111L323.907 189.427L329.672 179.971L316.738 178.956L318.723 181.576L294.407 197.149L267.993 187.779L238.77 198.242Z" fill="white"/>
<path d="M351.535 202.276C348.189 202.276 345.484 204.992 345.484 208.332C345.484 211.672 348.198 214.387 351.535 214.387C354.873 214.387 357.586 211.672 357.586 208.332C357.586 204.983 354.873 202.276 351.535 202.276ZM351.535 211.36C349.862 211.36 348.51 210.006 348.51 208.332C348.51 206.657 349.871 205.304 351.535 205.304C353.208 205.304 354.561 206.666 354.561 208.332C354.552 210.006 353.2 211.36 351.535 211.36Z" fill="#007CFF"/>
<path d="M366.793 220.044C363.446 220.044 360.742 222.759 360.742 226.1C360.742 229.44 363.455 232.155 366.793 232.155C370.13 232.155 372.844 229.44 372.844 226.1C372.844 222.759 370.13 220.044 366.793 220.044ZM366.793 229.136C365.119 229.136 363.767 227.783 363.767 226.108C363.767 224.434 365.128 223.08 366.793 223.08C368.466 223.08 369.818 224.443 369.818 226.108C369.818 227.783 368.466 229.136 366.793 229.136Z" fill="#007CFF"/>
<path d="M353.807 232.164H349.784L363.767 202.276H367.79L353.807 232.164Z" fill="#007CFF"/>
<path d="M351.535 202.276C348.189 202.276 345.484 204.992 345.484 208.332C345.484 211.672 348.198 214.387 351.535 214.387C354.873 214.387 357.586 211.672 357.586 208.332C357.586 204.983 354.873 202.276 351.535 202.276ZM351.535 211.36C349.862 211.36 348.51 210.006 348.51 208.332C348.51 206.657 349.871 205.304 351.535 205.304C353.208 205.304 354.561 206.666 354.561 208.332C354.552 210.006 353.2 211.36 351.535 211.36Z" fill="white"/>
<path d="M366.793 220.044C363.446 220.044 360.742 222.759 360.742 226.1C360.742 229.44 363.455 232.155 366.793 232.155C370.13 232.155 372.844 229.44 372.844 226.1C372.844 222.759 370.13 220.044 366.793 220.044ZM366.793 229.136C365.119 229.136 363.767 227.783 363.767 226.108C363.767 224.434 365.128 223.08 366.793 223.08C368.466 223.08 369.818 224.443 369.818 226.108C369.818 227.783 368.466 229.136 366.793 229.136Z" fill="white"/>
<path d="M353.807 232.164H349.784L363.767 202.276H367.79L353.807 232.164Z" fill="white"/>
<path d="M408.135 145.78H342.797V188.863H408.135V145.78Z" fill="white"/>
<path d="M408.326 189.045H342.615V145.589H408.326V189.045ZM342.988 188.664H407.944V145.962H342.988V188.664Z" fill="#92C9FF"/>
<path d="M349.689 178.452L353.911 170.532L362.614 178.721L368.422 161.821L379.241 173.707L386.367 170.8L399.292 153.9" fill="white"/>
<path d="M362.701 179.068L353.963 170.853L349.862 178.548L349.516 178.366L353.859 170.211L362.528 178.366L368.345 161.439L379.293 173.464L386.237 170.636L399.136 153.779L399.449 154.022L386.489 170.965L379.189 173.941L379.094 173.837L368.501 162.203L362.701 179.068Z" fill="#92C9FF"/>
<path d="M353.937 171.59C354.535 171.59 355.02 171.104 355.02 170.505C355.02 169.907 354.535 169.421 353.937 169.421C353.339 169.421 352.853 169.907 352.853 170.505C352.853 171.104 353.339 171.59 353.937 171.59Z" fill="#92C9FF"/>
<path d="M362.545 179.606C363.143 179.606 363.629 179.12 363.629 178.522C363.629 177.923 363.143 177.437 362.545 177.437C361.947 177.437 361.461 177.923 361.461 178.522C361.461 179.12 361.947 179.606 362.545 179.606Z" fill="#92C9FF"/>
<path d="M368.483 162.975C369.081 162.975 369.567 162.489 369.567 161.891C369.567 161.292 369.081 160.806 368.483 160.806C367.885 160.806 367.4 161.292 367.4 161.891C367.4 162.489 367.885 162.975 368.483 162.975Z" fill="#92C9FF"/>
<path d="M389.323 152.642H361.617V153.041H389.323V152.642Z" fill="#92C9FF"/>
<path d="M354.511 303.051V368.353C354.511 372.161 351.399 375.276 347.593 375.276H280.522C279.941 375.276 279.377 375.206 278.831 375.068C277.67 374.781 276.621 374.2 275.762 373.419C275.147 372.855 274.635 372.187 274.245 371.45C274.228 371.407 274.202 371.372 274.185 371.328C273.786 370.522 273.534 369.628 273.465 368.682C273.456 368.518 273.448 368.361 273.448 368.197V303.467C273.448 299.806 275.338 296.414 278.424 294.444C278.424 294.444 278.424 294.444 278.432 294.436C280.998 292.787 282.706 289.907 282.706 286.628C282.706 285.656 282.559 284.719 282.281 283.834H345.686C345.408 284.719 345.261 285.656 345.261 286.628C345.261 289.768 346.83 292.553 349.223 294.227C349.379 294.34 349.543 294.444 349.708 294.548C352.673 296.362 354.511 299.572 354.511 303.051Z" fill="#92CEFF" fill-opacity="0.5"/>
<path d="M354.511 303.051V368.353C354.511 371.996 351.659 375.007 348.078 375.259C347.914 375.267 347.758 375.276 347.593 375.276H318.058C314.166 375.276 310.984 372.092 310.984 368.197V303.467C310.984 299.806 312.874 296.414 315.96 294.444C318.535 292.796 320.243 289.916 320.243 286.628C320.243 285.656 320.095 284.719 319.818 283.834H345.686C345.408 284.719 345.261 285.656 345.261 286.628C345.261 289.204 346.31 291.538 348.009 293.212C348.521 293.724 349.093 294.167 349.708 294.548C352.673 296.362 354.511 299.572 354.511 303.051Z" fill="#92CEFF" fill-opacity="0.5"/>
<path d="M317.447 296.598C327.838 295.85 335.655 286.813 334.907 276.414C334.159 266.015 325.129 258.191 314.738 258.94C304.347 259.688 296.53 268.725 297.278 279.125C298.026 289.524 307.056 297.347 317.447 296.598Z" fill="#007CFF"/>
<path d="M332.894 283.366C335.54 273.282 329.517 262.96 319.441 260.312C309.364 257.664 299.051 263.692 296.405 273.776C293.758 283.86 299.782 294.182 309.858 296.83C319.934 299.478 330.248 293.45 332.894 283.366Z" fill="#73B7EF"/>
<path d="M314.781 294.67C309.172 294.67 303.737 291.703 300.842 286.445C298.796 282.723 298.31 278.429 299.489 274.351C300.668 270.274 303.364 266.899 307.083 264.843C310.802 262.795 315.093 262.309 319.168 263.489C323.242 264.669 326.614 267.367 328.669 271.089C332.899 278.767 330.099 288.458 322.427 292.692C320 294.028 317.373 294.67 314.781 294.67Z" fill="#007CFF"/>
<path d="M322.921 278.281C324.95 281.153 323.788 284.259 320.078 286.419L321.239 289.039L318.89 290.15L317.729 287.53C315.362 288.397 312.926 288.684 311.149 288.432L310.837 285.014C312.675 285.265 314.634 285.057 316.359 284.441L314.582 280.416C311.972 280.849 309.008 281.188 307.161 278.576C305.133 275.705 306.329 272.556 310.135 270.404L308.973 267.784L311.322 266.673L312.501 269.311C314.278 268.669 316.107 268.382 317.694 268.487L318.153 271.844C316.697 271.697 315.223 271.913 313.862 272.382L315.726 276.564C318.301 276.13 321.17 275.8 322.921 278.281ZM313.065 277.023L311.548 273.597C310.377 274.473 310.1 275.497 310.655 276.321C311.132 276.989 311.99 277.102 313.065 277.023ZM319.514 280.65C319.072 280.025 318.257 279.895 317.234 279.999L318.691 283.253C319.792 282.411 320.095 281.465 319.514 280.65Z" fill="#73B7EF"/>
<path d="M333.428 267.619C332.639 267.064 330.845 265.832 330.758 266.109C330.689 266.309 330.784 266.639 331.001 266.986C329.917 266.578 328.816 266.318 326.215 266.812C325.695 266.916 325.227 267.211 324.932 267.654C324.664 268.07 324.568 268.582 325.236 268.998C326.562 269.823 326.181 269.328 328.018 270.534C329.865 271.74 332.119 272.044 333.471 271.202L335.283 270.898L335.508 267.923C335.508 267.914 334.477 267.793 333.428 267.619Z" fill="#FFB27D"/>
<path d="M380.847 242.633C380.847 242.633 376.582 247.7 371.146 245.583C371.146 245.583 369.976 242.754 369.959 240.672C369.959 240.412 369.95 240.169 369.95 239.926C369.924 237.575 369.846 236.256 369.846 236.256C369.846 236.256 369.846 236.256 369.855 236.256C370.106 236.152 378.159 232.838 378.151 233.116C378.012 239.466 380.847 242.633 380.847 242.633Z" fill="#FFB27D"/>
<path d="M377.345 234.625C376.564 236.065 373.903 238.885 369.959 239.917C369.933 237.566 369.855 236.248 369.855 236.248C369.855 236.248 369.855 236.248 369.863 236.248C370.071 236.196 377.57 234.2 377.345 234.625Z" fill="#ED975D"/>
<path d="M368.156 236.013C368.156 236.013 377.215 238.148 378.454 232.474C379.694 226.809 381.696 223.26 375.966 221.664C370.236 220.059 368.632 221.976 367.757 223.772C366.89 225.559 365.832 235.311 368.156 236.013Z" fill="#FFB27D"/>
<path d="M378.151 234.018C378.272 234.096 380.223 234.695 383.916 227.338C384.496 226.184 384.887 223.685 383.543 221.473C382.19 219.261 377.397 217.525 373.418 216.771C369.439 216.016 368.485 218.254 367.54 220.51C366.552 222.878 363.717 224.822 363.717 224.822C367.15 226.739 371.285 223.998 372.715 224.449C374.146 224.9 374.657 227.156 374.761 227.884C374.865 228.604 375.03 229.212 376.833 228.561C378.636 227.91 377.648 231.112 377.362 231.728C377.362 231.728 377.119 233.359 378.151 234.018Z" fill="#1B1B43"/>
<path d="M401.496 375.38H406.984C408.137 375.38 409.411 374.226 409.732 372.118C410.053 370.01 412.419 368.856 412.931 367.129C413.442 365.403 410.824 362.974 410.824 362.974L410.382 362.41L409.923 361.82L405.579 362.844C405.579 362.844 405.475 363.876 405.406 365.195C405.363 366.149 405.337 367.251 405.389 368.214C405.519 370.522 404.747 372.994 402.701 373.445C400.655 373.896 401.496 375.38 401.496 375.38Z" fill="#D4EAFF"/>
<path d="M363.292 375.38H377.839C377.978 375.354 378.082 375.319 378.151 375.293C379.122 374.807 378.818 371.086 378.697 369.932C378.671 369.715 378.662 369.593 378.662 369.593C378.662 369.593 373.548 365.498 372.846 368.63C372.82 368.726 372.794 368.821 372.768 368.917C371.883 371.849 367.913 373.185 365.616 373.549C363.865 373.853 363.414 374.877 363.292 375.38Z" fill="#D4EAFF"/>
<path d="M366.231 291.434C366.231 291.434 367.011 301.133 367.922 312.793C369.161 328.635 370.652 348.086 370.8 351.773C371.051 358.176 372.083 368.413 372.083 368.413C372.083 368.413 374.51 370.843 379.373 369.819C379.373 369.819 383.708 355.209 384.939 339.74C384.956 339.489 384.973 339.228 384.999 338.977C386.152 323.239 387.938 290.089 387.938 290.089L366.231 291.434Z" fill="#323B3D"/>
<path d="M366.231 291.434C366.231 291.434 367.011 301.133 367.922 312.793L384.939 339.74C384.956 339.489 384.973 339.228 384.999 338.977C386.152 323.239 387.938 290.089 387.938 290.089L366.231 291.434Z" fill="#222728"/>
<path d="M369.777 292.588C369.777 292.588 383.777 327.716 392.984 344.226C402.19 360.735 405.068 365.342 405.068 365.342C405.068 365.342 410.339 363.234 410.824 361.794C410.824 361.794 407.305 329.928 401.141 322.155C397.656 317.765 393.564 304.586 393.374 299.979C393.183 295.373 392.125 286.254 392.125 286.254L369.777 292.588Z" fill="#323B3D"/>
<path d="M401.704 286.202L401.852 288.458C401.852 288.458 400.361 292.475 404.53 294.531C404.53 294.531 406.316 295.251 406.386 293.863C406.455 292.475 406.23 292.995 406.377 291.035C406.524 289.074 405.753 287.226 404.461 286.601L403.395 285.378L401.704 286.202Z" fill="#FFB27D"/>
<path d="M403.334 287.851C401.782 288.345 401.54 288.233 401.54 288.233C401.54 288.233 393.998 274.49 393.235 273.232C392.472 271.974 377.223 257.824 377.223 257.824L381.142 243.197C381.142 243.197 398.488 265.676 400.361 268.903C403.455 274.23 405.267 286.61 405.267 286.61C405.267 286.61 404.556 287.46 403.334 287.851Z" fill="#2F74AD"/>
<path d="M363.275 263.559C363.327 266.561 363.5 269.935 363.743 273.371C363.761 273.571 363.769 273.779 363.787 273.978C363.934 276.104 364.099 278.229 364.289 280.312C364.367 281.144 364.445 281.969 364.523 282.775L364.532 282.888C364.541 283.192 364.575 283.522 364.61 283.817C365.373 291.599 366.179 297.741 366.327 297.837C366.5 297.958 366.708 298.01 366.925 297.993C368.962 297.732 375.047 298.201 380.023 297.116C384.228 296.231 387.843 294.548 391.674 292.284C392.186 291.98 393.339 291.182 393.252 290.592C393.157 289.942 392.992 288.987 392.767 287.799C392.013 283.66 390.704 276.546 390.261 268.218C390.175 266.665 390.045 265.138 389.889 263.628C389.464 259.707 388.779 255.976 387.86 252.662C386.152 246.511 383.647 241.8 380.5 239.961C380.093 239.727 377.874 241.141 375.845 242.442C373.973 243.648 371.996 243.978 370.072 243.813L368.381 245.687C366.335 248.073 364.151 251.239 363.561 255.751C363.518 256.08 363.474 256.436 363.448 256.818C363.266 258.631 363.223 260.956 363.275 263.559Z" fill="#3481CE"/>
<path d="M363.275 263.559C363.327 266.561 363.5 269.935 363.743 273.371C363.76 273.571 363.769 273.779 363.786 273.978C375.429 266.682 377.223 253.339 377.223 253.339C371.493 253.59 366.942 254.909 363.44 256.792C363.266 258.631 363.223 260.956 363.275 263.559Z" fill="#113A5B"/>
<path d="M333.853 269.311C333.731 267.584 334.624 267.298 334.624 267.298C334.624 267.298 352.179 264.114 353.67 263.646C355.161 263.177 367.921 249.895 367.921 249.895C367.921 249.895 372.811 244.377 376.816 245.591C380.292 246.65 381.653 249.365 382.121 251.959C382.676 255.048 381.254 258.145 378.584 259.785C372.594 263.463 360.605 270.708 357.779 271.532C351.494 273.38 334.598 271.679 334.598 271.679C334.598 271.679 333.948 270.664 333.853 269.311Z" fill="#3481CE"/>
<path d="M349.214 294.227C347.142 292.987 338.17 288.588 315.353 288.77C289.216 288.987 278.753 294.271 278.432 294.436C280.998 292.787 282.706 289.907 282.706 286.628C282.706 285.656 282.559 284.719 282.281 283.834H345.686C345.408 284.719 345.261 285.656 345.261 286.628C345.252 289.777 346.821 292.553 349.214 294.227Z" fill="#3481CE" fill-opacity="0.5"/>
<path d="M347.116 283.383V286.341C347.116 286.636 346.882 286.87 346.587 286.87H281.371C281.076 286.87 280.842 286.636 280.842 286.341V283.383C280.842 283.088 281.076 282.854 281.371 282.854H346.587C346.882 282.854 347.116 283.096 347.116 283.383Z" fill="#2B478B"/>
<path d="M347.116 283.383V286.341C347.116 286.636 346.882 286.87 346.587 286.87H321.898C321.603 286.87 321.369 286.636 321.369 286.341V283.383C321.369 283.088 321.612 282.854 321.898 282.854H346.587C346.882 282.854 347.116 283.096 347.116 283.383Z" fill="#233862"/>
<path d="M270.075 375.909C270.032 377.237 265.741 378.165 260.505 377.974C255.269 377.783 251.056 376.56 251.108 375.233C251.151 373.905 255.442 372.977 260.678 373.168C265.914 373.35 270.119 374.582 270.075 375.909Z" fill="#007CFF"/>
<path d="M251.197 372.811L251.111 375.213L270.085 375.893L270.171 373.491L251.197 372.811Z" fill="#007CFF"/>
<path d="M270.162 373.506C270.119 374.833 265.828 375.762 260.592 375.571C255.356 375.38 251.143 374.157 251.195 372.829C251.238 371.502 255.529 370.574 260.765 370.765C266.001 370.947 270.205 372.179 270.162 373.506Z" fill="#007CFF"/>
<path opacity="0.4" d="M270.162 373.506C270.119 374.833 265.828 375.762 260.592 375.571C255.356 375.38 251.143 374.157 251.195 372.829C251.238 371.502 255.529 370.574 260.765 370.765C266.001 370.947 270.205 372.179 270.162 373.506Z" fill="white"/>
<path d="M268.957 373.367C268.957 373.445 268.914 373.541 268.862 373.593C268.29 372.769 264.874 372.04 260.722 371.884C256.569 371.736 253.102 372.213 252.486 373.003C252.434 372.942 252.4 372.847 252.408 372.769C252.443 371.866 256.171 371.259 260.748 371.424C265.299 371.597 268.983 372.474 268.957 373.367Z" fill="#007CFF"/>
<path opacity="0.4" d="M268.957 373.367C268.957 373.445 268.914 373.541 268.862 373.593C268.29 372.769 264.874 372.04 260.722 371.884C256.569 371.736 253.102 372.213 252.486 373.003C252.434 372.942 252.4 372.847 252.408 372.769C252.443 371.866 256.171 371.259 260.748 371.424C265.299 371.597 268.983 372.474 268.957 373.367Z" fill="#007CFF"/>
<path opacity="0.4" d="M268.853 373.602C268.22 374.382 264.761 374.868 260.618 374.721C256.465 374.573 253.041 373.844 252.478 373.012C253.093 372.222 256.561 371.745 260.713 371.892C264.865 372.04 268.281 372.769 268.853 373.602Z" fill="#007CFF"/>
<path d="M272.347 372.439C272.303 373.766 268.012 374.695 262.776 374.504C257.54 374.313 253.327 373.09 253.379 371.762C253.422 370.435 257.714 369.507 262.95 369.697C268.186 369.88 272.39 371.112 272.347 372.439Z" fill="#007CFF"/>
<path d="M253.468 369.349L253.382 371.751L272.356 372.433L272.442 370.031L253.468 369.349Z" fill="#007CFF"/>
<path d="M272.425 370.036C272.381 371.363 268.09 372.292 262.854 372.101C257.618 371.91 253.405 370.686 253.457 369.359C253.501 368.032 257.792 367.103 263.028 367.294C268.272 367.476 272.477 368.708 272.425 370.036Z" fill="#007CFF"/>
<path opacity="0.4" d="M272.425 370.036C272.381 371.363 268.09 372.292 262.854 372.101C257.618 371.91 253.405 370.686 253.457 369.359C253.501 368.032 257.792 367.103 263.028 367.294C268.272 367.476 272.477 368.708 272.425 370.036Z" fill="white"/>
<path d="M271.229 369.897C271.229 369.975 271.185 370.071 271.133 370.123C270.561 369.298 267.145 368.57 262.993 368.413C258.841 368.266 255.373 368.743 254.758 369.533C254.706 369.472 254.671 369.376 254.68 369.298C254.714 368.396 258.442 367.789 263.019 367.954C267.57 368.118 271.255 368.995 271.229 369.897Z" fill="#007CFF"/>
<path opacity="0.4" d="M271.229 369.897C271.229 369.975 271.185 370.071 271.133 370.123C270.561 369.298 267.145 368.57 262.993 368.413C258.841 368.266 255.373 368.743 254.758 369.533C254.706 369.472 254.671 369.376 254.68 369.298C254.714 368.396 258.442 367.789 263.019 367.954C267.57 368.118 271.255 368.995 271.229 369.897Z" fill="#007CFF"/>
<path opacity="0.4" d="M271.124 370.131C270.492 370.912 267.033 371.398 262.889 371.25C258.736 371.103 255.312 370.374 254.749 369.55C255.364 368.76 258.832 368.283 262.984 368.431C267.137 368.57 270.552 369.298 271.124 370.131Z" fill="#007CFF"/>
<path d="M272.425 368.049C272.381 369.376 268.09 370.305 262.854 370.114C257.618 369.923 253.405 368.7 253.457 367.372C253.501 366.045 257.792 365.117 263.028 365.308C268.264 365.49 272.477 366.722 272.425 368.049Z" fill="#007CFF"/>
<path d="M253.556 364.956L253.469 367.358L272.443 368.04L272.529 365.639L253.556 364.956Z" fill="#007CFF"/>
<path d="M272.512 365.646C272.468 366.973 268.177 367.902 262.941 367.711C257.705 367.52 253.492 366.297 253.544 364.969C253.587 363.642 257.878 362.713 263.114 362.904C268.35 363.087 272.564 364.31 272.512 365.646Z" fill="#007CFF"/>
<path opacity="0.4" d="M272.512 365.646C272.468 366.973 268.177 367.902 262.941 367.711C257.705 367.52 253.492 366.297 253.544 364.969C253.587 363.642 257.878 362.713 263.114 362.904C268.35 363.087 272.564 364.31 272.512 365.646Z" fill="white"/>
<path d="M271.315 365.507C271.315 365.585 271.272 365.681 271.22 365.733C270.648 364.908 267.232 364.18 263.08 364.024C258.927 363.876 255.46 364.353 254.844 365.143C254.792 365.082 254.758 364.987 254.766 364.908C254.801 364.006 258.529 363.399 263.106 363.564C267.657 363.729 271.341 364.605 271.315 365.507Z" fill="#007CFF"/>
<path opacity="0.4" d="M271.315 365.507C271.315 365.585 271.272 365.681 271.22 365.733C270.648 364.908 267.232 364.18 263.08 364.024C258.927 363.876 255.46 364.353 254.844 365.143C254.792 365.082 254.758 364.987 254.766 364.908C254.801 364.006 258.529 363.399 263.106 363.564C267.657 363.729 271.341 364.605 271.315 365.507Z" fill="#007CFF"/>
<path opacity="0.4" d="M271.211 365.733C270.578 366.513 267.12 366.999 262.976 366.852C258.823 366.704 255.399 365.976 254.836 365.151C255.451 364.362 258.919 363.885 263.071 364.032C267.224 364.18 270.639 364.908 271.211 365.733Z" fill="#007CFF"/>
<path d="M274.696 364.57C274.653 365.897 270.362 366.826 265.126 366.635C259.89 366.444 255.676 365.221 255.729 363.893C255.772 362.566 260.063 361.638 265.299 361.829C270.535 362.019 274.748 363.243 274.696 364.57Z" fill="#007CFF"/>
<path d="M255.823 361.473L255.737 363.874L274.71 364.555L274.796 362.153L255.823 361.473Z" fill="#007CFF"/>
<path d="M274.783 362.167C274.739 363.494 270.448 364.423 265.212 364.232C259.976 364.041 255.763 362.818 255.815 361.49C255.867 360.163 260.15 359.235 265.386 359.425C270.622 359.616 274.835 360.84 274.783 362.167Z" fill="#007CFF"/>
<path opacity="0.4" d="M274.783 362.167C274.739 363.494 270.448 364.423 265.212 364.232C259.976 364.041 255.763 362.818 255.815 361.49C255.867 360.163 260.15 359.235 265.386 359.425C270.622 359.616 274.835 360.84 274.783 362.167Z" fill="white"/>
<path d="M273.586 362.037C273.586 362.115 273.543 362.21 273.491 362.262C272.919 361.438 269.503 360.709 265.351 360.553C261.199 360.406 257.731 360.883 257.115 361.672C257.063 361.612 257.029 361.516 257.037 361.438C257.072 360.536 260.8 359.929 265.377 360.093C269.928 360.258 273.612 361.135 273.586 362.037Z" fill="#007CFF"/>
<path opacity="0.4" d="M273.586 362.037C273.586 362.115 273.543 362.21 273.491 362.262C272.919 361.438 269.503 360.709 265.351 360.553C261.199 360.406 257.731 360.883 257.115 361.672C257.063 361.612 257.029 361.516 257.037 361.438C257.072 360.536 260.8 359.929 265.377 360.093C269.928 360.258 273.612 361.135 273.586 362.037Z" fill="#007CFF"/>
<path opacity="0.4" d="M273.483 362.262C272.85 363.043 269.391 363.529 265.247 363.382C261.095 363.234 257.67 362.505 257.107 361.672C257.722 360.883 261.19 360.406 265.342 360.553C269.495 360.709 272.91 361.438 273.483 362.262Z" fill="#007CFF"/>
<path d="M296.273 374.556C296.307 375.354 293.767 376.117 290.612 376.248C287.448 376.378 284.856 375.84 284.821 375.042C284.786 374.244 287.326 373.48 290.482 373.35C293.655 373.211 296.238 373.758 296.273 374.556Z" fill="#007CFF"/>
<path d="M296.221 373.102L284.771 373.589L284.833 375.037L296.283 374.55L296.221 373.102Z" fill="#007CFF"/>
<path d="M296.212 373.107C296.247 373.905 293.707 374.669 290.551 374.799C287.387 374.929 284.795 374.391 284.761 373.593C284.726 372.795 287.266 372.031 290.421 371.901C293.586 371.762 296.178 372.3 296.212 373.107Z" fill="#007CFF"/>
<path opacity="0.4" d="M296.212 373.107C296.247 373.905 293.707 374.669 290.551 374.799C287.387 374.929 284.795 374.391 284.761 373.593C284.726 372.795 287.266 372.031 290.421 371.901C293.586 371.762 296.178 372.3 296.212 373.107Z" fill="white"/>
<path d="M295.484 373.081C295.484 373.124 295.467 373.185 295.432 373.22C295.051 372.751 292.953 372.474 290.456 372.578C287.951 372.682 285.888 373.142 285.549 373.636C285.515 373.602 285.489 373.541 285.489 373.497C285.463 372.951 287.682 372.413 290.447 372.292C293.195 372.179 295.458 372.534 295.484 373.081Z" fill="#007CFF"/>
<path opacity="0.4" d="M295.484 373.081C295.484 373.124 295.467 373.185 295.432 373.22C295.051 372.751 292.953 372.474 290.456 372.578C287.951 372.682 285.888 373.142 285.549 373.636C285.515 373.602 285.489 373.541 285.489 373.497C285.463 372.951 287.682 372.413 290.447 372.292C293.195 372.179 295.458 372.534 295.484 373.081Z" fill="#007CFF"/>
<path opacity="0.4" d="M295.432 373.22C295.094 373.723 293.031 374.174 290.526 374.278C288.02 374.382 285.922 374.105 285.55 373.636C285.888 373.133 287.951 372.682 290.456 372.578C292.961 372.474 295.051 372.751 295.432 373.22Z" fill="#007CFF"/>
<path d="M290.271 371.728C292.864 367.775 291.764 362.466 287.814 359.87C283.863 357.275 278.558 358.376 275.965 362.33C273.372 366.283 274.472 371.592 278.422 374.187C282.373 376.783 287.678 375.682 290.271 371.728Z" fill="#007CFF"/>
<path d="M290.257 373.411C287.11 376.942 281.709 377.245 278.181 374.105C274.653 370.955 274.349 365.551 277.487 362.019C280.634 358.488 286.035 358.185 289.563 361.325C293.091 364.475 293.404 369.888 290.257 373.411Z" fill="#007CFF"/>
<path opacity="0.4" d="M290.257 373.411C287.11 376.942 281.709 377.245 278.181 374.105C274.653 370.955 274.349 365.551 277.487 362.019C280.634 358.488 286.035 358.185 289.563 361.325C293.091 364.475 293.404 369.888 290.257 373.411Z" fill="white"/>
<path d="M288.653 371.979C286.304 374.617 282.255 374.851 279.62 372.5C276.985 370.149 276.751 366.097 279.1 363.46C281.449 360.822 285.497 360.588 288.133 362.939C290.768 365.29 291.002 369.342 288.653 371.979Z" fill="#007CFF"/>
<path d="M285.064 370.608C284.31 371.832 282.949 371.892 281.544 370.834L280.747 371.693L279.949 370.981L280.747 370.123C280.045 369.368 279.551 368.5 279.36 367.789L280.6 367.121C280.799 367.858 281.189 368.561 281.7 369.116L282.931 367.806C282.351 366.887 281.752 365.828 282.437 364.718C283.192 363.494 284.57 363.442 285.992 364.535L286.789 363.677L287.587 364.388L286.78 365.255C287.301 365.819 287.708 366.47 287.916 367.086L286.728 367.797C286.555 367.225 286.234 366.704 285.844 366.262L284.561 367.633C285.142 368.518 285.723 369.55 285.064 370.608ZM283.963 366.687L285.012 365.568C284.501 365.264 284.067 365.325 283.842 365.663C283.668 365.95 283.764 366.297 283.963 366.687ZM283.634 369.697C283.798 369.429 283.72 369.099 283.512 368.734L282.515 369.802C283.009 370.079 283.417 370.044 283.634 369.697Z" fill="white"/>
<rect x="437.5" y="306.5" width="41.9982" height="5.01975" rx="2.50987" fill="white" stroke="#B5CBE3"/>
<defs>
<filter id="filter0_di_1_2113" x="33" y="0" width="502.905" height="502.045" filterUnits="userSpaceOnUse" color-interpolation-filters="sRGB">
<feFlood flood-opacity="0" result="BackgroundImageFix"/>
<feColorMatrix in="SourceAlpha" type="matrix" values="0 0 0 0 0 0 0 0 0 0 0 0 0 0 0 0 0 0 127 0" result="hardAlpha"/>
<feOffset/>
<feGaussianBlur stdDeviation="35"/>
<feComposite in2="hardAlpha" operator="out"/>
<feColorMatrix type="matrix" values="0 0 0 0 0.243137 0 0 0 0 0.588235 0 0 0 0 0.956863 0 0 0 0.1 0"/>
<feBlend mode="normal" in2="BackgroundImageFix" result="effect1_dropShadow_1_2113"/>
<feBlend mode="normal" in="SourceGraphic" in2="effect1_dropShadow_1_2113" result="shape"/>
<feColorMatrix in="SourceAlpha" type="matrix" values="0 0 0 0 0 0 0 0 0 0 0 0 0 0 0 0 0 0 127 0" result="hardAlpha"/>
<feOffset/>
<feGaussianBlur stdDeviation="35"/>
<feComposite in2="hardAlpha" operator="arithmetic" k2="-1" k3="1"/>
<feColorMatrix type="matrix" values="0 0 0 0 0.243137 0 0 0 0 0.588235 0 0 0 0 0.956863 0 0 0 0.05 0"/>
<feBlend mode="normal" in2="shape" result="effect2_innerShadow_1_2113"/>
</filter>
</defs>
</svg>
