<svg width="32" height="32" viewBox="0 0 32 32" fill="none" xmlns="http://www.w3.org/2000/svg">
<g style="mix-blend-mode:multiply">
<path d="M5 22C5 19.7909 6.79086 18 9 18H23C25.2091 18 27 19.7909 27 22V30H5V22Z" fill="#007BFF" fill-opacity="0.8"/>
</g>
<g style="mix-blend-mode:multiply">
<path d="M20.2426 4.75736C22.5858 7.10051 22.5858 10.8995 20.2426 13.2426C17.8995 15.5858 14.1005 15.5858 11.7574 13.2426C9.41421 10.8995 9.41421 7.10051 11.7574 4.75736C14.1005 2.41421 17.8995 2.41421 20.2426 4.75736Z" fill="#007BFF" fill-opacity="0.8"/>
</g>
<g style="mix-blend-mode:multiply">
<path d="M16.5727 25.7843C16.244 26.0719 15.756 26.0719 15.4273 25.7843L8.30386 19.5518C7.69159 19.0162 8.06659 18 8.87654 18L23.1235 18C23.9334 18 24.3084 19.0162 23.6961 19.5518L16.5727 25.7843Z" fill="#84979C" fill-opacity="0.8"/>
</g>
<g style="mix-blend-mode:multiply">
<path d="M16.2863 21.8921C16.122 22.036 15.878 22.036 15.7137 21.8921L12.1519 18.7759C11.8458 18.5081 12.0333 18 12.4383 18L19.5617 18C19.9667 18 20.1542 18.5081 19.8481 18.7759L16.2863 21.8921Z" fill="#84979C" fill-opacity="0.8"/>
</g>
</svg>
