<svg width="76" height="62" viewBox="0 0 76 62" fill="none" xmlns="http://www.w3.org/2000/svg">
<circle cx="30.5" cy="30.5" r="29.5" fill="url(#paint0_linear_98_99)"/>
<path fill-rule="evenodd" clip-rule="evenodd" d="M32.2414 18.2646C32.2414 17.238 31.4092 16.4058 30.3826 16.4058C29.356 16.4058 28.5237 17.238 28.5237 18.2646V19.0722H27.5823C24.3056 19.0722 21.8191 21.861 21.8191 25.0507C21.8191 26.5555 22.1487 27.8434 22.9531 28.8678C23.7397 29.8695 24.7955 30.377 25.7203 30.7062L25.7314 30.7101L28.5237 31.6842V37.9475H28.1477C26.7741 37.9475 25.5099 36.7582 25.5099 35.0942C25.5099 34.0676 24.6777 33.2353 23.651 33.2353C22.6244 33.2353 21.7922 34.0676 21.7922 35.0942C21.7922 38.6539 24.5669 41.6652 28.1477 41.6652H28.5237V42.4983C28.5237 43.525 29.356 44.3572 30.3826 44.3572C31.4092 44.3572 32.2414 43.525 32.2414 42.4983V41.6652H33.2099C36.4789 41.6652 38.9731 38.9114 38.9731 35.6866C38.9731 34.1904 38.6414 32.907 37.8422 31.8835C37.0595 30.8812 36.0084 30.3644 35.0718 30.031L35.0608 30.0271L32.2414 29.0436V22.7899H32.6444C34.0181 22.7899 35.2823 23.9792 35.2823 25.643C35.2823 26.6697 36.1145 27.5019 37.1411 27.5019C38.1678 27.5019 39 26.6697 39 25.643C39 22.0834 36.2253 19.0722 32.6444 19.0722H32.2414V18.2646ZM28.5237 22.7899H27.5823C26.5508 22.7899 25.5368 23.7169 25.5368 25.0507C25.5368 26.023 25.7458 26.4045 25.877 26.5717C26.0257 26.761 26.3017 26.9664 26.9617 27.2019L28.5237 27.7468V22.7899ZM32.2414 32.9811V37.9475H33.2099C34.2491 37.9475 35.2554 37.0393 35.2554 35.6866C35.2554 34.7324 35.0485 34.3464 34.912 34.1717C34.7595 33.9763 34.4787 33.7667 33.8304 33.5353L32.2414 32.9811Z" fill="#31393C"/>
<path d="M30.3814 59.7627C14.1629 59.7627 1.00006 46.5999 1.00007 30.3814C1.00007 14.1629 14.1629 0.999998 30.3814 0.999999C46.6 0.999999 59.7628 14.1629 59.7628 30.3814" stroke="#3E96F4" stroke-width="2" stroke-linecap="round" stroke-linejoin="round"/>
<path d="M51.4687 52.6896L59.779 60.9999L68.0894 52.6896" stroke="#3E96F4" stroke-width="2" stroke-linecap="round" stroke-linejoin="round"/>
<path d="M59.7789 30.4402V61" stroke="#3E96F4" stroke-width="2" stroke-linecap="round" stroke-linejoin="round"/>
<defs>
<linearGradient id="paint0_linear_98_99" x1="0.999999" y1="8.27767" x2="68.465" y2="43.8288" gradientUnits="userSpaceOnUse">
<stop stop-color="#9FCEFF"/>
<stop offset="1" stop-color="#E7F2FF"/>
</linearGradient>
</defs>
</svg>
