<svg width="23" height="13" viewBox="0 0 23 13" fill="none" xmlns="http://www.w3.org/2000/svg">
<path d="M21.991 0.46967C22.2839 0.762563 22.2839 1.23744 21.991 1.53033L11.4607 12.0607L8.15562 8.75561C8.31765 9.04167 8.27677 9.41152 8.03299 9.6553L5.62766 12.0606L0.46967 6.90264C0.176777 6.60975 0.176777 6.13488 0.46967 5.84198C0.762563 5.54909 1.23744 5.54909 1.53033 5.84198L5.62766 9.93931L6.97233 8.59464C7.21611 8.35086 7.58596 8.30999 7.87202 8.47201L6.30268 6.90267C6.00978 6.60978 6.00978 6.1349 6.30268 5.84201C6.59557 5.54912 7.07044 5.54912 7.36334 5.84201L11.4607 9.93934L20.9303 0.46967C21.2232 0.176777 21.6981 0.176777 21.991 0.46967Z" fill="#3E96F4"/>
<path d="M16.1573 0.46967C16.4502 0.762563 16.4502 1.23744 16.1573 1.53033L10.2198 7.46783C9.92689 7.76072 9.45202 7.76072 9.15912 7.46783C8.86623 7.17494 8.86623 6.70006 9.15912 6.40717L15.0966 0.46967C15.3895 0.176777 15.8644 0.176777 16.1573 0.46967Z" fill="#3E96F4"/>
</svg>
