<svg width="78" height="78" viewBox="0 0 78 78" fill="none" xmlns="http://www.w3.org/2000/svg">
<circle cx="36" cy="36" r="37.5" transform="matrix(1 0 0 -1 3 75)" fill="#3E96F4" stroke="white" stroke-width="3"/>
<path d="M31.6341 28.5244H31.6347M39.5915 28.0671V19.2866C39.5915 18.029 40.6204 17 41.878 17H59.7134C60.971 17 62 18.029 62 19.2866V30.7195C62 31.9771 60.971 33.006 59.7134 33.006H52.8537V36.8477L48.2805 33.006H46.7255M43.936 23.1738H57.6554M57.6554 26.8323H52.4192M46.2682 40.0489V30.811C46.2682 29.5534 45.2392 28.5244 43.9816 28.5244H35.7502M27.5186 28.5244H19.2866C18.029 28.5244 17 29.5534 17 30.811V49.1036C17 50.3612 18.029 51.3902 19.2866 51.3902H29.3475V55.9633L33.9207 51.3902H40.7391M49.2218 49.717L48.1683 48.9665L47.4179 50.02M50.2262 45.4021C50.8519 45.0408 51.5617 44.8507 52.2842 44.8507C54.4961 44.8507 56.3125 46.599 56.397 48.8093M55.3464 48.216L56.3999 48.9665L57.1505 47.913M54.3421 52.5309C53.7164 52.8922 53.0066 53.0824 52.2842 53.0824C50.0386 53.0824 48.2076 51.2825 48.169 49.0372M29.1292 36.529C29.0096 35.9513 29.2376 35.1356 29.9845 34.566C31.1122 33.6973 32.7653 33.9062 33.634 35.034C34.5027 36.1618 34.2909 37.7951 33.1633 38.6639L31.9622 39.5892C31.0811 40.252 30.9554 41.114 30.9853 42.3263M30.9852 45.8848H30.9859M43.4829 40.5062H59.7134C60.971 40.5062 62 41.5355 62 42.7928V55.1403C62 56.3978 60.971 57.4268 59.7134 57.4268H53.6561V62L49.0829 57.4268H43.4829C42.2257 57.4268 41.1964 56.3979 41.1964 55.1403V42.7928C41.1964 41.5351 42.2252 40.5062 43.4829 40.5062Z" stroke="white" stroke-width="2" stroke-miterlimit="2.6131" stroke-linecap="round" stroke-linejoin="round"/>
</svg>
