<svg width="376" height="372" viewBox="0 0 376 372" fill="none" xmlns="http://www.w3.org/2000/svg">
<path d="M55.2562 314.815V286.286C60.8728 286.284 66.3651 287.939 71.045 291.045C75.725 294.151 79.3844 298.568 81.5648 303.744C83.7453 308.921 84.3499 314.625 83.3028 320.143C82.2557 325.661 79.6036 330.748 75.6786 334.765C71.7536 338.783 66.7303 341.553 61.2381 342.729C55.7458 343.904 50.0288 343.433 44.8032 341.373C39.5777 339.314 35.076 335.759 31.862 331.153C28.6481 326.546 26.8649 321.094 26.7358 315.479L55.2562 314.815Z" fill="#E0E0E0"/>
<path d="M48.305 307.122L19.7676 307.77C19.7661 300.145 22.6549 292.802 27.8518 287.223C33.1694 281.889 40.3332 278.803 47.862 278.602L48.305 307.122Z" fill="#F5F5F5"/>
<path d="M353.987 37.0561L375.378 33.7935C376.059 38.2603 375.324 42.8283 373.276 46.8561C371.228 50.8839 367.971 54.1693 363.96 56.2509C359.95 58.3324 355.388 59.1057 350.916 58.4622C346.443 57.8186 342.285 55.7905 339.024 52.6626C335.763 49.5347 333.564 45.4641 332.735 41.0224C331.905 36.5806 332.488 31.9907 334.401 27.8971C336.314 23.8036 339.461 20.4119 343.4 18.1983C347.339 15.9847 351.873 15.0604 356.364 15.5551L353.987 37.0561Z" fill="#F5F5F5"/>
<path d="M360.93 15.6233L358.332 32.2005L374.611 29.1424C374.611 29.1424 372.217 19.857 360.93 15.6233Z" fill="#E0E0E0"/>
<path d="M37.8186 24.9938H25.9691V72.3233H37.8186V24.9938Z" fill="#E0E0E0"/>
<path d="M55.2392 35.3184H43.3897V72.3233H55.2392V35.3184Z" fill="#E0E0E0"/>
<path d="M72.9323 43.7688H61.0829V72.3232H72.9323V43.7688Z" fill="#E0E0E0"/>
<path d="M89.3137 55.3627H77.4643V72.3147H89.3137V55.3627Z" fill="#E0E0E0"/>
<path d="M230.995 197.411C230.937 192.206 232.422 187.1 235.263 182.738C238.104 178.376 242.173 174.953 246.957 172.901C251.741 170.849 257.026 170.261 262.144 171.209C267.262 172.158 271.985 174.601 275.716 178.232C279.447 181.862 282.019 186.515 283.107 191.606C284.196 196.696 283.752 201.995 281.833 206.834C279.913 211.672 276.603 215.834 272.32 218.793C268.038 221.752 262.974 223.376 257.77 223.461C250.767 223.547 244.017 220.853 238.998 215.97C233.979 211.087 231.101 204.413 230.995 197.411ZM269.943 196.78C269.89 194.292 269.102 191.875 267.677 189.834C266.252 187.793 264.254 186.22 261.936 185.313C259.618 184.406 257.083 184.206 254.652 184.739C252.22 185.271 250.001 186.512 248.274 188.304C246.547 190.096 245.389 192.36 244.947 194.81C244.506 197.259 244.799 199.785 245.791 202.068C246.784 204.351 248.43 206.289 250.522 207.637C252.614 208.985 255.059 209.683 257.548 209.644C259.207 209.614 260.843 209.257 262.364 208.594C263.885 207.931 265.26 206.975 266.411 205.781C267.562 204.586 268.467 203.176 269.073 201.632C269.679 200.088 269.974 198.439 269.943 196.78Z" fill="#F5F5F5"/>
<path d="M230.995 197.411C230.877 190.408 233.54 183.645 238.401 178.603C243.262 173.562 249.924 170.654 256.926 170.517L257.148 184.335C253.838 184.455 250.707 185.868 248.427 188.271C246.146 190.673 244.899 193.873 244.951 197.185C245.003 200.497 246.352 203.656 248.707 205.985C251.062 208.315 254.236 209.628 257.548 209.644L257.77 223.461C254.301 223.509 250.857 222.874 247.634 221.591C244.41 220.308 241.472 218.402 238.985 215.983C236.499 213.564 234.514 210.678 233.143 207.492C231.772 204.305 231.042 200.879 230.995 197.411Z" fill="#E0E0E0"/>
<path d="M254.558 168.396C258.561 168.301 262.543 169.006 266.271 170.468C269.998 171.931 273.397 174.123 276.267 176.915C279.137 179.707 281.421 183.044 282.986 186.73C284.55 190.416 285.364 194.378 285.378 198.382L269.295 198.646C269.159 190.485 262.949 185.34 254.814 185.468L254.558 168.396Z" fill="#EBEBEB"/>
<path d="M372.182 371.736C372.182 371.864 292.89 371.958 195.088 371.958C97.2857 371.958 17.9688 371.864 17.9688 371.736C17.9688 371.608 97.2516 371.515 195.088 371.515C292.925 371.515 372.182 371.617 372.182 371.736Z" fill="#303436"/>
<path d="M3.9736 257.808L4.31435 257.544L5.35362 256.769L9.37441 253.804L24.5546 242.73L77.2083 204.524L77.1316 204.762C72.5606 191.973 70.2209 178.494 70.2145 164.912C70.2111 160.43 70.4499 155.951 70.93 151.495C71.4277 147.175 72.1557 142.884 73.1108 138.641C74.8967 130.606 77.5473 122.789 81.0161 115.325C90.9823 94.0784 107.023 76.2624 127.11 64.1283L130.944 61.9305C132.06 61.3001 133.039 60.8401 133.815 60.4397L135.586 59.5878C135.987 59.3834 136.2 59.2982 136.2 59.2982C136.2 59.2982 136.004 59.4175 135.603 59.6304L133.9 60.559C133.133 60.9764 132.153 61.4108 131.046 62.0838L127.247 64.3157C107.294 76.5405 91.3648 94.35 81.4335 115.538C77.9843 122.978 75.3509 130.77 73.5793 138.777C72.627 142.994 71.9047 147.26 71.4156 151.555C70.9355 155.994 70.6966 160.456 70.7 164.921C70.6907 178.446 72.9985 191.872 77.5234 204.618L77.5745 204.771L77.4468 204.865L24.7079 242.943L9.4596 253.915C7.6792 255.176 6.31622 256.155 5.37918 256.828L4.32287 257.569L3.9736 257.808Z" fill="#429EFF"/>
<path d="M101.921 35.4546C101.921 35.4546 101.759 35.5483 101.435 35.7101L100.004 36.4087L97.6785 37.5417C96.75 37.9846 95.7363 38.598 94.5607 39.2454C87.9967 42.9021 81.8376 47.2423 76.186 52.1937C72.2916 55.6182 68.6264 59.2948 65.214 63.1998C61.3275 67.6903 57.7554 72.4437 54.5231 77.4259C47.1441 88.9195 41.5196 101.449 37.8351 114.601C34.1409 127.747 31.9602 141.271 31.3354 154.911C30.7507 166.032 31.007 177.18 32.1021 188.262C32.8086 195.77 34.2611 203.19 36.4381 210.41C37.2303 212.966 37.9544 214.891 38.457 216.194L39.0448 217.677L39.2322 218.188C39.2322 218.188 39.147 218.026 39.0022 217.694L38.3377 216.186C37.8096 214.891 37.0599 212.957 36.2422 210.419C33.9967 203.228 32.4924 195.827 31.7528 188.33C30.6007 177.224 30.3017 166.046 30.8584 154.894C31.4555 141.219 33.6309 127.658 37.3411 114.482C41.0387 101.289 46.6895 88.7245 54.1057 77.2044C57.3716 72.2066 60.9809 67.4417 64.9073 62.9442C68.3489 59.0324 72.0486 55.3555 75.9816 51.9381C81.6672 46.9958 87.8707 42.683 94.484 39.075C95.6596 38.4531 96.6818 37.8568 97.6189 37.4309L99.97 36.332L101.418 35.6676L101.921 35.4546Z" fill="#429EFF"/>
<path d="M129.547 0C129.547 0 129.589 0.0425932 129.657 0.144817L129.956 0.579267L131.063 2.28299L135.195 8.80826C138.721 14.4476 143.713 22.4381 149.566 31.7489L149.335 31.6637C157.36 29.466 165.551 27.9276 173.827 27.0637C181.901 26.208 190.03 25.9887 198.139 26.4077C204.76 26.7617 211.351 27.5528 217.868 28.7759L219.904 29.1507L221.821 29.5682L225.339 30.3519C227.511 30.9226 229.385 31.3741 230.91 31.8086L234.394 32.8649L235.297 33.1545C235.4 33.1796 235.5 33.2168 235.595 33.2652C235.488 33.2514 235.383 33.2286 235.28 33.1971L234.368 32.9501L230.859 31.9789C229.334 31.57 227.451 31.1271 225.279 30.5904L221.761 29.8152L219.844 29.4148L217.808 29.057C211.302 27.8741 204.726 27.1144 198.122 26.7826C190.032 26.3786 181.924 26.6036 173.869 27.4555C165.619 28.3122 157.452 29.8335 149.446 32.0045H149.293L149.216 31.8767C143.415 22.5062 138.483 14.5072 134.982 8.87641C133.278 6.06526 131.898 3.83338 130.952 2.28299L129.896 0.528156L129.632 0.068149C129.603 0.0463763 129.574 0.0236476 129.547 0Z" fill="#429EFF"/>
<path d="M345.809 114.064C345.766 113.99 345.734 113.91 345.715 113.826L345.485 113.102C345.281 112.437 345 111.517 344.634 110.333C344.267 109.149 343.858 107.65 343.254 105.972L342.334 103.263C342.163 102.786 342.001 102.292 341.822 101.789L341.226 100.256C340.374 98.1687 339.522 95.8602 338.432 93.4409C337.878 92.2398 337.367 90.9705 336.728 89.7097L334.786 85.8593C331.79 80.1591 328.397 74.6766 324.632 69.4524C320.808 64.2698 316.642 59.3492 312.161 54.7237C311.113 53.6674 310.091 52.6452 309.102 51.64C308.114 50.6348 307.075 49.7488 306.112 48.8459C304.204 47.0144 302.304 45.4384 300.609 43.9817L299.357 42.9084L298.156 41.9373L295.924 40.1484C294.544 39.0154 293.3 38.1124 292.295 37.3542L289.987 35.6505L289.39 35.1905L289.194 35.0201C289.194 35.0201 289.28 35.0201 289.416 35.1479L290.038 35.5824L292.397 37.2861C293.42 38.0187 294.68 38.9046 296.077 40.0206L298.335 41.7413L299.57 42.7039L300.822 43.7688C302.526 45.2255 304.46 46.7759 306.376 48.5988C307.348 49.5018 308.378 50.4048 309.392 51.3844L312.467 54.4597C316.98 59.0844 321.17 64.0141 325.007 69.2139C328.787 74.4546 332.181 79.9637 335.161 85.6975L337.103 89.599C337.725 90.8597 338.236 92.1546 338.807 93.3387C339.923 95.7495 340.749 98.0665 341.558 100.154C341.763 100.682 341.959 101.193 342.146 101.695C342.334 102.198 342.478 102.701 342.64 103.178C342.955 104.14 343.254 105.052 343.535 105.895C344.122 107.599 344.514 109.081 344.847 110.291C345.179 111.5 345.426 112.42 345.605 113.093C345.681 113.392 345.741 113.63 345.792 113.817L345.809 114.064Z" fill="#429EFF"/>
<path d="M313.805 350.525C313.805 350.525 313.753 350.448 313.668 350.286L313.311 349.57C312.987 348.915 312.535 347.977 311.948 346.768C310.755 344.289 309.043 340.711 306.896 336.222C302.594 327.184 296.554 314.465 289.535 299.685L289.458 299.532L289.603 299.421C296.171 294.449 302.359 288.994 308.114 283.1C309.119 282.12 310.056 281.098 310.985 280.075L313.771 277.043L316.394 273.959C317.246 272.928 318.098 271.932 318.95 270.884C320.56 268.797 322.204 266.786 323.652 264.708L325.85 261.65C326.548 260.627 327.213 259.597 327.886 258.592C332.627 251.434 336.808 243.921 340.391 236.119C341.959 232.806 343.168 229.713 344.267 227.021C345.366 224.33 346.141 221.91 346.823 220.002C347.504 218.094 347.93 216.552 348.262 215.504C348.433 215.01 348.561 214.652 348.654 214.337C348.695 214.204 348.744 214.073 348.799 213.945C348.799 213.945 348.799 214.082 348.697 214.354C348.595 214.627 348.501 215.027 348.348 215.53C348.032 216.586 347.572 218.085 346.985 220.053C346.397 222.021 345.502 224.372 344.497 227.107C343.492 229.841 342.223 232.925 340.672 236.247C337.116 244.085 332.952 251.633 328.218 258.822C327.545 259.827 326.889 260.866 326.182 261.888L323.984 264.955C322.536 267.051 320.892 269.061 319.274 271.148C318.481 272.204 317.57 273.209 316.718 274.24C315.866 275.271 314.972 276.293 314.094 277.341L311.3 280.374C310.372 281.396 309.435 282.427 308.429 283.406C302.653 289.317 296.439 294.784 289.842 299.762L289.91 299.506L307.126 336.137L312.067 346.708C312.629 347.935 313.072 348.88 313.37 349.545L313.702 350.286L313.805 350.525Z" fill="#429EFF"/>
<g opacity="0.8">
<path d="M3.9736 257.808L4.31435 257.544L5.35362 256.769L9.37441 253.804L24.5546 242.73L77.2083 204.524L77.1316 204.762C72.5606 191.973 70.2209 178.494 70.2145 164.912C70.2111 160.43 70.4499 155.951 70.93 151.495C71.4277 147.175 72.1557 142.884 73.1108 138.641C74.8967 130.606 77.5473 122.789 81.0161 115.325C90.9823 94.0784 107.023 76.2624 127.11 64.1283L130.944 61.9305C132.06 61.3001 133.039 60.8401 133.815 60.4397L135.586 59.5878C135.987 59.3834 136.2 59.2982 136.2 59.2982C136.2 59.2982 136.004 59.4175 135.603 59.6304L133.9 60.559C133.133 60.9764 132.153 61.4108 131.046 62.0838L127.247 64.3157C107.294 76.5405 91.3648 94.35 81.4335 115.538C77.9843 122.978 75.3509 130.77 73.5793 138.777C72.627 142.994 71.9047 147.26 71.4156 151.555C70.9355 155.994 70.6966 160.456 70.7 164.921C70.6907 178.446 72.9985 191.872 77.5234 204.618L77.5745 204.771L77.4468 204.865L24.7079 242.943L9.4596 253.915C7.6792 255.176 6.31622 256.155 5.37918 256.828L4.32287 257.569L3.9736 257.808Z" fill="white"/>
<path d="M101.921 35.4546C101.921 35.4546 101.759 35.5483 101.435 35.7101L100.004 36.4087L97.6785 37.5417C96.75 37.9846 95.7363 38.598 94.5607 39.2454C87.9967 42.9021 81.8376 47.2423 76.186 52.1937C72.2916 55.6182 68.6264 59.2948 65.214 63.1998C61.3275 67.6903 57.7554 72.4437 54.5231 77.4259C47.1441 88.9195 41.5196 101.449 37.8351 114.601C34.1409 127.747 31.9602 141.271 31.3354 154.911C30.7507 166.032 31.007 177.18 32.1021 188.262C32.8086 195.77 34.2611 203.19 36.4381 210.41C37.2303 212.966 37.9544 214.891 38.457 216.194L39.0448 217.677L39.2322 218.188C39.2322 218.188 39.147 218.026 39.0022 217.694L38.3377 216.186C37.8096 214.891 37.0599 212.957 36.2422 210.419C33.9967 203.228 32.4924 195.827 31.7528 188.33C30.6007 177.224 30.3017 166.046 30.8584 154.894C31.4555 141.219 33.6309 127.658 37.3411 114.482C41.0387 101.289 46.6895 88.7245 54.1057 77.2044C57.3716 72.2066 60.9809 67.4417 64.9073 62.9442C68.3489 59.0324 72.0486 55.3555 75.9816 51.9381C81.6672 46.9958 87.8707 42.683 94.484 39.075C95.6596 38.4531 96.6818 37.8568 97.6189 37.4309L99.97 36.332L101.418 35.6676L101.921 35.4546Z" fill="white"/>
<path d="M129.547 0C129.547 0 129.589 0.0425932 129.657 0.144817L129.956 0.579267L131.063 2.28299L135.195 8.80826C138.721 14.4476 143.713 22.4381 149.565 31.7489L149.335 31.6637C157.36 29.466 165.551 27.9276 173.827 27.0637C181.901 26.208 190.03 25.9887 198.139 26.4077C204.76 26.7617 211.351 27.5528 217.868 28.7759L219.904 29.1507L221.82 29.5682L225.339 30.3519C227.511 30.9226 229.385 31.3741 230.91 31.8086L234.394 32.8649L235.297 33.1545C235.4 33.1796 235.5 33.2168 235.595 33.2652C235.488 33.2514 235.383 33.2286 235.28 33.1971L234.368 32.9501L230.859 31.9789C229.334 31.57 227.451 31.1271 225.279 30.5904L221.761 29.8152L219.844 29.4148L217.808 29.057C211.302 27.8741 204.726 27.1144 198.122 26.7826C190.032 26.3786 181.924 26.6036 173.869 27.4555C165.619 28.3122 157.451 29.8335 149.446 32.0045H149.293L149.216 31.8767C143.415 22.5062 138.483 14.5072 134.982 8.87641C133.278 6.06526 131.898 3.83338 130.952 2.28299L129.896 0.528156L129.632 0.068149C129.603 0.0463763 129.574 0.0236476 129.547 0Z" fill="white"/>
<path d="M345.809 114.064C345.766 113.99 345.734 113.91 345.715 113.826L345.485 113.102C345.281 112.437 345 111.517 344.634 110.333C344.267 109.149 343.858 107.65 343.254 105.972L342.334 103.263C342.163 102.786 342.001 102.292 341.822 101.789L341.226 100.256C340.374 98.1687 339.522 95.8602 338.432 93.4409C337.878 92.2398 337.367 90.9705 336.728 89.7097L334.786 85.8593C331.79 80.1591 328.397 74.6766 324.632 69.4524C320.808 64.2698 316.642 59.3492 312.161 54.7237C311.113 53.6674 310.091 52.6452 309.102 51.64C308.114 50.6348 307.075 49.7488 306.112 48.8459C304.204 47.0144 302.304 45.4384 300.609 43.9817L299.357 42.9084L298.156 41.9373L295.924 40.1484C294.544 39.0154 293.3 38.1124 292.295 37.3542L289.987 35.6505L289.39 35.1905L289.194 35.0201C289.194 35.0201 289.28 35.0201 289.416 35.1479L290.038 35.5824L292.397 37.2861C293.42 38.0187 294.68 38.9046 296.077 40.0206L298.335 41.7413L299.57 42.7039L300.822 43.7688C302.526 45.2255 304.46 46.7759 306.376 48.5988C307.348 49.5018 308.378 50.4048 309.392 51.3844L312.467 54.4597C316.98 59.0844 321.17 64.0141 325.007 69.2139C328.787 74.4546 332.181 79.9637 335.161 85.6975L337.103 89.599C337.725 90.8597 338.236 92.1546 338.807 93.3387C339.923 95.7495 340.749 98.0665 341.558 100.154C341.763 100.682 341.959 101.193 342.146 101.695C342.334 102.198 342.478 102.701 342.64 103.178C342.955 104.14 343.254 105.052 343.535 105.895C344.122 107.599 344.514 109.081 344.847 110.291C345.179 111.5 345.426 112.42 345.605 113.093C345.681 113.392 345.741 113.63 345.792 113.817L345.809 114.064Z" fill="white"/>
<path d="M313.805 350.525C313.805 350.525 313.753 350.448 313.668 350.286L313.311 349.57C312.987 348.915 312.535 347.977 311.948 346.768C310.755 344.289 309.043 340.711 306.896 336.222C302.594 327.184 296.554 314.465 289.535 299.685L289.458 299.532L289.603 299.421C296.171 294.449 302.359 288.994 308.114 283.1C309.119 282.12 310.056 281.098 310.985 280.075L313.771 277.043L316.394 273.959C317.246 272.928 318.098 271.932 318.95 270.884C320.56 268.797 322.204 266.786 323.652 264.708L325.85 261.65C326.548 260.627 327.213 259.597 327.886 258.592C332.627 251.434 336.808 243.921 340.391 236.119C341.959 232.806 343.168 229.713 344.267 227.021C345.366 224.33 346.141 221.91 346.823 220.002C347.504 218.094 347.93 216.552 348.262 215.504C348.433 215.01 348.561 214.652 348.654 214.337C348.695 214.204 348.744 214.073 348.799 213.945C348.799 213.945 348.799 214.082 348.697 214.354C348.595 214.627 348.501 215.027 348.348 215.53C348.032 216.586 347.572 218.085 346.985 220.053C346.397 222.021 345.502 224.372 344.497 227.107C343.492 229.841 342.223 232.925 340.672 236.247C337.116 244.085 332.952 251.633 328.218 258.822C327.545 259.827 326.889 260.866 326.182 261.888L323.984 264.955C322.536 267.051 320.892 269.061 319.274 271.148C318.481 272.204 317.57 273.209 316.718 274.24C315.866 275.271 314.972 276.293 314.094 277.341L311.3 280.374C310.372 281.396 309.435 282.427 308.429 283.406C302.653 289.317 296.439 294.784 289.842 299.762L289.91 299.506L307.126 336.137L312.067 346.708C312.629 347.935 313.072 348.88 313.37 349.545L313.702 350.286L313.805 350.525Z" fill="white"/>
</g>
<path d="M258.187 106.313C260.205 106.313 261.841 104.676 261.841 102.658C261.841 100.64 260.205 99.0035 258.187 99.0035C256.168 99.0035 254.532 100.64 254.532 102.658C254.532 104.676 256.168 106.313 258.187 106.313Z" fill="#429EFF"/>
<path d="M239.735 33.3419C239.735 34.0667 239.52 34.7752 239.117 35.3778C238.714 35.9804 238.142 36.4499 237.472 36.7268C236.802 37.0038 236.065 37.0759 235.354 36.9338C234.644 36.7918 233.991 36.4421 233.479 35.929C232.967 35.4158 232.619 34.7624 232.479 34.0512C232.338 33.3401 232.412 32.6033 232.69 31.9342C232.969 31.265 233.44 30.6935 234.043 30.292C234.647 29.8906 235.356 29.6772 236.081 29.6788C236.561 29.6788 237.037 29.7737 237.481 29.9578C237.925 30.142 238.328 30.412 238.668 30.7522C239.007 31.0925 239.276 31.4964 239.459 31.9407C239.643 32.3851 239.736 32.8612 239.735 33.3419Z" fill="#429EFF"/>
<path d="M349.123 114.209C349.125 114.934 348.911 115.644 348.509 116.247C348.107 116.851 347.535 117.322 346.866 117.6C346.196 117.879 345.459 117.952 344.747 117.811C344.036 117.67 343.383 117.321 342.87 116.808C342.357 116.295 342.008 115.642 341.867 114.93C341.726 114.219 341.799 113.482 342.077 112.812C342.356 112.142 342.826 111.57 343.43 111.168C344.034 110.767 344.743 110.553 345.468 110.555C346.438 110.555 347.367 110.94 348.053 111.625C348.738 112.31 349.123 113.24 349.123 114.209Z" fill="#429EFF"/>
<path d="M160.069 285.153C160.067 285.875 159.852 286.581 159.449 287.181C159.046 287.78 158.475 288.248 157.807 288.523C157.139 288.798 156.405 288.869 155.696 288.727C154.988 288.585 154.338 288.237 153.827 287.725C153.317 287.214 152.97 286.563 152.83 285.854C152.689 285.145 152.762 284.411 153.039 283.744C153.316 283.076 153.784 282.506 154.385 282.105C154.986 281.704 155.692 281.49 156.414 281.49C156.895 281.49 157.371 281.584 157.815 281.769C158.259 281.953 158.662 282.223 159.002 282.563C159.341 282.903 159.61 283.307 159.793 283.751C159.976 284.196 160.07 284.672 160.069 285.153Z" fill="#429EFF"/>
<path d="M109.69 286.149C111.708 286.149 113.344 284.513 113.344 282.495C113.344 280.477 111.708 278.84 109.69 278.84C107.671 278.84 106.035 280.477 106.035 282.495C106.035 284.513 107.671 286.149 109.69 286.149Z" fill="#429EFF"/>
<path d="M310.142 209.2C312.16 209.2 313.796 207.564 313.796 205.546C313.796 203.528 312.16 201.891 310.142 201.891C308.123 201.891 306.487 203.528 306.487 205.546C306.487 207.564 308.123 209.2 310.142 209.2Z" fill="#429EFF"/>
<path d="M39.6411 116.1C39.6411 116.823 39.4268 117.53 39.0252 118.131C38.6237 118.732 38.0529 119.2 37.3851 119.477C36.7174 119.753 35.9826 119.826 35.2737 119.685C34.5648 119.544 33.9136 119.196 33.4025 118.685C32.8914 118.173 32.5434 117.522 32.4023 116.813C32.2613 116.104 32.3337 115.37 32.6103 114.702C32.8869 114.034 33.3553 113.463 33.9563 113.062C34.5573 112.66 35.2638 112.446 35.9866 112.446C36.9558 112.446 37.8854 112.831 38.5707 113.516C39.2561 114.202 39.6411 115.131 39.6411 116.1Z" fill="#429EFF"/>
<path d="M244.846 145.328C244.845 146.05 244.629 146.756 244.226 147.356C243.824 147.956 243.252 148.423 242.584 148.698C241.917 148.973 241.182 149.044 240.474 148.903C239.765 148.761 239.115 148.412 238.605 147.9C238.095 147.389 237.747 146.738 237.607 146.029C237.467 145.32 237.54 144.586 237.816 143.919C238.093 143.252 238.562 142.681 239.162 142.28C239.763 141.879 240.469 141.665 241.192 141.665C241.673 141.665 242.148 141.76 242.592 141.944C243.036 142.128 243.44 142.398 243.779 142.738C244.118 143.078 244.387 143.482 244.571 143.927C244.754 144.371 244.847 144.847 244.846 145.328Z" fill="#429EFF"/>
<path d="M315.534 147.492C317.552 147.492 319.188 145.855 319.188 143.837C319.188 141.819 317.552 140.183 315.534 140.183C313.516 140.183 311.879 141.819 311.879 143.837C311.879 145.855 313.516 147.492 315.534 147.492Z" fill="#429EFF"/>
<path d="M79.2953 129.909C79.2953 130.632 79.081 131.338 78.6794 131.939C78.2779 132.54 77.7071 133.009 77.0393 133.285C76.3716 133.562 75.6368 133.634 74.9279 133.493C74.219 133.352 73.5678 133.004 73.0567 132.493C72.5456 131.982 72.1976 131.331 72.0565 130.622C71.9155 129.913 71.9879 129.178 72.2645 128.511C72.5411 127.843 73.0095 127.272 73.6105 126.871C74.2115 126.469 74.918 126.255 75.6408 126.255C76.6094 126.257 77.5376 126.643 78.2225 127.328C78.9073 128.012 79.2931 128.941 79.2953 129.909Z" fill="#429EFF"/>
<path d="M78.4946 85.1437C80.5129 85.1437 82.1491 83.5075 82.1491 81.4892C82.1491 79.4709 80.5129 77.8347 78.4946 77.8347C76.4763 77.8347 74.8401 79.4709 74.8401 81.4892C74.8401 83.5075 76.4763 85.1437 78.4946 85.1437Z" fill="#429EFF"/>
<path d="M41.0637 219.977C41.0637 220.339 40.9563 220.693 40.755 220.994C40.5538 221.295 40.2678 221.53 39.9331 221.669C39.5984 221.807 39.2302 221.844 38.8749 221.773C38.5196 221.702 38.1933 221.528 37.9371 221.272C37.681 221.016 37.5066 220.689 37.4359 220.334C37.3652 219.979 37.4015 219.61 37.5401 219.276C37.6787 218.941 37.9135 218.655 38.2147 218.454C38.5159 218.253 38.87 218.145 39.2322 218.145C39.473 218.144 39.7117 218.191 39.9344 218.282C40.1571 218.374 40.3595 218.509 40.5298 218.679C40.7001 218.849 40.8349 219.052 40.9266 219.274C41.0182 219.497 41.0648 219.736 41.0637 219.977Z" fill="#429EFF"/>
<path d="M71.9863 166.965C71.9863 167.327 71.8789 167.681 71.6777 167.983C71.4764 168.284 71.1904 168.519 70.8557 168.657C70.5211 168.796 70.1528 168.832 69.7975 168.761C69.4423 168.691 69.1159 168.516 68.8598 168.26C68.6036 168.004 68.4292 167.678 68.3585 167.322C68.2879 166.967 68.3241 166.599 68.4628 166.264C68.6014 165.93 68.8361 165.643 69.1373 165.442C69.4385 165.241 69.7926 165.134 70.1548 165.134C70.3957 165.132 70.6343 165.179 70.8571 165.271C71.0798 165.362 71.2821 165.497 71.4524 165.667C71.6227 165.838 71.7576 166.04 71.8492 166.263C71.9409 166.486 71.9875 166.724 71.9863 166.965Z" fill="#429EFF"/>
<path d="M107.449 231.051C107.449 231.413 107.342 231.767 107.141 232.068C106.939 232.37 106.653 232.604 106.319 232.743C105.984 232.882 105.616 232.918 105.261 232.847C104.905 232.776 104.579 232.602 104.323 232.346C104.067 232.09 103.892 231.763 103.822 231.408C103.751 231.053 103.787 230.685 103.926 230.35C104.064 230.015 104.299 229.729 104.6 229.528C104.902 229.327 105.256 229.219 105.618 229.219C105.859 229.218 106.097 229.265 106.32 229.356C106.543 229.448 106.745 229.583 106.915 229.753C107.086 229.924 107.221 230.126 107.312 230.349C107.404 230.571 107.451 230.81 107.449 231.051Z" fill="#429EFF"/>
<path d="M88.7851 166.113C88.7851 166.475 88.6777 166.83 88.4764 167.131C88.2752 167.432 87.9891 167.667 87.6545 167.805C87.3198 167.944 86.9515 167.98 86.5963 167.91C86.241 167.839 85.9146 167.664 85.6585 167.408C85.4024 167.152 85.2279 166.826 85.1573 166.471C85.0866 166.115 85.1229 165.747 85.2615 165.412C85.4001 165.078 85.6349 164.792 85.936 164.59C86.2372 164.389 86.5913 164.282 86.9536 164.282C87.1944 164.281 87.4331 164.327 87.6558 164.419C87.8785 164.511 88.0809 164.645 88.2512 164.816C88.4215 164.986 88.5563 165.188 88.648 165.411C88.7396 165.634 88.7862 165.872 88.7851 166.113Z" fill="#429EFF"/>
<path d="M114.92 124.968C114.922 125.331 114.816 125.686 114.616 125.988C114.415 126.29 114.13 126.526 113.796 126.666C113.461 126.806 113.092 126.844 112.737 126.774C112.381 126.704 112.054 126.531 111.797 126.275C111.54 126.019 111.364 125.693 111.293 125.337C111.222 124.982 111.257 124.613 111.396 124.278C111.534 123.943 111.769 123.656 112.07 123.455C112.372 123.253 112.726 123.145 113.089 123.145C113.573 123.145 114.038 123.337 114.381 123.679C114.724 124.02 114.918 124.484 114.92 124.968Z" fill="#429EFF"/>
<path d="M49.9486 168.78C50.9601 168.78 51.7801 167.96 51.7801 166.948C51.7801 165.937 50.9601 165.117 49.9486 165.117C48.9371 165.117 48.1171 165.937 48.1171 166.948C48.1171 167.96 48.9371 168.78 49.9486 168.78Z" fill="#429EFF"/>
<path d="M295.464 239.067C295.464 239.429 295.357 239.783 295.155 240.084C294.954 240.386 294.668 240.62 294.333 240.759C293.999 240.898 293.631 240.934 293.275 240.863C292.92 240.793 292.594 240.618 292.337 240.362C292.081 240.106 291.907 239.78 291.836 239.424C291.766 239.069 291.802 238.701 291.94 238.366C292.079 238.031 292.314 237.745 292.615 237.544C292.916 237.343 293.27 237.235 293.633 237.235C294.118 237.235 294.584 237.428 294.928 237.772C295.271 238.115 295.464 238.581 295.464 239.067Z" fill="#429EFF"/>
<path d="M282.712 229.492C282.712 229.854 282.604 230.209 282.402 230.51C282.201 230.812 281.914 231.046 281.579 231.185C281.244 231.323 280.875 231.359 280.52 231.287C280.164 231.216 279.838 231.041 279.582 230.784C279.326 230.527 279.153 230.2 279.083 229.844C279.013 229.488 279.051 229.119 279.191 228.785C279.33 228.45 279.567 228.165 279.869 227.965C280.171 227.765 280.526 227.659 280.889 227.66C281.129 227.66 281.367 227.708 281.588 227.8C281.81 227.892 282.011 228.027 282.181 228.197C282.35 228.367 282.484 228.569 282.575 228.791C282.666 229.014 282.713 229.252 282.712 229.492Z" fill="#429EFF"/>
<path d="M309.145 247.696C309.145 248.058 309.038 248.412 308.836 248.714C308.635 249.015 308.349 249.25 308.014 249.388C307.68 249.527 307.311 249.563 306.956 249.492C306.601 249.422 306.274 249.247 306.018 248.991C305.762 248.735 305.588 248.409 305.517 248.053C305.446 247.698 305.483 247.33 305.621 246.995C305.76 246.661 305.995 246.374 306.296 246.173C306.597 245.972 306.951 245.865 307.313 245.865C307.554 245.863 307.793 245.91 308.016 246.002C308.238 246.093 308.441 246.228 308.611 246.399C308.781 246.569 308.916 246.771 309.008 246.994C309.099 247.217 309.146 247.455 309.145 247.696Z" fill="#429EFF"/>
<path d="M237.146 249.408C237.146 249.771 237.038 250.125 236.837 250.426C236.636 250.727 236.35 250.962 236.015 251.101C235.68 251.239 235.312 251.275 234.957 251.205C234.601 251.134 234.275 250.96 234.019 250.704C233.763 250.447 233.588 250.121 233.518 249.766C233.447 249.41 233.483 249.042 233.622 248.708C233.761 248.373 233.995 248.087 234.296 247.886C234.598 247.684 234.952 247.577 235.314 247.577C235.8 247.577 236.266 247.77 236.609 248.113C236.953 248.457 237.146 248.923 237.146 249.408Z" fill="#429EFF"/>
<path d="M248.748 277.52C248.748 277.882 248.64 278.237 248.439 278.538C248.237 278.84 247.95 279.074 247.615 279.213C247.28 279.351 246.911 279.387 246.556 279.315C246.2 279.244 245.874 279.069 245.618 278.812C245.363 278.555 245.189 278.228 245.119 277.872C245.049 277.516 245.087 277.148 245.227 276.813C245.367 276.479 245.603 276.193 245.905 275.993C246.207 275.793 246.562 275.687 246.925 275.688C247.409 275.691 247.873 275.885 248.214 276.228C248.556 276.571 248.748 277.036 248.748 277.52Z" fill="#429EFF"/>
<path d="M228.439 269.018C228.441 269.381 228.335 269.737 228.134 270.039C227.934 270.342 227.648 270.578 227.313 270.717C226.978 270.857 226.609 270.894 226.253 270.824C225.897 270.753 225.57 270.579 225.313 270.322C225.056 270.065 224.882 269.738 224.811 269.382C224.741 269.026 224.778 268.657 224.918 268.322C225.057 267.987 225.293 267.701 225.596 267.5C225.898 267.3 226.254 267.194 226.616 267.195C227.1 267.195 227.564 267.387 227.906 267.729C228.247 268.071 228.439 268.535 228.439 269.018Z" fill="#429EFF"/>
<path d="M110.124 104.481C110.126 104.844 110.02 105.198 109.82 105.501C109.62 105.803 109.334 106.039 109 106.179C108.665 106.319 108.297 106.357 107.941 106.287C107.585 106.217 107.258 106.043 107.001 105.788C106.744 105.532 106.568 105.205 106.497 104.85C106.426 104.494 106.461 104.126 106.6 103.791C106.738 103.455 106.973 103.169 107.274 102.967C107.576 102.766 107.93 102.658 108.293 102.658C108.777 102.658 109.242 102.85 109.585 103.191C109.928 103.533 110.122 103.997 110.124 104.481Z" fill="#429EFF"/>
<path d="M153.339 83.2356C153.341 83.5982 153.235 83.9531 153.035 84.2554C152.835 84.5577 152.549 84.7938 152.215 84.9337C151.88 85.0737 151.512 85.1111 151.156 85.0414C150.8 84.9717 150.473 84.798 150.216 84.5422C149.959 84.2864 149.783 83.9601 149.712 83.6046C149.641 83.2491 149.676 82.8804 149.815 82.5452C149.953 82.21 150.188 81.9235 150.489 81.7219C150.791 81.5202 151.145 81.4126 151.508 81.4126C151.992 81.4126 152.457 81.6044 152.8 81.946C153.143 82.2877 153.337 82.7513 153.339 83.2356Z" fill="#429EFF"/>
<path d="M206.828 78.2096C206.828 78.5718 206.72 78.9259 206.519 79.2271C206.318 79.5283 206.032 79.763 205.697 79.9016C205.362 80.0403 204.994 80.0765 204.639 80.0059C204.284 79.9352 203.957 79.7608 203.701 79.5046C203.445 79.2485 203.271 78.9221 203.2 78.5669C203.129 78.2116 203.165 77.8433 203.304 77.5087C203.443 77.174 203.677 76.888 203.979 76.6867C204.28 76.4855 204.634 76.3781 204.996 76.3781C205.482 76.3781 205.948 76.571 206.291 76.9145C206.635 77.258 206.828 77.7238 206.828 78.2096Z" fill="#429EFF"/>
<path d="M290.983 34.3556C290.985 34.7182 290.879 35.0731 290.679 35.3754C290.479 35.6777 290.193 35.9138 289.859 36.0537C289.524 36.1937 289.156 36.2311 288.8 36.1614C288.444 36.0917 288.117 35.918 287.86 35.6622C287.603 35.4064 287.427 35.0801 287.356 34.7246C287.285 34.369 287.32 34.0003 287.459 33.6652C287.597 33.33 287.832 33.0435 288.133 32.8419C288.435 32.6402 288.789 32.5326 289.152 32.5326C289.636 32.5326 290.101 32.7244 290.444 33.066C290.787 33.4076 290.981 33.8713 290.983 34.3556Z" fill="#429EFF"/>
<path d="M150.46 31.3826C150.46 31.7449 150.353 32.099 150.151 32.4002C149.95 32.7014 149.664 32.9361 149.329 33.0747C148.995 33.2134 148.626 33.2496 148.271 33.179C147.916 33.1083 147.59 32.9339 147.333 32.6777C147.077 32.4216 146.903 32.0952 146.832 31.74C146.761 31.3847 146.798 31.0164 146.936 30.6818C147.075 30.3471 147.31 30.0611 147.611 29.8598C147.912 29.6586 148.266 29.5511 148.628 29.5511C149.113 29.5534 149.578 29.7471 149.921 30.0901C150.264 30.433 150.458 30.8976 150.46 31.3826Z" fill="#429EFF"/>
<path d="M129.547 232.661C129.547 232.661 129.47 232.593 129.334 232.448L128.729 231.809L126.454 229.313C125.96 228.759 125.39 228.172 124.827 227.482L122.996 225.216C122.348 224.364 121.624 223.554 120.917 222.6L118.737 219.551C115.181 214.514 112.123 209.145 109.605 203.519C106.543 196.611 104.403 189.33 103.241 181.864C102.866 179.888 102.739 177.903 102.509 175.961L102.33 173.056C102.33 172.579 102.27 172.093 102.245 171.625C102.219 171.156 102.245 170.671 102.245 170.194C102.245 169.251 102.245 168.314 102.245 167.383L102.347 164.623C102.347 163.711 102.432 162.808 102.509 161.922C102.585 161.036 102.662 160.159 102.73 159.29C103.393 153.162 104.654 147.113 106.495 141.23C107.722 137.265 109.234 133.393 111.019 129.645C111.658 128.316 112.194 127.311 112.578 126.638C112.765 126.297 112.918 126.05 113.021 125.88C113.123 125.709 113.182 125.624 113.191 125.633C113.154 125.724 113.112 125.812 113.063 125.897L112.654 126.681C112.296 127.362 111.802 128.384 111.181 129.713C109.457 133.48 107.991 137.359 106.793 141.324C104.986 147.184 103.742 153.202 103.079 159.298C103.011 160.15 102.935 161.002 102.866 161.922C102.798 162.842 102.73 163.703 102.713 164.606C102.696 165.508 102.645 166.428 102.611 167.349C102.577 168.269 102.611 169.214 102.611 170.151C102.611 170.62 102.611 171.097 102.611 171.574C102.611 172.051 102.67 172.519 102.696 172.996L102.875 175.893C103.113 177.826 103.241 179.794 103.607 181.762C104.766 189.192 106.885 196.439 109.911 203.323C112.405 208.933 115.423 214.295 118.924 219.338L121.071 222.396C121.769 223.35 122.485 224.21 123.124 225.028L124.921 227.311C125.475 228.01 126.037 228.606 126.514 229.16L128.729 231.715L129.3 232.388C129.487 232.559 129.555 232.652 129.547 232.661Z" fill="#429EFF"/>
<path d="M49.8975 171.497C49.8882 171.415 49.8882 171.332 49.8975 171.25V170.526C49.8975 169.853 49.8975 168.916 49.9572 167.732C49.9572 167.127 49.9572 166.446 50.0083 165.713C50.0594 164.98 50.102 164.18 50.1616 163.319C50.2809 161.615 50.3661 159.639 50.6216 157.484C50.7409 156.411 50.8601 155.278 50.9794 154.076C51.0987 152.875 51.3116 151.683 51.4905 150.422C51.8057 147.866 52.3424 145.217 52.8365 142.397C55.2332 130.174 59.0172 118.265 64.1151 106.9C65.3333 104.302 66.4492 101.789 67.6504 99.5658C68.2381 98.4328 68.7748 97.3253 69.3541 96.2946L71.0578 93.3216C72.0886 91.4134 73.1534 89.7608 74.0393 88.2871C74.4993 87.5545 74.8912 86.8645 75.3086 86.2426L76.4245 84.5389L77.992 82.2218L78.4009 81.6255C78.4481 81.56 78.4993 81.4974 78.5542 81.4381C78.5297 81.5149 78.4922 81.5869 78.4435 81.6511L78.0601 82.2729L76.5694 84.6326L75.4875 86.3363L74.2523 88.3893C73.4004 89.8715 72.3441 91.5327 71.3304 93.4494L69.7033 96.4224C69.1326 97.4617 68.6044 98.5776 67.9996 99.7106C66.824 101.959 65.7166 104.447 64.5155 107.045C62.0223 112.729 59.816 118.535 57.905 124.44C56.0567 130.361 54.51 136.371 53.2709 142.449C52.7427 145.26 52.2146 147.926 51.8738 150.448C51.695 151.708 51.4905 152.918 51.3457 154.093C51.2009 155.269 51.0901 156.394 50.9624 157.501C50.6812 159.648 50.579 161.607 50.4342 163.319C50.3661 164.171 50.3064 164.972 50.2468 165.713C50.1872 166.454 50.1786 167.11 50.1531 167.723C50.0935 168.907 50.0423 169.836 50.0083 170.509C50.0083 170.807 50.0083 171.046 50.0083 171.233C49.9824 171.325 49.9452 171.414 49.8975 171.497Z" fill="#429EFF"/>
<path d="M224.325 66.1216C224.107 66.0857 223.893 66.0286 223.686 65.9513L221.863 65.389C221.079 65.1249 220.117 64.8268 218.984 64.5372C217.851 64.2475 216.573 63.8472 215.125 63.5405L212.867 63.0208C212.084 62.842 211.257 62.7057 210.406 62.5438C208.702 62.1945 206.87 61.956 204.937 61.6919C200.737 61.1784 196.509 60.9252 192.278 60.9338C188.046 60.9916 183.821 61.3074 179.628 61.8794C177.703 62.186 175.871 62.4501 174.176 62.8249C173.324 63.0038 172.472 63.1486 171.714 63.336L169.465 63.8983C168.025 64.222 166.756 64.6394 165.632 64.9546C164.507 65.2698 163.536 65.585 162.761 65.8575L160.946 66.4539C160.738 66.5279 160.524 66.5877 160.307 66.6327C160.502 66.5231 160.708 66.4346 160.921 66.3687L162.701 65.6957C163.476 65.3975 164.405 65.0568 165.555 64.7161C166.705 64.3753 167.949 63.9409 169.388 63.5916L171.637 63.0038C172.421 62.8079 173.247 62.6545 174.099 62.4671C175.803 62.0753 177.643 61.7942 179.577 61.479C187.996 60.2275 196.55 60.1615 204.988 61.283C206.921 61.5727 208.77 61.8197 210.474 62.186C211.326 62.3649 212.177 62.5012 212.944 62.6886L215.202 63.2423C216.65 63.566 217.919 63.9835 219.052 64.3072C220.185 64.6309 221.148 64.9546 221.923 65.2442L223.712 65.8831C223.924 65.9414 224.129 66.0213 224.325 66.1216Z" fill="#429EFF"/>
<path d="M257.556 104.924C257.399 104.785 257.256 104.631 257.13 104.464C256.832 104.123 256.449 103.672 255.972 103.101L255.12 102.113C254.813 101.764 254.455 101.397 254.081 100.988C253.322 100.196 252.505 99.242 251.525 98.3049L249.958 96.7971C249.404 96.2775 248.79 95.7834 248.186 95.2468C246.976 94.1564 245.579 93.1171 244.131 92.0012C237.733 87.2698 230.581 83.6525 222.979 81.3018C221.216 80.7992 219.572 80.288 217.953 79.9643C217.161 79.7854 216.403 79.5895 215.653 79.4532L213.515 79.0869C212.152 78.8143 210.9 78.7206 209.809 78.5843C209.264 78.5162 208.753 78.448 208.284 78.4054L207.007 78.3714L205.226 78.2436C205.017 78.2397 204.808 78.214 204.604 78.1669C204.811 78.1464 205.019 78.1464 205.226 78.1669H207.015H208.31C208.787 78.1669 209.298 78.2521 209.843 78.3032C210.942 78.4139 212.203 78.4906 213.574 78.7377L215.73 79.0869C216.479 79.2062 217.246 79.4021 218.047 79.5725C219.657 79.8792 221.335 80.4243 223.107 80.8758C230.777 83.197 237.984 86.8379 244.403 91.6349C245.852 92.7764 247.257 93.8241 248.458 94.9316C249.063 95.4853 249.676 95.9879 250.222 96.516L251.781 98.0494C252.786 99.0035 253.595 99.9746 254.336 100.792C254.694 101.201 255.052 101.576 255.35 101.942C255.648 102.309 255.912 102.649 256.151 102.965C256.611 103.544 257.002 104.021 257.249 104.379C257.368 104.551 257.471 104.733 257.556 104.924Z" fill="#429EFF"/>
<path d="M275.777 81.7789C275.712 81.7348 275.652 81.6834 275.599 81.6256L275.096 81.1485L273.205 79.2829L271.842 77.9285C271.331 77.4429 270.76 76.9488 270.138 76.3951C268.911 75.3133 267.583 74.0099 265.938 72.7491L263.383 70.7132C262.531 70.0061 261.534 69.3502 260.563 68.6261C258.638 67.1524 256.44 65.7724 254.157 64.2816C249.152 61.1721 243.928 58.4305 238.526 56.0782C233.065 53.808 227.448 51.9347 221.718 50.4729C219.06 49.8681 216.539 49.2462 214.137 48.8885C212.944 48.6925 211.794 48.4455 210.678 48.3092L207.467 47.9173C205.422 47.6192 203.557 47.5596 201.921 47.4233C201.069 47.3721 200.345 47.304 199.638 47.2699H197.721L195.063 47.2018H194.373H194.135C194.214 47.1884 194.295 47.1884 194.373 47.2018H195.063H197.721H199.647C200.354 47.2018 201.112 47.2699 201.938 47.3125C203.574 47.4233 205.448 47.4659 207.501 47.7385L210.729 48.1048C211.845 48.2411 213.004 48.4711 214.205 48.6585C216.616 49.0077 219.146 49.6211 221.812 50.2089C233.352 52.9706 244.365 57.5913 254.421 63.8898C256.704 65.3976 258.902 66.7946 260.827 68.2854C261.798 69.018 262.761 69.6824 263.638 70.398L266.143 72.468C267.77 73.7458 269.099 75.0236 270.317 76.1736C270.922 76.7273 271.493 77.2385 272.021 77.7325L273.358 79.1211L275.198 81.0463L275.667 81.5574C275.715 81.625 275.752 81.6998 275.777 81.7789Z" fill="#429EFF"/>
<path d="M334.922 165.9C334.912 165.827 334.912 165.752 334.922 165.679V165.006C334.922 164.392 334.922 163.532 334.871 162.45C334.871 161.888 334.871 161.275 334.871 160.602C334.871 159.929 334.803 159.188 334.769 158.395C334.675 156.819 334.641 154.988 334.428 153.046C334.343 152.057 334.258 151.018 334.156 149.936C334.053 148.854 333.892 147.739 333.747 146.58C333.491 144.263 333.048 141.801 332.614 139.211C331.546 133.623 330.164 128.1 328.474 122.668C326.742 117.24 324.709 111.914 322.383 106.713C321.258 104.336 320.228 102.062 319.112 100.009C318.567 98.9779 318.072 97.9557 317.536 97.0186L315.985 94.3097C315.031 92.606 314.043 91.0641 313.217 89.7181L312.05 87.8526L311.011 86.3192L309.588 84.1896L309.222 83.6273L309.111 83.4314C311.706 86.8571 314.093 90.4357 316.258 94.1478L317.834 96.8482C318.379 97.7938 318.882 98.8075 319.435 99.8383C320.568 101.891 321.616 104.166 322.749 106.542C325.11 111.749 327.161 117.091 328.891 122.54C330.57 128.005 331.929 133.563 332.963 139.186C333.38 141.741 333.815 144.246 334.053 146.58C334.19 147.747 334.352 148.863 334.437 149.945C334.522 151.027 334.607 152.074 334.684 153.063C335.015 157.333 335.094 161.62 334.922 165.9Z" fill="#429EFF"/>
<path d="M316.147 143.837C316.177 143.972 316.2 144.109 316.215 144.246C316.258 144.544 316.309 144.944 316.369 145.456C316.48 146.52 316.744 148.088 316.871 150.124C317.355 155.855 317.474 161.611 317.229 167.357C317.101 171.003 316.769 174.981 316.301 179.24C315.832 183.5 315.099 188.023 314.043 192.725C313.805 193.91 313.541 195.102 313.191 196.295L312.28 199.924C311.573 202.343 310.891 204.83 310.014 207.301C308.313 212.445 306.214 217.45 303.736 222.268C301.216 227.063 298.37 231.68 295.217 236.085C292.265 240.176 289.082 244.095 285.685 247.824C279.934 254.135 273.615 259.904 266.807 265.057C262.237 268.551 257.433 271.728 252.428 274.564C250.682 275.612 249.242 276.268 248.296 276.787L247.215 277.341C246.968 277.469 246.84 277.52 246.84 277.52C246.84 277.52 246.95 277.443 247.189 277.307L248.254 276.711C249.182 276.174 250.605 275.484 252.343 274.419C257.307 271.524 262.082 268.314 266.637 264.81C273.388 259.627 279.66 253.848 285.378 247.543C288.753 243.82 291.916 239.909 294.851 235.83C297.989 231.441 300.821 226.842 303.327 222.064C305.793 217.265 307.887 212.284 309.588 207.165C310.44 204.703 311.147 202.224 311.854 199.813C312.161 198.595 312.467 197.385 312.774 196.193C313.081 195 313.353 193.816 313.626 192.64C314.691 187.955 315.329 183.432 315.917 179.198C316.505 174.964 316.769 170.977 316.897 167.348C317.17 161.611 317.096 155.861 316.675 150.132C316.582 148.105 316.343 146.537 316.267 145.473C316.215 144.953 316.181 144.544 316.156 144.254C316.13 143.965 316.147 143.837 316.147 143.837Z" fill="#429EFF"/>
<path d="M277.405 107.13C277.405 107.13 277.49 107.207 277.635 107.386L278.282 108.152C278.827 108.843 279.705 109.814 280.701 111.177C283.576 114.955 286.167 118.942 288.453 123.103C289.927 125.726 291.35 128.699 292.772 131.937C294.245 135.402 295.527 138.945 296.614 142.551C297.823 146.535 298.773 150.592 299.459 154.698C300.213 159.106 300.657 163.56 300.788 168.03C300.904 172.497 300.742 176.966 300.303 181.413C299.835 185.552 299.118 189.66 298.156 193.714C295.366 205.199 290.454 216.062 283.674 225.744C282.737 227.141 281.902 228.146 281.383 228.861L280.761 229.654C280.696 229.747 280.625 229.835 280.548 229.918C280.595 229.814 280.655 229.717 280.727 229.628L281.306 228.776C281.8 228.052 282.618 227.03 283.529 225.616C286.197 221.703 288.58 217.603 290.66 213.349C293.754 207.042 296.136 200.411 297.764 193.577C298.707 189.554 299.406 185.477 299.86 181.37C300.296 176.94 300.455 172.488 300.337 168.038C300.205 163.592 299.761 159.16 299.008 154.775C298.335 150.684 297.399 146.64 296.205 142.67C295.134 139.076 293.871 135.541 292.423 132.081C291.009 128.853 289.612 125.88 288.164 123.256C285.911 119.091 283.369 115.089 280.556 111.279C279.585 109.907 278.733 108.919 278.205 108.212L277.592 107.411C277.521 107.324 277.458 107.23 277.405 107.13Z" fill="#429EFF"/>
<path d="M241.192 305.614L240.732 305.725L239.386 306.006C238.202 306.245 236.447 306.628 234.181 307.003C227.774 308.122 221.314 308.909 214.827 309.362C205.204 310.055 195.543 310.035 185.923 309.303C180.497 308.894 174.806 308.264 168.962 307.292C162.922 306.321 156.937 305.036 151.031 303.442C139.585 300.383 128.699 295.523 118.779 289.045C114.461 286.224 110.306 283.161 106.333 279.871C102.577 276.855 99.2545 273.746 96.2644 270.892C90.3014 265.168 85.9058 260.193 82.8817 256.717C81.3739 255.014 80.2324 253.608 79.4742 252.671L78.6224 251.606L78.3412 251.24L78.665 251.581L79.5679 252.62C80.3602 253.531 81.5272 254.886 83.0606 256.607C86.1102 260.014 90.591 264.98 96.52 270.671C99.5015 273.508 102.824 276.549 106.581 279.59C110.556 282.854 114.708 285.897 119.018 288.705C123.787 291.79 128.778 294.518 133.951 296.866C139.514 299.378 145.271 301.435 151.167 303.016C157.06 304.607 163.031 305.892 169.056 306.866C174.891 307.838 180.565 308.476 185.983 308.894C195.584 309.64 205.227 309.691 214.835 309.047C223.039 308.511 229.641 307.574 234.173 306.832C236.447 306.483 238.202 306.134 239.394 305.921L240.749 305.682L241.192 305.614Z" fill="#429EFF"/>
<path d="M194.084 291.235C190.206 291.439 186.319 291.39 182.447 291.09L179.628 290.869C178.648 290.792 177.643 290.639 176.587 290.511C174.482 290.289 172.259 289.872 169.916 289.472C159.747 287.567 149.897 284.241 140.655 279.59C138.551 278.491 136.523 277.469 134.692 276.37C133.78 275.833 132.886 275.339 132.051 274.811L129.683 273.278C126.409 271.173 123.279 268.854 120.312 266.335L120.483 266.446L120.977 266.795L122.834 268.175L124.163 269.189C124.657 269.547 125.211 269.913 125.798 270.322C126.974 271.122 128.277 272.085 129.819 273.014L132.196 274.521C133.048 275.041 133.9 275.518 134.837 276.055C136.651 277.137 138.67 278.133 140.8 279.224C150.031 283.806 159.84 287.119 169.959 289.071C172.293 289.48 174.508 289.923 176.604 290.145C177.651 290.281 178.657 290.443 179.628 290.528L182.439 290.783C184.219 290.971 185.846 290.996 187.269 291.073C187.984 291.073 188.64 291.15 189.254 291.167H190.957H193.275H193.879L194.084 291.235Z" fill="#429EFF"/>
<path d="M165.069 268.661C165.069 268.661 164.814 268.661 164.328 268.558L162.216 268.175L160.691 267.894C160.137 267.775 159.541 267.621 158.893 267.468C157.616 267.136 156.133 266.829 154.549 266.309L152.044 265.543C151.193 265.27 150.29 264.921 149.37 264.589C147.504 263.958 145.587 263.106 143.56 262.246C134.8 258.323 126.727 253.02 119.648 246.538C118.055 245.013 116.513 243.599 115.193 242.142C114.528 241.418 113.847 240.753 113.259 240.063L111.555 238.07C110.439 236.818 109.571 235.583 108.761 234.535C108.361 234.007 107.978 233.521 107.654 233.061L106.802 231.766L105.635 230.003C105.488 229.802 105.359 229.588 105.252 229.364C105.419 229.552 105.573 229.751 105.712 229.96L106.964 231.664L107.858 232.925C108.199 233.376 108.591 233.853 108.991 234.373C109.843 235.404 110.695 236.622 111.828 237.857L113.532 239.825C114.128 240.506 114.801 241.162 115.474 241.878C116.794 243.318 118.345 244.723 119.946 246.231C127.02 252.646 135.05 257.92 143.747 261.863C145.766 262.715 147.666 263.566 149.514 264.239C150.434 264.572 151.303 264.929 152.172 265.21L154.651 265.994C156.227 266.539 157.701 266.846 158.97 267.212C159.609 267.383 160.205 267.553 160.759 267.681L162.267 268.005L164.362 268.456C164.604 268.502 164.841 268.57 165.069 268.661Z" fill="#429EFF"/>
<path d="M197.875 329.978C197.785 330.001 197.694 330.015 197.602 330.02L196.75 330.088L193.641 330.344L191.392 330.506C190.54 330.506 189.688 330.557 188.709 330.582C186.783 330.582 184.586 330.727 182.158 330.582L178.358 330.472C177.03 330.429 175.658 330.276 174.235 330.173C171.39 330.012 168.366 329.577 165.189 329.168C151.387 327.156 137.969 323.069 125.39 317.046C122.519 315.607 119.767 314.286 117.314 312.838C116.079 312.122 114.852 311.484 113.728 310.785L110.508 308.758C108.429 307.505 106.674 306.202 105.09 305.086C104.306 304.524 103.565 304.021 102.9 303.527L101.129 302.13L98.6837 300.188L98.0534 299.677C97.9171 299.558 97.8404 299.498 97.8489 299.489C97.8574 299.481 97.9341 299.489 98.0789 299.643L98.7348 300.12L101.231 301.994L103.028 303.357C103.693 303.842 104.442 304.328 105.235 304.882C106.828 305.955 108.591 307.258 110.678 308.485L113.907 310.487C115.031 311.177 116.249 311.807 117.493 312.514C119.946 313.945 122.698 315.257 125.56 316.68C138.128 322.652 151.506 326.742 165.265 328.819C168.434 329.236 171.441 329.671 174.287 329.858C175.701 329.969 177.072 330.131 178.393 330.182L182.183 330.318C184.603 330.463 186.792 330.318 188.717 330.318C189.68 330.318 190.574 330.318 191.4 330.318L193.649 330.182L196.767 330.02H197.619L197.875 329.978Z" fill="#429EFF"/>
<path d="M75.6408 129.909C75.5982 130.028 67.5055 127.03 57.5643 123.213C47.623 119.397 39.5985 116.211 39.6752 116.1C39.7518 115.99 47.8105 118.988 57.7602 122.796C67.71 126.604 75.6834 129.798 75.6408 129.909Z" fill="#429EFF"/>
<path d="M108.863 103.663C108.863 103.663 108.812 103.74 108.693 103.876L108.156 104.472C107.696 105.009 106.947 105.733 106.103 106.781C103.645 109.648 101.436 112.72 99.5015 115.964C96.6621 120.782 94.3351 125.884 92.5588 131.187C90.4011 137.702 88.9168 144.422 88.1292 151.24C87.4911 156.456 87.2774 161.715 87.4903 166.965V167.195H87.2688L60.5458 167.11L52.8194 167.016H50.7579L50.2639 166.965C50.2045 166.972 50.1444 166.972 50.085 166.965C50.085 166.965 50.1446 166.965 50.2639 166.965H50.8005H52.862L60.5969 166.897L87.3199 166.82L87.1069 167.05C86.8825 161.795 87.0905 156.529 87.7288 151.308C88.5224 144.46 90.0269 137.714 92.2181 131.178C94.0134 125.841 96.3811 120.715 99.28 115.887C101.245 112.643 103.501 109.584 106.018 106.747C106.87 105.716 107.654 105.043 108.139 104.498L108.702 103.927C108.787 103.723 108.855 103.655 108.863 103.663Z" fill="#429EFF"/>
<path d="M128.354 233.888C128.151 234.211 127.917 234.513 127.656 234.79C127.179 235.353 126.48 236.145 125.594 237.116C123.831 239.058 121.335 241.682 118.43 244.459C115.525 247.236 112.808 249.63 110.763 251.274C109.749 252.126 108.923 252.782 108.344 253.233C108.058 253.486 107.747 253.709 107.415 253.898C107.671 253.603 107.957 253.334 108.267 253.097L110.584 251.036C112.544 249.289 115.235 246.861 118.123 244.093C121.011 241.324 123.541 238.743 125.364 236.861L127.528 234.629C127.777 234.354 128.054 234.105 128.354 233.888Z" fill="#429EFF"/>
<path d="M121.011 264.376C121.113 264.435 116.189 272.52 110.013 282.427C103.837 292.334 98.7433 300.316 98.6411 300.256C98.5389 300.197 103.463 292.104 109.639 282.197C115.815 272.29 120.909 264.308 121.011 264.376Z" fill="#429EFF"/>
<path d="M162.165 270.271C162.055 270.708 161.91 271.135 161.73 271.548C161.398 272.443 160.955 273.601 160.427 274.998C159.319 277.912 157.812 281.933 156.227 286.405C154.643 290.877 153.271 294.923 152.3 297.914L151.141 301.415C151.021 301.851 150.861 302.276 150.664 302.684C150.734 302.237 150.836 301.795 150.971 301.364C151.201 300.512 151.55 299.311 152.002 297.82C152.854 294.838 154.217 290.741 155.81 286.26C157.403 281.779 158.953 277.741 160.137 274.888C160.725 273.44 161.219 272.281 161.577 271.48C161.735 271.06 161.932 270.655 162.165 270.271Z" fill="#429EFF"/>
<path d="M237.444 306.347C237.376 306.233 237.324 306.109 237.29 305.981C237.197 305.683 237.077 305.325 236.933 304.899L235.689 300.887C234.667 297.479 233.27 292.811 231.762 287.623C230.254 282.435 228.908 277.707 227.954 274.3C227.502 272.639 227.102 271.276 226.846 270.254L226.599 269.189C226.567 269.06 226.544 268.929 226.531 268.797C226.531 268.797 226.599 268.916 226.693 269.163C226.787 269.41 226.906 269.819 227.051 270.245C227.366 271.259 227.784 272.613 228.286 274.257C229.317 277.665 230.714 282.333 232.222 287.521C233.73 292.709 235.075 297.411 236.03 300.827C236.481 302.48 236.881 303.843 237.128 304.873L237.41 305.981C237.439 306.101 237.45 306.224 237.444 306.347Z" fill="#429EFF"/>
<path d="M246.133 276.677C246.013 276.677 243.5 270.407 240.519 262.57C237.537 254.733 235.203 248.344 235.314 248.301C235.425 248.258 237.946 254.571 240.928 262.408C243.909 270.245 246.243 276.634 246.133 276.677Z" fill="#429EFF"/>
<path d="M307.382 247.347C306.974 247.209 306.578 247.038 306.198 246.836C305.448 246.486 304.375 245.984 303.071 245.26C300.447 243.888 296.887 241.852 293.121 239.382C289.356 236.911 286.102 234.398 283.819 232.524C282.669 231.587 281.758 230.821 281.144 230.258C280.805 230.008 280.494 229.723 280.216 229.407C280.581 229.633 280.928 229.886 281.255 230.165L284.015 232.311C286.349 234.117 289.612 236.571 293.385 239.041C297.159 241.512 300.66 243.573 303.233 245.004L306.291 246.708C306.674 246.887 307.039 247.101 307.382 247.347Z" fill="#429EFF"/>
<path d="M346.976 214.729C346.976 214.848 338.168 212.778 327.383 210.112C316.599 207.446 307.85 205.18 307.884 205.06C307.918 204.941 316.684 207.011 327.477 209.677C338.27 212.344 347.002 214.61 346.976 214.729Z" fill="#429EFF"/>
<path d="M336.796 166.403C336.796 166.531 329.13 166.718 319.674 166.829C310.218 166.94 302.543 166.931 302.535 166.829C302.526 166.727 310.201 166.514 319.666 166.403C329.13 166.292 336.796 166.284 336.796 166.403Z" fill="#429EFF"/>
<path d="M315.534 143.743C315.534 143.863 298.897 144.254 278.367 144.595C257.837 144.936 241.192 145.149 241.192 145.03C241.192 144.91 257.829 144.519 278.367 144.178C298.906 143.837 315.534 143.624 315.534 143.743Z" fill="#429EFF"/>
<path d="M345.809 114.064C345.694 114.135 345.571 114.192 345.443 114.235L344.361 114.627L340.391 116.041C337.035 117.233 332.409 118.903 327.341 120.845C322.272 122.788 317.706 124.636 314.418 125.956L310.516 127.558L309.452 127.984C309.33 128.04 309.201 128.08 309.068 128.103C309.068 128.103 309.179 128.018 309.418 127.899L310.448 127.405C311.351 126.979 312.663 126.382 314.299 125.701C317.561 124.27 322.102 122.379 327.179 120.428C332.256 118.477 336.907 116.859 340.289 115.743C341.993 115.189 343.356 114.754 344.31 114.465L345.409 114.15C345.537 114.101 345.672 114.073 345.809 114.064Z" fill="#429EFF"/>
<path d="M280.548 81.6596C280.625 81.7533 275.684 86.2341 269.516 91.669C263.349 97.1038 258.272 101.44 258.195 101.346C258.118 101.252 263.051 96.7716 269.218 91.3367C275.386 85.9018 280.463 81.5659 280.548 81.6596Z" fill="#429EFF"/>
<path d="M288.377 34.7645C288.479 34.8412 283.487 42.0139 277.234 50.7966C270.982 59.5793 265.828 66.6327 265.726 66.5646C265.623 66.4964 270.615 59.3152 276.876 50.5325C283.138 41.7498 288.274 34.6964 288.377 34.7645Z" fill="#429EFF"/>
<path d="M193.453 45.2425C193.429 45.1044 193.429 44.9632 193.453 44.8251C193.453 44.5014 193.453 44.1095 193.496 43.6325C193.547 42.525 193.607 41.0769 193.692 39.2368C193.837 35.5227 193.948 30.3945 193.828 24.7552C193.709 19.1158 193.377 13.9621 193.07 10.2735L192.695 5.89493L192.593 4.70233C192.571 4.56409 192.571 4.42315 192.593 4.28491C192.649 4.41449 192.68 4.55299 192.687 4.69381C192.738 5.009 192.789 5.40085 192.866 5.8779C193.01 6.90013 193.189 8.43348 193.385 10.248C193.769 13.945 194.152 19.0818 194.237 24.7296C194.322 30.3775 194.195 35.5483 193.965 39.2624C193.854 41.1195 193.743 42.6187 193.632 43.658L193.505 44.8506C193.499 44.9825 193.482 45.1136 193.453 45.2425Z" fill="#429EFF"/>
<path d="M151.278 83.1163C151.017 82.8402 150.786 82.5375 150.588 82.2133C150.17 81.617 149.591 80.7481 148.884 79.6577C147.478 77.477 145.613 74.4018 143.696 70.9262C141.779 67.4506 140.186 64.222 139.096 61.8623C138.551 60.6868 138.116 59.7242 137.844 59.0512C137.678 58.7123 137.544 58.3587 137.443 57.9949C137.66 58.3052 137.846 58.6362 137.997 58.983L139.377 61.726C140.544 64.0516 142.18 67.2376 144.088 70.7132C145.996 74.1888 147.819 77.2725 149.199 79.4959L150.775 82.1281C150.974 82.4408 151.142 82.7717 151.278 83.1163Z" fill="#429EFF"/>
<path d="M253.178 133.836C253.171 133.74 253.171 133.643 253.178 133.547V132.695C253.178 131.962 253.178 130.931 253.135 129.619C253.135 126.945 253.084 123.128 253.041 118.452L253.212 118.622L224.197 118.673C224.001 118.877 224.47 118.409 224.419 118.46V126.374C224.419 128.929 224.419 131.425 224.419 133.794L224.206 133.581L245.008 133.683L251.031 133.742H252.641H253.22C253.044 133.755 252.868 133.755 252.692 133.742H251.116L245.153 133.794L224.214 133.896H224.01V133.691C224.01 131.323 224.01 128.836 224.01 126.272C224.01 124.985 224.01 123.716 224.01 122.362V118.358C223.959 118.4 224.427 117.932 224.231 118.128L253.246 118.187H253.416V118.349C253.416 123.069 253.348 126.919 253.322 129.619C253.322 130.914 253.322 131.928 253.28 132.661C253.28 132.984 253.28 133.24 253.28 133.444C253.264 133.579 253.23 133.711 253.178 133.836Z" fill="#429EFF"/>
<path d="M248.075 123.844C248.075 123.963 243.569 124.065 238.006 124.065C232.443 124.065 227.945 123.963 227.945 123.844C227.945 123.725 232.452 123.622 238.006 123.622C243.56 123.622 248.075 123.725 248.075 123.844Z" fill="#429EFF"/>
<path d="M248.075 127.149C248.075 127.268 243.569 127.371 238.006 127.371C232.443 127.371 227.945 127.268 227.945 127.149C227.945 127.03 232.452 126.928 238.006 126.928C243.56 126.928 248.075 127.03 248.075 127.149Z" fill="#429EFF"/>
<path d="M241.192 133.495C241.41 134.867 241.485 136.257 241.413 137.644C241.484 139.028 241.41 140.416 241.192 141.784C240.973 140.416 240.899 139.028 240.97 137.644C240.899 136.257 240.973 134.867 241.192 133.495Z" fill="#429EFF"/>
<path d="M359.09 201.04C359.09 201.04 359.09 200.937 359.09 200.75C359.09 200.563 359.09 200.273 359.09 199.898C359.09 199.166 359.09 198.135 359.047 196.823C359.047 194.148 358.996 190.34 358.962 185.655L359.124 185.825L330.16 185.877C329.956 186.081 330.425 185.612 330.382 185.664V187.665C330.382 188.338 330.382 189.003 330.382 189.667V193.577C330.382 196.133 330.382 198.629 330.382 200.997L330.177 200.784L350.971 200.886L356.994 200.946H358.613H359.183C359.01 200.958 358.837 200.958 358.664 200.946H357.088L351.125 200.997L330.186 201.099H329.973V201.04C329.973 198.672 329.973 196.184 329.973 193.62V185.706C329.922 185.706 330.39 185.28 330.195 185.476L359.158 185.536H359.328V185.706C359.328 190.434 359.26 194.276 359.235 196.976C359.235 198.271 359.235 199.285 359.235 200.017V200.801C359.2 200.888 359.151 200.969 359.09 201.04Z" fill="#429EFF"/>
<path d="M353.987 191.047C353.987 191.166 349.481 191.269 343.927 191.269C338.372 191.269 333.858 191.166 333.858 191.047C333.858 190.928 338.364 190.826 343.927 190.826C349.489 190.826 353.987 190.928 353.987 191.047Z" fill="#429EFF"/>
<path d="M353.987 194.353C353.987 194.48 349.481 194.574 343.927 194.574C338.372 194.574 333.858 194.48 333.858 194.353C333.858 194.225 338.364 194.131 343.927 194.131C349.489 194.131 353.987 194.225 353.987 194.353Z" fill="#429EFF"/>
<path d="M365.598 56.5297H336.583V71.8717H365.598V56.5297Z" fill="white"/>
<path d="M365.598 71.8717C365.598 71.8717 365.598 71.7694 365.598 71.582C365.598 71.3946 365.598 71.105 365.598 70.7302C365.598 69.989 365.598 68.9583 365.555 67.6549C365.555 64.9716 365.504 61.1637 365.47 56.487L365.632 56.6489L336.626 56.7085C336.422 56.9044 336.89 56.4359 336.848 56.487V60.4908C336.848 61.8197 336.848 63.123 336.848 64.4008C336.848 66.9564 336.848 69.4524 336.848 71.8206L336.643 71.6161L357.437 71.7183L363.46 71.7694H365.078H365.649C365.476 71.7814 365.302 71.7814 365.129 71.7694H363.553L357.59 71.8291L336.652 71.9313H336.439V71.7183C336.439 69.3502 336.439 66.8712 336.439 64.2986V56.5381L336.66 56.3167L365.666 56.3678H365.836V56.5381C365.836 61.2575 365.768 65.0568 365.751 67.8083C365.751 69.0946 365.751 70.1168 365.751 70.8494C365.751 71.1646 365.751 71.4287 365.751 71.6246C365.715 71.7152 365.663 71.7987 365.598 71.8717Z" fill="#429EFF"/>
<path d="M360.504 61.8879C360.504 62.0071 355.989 62.1094 350.435 62.1094C344.881 62.1094 340.366 62.0071 340.366 61.8879C340.366 61.7686 344.872 61.6664 350.435 61.6664C355.997 61.6664 360.504 61.7601 360.504 61.8879Z" fill="#429EFF"/>
<path d="M360.504 65.193C360.504 65.3123 355.989 65.4145 350.435 65.4145C344.881 65.4145 340.366 65.3123 340.366 65.193C340.366 65.0738 344.872 64.9716 350.435 64.9716C355.997 64.9716 360.504 65.0653 360.504 65.193Z" fill="#429EFF"/>
<path d="M345.664 71.8035C345.792 71.8035 345.886 80.8673 345.886 92.0352C345.886 103.203 345.792 112.275 345.664 112.275C345.537 112.275 345.443 103.212 345.443 92.0352C345.443 80.8588 345.545 71.8035 345.664 71.8035Z" fill="#429EFF"/>
<path d="M29.2058 111.594C29.1938 111.498 29.1938 111.401 29.2058 111.304V110.495C29.2058 109.754 29.2058 108.723 29.2058 107.411C29.2058 104.737 29.1547 100.929 29.1206 96.252L29.291 96.4139L0.276521 96.4735L0.498005 96.252V100.256C0.498005 101.576 0.498005 102.888 0.498005 104.166C0.498005 106.721 0.498005 109.217 0.498005 111.586L0.293558 111.381L21.0875 111.483L27.1102 111.534H28.7287H29.308C29.1321 111.546 28.9557 111.546 28.7799 111.534H27.2039L21.2409 111.594L0.302077 111.696H0.00392476V111.594C0.00392476 109.226 0.00392476 106.747 0.00392476 104.174V96.2606C-0.047187 96.3032 0.421338 95.8346 0.225409 96.0391L29.2399 96.0902H29.4017V96.2606C29.4017 100.98 29.3336 104.822 29.3165 107.531C29.3165 108.817 29.3165 109.839 29.3165 110.572C29.3165 110.887 29.3165 111.143 29.3165 111.347C29.3165 111.552 29.2058 111.594 29.2058 111.594Z" fill="#429EFF"/>
<path d="M24.1031 101.585C24.1031 101.712 19.5968 101.806 14.0341 101.806C8.47144 101.806 3.9736 101.712 3.9736 101.585C3.9736 101.457 8.47144 101.363 14.0341 101.363C19.5968 101.363 24.1031 101.465 24.1031 101.585Z" fill="#429EFF"/>
<path d="M24.1031 104.898C24.1031 105.018 19.5968 105.12 14.0341 105.12C8.47144 105.12 3.9736 105.018 3.9736 104.898C3.9736 104.779 8.47144 104.677 14.0341 104.677C19.5968 104.677 24.1031 104.779 24.1031 104.898Z" fill="#429EFF"/>
<path d="M81.3824 273.84H52.3679V289.182H81.3824V273.84Z" fill="white"/>
<path d="M81.3824 289.182C81.3704 289.086 81.3704 288.988 81.3824 288.892V288.083C81.3824 287.342 81.3824 286.311 81.3824 284.999C81.3824 282.324 81.3313 278.517 81.2887 273.84L81.4591 274.002L52.4446 274.061L52.6661 273.84V281.754C52.6661 284.309 52.6661 286.805 52.6661 289.173L52.4616 288.969L73.2641 289.071L79.2783 289.122H80.8968H81.4761C81.3003 289.134 81.1238 289.134 80.9479 289.122H79.372L73.409 289.182L52.4702 289.284H52.2657V289.071C52.2657 286.703 52.2657 284.224 52.2657 281.651V273.738L52.4872 273.516L81.5016 273.567H81.672V273.738C81.672 278.457 81.6039 282.299 81.5868 284.999C81.5868 286.294 81.5868 287.316 81.5442 288.049C81.5442 288.364 81.5442 288.62 81.5442 288.824C81.5097 288.951 81.4551 289.072 81.3824 289.182Z" fill="#429EFF"/>
<path d="M76.2797 279.19C76.2797 279.317 71.7734 279.411 66.2107 279.411C60.648 279.411 56.1502 279.317 56.1502 279.19C56.1502 279.062 60.6566 278.968 66.2107 278.968C71.7649 278.968 76.2797 279.07 76.2797 279.19Z" fill="#429EFF"/>
<path d="M76.2797 282.503C76.2797 282.623 71.7734 282.725 66.2107 282.725C60.648 282.725 56.1502 282.623 56.1502 282.503C56.1502 282.384 60.6566 282.282 66.2107 282.282C71.7649 282.282 76.2797 282.376 76.2797 282.503Z" fill="#429EFF"/>
<path d="M254.856 17.2077C254.856 17.2077 254.856 17.0969 254.856 16.918C254.856 16.7391 254.856 16.4325 254.856 16.0662C254.856 15.3251 254.856 14.2943 254.813 12.9909C254.813 10.3076 254.762 6.49975 254.728 1.82303L254.89 1.9934L225.884 2.04451C225.679 2.24044 226.148 1.77192 226.097 1.82303V9.73683C226.097 12.2924 226.097 14.7799 226.097 17.1566L225.884 16.9436L246.686 17.0458L252.709 17.1054H254.328H254.898C254.898 17.1054 254.728 17.1054 254.37 17.1054H252.803L246.84 17.1651L225.901 17.2673H225.696V17.2077C225.696 14.831 225.696 12.3521 225.696 9.78795V5.8779C225.696 5.21344 225.696 4.54899 225.696 3.87602V1.87414C225.654 1.92525 226.122 1.45673 225.926 1.65265L254.932 1.70377H255.103V1.86562C255.06 6.58494 255.035 10.4354 255.009 13.1358C255.009 14.4306 255.009 15.4443 254.966 16.1769V16.9606C254.943 17.0484 254.906 17.1318 254.856 17.2077Z" fill="#429EFF"/>
<path d="M249.753 7.21526C249.753 7.33452 245.247 7.43674 239.693 7.43674C234.138 7.43674 229.624 7.33452 229.624 7.21526C229.624 7.096 234.13 6.99377 239.693 6.99377C245.255 6.99377 249.753 7.08748 249.753 7.21526Z" fill="#429EFF"/>
<path d="M249.753 10.5206C249.753 10.6398 245.247 10.742 239.693 10.742C234.138 10.742 229.624 10.6398 229.624 10.5206C229.624 10.4013 234.13 10.2991 239.693 10.2991C245.255 10.2991 249.753 10.4013 249.753 10.5206Z" fill="#429EFF"/>
<path d="M35.9866 115.002C35.6591 115.071 35.3247 115.103 34.9899 115.095L32.2725 115.163C29.9725 115.163 26.8035 115.223 23.3024 115.223C19.6308 115.223 16.3256 115.223 14.0341 115.155H13.8808V115.002C13.8808 114.013 13.9319 113.17 13.9489 112.489C13.9419 112.182 13.9705 111.877 14.0341 111.577C14.1034 111.876 14.132 112.182 14.1193 112.489C14.1193 113.17 14.1193 114.013 14.1874 115.002L14.0341 114.857C16.3256 114.814 19.6308 114.78 23.3024 114.78C26.8035 114.78 29.9725 114.78 32.2725 114.848L34.9899 114.916C35.3242 114.91 35.6583 114.938 35.9866 115.002Z" fill="#429EFF"/>
<path d="M228.005 64.4434C228.023 64.2769 228.063 64.1136 228.124 63.9579C228.227 63.6086 228.363 63.1571 228.533 62.6119L230.049 57.6541C231.302 53.4714 232.929 47.6447 234.411 41.145C235.127 38.0101 235.748 35.003 236.277 32.26C236.191 27.873 236.115 24.1162 236.064 21.3903C236.064 20.104 236.064 19.0562 236.064 18.2725C236.043 17.9028 236.057 17.532 236.106 17.165C236.161 17.5318 236.193 17.9017 236.2 18.2725C236.2 19.0562 236.285 20.0954 236.336 21.3818C236.43 24.1077 236.558 27.8644 236.711 32.2515C236.208 35.003 235.595 38.0186 234.88 41.1535C233.389 47.6702 231.719 53.497 230.382 57.6626C229.717 59.7497 229.138 61.4278 228.729 62.5778L228.244 63.9067C228.189 64.0958 228.109 64.2764 228.005 64.4434Z" fill="#429EFF"/>
<path d="M107.449 282.503C107.449 282.623 101.946 282.725 95.1655 282.725C88.3847 282.725 82.8731 282.623 82.8731 282.503C82.8731 282.384 88.3762 282.282 95.1655 282.282C101.955 282.282 107.449 282.376 107.449 282.503Z" fill="#429EFF"/>
<path d="M198.003 342.236L195.771 361.267L202.594 362.212L209.776 344.323L198.003 342.236Z" fill="#E9B376"/>
<path d="M208.021 357.553C208.123 356.394 208.021 355.423 206.683 355.355L204.758 355.253C204.078 355.346 203.443 355.643 202.935 356.104C198.522 358.916 196.716 355.253 195.004 355.253C192.806 355.253 194.22 361.701 194.152 362.067L191.673 369.521C191.469 370.143 191.886 371.489 192.619 371.668C192.75 371.702 192.884 371.719 193.019 371.719H218.482C222.536 371.719 222.579 367.17 220.918 366.846C213.413 365.424 210.448 363.175 207.978 361.522C207.898 360.2 207.913 358.873 208.021 357.553Z" fill="#409CFF"/>
<path opacity="0.4" d="M218.516 371.719H193.053C192.918 371.719 192.784 371.702 192.653 371.668C192.159 371.549 191.801 370.893 191.699 370.279V369.709H221.761C221.509 370.348 221.057 370.89 220.472 371.252C219.887 371.614 219.201 371.778 218.516 371.719Z" fill="white"/>
<path d="M211.53 363.822C210.887 364.37 210.35 365.031 209.946 365.773C209.923 365.809 209.907 365.849 209.9 365.891C209.893 365.933 209.895 365.976 209.905 366.017C209.915 366.059 209.934 366.098 209.959 366.132C209.985 366.166 210.017 366.194 210.054 366.216C210.091 366.237 210.131 366.251 210.174 366.256C210.216 366.261 210.259 366.257 210.3 366.245C210.34 366.233 210.379 366.213 210.411 366.186C210.444 366.159 210.471 366.126 210.491 366.088C210.585 365.918 210.687 365.747 210.798 365.586L210.968 365.338L211.019 365.27V365.228L211.07 365.16C211.329 364.851 211.614 364.566 211.922 364.308C211.952 364.278 211.975 364.243 211.991 364.204C212.007 364.165 212.016 364.124 212.016 364.082C212.016 364.04 212.007 363.999 211.991 363.96C211.975 363.921 211.952 363.886 211.922 363.856C211.893 363.827 211.857 363.803 211.819 363.787C211.78 363.771 211.738 363.763 211.696 363.763C211.655 363.763 211.613 363.771 211.574 363.787C211.536 363.803 211.5 363.827 211.471 363.856L211.53 363.822Z" fill="#303436"/>
<path d="M209.188 362.519C208.598 363.04 208.093 363.649 207.688 364.325C207.667 364.361 207.653 364.4 207.647 364.442C207.641 364.483 207.644 364.525 207.654 364.565C207.664 364.605 207.682 364.643 207.707 364.677C207.732 364.71 207.763 364.738 207.799 364.759C207.835 364.781 207.875 364.795 207.916 364.801C207.957 364.806 207.999 364.804 208.039 364.794C208.08 364.784 208.118 364.766 208.151 364.741C208.184 364.716 208.212 364.684 208.234 364.649C208.328 364.487 208.43 364.331 208.54 364.18L208.702 363.959V363.916C208.731 363.875 208.763 363.835 208.796 363.797C209.039 363.494 209.303 363.209 209.588 362.945C209.618 362.915 209.642 362.88 209.659 362.842C209.675 362.803 209.683 362.761 209.683 362.719C209.683 362.677 209.675 362.635 209.659 362.597C209.642 362.558 209.618 362.523 209.588 362.493C209.528 362.435 209.447 362.402 209.362 362.402C209.278 362.402 209.197 362.435 209.137 362.493L209.188 362.519Z" fill="#303436"/>
<path d="M207.595 361.335C206.993 361.631 206.499 362.107 206.181 362.698C206.14 362.773 206.129 362.861 206.152 362.943C206.174 363.026 206.227 363.096 206.3 363.141C206.374 363.181 206.46 363.191 206.541 363.169C206.622 363.147 206.692 363.094 206.734 363.021C206.801 362.893 206.878 362.771 206.964 362.655C206.964 362.655 206.964 362.655 206.964 362.612L207.033 362.527L207.194 362.365C207.244 362.313 207.298 362.264 207.356 362.221H207.399L207.501 362.152C207.626 362.066 207.757 361.989 207.893 361.922C207.963 361.875 208.013 361.804 208.033 361.722C208.054 361.64 208.043 361.554 208.004 361.48C207.96 361.409 207.89 361.357 207.809 361.337C207.728 361.316 207.642 361.328 207.569 361.369L207.595 361.335Z" fill="#303436"/>
<path d="M207.748 358.916C207.041 358.923 206.341 359.052 205.678 359.299C205.602 359.327 205.54 359.383 205.503 359.455C205.466 359.527 205.458 359.61 205.479 359.688C205.501 359.766 205.55 359.833 205.619 359.876C205.687 359.919 205.769 359.935 205.848 359.921C206.454 359.682 207.098 359.558 207.748 359.554C207.833 359.552 207.914 359.518 207.975 359.457C208.035 359.397 208.07 359.316 208.072 359.231C208.07 359.146 208.034 359.066 207.974 359.007C207.914 358.949 207.832 358.916 207.748 358.916Z" fill="#303436"/>
<g opacity="0.3">
<path d="M200.584 359.802C200.591 360.144 200.508 360.482 200.341 360.781C200.175 361.081 199.933 361.33 199.638 361.505C199.215 361.668 198.76 361.729 198.309 361.684L194.255 361.573C194.042 359.81 193.471 355.517 195.149 355.517C196.461 355.517 197.849 357.979 200.609 357.263C200.567 358.166 200.609 359.359 200.584 359.802Z" fill="black"/>
</g>
<path d="M219.095 283.142C217.877 272.136 202.543 213.733 202.543 213.733L183.044 213.264L153.058 212.412C153.058 212.412 151.355 228.069 151.304 248.565C151.304 248.565 152.752 336.094 153.944 356.931L170.411 357.561C172.285 341.197 174.764 290.128 174.764 290.128C175.897 280.868 176.911 253.557 177.72 245.763C178.061 244.059 178.384 242.296 178.708 240.566C181.911 249.017 196.597 285.212 197.722 290.4L191.673 359.231L209.392 358.558C209.392 358.558 220.305 294.148 219.095 283.142Z" fill="#303436"/>
<path d="M192.236 216.007C193.207 218.851 194.864 221.412 197.059 223.464C199.255 225.516 201.923 226.995 204.826 227.771C204.858 227.781 204.887 227.796 204.912 227.817C204.937 227.838 204.958 227.863 204.974 227.892C204.989 227.921 204.999 227.953 205.002 227.985C205.005 228.018 205.002 228.051 204.992 228.082C204.983 228.113 204.967 228.143 204.946 228.168C204.926 228.193 204.9 228.214 204.871 228.23C204.842 228.245 204.811 228.255 204.778 228.258C204.746 228.261 204.713 228.258 204.681 228.248C201.695 227.447 198.952 225.922 196.693 223.81C194.435 221.697 192.732 219.061 191.733 216.135C191.631 215.828 192.133 215.7 192.236 216.007Z" fill="black"/>
<path d="M177.294 216.825L178.342 231.579C178.342 231.894 178.878 231.894 178.861 231.579C178.674 229.058 178.495 226.53 178.325 223.997C179.603 224.935 181.102 223.802 181.519 222.549C182.099 220.428 182.064 218.186 181.417 216.084C181.332 215.777 180.829 215.905 180.914 216.211C181.298 217.629 181.442 219.1 181.34 220.564C181.334 221.351 181.166 222.128 180.846 222.847C180.437 223.606 179.398 224.245 178.563 223.554C178.523 223.528 178.475 223.513 178.427 223.513C178.378 223.513 178.331 223.528 178.291 223.554C178.129 221.323 177.975 219.091 177.814 216.859C177.797 216.51 177.277 216.51 177.294 216.825Z" fill="black"/>
<path d="M165.078 215.922C165.146 222.439 159.848 227.848 152.999 228.402C152.667 228.402 152.675 227.942 152.999 227.916C159.575 227.43 164.635 222.157 164.559 215.922C164.57 215.861 164.602 215.806 164.649 215.766C164.697 215.727 164.757 215.705 164.818 215.705C164.88 215.705 164.94 215.727 164.988 215.766C165.035 215.806 165.067 215.861 165.078 215.922Z" fill="black"/>
<path d="M167.557 343.156L164.652 362.689L157.718 363.013L155.469 344.178L167.557 343.156Z" fill="#303436"/>
<path d="M151.815 371.753H167.336C167.565 371.038 167.547 370.267 167.285 369.564C167.225 369.317 167.148 369.044 167.046 368.712V368.669C166.901 368.226 166.739 367.69 166.561 367.102C165.985 364.511 165.587 361.884 165.368 359.239C165.368 359.239 162.429 356.53 159.405 357.8C156.756 358.907 157.164 360.355 157.164 360.355C157.164 360.355 157.164 363.993 155.111 365.637C153.868 366.65 152.633 367.434 152.045 368.703C151.929 368.946 151.84 369.2 151.781 369.462C151.777 369.495 151.777 369.53 151.781 369.564C151.641 370.288 151.653 371.033 151.815 371.753Z" fill="#409CFF"/>
<path opacity="0.4" d="M167.285 369.564C167.547 370.267 167.565 371.038 167.336 371.753H151.815C151.644 371.035 151.624 370.29 151.755 369.564H167.285Z" fill="white"/>
<path d="M157.999 362.894C158.414 362.594 158.919 362.447 159.429 362.476C159.94 362.506 160.425 362.71 160.802 363.056C161.015 363.243 161.339 362.945 161.126 362.757C160.661 362.347 160.07 362.107 159.45 362.078C158.831 362.048 158.22 362.231 157.718 362.596C157.488 362.766 157.812 363.056 158.042 362.894H157.999Z" fill="#303436"/>
<path d="M157.599 364.248C158.014 363.95 158.519 363.804 159.029 363.833C159.539 363.863 160.023 364.066 160.402 364.41C160.614 364.598 160.938 364.299 160.725 364.112C160.257 363.691 159.658 363.444 159.029 363.415C158.4 363.385 157.78 363.575 157.275 363.95C157.045 364.12 157.369 364.419 157.599 364.248Z" fill="#303436"/>
<path d="M157.122 365.449C157.536 365.15 158.04 365.002 158.55 365.03C159.06 365.058 159.545 365.26 159.924 365.603C160.137 365.798 160.461 365.5 160.248 365.313C159.78 364.892 159.181 364.645 158.552 364.616C157.923 364.586 157.303 364.775 156.798 365.151C156.56 365.313 156.892 365.611 157.122 365.449Z" fill="#303436"/>
<path opacity="0.2" d="M151.057 182.801V157.808C151.057 157.808 147.394 183.423 149.234 189.778L151.057 182.801Z" fill="black"/>
<path d="M189.118 103.348C191.397 104.784 193.272 106.778 194.566 109.14C195.86 111.503 196.53 114.156 196.512 116.85C195.796 122.302 193.905 126.161 192.432 131.468L177.95 99.5403C181.306 100.213 182.831 99.5147 189.118 103.348Z" fill="#303436"/>
<path d="M181.826 100.52C176.161 97.8878 170.598 100.997 167.344 103.152C165.59 104.64 164.17 106.483 163.179 108.559C162.188 110.635 161.648 112.898 161.594 115.198C161.594 119.542 161.594 124.815 164.235 127.081C164.968 127.724 165.826 128.208 166.756 128.501C167.686 128.794 168.667 128.891 169.636 128.785L191.137 108.945C188.802 105.389 185.597 102.489 181.826 100.52Z" fill="#303436"/>
<path d="M182.192 159.299C180.54 161.002 179.032 160.44 176.825 159.537C163.698 154.818 167.583 148.463 167.583 148.463C170.07 145.541 170.181 142.048 169.286 136.716C169.278 136.56 169.278 136.403 169.286 136.247C169.294 135.536 169.523 134.845 169.942 134.271C170.202 133.888 170.535 133.561 170.922 133.308C171.309 133.055 171.742 132.88 172.196 132.795C172.65 132.709 173.117 132.714 173.57 132.81C174.022 132.905 174.451 133.089 174.832 133.351L180.71 135.055L180.761 135.31C180.761 138.223 180.693 140.489 180.71 142.27C180.727 142.485 180.727 142.702 180.71 142.917C180.731 143.135 180.731 143.355 180.71 143.573C180.855 146.009 184.969 149.596 186.673 150.439C187.695 151.018 187.806 153.557 182.192 159.299Z" fill="#B97964"/>
<path opacity="0.2" d="M180.676 135.029C180.684 135.118 180.701 135.207 180.727 135.293C180.727 138.206 180.667 140.472 180.684 142.253C180.667 142.468 180.667 142.685 180.684 142.9C180.693 143.126 180.719 143.351 180.761 143.573C176.306 142.369 172.325 139.83 169.355 136.298C169.36 135.597 169.57 134.913 169.959 134.33C170.478 133.555 171.283 133.016 172.198 132.832C173.113 132.649 174.063 132.835 174.841 133.351L180.676 135.029Z" fill="black"/>
<path d="M164.831 116.475C165.061 126.536 164.933 130.778 169.712 136.239C176.902 144.433 188.947 142.202 191.716 132.38C194.144 123.495 193.42 108.579 183.939 103.97C174.457 99.3614 164.618 106.415 164.831 116.475Z" fill="#B97964"/>
<path d="M160.385 125.088C160.83 126.065 161.465 126.944 162.251 127.675C163.038 128.406 163.961 128.974 164.968 129.347C167.583 130.242 169.321 126.059 168.639 123.307C168.311 122.068 167.552 120.985 166.498 120.255C165.445 119.524 164.165 119.193 162.889 119.321C160.282 119.593 159.217 122.609 160.385 125.088Z" fill="#B97964"/>
<path opacity="0.2" d="M166.118 125.028C166.134 124.055 165.763 123.115 165.088 122.414C164.413 121.713 163.487 121.309 162.514 121.288" stroke="black" stroke-width="0.5" stroke-linecap="round" stroke-linejoin="round"/>
<path d="M177.933 120.803C177.89 121.876 178.393 122.805 179.057 122.873C179.722 122.941 180.293 122.132 180.327 121.058C180.361 119.985 179.867 119.065 179.202 118.988C178.538 118.912 177.975 119.738 177.933 120.803Z" fill="#303436"/>
<path d="M187.883 121.621C187.883 122.66 188.351 123.554 189.016 123.623C189.68 123.691 190.242 122.907 190.276 121.868C190.31 120.828 189.808 119.934 189.152 119.866C188.496 119.798 187.925 120.581 187.883 121.621Z" fill="#303436"/>
<path d="M176.144 116.91C176.208 116.923 176.273 116.923 176.337 116.908C176.4 116.893 176.459 116.865 176.51 116.825C176.98 116.443 177.538 116.184 178.132 116.071C178.727 115.958 179.341 115.994 179.918 116.177C179.977 116.203 180.04 116.215 180.104 116.214C180.169 116.213 180.232 116.199 180.29 116.171C180.348 116.144 180.399 116.104 180.441 116.055C180.483 116.006 180.513 115.949 180.531 115.888C180.568 115.76 180.556 115.623 180.498 115.503C180.44 115.383 180.339 115.29 180.216 115.24C179.491 114.995 178.716 114.937 177.962 115.071C177.209 115.205 176.501 115.527 175.905 116.007C175.855 116.048 175.813 116.099 175.782 116.156C175.751 116.214 175.732 116.277 175.726 116.342C175.719 116.407 175.726 116.472 175.745 116.535C175.764 116.597 175.796 116.655 175.837 116.705C175.911 116.809 176.02 116.882 176.144 116.91Z" fill="#303436"/>
<path d="M191.673 116.833C191.727 116.82 191.778 116.796 191.822 116.763C191.866 116.729 191.903 116.686 191.929 116.637C191.977 116.519 191.984 116.389 191.949 116.267C191.913 116.144 191.837 116.038 191.733 115.964C191.165 115.522 190.493 115.233 189.782 115.125C189.07 115.018 188.343 115.096 187.67 115.351C187.565 115.413 187.488 115.514 187.457 115.632C187.425 115.749 187.44 115.875 187.499 115.981C187.548 116.095 187.639 116.186 187.753 116.236C187.867 116.285 187.996 116.288 188.113 116.245C188.648 116.051 189.224 115.997 189.786 116.088C190.348 116.179 190.878 116.412 191.324 116.765C191.373 116.802 191.431 116.827 191.491 116.839C191.551 116.851 191.614 116.849 191.673 116.833Z" fill="#303436"/>
<path d="M185.216 120.896C185.943 123.126 186.896 125.276 188.062 127.311C188.124 127.415 188.161 127.532 188.17 127.653C188.179 127.773 188.161 127.895 188.115 128.007C188.07 128.119 187.999 128.219 187.908 128.299C187.818 128.38 187.71 128.438 187.593 128.47C186.691 128.661 185.753 128.599 184.884 128.291L185.216 120.896Z" fill="#A24E3F"/>
<path d="M178.819 119.005L181.187 118.656C181.187 118.656 179.747 120.275 178.819 119.005Z" fill="#303436"/>
<path d="M188.905 119.866L191.273 119.516C191.273 119.516 189.859 121.135 188.905 119.866Z" fill="#303436"/>
<path d="M184.228 131.051C183.509 131.941 182.857 132.883 182.277 133.87L181.715 133.649C179.16 132.627 178.308 131.315 178.163 130.165C178.09 129.589 178.16 129.004 178.367 128.461C178.469 128.159 178.612 127.872 178.793 127.609C179.815 128.964 182.116 130.097 183.368 130.65C183.887 130.923 184.228 131.051 184.228 131.051Z" fill="#303436"/>
<path d="M183.368 130.684L182.771 131.536C180.378 130.565 178.819 129.569 178.367 128.538C178.469 128.235 178.612 127.949 178.793 127.686C179.816 128.998 182.116 130.131 183.368 130.684Z" fill="white"/>
<path d="M181.715 133.649C179.16 132.627 178.308 131.315 178.163 130.165C179.123 130.575 180.002 131.152 180.761 131.869C181.257 132.348 181.59 132.971 181.715 133.649Z" fill="#DE5753"/>
<path d="M168.315 118.929C168.315 118.929 174.057 112.369 174.236 106.756C174.236 106.756 194.783 102.198 192.892 119.934C192.892 119.934 197.33 104.6 180.548 102.087C163.766 99.5744 160.291 121.51 167.898 129.151C167.932 129.074 164.763 123.043 168.315 118.929Z" fill="#303436"/>
<path d="M150.401 105.572C150.538 107.18 151.14 108.713 152.134 109.985C153.128 111.257 154.471 112.211 155.999 112.733C157.526 113.254 159.172 113.32 160.737 112.922C162.301 112.523 163.715 111.678 164.807 110.49C165.899 109.301 166.622 107.82 166.886 106.228C167.151 104.636 166.947 103.001 166.298 101.523C165.649 100.045 164.584 98.7879 163.233 97.9049C161.882 97.0219 160.303 96.5512 158.689 96.5503C156.398 96.6587 154.242 97.6671 152.69 99.3563C151.138 101.046 150.315 103.279 150.401 105.572Z" fill="#303436"/>
<path d="M188.181 104.285C190.387 106.408 191.863 109.176 192.398 112.191C192.398 114.38 189.416 115.956 189.416 115.956L185.779 111.185V115.377C179.816 114.729 176.408 111.56 174.347 107.003L177.66 101.04C177.66 101.04 186.204 102.573 188.181 104.285Z" fill="#303436"/>
<path d="M159.797 110.368C159.262 112.754 157.89 114.869 155.929 116.331C156.989 116.412 158.048 116.155 158.953 115.598C158.907 116.456 158.717 117.299 158.391 118.094C159.593 117.08 160.553 115.81 161.201 114.378C161.85 112.945 162.17 111.386 162.139 109.814L159.797 110.368Z" fill="#303436"/>
<path d="M228.304 172.298C228.406 170.535 223.192 180.655 223.192 180.655L214.35 174.411L221.386 167.332C221.386 167.332 228.534 172 228.423 172.153" fill="#B97964"/>
<path d="M192.772 149.383C195.11 150.538 197.196 152.145 198.908 154.112C200.62 156.079 201.925 158.366 202.748 160.84C204.756 167.289 206.203 173.898 207.075 180.595L218.243 170.654L226.566 176.83C226.566 176.83 215.636 193.399 208.276 199.83C202.168 205.188 195.251 194.787 195.251 194.787L192.244 149.11L192.772 149.383Z" fill="#409CFF"/>
<path opacity="0.2" d="M171.178 208.69L168.775 246.359L147.232 243.786V239.919L171.178 208.69Z" fill="black"/>
<path d="M160.759 209.635C159.907 200.077 156.5 182.571 150.682 164.18C148.782 158.217 155.571 151.589 155.571 151.589C155.571 151.589 159.959 151.248 160.759 151.155C161.56 151.061 162.548 150.967 163.451 150.882C170.266 150.32 175.863 149.911 181.945 150.26C183.479 150.345 185.046 150.473 186.588 150.601C187.09 150.652 190.319 150.703 190.796 150.754C190.796 150.754 199.545 160.977 200.022 168.218C200.277 172.255 202.228 173.993 202.007 183.653C202.007 190.213 197.211 199.762 196.776 208.988L160.759 209.635Z" fill="white"/>
<path d="M172.685 177.528C172.225 162.536 170.454 153.012 169.653 149.374C169.55 148.913 169.28 148.507 168.894 148.234C168.508 147.962 168.035 147.843 167.566 147.901L161.773 149.127C156.1 150.635 153.058 149.817 149.898 154.034C149.285 154.886 148.774 161.13 148.816 161.999C148.893 163.541 149.966 168.269 151.372 173.976C152.351 177.937 153.51 182.393 154.626 186.584C156.049 191.925 157.233 193.322 157.693 195.026L142.998 238.368C142.898 238.641 142.861 238.933 142.891 239.222C142.921 239.511 143.016 239.789 143.17 240.036C143.324 240.282 143.531 240.49 143.778 240.644C144.024 240.798 144.302 240.894 144.591 240.924L165.683 243.13C166.178 243.181 166.673 243.035 167.062 242.725C167.45 242.414 167.702 241.963 167.762 241.469C168.835 232.644 173.214 194.762 172.685 177.528Z" fill="#409CFF"/>
<path d="M200.396 206.909C200.396 206.909 204.818 179.488 203.642 172.622C202.467 165.756 192.244 149.127 192.244 149.127L187.576 148.804L182.047 146.563C182.047 146.563 194.825 161.948 197.935 173.056C199.988 180.348 195.882 203.425 196.359 208.996L198.735 220.513L204.596 220.249L200.396 206.909Z" fill="#409CFF"/>
<path d="M168.861 145.541C168.861 145.541 174.602 156.862 172.43 185.348L162.898 164.904L166.348 159.307L161.773 150.167C161.773 150.167 166.671 147.015 168.724 145.345L168.861 145.541Z" fill="#409CFF"/>
<g opacity="0.2">
<path d="M168.861 145.541C168.861 145.541 174.602 156.862 172.43 185.348L162.898 164.904L166.348 159.307L161.773 150.167C161.773 150.167 166.671 147.015 168.724 145.345L168.861 145.541Z" fill="black"/>
</g>
<path d="M198.233 185.51C198.233 185.51 200.362 179.232 199.936 173.431C199.511 167.63 199.459 163.311 199.459 163.311L192.917 158.447L193.769 152.526C193.769 152.526 190.6 150.575 187.653 148.582C185.642 147.219 181.69 145.175 181.17 145.311C181.17 145.311 197.969 166.607 198.054 175.271C198.148 183.662 198.233 185.51 198.233 185.51Z" fill="#409CFF"/>
<path opacity="0.3" d="M198.233 185.51C198.233 185.51 200.362 179.232 199.936 173.431C199.511 167.63 199.459 163.311 199.459 163.311L192.917 158.447L193.769 152.526C193.769 152.526 190.6 150.575 187.653 148.582C185.642 147.219 181.69 145.175 181.17 145.311C181.17 145.311 197.969 166.607 198.054 175.271C198.148 183.662 198.233 185.51 198.233 185.51Z" fill="black"/>
<path opacity="0.3" d="M201.461 200.094L203.753 178.943L204.605 200.776C203.525 200.737 202.46 200.507 201.461 200.094Z" fill="black"/>
<path d="M185.421 150.984L180.897 144.817L178.751 148.514L169.832 143.113L168.724 145.328L171.893 154.622C171.893 154.622 179.807 157.867 180.233 157.867C180.659 157.867 185.421 150.984 185.421 150.984Z" fill="white"/>
<path opacity="0.3" d="M185.625 151.274L183.777 155.848L179.177 151.274L176.05 156.641L171.382 154.358L176.357 158.293L179.245 152.415L184.509 157.373L185.625 151.274Z" fill="black"/>
<path opacity="0.3" d="M161.006 194.446L159.209 174.249L157.82 196.244L178.691 204.737L161.006 194.446Z" fill="black"/>
<path d="M152.752 151.274C150.732 151.863 148.918 153.007 147.516 154.577C146.114 156.146 145.18 158.077 144.821 160.15C143.543 167.391 141.856 203.595 143.296 205.87C144.736 208.144 185.037 221.127 185.037 221.127L189.356 209.933L158.894 195.187C158.894 195.187 159.141 184.846 159.388 176.796C159.516 172.536 159.652 168.907 159.746 167.792C160.078 164.554 152.752 151.274 152.752 151.274Z" fill="#409CFF"/>
<path d="M189.263 210.615C189.263 210.615 194.893 211.228 198.735 213.256C200.26 214.056 206.155 219.159 206.155 219.159L185.617 220.07L189.263 210.615Z" fill="#B97964"/>
<path opacity="0.3" d="M152.633 210.036L170.522 216.399V218.58L151.781 212.668L152.633 210.036Z" fill="black"/>
<path opacity="0.2" d="M179.245 152.415C188.743 168.984 188.215 190.528 188.743 208.817" stroke="black" stroke-width="0.5" stroke-linecap="round" stroke-linejoin="round"/>
<path d="M221.804 168.371C221.804 168.371 220.1 165.628 220.705 163.03C221.31 160.431 221.139 158.183 221.736 156.283C222.332 154.383 223.439 156.845 223.703 158.276C223.968 159.707 224.359 161.326 225.407 160.926C226.455 160.525 232.469 153.105 233.977 152.714C235.485 152.322 234.871 153.83 234.871 153.83C234.871 153.83 236.388 152.066 237.248 152.475C237.47 152.586 237.819 153.191 237.248 154.102C235.979 156.155 233.1 160.321 233.1 160.321C233.261 160.074 237.18 155.21 237.87 154.537C238.722 153.685 239.574 153.727 240.093 154.264C240.783 155.022 236.124 161.249 236.107 161.65C236.107 161.65 238.662 157.97 239.983 158.114C241.303 158.259 239.804 160.67 238.091 162.527C236.524 164.231 233.892 168.013 232.128 169.598C229.948 171.548 228.048 172.375 225.535 171.301C224.059 170.663 222.774 169.653 221.804 168.371Z" fill="#B97964"/>
<path opacity="0.3" d="M234.624 154.026C233.449 155.465 232.333 156.964 231.294 158.506" stroke="black" stroke-width="0.5" stroke-linecap="round" stroke-linejoin="round"/>
<path opacity="0.3" d="M235.161 163.106C233.749 161.141 231.791 159.634 229.53 158.77" stroke="black" stroke-width="0.5" stroke-linecap="round" stroke-linejoin="round"/>
<path opacity="0.3" d="M225.748 162.084C226.412 162.818 226.8 163.76 226.845 164.749C226.89 165.737 226.59 166.711 225.995 167.502" stroke="black" stroke-width="0.5" stroke-linecap="round" stroke-linejoin="round"/>
<path d="M189.118 217.055C188.879 220.036 193.377 220.139 193.539 221.689C193.623 222.59 193.847 223.472 194.203 224.304C194.203 224.304 191.512 223.325 191.725 224.304C191.938 225.284 192.099 228.427 194.663 229.202C197.228 229.978 202.722 227.175 203.48 226.536C204.238 225.897 204.017 222.549 204.017 222.549C204.017 222.549 204.945 226.153 205.218 228.138C205.491 230.122 207.774 230.489 207.254 227.729C207.05 226.596 206.981 217.643 206.061 216.654C205.141 215.666 196.052 212.114 196.052 212.114C192.823 210.853 187.695 214.159 189.118 217.055Z" fill="#B97964"/>
<g opacity="0.3">
<path d="M204.264 222.515C204.324 221.597 204.264 220.675 204.085 219.772C204.076 219.74 204.061 219.709 204.04 219.683C204.02 219.656 203.994 219.634 203.965 219.617C203.935 219.601 203.903 219.59 203.87 219.586C203.836 219.582 203.802 219.584 203.77 219.593C203.714 219.609 203.665 219.644 203.632 219.693C203.599 219.741 203.585 219.799 203.591 219.857C203.762 220.712 203.82 221.586 203.761 222.456C203.761 222.779 204.247 222.839 204.264 222.515Z" fill="black"/>
<path d="M201.547 227.132C201.402 227.413 201.811 227.712 201.964 227.422C202.816 225.718 202.356 224.014 201.785 222.311C201.683 222.004 201.223 222.217 201.325 222.524C201.819 224.04 202.305 225.642 201.547 227.132Z" fill="black"/>
<path d="M199.34 228.444C199.768 227.733 200.011 226.927 200.046 226.098C200.082 225.269 199.91 224.444 199.545 223.699C199.527 223.671 199.504 223.646 199.477 223.627C199.45 223.607 199.419 223.593 199.386 223.586C199.354 223.579 199.32 223.579 199.287 223.585C199.254 223.591 199.223 223.604 199.195 223.623C199.15 223.654 199.115 223.698 199.095 223.75C199.075 223.802 199.071 223.858 199.085 223.912C199.413 224.58 199.57 225.318 199.543 226.061C199.517 226.804 199.306 227.529 198.931 228.172C198.752 228.436 199.17 228.725 199.34 228.444Z" fill="black"/>
<path d="M195.575 226.042C195.847 226.173 196.133 226.273 196.427 226.34C196.742 226.408 196.921 225.94 196.606 225.863C196.13 225.759 195.68 225.559 195.285 225.275C194.889 224.99 194.556 224.628 194.306 224.21C194.144 223.921 193.684 224.142 193.846 224.415C194.141 224.943 194.555 225.395 195.055 225.735C195.055 225.735 195.055 225.803 195.055 225.837C195.147 226.095 195.159 226.375 195.089 226.639C195.019 226.904 194.871 227.141 194.663 227.32C194.613 227.363 194.581 227.424 194.575 227.49C194.57 227.557 194.591 227.622 194.634 227.673C194.677 227.724 194.738 227.756 194.804 227.761C194.871 227.767 194.936 227.746 194.987 227.703C195.214 227.496 195.387 227.236 195.49 226.946C195.592 226.656 195.621 226.346 195.575 226.042Z" fill="black"/>
</g>
</svg>
