<svg width="32" height="32" viewBox="0 0 32 32" fill="none" xmlns="http://www.w3.org/2000/svg">
<g style="mix-blend-mode:multiply">
<path d="M0 16L2.38359 13.6164C5.11726 10.8827 9.54941 10.8827 12.2831 13.6164L23.3333 24.6667L20.9497 27.0503C18.2161 29.7839 13.7839 29.7839 11.0503 27.0503L0 16Z" fill="#84979C" fill-opacity="0.8"/>
</g>
<g style="mix-blend-mode:multiply">
<path d="M0.666748 9.99976L5.05034 5.61617C7.78401 2.8825 12.2162 2.8825 14.9498 5.61617L31.3334 21.9998L26.9498 26.3833C24.2162 29.117 19.784 29.117 17.0503 26.3833L0.666748 9.99976Z" fill="#62D84E" fill-opacity="0.8"/>
</g>
<path d="M8.66663 7.33325L11.0502 4.94966C13.7839 2.21599 18.216 2.21599 20.9497 4.94966L32 15.9999L29.6164 18.3835C26.8827 21.1172 22.4506 21.1172 19.7169 18.3835L8.66663 7.33325Z" fill="#C1C9D1" fill-opacity="0.8"/>
</svg>
