<svg width="78" height="78" viewBox="0 0 78 78" fill="none" xmlns="http://www.w3.org/2000/svg">
<circle cx="36" cy="36" r="37.5" transform="matrix(1 0 0 -1 3 75)" fill="#3E96F4" stroke="white" stroke-width="3"/>
<g clip-path="url(#clip0_1_3424)">
<path d="M22.9108 34.4618C23.0973 34.4618 23.2761 34.3877 23.408 34.2558C23.5399 34.124 23.6139 33.9451 23.6139 33.7586V20.233C23.6139 19.6134 24.118 19.1094 24.7375 19.1094H27.4363L27.9695 20.7504C28.0704 21.0628 28.2678 21.3351 28.5334 21.528C28.7989 21.721 29.1189 21.8247 29.4472 21.8241H39.4413C39.7695 21.8247 40.0895 21.721 40.3551 21.5281C40.6206 21.3351 40.8181 21.0628 40.9189 20.7505L41.4523 19.1094H44.1511C44.7211 19.1094 45.2068 19.5476 45.2681 20.1119V23.1714C45.2681 23.3579 45.3422 23.5367 45.474 23.6686C45.6059 23.8005 45.7847 23.8745 45.9712 23.8745C46.1577 23.8745 46.3365 23.8005 46.4684 23.6686C46.6003 23.5367 46.6743 23.3579 46.6743 23.1714V20.0784C46.6743 20.0585 46.6735 20.0386 46.6719 20.0189C46.5616 18.7204 45.4543 17.7031 44.1511 17.7031H24.7375C23.3425 17.7031 22.2077 18.838 22.2077 20.233V33.7586C22.2077 33.9451 22.2818 34.124 22.4136 34.2558C22.5455 34.3877 22.7243 34.4618 22.9108 34.4618ZM39.5816 20.3159C39.56 20.3826 39.5115 20.4178 39.4414 20.4178H29.4472C29.3771 20.4178 29.3286 20.3826 29.307 20.3158L28.915 19.1094H39.9736L39.5816 20.3159ZM46.6809 48.7301V58.767C46.6809 60.162 45.5461 61.2969 44.1511 61.2969H24.7375C23.3425 61.2969 22.2077 60.162 22.2077 58.767V52.2876C22.2077 52.1011 22.2818 51.9222 22.4136 51.7904C22.5455 51.6585 22.7243 51.5844 22.9108 51.5844C23.0973 51.5844 23.2761 51.6585 23.408 51.7904C23.5399 51.9222 23.6139 52.1011 23.6139 52.2876V58.767C23.6139 59.3866 24.118 59.8906 24.7375 59.8906H44.1511C44.7706 59.8906 45.2747 59.3866 45.2747 58.767V48.7301C45.2747 48.5436 45.3488 48.3648 45.4806 48.2329C45.6125 48.1011 45.7913 48.027 45.9778 48.027C46.1643 48.027 46.3431 48.1011 46.475 48.2329C46.6068 48.3648 46.6809 48.5436 46.6809 48.7301ZM58.5591 26.2178H43.6563C42.1467 26.2178 40.9186 27.446 40.9186 28.9556V39.1532C40.9186 40.6629 42.1467 41.891 43.6563 41.891H44.675V45.3325C44.675 45.4728 44.717 45.6098 44.7955 45.7261C44.874 45.8423 44.9855 45.9324 45.1156 45.9847C45.2457 46.0371 45.3885 46.0494 45.5257 46.0199C45.6628 45.9905 45.788 45.9207 45.8852 45.8196L49.6592 41.891H58.559C60.0687 41.891 61.2968 40.6628 61.2968 39.1532V28.9556C61.2969 27.446 60.0687 26.2178 58.5591 26.2178ZM59.8906 39.1533C59.8906 39.8875 59.2932 40.4848 58.5591 40.4848H49.3597C49.265 40.4848 49.1713 40.504 49.0841 40.5411C48.997 40.5782 48.9182 40.6325 48.8526 40.7008L46.0813 43.5858V41.1879C46.0813 41.0015 46.0072 40.8226 45.8753 40.6908C45.7434 40.5589 45.5646 40.4848 45.3781 40.4848H43.6563C42.9221 40.4848 42.3248 39.8874 42.3248 39.1533V28.9556C42.3248 28.2213 42.9222 27.624 43.6563 27.624H58.5591C59.2933 27.624 59.8906 28.2214 59.8906 28.9556V39.1533ZM45.2666 30.3898C45.2666 30.2033 45.3407 30.0245 45.4725 29.8926C45.6044 29.7607 45.7832 29.6867 45.9697 29.6867H49.8842C50.0707 29.6867 50.2495 29.7607 50.3814 29.8926C50.5132 30.0245 50.5873 30.2033 50.5873 30.3898C50.5873 30.5763 50.5132 30.7551 50.3814 30.887C50.2495 31.0188 50.0707 31.0929 49.8842 31.0929H45.9697C45.7832 31.0929 45.6044 31.0188 45.4725 30.887C45.3407 30.7551 45.2666 30.5763 45.2666 30.3898ZM56.9487 34.0545C56.9487 34.241 56.8747 34.4198 56.7428 34.5517C56.6109 34.6835 56.4321 34.7576 56.2456 34.7576H45.9697C45.7832 34.7576 45.6044 34.6835 45.4725 34.5517C45.3407 34.4198 45.2666 34.241 45.2666 34.0545C45.2666 33.868 45.3407 33.6891 45.4725 33.5573C45.6044 33.4254 45.7832 33.3513 45.9697 33.3513H56.2456C56.4321 33.3513 56.6109 33.4254 56.7428 33.5573C56.8747 33.6891 56.9487 33.868 56.9487 34.0545ZM56.9487 37.7191C56.9487 37.9056 56.8747 38.0844 56.7428 38.2163C56.6109 38.3481 56.4321 38.4222 56.2456 38.4222H45.9697C45.7832 38.4222 45.6044 38.3481 45.4725 38.2163C45.3407 38.0844 45.2666 37.9056 45.2666 37.7191C45.2666 37.5326 45.3407 37.3537 45.4725 37.2219C45.6044 37.09 45.7832 37.0159 45.9697 37.0159H56.2456C56.4321 37.0159 56.6109 37.09 56.7428 37.2219C56.8747 37.3537 56.9487 37.5326 56.9487 37.7191ZM56.9487 30.3898C56.9487 30.5763 56.8747 30.7551 56.7428 30.887C56.6109 31.0188 56.4321 31.0929 56.2456 31.0929H52.0884C51.9019 31.0929 51.7231 31.0188 51.5912 30.887C51.4594 30.7551 51.3853 30.5763 51.3853 30.3898C51.3853 30.2033 51.4594 30.0245 51.5912 29.8926C51.7231 29.7607 51.9019 29.6867 52.0884 29.6867H56.2456C56.4321 29.6867 56.6109 29.7607 56.7428 29.8926C56.8747 30.0245 56.9487 30.2033 56.9487 30.3898ZM27.5442 50.9079C28.8341 50.9079 30.2613 50.6604 31.9273 50.3715L32.2924 50.3083C32.458 50.3466 32.6302 50.3675 32.8072 50.3675H35.3584C36.6175 50.3675 37.6419 49.3431 37.6419 48.0841C37.6424 47.6881 37.5393 47.2988 37.3428 46.955C38.0794 46.5756 38.5845 45.8072 38.5845 44.9232C38.5845 44.5382 38.4888 44.1753 38.3199 43.8568C39.1274 43.5046 39.6935 42.6984 39.6936 41.7625C39.6935 40.9627 39.2802 40.2576 38.6559 39.8496C38.899 39.4789 39.0283 39.0451 39.0278 38.6018C39.0278 37.3427 38.0034 36.3184 36.7443 36.3184H32.807C32.5377 36.3184 32.2756 36.3652 32.0293 36.4547C32.2045 36.0759 32.3058 35.7219 32.3451 35.4373C32.3495 35.4054 32.3517 35.3733 32.3517 35.3411V32.7685C32.3517 30.1879 30.2519 28.0884 27.671 28.0884C27.4845 28.0884 27.3057 28.1624 27.1738 28.2943C27.0419 28.4262 26.9679 28.605 26.9679 28.7915V32.1078C26.9679 34.0783 25.4125 35.1748 23.7657 36.3357C23.5206 36.5085 23.2692 36.686 23.0233 36.8664H18.4062C18.2198 36.8664 18.0409 36.9404 17.9091 37.0723C17.7772 37.2042 17.7031 37.383 17.7031 37.5695V48.4935C17.7031 48.68 17.7772 48.8588 17.9091 48.9907C18.0409 49.1225 18.2198 49.1966 18.4062 49.1966H22.9803C24.4195 50.4883 25.8658 50.9079 27.5442 50.9079ZM35.3584 48.9613H32.8072C32.7207 48.9612 32.6346 48.9484 32.5518 48.9231L32.5435 48.9206C32.1883 48.8084 31.9301 48.4759 31.9301 48.0841C31.9301 47.6004 32.3236 47.2069 32.8073 47.2069H35.3585C35.8422 47.2069 36.2357 47.6004 36.2357 48.0841C36.2357 48.5678 35.8422 48.9613 35.3584 48.9613ZM36.3011 45.8006H32.8071C32.3235 45.8005 31.93 45.407 31.93 44.9233C31.93 44.4396 32.3236 44.0461 32.8072 44.0461H36.301C36.7847 44.0461 37.1782 44.4397 37.1782 44.9233C37.1783 45.407 36.7847 45.8005 36.3011 45.8006ZM38.2874 41.7625C38.2874 42.2462 37.8937 42.6397 37.41 42.6397H32.1415C31.6578 42.6397 31.2643 42.2461 31.2643 41.7626C31.2643 41.2788 31.6579 40.8853 32.1415 40.8853H37.41C37.8938 40.8853 38.2874 41.2788 38.2874 41.7625ZM32.8071 37.7246H36.7444C37.2281 37.7246 37.6216 38.1182 37.6216 38.6018C37.6216 39.0855 37.228 39.479 36.7444 39.479H32.8073C32.3236 39.479 31.9301 39.0854 31.9301 38.6018C31.9301 38.3692 32.0218 38.1494 32.1883 37.9827C32.3548 37.8163 32.5745 37.7246 32.8071 37.7246ZM28.3742 32.1079V29.5706C29.8429 29.8933 30.9455 31.2047 30.9455 32.7686V35.2878C30.8792 35.6774 30.6094 36.3074 30.0482 36.8689C29.9323 36.9849 29.8606 37.1378 29.8455 37.3011C29.8304 37.4644 29.8729 37.6279 29.9655 37.7632C30.435 38.4487 30.5942 39.0838 30.4524 39.7051C30.1773 40.9098 28.8199 41.8023 28.249 42.1301C28.0889 42.2238 27.9722 42.377 27.9245 42.5563C27.8767 42.7356 27.9018 42.9265 27.9942 43.0874C28.0866 43.2483 28.2389 43.3661 28.4178 43.4153C28.5967 43.4644 28.7878 43.4408 28.9494 43.3497C29.2553 43.174 29.6375 42.9295 30.0246 42.6184C30.2007 43.0512 30.5046 43.42 30.8958 43.6756C30.6526 44.0463 30.5234 44.4801 30.5239 44.9234C30.5239 45.5362 30.7665 46.0933 31.1607 46.5038C30.7665 46.9144 30.5239 47.4715 30.5239 48.0842C30.5239 48.4655 30.6183 48.8249 30.7842 49.1412C27.6075 49.6784 25.814 49.8251 23.9616 48.1875C23.962 48.0866 23.9623 47.9614 23.9626 47.811C23.9636 47.3553 23.964 46.672 23.964 45.7611C23.964 44 23.9623 41.3878 23.9589 37.9246C24.1586 37.7797 24.3632 37.6352 24.5762 37.4851C26.3564 36.23 28.3742 34.8075 28.3742 32.1079ZM19.1094 38.2726H22.5529C22.5584 44.0644 22.5584 46.7002 22.5564 47.7904H19.1094V38.2726ZM35.9062 54.7429C36.0927 54.7429 36.2716 54.8169 36.4034 54.9488C36.5353 55.0807 36.6094 55.2595 36.6094 55.446C36.6094 55.6325 36.5353 55.8113 36.4034 55.9432C36.2716 56.075 36.0927 56.1491 35.9062 56.1491H32.9824C32.7959 56.1491 32.6171 56.075 32.4852 55.9432C32.3533 55.8113 32.2793 55.6325 32.2793 55.446C32.2793 55.2595 32.3533 55.0807 32.4852 54.9488C32.6171 54.8169 32.7959 54.7429 32.9824 54.7429H35.9062Z" fill="white"/>
</g>
<defs>
<clipPath id="clip0_1_3424">
<rect width="45" height="45" fill="white" transform="translate(17 17)"/>
</clipPath>
</defs>
</svg>
