<svg width="201" height="57" viewBox="0 0 201 57" fill="none" xmlns="http://www.w3.org/2000/svg">
<path fill-rule="evenodd" clip-rule="evenodd" d="M52.2043 28.2024H49.5043C48.9399 28.1965 48.3864 28.0465 47.8963 27.7664C47.4062 27.4864 46.9959 27.0857 46.7043 26.6024L44.9043 23.2024H33.5043L31.7043 26.6024C31.4059 27.0794 30.994 27.4751 30.5054 27.7543C30.0169 28.0334 29.4668 28.1874 28.9043 28.2024H26.3043C26.0321 28.207 25.7634 28.1404 25.525 28.0091C25.2865 27.8777 25.0865 27.6863 24.945 27.4537C24.8034 27.2211 24.7252 26.9556 24.7181 26.6834C24.7109 26.4113 24.7752 26.142 24.9043 25.9024L37.8043 1.70236C37.9427 1.45227 38.1455 1.24382 38.3917 1.09867C38.6379 0.95351 38.9185 0.876953 39.2043 0.876953C39.4901 0.876953 39.7707 0.95351 40.0169 1.09867C40.2631 1.24382 40.466 1.45227 40.6043 1.70236L53.6043 25.9024C53.7335 26.142 53.7977 26.4113 53.7906 26.6834C53.7835 26.9556 53.7052 27.2211 53.5637 27.4537C53.4221 27.6863 53.2222 27.8777 52.9837 28.0091C52.7452 28.1404 52.4765 28.207 52.2043 28.2024ZM42.5043 18.6024L40.6043 15.1024C40.466 14.8523 40.2631 14.6438 40.0169 14.4987C39.7707 14.3535 39.4901 14.277 39.2043 14.277C38.9185 14.277 38.6379 14.3535 38.3917 14.4987C38.1455 14.6438 37.9427 14.8523 37.8043 15.1024L36.0043 18.6024H42.5043Z" fill="white"/>
<path fill-rule="evenodd" clip-rule="evenodd" d="M172.304 28.2024H169.704C169.135 28.2205 168.573 28.0805 168.078 27.7981C167.584 27.5157 167.178 27.1018 166.904 26.6024L165.104 23.2024H153.604L151.804 26.6024C151.515 27.0876 151.105 27.4899 150.615 27.7702C150.124 28.0506 149.569 28.1994 149.004 28.2024H146.404C146.136 28.1959 145.874 28.1222 145.642 27.9881C145.41 27.854 145.216 27.6637 145.076 27.4347C144.937 27.2058 144.857 26.9455 144.845 26.6777C144.832 26.41 144.887 26.1434 145.004 25.9024L158.004 1.70236C158.143 1.45227 158.346 1.24382 158.592 1.09867C158.838 0.95351 159.119 0.876953 159.404 0.876953C159.69 0.876953 159.971 0.95351 160.217 1.09867C160.463 1.24382 160.666 1.45227 160.804 1.70236L173.704 25.9024C173.834 26.142 173.898 26.4113 173.891 26.6834C173.884 26.9556 173.805 27.2211 173.664 27.4537C173.522 27.6863 173.322 27.8777 173.084 28.0091C172.845 28.1404 172.577 28.207 172.304 28.2024ZM162.604 18.6024L160.704 15.1024C160.566 14.8523 160.363 14.6438 160.117 14.4987C159.871 14.3535 159.59 14.277 159.304 14.277C159.019 14.277 158.738 14.3535 158.492 14.4987C158.246 14.6438 158.043 14.8523 157.904 15.1024L156.104 18.6024H162.604Z" fill="white"/>
<path d="M20.3044 19.7024C20.3851 20.8818 20.1925 22.0639 19.7415 23.1566C19.2905 24.2494 18.5934 25.2232 17.7044 26.0024C16.0159 27.5469 13.7917 28.372 11.5044 28.3024C8.85012 28.3067 6.2138 27.8673 3.70439 27.0024C0.804391 26.0024 0.504395 24.6024 0.504395 23.6024V23.1024C0.529417 22.1927 0.769278 21.3018 1.20439 20.5024C5.30439 22.3024 8.3044 23.1024 10.3044 23.1024H10.8044C13.5044 22.9024 14.8044 22.1024 14.8044 20.5024C14.8133 19.8313 14.6034 19.1755 14.2065 18.6342C13.8095 18.093 13.2472 17.6957 12.6044 17.5024C11.1166 16.7919 9.57926 16.1903 8.00439 15.7024C5.60439 14.9024 5.0044 14.5024 4.9044 14.3024H4.8044V14.2024C3.87911 13.6361 3.13396 12.8183 2.65589 11.8444C2.17782 10.8706 1.98655 9.78086 2.10439 8.70242C2.07344 7.55612 2.27808 6.41566 2.70564 5.35163C3.13321 4.2876 3.7746 3.32264 4.59013 2.51648C5.40566 1.71033 6.37797 1.08013 7.44687 0.664892C8.51577 0.249654 9.65853 0.0582142 10.8044 0.102421H11.1044C13.5744 0.102421 16.6344 0.932421 20.3044 2.60242C20.1724 3.24438 20.0055 3.87866 19.8044 4.50242C19.7971 4.57921 19.7614 4.65052 19.7044 4.70242C19.3044 5.80242 18.7044 6.60242 17.9044 6.60242H17.5044C14.3044 5.50242 12.1044 4.90242 10.5044 4.90242C10.0864 4.86757 9.66574 4.92076 9.26957 5.05856C8.8734 5.19635 8.51054 5.4157 8.20439 5.70242C7.97397 5.93699 7.80015 6.22108 7.69617 6.53301C7.5922 6.84495 7.5608 7.17651 7.60439 7.50242C7.64426 8.13495 7.86273 8.74319 8.23445 9.25651C8.60617 9.76984 9.11588 10.1672 9.70439 10.4024C11.1891 11.1476 12.7266 11.7827 14.3044 12.3024C15.4647 12.6117 16.5756 13.083 17.6044 13.7024C18.502 14.4133 19.2157 15.3293 19.6855 16.3734C20.1554 17.4175 20.3676 18.5592 20.3044 19.7024Z" fill="white"/>
<path d="M83.4044 0.902344V25.5023C83.4044 26.9023 82.9044 28.2023 80.2044 28.2023C79.6466 28.2372 79.0881 28.1476 78.5693 27.94C78.0504 27.7325 77.5842 27.4122 77.2044 27.0023L67.5044 15.4023L65.6044 13.1023V25.5023C65.6044 26.9023 65.2044 28.2023 62.4044 28.2023H59.1044V1.00234H62.4044C62.9648 0.936909 63.5327 1.01239 64.0565 1.22193C64.5804 1.43148 65.0437 1.76847 65.4044 2.20234L65.5044 2.30234H65.4044L75.0044 13.7023L76.9044 16.0023V3.60234C76.9044 2.20234 77.3044 0.902344 80.1044 0.902344H83.4044Z" fill="white"/>
<path d="M110.104 19.7023C110.185 20.8817 109.993 22.0638 109.542 23.1565C109.091 24.2493 108.393 25.2232 107.504 26.0023C106.673 26.7749 105.698 27.3758 104.634 27.7705C103.57 28.1652 102.438 28.3459 101.304 28.3023C98.6534 28.2692 96.023 27.8308 93.5044 27.0023C90.6044 26.0023 90.3044 24.6023 90.3044 23.6023V22.9023C90.3263 22.0553 90.5675 21.2284 91.0044 20.5023C95.1044 22.3023 98.1044 23.1023 100.104 23.1023H100.604C103.304 22.9023 104.604 22.1023 104.604 20.5023C104.59 19.8369 104.372 19.1919 103.978 18.6551C103.584 18.1184 103.035 17.7158 102.404 17.5023C101.274 16.9723 99.7344 16.3723 97.8044 15.7023C95.4044 14.9023 94.8044 14.5023 94.7044 14.3023H94.6044L94.5044 14.2023C93.6163 13.5746 92.9024 12.7313 92.4301 11.7516C91.9577 10.7719 91.7424 9.68816 91.8044 8.60234C91.7795 7.44446 91.9981 6.29425 92.446 5.22621C92.8939 4.15817 93.5611 3.19611 94.4044 2.40234C96.0713 0.812159 98.3014 -0.0510902 100.604 0.00234046H100.804C103.271 0.00234046 106.371 0.835674 110.104 2.50234C109.951 3.21479 109.75 3.91631 109.504 4.60234C109.467 4.64185 109.438 4.68924 109.421 4.74112C109.403 4.79299 109.398 4.84805 109.404 4.90234C108.904 5.80234 108.404 6.60234 107.704 6.60234C107.532 6.6179 107.358 6.58318 107.204 6.50234C105.002 5.59356 102.677 5.0205 100.304 4.80234C99.8628 4.76576 99.4185 4.8275 99.0035 4.98312C98.5885 5.13873 98.2132 5.38436 97.9044 5.70234C97.6931 5.92937 97.5308 6.19746 97.4276 6.48992C97.3244 6.78239 97.2825 7.09297 97.3044 7.40234C97.3044 8.20234 97.8044 9.40234 99.5044 10.3023C100.984 11.0856 102.522 11.7542 104.104 12.3023C105.234 12.657 106.337 13.0914 107.404 13.6023C108.296 14.3409 109.004 15.2762 109.472 16.3347C109.941 17.3932 110.157 18.546 110.104 19.7023Z" fill="white"/>
<path d="M139.804 25.5022C139.778 25.9207 139.657 26.3276 139.449 26.6917C139.241 27.0558 138.952 27.3673 138.604 27.6021C138.349 27.8799 138.041 28.103 137.697 28.2577C137.353 28.4124 136.981 28.4956 136.604 28.5022C136.463 28.5171 136.322 28.4817 136.204 28.4022C135.715 28.3177 135.248 28.1317 134.835 27.8561C134.422 27.5806 134.071 27.2215 133.804 26.8022L133.704 26.7022L125.404 17.5022L123.504 15.3022V25.5022C123.504 26.9022 123.104 28.2022 120.504 28.2022H117.104V1.00215H123.504V13.7022L125.404 11.6021L133.804 2.30215V2.20215C134.411 1.37815 135.302 0.808157 136.304 0.602152H136.604C136.975 0.591703 137.343 0.657303 137.687 0.794901C138.031 0.9325 138.343 1.13917 138.604 1.40215L138.804 1.60215L139.004 1.80215C139.391 2.30411 139.664 2.88418 139.804 3.50215C139.72 4.40359 139.332 5.2497 138.704 5.90215L131.804 13.7022L131.104 14.5022L131.704 15.2022L138.704 23.1021C139.037 23.41 139.305 23.7806 139.494 24.1924C139.683 24.6043 139.788 25.0494 139.804 25.5022Z" fill="white"/>
<path fill-rule="evenodd" clip-rule="evenodd" d="M200.304 25.5023C200.265 25.8926 200.148 26.271 199.959 26.6147C199.77 26.9584 199.513 27.2603 199.204 27.5023C198.562 28.0548 197.751 28.3722 196.904 28.4023H196.704C195.697 28.2094 194.802 27.6366 194.204 26.8023L187.404 17.5023L185.404 14.7023V25.5023C185.404 26.9023 185.004 28.1023 182.304 28.2023H179.004V0.902332H192.004C192.996 0.885366 193.978 1.09237 194.879 1.50792C195.779 1.92346 196.574 2.53684 197.204 3.30233C198.522 4.75713 199.268 6.63992 199.304 8.60233C199.304 12.0023 198.004 14.3023 195.404 15.8023L194.404 16.4023L195.104 17.4023L199.004 22.8023L199.104 22.9023C199.812 23.5912 200.239 24.5173 200.304 25.5023ZM193.804 9.10233C193.804 6.30233 192.004 4.70233 189.004 4.70233H185.404V13.6023H189.004C192.004 13.6023 193.804 12.0023 193.804 9.10233Z" fill="white"/>
<path fill-rule="evenodd" clip-rule="evenodd" d="M63.2044 23.7025C63.1404 23.8488 63.0443 23.9787 62.923 24.0826C62.8018 24.1865 62.6587 24.2617 62.5044 24.3025H62.1044C61.9649 24.3025 61.8275 24.2682 61.7044 24.2025C61.5851 24.1412 61.4793 24.0564 61.3934 23.9533C61.3075 23.8503 61.2432 23.7309 61.2044 23.6025C61.1432 23.4735 61.12 23.3296 61.1378 23.1879C61.1555 23.0462 61.2133 22.9125 61.3044 22.8025C61.3474 22.6609 61.4246 22.532 61.5292 22.4274C61.6339 22.3227 61.7627 22.2455 61.9044 22.2025C62.1747 22.1922 62.4449 22.2259 62.7044 22.3025C62.9399 22.4389 63.1195 22.6545 63.211 22.9109C63.3026 23.1672 63.3002 23.4477 63.2044 23.7025ZM62.6044 22.6025C62.4813 22.5368 62.3439 22.5025 62.2044 22.5025H62.0044C61.8933 22.5194 61.7885 22.5653 61.7008 22.6355C61.613 22.7057 61.5453 22.7978 61.5044 22.9025C61.451 22.9942 61.4164 23.0956 61.4026 23.2008C61.3889 23.3061 61.3961 23.413 61.4241 23.5153C61.452 23.6177 61.5 23.7135 61.5653 23.7971C61.6306 23.8808 61.7119 23.9506 61.8044 24.0025C62.006 24.07 62.2245 24.0673 62.4242 23.9946C62.624 23.922 62.7933 23.7837 62.9044 23.6025C62.9544 23.5181 62.9863 23.4242 62.9982 23.3269C63.0101 23.2295 63.0017 23.1307 62.9735 23.0368C62.9453 22.9428 62.8979 22.8557 62.8344 22.781C62.7709 22.7062 62.6926 22.6455 62.6044 22.6025Z" fill="#31393C" stroke="#31393C" stroke-width="0.25" stroke-miterlimit="10"/>
<path d="M62.3044 28.2022H62.0044V24.3022H62.3044V28.2022Z" fill="#31393C" stroke="#31393C" stroke-width="0.25" stroke-miterlimit="10"/>
<path fill-rule="evenodd" clip-rule="evenodd" d="M121.204 22.1023C121.161 22.2439 121.084 22.3727 120.98 22.4774C120.875 22.5821 120.746 22.6593 120.604 22.7023H120.104C119.998 22.6926 119.895 22.6584 119.804 22.6023C119.685 22.5409 119.579 22.4562 119.493 22.3531C119.407 22.25 119.343 22.1307 119.304 22.0023C119.243 21.8732 119.22 21.7294 119.238 21.5877C119.255 21.446 119.313 21.3122 119.404 21.2023C119.504 21.0023 119.704 20.7023 120.004 20.7023C120.262 20.6019 120.547 20.6019 120.804 20.7023C120.926 20.7649 121.033 20.8516 121.119 20.9571C121.205 21.0627 121.269 21.1847 121.307 21.3159C121.344 21.447 121.354 21.5844 121.337 21.7196C121.319 21.8549 121.274 21.9851 121.204 22.1023ZM120.704 21.0023C120.587 20.9227 120.445 20.8873 120.304 20.9023H120.104C119.993 20.9192 119.889 20.965 119.801 21.0352C119.713 21.1055 119.645 21.1975 119.604 21.3023C119.551 21.394 119.516 21.4954 119.503 21.6006C119.489 21.7058 119.496 21.8127 119.524 21.9151C119.552 22.0174 119.6 22.1132 119.665 22.1969C119.731 22.2805 119.812 22.3503 119.904 22.4023C120.093 22.4837 120.299 22.518 120.504 22.5023C120.708 22.4225 120.882 22.2831 121.004 22.1023C121.058 22.0105 121.092 21.9091 121.106 21.8039C121.12 21.6987 121.113 21.5918 121.085 21.4894C121.057 21.3871 121.009 21.2913 120.943 21.2076C120.878 21.124 120.797 21.0542 120.704 21.0023Z" fill="#31393C" stroke="#31393C" stroke-width="0.25" stroke-miterlimit="10"/>
<path d="M120.404 28.2022H120.204L120.104 22.8022H120.404V28.2022Z" fill="#31393C" stroke="#31393C" stroke-width="0.25" stroke-miterlimit="10"/>
<path fill-rule="evenodd" clip-rule="evenodd" d="M183.104 22.1023C183.061 22.2439 182.984 22.3727 182.88 22.4774C182.775 22.5821 182.646 22.6593 182.504 22.7023H182.004C181.865 22.7023 181.728 22.6679 181.604 22.6023C181.485 22.5409 181.379 22.4562 181.293 22.3531C181.208 22.25 181.143 22.1307 181.104 22.0023C181.043 21.8732 181.02 21.7294 181.038 21.5877C181.055 21.446 181.113 21.3122 181.204 21.2023C181.304 21.0023 181.504 20.7023 181.804 20.7023C182.062 20.6019 182.347 20.6019 182.604 20.7023C182.834 20.8442 183.009 21.0601 183.1 21.3146C183.191 21.569 183.192 21.8468 183.104 22.1023ZM182.504 21.0023C182.381 20.9366 182.244 20.9023 182.104 20.9023H181.904C181.793 20.9192 181.689 20.965 181.601 21.0352C181.513 21.1055 181.445 21.1975 181.404 21.3023C181.351 21.394 181.316 21.4954 181.303 21.6006C181.289 21.7058 181.296 21.8127 181.324 21.9151C181.352 22.0174 181.4 22.1132 181.465 22.1969C181.531 22.2805 181.612 22.3503 181.704 22.4023C181.893 22.4837 182.099 22.518 182.304 22.5023C182.508 22.4225 182.682 22.2831 182.804 22.1023C182.858 22.0105 182.892 21.9091 182.906 21.8039C182.92 21.6987 182.913 21.5918 182.885 21.4894C182.857 21.3871 182.809 21.2913 182.744 21.2076C182.678 21.124 182.597 21.0542 182.504 21.0023Z" fill="#31393C" stroke="#31393C" stroke-width="0.25" stroke-miterlimit="10"/>
<path d="M182.204 28.2022H182.004L181.904 22.8022H182.204V28.2022Z" fill="#31393C" stroke="#31393C" stroke-width="0.25" stroke-miterlimit="10"/>
<path fill-rule="evenodd" clip-rule="evenodd" d="M96.8044 24.8022C96.8181 25.0164 96.766 25.2296 96.6549 25.4132C96.5438 25.5968 96.3791 25.7419 96.183 25.8291C95.9869 25.9162 95.7688 25.9412 95.5581 25.9007C95.3473 25.8601 95.1541 25.7559 95.0044 25.6022C94.8802 25.5091 94.7794 25.3883 94.7099 25.2494C94.6405 25.1106 94.6044 24.9575 94.6044 24.8022C94.6044 24.7022 94.7044 24.7022 94.7044 24.6022V24.5022C94.7117 24.4254 94.7473 24.3541 94.8044 24.3022C94.8847 24.2121 94.9521 24.1111 95.0044 24.0022C95.1106 23.9009 95.2363 23.8221 95.3737 23.7706C95.5112 23.719 95.6577 23.6958 95.8044 23.7022C95.9358 23.6987 96.0664 23.7237 96.1873 23.7755C96.3081 23.8273 96.4163 23.9046 96.5044 24.0022C96.6397 24.0798 96.7437 24.2022 96.7984 24.3482C96.8532 24.4942 96.8553 24.6548 96.8044 24.8022ZM96.5044 25.0022C96.6044 25.0022 96.6044 24.9022 96.6044 24.8022C96.6077 24.6852 96.582 24.5692 96.5297 24.4646C96.4774 24.3599 96.4 24.2698 96.3044 24.2022C96.1582 24.0569 95.9605 23.9753 95.7544 23.9753C95.5483 23.9753 95.3505 24.0569 95.2044 24.2022C95.0804 24.3783 95.0109 24.587 95.0044 24.8022C95.0078 24.9877 95.0789 25.1656 95.2044 25.3022C95.2742 25.3954 95.3648 25.471 95.4689 25.523C95.5731 25.5751 95.6879 25.6022 95.8044 25.6022C95.9208 25.6022 96.0356 25.5751 96.1398 25.523C96.2439 25.471 96.3345 25.3954 96.4044 25.3022C96.4405 25.2616 96.4681 25.2141 96.4853 25.1625C96.5025 25.1109 96.509 25.0564 96.5044 25.0022Z" fill="#31393C" stroke="#31393C" stroke-width="0.25" stroke-miterlimit="10"/>
<path d="M94.8044 24.3023L94.7044 24.6023L90.3044 23.2023V22.9023L94.8044 24.3023Z" fill="#31393C" stroke="#31393C" stroke-width="0.25" stroke-miterlimit="10"/>
<path fill-rule="evenodd" clip-rule="evenodd" d="M6.00438 24.6024C6.04322 24.7504 6.03523 24.9068 5.9815 25.0501C5.92778 25.1934 5.83096 25.3165 5.70438 25.4024C5.55465 25.5562 5.36142 25.6603 5.15069 25.7009C4.93997 25.7414 4.72187 25.7165 4.52578 25.6293C4.32968 25.5422 4.16499 25.397 4.05389 25.2134C3.94279 25.0298 3.89062 24.8166 3.90439 24.6024V24.4024C3.97439 24.4024 4.00438 24.4024 4.00438 24.3024V24.2024C4.05668 24.0936 4.124 23.9926 4.20438 23.9024C4.29753 23.7782 4.41832 23.6774 4.55717 23.608C4.69603 23.5386 4.84914 23.5024 5.00438 23.5024C5.15781 23.5117 5.30777 23.552 5.44525 23.6207C5.58273 23.6894 5.70489 23.7853 5.80439 23.9024C5.91412 23.9775 5.99418 24.0885 6.0307 24.2164C6.06722 24.3442 6.05791 24.4807 6.00438 24.6024ZM5.80439 24.9024V24.6024C5.79713 24.4874 5.76683 24.3751 5.7153 24.272C5.66376 24.1689 5.59204 24.0773 5.50438 24.0024C5.35823 23.8571 5.16049 23.7755 4.95438 23.7755C4.74827 23.7755 4.55054 23.8571 4.40439 24.0024C4.32819 24.0811 4.27066 24.1758 4.23604 24.2797C4.20142 24.3835 4.19059 24.4938 4.20438 24.6024C4.22509 24.8149 4.29346 25.02 4.40439 25.2024C4.57037 25.348 4.78361 25.4283 5.00438 25.4283C5.22516 25.4283 5.4384 25.348 5.60438 25.2024C5.68476 25.1123 5.75209 25.0113 5.80439 24.9024Z" fill="#31393C" stroke="#31393C" stroke-width="0.25" stroke-miterlimit="10"/>
<path d="M4.00439 24.2025V24.5025L0.504395 23.4025V23.1025L4.00439 24.2025Z" fill="#31393C" stroke="#31393C" stroke-width="0.25" stroke-miterlimit="10"/>
<path fill-rule="evenodd" clip-rule="evenodd" d="M107.904 4.10247V4.30247C107.878 4.30247 107.852 4.313 107.834 4.33176C107.815 4.35051 107.804 4.37595 107.804 4.40247V4.50247C107.704 4.60247 107.704 4.70247 107.604 4.80247C107.511 4.92666 107.39 5.02747 107.252 5.0969C107.113 5.16632 106.96 5.20247 106.804 5.20247C106.556 5.14119 106.32 5.03986 106.104 4.90247C105.987 4.80298 105.891 4.68081 105.823 4.54333C105.754 4.40585 105.714 4.25589 105.704 4.10247C105.755 3.81995 105.857 3.54895 106.004 3.30247C106.207 3.11045 106.475 3.00342 106.754 3.00342C107.033 3.00342 107.302 3.11045 107.504 3.30247C107.629 3.39561 107.729 3.5164 107.799 3.65525C107.868 3.79411 107.904 3.94722 107.904 4.10247ZM107.604 4.00247C107.606 3.89939 107.579 3.79785 107.526 3.70944C107.473 3.62103 107.396 3.54931 107.304 3.50247C107.158 3.35713 106.96 3.27555 106.754 3.27555C106.548 3.27555 106.35 3.35713 106.204 3.50247C106.152 3.61134 106.085 3.71232 106.004 3.80247V4.10247C106.008 4.28796 106.079 4.4658 106.204 4.60247C106.37 4.74803 106.584 4.82829 106.804 4.82829C107.025 4.82829 107.238 4.74803 107.404 4.60247C107.53 4.42719 107.6 4.21805 107.604 4.00247Z" fill="#31393C" stroke="#31393C" stroke-width="0.25" stroke-miterlimit="10"/>
<path d="M109.504 4.70215C109.504 4.80215 109.404 4.90215 109.404 5.00215L107.804 4.50215V4.20215L109.504 4.70215Z" fill="#31393C" stroke="#31393C" stroke-width="0.25" stroke-miterlimit="10"/>
<path fill-rule="evenodd" clip-rule="evenodd" d="M17.1044 3.50237C17.0501 3.55631 17.015 3.62656 17.0044 3.70237V3.90237C16.9044 4.10237 16.8044 4.10237 16.7044 4.20237C16.63 4.32178 16.5271 4.42083 16.4049 4.49064C16.2827 4.56046 16.1451 4.59885 16.0044 4.60237C15.8578 4.60882 15.7113 4.58557 15.5738 4.53402C15.4363 4.48247 15.3107 4.40368 15.2044 4.30237C15.0117 4.08043 14.9055 3.79634 14.9055 3.50237C14.9055 3.2084 15.0117 2.92432 15.2044 2.70237C15.4069 2.51035 15.6754 2.40332 15.9544 2.40332C16.2335 2.40332 16.5019 2.51035 16.7044 2.70237C16.8964 2.93542 17.0332 3.20893 17.1044 3.50237ZM16.8044 3.40237C16.8063 3.29929 16.7792 3.19775 16.7261 3.10934C16.6731 3.02093 16.5963 2.94922 16.5044 2.90237C16.3583 2.75703 16.1605 2.67545 15.9544 2.67545C15.7483 2.67545 15.5506 2.75703 15.4044 2.90237C15.3521 3.01124 15.2848 3.11223 15.2044 3.20237V3.50237C15.2251 3.71486 15.2935 3.91995 15.4044 4.10237C15.5728 4.2103 15.7724 4.25907 15.9716 4.24096C16.1708 4.22285 16.3583 4.1389 16.5044 4.00237C16.6028 3.93755 16.6823 3.84796 16.7349 3.74262C16.7876 3.63728 16.8116 3.51993 16.8044 3.40237Z" fill="#31393C" stroke="#31393C" stroke-width="0.25" stroke-miterlimit="10"/>
<path d="M19.8044 4.50215C19.7501 4.55609 19.715 4.62634 19.7044 4.70215L16.9044 3.90215L17.0044 3.70215L19.8044 4.50215Z" fill="#31393C" stroke="#31393C" stroke-width="0.25" stroke-miterlimit="10"/>
<path fill-rule="evenodd" clip-rule="evenodd" d="M81.2044 6.70212C81.0865 6.97015 80.8724 7.18424 80.6044 7.30211C80.3009 7.31837 79.9968 7.28459 79.7044 7.20212C79.4587 7.0505 79.2804 6.81061 79.206 6.53167C79.1316 6.25274 79.1668 5.95592 79.3044 5.70212C79.3657 5.58278 79.4504 5.47701 79.5535 5.39111C79.6566 5.30521 79.7759 5.24094 79.9044 5.20212H80.4044C80.4585 5.19752 80.5131 5.20401 80.5647 5.22121C80.6162 5.2384 80.6638 5.26593 80.7044 5.30211C80.846 5.34508 80.9748 5.42231 81.0795 5.52697C81.1842 5.63163 81.2614 5.76048 81.3044 5.90212C81.3705 6.17201 81.3349 6.45682 81.2044 6.70212ZM80.6044 5.50211C80.5197 5.43855 80.421 5.39628 80.3166 5.37887C80.2121 5.36147 80.1051 5.36944 80.0044 5.40212C79.8932 5.41901 79.7885 5.46487 79.7007 5.53509C79.613 5.60531 79.5452 5.6974 79.5044 5.80211C79.451 5.89383 79.4164 5.99524 79.4026 6.10045C79.3888 6.20566 79.3961 6.31256 79.424 6.41493C79.4519 6.5173 79.4999 6.6131 79.5652 6.69674C79.6305 6.78038 79.7118 6.85019 79.8044 6.90212C79.9275 6.96777 80.0648 7.00211 80.2044 7.00211H80.4044C80.5155 6.98522 80.6202 6.93936 80.708 6.86914C80.7957 6.79892 80.8635 6.70682 80.9044 6.60211C80.9577 6.5104 80.9923 6.40899 81.0061 6.30378C81.0199 6.19857 81.0126 6.09166 80.9847 5.98929C80.9568 5.88692 80.9088 5.79113 80.8435 5.70749C80.7782 5.62385 80.6969 5.55404 80.6044 5.50211Z" fill="#31393C" stroke="#31393C" stroke-width="0.25" stroke-miterlimit="10"/>
<path d="M80.4044 5.10234V5.20234H80.1044V0.902344H80.3044L80.4044 5.10234Z" fill="#31393C" stroke="#31393C" stroke-width="0.25" stroke-miterlimit="10"/>
<path fill-rule="evenodd" clip-rule="evenodd" d="M49.2044 21.5023C49.2184 21.6349 49.1982 21.7689 49.1457 21.8914C49.0931 22.014 49.0101 22.121 48.9044 22.2023L48.7044 22.4023H48.6044C48.6044 22.5023 48.5044 22.5023 48.4044 22.5023H48.1044C47.809 22.5098 47.5221 22.4023 47.3044 22.2023C47.2031 22.0961 47.1243 21.9704 47.0728 21.833C47.0212 21.6955 46.998 21.549 47.0044 21.4023C46.9904 21.2698 47.0107 21.1358 47.0632 21.0132C47.1157 20.8907 47.1988 20.7837 47.3044 20.7023C47.5308 20.5171 47.812 20.4116 48.1044 20.4023C48.3954 20.405 48.6736 20.5217 48.8794 20.7274C49.0851 20.9331 49.2018 21.2114 49.2044 21.5023ZM48.9044 21.5023C48.9155 21.3898 48.9031 21.2762 48.8682 21.1686C48.8332 21.0611 48.7764 20.9619 48.7012 20.8774C48.6261 20.7929 48.5343 20.7248 48.4316 20.6775C48.3289 20.6301 48.2175 20.6046 48.1044 20.6023C47.9644 20.5982 47.826 20.6328 47.7044 20.7023C47.666 20.7044 47.6284 20.7143 47.594 20.7315C47.5596 20.7487 47.5291 20.7728 47.5044 20.8023C47.3935 20.9848 47.3251 21.1899 47.3044 21.4023C47.3132 21.5605 47.3659 21.713 47.4567 21.8427C47.5475 21.9725 47.6727 22.0743 47.8183 22.1366C47.9639 22.199 48.1239 22.2195 48.2805 22.1958C48.4371 22.172 48.5839 22.105 48.7044 22.0023C48.8299 21.8657 48.901 21.6878 48.9044 21.5023Z" fill="#31393C" stroke="#31393C" stroke-width="0.25" stroke-miterlimit="10"/>
<path d="M51.6044 28.2023H51.3044L48.4044 22.5023L48.7044 22.4023L51.6044 28.2023Z" fill="#31393C" stroke="#31393C" stroke-width="0.25" stroke-miterlimit="10"/>
<path fill-rule="evenodd" clip-rule="evenodd" d="M169.504 22.5025C169.512 22.7979 169.404 23.0848 169.204 23.3025C169.104 23.3025 169.104 23.4025 169.004 23.4025C168.904 23.4025 169.004 23.5025 168.904 23.5025L168.804 23.6024H168.404C168.109 23.6099 167.822 23.5024 167.604 23.3025C167.419 23.076 167.314 22.7949 167.304 22.5025C167.286 22.3582 167.315 22.2118 167.387 22.0856C167.46 21.9593 167.571 21.8599 167.704 21.8025C167.889 21.614 168.141 21.5062 168.404 21.5025C168.68 21.5013 168.945 21.6034 169.149 21.7885C169.353 21.9736 169.479 22.2284 169.504 22.5025ZM169.204 22.6024C169.214 22.4951 169.199 22.387 169.162 22.2858C169.125 22.1846 169.067 22.0927 168.99 22.0165C168.914 21.9403 168.822 21.8817 168.721 21.8447C168.62 21.8078 168.512 21.7933 168.404 21.8025H168.104C168.004 21.9025 167.904 21.9025 167.904 22.0025C167.813 22.0493 167.736 22.121 167.683 22.2094C167.63 22.2978 167.603 22.3994 167.604 22.5025C167.613 22.6606 167.666 22.8131 167.757 22.9428C167.848 23.0726 167.973 23.1744 168.118 23.2368C168.264 23.2991 168.424 23.3196 168.58 23.2959C168.737 23.2722 168.884 23.2052 169.004 23.1024C169.13 22.9658 169.201 22.7879 169.204 22.6024Z" fill="#31393C" stroke="#31393C" stroke-width="0.25" stroke-miterlimit="10"/>
<path d="M171.404 28.2023H171.004L168.704 23.6023L169.004 23.4023V23.5023L171.404 28.2023Z" fill="#31393C" stroke="#31393C" stroke-width="0.25" stroke-miterlimit="10"/>
<path fill-rule="evenodd" clip-rule="evenodd" d="M137.604 4.60236C137.504 4.90236 137.304 5.00237 137.004 5.20237C136.734 5.21271 136.464 5.17893 136.204 5.10236C136.085 5.04101 135.979 4.95628 135.893 4.8532C135.807 4.75012 135.743 4.63081 135.704 4.50237C135.627 4.23563 135.644 3.95027 135.754 3.69497C135.863 3.43967 136.058 3.23022 136.304 3.10236C136.575 3.08105 136.847 3.11507 137.104 3.20237C137.204 3.20237 137.204 3.20237 137.304 3.30237C137.331 3.30237 137.356 3.3129 137.375 3.33165C137.394 3.35041 137.404 3.37585 137.404 3.40237C137.474 3.40237 137.504 3.40237 137.504 3.50237C137.585 3.59251 137.652 3.6935 137.704 3.80237C137.762 3.93217 137.783 4.0753 137.766 4.21629C137.748 4.35728 137.692 4.49077 137.604 4.60236ZM137.404 3.90237C137.329 3.69636 137.189 3.52069 137.004 3.40237C136.912 3.35334 136.809 3.3277 136.704 3.3277C136.6 3.3277 136.497 3.35334 136.404 3.40237C136.211 3.4768 136.053 3.62058 135.961 3.80555C135.868 3.99052 135.848 4.20335 135.904 4.40237L136.104 4.80237C136.129 4.83188 136.16 4.85599 136.194 4.8732C136.228 4.8904 136.266 4.90033 136.304 4.90237C136.41 4.9669 136.531 5.00105 136.654 5.00105C136.778 5.00105 136.899 4.9669 137.004 4.90237C137.102 4.87075 137.192 4.81798 137.267 4.74778C137.342 4.67759 137.401 4.59171 137.439 4.49625C137.477 4.40078 137.494 4.29808 137.488 4.19544C137.482 4.09279 137.453 3.99273 137.404 3.90237Z" fill="#31393C" stroke="#31393C" stroke-width="0.25" stroke-miterlimit="10"/>
<path d="M139.004 1.80254L137.504 3.50254L137.304 3.30254L138.804 1.60254L139.004 1.80254Z" fill="#31393C" stroke="#31393C" stroke-width="0.25" stroke-miterlimit="10"/>
<path d="M32.1044 19.7024C32.0044 19.6024 31.9044 19.5024 32.0044 19.4024L38.7044 6.40237C38.7175 6.38907 38.733 6.3785 38.7502 6.37128C38.7674 6.36407 38.7858 6.36035 38.8044 6.36035C38.8231 6.36035 38.8415 6.36407 38.8587 6.37128C38.8758 6.3785 38.8914 6.38907 38.9044 6.40237C39.0044 6.40237 39.1044 6.50237 39.0044 6.60237L32.3044 19.6024C32.2798 19.6319 32.2493 19.656 32.2149 19.6732C32.1804 19.6904 32.1429 19.7003 32.1044 19.7024Z" fill="#31393C" stroke="#31393C" stroke-width="0.25" stroke-miterlimit="10"/>
<path d="M78.4044 23.7021C78.3778 23.7021 78.3524 23.6916 78.3336 23.6728C78.3149 23.654 78.3044 23.6286 78.3044 23.6021L69.2044 12.2021C69.1044 12.2021 69.2044 12.0021 69.2044 12.0021C69.2221 11.9792 69.2449 11.9608 69.2709 11.948C69.2969 11.9353 69.3254 11.9287 69.3544 11.9287C69.3833 11.9287 69.4119 11.9353 69.4378 11.948C69.4638 11.9608 69.4866 11.9792 69.5044 12.0021L78.6044 23.4021C78.6109 23.4564 78.6053 23.5114 78.588 23.5633C78.5707 23.6152 78.5422 23.6626 78.5044 23.7021H78.4044Z" fill="#31393C" stroke="#31393C" stroke-width="0.25" stroke-miterlimit="10"/>
<path d="M150.604 22.7026H150.504C150.467 22.663 150.438 22.6156 150.421 22.5638C150.403 22.5119 150.398 22.4568 150.404 22.4026L157.104 9.50255C157.144 9.46475 157.191 9.43618 157.243 9.41889C157.295 9.4016 157.35 9.39602 157.404 9.40255C157.504 9.40255 157.504 9.50255 157.504 9.60255L150.704 22.6026C150.704 22.6726 150.704 22.7026 150.604 22.7026Z" fill="#31393C" stroke="#31393C" stroke-width="0.25" stroke-miterlimit="10"/>
<path d="M135.804 25.3022L135.704 25.2022L130.304 18.9022C130.304 18.9022 130.304 18.7022 130.404 18.7022C130.504 18.7022 130.604 18.6022 130.604 18.7022L136.004 25.0022C136.104 25.0022 136.104 25.2022 135.904 25.2022C135.904 25.2287 135.894 25.2541 135.875 25.2729C135.856 25.2916 135.831 25.3022 135.804 25.3022Z" fill="#31393C" stroke="#31393C" stroke-width="0.25" stroke-miterlimit="10"/>
<path d="M196.204 24.1022C196.166 24.1001 196.128 24.0902 196.094 24.073C196.06 24.0558 196.029 24.0317 196.004 24.0022L191.104 17.4022C191.104 17.3022 191.104 17.2022 191.204 17.2022C191.304 17.2022 191.404 17.1022 191.404 17.2022L196.304 23.8022C196.327 23.8199 196.346 23.8427 196.358 23.8687C196.371 23.8947 196.378 23.9232 196.378 23.9522C196.378 23.9811 196.371 24.0097 196.358 24.0357C196.346 24.0616 196.327 24.0844 196.304 24.1022H196.204Z" fill="#31393C" stroke="#31393C" stroke-width="0.25" stroke-miterlimit="10"/>
<path d="M6.10444 55.5025C6.19252 55.6001 6.30071 55.6774 6.42155 55.7292C6.54239 55.781 6.67302 55.806 6.80445 55.8025C6.93704 55.8165 7.071 55.7962 7.19354 55.7437C7.31609 55.6912 7.42313 55.6081 7.50444 55.5025C7.69286 55.3178 7.80069 55.0663 7.80445 54.8025V42.6025C7.77962 42.3468 7.81171 42.0888 7.89842 41.847C7.98512 41.6052 8.1243 41.3856 8.30593 41.204C8.48757 41.0223 8.70717 40.8832 8.94897 40.7965C9.19077 40.7097 9.44877 40.6777 9.70444 40.7025H12.8044C13.1044 40.7025 13.3044 40.5025 13.4044 40.5025C13.5567 40.3026 13.6281 40.0527 13.6044 39.8025C13.6044 39.4025 13.5044 39.3025 13.4044 39.2025C13.2376 39.0611 13.0227 38.9895 12.8044 39.0025H0.804445C0.586165 38.9895 0.371268 39.0611 0.204439 39.2025C0.133042 39.2843 0.0786 39.3794 0.0442675 39.4824C0.00993501 39.5854 -0.00360146 39.6942 0.00444206 39.8025C-0.0192108 40.0527 0.0521889 40.3026 0.204439 40.5025C0.371268 40.6438 0.586165 40.7155 0.804445 40.7025H3.90444C4.15943 40.6874 4.41483 40.724 4.65537 40.8099C4.89592 40.8958 5.11668 41.0293 5.30445 41.2025C5.63306 41.5944 5.81043 42.0911 5.80445 42.6025V54.8025C5.80092 54.9339 5.82591 55.0645 5.8777 55.1854C5.92948 55.3062 6.00684 55.4144 6.10444 55.5025Z" fill="#627176"/>
<path d="M18.3044 38.9022C18.1803 38.8734 18.051 38.8767 17.9286 38.9118C17.8062 38.9468 17.6947 39.0124 17.6047 39.1025C17.5146 39.1925 17.449 39.304 17.414 39.4264C17.3789 39.5488 17.3756 39.6781 17.4044 39.8022V39.7022C17.3895 39.5936 17.3999 39.4831 17.4348 39.3792C17.4698 39.2754 17.5283 39.181 17.6057 39.1035C17.6832 39.0261 17.7776 38.9676 17.8814 38.9326C17.9853 38.8977 18.0958 38.8873 18.2044 38.9022H18.3044Z" fill="#2A2A2D"/>
<path d="M18.2044 55.8024C18.0869 55.8096 17.9695 55.7856 17.8642 55.7329C17.7588 55.6803 17.6692 55.6008 17.6044 55.5024C17.4744 55.4324 17.4044 55.2724 17.4044 55.0024C17.3957 55.0957 17.4093 55.1896 17.4441 55.2766C17.4788 55.3635 17.5338 55.441 17.6044 55.5024C17.6789 55.5905 17.7704 55.6626 17.8736 55.7141C17.9767 55.7657 18.0893 55.7958 18.2044 55.8024Z" fill="#627176"/>
<path d="M27.9044 54.8022C27.9193 54.6937 27.9089 54.5831 27.8739 54.4793C27.839 54.3754 27.7805 54.281 27.703 54.2036C27.6255 54.1261 27.5312 54.0676 27.4273 54.0326C27.3235 53.9977 27.2129 53.9873 27.1044 54.0022C27.2126 53.9942 27.3214 54.0077 27.4244 54.042C27.5274 54.0764 27.6226 54.1308 27.7044 54.2022C27.83 54.3775 27.8997 54.5866 27.9044 54.8022Z" fill="#627176"/>
<path d="M27.9044 54.8022V54.9022C27.9124 55.0105 27.8989 55.1193 27.8645 55.2223C27.8302 55.3253 27.7758 55.4205 27.7044 55.5022C27.6395 55.6006 27.55 55.6801 27.4446 55.7327C27.3393 55.7854 27.2219 55.8094 27.1044 55.8022C27.2195 55.7956 27.3321 55.7655 27.4352 55.7139C27.5384 55.6624 27.6299 55.5903 27.7044 55.5022C27.8566 55.3023 27.928 55.0524 27.9044 54.8022Z" fill="#627176"/>
<path d="M43.7043 39.5022C43.1137 39.1662 42.4718 38.9297 41.8044 38.8022C41.1902 38.6053 40.5493 38.5041 39.9043 38.5022C38.5941 38.485 37.2964 38.7582 36.1043 39.3022C35.0868 39.7935 34.1708 40.472 33.4043 41.3022C32.6531 42.1102 32.0747 43.063 31.7043 44.1022C31.0375 46.2176 31.0375 48.4869 31.7043 50.6022C32.0853 51.6364 32.6625 52.5872 33.4043 53.4022C34.1708 54.2325 35.0868 54.911 36.1043 55.4022C37.3045 55.911 38.6017 56.15 39.9043 56.1022C40.6424 56.1061 41.3791 56.0392 42.1043 55.9022C42.6971 55.738 43.2678 55.503 43.8044 55.2022C43.9889 55.0839 44.1294 54.9082 44.2043 54.7022C44.1951 54.4098 44.0896 54.1287 43.9043 53.9022C43.825 53.7644 43.7068 53.6529 43.5646 53.5818C43.4223 53.5107 43.2622 53.483 43.1043 53.5022C42.8577 53.5074 42.6165 53.5763 42.4043 53.7022C42.0487 53.8388 41.6801 53.9393 41.3044 54.0022C40.8414 54.0751 40.373 54.1086 39.9043 54.1022C38.5985 54.149 37.3089 53.8005 36.2043 53.1022C35.2932 52.444 34.5413 51.5897 34.0043 50.6022C33.5429 49.5633 33.3045 48.4391 33.3045 47.3022C33.3045 46.1654 33.5429 45.0412 34.0043 44.0022C34.4921 42.9813 35.2537 42.1158 36.2043 41.5022C37.297 40.7676 38.5878 40.3839 39.9043 40.4022C40.3455 40.3997 40.7843 40.4672 41.2043 40.6022C41.627 40.6544 42.0349 40.7904 42.4043 41.0022C42.6299 41.0769 42.8669 41.1107 43.1043 41.1022C43.2622 41.1215 43.4223 41.0938 43.5646 41.0227C43.7068 40.9515 43.825 40.8401 43.9043 40.7022C44.2043 40.4022 44.2043 40.1022 44.1043 40.0022C44.0875 39.8911 44.0416 39.7864 43.9714 39.6986C43.9012 39.6108 43.8091 39.5431 43.7043 39.5022Z" fill="#627176"/>
<path d="M61.3044 55.5023C61.4073 55.6083 61.5324 55.6902 61.6707 55.7421C61.8091 55.7939 61.9572 55.8145 62.1044 55.8023C62.3664 55.7907 62.6152 55.684 62.8044 55.5023C62.939 55.294 63.0086 55.0503 63.0044 54.8023V39.9023C63.0086 39.6543 62.939 39.4107 62.8044 39.2023C62.5867 39.0024 62.2999 38.8948 62.0044 38.9023C61.873 38.8988 61.7423 38.9238 61.6215 38.9756C61.5007 39.0274 61.3925 39.1047 61.3044 39.2023C61.116 39.387 61.0081 39.6386 61.0044 39.9023V44.5023C61.0104 45.0138 60.833 45.5104 60.5044 45.9023C60.08 46.2426 59.548 46.4199 59.0044 46.4023H53.4044C52.8608 46.4199 52.3287 46.2426 51.9044 45.9023C51.7142 45.7223 51.5628 45.5051 51.4596 45.2644C51.3564 45.0236 51.3036 44.7643 51.3044 44.5023V39.9023C51.3087 39.6543 51.239 39.4107 51.1044 39.2023C51.0015 39.0963 50.8764 39.0145 50.738 38.9626C50.5997 38.9107 50.4516 38.8901 50.3044 38.9023C50.0406 38.9061 49.789 39.0139 49.6044 39.2023C49.4697 39.4107 49.4001 39.6543 49.4044 39.9023V54.8023C49.3756 54.9264 49.3789 55.0557 49.414 55.1781C49.449 55.3005 49.5146 55.412 49.6047 55.502C49.6947 55.5921 49.8062 55.6577 49.9286 55.6928C50.051 55.7278 50.1803 55.7311 50.3044 55.7023H50.4044C50.5284 55.7311 50.6578 55.7278 50.7802 55.6928C50.9026 55.6577 51.0141 55.5921 51.1041 55.502C51.1941 55.412 51.2598 55.3005 51.2948 55.1781C51.3298 55.0557 51.3331 54.9264 51.3044 54.8023V48.2023H59.0044C59.276 48.164 59.5528 48.1893 59.8129 48.2763C60.073 48.3632 60.3094 48.5094 60.5033 48.7034C60.6973 48.8973 60.8435 49.1337 60.9305 49.3938C61.0174 49.654 61.0427 49.9307 61.0044 50.2023V54.7023C61.1044 55.1023 61.1044 55.3023 61.3044 55.5023Z" fill="#627176"/>
<path d="M81.5044 55.7023C81.5309 55.7023 81.5563 55.6917 81.5751 55.673C81.5938 55.6542 81.6044 55.6288 81.6044 55.6023V39.9023C81.6006 39.6385 81.4928 39.3869 81.3044 39.2023C81.2163 39.1046 81.1081 39.0273 80.9873 38.9755C80.8664 38.9237 80.7358 38.8987 80.6044 38.9023C80.4718 38.8883 80.3378 38.9085 80.2153 38.961C80.0927 39.0135 79.9857 39.0966 79.9044 39.2023C79.716 39.3869 79.6081 39.6385 79.6044 39.9023V48.2023C79.6044 49.4023 79.0044 49.5023 78.7044 49.5023C78.5129 49.4892 78.3259 49.4383 78.1542 49.3525C77.9826 49.2667 77.8297 49.1476 77.7044 49.0023L68.5044 39.1023C68.4025 38.9857 68.2588 38.9138 68.1044 38.9023V54.8023C68.0692 54.926 68.0692 55.0571 68.1046 55.1808C68.1399 55.3045 68.2091 55.4158 68.3044 55.5023C68.4073 55.6082 68.5324 55.6901 68.6707 55.742C68.8091 55.7939 68.9572 55.8144 69.1044 55.8023C69.3682 55.7985 69.6197 55.6907 69.8044 55.5023C69.939 55.2939 70.0086 55.0503 70.0044 54.8023V43.6023L71.0044 44.6023L81.3044 55.7023H81.4044C81.5044 55.8023 81.5044 55.7023 81.5044 55.7023Z" fill="#627176"/>
<path fill-rule="evenodd" clip-rule="evenodd" d="M102.804 43.5024C103.299 44.7068 103.537 46.0009 103.504 47.3024C103.542 48.6368 103.304 49.9646 102.804 51.2024C102.341 52.2657 101.66 53.2197 100.804 54.0024C100.018 54.7075 99.1006 55.2512 98.1044 55.6024C97.0827 55.994 95.9986 56.1973 94.9044 56.2024C93.7777 56.1976 92.6607 55.9945 91.6044 55.6024C90.6009 55.2672 89.6804 54.7217 88.9044 54.0024C88.0204 53.2453 87.3339 52.2843 86.9044 51.2024C85.9713 48.7206 85.9713 45.9843 86.9044 43.5024C87.3339 42.4206 88.0204 41.4596 88.9044 40.7024C89.6857 39.9661 90.6027 39.3887 91.6044 39.0024C92.6731 38.671 93.7856 38.5024 94.9044 38.5024C95.9883 38.5294 97.064 38.6975 98.1044 39.0024C99.0998 39.4013 100.015 39.9772 100.804 40.7024C101.688 41.4596 102.375 42.4206 102.804 43.5024ZM101.604 47.3024C101.691 46.2764 101.519 45.2451 101.104 44.3024C100.663 43.5372 100.125 42.8315 99.5044 42.2024C98.8558 41.6396 98.1103 41.1992 97.3044 40.9024C96.4895 40.6721 95.6505 40.5378 94.8044 40.5024C93.9879 40.5035 93.1771 40.6387 92.4044 40.9024C91.575 41.1476 90.8192 41.5942 90.2044 42.2024C89.563 42.813 89.0229 43.5219 88.6044 44.3024C88.2003 45.2481 88.0288 46.2768 88.1044 47.3024C88.0182 48.3285 88.19 49.3598 88.6044 50.3024C89.0101 51.0911 89.5517 51.802 90.2044 52.4024C90.8379 52.986 91.5877 53.429 92.4044 53.7024C93.1713 53.9887 93.9862 54.1245 94.8044 54.1024C95.6541 54.107 96.4987 53.9719 97.3044 53.7024C98.1338 53.4573 98.8896 53.0107 99.5044 52.4024C100.157 51.802 100.699 51.0911 101.104 50.3024C101.519 49.3598 101.691 48.3285 101.604 47.3024Z" fill="#627176"/>
<path d="M93.7043 48.5025C93.398 48.1762 93.2204 47.7499 93.2043 47.3025C93.2092 47.095 93.256 46.8905 93.342 46.7015C93.4279 46.5124 93.5511 46.3427 93.7043 46.2025V46.1025C94.0407 45.8119 94.4612 45.6367 94.9043 45.6025C95.322 45.6201 95.7165 45.7994 96.0043 46.1025C96.1792 46.2525 96.3224 46.4359 96.4254 46.642C96.5284 46.8481 96.5893 47.0726 96.6044 47.3025C96.6044 47.5354 96.5501 47.7651 96.446 47.9734C96.3418 48.1816 96.1906 48.3628 96.0043 48.5025C95.7165 48.8057 95.322 48.985 94.9043 49.0025C94.6793 49.0176 94.4538 48.9802 94.2456 48.8935C94.0374 48.8067 93.8522 48.6729 93.7043 48.5025Z" fill="#627176"/>
<path d="M108.104 54.9023C108.104 55.3023 108.204 55.4023 108.304 55.5023C108.404 55.6023 108.604 55.8023 109.004 55.8023H117.804C117.919 55.7956 118.032 55.7655 118.135 55.7139C118.238 55.6624 118.33 55.5903 118.404 55.5023C118.476 55.4205 118.53 55.3253 118.565 55.2223C118.599 55.1193 118.612 55.0105 118.604 54.9023C118.628 54.6521 118.557 54.4022 118.404 54.2023C118.238 54.0609 118.023 53.9893 117.804 54.0023H110.104V39.9023C110.101 39.6385 109.993 39.3869 109.804 39.2023C109.716 39.1046 109.608 39.0273 109.487 38.9755C109.366 38.9237 109.236 38.8987 109.104 38.9023C108.972 38.8883 108.838 38.9085 108.715 38.961C108.593 39.0135 108.486 39.0966 108.404 39.2023C108.216 39.3869 108.108 39.6385 108.104 39.9023V54.9023Z" fill="#627176"/>
<path d="M19.4044 40.7023V46.4023H27.1044C27.222 46.3951 27.3393 46.4191 27.4447 46.4718C27.55 46.5244 27.6396 46.6039 27.7044 46.7023C27.7696 46.7679 27.8209 46.846 27.8552 46.9319C27.8896 47.0178 27.9063 47.1098 27.9044 47.2023V47.4023C27.9125 47.5105 27.8989 47.6193 27.8646 47.7223C27.8303 47.8253 27.7758 47.9205 27.7044 48.0023C27.5291 48.1279 27.32 48.1976 27.1044 48.2023H19.4044V54.0023H27.1044C27.213 53.9873 27.3235 53.9978 27.4274 54.0327C27.5312 54.0676 27.6256 54.1261 27.7031 54.2036C27.7805 54.2811 27.839 54.3754 27.874 54.4793C27.9089 54.5832 27.9193 54.6937 27.9044 54.8023C27.9281 55.0524 27.8567 55.3023 27.7044 55.5023C27.5376 55.6436 27.3227 55.7152 27.1044 55.7023H18.3044C18.0542 55.7259 17.8043 55.6545 17.6044 55.5023C17.6044 55.4023 17.5044 55.3023 17.4044 55.0023V39.9023C17.4082 39.6385 17.516 39.3869 17.7044 39.2023C17.7857 39.0966 17.8928 39.0135 18.0153 38.961C18.1379 38.9085 18.2718 38.8883 18.4044 38.9023H27.1044C27.2127 38.8942 27.3215 38.9077 27.4245 38.9421C27.5275 38.9764 27.6226 39.0309 27.7044 39.1023C27.8153 39.2847 27.8837 39.4898 27.9044 39.7023V39.9023C27.9193 40.0108 27.9089 40.1213 27.874 40.2252C27.839 40.3291 27.7805 40.4234 27.7031 40.5009C27.6256 40.5784 27.5312 40.6369 27.4274 40.6718C27.3235 40.7067 27.213 40.7172 27.1044 40.7023H19.4044Z" fill="#627176"/>
<path fill-rule="evenodd" clip-rule="evenodd" d="M152.404 42.9025C152.403 43.5803 152.302 44.2541 152.104 44.9025C151.914 45.3355 151.86 45.816 151.949 46.2805C152.039 46.7449 152.267 47.1711 152.604 47.5025C153.018 47.9251 153.326 48.4389 153.504 49.0025C153.765 49.5671 153.901 50.1809 153.904 50.8025C153.916 51.4258 153.779 52.0429 153.504 52.6025C153.304 53.1862 152.999 53.7284 152.604 54.2025C152.134 54.6536 151.594 55.0252 151.004 55.3025C150.31 55.5973 149.558 55.7339 148.804 55.7025H143.304C142.87 55.7161 142.444 55.5743 142.104 55.3025C141.959 55.1405 141.849 54.9504 141.78 54.744C141.711 54.5376 141.685 54.3193 141.704 54.1025V40.5025C141.691 40.0677 141.833 39.6423 142.104 39.3025C142.266 39.1573 142.457 39.0469 142.663 38.9781C142.869 38.9093 143.088 38.8836 143.304 38.9025H147.304C148.241 38.8648 149.172 39.0715 150.004 39.5025C150.694 39.7967 151.284 40.2826 151.704 40.9025C152.101 41.5002 152.342 42.1878 152.404 42.9025ZM151.804 50.8025C151.802 50.2879 151.7 49.7786 151.504 49.3025C151.292 48.8155 150.945 48.3992 150.504 48.1025C150.008 47.7614 149.401 47.6186 148.804 47.7025H145.904C145.772 47.7165 145.638 47.6963 145.515 47.6438C145.393 47.5913 145.286 47.5082 145.204 47.4025C145.063 47.2357 144.991 47.0208 145.004 46.8025C145.004 46.4025 145.104 46.3025 145.204 46.2025C145.304 46.1025 145.604 46.0025 145.904 45.9025C146.504 45.9025 148.304 46.0025 149.204 45.4025C149.594 45.2086 149.91 44.8925 150.104 44.5025C150.298 44.0963 150.401 43.6526 150.404 43.2025C150.317 42.7564 150.183 42.3206 150.004 41.9025C149.696 41.5379 149.323 41.2328 148.904 41.0025C148.399 40.7884 147.853 40.6861 147.304 40.7025H145.704C145.43 40.673 145.152 40.7036 144.891 40.7923C144.63 40.8809 144.391 41.0254 144.191 41.2158C143.991 41.4061 143.835 41.6377 143.734 41.8945C143.632 42.1513 143.588 42.427 143.604 42.7025V51.9025C143.598 52.1802 143.647 52.4563 143.75 52.7142C143.853 52.9721 144.008 53.2063 144.204 53.4027C144.401 53.5991 144.635 53.7536 144.893 53.8567C145.151 53.9598 145.427 54.0094 145.704 54.0025H148.804C149.406 53.9905 149.993 53.8179 150.504 53.5025C150.908 53.1665 151.247 52.7599 151.504 52.3025C151.653 51.8134 151.753 51.3111 151.804 50.8025Z" fill="#627176"/>
<path fill-rule="evenodd" clip-rule="evenodd" d="M136.904 55.2021V55.3022C136.904 55.3287 136.894 55.3541 136.875 55.3729C136.856 55.3916 136.831 55.4022 136.804 55.4022V55.5022H136.704C136.614 55.6493 136.471 55.7566 136.304 55.8022H135.704C135.65 55.8087 135.595 55.8031 135.543 55.7858C135.491 55.7685 135.444 55.7399 135.404 55.7021C135.274 55.6321 135.204 55.5722 135.204 55.5022L134.204 53.3022H125.004L124.004 55.5022C123.914 55.5825 123.813 55.6499 123.704 55.7021C123.704 55.8021 123.604 55.8022 123.504 55.8022H122.804C122.625 55.7249 122.457 55.624 122.304 55.5022V54.9022C122.324 54.7203 122.393 54.5474 122.504 54.4022L125.004 48.9022L128.704 40.8022V40.7021L128.904 40.5022V40.4022L129.004 40.3022C129.046 40.1877 129.115 40.0849 129.204 40.0022L129.304 39.9022V39.8022H129.404L129.504 39.7021H129.704C129.804 39.7021 129.804 39.7022 129.904 39.8022H130.004C130.104 39.9022 130.104 40.1021 130.304 40.2021C130.304 40.3021 130.304 40.3022 130.404 40.4022V40.5022C130.461 40.5541 130.497 40.6254 130.504 40.7021L133.604 47.4022L136.804 54.4022C136.904 54.6022 136.904 54.8022 137.004 54.9022C137.011 54.9564 137.005 55.0115 136.988 55.0634C136.971 55.1152 136.942 55.1626 136.904 55.2021ZM125.904 51.5022H133.504L130.904 45.8022C130.821 45.5834 130.687 45.3876 130.513 45.231C130.34 45.0745 130.131 44.9617 129.904 44.9022H129.704C129.565 44.9022 129.428 44.9365 129.304 45.0022C128.974 45.0722 128.704 45.3722 128.504 45.9022L125.904 51.5022Z" fill="#627176"/>
</svg>
