<svg width="63" height="52" viewBox="0 0 63 52" fill="none" xmlns="http://www.w3.org/2000/svg">
<path d="M5.776 3.824H6.192V7.568H5.776L5.472 6.368C5.44 6.24 5.40267 6.14933 5.36 6.096C5.328 6.032 5.25867 5.99467 5.152 5.984C5.04533 5.96267 4.864 5.952 4.608 5.952H2.624V9.744C2.624 10.1173 2.64 10.3413 2.672 10.416C2.704 10.48 2.80533 10.5173 2.976 10.528L4.176 10.624V11.04H0V10.624L0.88 10.528C1.05067 10.5067 1.152 10.464 1.184 10.4C1.216 10.336 1.232 10.1173 1.232 9.744V1.456C1.232 1.08267 1.216 0.864001 1.184 0.8C1.152 0.736 1.05067 0.693334 0.88 0.672001L0 0.592V0.160001H7.312V2.768H6.896L6.432 1.088C6.38933 0.906667 6.32533 0.794667 6.24 0.752001C6.16533 0.698668 5.94133 0.672001 5.568 0.672001H2.624V5.44H4.608C4.864 5.44 5.04533 5.43467 5.152 5.424C5.25867 5.40267 5.328 5.36533 5.36 5.312C5.40267 5.248 5.44 5.152 5.472 5.024L5.776 3.824Z" fill="url(#paint0_linear_1_771)"/>
<path d="M16.4315 4.992V6.192C16.4315 7.74933 16.0742 8.976 15.3595 9.872C14.6448 10.7573 13.6208 11.2 12.2875 11.2C10.9435 11.2 9.91417 10.7573 9.1995 9.872C8.4955 8.976 8.1435 7.74933 8.1435 6.192V4.992C8.1435 3.44533 8.4955 2.22933 9.1995 1.344C9.91417 0.448 10.9435 0 12.2875 0C13.6208 0 14.6448 0.448 15.3595 1.344C16.0742 2.22933 16.4315 3.44533 16.4315 4.992ZM14.9115 4.192C14.9115 2.85867 14.6875 1.91467 14.2395 1.36C13.8022 0.794667 13.1515 0.512 12.2875 0.512C11.4235 0.512 10.7675 0.794667 10.3195 1.36C9.88217 1.91467 9.6635 2.85867 9.6635 4.192V6.992C9.6635 8.32533 9.88217 9.27467 10.3195 9.84C10.7675 10.4053 11.4235 10.688 12.2875 10.688C13.1515 10.688 13.8022 10.4053 14.2395 9.84C14.6875 9.27467 14.9115 8.32533 14.9115 6.992V4.192Z" fill="url(#paint1_linear_1_771)"/>
<path d="M17.4237 0.592V0.160001H21.8717C22.9171 0.160001 23.7171 0.410667 24.2717 0.912001C24.8371 1.40267 25.1198 2.05867 25.1198 2.88V3.376C25.1198 4.02667 24.9384 4.58133 24.5758 5.04C24.2238 5.488 23.7171 5.79733 23.0557 5.968L25.1038 9.744C25.2424 10 25.3438 10.1813 25.4078 10.288C25.4718 10.384 25.5304 10.448 25.5837 10.48C25.6477 10.5013 25.7331 10.5173 25.8398 10.528L26.5597 10.624V11.04H24.1438L21.6157 6.112H20.0478V9.744C20.0478 10.1173 20.0638 10.336 20.0958 10.4C20.1278 10.464 20.2291 10.5067 20.3997 10.528L21.2798 10.624V11.04H17.4237V10.624L18.3037 10.528C18.4744 10.5067 18.5758 10.464 18.6077 10.4C18.6397 10.336 18.6558 10.1173 18.6558 9.744V1.456C18.6558 1.08267 18.6397 0.864001 18.6077 0.8C18.5758 0.736 18.4744 0.693334 18.3037 0.672001L17.4237 0.592ZM21.8717 0.672001H20.0478V5.6H21.8717C22.4264 5.6 22.8584 5.424 23.1677 5.072C23.4877 4.70933 23.6478 4.16533 23.6478 3.44V2.816C23.6478 2.09067 23.4877 1.552 23.1677 1.2C22.8584 0.848001 22.4264 0.672001 21.8717 0.672001Z" fill="url(#paint2_linear_1_771)"/>
<path d="M25.8725 0.160001H34.3845V2.768H33.9685L33.5045 1.088C33.4725 0.960001 33.4352 0.869334 33.3925 0.816C33.3605 0.752 33.2912 0.714667 33.1845 0.704C33.0778 0.682667 32.8965 0.672001 32.6405 0.672001H30.8325V9.744C30.8325 10.1173 30.8485 10.336 30.8805 10.4C30.9125 10.464 31.0138 10.5067 31.1845 10.528L32.0645 10.624V11.04H28.2085V10.624L29.0885 10.528C29.2592 10.5067 29.3605 10.464 29.3925 10.4C29.4245 10.336 29.4405 10.1173 29.4405 9.744V0.672001H27.6165C27.3712 0.672001 27.1898 0.682667 27.0725 0.704C26.9658 0.714667 26.8912 0.752 26.8485 0.816C26.8165 0.869334 26.7845 0.960001 26.7525 1.088L26.2885 2.768H25.8725V0.160001Z" fill="url(#paint3_linear_1_771)"/>
<path d="M40.874 0.592V0.160001H43.93V0.592L43.05 0.672001C42.8793 0.693334 42.778 0.736 42.746 0.8C42.714 0.864001 42.698 1.08267 42.698 1.456V7.344C42.698 8.56 42.4153 9.50933 41.85 10.192C41.2953 10.864 40.442 11.2 39.29 11.2C38.0313 11.2 37.066 10.832 36.394 10.096C35.7327 9.36 35.402 8.34667 35.402 7.056V1.456C35.402 1.08267 35.386 0.864001 35.354 0.8C35.322 0.736 35.2207 0.693334 35.05 0.672001L34.17 0.592V0.160001H38.026V0.592L37.146 0.672001C36.9753 0.693334 36.874 0.736 36.842 0.8C36.81 0.864001 36.794 1.08267 36.794 1.456V7.296C36.794 8.43733 37.0073 9.28533 37.434 9.84C37.8713 10.3947 38.5327 10.672 39.418 10.672C40.314 10.672 40.986 10.3893 41.434 9.824C41.882 9.25867 42.106 8.43733 42.106 7.36V1.456C42.106 1.08267 42.09 0.864001 42.058 0.8C42.026 0.736 41.9247 0.693334 41.754 0.672001L40.874 0.592Z" fill="url(#paint4_linear_1_771)"/>
<path d="M50.8861 0.592V0.160001H53.9421V0.592L53.0621 0.672001C52.8915 0.693334 52.7901 0.741334 52.7581 0.816C52.7261 0.88 52.7101 1.09333 52.7101 1.456V11.04H51.9261L46.1021 1.216V9.744C46.1021 10.1067 46.1181 10.3253 46.1501 10.4C46.1821 10.464 46.2835 10.5067 46.4541 10.528L47.3341 10.624V11.04H44.2781V10.624L45.1581 10.528C45.3288 10.5067 45.4301 10.464 45.4621 10.4C45.4941 10.3253 45.5101 10.1067 45.5101 9.744V1.456C45.5101 1.09333 45.4941 0.88 45.4621 0.816C45.4301 0.741334 45.3288 0.693334 45.1581 0.672001L44.2781 0.592V0.160001H47.0461L52.1181 8.736V1.456C52.1181 1.09333 52.1021 0.88 52.0701 0.816C52.0381 0.741334 51.9368 0.693334 51.7661 0.672001L50.8861 0.592Z" fill="url(#paint5_linear_1_771)"/>
<path d="M61.6286 8.432H62.0446V11.04H54.3806V10.624L55.2606 10.528C55.4313 10.5067 55.5326 10.464 55.5646 10.4C55.5966 10.336 55.6126 10.1173 55.6126 9.744V1.456C55.6126 1.08267 55.5966 0.864001 55.5646 0.8C55.5326 0.736 55.4313 0.693334 55.2606 0.672001L54.3806 0.592V0.160001H61.8366V2.768H61.4366L60.9726 1.088C60.9406 0.960001 60.9033 0.869334 60.8606 0.816C60.8286 0.752 60.7593 0.714667 60.6526 0.704C60.546 0.682667 60.3646 0.672001 60.1086 0.672001H57.0046V5.296H59.1486C59.4046 5.296 59.586 5.29067 59.6926 5.28C59.7993 5.25867 59.8686 5.22133 59.9006 5.168C59.9433 5.104 59.9806 5.008 60.0126 4.88L60.3166 3.68H60.7326V7.424H60.3166L60.0126 6.224C59.9806 6.096 59.9433 6.00533 59.9006 5.952C59.8686 5.888 59.7993 5.85067 59.6926 5.84C59.586 5.81867 59.4046 5.808 59.1486 5.808H57.0046V10.528H60.3006C60.5566 10.528 60.738 10.5227 60.8446 10.512C60.9513 10.4907 61.0206 10.4533 61.0526 10.4C61.0953 10.336 61.1326 10.24 61.1646 10.112L61.6286 8.432Z" fill="url(#paint6_linear_1_771)"/>
<path d="M6.08577 35.1309L0.882794 33.8207L2.57841 16.5079H18.9074V22.1229H7.92075L7.29361 29.4457C7.64976 29.1962 8.17626 28.9232 8.87308 28.6269C9.5854 28.3305 10.3751 28.1824 11.2423 28.1824C12.636 28.1824 13.8748 28.4397 14.9587 28.9544C16.0427 29.4691 16.9563 30.2178 17.6996 31.2004C18.4428 32.183 19.0081 33.384 19.3952 34.8033C19.7823 36.2227 19.9759 37.8292 19.9759 39.6229C19.9759 41.1358 19.7668 42.5785 19.3487 43.9511C18.9461 45.3236 18.3345 46.5402 17.5137 47.6008C16.693 48.6614 15.6633 49.5037 14.4245 50.1275C13.1857 50.7358 11.7378 51.04 10.0809 51.04C8.82663 51.04 7.61105 50.8216 6.43419 50.3849C5.27281 49.9482 4.22757 49.3009 3.29846 48.4431C2.36936 47.5696 1.62608 46.5246 1.06861 45.308C0.511153 44.0759 0.232422 42.6721 0.232422 41.0968H6.66646C6.7284 42.017 6.90648 42.8203 7.2007 43.5066C7.5104 44.1772 7.89752 44.6919 8.36208 45.0507C8.84211 45.4094 9.39958 45.5888 10.0345 45.5888C10.6539 45.5888 11.1881 45.4328 11.6372 45.1209C12.0862 44.7933 12.4424 44.341 12.7056 43.7639C12.9689 43.1868 13.1624 42.5161 13.2863 41.7519C13.4102 40.972 13.4721 40.1376 13.4721 39.2485C13.4721 38.3439 13.387 37.5251 13.2166 36.792C13.0618 36.0589 12.814 35.435 12.4734 34.9203C12.1482 34.39 11.7301 33.9845 11.2191 33.7037C10.7081 33.4074 10.1041 33.2592 9.40732 33.2592C8.46273 33.2592 7.75042 33.462 7.27038 33.8675C6.80583 34.2574 6.41096 34.6786 6.08577 35.1309Z" fill="url(#paint7_linear_1_771)"/>
<path d="M41.0229 30.5453V36.4644C41.0229 39.0224 40.7828 41.2216 40.3028 43.062C39.8228 44.9025 39.1492 46.4154 38.282 47.6008C37.4148 48.7706 36.3851 49.6362 35.1927 50.1977C34.0004 50.7592 32.6841 51.04 31.244 51.04C30.0981 51.04 29.0219 50.8606 28.0154 50.5019C27.0089 50.1431 26.0953 49.5972 25.2745 48.8642C24.4693 48.1155 23.7725 47.1719 23.1841 46.0333C22.6111 44.8791 22.1698 43.5144 21.8601 41.939C21.5504 40.3481 21.3955 38.5233 21.3955 36.4644V30.5453C21.3955 27.9874 21.6356 25.796 22.1156 23.9711C22.6111 22.1307 23.2925 20.6255 24.1596 19.4558C25.0268 18.286 26.0565 17.4281 27.2489 16.8822C28.4567 16.3207 29.7807 16.04 31.2208 16.04C32.3512 16.04 33.4197 16.2193 34.4262 16.5781C35.4482 16.9212 36.3541 17.4593 37.1438 18.1924C37.9491 18.9255 38.6381 19.8691 39.2111 21.0233C39.7995 22.1619 40.2486 23.5266 40.5583 25.1175C40.868 26.6928 41.0229 28.5021 41.0229 30.5453ZM34.4959 37.3769V29.5861C34.4959 28.3851 34.4417 27.3323 34.3333 26.4277C34.2404 25.523 34.1088 24.7588 33.9384 24.1349C33.7681 23.511 33.5436 23.0041 33.2648 22.6142C32.9861 22.2242 32.6764 21.9435 32.3357 21.7719C31.9951 21.5848 31.6157 21.4912 31.1976 21.4912C30.7021 21.4912 30.253 21.6316 29.8504 21.9123C29.4478 22.1931 29.0994 22.6532 28.8051 23.2927C28.5109 23.9165 28.2864 24.751 28.1315 25.796C27.9922 26.8254 27.9225 28.0888 27.9225 29.5861V37.3769C27.9225 38.5779 27.9689 39.6385 28.0619 40.5587C28.1703 41.4789 28.3174 42.2666 28.5032 42.9217C28.7045 43.5611 28.929 44.0759 29.1768 44.4658C29.44 44.8557 29.742 45.1443 30.0827 45.3314C30.4388 45.503 30.8259 45.5888 31.244 45.5888C31.7396 45.5888 32.1886 45.4484 32.5912 45.1677C33.0093 44.8713 33.3577 44.4034 33.6365 43.7639C33.9152 43.1244 34.1243 42.2822 34.2636 41.2372C34.4185 40.1766 34.4959 38.8898 34.4959 37.3769Z" fill="url(#paint8_linear_1_771)"/>
<path d="M62.2324 30.5453V36.4644C62.2324 39.0224 61.9924 41.2216 61.5124 43.062C61.0323 44.9025 60.3587 46.4154 59.4916 47.6008C58.6244 48.7706 57.5946 49.6362 56.4023 50.1977C55.2099 50.7592 53.8937 51.04 52.4536 51.04C51.3077 51.04 50.2315 50.8606 49.225 50.5019C48.2184 50.1431 47.3048 49.5972 46.4841 48.8642C45.6789 48.1155 44.9821 47.1719 44.3936 46.0333C43.8207 44.8791 43.3794 43.5144 43.0697 41.939C42.76 40.3481 42.6051 38.5233 42.6051 36.4644V30.5453C42.6051 27.9874 42.8451 25.796 43.3252 23.9711C43.8207 22.1307 44.502 20.6255 45.3692 19.4558C46.2364 18.286 47.2661 17.4281 48.4585 16.8822C49.6663 16.3207 50.9903 16.04 52.4304 16.04C53.5608 16.04 54.6293 16.2193 55.6358 16.5781C56.6578 16.9212 57.5637 17.4593 58.3534 18.1924C59.1586 18.9255 59.8477 19.8691 60.4207 21.0233C61.0091 22.1619 61.4582 23.5266 61.7679 25.1175C62.0776 26.6928 62.2324 28.5021 62.2324 30.5453ZM55.7055 37.3769V29.5861C55.7055 28.3851 55.6513 27.3323 55.5429 26.4277C55.45 25.523 55.3183 24.7588 55.148 24.1349C54.9777 23.511 54.7531 23.0041 54.4744 22.6142C54.1957 22.2242 53.886 21.9435 53.5453 21.7719C53.2046 21.5848 52.8252 21.4912 52.4072 21.4912C51.9116 21.4912 51.4626 21.6316 51.06 21.9123C50.6573 22.1931 50.3089 22.6532 50.0147 23.2927C49.7205 23.9165 49.496 24.751 49.3411 25.796C49.2017 26.8254 49.1321 28.0888 49.1321 29.5861V37.3769C49.1321 38.5779 49.1785 39.6385 49.2714 40.5587C49.3798 41.4789 49.5269 42.2666 49.7128 42.9217C49.9141 43.5611 50.1386 44.0759 50.3864 44.4658C50.6496 44.8557 50.9516 45.1443 51.2922 45.3314C51.6484 45.503 52.0355 45.5888 52.4536 45.5888C52.9491 45.5888 53.3982 45.4484 53.8008 45.1677C54.2189 44.8713 54.5673 44.4034 54.8461 43.7639C55.1248 43.1244 55.3338 42.2822 55.4732 41.2372C55.628 40.1766 55.7055 38.8898 55.7055 37.3769Z" fill="url(#paint9_linear_1_771)"/>
<defs>
<linearGradient id="paint0_linear_1_771" x1="63.4656" y1="51.0965" x2="42.7922" y2="7.79227" gradientUnits="userSpaceOnUse">
<stop stop-color="#31393C"/>
<stop offset="1" stop-color="#3D96F5"/>
</linearGradient>
<linearGradient id="paint1_linear_1_771" x1="63.4656" y1="51.0965" x2="42.7922" y2="7.79227" gradientUnits="userSpaceOnUse">
<stop stop-color="#31393C"/>
<stop offset="1" stop-color="#3D96F5"/>
</linearGradient>
<linearGradient id="paint2_linear_1_771" x1="63.4656" y1="51.0965" x2="42.7922" y2="7.79227" gradientUnits="userSpaceOnUse">
<stop stop-color="#31393C"/>
<stop offset="1" stop-color="#3D96F5"/>
</linearGradient>
<linearGradient id="paint3_linear_1_771" x1="63.4656" y1="51.0965" x2="42.7922" y2="7.79227" gradientUnits="userSpaceOnUse">
<stop stop-color="#31393C"/>
<stop offset="1" stop-color="#3D96F5"/>
</linearGradient>
<linearGradient id="paint4_linear_1_771" x1="63.4656" y1="51.0965" x2="42.7922" y2="7.79227" gradientUnits="userSpaceOnUse">
<stop stop-color="#31393C"/>
<stop offset="1" stop-color="#3D96F5"/>
</linearGradient>
<linearGradient id="paint5_linear_1_771" x1="63.4656" y1="51.0965" x2="42.7922" y2="7.79227" gradientUnits="userSpaceOnUse">
<stop stop-color="#31393C"/>
<stop offset="1" stop-color="#3D96F5"/>
</linearGradient>
<linearGradient id="paint6_linear_1_771" x1="63.4656" y1="51.0965" x2="42.7922" y2="7.79227" gradientUnits="userSpaceOnUse">
<stop stop-color="#31393C"/>
<stop offset="1" stop-color="#3D96F5"/>
</linearGradient>
<linearGradient id="paint7_linear_1_771" x1="63.4656" y1="51.0965" x2="42.7922" y2="7.79227" gradientUnits="userSpaceOnUse">
<stop stop-color="#31393C"/>
<stop offset="1" stop-color="#3D96F5"/>
</linearGradient>
<linearGradient id="paint8_linear_1_771" x1="63.4656" y1="51.0965" x2="42.7922" y2="7.79227" gradientUnits="userSpaceOnUse">
<stop stop-color="#31393C"/>
<stop offset="1" stop-color="#3D96F5"/>
</linearGradient>
<linearGradient id="paint9_linear_1_771" x1="63.4656" y1="51.0965" x2="42.7922" y2="7.79227" gradientUnits="userSpaceOnUse">
<stop stop-color="#31393C"/>
<stop offset="1" stop-color="#3D96F5"/>
</linearGradient>
</defs>
</svg>
