<svg width="131" height="36" viewBox="0 0 131 36" fill="none" xmlns="http://www.w3.org/2000/svg">
<path d="M41.1998 17.2019C41.1998 23.052 44.9892 27.1311 50.2402 27.1311C55.4912 27.1311 59.2806 23.052 59.2806 17.2019C59.2806 11.3517 55.4912 7.27271 50.2402 7.27271C44.9892 7.27271 41.1998 11.3517 41.1998 17.2019ZM55.816 17.2019C55.816 21.3882 53.5153 24.0986 50.2402 24.0986C46.9651 24.0986 44.6644 21.3882 44.6644 17.2019C44.6644 13.0155 46.9651 10.3051 50.2402 10.3051C53.5153 10.3051 55.816 13.0155 55.816 17.2019Z" fill="black"/>
<path d="M69.0366 27.131C73.0155 27.131 75.2891 23.8034 75.2891 19.8049C75.2891 15.8064 73.0155 12.4788 69.0366 12.4788C67.1961 12.4788 65.8427 13.2033 64.9495 14.2499V12.7471H61.7015V31.6662H64.9495V25.3599C65.8427 26.4064 67.1961 27.131 69.0366 27.131ZM64.8683 19.4023C64.8683 16.7456 66.3841 15.2965 68.387 15.2965C70.7419 15.2965 72.014 17.1213 72.014 19.8049C72.014 22.4884 70.7419 24.3133 68.387 24.3133C66.3841 24.3133 64.8683 22.8373 64.8683 20.2343V19.4023Z" fill="black"/>
<path d="M84.0789 27.131C86.9209 27.131 89.1675 25.655 90.169 23.1862L87.3811 22.1396C86.948 23.5887 85.6759 24.3938 84.0789 24.3938C81.9947 24.3938 80.5331 22.9178 80.2895 20.5026H90.2502V19.4292C90.2502 15.5649 88.0578 12.4788 83.9436 12.4788C79.8294 12.4788 77.1768 15.6722 77.1768 19.8049C77.1768 24.1522 80.0189 27.131 84.0789 27.131ZM83.9165 15.1892C85.9736 15.1892 86.948 16.5309 86.9751 18.0874H80.4519C80.9391 16.1821 82.2384 15.1892 83.9165 15.1892Z" fill="black"/>
<path d="M92.6873 26.8358H95.9353V18.5704C95.9353 16.5578 97.424 15.4843 98.8856 15.4843C100.672 15.4843 101.376 16.7456 101.376 18.4899V26.8358H104.624V17.5507C104.624 14.5183 102.837 12.4788 99.86 12.4788C98.0195 12.4788 96.7473 13.3107 95.9353 14.2499V12.7471H92.6873V26.8358Z" fill="black"/>
<path d="M114.136 7.56787L106.774 26.8358H110.211L111.862 22.4348H120.253L121.931 26.8358H125.423L118.061 7.56787H114.136ZM116.031 11.3785L119.116 19.4292H112.999L116.031 11.3785Z" fill="black"/>
<path d="M131 7.62378H127.536V26.8917H131V7.62378Z" fill="black"/>
<path d="M33.262 14.6446C34.0808 12.2081 33.7988 9.5391 32.4895 7.32293C30.5203 3.92375 26.5618 2.17497 22.6957 2.99793C20.9758 1.07694 18.5048 -0.0154881 15.9143 0.000165959C11.9625 -0.00877924 8.45621 2.51377 7.24045 6.24168C4.70179 6.75715 2.51049 8.33262 1.22819 10.5656C-0.755598 13.9558 -0.303353 18.2294 2.34696 21.1366C1.52818 23.573 1.81013 26.242 3.1195 28.4582C5.08862 31.8574 9.04717 33.6062 12.9132 32.7832C14.632 34.7042 17.1041 35.7966 19.6947 35.7799C23.6487 35.7899 27.1561 33.2651 28.3719 29.5339C30.9106 29.0184 33.1019 27.4429 34.3842 25.21C36.3657 21.8197 35.9123 17.5495 33.2631 14.6423L33.262 14.6446ZM19.6969 33.4418C18.1146 33.444 16.582 32.895 15.3673 31.8898C15.4226 31.8607 15.5184 31.8082 15.5805 31.7702L22.7668 27.6554C23.1344 27.4485 23.36 27.0605 23.3577 26.6412V16.5969L26.3949 18.3356C26.4276 18.3512 26.449 18.3826 26.4535 18.4183V26.7363C26.449 30.4351 23.4277 33.434 19.6969 33.4418ZM5.16644 27.2886C4.3736 25.9312 4.08827 24.3401 4.36007 22.7959C4.41307 22.8272 4.50668 22.8842 4.57322 22.9222L11.7595 27.037C12.1238 27.2484 12.5749 27.2484 12.9403 27.037L21.7134 22.0143V25.4918C21.7157 25.5275 21.6987 25.5622 21.6706 25.5846L14.4064 29.743C11.1708 31.5901 7.03857 30.4921 5.16757 27.2886H5.16644ZM3.27513 11.7363C4.06459 10.3766 5.3108 9.33672 6.79497 8.79665C6.79497 8.85815 6.79159 8.96661 6.79159 9.04265V17.2733C6.78933 17.6915 7.01489 18.0795 7.38142 18.2864L16.1545 23.308L13.1174 25.0467C13.0869 25.0669 13.0486 25.0702 13.0147 25.0557L5.74951 20.8939C2.52064 19.04 1.41315 14.9442 3.274 11.7374L3.27513 11.7363ZM28.2287 17.4936L19.4556 12.4709L22.4927 10.7333C22.5232 10.7132 22.5615 10.7098 22.5953 10.7243L29.8606 14.8827C33.0951 16.7355 34.2037 20.838 32.335 24.0449C31.5444 25.4023 30.2993 26.4422 28.8162 26.9834V18.5067C28.8196 18.0885 28.5952 17.7016 28.2298 17.4936H28.2287ZM31.2511 12.983C31.1981 12.9506 31.1045 12.8947 31.038 12.8567L23.8517 8.74186C23.4874 8.53053 23.0363 8.53053 22.6709 8.74186L13.8978 13.7646V10.2871C13.8956 10.2514 13.9125 10.2167 13.9407 10.1943L21.2048 6.03929C24.4404 4.18876 28.5772 5.29013 30.4425 8.49923C31.2308 9.85442 31.5162 11.4411 31.2489 12.983H31.2511ZM12.2467 19.1809L9.20845 17.4422C9.17574 17.4265 9.15431 17.3952 9.1498 17.3594V9.04153C9.15206 5.33822 12.1824 2.3371 15.9177 2.33934C17.4977 2.33934 19.027 2.88947 20.2416 3.89133C20.1864 3.9204 20.0916 3.97295 20.0285 4.01097L12.8422 8.12576C12.4745 8.33262 12.249 8.7195 12.2512 9.13881L12.2467 19.1787V19.1809ZM13.8967 15.6543L17.8045 13.4168L21.7123 15.6531V20.1269L17.8045 22.3632L13.8967 20.1269V15.6543Z" fill="black"/>
</svg>
