<svg width="78" height="78" viewBox="0 0 78 78" fill="none" xmlns="http://www.w3.org/2000/svg">
<circle cx="36" cy="36" r="37.5" transform="matrix(1 0 0 -1 3 75)" fill="#3E96F4" stroke="white" stroke-width="3"/>
<mask id="path-2-inside-1_1_3391" fill="white">
<path fill-rule="evenodd" clip-rule="evenodd" d="M28 17C26.3431 17 25 18.3431 25 20V33.125C25 34.7819 26.3431 36.125 28 36.125H39.5385L45.25 42.3125V36.125H49C50.6569 36.125 52 34.7819 52 33.125V20C52 18.3431 50.6569 17 49 17H28Z"/>
</mask>
<path d="M39.5385 36.125L40.6407 35.1076C40.3567 34.8 39.9571 34.625 39.5385 34.625V36.125ZM45.25 42.3125L44.1478 43.3299C44.5667 43.7838 45.221 43.9344 45.7962 43.7095C46.3714 43.4846 46.75 42.9301 46.75 42.3125H45.25ZM45.25 36.125V34.625C44.4216 34.625 43.75 35.2966 43.75 36.125H45.25ZM26.5 20C26.5 19.1716 27.1716 18.5 28 18.5V15.5C25.5147 15.5 23.5 17.5147 23.5 20H26.5ZM26.5 33.125V20H23.5V33.125H26.5ZM28 34.625C27.1716 34.625 26.5 33.9534 26.5 33.125H23.5C23.5 35.6103 25.5147 37.625 28 37.625V34.625ZM39.5385 34.625H28V37.625H39.5385V34.625ZM46.3522 41.2951L40.6407 35.1076L38.4363 37.1424L44.1478 43.3299L46.3522 41.2951ZM43.75 36.125V42.3125H46.75V36.125H43.75ZM49 34.625H45.25V37.625H49V34.625ZM50.5 33.125C50.5 33.9534 49.8284 34.625 49 34.625V37.625C51.4853 37.625 53.5 35.6103 53.5 33.125H50.5ZM50.5 20V33.125H53.5V20H50.5ZM49 18.5C49.8284 18.5 50.5 19.1716 50.5 20H53.5C53.5 17.5147 51.4853 15.5 49 15.5V18.5ZM28 18.5H49V15.5H28V18.5Z" fill="white" mask="url(#path-2-inside-1_1_3391)"/>
<rect x="15.75" y="48.75" width="12.1957" height="12.5" rx="2.25" stroke="white" stroke-width="1.5"/>
<rect x="32.75" y="48.75" width="12.1957" height="12.5" rx="2.25" stroke="white" stroke-width="1.5"/>
<rect x="49.75" y="48.75" width="12.1957" height="12.5" rx="2.25" stroke="white" stroke-width="1.5"/>
<path d="M22 49V47C22 45.8954 22.8954 45 24 45H54C55.1046 45 56 45.8954 56 47V49" stroke="white" stroke-width="1.5"/>
<path d="M21.7098 57.7803C21.8504 57.921 22.0411 58.0001 22.24 58.0001C22.264 58.0001 22.2888 58.0001 22.315 57.9963C22.4254 57.9854 22.5319 57.9501 22.627 57.8931C22.722 57.836 22.8032 57.7586 22.8648 57.6663L25.8648 53.1663C25.9194 53.0844 25.9574 52.9925 25.9766 52.8959C25.9957 52.7992 25.9956 52.6998 25.9764 52.6032C25.9571 52.5066 25.9189 52.4147 25.8641 52.3329C25.8094 52.251 25.739 52.1808 25.657 52.1261C25.5751 52.0714 25.4832 52.0334 25.3866 52.0143C25.2899 51.9952 25.1905 51.9952 25.0939 52.0145C24.9973 52.0338 24.9054 52.0719 24.8236 52.1267C24.7417 52.1815 24.6714 52.2519 24.6168 52.3338L22.1245 56.0733L21.271 55.2198C21.1296 55.0832 20.9401 55.0076 20.7435 55.0093C20.5468 55.011 20.3587 55.0899 20.2197 55.229C20.0806 55.368 20.0017 55.5561 20 55.7528C19.9983 55.9494 20.0739 56.1389 20.2105 56.2803L21.7098 57.7803Z" fill="white"/>
<path d="M37.7098 57.7803C37.8504 57.921 38.0411 58.0001 38.24 58.0001C38.264 58.0001 38.2888 58.0001 38.315 57.9963C38.4254 57.9854 38.5319 57.9501 38.627 57.8931C38.722 57.836 38.8032 57.7586 38.8648 57.6663L41.8648 53.1663C41.9194 53.0844 41.9574 52.9925 41.9766 52.8959C41.9957 52.7992 41.9956 52.6998 41.9764 52.6032C41.9571 52.5066 41.9189 52.4147 41.8641 52.3329C41.8094 52.251 41.739 52.1808 41.657 52.1261C41.5751 52.0714 41.4832 52.0334 41.3866 52.0143C41.2899 51.9952 41.1905 51.9952 41.0939 52.0145C40.9973 52.0338 40.9054 52.0719 40.8236 52.1267C40.7417 52.1815 40.6714 52.2519 40.6168 52.3338L38.1245 56.0733L37.271 55.2198C37.1296 55.0832 36.9401 55.0076 36.7435 55.0093C36.5468 55.011 36.3587 55.0899 36.2197 55.229C36.0806 55.368 36.0017 55.5561 36 55.7528C35.9983 55.9494 36.0739 56.1389 36.2105 56.2803L37.7098 57.7803Z" fill="white"/>
<path d="M39 35.5V48.5" stroke="white" stroke-width="1.5"/>
<path d="M29 22H48" stroke="white" stroke-width="1.5" stroke-linecap="round"/>
<path d="M29 25H37" stroke="white" stroke-width="1.5" stroke-linecap="round"/>
</svg>
