<svg width="57" height="62" viewBox="0 0 57 62" fill="none" xmlns="http://www.w3.org/2000/svg">
<path d="M5.61064 5.38152C5.61063 5.2974 5.62718 5.21411 5.65937 5.1364C5.69155 5.05869 5.73872 4.98808 5.7982 4.9286C5.85767 4.86913 5.92828 4.82195 6.006 4.78977C6.08371 4.75759 6.167 4.74103 6.25111 4.74105H21.469C21.823 4.74105 22.1094 5.0278 22.1094 5.38152C22.1094 5.73523 21.8229 6.02198 21.469 6.02198H6.25111C6.167 6.022 6.08371 6.00544 6.006 5.97326C5.92828 5.94108 5.85767 5.8939 5.7982 5.83443C5.73872 5.77495 5.69155 5.70434 5.65937 5.62663C5.62718 5.54892 5.61063 5.46563 5.61064 5.38152ZM35.743 6.02198H36.2759C36.63 6.02198 36.9164 5.73523 36.9164 5.38152C36.9164 5.0278 36.6299 4.74105 36.2759 4.74105H35.743C35.6589 4.74102 35.5756 4.75756 35.4979 4.78974C35.4202 4.82191 35.3495 4.86909 35.2901 4.92857C35.2306 4.98805 35.1834 5.05866 35.1512 5.13638C35.1191 5.2141 35.1025 5.2974 35.1025 5.38152C35.1025 5.46564 35.119 5.54894 35.1512 5.62667C35.1834 5.70439 35.2305 5.77502 35.29 5.8345C35.3495 5.89398 35.4201 5.94116 35.4979 5.97332C35.5756 6.00549 35.6589 6.02203 35.743 6.02198ZM39.7418 6.02198H40.2753C40.6294 6.02198 40.9158 5.73523 40.9158 5.38152C40.9158 5.0278 40.6293 4.74105 40.2753 4.74105H39.7418C39.3877 4.74105 39.1013 5.0278 39.1013 5.38152C39.1013 5.73523 39.3878 6.02198 39.7418 6.02198ZM43.7412 6.02198H44.2748C44.6289 6.02198 44.9153 5.73523 44.9153 5.38152C44.9153 5.0278 44.6287 4.74105 44.2748 4.74105H43.7412C43.3872 4.74105 43.1008 5.0278 43.1008 5.38152C43.1008 5.73523 43.3872 6.02198 43.7412 6.02198ZM35.1907 28.7944H15.3359C14.9818 28.7944 14.6955 29.0811 14.6955 29.4349C14.6955 29.7886 14.982 30.0753 15.3359 30.0753H35.1906C35.5447 30.0753 35.831 29.7886 35.831 29.4349C35.831 29.0811 35.5447 28.7944 35.1907 28.7944ZM41.7885 26.866H8.73692C7.31698 26.866 6.16174 25.7106 6.16174 24.2904V16.9649C6.16174 15.5447 7.3171 14.3891 8.73692 14.3891H41.7885C43.209 14.3891 44.3643 15.5447 44.3643 16.9649V24.2904C44.3643 25.7106 43.2089 26.866 41.7885 26.866ZM8.73692 25.5849H41.7885C42.5022 25.5849 43.0832 25.0042 43.0832 24.2904V16.9649C43.0832 16.2509 42.5021 15.6701 41.7885 15.6701H8.73692C8.0232 15.6701 7.44279 16.2509 7.44279 16.9649V24.2904C7.44267 25.0042 8.0232 25.5849 8.73692 25.5849ZM4.82378 0.255859H45.7022C47.8108 0.255859 49.5259 1.97127 49.5259 4.07952L49.5228 26.7491V26.7148V26.9041C53.3549 27.2311 56.3751 30.4473 56.3751 34.3601C56.3751 38.2759 53.3549 41.4945 49.5228 41.8218V43.784C49.5228 45.8922 47.8076 47.6076 45.6991 47.6076H40.0358V47.7999C40.0358 48.706 39.2989 49.4428 38.3925 49.4428H37.0534C36.9605 49.8807 36.844 50.3132 36.7044 50.7385L37.8728 51.4088C38.6528 51.8551 38.9243 52.8568 38.4765 53.6411L37.6458 55.0801C37.2023 55.8551 36.1983 56.1282 35.4089 55.6846L34.2411 55.0034C33.943 55.3358 33.6271 55.6517 33.2947 55.9498L33.9721 57.1186C34.4266 57.9128 34.1397 58.9152 33.3698 59.3551L31.9243 60.1838C31.1703 60.6303 30.1597 60.3882 29.6926 59.5833L29.0221 58.4139C28.5966 58.5539 28.1637 58.6702 27.7254 58.7623V60.11C27.7254 61.0107 26.9929 61.7435 26.0922 61.7435H24.4339C23.5276 61.7435 22.7907 61.0108 22.7907 60.11V58.7611C22.3549 58.6688 21.9246 58.5527 21.5015 58.4133L20.8235 59.583C20.3898 60.3572 19.3899 60.6468 18.5886 60.1821L17.1537 59.3536C16.3749 58.9082 16.1034 57.9065 16.5513 57.1221L17.2313 55.9493C16.8986 55.6512 16.5824 55.3351 16.2843 55.0023L15.1153 55.6801C14.3391 56.1249 13.3395 55.8568 12.8835 55.0859L12.051 53.6438C11.6005 52.8547 11.8781 51.8514 12.6547 51.4079L13.8213 50.7383C13.6823 50.3129 13.566 49.8803 13.4729 49.4426H12.1237C11.223 49.4426 10.4905 48.7057 10.4905 47.7997V47.6074H4.82814C2.71953 47.6074 1.00375 45.892 1.00375 43.7837L1 4.07927C1 1.97127 2.71517 0.255859 4.82378 0.255859ZM38.7547 46.1418C38.7547 45.9442 38.5959 45.7893 38.3925 45.7893H36.5224C36.3703 45.7893 36.2232 45.7351 36.1073 45.6366C35.9915 45.538 35.9144 45.4015 35.89 45.2514C35.7727 44.5333 35.5835 43.8289 35.3252 43.1487C35.2714 43.0063 35.27 42.8494 35.3213 42.7061C35.3727 42.5627 35.4734 42.4424 35.6054 42.3666L37.2349 41.4317C37.3987 41.3379 37.4588 41.1108 37.3643 40.9451L36.5356 39.5004C36.4393 39.3331 36.2103 39.2752 36.0358 39.3743L34.4257 40.3136C34.295 40.3897 34.1415 40.4172 33.9925 40.3911C33.8435 40.365 33.7085 40.287 33.6114 40.1709C33.1178 39.5801 32.5999 39.0647 32.0714 38.6393C31.9525 38.5432 31.8718 38.4077 31.844 38.2574C31.8161 38.107 31.8429 37.9516 31.9195 37.8193L32.864 36.1902C32.9585 36.022 32.8984 35.7958 32.7257 35.6936L31.2877 34.8692C31.1207 34.7732 30.9006 34.8348 30.7979 35.0061L29.8678 36.6362C29.7095 36.9126 29.3712 37.0308 29.0778 36.9152C28.4016 36.6508 27.6991 36.4593 26.9824 36.3437C26.8322 36.3194 26.6956 36.2424 26.5971 36.1265C26.4985 36.0107 26.4444 35.8635 26.4445 35.7114V33.8411C26.4445 33.6381 26.2899 33.4793 26.0923 33.4793H24.4341C24.3381 33.4793 24.2461 33.5175 24.1782 33.5853C24.1103 33.6531 24.072 33.7451 24.0719 33.8411V35.7114C24.0719 35.8633 24.0179 36.0102 23.9196 36.126C23.8213 36.2418 23.6851 36.3189 23.5352 36.3435C22.8213 36.4602 22.1217 36.6519 21.4479 36.9152C21.3051 36.9713 21.1469 36.9743 21.0021 36.9235C20.8573 36.8728 20.7356 36.7717 20.6591 36.6387L19.7146 35C19.6183 34.8304 19.3986 34.7741 19.2229 34.8723L17.7943 35.6973C17.6279 35.7959 17.5678 36.0222 17.6666 36.1987L18.6061 37.8194C18.6827 37.9517 18.7095 38.107 18.6816 38.2573C18.6537 38.4076 18.573 38.543 18.4541 38.6391C17.8914 39.0942 17.3768 39.6058 16.9185 40.1659C16.8222 40.2837 16.6871 40.3633 16.5374 40.3905C16.3877 40.4177 16.2332 40.3908 16.1016 40.3145L14.4722 39.3697C14.3058 39.2749 14.0868 39.3366 13.9855 39.508L13.1611 40.946C13.066 41.1135 13.1261 41.337 13.2899 41.4311L14.92 42.3666C15.052 42.4423 15.1528 42.5626 15.2041 42.7059C15.2555 42.8492 15.2541 43.0061 15.2002 43.1485C14.9423 43.8288 14.7533 44.5333 14.636 45.2514C14.6116 45.4015 14.5346 45.538 14.4187 45.6366C14.3029 45.7351 14.1557 45.7893 14.0037 45.7893H12.1234C12.03 45.7895 11.9405 45.8267 11.8745 45.8928C11.8085 45.9589 11.7714 46.0484 11.7713 46.1418V47.8001C11.7713 48.003 11.9258 48.1619 12.1234 48.1619H14.0037C14.1555 48.1619 14.3024 48.2158 14.4181 48.3142C14.5339 48.4125 14.6109 48.5487 14.6354 48.6986C14.7504 49.3989 14.9407 50.1079 15.2009 50.8058C15.2539 50.9479 15.2548 51.1042 15.2034 51.2469C15.1519 51.3896 15.0516 51.5094 14.9201 51.585L13.2913 52.5198C13.1252 52.6149 13.066 52.8385 13.1618 53.0059L13.9894 54.4399C14.087 54.6053 14.3071 54.6669 14.4754 54.5703L16.1017 53.6277C16.2332 53.5515 16.3874 53.5245 16.5369 53.5515C16.6864 53.5785 16.8215 53.6577 16.918 53.7749C17.3801 54.338 17.8963 54.8543 18.4593 55.3165C18.5764 55.413 18.6555 55.548 18.6824 55.6973C18.7093 55.8467 18.6824 56.0008 18.6063 56.1322L17.6618 57.7612C17.5693 57.9232 17.6292 58.1499 17.7918 58.2432L19.2305 59.0735C19.401 59.1738 19.6143 59.1215 19.7103 58.9494L20.6598 57.3115C20.736 57.1801 20.8564 57.0801 20.9995 57.0292C21.1426 56.9784 21.2991 56.98 21.4411 57.0338C22.1187 57.2909 22.8203 57.48 23.5353 57.5984C23.6852 57.623 23.8214 57.7001 23.9197 57.8159C24.018 57.9316 24.072 58.0786 24.072 58.2305V60.1104C24.072 60.3047 24.2346 60.4629 24.4342 60.4629H26.0924C26.1858 60.4627 26.2753 60.4255 26.3413 60.3594C26.4073 60.2934 26.4445 60.2038 26.4446 60.1104V58.2305C26.4445 58.0783 26.4986 57.9312 26.5972 57.8153C26.6957 57.6994 26.8323 57.6224 26.9825 57.5981C27.7004 57.4811 28.4047 57.2921 29.0848 57.0339C29.2272 56.9799 29.3843 56.9785 29.5277 57.0298C29.6711 57.0812 29.7915 57.182 29.8673 57.3141L30.8024 58.9436C30.9001 59.1121 31.1123 59.1764 31.2796 59.0774L32.7339 58.2435C32.9008 58.1484 32.9565 57.9231 32.8622 57.7582L31.9196 56.1322C31.8434 56.0007 31.8165 55.8465 31.8435 55.6971C31.8705 55.5476 31.9498 55.4126 32.0672 55.3162C32.6302 54.8542 33.1465 54.338 33.6085 53.7749C33.7052 53.6575 33.8406 53.5783 33.9903 53.5515C34.1401 53.5246 34.2945 53.552 34.426 53.6285L36.0454 54.5731C36.2118 54.665 36.4394 54.6084 36.5352 54.4426L37.3659 53.0037C37.4591 52.8407 37.3991 52.6136 37.2359 52.5205L35.6058 51.5851C35.4742 51.5094 35.3738 51.3895 35.3223 51.2467C35.2709 51.1039 35.2718 50.9475 35.325 50.8054C35.5852 50.1086 35.7753 49.3998 35.8911 48.6987C35.9156 48.5488 35.9926 48.4126 36.1084 48.3143C36.2241 48.216 36.371 48.162 36.5229 48.162H38.3931C38.5996 48.162 38.7553 48.0065 38.7553 47.8002L38.7547 46.1418ZM48.2417 41.8219C44.4114 41.4955 41.3924 38.2765 41.3924 34.3601C41.3924 30.4466 44.4114 27.23 48.2417 26.904V10.5091H2.2848V43.784C2.2848 45.186 3.42575 46.3266 4.82814 46.3266H10.4902V46.1418C10.4902 45.2411 11.2227 44.5082 12.1234 44.5082H13.4714C13.5634 44.0725 13.6797 43.6394 13.8198 43.2119L12.6532 42.5426C11.8854 42.1039 11.597 41.1022 12.0496 40.3096L12.8789 38.8633C13.3393 38.0858 14.3388 37.8172 15.1113 38.2594L16.2835 38.939C16.5808 38.6079 16.8965 38.2938 17.2292 37.9982L16.553 36.8326C16.1058 36.0329 16.3691 35.0524 17.1472 34.5914L18.5896 33.7585C19.3822 33.3147 20.3829 33.5868 20.8251 34.3624L21.5001 35.533C21.9231 35.3908 22.3539 35.273 22.7905 35.1803V33.8411C22.7905 32.9351 23.5273 32.1982 24.4337 32.1982H26.092C26.9927 32.1982 27.7251 32.9351 27.7251 33.8411V35.1793C28.1641 35.2716 28.5973 35.3895 29.0224 35.5324L29.6905 34.3624C30.1509 33.5827 31.1504 33.3149 31.9236 33.7572L33.3704 34.5865C34.1442 35.0448 34.4125 36.0464 33.9765 36.8246L33.2959 37.999C33.6265 38.2956 33.9411 38.6095 34.2385 38.9394L35.3995 38.262C36.1988 37.8142 37.2034 38.0859 37.6468 38.8641L38.4756 40.3087C38.9241 41.0944 38.6526 42.0961 37.872 42.543L36.7061 43.2117C36.8457 43.6371 36.962 44.0699 37.0545 44.508H38.3924C39.2988 44.508 40.0357 45.2407 40.0357 46.1416V46.3263H45.699C47.1008 46.3263 48.2416 45.1858 48.2416 43.7837L48.2417 41.8219ZM42.6736 34.3601C42.6736 37.786 45.4584 40.5732 48.8811 40.5732C52.3069 40.5732 55.0942 37.786 55.0942 34.3601C55.0942 30.9414 52.3135 28.1599 48.8932 28.1532C48.8893 28.1533 48.8862 28.1554 48.8823 28.1554C48.8782 28.1554 48.8749 28.1532 48.8709 28.1531C45.4529 28.1588 42.6736 30.9408 42.6736 34.3601ZM45.7022 1.53691H4.82378C3.422 1.53691 2.28105 2.67749 2.28105 4.07964V9.22661H48.2448V4.07952C48.2448 2.67749 47.1039 1.53691 45.7022 1.53691ZM30.9203 46.9718C30.9203 50.0915 28.3833 52.6294 25.2645 52.6294C22.1445 52.6294 19.6062 50.0914 19.6062 46.9718C19.6062 43.853 22.1444 41.3157 25.2645 41.3157C28.3833 41.3157 30.9203 43.853 30.9203 46.9718ZM29.6393 46.9718C29.6393 44.5592 27.6771 42.5967 25.2645 42.5967C22.8508 42.5967 20.8872 44.5592 20.8872 46.9718C20.8872 49.3849 22.8506 51.3485 25.2645 51.3485C27.6771 51.3485 29.6393 49.385 29.6393 46.9718ZM47.4793 36.3399C47.5388 36.3993 47.6094 36.4465 47.6871 36.4787C47.7648 36.5109 47.8481 36.5275 47.9322 36.5275C48.0163 36.5275 48.0996 36.5109 48.1773 36.4787C48.255 36.4465 48.3256 36.3993 48.3851 36.3399L51.4331 33.2918C51.4926 33.2323 51.5398 33.1617 51.572 33.084C51.6042 33.0063 51.6208 32.923 51.6208 32.8389C51.6208 32.7548 51.6042 32.6715 51.572 32.5938C51.5398 32.5161 51.4926 32.4455 51.4331 32.386C51.3737 32.3265 51.3031 32.2793 51.2253 32.2471C51.1476 32.215 51.0643 32.1984 50.9802 32.1984C50.8961 32.1984 50.8128 32.215 50.7351 32.2471C50.6574 32.2793 50.5868 32.3265 50.5273 32.386L47.9322 34.9812L47.2404 34.2894C47.1809 34.2299 47.1103 34.1827 47.0326 34.1505C46.9549 34.1183 46.8716 34.1017 46.7875 34.1017C46.7034 34.1017 46.6201 34.1183 46.5424 34.1505C46.4647 34.1827 46.3941 34.2299 46.3346 34.2894C46.2751 34.3488 46.2279 34.4194 46.1957 34.4972C46.1635 34.5749 46.1469 34.6582 46.1469 34.7423C46.1469 34.8264 46.1635 34.9097 46.1957 34.9874C46.2279 35.0651 46.2751 35.1357 46.3346 35.1952L47.4793 36.3399Z" fill="url(#paint0_linear_1_781)" stroke="url(#paint1_linear_1_781)" stroke-width="0.5"/>
<defs>
<linearGradient id="paint0_linear_1_781" x1="57.4765" y1="61.8429" x2="10.8612" y2="12.2009" gradientUnits="userSpaceOnUse">
<stop stop-color="#31393C"/>
<stop offset="1" stop-color="#3D96F5"/>
</linearGradient>
<linearGradient id="paint1_linear_1_781" x1="48" y1="58.9998" x2="-2.44403e-06" y2="-0.500241" gradientUnits="userSpaceOnUse">
<stop stop-color="#31393C"/>
<stop offset="1" stop-color="#3E96F4"/>
</linearGradient>
</defs>
</svg>
