<svg width="35" height="35" viewBox="0 0 35 35" fill="none" xmlns="http://www.w3.org/2000/svg">
<path id="Union" fill-rule="evenodd" clip-rule="evenodd" d="M17.7734 17.4453C16.0234 17.4453 14.6562 16.0234 14.6562 14.3281C14.6562 12.6328 16.0781 11.2109 17.7734 11.2109C19.5234 11.2109 20.8906 12.6328 20.8906 14.3281C20.8906 16.0234 19.4688 17.4453 17.7734 17.4453ZM17.7734 16.3516C18.8672 16.3516 19.7969 15.4219 19.7969 14.3281C19.7969 13.2344 18.8672 12.3047 17.7734 12.3047C16.6797 12.3047 15.75 13.2344 15.75 14.3281C15.75 15.4219 16.6797 16.3516 17.7734 16.3516ZM6.78125 13.0703H6.17969C5.63281 13.0703 5.14062 12.6328 5.03125 12.0859L4.86719 11.1562C4.70312 11.0469 4.53906 10.9922 4.375 10.9375L3.60938 11.4844C3.11719 11.8125 2.46094 11.7578 2.07812 11.375L1.69531 10.9375C1.3125 10.5547 1.25781 9.89844 1.58594 9.46094L2.13281 8.69531L1.96875 8.20312L0.984375 8.03906C0.4375 7.92969 0 7.4375 0 6.89062V6.23438C0 5.6875 0.4375 5.19531 0.984375 5.08594L1.91406 4.92188L1.96875 4.86719C1.99609 4.78516 2.02344 4.7168 2.05078 4.64844C2.07812 4.58008 2.10547 4.51172 2.13281 4.42969L1.58594 3.60938C1.25781 3.11719 1.3125 2.51562 1.69531 2.13281L2.13281 1.69531C2.51562 1.3125 3.17188 1.25781 3.66406 1.58594L4.42969 2.13281L4.92188 1.96875L5.08594 0.984375C5.19531 0.4375 5.6875 0 6.23438 0H6.83594C7.38281 0 7.875 0.4375 7.98438 0.984375L8.14844 1.91406L8.20312 1.96875C8.28516 1.99609 8.35352 2.02344 8.42188 2.05078C8.49023 2.07812 8.55859 2.10547 8.64062 2.13281L9.46094 1.58594C9.89844 1.25781 10.6094 1.3125 10.9922 1.69531L11.4297 2.13281C11.8125 2.51562 11.8672 3.17188 11.5391 3.60938L10.9922 4.375L11.1562 4.86719L12.1406 5.03125C12.6875 5.14062 13.125 5.63281 13.125 6.17969V6.83594C13.125 7.4375 12.6875 7.875 12.1406 7.98438L11.2109 8.14844C11.1016 8.3125 11.0469 8.47656 10.9922 8.64062L11.5391 9.46094C11.8672 9.89844 11.8125 10.5547 11.4297 10.9375L10.9922 11.375C10.6094 11.7578 9.89844 11.8125 9.46094 11.4844L8.69531 10.9375L8.20312 11.1016L8.03906 12.0859C7.875 12.6875 7.38281 13.0703 6.78125 13.0703ZM4.42969 9.84375C4.59375 9.84375 4.75781 9.89844 4.92188 9.95312L5.25 10.1172C5.63281 10.2812 5.90625 10.6094 6.01562 11.0469L6.17969 11.9766L6.83594 12.0312C6.83594 12.0312 6.89062 12.0312 6.89062 11.9766L7.05469 11.0469C7.10938 10.6094 7.38281 10.2812 7.82031 10.1172C7.92969 10.0625 8.03906 10.0078 8.14844 10.0078C8.53125 9.78906 9.02344 9.84375 9.35156 10.1172L10.1172 10.6641H10.1719L10.6094 10.2266V10.1719L10.0625 9.40625C9.78906 9.07812 9.78906 8.64062 9.95312 8.20312L10.1172 7.875C10.2812 7.49219 10.6094 7.16406 11.0469 7.10938L11.9219 6.94531L11.9766 6.89062V6.23438L11.9219 6.17969L10.8828 6.01562C10.4453 5.96094 10.1172 5.6875 9.95312 5.25C9.95312 5.14062 9.89844 5.03125 9.84375 4.92188C9.67969 4.53906 9.67969 4.04688 9.95312 3.71875L10.5 2.95312V2.89844L10.0625 2.46094H10.0078L9.24219 3.00781C8.91406 3.28125 8.42188 3.28125 8.03906 3.11719L7.71094 2.95312C7.32812 2.78906 7.05469 2.46094 6.94531 2.02344L6.78125 1.09375H6.17969C6.17969 1.09375 6.125 1.09375 6.125 1.14844L5.96094 2.07812C5.90625 2.51562 5.63281 2.84375 5.19531 3.00781C5.1646 3.03852 5.11665 3.05199 5.06113 3.06757C5.01779 3.07975 4.96983 3.09321 4.92188 3.11719C4.53906 3.33594 4.04688 3.28125 3.71875 3.00781L2.95312 2.46094H2.89844L2.46094 2.89844V2.95312L3.00781 3.71875C3.28125 4.10156 3.33594 4.53906 3.11719 4.92188C3.0625 5.03125 3.00781 5.14062 3.00781 5.25C2.84375 5.63281 2.51562 5.96094 2.07812 6.01562L1.14844 6.17969L1.09375 6.23438V6.89062L1.14844 6.94531L2.07812 7.10938C2.51562 7.16406 2.84375 7.4375 3.00781 7.875L3.17188 8.20312C3.33594 8.58594 3.33594 9.07812 3.0625 9.40625L2.51562 10.1719V10.2266L2.95312 10.6641L3.28125 11.0469L2.95312 10.6094L3.71875 10.0625C3.9375 9.89844 4.15625 9.84375 4.42969 9.84375ZM22.3125 35H24.8281C25.1016 35 25.375 34.7266 25.375 34.4531C25.375 34.1797 25.1562 33.9062 24.8281 33.9062H22.8047V31.9375C22.8047 31.6641 22.5312 31.3906 22.2578 31.3906C21.9844 31.3906 21.7109 31.6094 21.7109 31.9375V33.9062H13.7812V31.9375C13.7812 31.6641 13.5078 31.3906 13.2344 31.3906C12.9609 31.3906 12.6875 31.6094 12.6875 31.9375V33.9062H10.7188C10.4453 33.9062 10.1719 34.1797 10.1719 34.4531C10.1719 34.7266 10.3906 35 10.7188 35H13.2344H22.3125ZM0.546875 27.4531V23.7344V23.6797V12.6875C0.546875 12.3594 0.820312 12.1406 1.09375 12.1406C1.36719 12.1406 1.64062 12.4141 1.64062 12.6875V23.1328H33.9062V7.16406C33.9062 6.23438 33.1406 5.46875 32.2109 5.46875H14.3281C14 5.46875 13.7812 5.19531 13.7812 4.92188C13.7812 4.64844 14.0547 4.375 14.3281 4.375H32.2109C33.7422 4.375 35 5.63281 35 7.16406V23.6797V23.7344V27.4531C35 28.9844 33.7422 30.2422 32.2109 30.2422H3.28125C1.75 30.2422 0.546875 28.9844 0.546875 27.4531ZM33.9609 27.4531V24.2813H1.64062V27.4531C1.64062 28.3828 2.40625 29.1484 3.33594 29.1484H32.2656C33.1953 29.1484 33.9609 28.3828 33.9609 27.4531ZM16.1328 26.7422C16.1328 27.6172 16.8438 28.3828 17.7734 28.3828C18.7031 28.3828 19.4141 27.6172 19.4141 26.7422C19.4141 25.8672 18.7031 25.1016 17.7734 25.1016C16.8984 25.1016 16.1328 25.8125 16.1328 26.7422ZM17.2266 26.6875C17.2266 26.4141 17.4453 26.1406 17.7734 26.1406C18.0469 26.1406 18.3203 26.4141 18.3203 26.6875C18.3203 26.9609 18.1016 27.2344 17.7734 27.2344C17.5 27.2344 17.2266 27.0156 17.2266 26.6875ZM17.3906 21.7656H18.1016C18.7578 21.7656 19.25 21.3281 19.3594 20.7266L19.5234 19.6328C19.5234 19.5781 19.5234 19.5234 19.5781 19.5234C19.6602 19.4961 19.7422 19.4551 19.8242 19.4141C19.9062 19.373 19.9883 19.332 20.0703 19.3047C20.125 19.25 20.1797 19.25 20.2344 19.3047L21.2188 20.0156C21.7109 20.3984 22.4219 20.3438 22.8594 19.9062L23.3516 19.3594C23.7891 18.9219 23.8438 18.2656 23.4609 17.7734L22.8047 16.8984V16.7891C22.9141 16.625 22.9688 16.4609 23.0234 16.2969C23.0234 16.2422 23.0781 16.1875 23.1328 16.1875L24.2266 16.0234C24.8281 15.9141 25.2656 15.3672 25.2656 14.7656V14C25.2656 13.3438 24.8281 12.8516 24.2266 12.7422L23.1328 12.5781C23.0781 12.5781 23.0234 12.5234 23.0234 12.4688C22.9961 12.3867 22.9551 12.3047 22.9141 12.2227C22.873 12.1406 22.832 12.0586 22.8047 11.9766C22.75 11.9219 22.75 11.8672 22.8047 11.8125L23.4609 10.9375C23.8438 10.4453 23.7891 9.78906 23.3516 9.35156L22.8594 8.80469C22.4219 8.36719 21.7109 8.36719 21.2188 8.69531L20.3438 9.35156H20.1797C20.0156 9.24219 19.8516 9.1875 19.6875 9.13281C19.6328 9.13281 19.5781 9.07812 19.5781 9.02344L19.4141 7.92969C19.3047 7.32812 18.7578 6.89062 18.1562 6.89062H17.4453C16.7891 6.89062 16.2969 7.32812 16.1875 7.92969L16.0234 9.02344C16.0234 9.07812 15.9688 9.13281 15.9141 9.13281C15.832 9.16016 15.75 9.20117 15.668 9.24219C15.5859 9.2832 15.5039 9.32422 15.4219 9.35156C15.4036 9.35156 15.3854 9.35764 15.3672 9.36371L15.3672 9.36372C15.3307 9.37587 15.2943 9.38802 15.2578 9.35156L14.3828 8.69531C13.8906 8.3125 13.1797 8.36719 12.7422 8.80469L12.25 9.35156C11.8125 9.78906 11.7578 10.4453 12.1406 10.9375L12.8516 11.8125V11.9219C12.7422 12.0859 12.6875 12.25 12.6328 12.4141C12.6328 12.4688 12.5781 12.5234 12.5234 12.5234L11.4297 12.6875C10.8281 12.7969 10.3906 13.3438 10.3906 13.9453V14.7109C10.3906 15.3125 10.8281 15.8594 11.3203 15.9141L12.4141 16.0781L12.5234 16.1875C12.5508 16.2695 12.5918 16.3516 12.6328 16.4336C12.6738 16.5156 12.7148 16.5977 12.7422 16.6797C12.7969 16.7344 12.7969 16.7891 12.7422 16.8438L12.0859 17.7188C11.7031 18.2109 11.7578 18.8672 12.1953 19.3047L12.6875 19.8516C13.125 20.2891 13.8359 20.3438 14.3281 19.9609L15.2031 19.3047C15.2396 19.2682 15.276 19.2804 15.3125 19.2925C15.3307 19.2986 15.349 19.3047 15.3672 19.3047C15.5312 19.4141 15.6953 19.4688 15.8594 19.5234C15.9141 19.5234 15.9688 19.5781 15.9688 19.6328L16.1328 20.7266C16.2422 21.3281 16.7891 21.7656 17.3906 21.7656ZM15.9141 18.3203C15.75 18.2656 15.5312 18.2109 15.3672 18.2109C15.0938 18.2109 14.8203 18.2656 14.7656 18.4297L13.8906 19.0859C13.8359 19.1406 13.7812 19.1406 13.7266 19.0859L13.2344 18.5938C13.1797 18.5391 13.1797 18.4844 13.2344 18.4297L13.8906 17.5547C14.1641 17.2266 14.2188 16.7344 14 16.2969C13.9453 16.1875 13.8906 16.0781 13.8359 15.9141C13.6719 15.4766 13.2891 15.1484 12.8516 15.0938L11.7578 14.9297C11.7031 14.9297 11.6484 14.875 11.6484 14.8203V14.0547C11.6484 14 11.7031 13.9453 11.7578 13.9453L12.7969 13.7812C13.2344 13.7266 13.6172 13.3984 13.7812 12.9609C13.8086 12.9062 13.8359 12.8379 13.8633 12.7695C13.8906 12.7012 13.918 12.6328 13.9453 12.5781C14.1641 12.1406 14.1094 11.7031 13.8359 11.3203L13.1797 10.4453C13.125 10.3906 13.125 10.3359 13.1797 10.2812L13.6719 9.73437C13.7266 9.67969 13.7812 9.67969 13.8359 9.73437L14.7109 10.3906C15.0391 10.6641 15.5859 10.6641 15.9688 10.5C16.0234 10.4727 16.0918 10.4453 16.1602 10.418C16.2285 10.3906 16.2969 10.3633 16.3516 10.3359C16.7891 10.1719 17.1172 9.78906 17.1719 9.35156L17.3359 8.25781C17.3359 8.20312 17.3906 8.14844 17.4453 8.14844H18.1562C18.2109 8.14844 18.2656 8.20312 18.2656 8.25781L18.4297 9.35156C18.5391 9.78906 18.8125 10.1719 19.25 10.3359C19.3047 10.3633 19.373 10.3906 19.4414 10.418C19.5098 10.4453 19.5781 10.4727 19.6328 10.5C20.0156 10.7188 20.5625 10.6641 20.8906 10.3906L21.7656 9.73437C21.8203 9.67969 21.875 9.67969 21.9297 9.73437L22.4219 10.2266C22.4766 10.2812 22.4766 10.3359 22.4219 10.3906L21.7656 11.2656C21.4922 11.5938 21.4375 12.0859 21.6562 12.5234C21.7109 12.6328 21.7656 12.7422 21.8203 12.9062C21.9844 13.3438 22.3672 13.6719 22.8047 13.7266L23.8984 13.8906C23.9531 13.8906 24.0078 13.9453 24.0078 14V14.7656C24.0078 14.8203 23.9531 14.875 23.8984 14.875L22.8594 15.0391C22.4219 15.0938 22.0391 15.4219 21.875 15.8594C21.8477 15.9141 21.8203 15.9824 21.793 16.0508C21.7656 16.1191 21.7383 16.1875 21.7109 16.2422C21.4922 16.6797 21.5469 17.1172 21.8203 17.5L22.3672 18.375C22.4219 18.4297 22.4219 18.4844 22.3672 18.5391L21.875 19.0859C21.8203 19.1406 21.7656 19.1406 21.7109 19.0859L20.8359 18.4297C20.5078 18.1562 19.9609 18.1562 19.5781 18.3203C19.4688 18.375 19.3594 18.4297 19.1953 18.4844C18.7578 18.6484 18.4297 19.0312 18.375 19.4688L18.2109 20.5625C18.2109 20.6172 18.1562 20.6719 18.1016 20.6719H17.3906C17.3359 20.6719 17.2812 20.6172 17.2812 20.5625L17.1172 19.4688C17.0078 19.0312 16.7344 18.6484 16.2969 18.4844C16.2422 18.457 16.1738 18.4297 16.1055 18.4023C16.0371 18.375 15.9688 18.3477 15.9141 18.3203ZM3.71875 6.5625C3.71875 8.09375 4.92187 9.29688 6.50781 9.29688C8.03906 9.29688 9.29688 8.14844 9.29688 6.5625C9.29688 4.97656 8.09375 3.77344 6.50781 3.77344C4.92187 3.77344 3.71875 5.03125 3.71875 6.5625ZM4.8125 6.5625C4.8125 5.63281 5.57812 4.86719 6.50781 4.86719C7.38281 4.86719 8.14844 5.63281 8.20312 6.5625C8.20312 7.49219 7.4375 8.25781 6.50781 8.25781C5.57812 8.25781 4.8125 7.49219 4.8125 6.5625Z" fill="url(#paint0_linear_305_265)"/>
<defs>
<linearGradient id="paint0_linear_305_265" x1="4.58223" y1="4.46348" x2="34.9704" y2="32.0326" gradientUnits="userSpaceOnUse">
<stop stop-color="#3E96F4"/>
<stop offset="1" stop-color="#31393C"/>
</linearGradient>
</defs>
</svg>
