<svg width="32" height="32" viewBox="0 0 32 32" fill="none" xmlns="http://www.w3.org/2000/svg">
<g style="mix-blend-mode:multiply">
<path d="M24.2954 15.9774C21.3794 20.5959 15.1793 22.0328 10.4472 19.1868C5.71506 16.3408 4.2428 10.2896 7.15882 5.6711C10.0748 1.05258 16.2749 -0.384336 21.007 2.46167C25.7392 5.30767 27.2114 11.3589 24.2954 15.9774Z" fill="#007BFF" fill-opacity="0.8"/>
</g>
<g style="mix-blend-mode:multiply">
<path d="M30.5024 26.329C27.5864 30.9475 21.3864 32.3844 16.6542 29.5384C11.9221 26.6924 10.4498 20.6412 13.3658 16.0227C16.2819 11.4041 22.4819 9.96723 27.214 12.8132C31.9462 15.6592 33.4184 21.7104 30.5024 26.329Z" fill="#84979C" fill-opacity="0.8"/>
</g>
<path d="M18.6341 26.329C15.7181 30.9475 9.51808 32.3844 4.78594 29.5384C0.0538069 26.6924 -1.41845 20.6412 1.49756 16.0227C4.41358 11.4041 10.6136 9.96723 15.3458 12.8132C20.0779 15.6592 21.5502 21.7104 18.6341 26.329Z" fill="#C1C9D1" fill-opacity="0.8"/>
</svg>
