<svg width="32" height="32" viewBox="0 0 32 32" fill="none" xmlns="http://www.w3.org/2000/svg">
<g style="mix-blend-mode:multiply">
<path d="M24.2954 15.9773C21.3794 20.5959 15.1793 22.0328 10.4472 19.1868C5.71506 16.3408 4.2428 10.2896 7.15882 5.67104C10.0748 1.05252 16.2749 -0.384397 21.007 2.46161C25.7392 5.30761 27.2114 11.3588 24.2954 15.9773Z" fill="#62D84E" fill-opacity="0.8"/>
</g>
<g style="mix-blend-mode:multiply">
<path d="M30.5024 26.3289C27.5864 30.9474 21.3864 32.3843 16.6542 29.5383C11.9221 26.6923 10.4498 20.6411 13.3658 16.0226C16.2819 11.4041 22.4819 9.96717 27.214 12.8132C31.9462 15.6592 33.4184 21.7104 30.5024 26.3289Z" fill="#84979C" fill-opacity="0.8"/>
</g>
<path d="M18.6341 26.3289C15.7181 30.9474 9.51808 32.3843 4.78594 29.5383C0.0538069 26.6923 -1.41845 20.6411 1.49756 16.0226C4.41358 11.4041 10.6136 9.96717 15.3458 12.8132C20.0779 15.6592 21.5502 21.7104 18.6341 26.3289Z" fill="#C1C9D1" fill-opacity="0.8"/>
</svg>
