<svg width="78" height="78" viewBox="0 0 78 78" fill="none" xmlns="http://www.w3.org/2000/svg">
<circle cx="36" cy="36" r="37.5" transform="matrix(1 0 0 -1 3 75)" fill="#3E96F4" stroke="white" stroke-width="3"/>
<path d="M24.675 46.6555C24.675 46.4923 24.7398 46.3358 24.8552 46.2204C24.9705 46.105 25.127 46.0402 25.2902 46.0402H40.1643C40.3274 46.0402 40.4839 46.105 40.5993 46.2204C40.7147 46.3358 40.7795 46.4923 40.7795 46.6555C40.7795 46.8186 40.7147 46.9751 40.5993 47.0905C40.4839 47.2059 40.3274 47.2707 40.1643 47.2707H25.2902C25.127 47.2707 24.9705 47.2059 24.8552 47.0905C24.7398 46.9751 24.675 46.8186 24.675 46.6555ZM25.2902 42.7095H36.1561C36.3193 42.7095 36.4758 42.6447 36.5912 42.5293C36.7065 42.4139 36.7713 42.2575 36.7713 42.0943C36.7713 41.9311 36.7065 41.7746 36.5912 41.6593C36.4758 41.5439 36.3193 41.4791 36.1561 41.4791H25.2902C25.127 41.4791 24.9705 41.5439 24.8552 41.6593C24.7398 41.7746 24.675 41.9311 24.675 42.0943C24.675 42.2575 24.7398 42.4139 24.8552 42.5293C24.9705 42.6447 25.127 42.7095 25.2902 42.7095ZM50.4727 51.6961V58.9963C50.4727 59.7822 49.8334 60.4215 49.0475 60.4215H39.2417C38.4558 60.4215 37.8165 59.7822 37.8165 58.9963V54.5385C36.184 54.9177 34.476 55.1102 32.7272 55.1102C32.0023 55.1102 31.2737 55.0763 30.5579 55.0093L22.9591 60.3109C22.8571 60.3822 22.7359 60.4208 22.6114 60.4217C22.487 60.4225 22.3653 60.3857 22.2623 60.3159C22.1593 60.2461 22.0798 60.1468 22.0344 60.031C21.9889 59.9152 21.9796 59.7884 22.0077 59.6672L23.5333 53.0955C19.4319 51.0835 17 47.8517 17 44.3749C17 41.9904 18.1109 39.7365 20.2127 37.857C22.2234 36.0588 24.9596 34.7612 28.1255 34.1045C28.2851 34.072 28.451 34.104 28.5869 34.1936C28.7229 34.2832 28.8178 34.423 28.8508 34.5824C28.8839 34.7418 28.8524 34.9078 28.7633 35.044C28.6743 35.1803 28.5348 35.2757 28.3755 35.3093C25.4637 35.9133 22.856 37.1438 21.0329 38.7741C19.1996 40.4137 18.2305 42.3504 18.2305 44.3749C18.2305 47.4829 20.5741 50.405 24.4996 52.1912C24.6289 52.25 24.7339 52.3518 24.7967 52.4792C24.8595 52.6066 24.8762 52.7519 24.8441 52.8902L23.5685 58.3853L30.0402 53.87C30.1614 53.7855 30.3089 53.7474 30.4559 53.7626C31.2105 53.8406 31.9686 53.8796 32.7272 53.8795C34.4822 53.8795 36.1916 53.6751 37.8165 53.2727V51.696C37.8165 50.9101 38.4558 50.2708 39.2417 50.2708H44.0778C46.1083 48.5934 47.224 46.5067 47.224 44.3748C47.224 42.0968 45.9618 39.8885 43.6699 38.1566C43.6045 38.1082 43.5494 38.0474 43.5077 37.9776C43.466 37.9078 43.4385 37.8304 43.4269 37.7499C43.4153 37.6694 43.4198 37.5875 43.44 37.5087C43.4603 37.43 43.496 37.356 43.545 37.2911C43.594 37.2263 43.6554 37.1717 43.7256 37.1307C43.7959 37.0897 43.8735 37.0631 43.9541 37.0523C44.0347 37.0415 44.1166 37.0468 44.1952 37.0678C44.2737 37.0889 44.3473 37.1253 44.4117 37.175C47.0187 39.1449 48.4545 41.7019 48.4545 44.3748C48.4545 46.4836 47.5523 48.5329 45.8853 50.2708H49.0474C49.8333 50.2708 50.4727 50.9102 50.4727 51.6961ZM49.2422 51.6961C49.2422 51.5905 49.153 51.5013 49.0475 51.5013H39.2417C39.1361 51.5013 39.0469 51.5905 39.0469 51.6961V58.9963C39.0469 59.1018 39.1361 59.191 39.2417 59.191H49.0475C49.153 59.191 49.2422 59.1018 49.2422 58.9963V51.6961ZM46.5152 55.3461C46.5152 55.4541 46.4867 55.5602 46.4327 55.6537C46.3787 55.7472 46.3011 55.8249 46.2075 55.8789L42.6968 57.9057C42.6033 57.9597 42.4972 57.9881 42.3892 57.9881C42.2812 57.9881 42.1751 57.9597 42.0816 57.9057C41.9881 57.8517 41.9104 57.7741 41.8564 57.6805C41.8024 57.587 41.774 57.4809 41.774 57.3729V53.3191C41.774 53.2111 41.8024 53.105 41.8564 53.0115C41.9104 52.918 41.988 52.8403 42.0816 52.7863C42.1751 52.7323 42.2812 52.7039 42.3892 52.7039C42.4972 52.7039 42.6033 52.7323 42.6968 52.7864L46.2075 54.8133C46.3011 54.8673 46.3787 54.945 46.4327 55.0385C46.4867 55.132 46.5152 55.2381 46.5152 55.3461ZM44.6695 55.3461L43.0045 54.3848V56.3073L44.6695 55.3461ZM56.4027 23.4338C56.5105 23.4338 56.6165 23.4053 56.7098 23.3513L59.0859 21.9795C59.1564 21.9394 59.2183 21.8857 59.2681 21.8216C59.3178 21.7575 59.3543 21.6841 59.3756 21.6058C59.3968 21.5275 59.4024 21.4458 59.3919 21.3653C59.3815 21.2849 59.3552 21.2073 59.3146 21.137C59.2741 21.0667 59.22 21.0052 59.1555 20.9559C59.0911 20.9066 59.0175 20.8706 58.9391 20.8498C58.8606 20.8291 58.7789 20.8241 58.6985 20.8351C58.6181 20.8461 58.5407 20.8728 58.4707 20.9139L56.0945 22.2857C55.9772 22.3534 55.8855 22.458 55.8336 22.5832C55.7818 22.7084 55.7727 22.8472 55.8078 22.978C55.843 23.1089 55.9203 23.2245 56.0279 23.3069C56.1354 23.3893 56.2672 23.4339 56.4027 23.4338ZM52.4422 20.658C52.5122 20.6985 52.5894 20.7247 52.6696 20.7353C52.7497 20.7459 52.8311 20.7406 52.9091 20.7197C52.9872 20.6988 53.0604 20.6627 53.1244 20.6134C53.1885 20.5642 53.2423 20.5029 53.2827 20.4329L54.7298 17.9264C54.7708 17.8564 54.7976 17.779 54.8086 17.6986C54.8196 17.6182 54.8146 17.5364 54.7938 17.458C54.7731 17.3795 54.737 17.306 54.6877 17.2415C54.6385 17.1771 54.5769 17.123 54.5066 17.0824C54.4364 17.0419 54.3588 17.0156 54.2783 17.0051C54.1979 16.9947 54.1161 17.0002 54.0378 17.0215C53.9595 17.0428 53.8862 17.0793 53.8221 17.129C53.7579 17.1787 53.7043 17.2406 53.6642 17.3112L52.2171 19.8176C52.1355 19.9589 52.1134 20.1268 52.1556 20.2845C52.1978 20.4421 52.3009 20.5764 52.4422 20.658ZM56.2933 27.328C56.2933 27.4912 56.3581 27.6477 56.4735 27.7631C56.5888 27.8785 56.7453 27.9433 56.9085 27.9433H59.8027C59.9659 27.9433 60.1224 27.8785 60.2378 27.7631C60.3531 27.6477 60.418 27.4912 60.418 27.328C60.418 27.1649 60.3531 27.0084 60.2378 26.893C60.1224 26.7776 59.9659 26.7128 59.8027 26.7128H56.9085C56.7453 26.7128 56.5888 26.7776 56.4735 26.893C56.3581 27.0084 56.2933 27.1649 56.2933 27.328ZM30.228 34.08C30.5551 32.8589 31.3344 31.8406 32.4225 31.2125L35.6405 29.3545C35.7105 29.3141 35.7878 29.2879 35.8679 29.2773C35.948 29.2667 36.0294 29.2721 36.1074 29.293C36.169 29.3097 36.2276 29.3358 36.2812 29.3704C39.5883 26.8953 42.196 24.0299 43.6899 21.2253L43.6333 21.1273C42.9362 19.9198 43.3514 18.3703 44.5588 17.6731C45.7664 16.976 47.3159 17.3912 48.013 18.5986L50.5235 22.9469C51.857 22.257 53.5163 22.7331 54.2746 24.0467C55.0329 25.3603 54.6156 27.035 53.3516 27.8452L55.8621 32.1935C56.1988 32.7766 56.2876 33.4578 56.1125 34.1117C55.9372 34.7655 55.5196 35.3111 54.9365 35.6478C54.5548 35.8692 54.1215 35.9858 53.6803 35.986C53.4597 35.986 53.2375 35.9569 53.0184 35.8982C52.3646 35.723 51.819 35.3054 51.4824 34.7223L51.4258 34.6243C48.2779 34.5165 44.5302 35.327 40.7663 36.9256L45.2085 42.905C45.6518 43.5018 45.574 44.3257 45.0275 44.8216L44.0503 45.7084C43.9023 45.8425 43.7279 45.9442 43.5384 46.0071C43.3489 46.0701 43.1483 46.0928 42.9495 46.0739C42.7535 46.0549 42.5636 45.9953 42.3919 45.8988C42.2202 45.8023 42.0706 45.671 41.9525 45.5134L37.3052 39.2948L37.143 39.3884C36.4199 39.8059 35.6156 40.0192 34.799 40.0192C34.3814 40.0188 33.9656 39.9637 33.5624 39.8552C32.3413 39.5281 31.323 38.7486 30.6949 37.6606C30.0666 36.5726 29.9009 35.301 30.228 34.08ZM44.2207 43.6387L39.8864 37.8044L38.3783 38.6752L42.9382 44.7769C42.9534 44.7975 42.9728 44.8146 42.9951 44.827C43.0175 44.8395 43.0422 44.847 43.0677 44.8491C43.1011 44.8523 43.1653 44.8498 43.2234 44.7971L44.2006 43.9104C44.2774 43.8407 44.2859 43.7264 44.2207 43.6387ZM51.1404 24.0154L52.7347 26.7767C53.4114 26.3076 53.628 25.3877 53.209 24.662C52.79 23.9363 51.885 23.6639 51.1404 24.0154ZM44.6989 20.512L52.5479 34.107C52.7202 34.4054 53.0004 34.6195 53.3368 34.7095C53.6732 34.7995 54.0227 34.7545 54.3213 34.5821C54.6197 34.4098 54.8337 34.1296 54.9239 33.7933C55.014 33.4569 54.9688 33.1073 54.7965 32.8088L46.9474 19.2139C46.7073 18.7979 46.27 18.5651 45.821 18.5651C45.6009 18.5651 45.378 18.621 45.1741 18.7388C44.8757 18.911 44.6616 19.1912 44.5716 19.5276C44.4815 19.8639 44.5266 20.2136 44.6989 20.512ZM36.9559 30.4023L40.1112 35.8675C43.8014 34.2777 47.5031 33.4133 50.7106 33.3856L44.405 22.4637C42.7774 25.2276 40.1778 28.0014 36.9559 30.4023ZM31.7604 37.0453C32.2242 37.8487 32.9772 38.4245 33.8807 38.6666C34.7841 38.9087 35.7242 38.7865 36.5276 38.3227L39.2129 36.7724L35.7229 30.7277L33.0377 32.278C32.2343 32.7418 31.6586 33.4948 31.4164 34.3983C31.1743 35.3018 31.2966 36.242 31.7604 37.0453ZM20.3753 24.1157C20.3753 22.0552 22.0516 20.3788 24.1122 20.3788C26.1728 20.3788 27.8491 22.0551 27.8491 24.1157C27.8491 26.1762 26.1728 27.8526 24.1122 27.8526C22.0516 27.8526 20.3753 26.1762 20.3753 24.1157ZM21.6057 24.1157C21.6057 25.4978 22.7301 26.6221 24.1122 26.6221C25.4943 26.6221 26.6187 25.4978 26.6187 24.1157C26.6187 22.7337 25.4943 21.6093 24.1122 21.6093C22.7301 21.6093 21.6057 22.7337 21.6057 24.1157ZM17 24.7654V23.466C17 22.8914 17.4674 22.424 18.0419 22.424C18.5508 22.424 18.7516 22.035 18.8009 21.9157C18.8503 21.7965 18.9835 21.3794 18.6236 21.0196C18.5265 20.9231 18.4496 20.8083 18.3972 20.6818C18.3448 20.5553 18.318 20.4197 18.3184 20.2828C18.3184 20.0045 18.4267 19.7427 18.6236 19.5459L19.5423 18.6271C19.9486 18.2208 20.6097 18.2208 21.016 18.6271C21.3759 18.987 21.7929 18.8538 21.9121 18.8044C22.0314 18.755 22.4204 18.5544 22.4204 18.0455C22.4204 17.4708 22.8878 17.0034 23.4623 17.0034H24.7617C25.3362 17.0034 25.8037 17.4708 25.8037 18.0455C25.8037 18.5544 26.1927 18.755 26.3119 18.8044C26.4311 18.8538 26.8483 18.9869 27.2081 18.6271C27.6144 18.2208 28.2754 18.2208 28.6817 18.6271L29.6005 19.5459C29.7973 19.7427 29.9057 20.0044 29.9057 20.2827C29.9057 20.5611 29.7973 20.8228 29.6004 21.0196C29.2406 21.3794 29.3739 21.7965 29.4233 21.9157C29.4726 22.0349 29.6733 22.424 30.1822 22.424C30.7567 22.424 31.2241 22.8914 31.2241 23.466V24.7654C31.2241 25.34 30.7567 25.8074 30.1822 25.8074C29.6733 25.8074 29.4726 26.1964 29.4233 26.3156C29.3739 26.4348 29.2406 26.8519 29.6005 27.2118C30.0068 27.6181 30.0068 28.2792 29.6005 28.6854L28.6817 29.6042C28.485 29.801 28.2233 29.9095 27.9449 29.9095C27.6666 29.9095 27.4048 29.8011 27.2081 29.6042C26.8482 29.2445 26.4313 29.3776 26.3119 29.427C26.1927 29.4764 25.8037 29.6771 25.8037 30.1861C25.8037 30.7606 25.3362 31.228 24.7617 31.228H23.4625C22.888 31.228 22.4206 30.7606 22.4206 30.1861C22.4206 29.676 22.0318 29.4754 21.9127 29.4261C21.7935 29.3767 21.3768 29.2436 21.0162 29.6043C20.8195 29.8011 20.5577 29.9096 20.2794 29.9096C20.001 29.9096 19.7392 29.8012 19.5425 29.6043L18.6238 28.6856C18.5267 28.5891 18.4497 28.4742 18.3973 28.3477C18.3449 28.2213 18.3182 28.0856 18.3185 27.9487C18.3185 27.6704 18.4269 27.4086 18.6238 27.2119C18.9836 26.852 18.8504 26.435 18.801 26.3158C18.7516 26.1965 18.5509 25.8075 18.042 25.8075C17.4674 25.8074 17 25.34 17 24.7654ZM18.2305 24.5851C18.9943 24.6516 19.6382 25.1215 19.9377 25.8448C20.2374 26.5681 20.1143 27.3557 19.6212 27.9429L20.285 28.6068C20.8726 28.1131 21.6604 27.9898 22.3835 28.2892C23.1066 28.5887 23.5763 29.233 23.6428 29.9976H24.5814C24.648 29.2338 25.1178 28.5899 25.8412 28.2903C26.5644 27.9908 27.352 28.1137 27.9393 28.6068L28.6031 27.9429C28.11 27.3557 27.987 26.5681 28.2866 25.8448C28.5862 25.1216 29.23 24.6516 29.9938 24.5851V23.6464C29.23 23.5799 28.5861 23.11 28.2866 22.3867C27.987 21.6633 28.11 20.8758 28.6031 20.2885L27.9392 19.6247C27.3518 20.1178 26.5643 20.2407 25.8411 19.9412C25.1178 19.6416 24.648 18.9978 24.5814 18.2339H23.6428C23.5762 18.9978 23.1064 19.6417 22.3831 19.9412C21.6598 20.2408 20.8722 20.1178 20.285 19.6246L19.6212 20.2884C20.1142 20.8758 20.2373 21.6633 19.9377 22.3866C19.6382 23.11 18.9943 23.5799 18.2305 23.6464V24.5851ZM60.3696 40.9424C60.1525 42.7642 59.2764 44.4973 58.7735 45.3682C58.2706 46.2391 57.2079 47.8643 55.7388 48.9633C54.7863 49.6758 53.8271 50.0342 52.8978 50.0342C52.2488 50.0342 51.6142 49.8595 51.0065 49.5086L50.7855 49.3809C50.4215 49.1708 50.161 48.8309 50.0519 48.4237C49.9428 48.0166 49.9984 47.592 50.2086 47.2281L51.092 45.698C51.5264 44.9454 52.4923 44.6866 53.2449 45.1211L53.7631 45.4202C53.9099 45.5051 54.0838 45.4764 54.1958 45.3489C54.6789 44.798 55.1239 44.1722 55.5184 43.4888C55.913 42.8055 56.2324 42.1071 56.4679 41.4134C56.5224 41.2527 56.4603 41.0878 56.3135 41.0029L55.7953 40.7039C55.4312 40.4937 55.1708 40.1537 55.0616 39.7466C54.9526 39.3395 55.0082 38.9148 55.2184 38.5509L56.1017 37.0208C56.5361 36.2683 57.5019 36.0095 58.2546 36.4439L58.4757 36.5715C59.9539 37.4249 60.6088 38.9363 60.3696 40.9424ZM57.8604 37.6371L57.6395 37.5095C57.5601 37.4638 57.4658 37.4514 57.3773 37.4751C57.2888 37.4988 57.2133 37.5567 57.1674 37.6359L56.284 39.166C56.2614 39.2053 56.2467 39.2487 56.2409 39.2937C56.2351 39.3386 56.2383 39.3843 56.2503 39.428C56.2618 39.4719 56.2819 39.5131 56.3094 39.5491C56.3369 39.5852 56.3713 39.6154 56.4106 39.6381L56.9288 39.9372C57.5882 40.318 57.8779 41.0876 57.6332 41.8087C57.3719 42.5787 57.0189 43.3509 56.5841 44.104C56.1494 44.857 55.657 45.5487 55.1209 46.1602C54.6187 46.7329 53.8074 46.8667 53.1479 46.4859L52.6297 46.1868C52.5503 46.1411 52.456 46.1287 52.3675 46.1524C52.279 46.1761 52.2035 46.234 52.1576 46.3133L51.2742 47.8434C51.2515 47.8827 51.2368 47.926 51.231 47.971C51.2253 48.016 51.2284 48.0617 51.2404 48.1054C51.2519 48.1493 51.272 48.1904 51.2995 48.2265C51.327 48.2625 51.3615 48.2928 51.4007 48.3154L51.6217 48.4431C52.6694 49.0479 53.775 48.8958 55.0017 47.978C56.3431 46.9746 57.3411 45.3884 57.708 44.753C58.0749 44.1176 58.9496 42.4601 59.1479 40.7968C59.3292 39.2755 58.9081 38.242 57.8604 37.6371Z" fill="white"/>
</svg>
