<svg width="20" height="733" viewBox="0 0 20 733" fill="none" xmlns="http://www.w3.org/2000/svg">
<path d="M10 9V733" stroke="#4D5F66" stroke-miterlimit="10" stroke-dasharray="5.01 5.01"/>
<path d="M10 19C14.9706 19 19 14.9706 19 10C19 5.02944 14.9706 1 10 1C5.02944 1 1 5.02944 1 10C1 14.9706 5.02944 19 10 19Z" fill="#3E96F4" stroke="#4D5F66" stroke-miterlimit="10"/>
<path d="M10 166C14.9706 166 19 161.971 19 157C19 152.029 14.9706 148 10 148C5.02944 148 1 152.029 1 157C1 161.971 5.02944 166 10 166Z" fill="#3E96F4" stroke="#4D5F66" stroke-miterlimit="10"/>
<path d="M10 361C14.9706 361 19 356.971 19 352C19 347.029 14.9706 343 10 343C5.02944 343 1 347.029 1 352C1 356.971 5.02944 361 10 361Z" fill="#3E96F4" stroke="#4D5F66" stroke-miterlimit="10"/>
<path d="M10 556C14.9706 556 19 551.971 19 547C19 542.029 14.9706 538 10 538C5.02944 538 1 542.029 1 547C1 551.971 5.02944 556 10 556Z" fill="#3E96F4" stroke="#4D5F66" stroke-miterlimit="10"/>
</svg>
