<svg width="45" height="48" viewBox="0 0 45 48" fill="none" xmlns="http://www.w3.org/2000/svg">
<path d="M37.7881 30.6622C37.7872 29.8351 37.4583 29.0422 36.8734 28.4573C36.2886 27.8725 35.4956 27.5435 34.6685 27.5426H25.2279C26.5317 24.3828 26.5365 20.8362 25.2412 17.6729C25.2298 17.6452 25.2169 17.6181 25.2023 17.5919C24.936 17.1129 24.5413 16.7176 24.0627 16.4506C23.584 16.1837 23.0404 16.0555 22.4929 16.0807C21.9454 16.1059 21.4158 16.2833 20.9636 16.5931C20.5115 16.9028 20.1547 17.3326 19.9335 17.8341C19.8986 17.9133 19.8777 17.9979 19.8716 18.0842L19.6487 21.248C19.3151 23.0662 18.3341 24.7019 16.8871 25.8524C16.3076 26.0558 15.2465 26.7755 12.4785 29.4094V29.3307C12.478 28.916 12.3131 28.5184 12.0199 28.2252C11.7266 27.932 11.329 27.7671 10.9143 27.7667H3.04078C2.62611 27.7671 2.22854 27.932 1.93532 28.2252C1.6421 28.5184 1.47718 28.916 1.47676 29.3307V45.0431C1.47706 45.4579 1.64192 45.8556 1.93515 46.1489C2.22838 46.4422 2.62603 46.6072 3.04078 46.6076H10.9139C11.3286 46.6072 11.7262 46.4423 12.0194 46.1491C12.3126 45.8559 12.4776 45.4583 12.478 45.0436V44.9747C14.643 45.4523 15.773 46.0198 17.091 47.2442C17.6092 47.7372 18.2994 48.0083 19.0146 47.9998H31.2185C31.8107 48 32.3907 47.8316 32.8907 47.5142C33.3906 47.1969 33.7899 46.7437 34.0417 46.2077C34.2936 45.6717 34.3876 45.0751 34.3127 44.4876C34.2379 43.9002 33.9973 43.3462 33.6191 42.8905C34.5931 42.3046 35.286 41.2557 35.286 40.1413C35.2867 39.448 35.0553 38.7744 34.6287 38.2279C35.6207 37.6404 36.3325 36.5558 36.3325 35.402C36.3333 34.7516 36.1296 34.1173 35.7502 33.589C36.3479 33.3673 36.8634 32.968 37.2277 32.4449C37.592 31.9217 37.7875 31.2997 37.7881 30.6622ZM10.978 45.0434C10.9774 45.0602 10.9704 45.0761 10.9585 45.088C10.9466 45.0999 10.9307 45.1068 10.9139 45.1074H3.04078C3.02399 45.1068 3.00806 45.0999 2.99618 45.088C2.9843 45.0761 2.97736 45.0602 2.97675 45.0434V29.331C2.97738 29.3142 2.98433 29.2983 2.9962 29.2864C3.00808 29.2745 3.024 29.2676 3.04078 29.2669H10.9139C10.9307 29.2676 10.9466 29.2745 10.9585 29.2864C10.9704 29.2983 10.9774 29.3142 10.978 29.331V45.0434ZM34.6685 32.2817H32.0618C31.8629 32.2817 31.6721 32.3608 31.5315 32.5014C31.3908 32.6421 31.3118 32.8328 31.3118 33.0317C31.3118 33.2307 31.3908 33.4214 31.5315 33.5621C31.6721 33.7027 31.8629 33.7817 32.0618 33.7817H33.2129C33.6422 33.7823 34.0539 33.9532 34.3575 34.2568C34.6611 34.5604 34.8319 34.972 34.8325 35.4014C34.8325 36.2451 33.9987 37.1035 33.1429 37.1775C32.8279 37.0736 32.4981 37.0208 32.1664 37.0211C31.9674 37.0211 31.7767 37.1001 31.636 37.2407C31.4954 37.3814 31.4164 37.5722 31.4164 37.7711C31.4164 37.97 31.4954 38.1607 31.636 38.3014C31.7767 38.4421 31.9674 38.5211 32.1664 38.5211C32.356 38.5209 32.5442 38.5541 32.7223 38.6193C32.7421 38.628 32.7621 38.6359 32.7828 38.6428C33.0793 38.7653 33.3329 38.973 33.5115 39.2396C33.69 39.5062 33.7855 39.8198 33.7859 40.1407C33.7859 40.9676 32.9189 41.8094 32.0361 41.8691C31.7696 41.7967 31.4946 41.7601 31.2184 41.7603C31.0194 41.7603 30.8287 41.8393 30.688 41.98C30.5474 42.1206 30.4684 42.3114 30.4684 42.5103C30.4684 42.7092 30.5474 42.9 30.688 43.0406C30.8287 43.1813 31.0194 43.2603 31.2184 43.2603C31.3754 43.2602 31.5317 43.283 31.6821 43.328C31.6999 43.3344 31.7179 43.3402 31.7363 43.3452C32.1004 43.4679 32.409 43.7161 32.607 44.0453C32.805 44.3745 32.8795 44.7634 32.8173 45.1425C32.7551 45.5216 32.5601 45.8662 32.2672 46.1149C31.9743 46.3635 31.6026 46.4999 31.2185 46.4998H19.0146C18.8481 46.5035 18.6826 46.4741 18.5276 46.4132C18.3726 46.3524 18.2313 46.2613 18.1119 46.1453C16.5191 44.6654 15.1268 43.9917 12.478 43.4406V31.4919L12.611 31.3624C16.2922 27.7875 17.194 27.3233 17.3854 27.267C17.4966 27.2441 17.6011 27.1964 17.6912 27.1273C19.504 25.7388 20.7315 23.7222 21.1324 21.4742C21.1371 21.4479 21.1404 21.4214 21.1423 21.3947L21.358 18.3342C21.4798 18.1098 21.6589 17.9217 21.8771 17.789C22.0953 17.6563 22.3447 17.5838 22.6 17.5788C22.8553 17.5738 23.1074 17.6366 23.3306 17.7608C23.5537 17.8849 23.74 18.066 23.8705 18.2855C24.4968 19.8339 24.7779 21.5002 24.6942 23.1683C24.6105 24.8365 24.164 26.4663 23.3859 27.9442C23.3258 28.0585 23.2963 28.1864 23.3002 28.3155C23.3041 28.4445 23.3412 28.5704 23.408 28.6809C23.4747 28.7914 23.5689 28.8828 23.6814 28.9462C23.7938 29.0097 23.9208 29.043 24.0499 29.043H34.6685C35.096 29.0462 35.5048 29.2183 35.8059 29.5217C36.107 29.8251 36.2759 30.2352 36.2759 30.6626C36.2759 31.0901 36.107 31.5002 35.8059 31.8036C35.5048 32.107 35.096 32.2791 34.6685 32.2823V32.2817ZM8.43561 31.7305V31.821C8.43561 32.0199 8.35659 32.2106 8.21594 32.3513C8.07528 32.4919 7.88452 32.571 7.68561 32.571C7.4867 32.571 7.29593 32.4919 7.15528 32.3513C7.01463 32.2106 6.93561 32.0199 6.93561 31.821V31.7305C6.93561 31.5316 7.01463 31.3408 7.15528 31.2002C7.29593 31.0595 7.4867 30.9805 7.68561 30.9805C7.88452 30.9805 8.07528 31.0595 8.21594 31.2002C8.35659 31.3408 8.43561 31.5316 8.43561 31.7305ZM30.9402 6.42954C30.895 6.29033 30.81 6.16739 30.6958 6.07589C30.5815 5.98438 30.443 5.92831 30.2973 5.91457L24.9218 5.40833L22.7786 0.452346C22.7206 0.317998 22.6244 0.203584 22.5021 0.123206C22.3798 0.0428285 22.2366 0 22.0902 0C21.9439 0 21.8007 0.0428285 21.6784 0.123206C21.5561 0.203584 21.4599 0.317998 21.4018 0.452346L19.259 5.40823L13.8836 5.91448C13.7379 5.92822 13.5994 5.98429 13.4851 6.07579C13.3709 6.16729 13.2859 6.29021 13.2407 6.42941C13.1955 6.56861 13.1919 6.718 13.2306 6.85917C13.2692 7.00034 13.3483 7.12712 13.4581 7.22388L17.5093 10.7931L16.3298 16.0618C16.2978 16.2047 16.3084 16.3537 16.3601 16.4907C16.4118 16.6276 16.5024 16.7464 16.6209 16.8324C16.7393 16.9184 16.8803 16.9679 17.0265 16.9748C17.1727 16.9817 17.3177 16.9456 17.4436 16.8711L22.0902 14.1213L26.7367 16.8713C26.8626 16.9458 27.0076 16.9819 27.1538 16.975C27.3 16.9681 27.441 16.9186 27.5594 16.8326C27.6778 16.7466 27.7685 16.6278 27.8202 16.4908C27.8719 16.3539 27.8825 16.2049 27.8505 16.062L26.671 10.7933L30.7222 7.22407C30.8321 7.12736 30.9114 7.0006 30.9501 6.85942C30.9888 6.71823 30.9854 6.5688 30.9402 6.42954ZM25.3468 9.96118C25.246 10.05 25.1709 10.1643 25.1293 10.2922C25.0878 10.42 25.0814 10.5566 25.1108 10.6877L26.0083 14.6969L22.4727 12.6044C22.3571 12.5359 22.2251 12.4998 22.0907 12.4998C21.9563 12.4998 21.8243 12.5359 21.7087 12.6044L18.1731 14.6969L19.0702 10.6875C19.0995 10.5563 19.0931 10.4197 19.0516 10.2919C19.0101 10.1641 18.935 10.0497 18.8341 9.9609L15.7515 7.24497L19.8418 6.85966C19.9756 6.84705 20.1036 6.79871 20.2123 6.71971C20.321 6.64071 20.4065 6.53396 20.4598 6.4106L22.0902 2.6399L23.7206 6.41088C23.774 6.53424 23.8595 6.641 23.9682 6.71999C24.0769 6.79899 24.2048 6.84733 24.3386 6.85994L28.429 7.24526L25.3468 9.96118ZM44.1442 10.8243C44.099 10.6851 44.014 10.5622 43.8997 10.4707C43.7855 10.3792 43.647 10.3231 43.5012 10.3094L39.7131 9.95256L38.2027 6.4601C38.1446 6.32576 38.0485 6.21134 37.9262 6.13096C37.8038 6.05059 37.6607 6.00776 37.5143 6.00776C37.3679 6.00776 37.2248 6.05059 37.1024 6.13096C36.9801 6.21134 36.884 6.32576 36.8259 6.4601L35.316 9.95256L31.5277 10.3094C31.382 10.3231 31.2435 10.3792 31.1292 10.4707C31.0149 10.5622 30.93 10.6851 30.8847 10.8243C30.8395 10.9635 30.836 11.113 30.8747 11.2541C30.9133 11.3953 30.9924 11.5221 31.1023 11.6189L33.9573 14.1341L33.1261 17.8471C33.0941 17.99 33.1046 18.1391 33.1564 18.276C33.2081 18.4129 33.2988 18.5317 33.4173 18.6178C33.5357 18.7038 33.6768 18.7532 33.823 18.7601C33.9692 18.7669 34.1142 18.7308 34.2402 18.6562L37.5146 16.7183L40.7887 18.6562C40.9147 18.7307 41.0597 18.7668 41.2059 18.76C41.3521 18.7531 41.4931 18.7036 41.6116 18.6176C41.73 18.5315 41.8206 18.4127 41.8724 18.2758C41.9241 18.1389 41.9346 17.9898 41.9026 17.8469L41.0714 14.1339L43.9262 11.6187C44.036 11.5219 44.1151 11.3952 44.1537 11.254C44.1924 11.1129 44.1889 10.9635 44.1437 10.8243H44.1442ZM39.7473 13.302C39.6465 13.3909 39.5714 13.5052 39.5299 13.633C39.4883 13.7608 39.4819 13.8975 39.5113 14.0286L40.0605 16.482L37.8964 15.2015C37.7808 15.133 37.6488 15.0969 37.5144 15.0969C37.38 15.0969 37.248 15.133 37.1324 15.2015L34.9689 16.482L35.5181 14.0286C35.5474 13.8975 35.541 13.7608 35.4995 13.633C35.458 13.5052 35.3829 13.3909 35.282 13.302L33.3955 11.6401L35.8986 11.4043C36.0324 11.3917 36.1604 11.3433 36.2691 11.2643C36.3779 11.1853 36.4634 11.0786 36.5167 10.9552L37.5144 8.64756L38.5121 10.9552C38.5654 11.0786 38.6509 11.1853 38.7597 11.2643C38.8684 11.3433 38.9964 11.3917 39.1302 11.4043L41.6333 11.6401L39.7473 13.302ZM12.6537 10.3094L8.86554 9.95256L7.35458 6.4601C7.29649 6.32576 7.20036 6.21134 7.07803 6.13096C6.95571 6.05059 6.81254 6.00776 6.66617 6.00776C6.51981 6.00776 6.37664 6.05059 6.25431 6.13096C6.13199 6.21134 6.03586 6.32576 5.97777 6.4601L4.46784 9.95256L0.679699 10.3094C0.533962 10.3231 0.395425 10.3792 0.281169 10.4707C0.166912 10.5622 0.0819303 10.6851 0.0367002 10.8243C-0.00852984 10.9635 -0.0120309 11.113 0.0266286 11.2541C0.0652881 11.3953 0.144418 11.5221 0.254263 11.6189L3.10913 14.1341L2.27785 17.8471C2.24592 17.9899 2.25647 18.139 2.30821 18.2759C2.35995 18.4128 2.45062 18.5316 2.56903 18.6176C2.68745 18.7036 2.82844 18.7531 2.97463 18.7599C3.12083 18.7668 3.26583 18.7307 3.39178 18.6562L6.66617 16.7183L9.94029 18.6562C10.0662 18.7307 10.2113 18.7668 10.3575 18.7599C10.5037 18.753 10.6447 18.7035 10.7631 18.6175C10.8815 18.5315 10.9721 18.4127 11.0238 18.2757C11.0756 18.1388 11.0861 17.9898 11.0541 17.8469L10.2228 14.1339L13.0778 11.6187C13.1877 11.5219 13.2668 11.3951 13.3054 11.254C13.3441 11.1128 13.3406 10.9634 13.2954 10.8241C13.2501 10.6849 13.1652 10.562 13.0509 10.4705C12.9366 10.379 12.7981 10.3229 12.6524 10.3092L12.6537 10.3094ZM8.89957 13.302C8.79874 13.3909 8.72363 13.5052 8.6821 13.633C8.64057 13.7608 8.63415 13.8975 8.66351 14.0286L9.2127 16.4819L7.0482 15.2015C6.93253 15.133 6.80059 15.0969 6.66617 15.0969C6.53176 15.0969 6.39982 15.133 6.28414 15.2015L4.12059 16.482L4.66987 14.0286C4.69923 13.8975 4.69281 13.7608 4.65128 13.633C4.60975 13.5052 4.53464 13.3909 4.43381 13.302L2.54738 11.6401L5.05049 11.4043C5.1843 11.3917 5.31227 11.3433 5.421 11.2643C5.52974 11.1853 5.61525 11.0786 5.66858 10.9552L6.66617 8.64766L7.66386 10.9552C7.71719 11.0786 7.80268 11.1853 7.9114 11.2643C8.02011 11.3433 8.14806 11.3917 8.28186 11.4043L10.785 11.6401L8.89957 13.302Z" fill="url(#paint0_linear_0_5700)"/>
<defs>
<linearGradient id="paint0_linear_0_5700" x1="44.534" y1="48.0776" x2="8.16885" y2="8.95959" gradientUnits="userSpaceOnUse">
<stop stop-color="#31393C"/>
<stop offset="1" stop-color="#3D96F5"/>
</linearGradient>
</defs>
</svg>
