<svg width="68" height="62" viewBox="0 0 68 62" fill="none" xmlns="http://www.w3.org/2000/svg">
<path d="M17.3379 29.2442L32.964 38.2659C33.1391 38.3699 33.3386 38.4258 33.5423 38.4279C33.746 38.4258 33.9455 38.3699 34.1206 38.2659L49.7698 29.2442C49.9463 29.1423 50.0928 28.9956 50.1943 28.8189C50.2959 28.6422 50.3489 28.4418 50.3481 28.238V10.1945C50.3489 9.9907 50.2959 9.7903 50.1943 9.61359C50.0928 9.43688 49.9463 9.29015 49.7698 9.18824L34.1206 0.154959C33.9448 0.0534435 33.7453 0 33.5423 0C33.3393 0 33.1398 0.0534435 32.964 0.154959L17.3379 9.17668C17.1614 9.27858 17.0149 9.42532 16.9134 9.60202C16.8118 9.77873 16.7588 9.97914 16.7596 10.1829V28.238C16.7588 28.4418 16.8118 28.6422 16.9134 28.8189C17.0149 28.9956 17.1614 29.1423 17.3379 29.2442ZM19.0728 12.1955L32.3857 19.8755V35.2703L19.0728 27.544V12.1955ZM26.1167 6.78245L38.5042 15.0292L33.5654 17.8745L20.2179 10.1945L26.1167 6.78245ZM34.6989 35.2703V19.8755L39.5221 17.1343V21.275C39.5221 21.5818 39.6439 21.876 39.8608 22.0929C40.0778 22.3098 40.3719 22.4317 40.6787 22.4317C40.9855 22.4317 41.2797 22.3098 41.4966 22.0929C41.7135 21.876 41.8353 21.5818 41.8353 21.275V15.7695L48.0349 12.1839V27.544L34.6989 35.2703ZM33.5423 2.49135L46.8782 10.1945L40.7134 13.7454L28.349 5.48703L33.5423 2.49135ZM66.5988 56.4597H60.8156V54.4241C60.8156 54.1173 60.6938 53.8231 60.4769 53.6062C60.26 53.3893 59.9658 53.2674 59.659 53.2674H53.1934C52.8867 53.2674 52.5925 53.3893 52.3756 53.6062C52.1587 53.8231 52.0368 54.1173 52.0368 54.4241V56.4597H37.7987V54.4241C37.7987 54.1173 37.6768 53.8231 37.4599 53.6062C37.243 53.3893 36.9488 53.2674 36.6421 53.2674H30.1881C29.8813 53.2674 29.5871 53.3893 29.3702 53.6062C29.1533 53.8231 29.0314 54.1173 29.0314 54.4241V56.4597H14.7933V54.4241C14.7933 54.1173 14.6714 53.8231 14.4545 53.6062C14.2376 53.3893 13.9434 53.2674 13.6367 53.2674H7.19424C6.88749 53.2674 6.59329 53.3893 6.37638 53.6062C6.15947 53.8231 6.03761 54.1173 6.03761 54.4241V56.4597H1.15663C0.849873 56.4597 0.55568 56.5816 0.338769 56.7985C0.121859 57.0154 0 57.3096 0 57.6164C0 57.9231 0.121859 58.2173 0.338769 58.4342C0.55568 58.6511 0.849873 58.773 1.15663 58.773H6.03761V60.8434C6.03761 61.1501 6.15947 61.4443 6.37638 61.6612C6.59329 61.8781 6.88749 62 7.19424 62H13.6367C13.9434 62 14.2376 61.8781 14.4545 61.6612C14.6714 61.4443 14.7933 61.1501 14.7933 60.8434V58.773H29.0314V60.8434C29.0314 61.1501 29.1533 61.4443 29.3702 61.6612C29.5871 61.8781 29.8813 62 30.1881 62H36.6421C36.9488 62 37.243 61.8781 37.4599 61.6612C37.6768 61.4443 37.7987 61.1501 37.7987 60.8434V58.773H52.0368V60.8434C52.0368 61.1501 52.1587 61.4443 52.3756 61.6612C52.5925 61.8781 52.8867 62 53.1934 62H59.6359C59.9426 62 60.2368 61.8781 60.4537 61.6612C60.6707 61.4443 60.7925 61.1501 60.7925 60.8434V58.773H66.5757C66.8824 58.773 67.1766 58.6511 67.3935 58.4342C67.6104 58.2173 67.7323 57.9231 67.7323 57.6164C67.7323 57.3096 67.6104 57.0154 67.3935 56.7985C67.1766 56.5816 66.8824 56.4597 66.5757 56.4597H66.5988ZM12.48 59.7214H8.35087V55.5807H12.48V59.7214ZM35.4854 59.7214H31.3447V55.5807H35.4854V59.7214ZM58.4792 59.7214H54.3501V55.5807H58.4792V59.7214ZM9.4728 50.0751C9.58088 50.1823 9.70905 50.2671 9.84997 50.3247C9.9909 50.3823 10.1418 50.4114 10.294 50.4106H10.3518C10.5148 50.4028 10.6743 50.3607 10.8198 50.2869C10.9653 50.2132 11.0936 50.1095 11.1962 49.9826L16.9793 42.7537C17.0748 42.6346 17.1457 42.4979 17.1881 42.3514C17.2304 42.2048 17.2434 42.0513 17.2262 41.8997C17.209 41.7481 17.162 41.6015 17.0879 41.4681C17.0137 41.3348 16.914 41.2174 16.7943 41.1228C16.5546 40.9337 16.2498 40.847 15.9465 40.8817C15.6432 40.9164 15.3658 41.0696 15.175 41.3079L10.213 47.5305L8.01545 45.3445C7.90793 45.2361 7.78 45.1501 7.63906 45.0913C7.49811 45.0326 7.34693 45.0024 7.19424 45.0024C7.04155 45.0024 6.89038 45.0326 6.74943 45.0913C6.60848 45.1501 6.48056 45.2361 6.37303 45.3445C6.15761 45.5612 6.0367 45.8544 6.0367 46.1599C6.0367 46.4655 6.15761 46.7587 6.37303 46.9754L9.4728 50.0751ZM38.5736 41.3079L33.6233 47.5305L31.4372 45.3445C31.216 45.155 30.9313 45.056 30.6402 45.0673C30.3491 45.0785 30.073 45.1992 29.867 45.4052C29.661 45.6112 29.5404 45.8873 29.5291 46.1784C29.5179 46.4695 29.6169 46.7541 29.8064 46.9754L32.9061 50.0751C33.1216 50.2888 33.4124 50.4093 33.7158 50.4106H33.7852C33.9481 50.4028 34.1076 50.3607 34.2531 50.2869C34.3987 50.2132 34.5269 50.1095 34.6295 49.9826L40.4127 42.7537C40.6044 42.5129 40.6926 42.2058 40.6579 41.8999C40.6232 41.5941 40.4684 41.3145 40.2276 41.1228C39.9868 40.9311 39.6797 40.8429 39.3739 40.8776C39.068 40.9123 38.7885 41.0671 38.5968 41.3079H38.5736Z" fill="url(#paint0_linear_1_1190)"/>
<defs>
<linearGradient id="paint0_linear_1_1190" x1="17.4395" y1="10.6503" x2="73.9441" y2="84.6697" gradientUnits="userSpaceOnUse">
<stop stop-color="#FE5B52"/>
<stop offset="1" stop-color="#3E96F4"/>
</linearGradient>
</defs>
</svg>
