<svg width="78" height="78" viewBox="0 0 78 78" fill="none" xmlns="http://www.w3.org/2000/svg">
<circle cx="36" cy="36" r="37.5" transform="matrix(1 0 0 -1 3 75)" fill="#3E96F4" stroke="white" stroke-width="3"/>
<g clip-path="url(#clip0_16_82)">
<path d="M17.6592 21.0718V18.3623C17.6592 18.1758 17.7333 17.997 17.8651 17.8651C17.997 17.7333 18.1758 17.6592 18.3623 17.6592H29.2607C29.4472 17.6592 29.6261 17.7333 29.7579 17.8651C29.8898 17.997 29.9639 18.1758 29.9639 18.3623V28.3818C29.9639 28.5683 29.8898 28.7472 29.7579 28.879C29.6261 29.0109 29.4472 29.085 29.2607 29.085H18.3623C18.1758 29.085 17.997 29.0109 17.8651 28.879C17.7333 28.7472 17.6592 28.5683 17.6592 28.3818V24.2113M20.7354 20.5596H24.251M20.7354 23.3721H26.8877M20.7354 26.1846H26.8877M36.4238 20.5596H39.9395M36.4238 23.3721H42.5762M36.4238 26.1846H42.5762M52.1123 20.5596H55.6279M52.1123 23.3721H58.2646M52.1123 26.1846H58.2646M37.7422 40.6079L39.5 41.9262L41.2578 40.6079M39.5 41.6564V32.7324M33.4299 40.6079L31.6721 41.9262L29.9143 40.6079M44.9492 29.085H34.0508C33.8643 29.085 33.6855 29.0109 33.5536 28.879C33.4217 28.7472 33.3477 28.5683 33.3477 28.3818V18.3623C33.3477 18.1758 33.4217 17.997 33.5536 17.8651C33.6855 17.7333 33.8643 17.6592 34.0508 17.6592H44.9492C45.1357 17.6592 45.3145 17.7333 45.4464 17.8651C45.5783 17.997 45.6523 18.1758 45.6523 18.3623V28.3818C45.6523 28.5683 45.5783 28.7472 45.4464 28.879C45.3145 29.0109 45.1357 29.085 44.9492 29.085ZM60.6377 29.085H49.7393C49.5528 29.085 49.3739 29.0109 49.2421 28.879C49.1102 28.7472 49.0361 28.5683 49.0361 28.3818V18.3623C49.0361 18.1758 49.1102 17.997 49.2421 17.8651C49.3739 17.7333 49.5528 17.6592 49.7393 17.6592H60.6377C60.8242 17.6592 61.003 17.7333 61.1349 17.8651C61.2667 17.997 61.3408 18.1758 61.3408 18.3623V28.3818C61.3408 28.5683 61.2667 28.7472 61.1349 28.879C61.003 29.0109 60.8242 29.085 60.6377 29.085Z" stroke="white" stroke-width="1.5" stroke-miterlimit="10" stroke-linecap="round" stroke-linejoin="round"/>
<path d="M31.6721 41.546C31.6721 41.546 32.1229 37.6104 28.5194 36.6436C25.9284 35.9484 24.5643 34.2705 24.1248 32.4248M45.5701 40.6079L47.3279 41.9262L49.0857 40.6079" stroke="white" stroke-width="1.5" stroke-miterlimit="10" stroke-linecap="round" stroke-linejoin="round"/>
<path d="M47.3279 41.546C47.3279 41.546 46.8771 37.6104 50.4806 36.6436C53.0716 35.9484 54.4357 34.2705 54.8751 32.4248M46.221 45.2568H49.8711C50.5992 45.2568 51.1895 45.8471 51.1895 46.5752C51.1895 47.3033 50.5992 47.8936 49.8711 47.8936H29.1289C28.4008 47.8936 27.8105 47.3033 27.8105 46.5752C27.8105 45.8471 28.4008 45.2568 29.1289 45.2568H43.0488M42.1375 53.8701H36.8625L30.623 47.8936H48.377L42.1375 53.8701ZM41.3499 61.3408H37.6501C37.4414 61.3408 37.2413 61.2579 37.0937 61.1104C36.9462 60.9628 36.8633 60.7627 36.8633 60.554V53.8701H42.1367V60.554C42.1367 60.7627 42.0538 60.9628 41.9063 61.1104C41.7587 61.2579 41.5586 61.3408 41.3499 61.3408Z" stroke="white" stroke-width="1.5" stroke-miterlimit="10" stroke-linecap="round" stroke-linejoin="round"/>
</g>
<defs>
<clipPath id="clip0_16_82">
<rect width="45" height="45" fill="white" transform="translate(17 17)"/>
</clipPath>
</defs>
</svg>
