<svg width="78" height="78" viewBox="0 0 78 78" fill="none" xmlns="http://www.w3.org/2000/svg">
<circle cx="36" cy="36" r="37.5" transform="matrix(1 0 0 -1 3 75)" fill="#3E96F4" stroke="white" stroke-width="3"/>
<path d="M33.8746 44.6137C33.5883 44.6137 33.3633 44.3887 33.3633 44.1023V20.5796C33.3633 20.2932 33.5883 20.0682 33.8746 20.0682H47.1701C47.4565 20.0682 47.6815 20.2932 47.6815 20.5796V24.6705C47.6815 24.9569 47.4565 25.1819 47.1701 25.1819C46.8837 25.1819 46.6587 24.9569 46.6587 24.6705V21.091H34.386V44.1023C34.386 44.3887 34.161 44.6137 33.8746 44.6137ZM43.0792 41.5455C42.7928 41.5455 42.5678 41.3205 42.5678 41.0341V38.9887C42.5678 38.7023 42.7928 38.4773 43.0792 38.4773C43.3655 38.4773 43.5905 38.7023 43.5905 38.9887V41.0341C43.5905 41.3205 43.3655 41.5455 43.0792 41.5455ZM40.011 41.5455C39.7246 41.5455 39.4996 41.3205 39.4996 41.0341V38.9887C39.4996 38.7023 39.7246 38.4773 40.011 38.4773C40.2974 38.4773 40.5224 38.7023 40.5224 38.9887V41.0341C40.5224 41.3205 40.2974 41.5455 40.011 41.5455Z" fill="white"/>
<path d="M36.945 41.5454C36.6586 41.5454 36.4336 41.3204 36.4336 41.0341V38.9886C36.4336 38.7023 36.6586 38.4773 36.945 38.4773C37.2313 38.4773 37.4563 38.7023 37.4563 38.9886V41.0341C37.4563 41.3204 37.2313 41.5454 36.945 41.5454ZM43.0813 36.4318C42.795 36.4318 42.57 36.2068 42.57 35.9204V33.875C42.57 33.5886 42.795 33.3636 43.0813 33.3636C43.3677 33.3636 43.5927 33.5886 43.5927 33.875V35.9204C43.5927 36.2068 43.3677 36.4318 43.0813 36.4318ZM40.0131 36.4318C39.7268 36.4318 39.5018 36.2068 39.5018 35.9204V33.875C39.5018 33.5886 39.7268 33.3636 40.0131 33.3636C40.2995 33.3636 40.5245 33.5886 40.5245 33.875V35.9204C40.5245 36.2068 40.2995 36.4318 40.0131 36.4318ZM36.945 36.4318C36.6586 36.4318 36.4336 36.2068 36.4336 35.9204V33.875C36.4336 33.5886 36.6586 33.3636 36.945 33.3636C37.2313 33.3636 37.4563 33.5886 37.4563 33.875V35.9204C37.4563 36.2068 37.2313 36.4318 36.945 36.4318ZM43.0813 31.3182C42.795 31.3182 42.57 31.0932 42.57 30.8068V28.7613C42.57 28.475 42.795 28.25 43.0813 28.25C43.3677 28.25 43.5927 28.475 43.5927 28.7613V30.8068C43.5927 31.0932 43.3677 31.3182 43.0813 31.3182ZM40.0131 31.3182C39.7268 31.3182 39.5018 31.0932 39.5018 30.8068V28.7613C39.5018 28.475 39.7268 28.25 40.0131 28.25C40.2995 28.25 40.5245 28.475 40.5245 28.7613V30.8068C40.5245 31.0932 40.2995 31.3182 40.0131 31.3182ZM36.945 31.3182C36.6586 31.3182 36.4336 31.0932 36.4336 30.8068V28.7613C36.4336 28.475 36.6586 28.25 36.945 28.25C37.2313 28.25 37.4563 28.475 37.4563 28.7613V30.8068C37.4563 31.0932 37.2313 31.3182 36.945 31.3182ZM43.0813 26.2045C42.795 26.2045 42.57 25.9795 42.57 25.6932V23.6477C42.57 23.3614 42.795 23.1364 43.0813 23.1364C43.3677 23.1364 43.5927 23.3614 43.5927 23.6477V25.6932C43.5927 25.9795 43.3677 26.2045 43.0813 26.2045ZM40.0131 26.2045C39.7268 26.2045 39.5018 25.9795 39.5018 25.6932V23.6477C39.5018 23.3614 39.7268 23.1364 40.0131 23.1364C40.2995 23.1364 40.5245 23.3614 40.5245 23.6477V25.6932C40.5245 25.9795 40.2995 26.2045 40.0131 26.2045ZM36.945 26.2045C36.6586 26.2045 36.4336 25.9795 36.4336 25.6932V23.6477C36.4336 23.3614 36.6586 23.1364 36.945 23.1364C37.2313 23.1364 37.4563 23.3614 37.4563 23.6477V25.6932C37.4563 25.9795 37.2313 26.2045 36.945 26.2045ZM56.3768 29.2727C56.0904 29.2727 55.8654 29.0477 55.8654 28.7613V24.8136L46.6609 27.1148V28.7613C46.6609 29.0477 46.4359 29.2727 46.1495 29.2727C45.8631 29.2727 45.6381 29.0477 45.6381 28.7613V26.7159C45.6381 26.4807 45.8018 26.2761 46.0268 26.225L56.254 23.6682C56.4074 23.6273 56.5711 23.6682 56.6938 23.7602C56.8165 23.8523 56.8881 24.0057 56.8881 24.1591V28.7613C56.8881 29.0477 56.6631 29.2727 56.3768 29.2727Z" fill="white"/>
<path d="M57.3974 44.6136C57.111 44.6136 56.886 44.3886 56.886 44.1023V29.2727H45.636V44.1023C45.636 44.3886 45.411 44.6136 45.1246 44.6136C44.8383 44.6136 44.6133 44.3886 44.6133 44.1023V28.7614C44.6133 28.475 44.8383 28.25 45.1246 28.25H57.3974C57.6837 28.25 57.9087 28.475 57.9087 28.7614V44.1023C57.9087 44.3886 57.6837 44.6136 57.3974 44.6136Z" fill="white"/>
<path d="M55.3526 44.6136H47.1708C46.8844 44.6136 46.6594 44.3886 46.6594 44.1022C46.6594 43.8158 46.8844 43.5908 47.1708 43.5908H55.3526C55.639 43.5908 55.864 43.8158 55.864 44.1022C55.864 44.3886 55.639 44.6136 55.3526 44.6136ZM55.3526 41.5454H47.1708C46.8844 41.5454 46.6594 41.3204 46.6594 41.034C46.6594 40.7477 46.8844 40.5227 47.1708 40.5227H55.3526C55.639 40.5227 55.864 40.7477 55.864 41.034C55.864 41.3204 55.639 41.5454 55.3526 41.5454ZM55.3526 38.4772H47.1708C46.8844 38.4772 46.6594 38.2522 46.6594 37.9658C46.6594 37.6795 46.8844 37.4545 47.1708 37.4545H55.3526C55.639 37.4545 55.864 37.6795 55.864 37.9658C55.864 38.2522 55.639 38.4772 55.3526 38.4772ZM55.3526 35.409H47.1708C46.8844 35.409 46.6594 35.184 46.6594 34.8977C46.6594 34.6113 46.8844 34.3863 47.1708 34.3863H55.3526C55.639 34.3863 55.864 34.6113 55.864 34.8977C55.864 35.184 55.639 35.409 55.3526 35.409ZM55.3526 32.3408H47.1708C46.8844 32.3408 46.6594 32.1158 46.6594 31.8295C46.6594 31.5431 46.8844 31.3181 47.1708 31.3181H55.3526C55.639 31.3181 55.864 31.5431 55.864 31.8295C55.864 32.1158 55.639 32.3408 55.3526 32.3408ZM33.8753 44.6136H23.6481C23.3617 44.6136 23.1367 44.3886 23.1367 44.1022V25.6931C23.1367 25.4068 23.3617 25.1818 23.6481 25.1818C23.9344 25.1818 24.1594 25.4068 24.1594 25.6931V43.5908H33.364V25.6931C33.364 25.4068 33.589 25.1818 33.8753 25.1818C34.1617 25.1818 34.3867 25.4068 34.3867 25.6931V44.1022C34.3867 44.3886 34.1617 44.6136 33.8753 44.6136Z" fill="white"/>
<path d="M33.8757 26.2046H23.6485C23.4439 26.2046 23.2598 26.0819 23.178 25.8876C23.0962 25.6932 23.1371 25.4785 23.2905 25.3353L28.4041 20.2216C28.6087 20.0171 28.9257 20.0171 29.1303 20.2216L34.2439 25.3353C34.3871 25.4785 34.4382 25.7035 34.3564 25.8876C34.2644 26.0819 34.0803 26.2046 33.8757 26.2046ZM24.886 25.1819H32.6485L28.7621 21.3057L24.886 25.1819ZM31.8303 44.6137H30.8076C30.5212 44.6137 30.2962 44.3887 30.2962 44.1023C30.2962 43.8159 30.5212 43.5909 30.8076 43.5909H31.8303C32.1166 43.5909 32.3416 43.8159 32.3416 44.1023C32.3416 44.3887 32.1166 44.6137 31.8303 44.6137ZM31.8303 41.5455H30.8076C30.5212 41.5455 30.2962 41.3205 30.2962 41.0341C30.2962 40.7478 30.5212 40.5228 30.8076 40.5228H31.8303C32.1166 40.5228 32.3416 40.7478 32.3416 41.0341C32.3416 41.3205 32.1166 41.5455 31.8303 41.5455ZM31.8303 38.4773H30.8076C30.5212 38.4773 30.2962 38.2523 30.2962 37.966C30.2962 37.6796 30.5212 37.4546 30.8076 37.4546H31.8303C32.1166 37.4546 32.3416 37.6796 32.3416 37.966C32.3416 38.2523 32.1166 38.4773 31.8303 38.4773ZM31.8303 35.4091H30.8076C30.5212 35.4091 30.2962 35.1841 30.2962 34.8978C30.2962 34.6114 30.5212 34.3864 30.8076 34.3864H31.8303C32.1166 34.3864 32.3416 34.6114 32.3416 34.8978C32.3416 35.1841 32.1166 35.4091 31.8303 35.4091ZM31.8303 32.341H30.8076C30.5212 32.341 30.2962 32.116 30.2962 31.8296C30.2962 31.5432 30.5212 31.3182 30.8076 31.3182H31.8303C32.1166 31.3182 32.3416 31.5432 32.3416 31.8296C32.3416 32.116 32.1166 32.341 31.8303 32.341ZM31.8303 29.2728H30.8076C30.5212 29.2728 30.2962 29.0478 30.2962 28.7614C30.2962 28.475 30.5212 28.25 30.8076 28.25H31.8303C32.1166 28.25 32.3416 28.475 32.3416 28.7614C32.3416 29.0478 32.1166 29.2728 31.8303 29.2728ZM26.7166 44.6137H25.6939C25.4076 44.6137 25.1826 44.3887 25.1826 44.1023C25.1826 43.8159 25.4076 43.5909 25.6939 43.5909H26.7166C27.003 43.5909 27.228 43.8159 27.228 44.1023C27.228 44.3887 27.003 44.6137 26.7166 44.6137ZM26.7166 41.5455H25.6939C25.4076 41.5455 25.1826 41.3205 25.1826 41.0341C25.1826 40.7478 25.4076 40.5228 25.6939 40.5228H26.7166C27.003 40.5228 27.228 40.7478 27.228 41.0341C27.228 41.3205 27.003 41.5455 26.7166 41.5455ZM26.7166 38.4773H25.6939C25.4076 38.4773 25.1826 38.2523 25.1826 37.966C25.1826 37.6796 25.4076 37.4546 25.6939 37.4546H26.7166C27.003 37.4546 27.228 37.6796 27.228 37.966C27.228 38.2523 27.003 38.4773 26.7166 38.4773ZM26.7166 35.4091H25.6939C25.4076 35.4091 25.1826 35.1841 25.1826 34.8978C25.1826 34.6114 25.4076 34.3864 25.6939 34.3864H26.7166C27.003 34.3864 27.228 34.6114 27.228 34.8978C27.228 35.1841 27.003 35.4091 26.7166 35.4091ZM26.7166 32.341H25.6939C25.4076 32.341 25.1826 32.116 25.1826 31.8296C25.1826 31.5432 25.4076 31.3182 25.6939 31.3182H26.7166C27.003 31.3182 27.228 31.5432 27.228 31.8296C27.228 32.116 27.003 32.341 26.7166 32.341ZM26.7166 29.2728H25.6939C25.4076 29.2728 25.1826 29.0478 25.1826 28.7614C25.1826 28.475 25.4076 28.25 25.6939 28.25H26.7166C27.003 28.25 27.228 28.475 27.228 28.7614C27.228 29.0478 27.003 29.2728 26.7166 29.2728Z" fill="white"/>
<path d="M59.4439 47.6818H20.5803C19.9021 47.6818 19.2518 47.4125 18.7723 46.933C18.2928 46.4535 18.0234 45.8031 18.0234 45.125V44.1023C18.0234 43.8159 18.2484 43.5909 18.5348 43.5909H61.4893C61.7757 43.5909 62.0007 43.8159 62.0007 44.1023V45.125C62.0007 45.8031 61.7313 46.4535 61.2518 46.933C60.7723 47.4125 60.122 47.6818 59.4439 47.6818ZM19.0462 44.6137V45.125C19.0462 45.9739 19.7314 46.6591 20.5803 46.6591H59.4439C60.2927 46.6591 60.978 45.9739 60.978 45.125V44.6137H19.0462Z" fill="white"/>
<path d="M45.4938 50.6272C45.2688 50.6272 45.0642 50.4738 45.0029 50.2488C44.5631 48.5716 42.9267 47.6818 40.2676 47.6818H27.8313C25.4688 47.6818 23.1983 48.6943 21.6233 50.4534C21.4393 50.6681 21.112 50.6784 20.8972 50.4943C20.6824 50.3102 20.6722 49.9829 20.8563 49.7681C21.7367 48.7908 22.8124 48.009 24.0139 47.4735C25.2154 46.9379 26.5159 46.6605 27.8313 46.6591H40.2779C44.287 46.6591 45.6063 48.4693 46.0051 49.9829C46.0767 50.2591 45.9131 50.5352 45.637 50.6068C45.5858 50.6272 45.5449 50.6272 45.4938 50.6272Z" fill="white"/>
<path d="M29.8745 58.3489C29.7567 58.3475 29.643 58.3053 29.5529 58.2296C29.4627 58.1539 29.4015 58.0492 29.3798 57.9334C29.3581 57.8177 29.3772 57.698 29.4338 57.5947C29.4904 57.4914 29.5811 57.411 29.6904 57.367C30.4574 57.0602 31.2449 56.8864 31.879 56.8864H39.0483C40.429 56.8864 42.6381 56.5795 43.9676 56.2011L50.2165 54.4318C50.4108 54.3807 50.5949 54.2989 50.7688 54.1966L58.9506 50.1159C58.9506 50.0955 59.0017 49.6864 58.6642 49.1443C58.3881 48.7046 57.2733 47.3443 54.4915 48.4182C53.0801 48.9705 50.104 49.9011 48.5085 50.4023C47.9665 50.5761 47.5983 50.6886 47.5165 50.7193C47.2506 50.8216 46.954 50.6886 46.8619 50.4227C46.7597 50.1568 46.8926 49.8705 47.1585 49.7682C47.2301 49.7375 47.629 49.6148 48.2017 49.4307C49.7869 48.9296 52.7426 48.0091 54.1233 47.4671C57.0585 46.3318 58.9301 47.4671 59.6358 48.7864C60.1165 49.6864 60.0449 50.5966 59.4722 50.9955L51.2494 55.1068C51.0244 55.2295 50.7688 55.342 50.4926 55.4136L44.2438 57.183C42.8426 57.5818 40.5108 57.9091 39.0483 57.9091H31.879C31.3676 57.9091 30.7131 58.0625 30.0688 58.3182C30.0074 58.3386 29.9358 58.3489 29.8745 58.3489Z" fill="white"/>
<path d="M45.6363 51.7727H35.9204C35.6341 51.7727 35.4091 51.5477 35.4091 51.2613C35.4091 50.975 35.6341 50.75 35.9204 50.75H45.1045C45.0534 50.3409 44.9307 49.7784 44.5523 49.2568C43.7954 48.2136 42.3636 47.6818 40.267 47.6818H35.6034C35.317 47.6818 35.092 47.4568 35.092 47.1704C35.092 46.8841 35.317 46.6591 35.6034 46.6591H40.267C42.7011 46.6591 44.4295 47.3341 45.3807 48.6636C46.1477 49.7375 46.1477 50.8829 46.1477 51.2613C46.1477 51.5477 45.9227 51.7727 45.6363 51.7727ZM27.7386 62C27.6716 62.0008 27.6051 61.9876 27.5434 61.9611C27.4818 61.9347 27.4263 61.8957 27.3807 61.8465C27.1761 61.642 27.1761 61.325 27.3807 61.1204C27.892 60.6091 28.0557 60.2716 28.0557 60.2716C28.0761 60.2204 28.117 60.1693 28.1579 60.1284L20.0068 51.9772C20.0068 51.9772 18.933 53.1125 17.8795 54.1659C17.675 54.3704 17.358 54.3704 17.1534 54.1659C16.9489 53.9613 16.9489 53.6443 17.1534 53.4397C18.2068 52.3863 19.2705 51.2613 19.2705 51.2613C19.6795 50.8522 20.3239 50.8522 20.7227 51.2511L28.8739 59.4022C29.0549 59.583 29.1617 59.825 29.173 60.0806C29.1844 60.3362 29.0995 60.5868 28.9352 60.7829C28.8432 60.9466 28.6079 61.3352 28.0966 61.8465C28.0509 61.8957 27.9955 61.9347 27.9338 61.9611C27.8722 61.9876 27.8057 62.0008 27.7386 62ZM45.125 21.0909C44.8386 21.0909 44.6136 20.8659 44.6136 20.5795V18.0227H36.4318V20.5795C36.4318 20.8659 36.2068 21.0909 35.9204 21.0909C35.6341 21.0909 35.4091 20.8659 35.4091 20.5795V17.5114C35.4091 17.225 35.6341 17 35.9204 17H45.125C45.4113 17 45.6363 17.225 45.6363 17.5114V20.5795C45.6363 20.8659 45.4113 21.0909 45.125 21.0909Z" fill="white"/>
</svg>
