<svg width="22" height="16" viewBox="0 0 22 16" fill="none" xmlns="http://www.w3.org/2000/svg">
<path d="M19.4362 4.83221L17.9329 6.44295C18.7919 7.30201 19.3289 8.37584 19.3289 9.55705C19.3289 11.9195 17.396 13.8523 15.0336 13.8523H6.44295C4.08054 13.8523 2.14765 11.9195 2.14765 9.55705C2.14765 7.19463 4.08054 5.26174 6.44295 5.26174H13.1007L11.4899 6.87248L12.9933 8.37584L17.1812 4.18792L12.9933 0L11.4899 1.50336L13.1007 3.11409H6.44295C2.89933 3.11409 0 6.01342 0 9.55705C0 13.1007 2.89933 16 6.44295 16H15.0336C18.5772 16 21.4765 13.1007 21.4765 9.55705C21.4765 7.73154 20.7248 6.01342 19.4362 4.83221Z" fill="#93999C"/>
<path d="M7.51678 9.66443C7.51678 10.2575 7.03601 10.7383 6.44295 10.7383C5.8499 10.7383 5.36913 10.2575 5.36913 9.66443C5.36913 9.07137 5.8499 8.5906 6.44295 8.5906C7.03601 8.5906 7.51678 9.07137 7.51678 9.66443Z" fill="#93999C"/>
<path d="M11.8121 9.66443C11.8121 10.2575 11.3313 10.7383 10.7383 10.7383C10.1452 10.7383 9.66443 10.2575 9.66443 9.66443C9.66443 9.07137 10.1452 8.5906 10.7383 8.5906C11.3313 8.5906 11.8121 9.07137 11.8121 9.66443Z" fill="#93999C"/>
<path d="M16.1074 9.66443C16.1074 10.2575 15.6266 10.7383 15.0336 10.7383C14.4405 10.7383 13.9597 10.2575 13.9597 9.66443C13.9597 9.07137 14.4405 8.5906 15.0336 8.5906C15.6266 8.5906 16.1074 9.07137 16.1074 9.66443Z" fill="#93999C"/>
</svg>
