<svg width="36" height="36" viewBox="0 0 36 36" fill="none" xmlns="http://www.w3.org/2000/svg">
<path fill-rule="evenodd" clip-rule="evenodd" d="M28.3083 4.46677C28.515 4.17326 28.4446 3.76776 28.1511 3.56107C25.2797 1.53905 21.7776 0.351562 18 0.351562C15.6583 0.351562 13.4215 0.807974 11.3751 1.63724C11.0424 1.77206 10.882 2.15107 11.0168 2.48378C11.1516 2.81648 11.5306 2.9769 11.8633 2.84208C13.7573 2.07459 15.8284 1.65156 18 1.65156C21.501 1.65156 24.7432 2.75119 27.4026 4.62397C27.6961 4.83066 28.1016 4.76028 28.3083 4.46677ZM31.2439 27.5911C33.1981 24.8973 34.35 21.5847 34.35 18.0014C34.35 14.623 33.326 11.4857 31.5716 8.88052C31.3711 8.58276 31.4499 8.17882 31.7477 7.9783C32.0454 7.77778 32.4494 7.8566 32.6499 8.15436C34.5443 10.9674 35.65 14.3563 35.65 18.0014C35.65 21.8991 34.3859 25.5032 32.2456 28.4238C32.5511 28.8483 32.731 29.3691 32.731 29.932C32.731 31.3597 31.5737 32.517 30.146 32.517C28.7184 32.517 27.5611 31.3597 27.5611 29.932C27.5611 28.5044 28.7184 27.3471 30.146 27.3471C30.5386 27.3471 30.9107 27.4346 31.2439 27.5911ZM1.65001 18.0015C1.65001 27.0314 8.97015 34.3515 18 34.3515C20.1716 34.3515 22.2427 33.9286 24.1367 33.1611C24.4694 33.0262 24.8484 33.1867 24.9832 33.5194C25.118 33.8521 24.9576 34.2311 24.6249 34.3659C22.5784 35.1952 20.3417 35.6515 18 35.6515C8.25218 35.6515 0.350006 27.7493 0.350006 18.0015C0.350006 14.1038 1.61411 10.4997 3.75447 7.57903C3.44897 7.15453 3.26903 6.63363 3.26903 6.0707C3.26903 4.64307 4.42635 3.48574 5.85399 3.48574C7.28162 3.48574 8.43895 4.64307 8.43895 6.0707C8.43895 7.49834 7.28162 8.65566 5.85399 8.65566C5.46149 8.65566 5.08943 8.56818 4.75623 8.41166C2.80199 11.1055 1.65001 14.4182 1.65001 18.0015ZM12.6051 14.9716C11.9728 14.9803 11.463 15.4956 11.463 16.1298V25.2286C11.463 25.8683 11.9816 26.3869 12.6214 26.3869H23.3787C24.0184 26.3869 24.537 25.8683 24.537 25.2286V16.1298C24.537 15.4955 24.0272 14.9803 23.395 14.9716H20.8317L20.8195 14.9715H15.1806L15.1683 14.9716H12.6051ZM20.1817 13.6715V12.4121C20.1817 11.2098 19.2024 10.2305 18 10.2305C16.7976 10.2305 15.8183 11.2098 15.8183 12.4121V13.6715H20.1817ZM23.0133 13.6715H21.4817V12.4121C21.4817 10.4917 19.9203 8.93052 18 8.93052C16.0797 8.93052 14.5183 10.4917 14.5183 12.4121V13.6715H12.9867V12.4121C12.9867 9.64836 15.2362 7.39884 18 7.39884C20.7638 7.39884 23.0133 9.64836 23.0133 12.4121V13.6715ZM24.3133 13.8554V12.4121C24.3133 8.93039 21.4817 6.09884 18 6.09884C14.5183 6.09884 11.6867 8.93039 11.6867 12.4121V13.8554C10.7926 14.2232 10.163 15.103 10.163 16.1298V25.2286C10.163 26.5863 11.2637 27.6869 12.6214 27.6869H23.3787C24.7364 27.6869 25.837 26.5862 25.837 25.2286V16.1298C25.837 15.103 25.2075 14.2232 24.3133 13.8554ZM30 6.9999C30.5523 6.9999 31 6.55218 31 5.9999C31 5.44761 30.5523 4.9999 30 4.9999C29.4477 4.9999 29 5.44761 29 5.9999C29 6.55218 29.4477 6.9999 30 6.9999ZM18.0001 23.5522C17.5957 23.5522 17.268 23.2244 17.268 22.8201V20.4943C17.268 20.3218 17.1994 20.1564 17.0774 20.0345C16.8403 19.7976 16.6949 19.4721 16.6949 19.1114C16.6949 18.3906 17.2792 17.8062 18.0001 17.8062C18.7209 17.8062 19.3052 18.3906 19.3052 19.1114C19.3052 19.4721 19.1597 19.7976 18.9227 20.0345C18.8007 20.1564 18.7322 20.3218 18.7322 20.4943V22.8201C18.7322 23.2244 18.4044 23.5522 18.0001 23.5522ZM15.968 22.8201C15.968 23.9424 16.8777 24.8522 18.0001 24.8522C19.1223 24.8522 20.0322 23.9424 20.0322 22.8201V20.7416C20.3903 20.2956 20.6052 19.7282 20.6052 19.1114C20.6052 17.6726 19.4388 16.5062 18.0001 16.5062C16.5613 16.5062 15.3949 17.6726 15.3949 19.1114C15.3949 19.7282 15.6098 20.2956 15.968 20.7416V22.8201ZM5.85399 7.35566C5.14432 7.35566 4.56903 6.78037 4.56903 6.0707C4.56903 5.36104 5.14432 4.78574 5.85399 4.78574C6.56365 4.78574 7.13895 5.36104 7.13895 6.0707C7.13895 6.78037 6.56365 7.35566 5.85399 7.35566ZM28.8611 29.932C28.8611 30.6417 29.4364 31.217 30.146 31.217C30.8557 31.217 31.431 30.6417 31.431 29.932C31.431 29.2224 30.8557 28.6471 30.146 28.6471C29.4364 28.6471 28.8611 29.2224 28.8611 29.932Z" fill="url(#paint0_linear_1_257)"/>
<defs>
<linearGradient id="paint0_linear_1_257" x1="4.97151" y1="4.8533" x2="35.6202" y2="32.6587" gradientUnits="userSpaceOnUse">
<stop stop-color="#3FB72B"/>
<stop offset="1" stop-color="#31393C"/>
</linearGradient>
</defs>
</svg>
