<svg width="376" height="372" viewBox="0 0 376 372" fill="none" xmlns="http://www.w3.org/2000/svg">
<path d="M55.2567 314.815V286.286C60.8733 286.284 66.3656 287.94 71.0456 291.045C75.7255 294.151 79.3849 298.569 81.5654 303.745C83.7458 308.921 84.3504 314.625 83.3033 320.144C82.2562 325.662 79.6041 330.748 75.6791 334.766C71.7541 338.783 66.7308 341.554 61.2386 342.729C55.7463 343.904 50.0293 343.433 44.8038 341.374C39.5782 339.315 35.0765 335.759 31.8626 331.153C28.6486 326.547 26.8654 321.095 26.7363 315.479L55.2567 314.815Z" fill="#E0E0E0"/>
<path d="M48.305 307.122L19.7676 307.769C19.7661 300.144 22.6549 292.802 27.8518 287.222C33.1694 281.889 40.3332 278.803 47.862 278.602L48.305 307.122Z" fill="#F5F5F5"/>
<path d="M353.987 37.0559L375.378 33.7932C376.059 38.2601 375.324 42.8281 373.276 46.8559C371.228 50.8837 367.971 54.169 363.96 56.2506C359.95 58.3322 355.388 59.1055 350.916 58.4619C346.443 57.8184 342.285 55.7903 339.024 52.6624C335.763 49.5345 333.564 45.4639 332.734 41.0221C331.905 36.5804 332.488 31.9905 334.401 27.8969C336.314 23.8033 339.461 20.4116 343.4 18.1981C347.339 15.9845 351.873 15.0601 356.364 15.5549L353.987 37.0559Z" fill="#F5F5F5"/>
<path d="M360.93 15.623L358.332 32.2003L374.611 29.1421C374.611 29.1421 372.217 19.8568 360.93 15.623Z" fill="#E0E0E0"/>
<path d="M37.8182 24.9941H25.9688V72.3236H37.8182V24.9941Z" fill="#E0E0E0"/>
<path d="M55.24 35.3184H43.3906V72.3233H55.24V35.3184Z" fill="#E0E0E0"/>
<path d="M72.9314 43.7686H61.082V72.323H72.9314V43.7686Z" fill="#E0E0E0"/>
<path d="M89.3143 55.3623H77.4648V72.3144H89.3143V55.3623Z" fill="#E0E0E0"/>
<path d="M230.996 197.41C230.938 192.205 232.423 187.099 235.263 182.737C238.104 178.375 242.173 174.952 246.957 172.901C251.741 170.849 257.026 170.26 262.144 171.209C267.263 172.158 271.985 174.601 275.716 178.231C279.447 181.861 282.019 186.515 283.108 191.606C284.196 196.696 283.753 201.995 281.833 206.833C279.913 211.672 276.603 215.833 272.32 218.792C268.038 221.752 262.975 223.376 257.77 223.46C250.768 223.547 244.017 220.853 238.998 215.97C233.979 211.087 231.101 204.412 230.996 197.41ZM269.943 196.78C269.89 194.291 269.102 191.874 267.677 189.833C266.252 187.792 264.255 186.219 261.937 185.312C259.618 184.406 257.084 184.206 254.652 184.738C252.221 185.271 250.001 186.511 248.274 188.304C246.547 190.096 245.389 192.36 244.948 194.809C244.506 197.259 244.8 199.785 245.792 202.068C246.784 204.35 248.43 206.288 250.522 207.636C252.615 208.985 255.06 209.683 257.548 209.643C259.207 209.613 260.844 209.257 262.364 208.594C263.885 207.931 265.26 206.975 266.412 205.78C267.563 204.586 268.467 203.176 269.073 201.632C269.679 200.087 269.975 198.439 269.943 196.78Z" fill="#F5F5F5"/>
<path d="M230.996 197.411C230.877 190.409 233.541 183.645 238.402 178.604C243.263 173.562 249.925 170.654 256.927 170.518L257.148 184.335C253.838 184.455 250.707 185.868 248.427 188.271C246.147 190.673 244.899 193.874 244.952 197.185C245.004 200.497 246.352 203.656 248.707 205.986C251.062 208.315 254.236 209.628 257.549 209.644L257.77 223.461C254.301 223.509 250.857 222.874 247.634 221.591C244.411 220.308 241.472 218.402 238.986 215.983C236.5 213.564 234.514 210.679 233.143 207.492C231.772 204.305 231.043 200.88 230.996 197.411Z" fill="#E0E0E0"/>
<path d="M254.559 168.396C258.562 168.301 262.544 169.005 266.271 170.468C269.999 171.931 273.397 174.123 276.267 176.915C279.138 179.707 281.422 183.044 282.986 186.73C284.551 190.416 285.364 194.377 285.379 198.382L269.296 198.646C269.16 190.485 262.949 185.34 254.814 185.468L254.559 168.396Z" fill="#EBEBEB"/>
<path d="M372.182 371.736C372.182 371.864 292.89 371.958 195.088 371.958C97.2857 371.958 17.9688 371.864 17.9688 371.736C17.9688 371.608 97.2516 371.515 195.088 371.515C292.925 371.515 372.182 371.617 372.182 371.736Z" fill="#303436"/>
<path d="M3.97266 257.807L4.3134 257.543L5.35267 256.768L9.37347 253.804L24.5537 242.729L77.2073 204.523L77.1306 204.762C72.5597 191.973 70.2199 178.493 70.2135 164.912C70.2101 160.43 70.449 155.951 70.9291 151.495C71.4268 147.174 72.1547 142.883 73.1098 138.64C74.8958 130.606 77.5463 122.789 81.0151 115.325C90.9813 94.078 107.022 76.262 127.109 64.1279L130.943 61.9301C132.059 61.2997 133.038 60.8397 133.814 60.4393L135.585 59.5875C135.986 59.383 136.199 59.2979 136.199 59.2979C136.199 59.2979 136.003 59.4171 135.602 59.6301L133.899 60.5586C133.132 60.976 132.152 61.4105 131.045 62.0834L127.246 64.3153C107.293 76.5401 91.3639 94.3496 81.4325 115.538C77.9833 122.978 75.3499 130.77 73.5784 138.777C72.6261 142.994 71.9037 147.259 71.4146 151.555C70.9346 155.994 70.6957 160.455 70.6991 164.92C70.6897 178.445 72.9976 191.872 77.5225 204.617L77.5736 204.77L77.4458 204.864L24.707 242.942L9.45865 253.914C7.67826 255.175 6.31528 256.155 5.37823 256.828L4.32192 257.569L3.97266 257.807Z" fill="#429EFF"/>
<path d="M101.92 35.4541C101.92 35.4541 101.758 35.5478 101.435 35.7097L100.003 36.4082L97.6778 37.5412C96.7493 37.9841 95.7355 38.5975 94.56 39.2449C87.996 42.9016 81.8369 47.2418 76.1853 52.1932C72.2909 55.6177 68.6257 59.2943 65.2133 63.1993C61.3268 67.6898 57.7547 72.4432 54.5224 77.4254C47.1433 88.919 41.5188 101.448 37.8344 114.601C34.1401 127.746 31.9594 141.27 31.3347 154.911C30.75 166.031 31.0062 177.18 32.1014 188.261C32.8079 195.77 34.2604 203.189 36.4374 210.41C37.2296 212.965 37.9537 214.891 38.4563 216.194L39.0441 217.676L39.2315 218.187C39.2315 218.187 39.1463 218.025 39.0015 217.693L38.337 216.185C37.8089 214.89 37.0592 212.957 36.2414 210.418C33.9959 203.228 32.4917 195.826 31.7521 188.329C30.6 177.223 30.301 166.045 30.8577 154.894C31.4548 141.218 33.6301 127.658 37.3403 114.481C41.038 101.289 46.6888 88.724 54.105 77.2039C57.3709 72.2061 60.9801 67.4412 64.9066 62.9437C68.3482 59.0319 72.0479 55.355 75.9808 51.9376C81.6664 46.9953 87.87 42.6825 94.4833 39.0745C95.6589 38.4527 96.6811 37.8564 97.6181 37.4304L99.9693 36.3315L101.417 35.6671L101.92 35.4541Z" fill="#429EFF"/>
<path d="M129.547 0C129.547 0 129.589 0.0425932 129.657 0.144817L129.956 0.579267L131.063 2.28299L135.195 8.80826C138.721 14.4476 143.713 22.4381 149.566 31.7489L149.335 31.6637C157.36 29.466 165.551 27.9276 173.827 27.0637C181.901 26.208 190.03 25.9887 198.139 26.4077C204.76 26.7617 211.351 27.5528 217.868 28.7759L219.904 29.1507L221.821 29.5682L225.339 30.3519C227.511 30.9226 229.385 31.3741 230.91 31.8086L234.394 32.8649L235.297 33.1545C235.4 33.1796 235.5 33.2168 235.595 33.2652C235.488 33.2514 235.383 33.2286 235.28 33.1971L234.368 32.9501L230.859 31.9789C229.334 31.57 227.451 31.1271 225.279 30.5904L221.761 29.8152L219.844 29.4148L217.808 29.057C211.302 27.8741 204.726 27.1144 198.122 26.7826C190.032 26.3786 181.924 26.6036 173.869 27.4555C165.619 28.3122 157.452 29.8335 149.446 32.0045H149.293L149.216 31.8767C143.415 22.5062 138.483 14.5072 134.982 8.87641C133.278 6.06526 131.898 3.83338 130.952 2.28299L129.896 0.528156L129.632 0.068149C129.603 0.0463763 129.574 0.0236476 129.547 0Z" fill="#429EFF"/>
<path d="M345.81 114.065C345.767 113.991 345.735 113.91 345.716 113.826L345.486 113.102C345.282 112.438 345.001 111.518 344.635 110.334C344.268 109.15 343.859 107.65 343.255 105.972L342.334 103.263C342.164 102.786 342.002 102.292 341.823 101.79L341.227 100.256C340.375 98.1691 339.523 95.8606 338.433 93.4413C337.879 92.2401 337.368 90.9709 336.729 89.7101L334.787 85.8597C331.791 80.1595 328.398 74.677 324.633 69.4528C320.809 64.2701 316.643 59.3495 312.162 54.7241C311.114 53.6678 310.092 52.6456 309.103 51.6404C308.115 50.6352 307.076 49.7492 306.113 48.8462C304.205 47.0147 302.305 45.4388 300.61 43.9821L299.358 42.9088L298.157 41.9376L295.925 40.1487C294.545 39.0157 293.301 38.1128 292.296 37.3546L289.988 35.6509L289.391 35.1909L289.195 35.0205C289.195 35.0205 289.28 35.0205 289.417 35.1483L290.039 35.5827L292.398 37.2865C293.421 38.0191 294.681 38.905 296.078 40.0209L298.336 41.7417L299.571 42.7043L300.823 43.7691C302.527 45.2258 304.461 46.7762 306.377 48.5992C307.348 49.5022 308.379 50.4052 309.393 51.3848L312.468 54.46C316.981 59.0848 321.171 64.0145 325.008 69.2143C328.788 74.455 332.182 79.9641 335.162 85.6978L337.104 89.5994C337.726 90.8601 338.237 92.155 338.808 93.339C339.924 95.7498 340.75 98.0669 341.559 100.154C341.764 100.682 341.96 101.193 342.147 101.696C342.335 102.198 342.479 102.701 342.641 103.178C342.956 104.141 343.255 105.052 343.536 105.895C344.123 107.599 344.515 109.081 344.847 110.291C345.18 111.501 345.427 112.421 345.606 113.094C345.682 113.392 345.742 113.63 345.793 113.818L345.81 114.065Z" fill="#429EFF"/>
<path d="M313.805 350.525C313.805 350.525 313.754 350.448 313.669 350.286L313.311 349.57C312.987 348.914 312.536 347.977 311.948 346.768C310.756 344.289 309.043 340.711 306.897 336.222C302.595 327.183 296.555 314.465 289.536 299.685L289.459 299.532L289.604 299.421C296.172 294.449 302.359 288.993 308.115 283.1C309.12 282.12 310.057 281.098 310.986 280.075L313.771 277.043L316.395 273.959C317.247 272.928 318.099 271.932 318.95 270.884C320.56 268.797 322.205 266.786 323.653 264.708L325.851 261.65C326.549 260.627 327.214 259.597 327.887 258.591C332.627 251.434 336.808 243.921 340.392 236.119C341.959 232.806 343.169 229.713 344.268 227.021C345.367 224.33 346.142 221.91 346.823 220.002C347.505 218.094 347.931 216.552 348.263 215.504C348.433 215.01 348.561 214.652 348.655 214.337C348.696 214.204 348.744 214.073 348.8 213.945C348.8 213.945 348.8 214.082 348.698 214.354C348.595 214.627 348.502 215.027 348.348 215.53C348.033 216.586 347.573 218.085 346.985 220.053C346.397 222.021 345.503 224.372 344.498 227.107C343.493 229.841 342.223 232.925 340.673 236.247C337.116 244.085 332.952 251.633 328.219 258.821C327.546 259.827 326.89 260.866 326.183 261.888L323.985 264.955C322.537 267.05 320.893 269.061 319.274 271.148C318.482 272.204 317.57 273.209 316.719 274.24C315.867 275.271 314.972 276.293 314.095 277.341L311.301 280.374C310.372 281.396 309.435 282.427 308.43 283.406C302.653 289.317 296.44 294.784 289.842 299.762L289.91 299.506L307.127 336.137L312.067 346.708C312.63 347.935 313.073 348.88 313.371 349.545L313.703 350.286L313.805 350.525Z" fill="#429EFF"/>
<g opacity="0.8">
<path d="M3.97266 257.807L4.3134 257.543L5.35267 256.768L9.37347 253.804L24.5537 242.729L77.2073 204.523L77.1306 204.762C72.5597 191.973 70.2199 178.493 70.2135 164.912C70.2101 160.43 70.449 155.951 70.9291 151.495C71.4268 147.174 72.1547 142.883 73.1098 138.64C74.8958 130.606 77.5463 122.789 81.0151 115.325C90.9813 94.078 107.022 76.262 127.109 64.1279L130.943 61.9301C132.059 61.2997 133.038 60.8397 133.814 60.4393L135.585 59.5875C135.986 59.383 136.199 59.2979 136.199 59.2979C136.199 59.2979 136.003 59.4171 135.602 59.6301L133.899 60.5586C133.132 60.976 132.152 61.4105 131.045 62.0834L127.246 64.3153C107.293 76.5401 91.3639 94.3496 81.4325 115.538C77.9833 122.978 75.3499 130.77 73.5784 138.777C72.6261 142.994 71.9037 147.259 71.4146 151.555C70.9346 155.994 70.6957 160.455 70.6991 164.92C70.6897 178.445 72.9976 191.872 77.5225 204.617L77.5736 204.77L77.4458 204.864L24.707 242.942L9.45865 253.914C7.67826 255.175 6.31528 256.155 5.37823 256.828L4.32192 257.569L3.97266 257.807Z" fill="white"/>
<path d="M101.92 35.4541C101.92 35.4541 101.758 35.5478 101.434 35.7097L100.003 36.4082L97.6776 37.5412C96.749 37.9841 95.7353 38.5975 94.5597 39.2449C87.9958 42.9016 81.8367 47.2418 76.1851 52.1932C72.2907 55.6177 68.6254 59.2943 65.2131 63.1993C61.3266 67.6898 57.7545 72.4432 54.5222 77.4254C47.1431 88.919 41.5186 101.448 37.8342 114.601C34.1399 127.746 31.9592 141.27 31.3345 154.911C30.7497 166.031 31.006 177.18 32.1012 188.261C32.8077 195.77 34.2602 203.189 36.4371 210.41C37.2294 212.965 37.9535 214.891 38.4561 216.194L39.0438 217.676L39.2313 218.187C39.2313 218.187 39.1461 218.025 39.0012 217.693L38.3368 216.185C37.8086 214.89 37.059 212.957 36.2412 210.418C33.9957 203.228 32.4915 195.826 31.7519 188.329C30.5998 177.223 30.3007 166.045 30.8574 154.894C31.4546 141.218 33.6299 127.658 37.3401 114.481C41.0378 101.289 46.6885 88.724 54.1048 77.2039C57.3707 72.2061 60.9799 67.4412 64.9064 62.9437C68.348 59.0319 72.0477 55.355 75.9806 51.9376C81.6662 46.9953 87.8698 42.6825 94.4831 39.0745C95.6587 38.4527 96.6809 37.8564 97.6179 37.4304L99.9691 36.3315L101.417 35.6671L101.92 35.4541Z" fill="white"/>
<path d="M129.545 0C129.545 0 129.588 0.0425932 129.656 0.144817L129.954 0.579267L131.061 2.28299L135.193 8.80826C138.719 14.4476 143.711 22.4381 149.564 31.7489L149.334 31.6637C157.358 29.466 165.549 27.9276 173.825 27.0637C181.899 26.208 190.028 25.9887 198.137 26.4077C204.758 26.7617 211.349 27.5528 217.866 28.7759L219.902 29.1507L221.819 29.5682L225.337 30.3519C227.509 30.9226 229.383 31.3741 230.908 31.8086L234.392 32.8649L235.295 33.1545C235.399 33.1796 235.499 33.2168 235.593 33.2652C235.487 33.2514 235.381 33.2286 235.278 33.1971L234.367 32.9501L230.857 31.9789C229.332 31.57 227.45 31.1271 225.277 30.5904L221.759 29.8152L219.842 29.4148L217.806 29.057C211.3 27.8741 204.724 27.1144 198.12 26.7826C190.03 26.3786 181.922 26.6036 173.867 27.4555C165.617 28.3122 157.45 29.8335 149.444 32.0045H149.291L149.214 31.8767C143.413 22.5062 138.481 14.5072 134.98 8.87641C133.276 6.06526 131.896 3.83338 130.95 2.28299L129.894 0.528156L129.63 0.068149C129.601 0.0463763 129.573 0.0236476 129.545 0Z" fill="white"/>
<path d="M345.808 114.065C345.765 113.991 345.733 113.91 345.714 113.826L345.484 113.102C345.28 112.438 344.999 111.518 344.633 110.334C344.266 109.15 343.857 107.65 343.253 105.972L342.333 103.263C342.162 102.786 342 102.292 341.821 101.79L341.225 100.256C340.373 98.1691 339.521 95.8606 338.431 93.4413C337.877 92.2401 337.366 90.9709 336.727 89.7101L334.785 85.8597C331.789 80.1595 328.396 74.677 324.631 69.4528C320.807 64.2701 316.641 59.3495 312.16 54.7241C311.112 53.6678 310.09 52.6456 309.101 51.6404C308.113 50.6352 307.074 49.7492 306.111 48.8462C304.203 47.0147 302.304 45.4388 300.608 43.9821L299.356 42.9088L298.155 41.9376L295.923 40.1487C294.543 39.0157 293.299 38.1128 292.294 37.3546L289.986 35.6509L289.389 35.1909L289.193 35.0205C289.193 35.0205 289.279 35.0205 289.415 35.1483L290.037 35.5827L292.396 37.2865C293.419 38.0191 294.679 38.905 296.076 40.0209L298.334 41.7417L299.569 42.7043L300.821 43.7691C302.525 45.2258 304.459 46.7762 306.375 48.5992C307.347 49.5022 308.377 50.4052 309.391 51.3848L312.466 54.46C316.979 59.0848 321.169 64.0145 325.006 69.2143C328.786 74.455 332.18 79.9641 335.16 85.6978L337.102 89.5994C337.724 90.8601 338.235 92.155 338.806 93.339C339.922 95.7498 340.748 98.0669 341.557 100.154C341.762 100.682 341.958 101.193 342.145 101.696C342.333 102.198 342.477 102.701 342.639 103.178C342.954 104.141 343.253 105.052 343.534 105.895C344.121 107.599 344.513 109.081 344.846 110.291C345.178 111.501 345.425 112.421 345.604 113.094C345.68 113.392 345.74 113.63 345.791 113.818L345.808 114.065Z" fill="white"/>
<path d="M313.803 350.525C313.803 350.525 313.752 350.448 313.667 350.286L313.309 349.57C312.985 348.914 312.534 347.977 311.946 346.768C310.754 344.289 309.041 340.711 306.895 336.222C302.593 327.183 296.553 314.465 289.534 299.685L289.457 299.532L289.602 299.421C296.17 294.449 302.358 288.993 308.113 283.1C309.118 282.12 310.055 281.098 310.984 280.075L313.769 277.043L316.393 273.959C317.245 272.928 318.097 271.932 318.949 270.884C320.559 268.797 322.203 266.786 323.651 264.708L325.849 261.65C326.547 260.627 327.212 259.597 327.885 258.591C332.625 251.434 336.806 243.921 340.39 236.119C341.957 232.806 343.167 229.713 344.266 227.021C345.365 224.33 346.14 221.91 346.821 220.002C347.503 218.094 347.929 216.552 348.261 215.504C348.431 215.01 348.559 214.652 348.653 214.337C348.694 214.204 348.742 214.073 348.798 213.945C348.798 213.945 348.798 214.082 348.696 214.354C348.593 214.627 348.5 215.027 348.346 215.53C348.031 216.586 347.571 218.085 346.983 220.053C346.396 222.021 345.501 224.372 344.496 227.107C343.491 229.841 342.221 232.925 340.671 236.247C337.114 244.085 332.95 251.633 328.217 258.821C327.544 259.827 326.888 260.866 326.181 261.888L323.983 264.955C322.535 267.05 320.891 269.061 319.272 271.148C318.48 272.204 317.569 273.209 316.717 274.24C315.865 275.271 314.97 276.293 314.093 277.341L311.299 280.374C310.37 281.396 309.433 282.427 308.428 283.406C302.651 289.317 296.438 294.784 289.84 299.762L289.909 299.506L307.125 336.137L312.065 346.708C312.628 347.935 313.071 348.88 313.369 349.545L313.701 350.286L313.803 350.525Z" fill="white"/>
</g>
<path d="M258.186 106.313C260.204 106.313 261.84 104.677 261.84 102.658C261.84 100.64 260.204 99.0039 258.186 99.0039C256.167 99.0039 254.531 100.64 254.531 102.658C254.531 104.677 256.167 106.313 258.186 106.313Z" fill="#429EFF"/>
<path d="M239.734 33.3417C239.734 34.0666 239.519 34.7751 239.116 35.3777C238.713 35.9802 238.141 36.4497 237.471 36.7267C236.801 37.0037 236.064 37.0758 235.353 36.9337C234.643 36.7917 233.99 36.442 233.478 35.9288C232.966 35.4157 232.618 34.7622 232.478 34.0511C232.337 33.34 232.411 32.6032 232.689 31.934C232.968 31.2649 233.439 30.6934 234.042 30.2919C234.646 29.8904 235.355 29.677 236.08 29.6787C236.56 29.6787 237.036 29.7735 237.48 29.9577C237.924 30.1419 238.327 30.4119 238.667 30.7521C239.006 31.0924 239.275 31.4962 239.458 31.9406C239.642 32.385 239.735 32.8611 239.734 33.3417Z" fill="#429EFF"/>
<path d="M349.123 114.209C349.125 114.934 348.911 115.644 348.509 116.247C348.107 116.851 347.535 117.322 346.866 117.6C346.196 117.879 345.459 117.952 344.747 117.811C344.036 117.67 343.383 117.321 342.87 116.808C342.357 116.295 342.008 115.642 341.867 114.93C341.726 114.219 341.799 113.482 342.077 112.812C342.356 112.142 342.826 111.57 343.43 111.168C344.034 110.767 344.743 110.553 345.468 110.555C346.438 110.555 347.367 110.94 348.053 111.625C348.738 112.31 349.123 113.24 349.123 114.209Z" fill="#429EFF"/>
<path d="M160.069 285.152C160.067 285.875 159.852 286.58 159.449 287.18C159.046 287.78 158.475 288.247 157.807 288.523C157.139 288.798 156.405 288.869 155.696 288.727C154.988 288.585 154.338 288.236 153.827 287.725C153.317 287.213 152.97 286.562 152.83 285.854C152.689 285.145 152.762 284.411 153.039 283.743C153.316 283.076 153.784 282.506 154.385 282.105C154.986 281.703 155.692 281.489 156.414 281.489C156.895 281.489 157.371 281.584 157.815 281.768C158.259 281.952 158.662 282.222 159.002 282.563C159.341 282.903 159.61 283.307 159.793 283.751C159.976 284.196 160.07 284.672 160.069 285.152Z" fill="#429EFF"/>
<path d="M109.69 286.15C111.708 286.15 113.344 284.514 113.344 282.495C113.344 280.477 111.708 278.841 109.69 278.841C107.671 278.841 106.035 280.477 106.035 282.495C106.035 284.514 107.671 286.15 109.69 286.15Z" fill="#429EFF"/>
<path d="M310.141 209.201C312.159 209.201 313.795 207.564 313.795 205.546C313.795 203.528 312.159 201.892 310.141 201.892C308.123 201.892 306.486 203.528 306.486 205.546C306.486 207.564 308.123 209.201 310.141 209.201Z" fill="#429EFF"/>
<path d="M39.6411 116.101C39.6411 116.824 39.4268 117.53 39.0252 118.131C38.6237 118.732 38.0529 119.2 37.3851 119.477C36.7174 119.754 35.9826 119.826 35.2737 119.685C34.5648 119.544 33.9136 119.196 33.4025 118.685C32.8914 118.174 32.5434 117.523 32.4023 116.814C32.2613 116.105 32.3337 115.37 32.6103 114.702C32.8869 114.034 33.3553 113.464 33.9563 113.062C34.5573 112.661 35.2638 112.446 35.9866 112.446C36.9558 112.446 37.8854 112.831 38.5707 113.517C39.2561 114.202 39.6411 115.132 39.6411 116.101Z" fill="#429EFF"/>
<path d="M244.846 145.328C244.844 146.05 244.629 146.756 244.226 147.356C243.823 147.956 243.252 148.423 242.584 148.698C241.916 148.974 241.182 149.045 240.473 148.903C239.765 148.761 239.115 148.412 238.604 147.901C238.094 147.389 237.747 146.738 237.607 146.029C237.466 145.321 237.539 144.586 237.816 143.919C238.093 143.252 238.561 142.682 239.162 142.28C239.763 141.879 240.469 141.665 241.192 141.665C241.672 141.665 242.148 141.76 242.592 141.944C243.036 142.128 243.439 142.398 243.779 142.738C244.118 143.079 244.387 143.483 244.57 143.927C244.753 144.371 244.847 144.847 244.846 145.328Z" fill="#429EFF"/>
<path d="M315.533 147.492C317.552 147.492 319.188 145.855 319.188 143.837C319.188 141.819 317.552 140.183 315.533 140.183C313.515 140.183 311.879 141.819 311.879 143.837C311.879 145.855 313.515 147.492 315.533 147.492Z" fill="#429EFF"/>
<path d="M79.2953 129.909C79.2953 130.632 79.081 131.339 78.6794 131.94C78.2779 132.541 77.7071 133.009 77.0393 133.286C76.3716 133.562 75.6368 133.635 74.9279 133.494C74.219 133.353 73.5678 133.005 73.0567 132.493C72.5456 131.982 72.1976 131.331 72.0565 130.622C71.9155 129.913 71.9879 129.179 72.2645 128.511C72.5411 127.843 73.0095 127.272 73.6105 126.871C74.2115 126.469 74.918 126.255 75.6408 126.255C76.6094 126.257 77.5376 126.643 78.2225 127.328C78.9073 128.013 79.2931 128.941 79.2953 129.909Z" fill="#429EFF"/>
<path d="M78.4946 85.1439C80.5129 85.1439 82.1491 83.5078 82.1491 81.4895C82.1491 79.4711 80.5129 77.835 78.4946 77.835C76.4763 77.835 74.8401 79.4711 74.8401 81.4895C74.8401 83.5078 76.4763 85.1439 78.4946 85.1439Z" fill="#429EFF"/>
<path d="M41.0634 219.977C41.0634 220.339 40.956 220.693 40.7547 220.995C40.5535 221.296 40.2674 221.531 39.9328 221.669C39.5981 221.808 39.2299 221.844 38.8746 221.773C38.5193 221.703 38.193 221.528 37.9368 221.272C37.6807 221.016 37.5063 220.69 37.4356 220.334C37.3649 219.979 37.4012 219.611 37.5398 219.276C37.6784 218.941 37.9132 218.655 38.2144 218.454C38.5156 218.253 38.8697 218.146 39.2319 218.146C39.4727 218.144 39.7114 218.191 39.9341 218.283C40.1568 218.374 40.3592 218.509 40.5295 218.679C40.6998 218.85 40.8346 219.052 40.9263 219.275C41.0179 219.498 41.0645 219.736 41.0634 219.977Z" fill="#429EFF"/>
<path d="M71.9872 166.965C71.9872 167.328 71.8798 167.682 71.6786 167.983C71.4773 168.284 71.1913 168.519 70.8566 168.657C70.5219 168.796 70.1537 168.832 69.7984 168.762C69.4431 168.691 69.1168 168.517 68.8607 168.26C68.6045 168.004 68.4301 167.678 68.3594 167.323C68.2887 166.967 68.325 166.599 68.4636 166.264C68.6023 165.93 68.837 165.644 69.1382 165.442C69.4394 165.241 69.7935 165.134 70.1557 165.134C70.3966 165.133 70.6352 165.179 70.8579 165.271C71.0807 165.363 71.283 165.497 71.4533 165.668C71.6236 165.838 71.7585 166.04 71.8501 166.263C71.9418 166.486 71.9884 166.724 71.9872 166.965Z" fill="#429EFF"/>
<path d="M107.45 231.051C107.45 231.414 107.343 231.768 107.141 232.069C106.94 232.37 106.654 232.605 106.32 232.743C105.985 232.882 105.617 232.918 105.261 232.848C104.906 232.777 104.58 232.602 104.324 232.346C104.067 232.09 103.893 231.764 103.822 231.409C103.752 231.053 103.788 230.685 103.927 230.35C104.065 230.016 104.3 229.73 104.601 229.528C104.902 229.327 105.256 229.22 105.619 229.22C105.859 229.219 106.098 229.265 106.321 229.357C106.544 229.449 106.746 229.583 106.916 229.754C107.087 229.924 107.221 230.126 107.313 230.349C107.405 230.572 107.451 230.81 107.45 231.051Z" fill="#429EFF"/>
<path d="M88.7841 166.114C88.7841 166.476 88.6767 166.83 88.4754 167.131C88.2742 167.432 87.9882 167.667 87.6535 167.806C87.3188 167.944 86.9506 167.981 86.5953 167.91C86.24 167.839 85.9137 167.665 85.6575 167.409C85.4014 167.153 85.227 166.826 85.1563 166.471C85.0856 166.116 85.1219 165.748 85.2605 165.413C85.3991 165.078 85.6339 164.792 85.9351 164.591C86.2363 164.39 86.5904 164.282 86.9526 164.282C87.1934 164.281 87.4321 164.328 87.6548 164.419C87.8775 164.511 88.0799 164.646 88.2502 164.816C88.4205 164.986 88.5553 165.189 88.647 165.412C88.7386 165.634 88.7852 165.873 88.7841 166.114Z" fill="#429EFF"/>
<path d="M114.921 124.968C114.922 125.331 114.817 125.686 114.616 125.988C114.416 126.291 114.131 126.527 113.796 126.667C113.462 126.807 113.093 126.844 112.737 126.774C112.381 126.705 112.054 126.531 111.797 126.275C111.54 126.019 111.365 125.693 111.294 125.337C111.222 124.982 111.258 124.613 111.396 124.278C111.535 123.943 111.77 123.656 112.071 123.455C112.372 123.253 112.727 123.146 113.089 123.146C113.574 123.146 114.038 123.337 114.381 123.679C114.725 124.021 114.919 124.484 114.921 124.968Z" fill="#429EFF"/>
<path d="M49.9486 168.779C50.9602 168.779 51.7802 167.959 51.7802 166.948C51.7802 165.936 50.9602 165.116 49.9486 165.116C48.9371 165.116 48.1171 165.936 48.1171 166.948C48.1171 167.959 48.9371 168.779 49.9486 168.779Z" fill="#429EFF"/>
<path d="M295.464 239.067C295.464 239.429 295.356 239.783 295.155 240.084C294.954 240.386 294.668 240.62 294.333 240.759C293.999 240.898 293.63 240.934 293.275 240.863C292.92 240.793 292.593 240.618 292.337 240.362C292.081 240.106 291.907 239.779 291.836 239.424C291.765 239.069 291.802 238.701 291.94 238.366C292.079 238.031 292.314 237.745 292.615 237.544C292.916 237.343 293.27 237.235 293.632 237.235C294.118 237.235 294.584 237.428 294.927 237.772C295.271 238.115 295.464 238.581 295.464 239.067Z" fill="#429EFF"/>
<path d="M282.712 229.492C282.712 229.854 282.604 230.209 282.402 230.51C282.201 230.811 281.914 231.046 281.579 231.185C281.244 231.323 280.875 231.359 280.52 231.287C280.164 231.216 279.838 231.041 279.582 230.784C279.326 230.527 279.153 230.2 279.083 229.844C279.013 229.488 279.051 229.119 279.191 228.785C279.33 228.45 279.567 228.165 279.869 227.965C280.171 227.764 280.526 227.658 280.889 227.66C281.129 227.66 281.367 227.708 281.588 227.8C281.81 227.892 282.011 228.027 282.181 228.197C282.35 228.367 282.484 228.569 282.575 228.791C282.666 229.014 282.713 229.252 282.712 229.492Z" fill="#429EFF"/>
<path d="M309.145 247.696C309.145 248.058 309.038 248.412 308.837 248.713C308.636 249.015 308.349 249.249 308.015 249.388C307.68 249.527 307.312 249.563 306.957 249.492C306.601 249.421 306.275 249.247 306.019 248.991C305.763 248.735 305.588 248.408 305.518 248.053C305.447 247.698 305.483 247.33 305.622 246.995C305.76 246.66 305.995 246.374 306.296 246.173C306.598 245.972 306.952 245.864 307.314 245.864C307.555 245.863 307.793 245.91 308.016 246.001C308.239 246.093 308.441 246.228 308.611 246.398C308.782 246.568 308.917 246.771 309.008 246.994C309.1 247.216 309.147 247.455 309.145 247.696Z" fill="#429EFF"/>
<path d="M237.146 249.409C237.146 249.771 237.038 250.125 236.837 250.426C236.636 250.727 236.35 250.962 236.015 251.101C235.68 251.239 235.312 251.276 234.957 251.205C234.601 251.134 234.275 250.96 234.019 250.704C233.763 250.448 233.588 250.121 233.518 249.766C233.447 249.411 233.483 249.042 233.622 248.708C233.761 248.373 233.995 248.087 234.296 247.886C234.598 247.685 234.952 247.577 235.314 247.577C235.8 247.577 236.266 247.77 236.609 248.114C236.953 248.457 237.146 248.923 237.146 249.409Z" fill="#429EFF"/>
<path d="M248.747 277.52C248.747 277.883 248.639 278.237 248.438 278.538C248.236 278.84 247.95 279.075 247.614 279.213C247.279 279.351 246.911 279.387 246.555 279.316C246.2 279.244 245.873 279.069 245.617 278.812C245.362 278.555 245.188 278.228 245.118 277.872C245.048 277.516 245.086 277.148 245.226 276.813C245.366 276.479 245.602 276.193 245.904 275.993C246.206 275.793 246.561 275.687 246.924 275.688C247.408 275.691 247.872 275.885 248.214 276.228C248.555 276.571 248.747 277.036 248.747 277.52Z" fill="#429EFF"/>
<path d="M228.44 269.018C228.442 269.381 228.336 269.737 228.135 270.039C227.935 270.342 227.649 270.578 227.314 270.717C226.979 270.857 226.61 270.894 226.254 270.824C225.898 270.753 225.57 270.579 225.314 270.322C225.057 270.065 224.883 269.738 224.812 269.382C224.742 269.026 224.779 268.657 224.918 268.322C225.058 267.987 225.294 267.701 225.597 267.5C225.899 267.3 226.254 267.194 226.617 267.195C227.101 267.195 227.565 267.387 227.906 267.729C228.248 268.071 228.44 268.535 228.44 269.018Z" fill="#429EFF"/>
<path d="M110.124 104.481C110.126 104.844 110.02 105.199 109.819 105.501C109.619 105.803 109.334 106.039 108.999 106.179C108.665 106.319 108.296 106.357 107.94 106.287C107.585 106.217 107.257 106.044 107 105.788C106.743 105.532 106.568 105.206 106.497 104.85C106.425 104.495 106.461 104.126 106.6 103.791C106.738 103.456 106.973 103.169 107.274 102.967C107.575 102.766 107.93 102.658 108.292 102.658C108.777 102.658 109.241 102.85 109.584 103.192C109.928 103.533 110.122 103.997 110.124 104.481Z" fill="#429EFF"/>
<path d="M153.339 83.2361C153.34 83.5987 153.234 83.9536 153.034 84.2559C152.834 84.5582 152.549 84.7943 152.214 84.9342C151.88 85.0742 151.511 85.1116 151.155 85.0419C150.799 84.9722 150.472 84.7985 150.215 84.5427C149.958 84.2869 149.783 83.9606 149.712 83.6051C149.64 83.2495 149.676 82.8808 149.814 82.5457C149.953 82.2105 150.187 81.924 150.489 81.7224C150.79 81.5207 151.145 81.4131 151.507 81.4131C151.992 81.4131 152.456 81.6049 152.799 81.9465C153.143 82.2881 153.337 82.7518 153.339 83.2361Z" fill="#429EFF"/>
<path d="M206.827 78.2094C206.827 78.5717 206.72 78.9258 206.518 79.227C206.317 79.5282 206.031 79.7629 205.696 79.9015C205.362 80.0401 204.994 80.0764 204.638 80.0057C204.283 79.9351 203.957 79.7606 203.7 79.5045C203.444 79.2484 203.27 78.922 203.199 78.5667C203.129 78.2115 203.165 77.8432 203.303 77.5085C203.442 77.1739 203.677 76.8878 203.978 76.6866C204.279 76.4853 204.633 76.3779 204.996 76.3779C205.481 76.3779 205.947 76.5709 206.291 76.9144C206.634 77.2578 206.827 77.7237 206.827 78.2094Z" fill="#429EFF"/>
<path d="M290.983 34.3552C290.985 34.7178 290.879 35.0727 290.679 35.3751C290.479 35.6774 290.193 35.9134 289.859 36.0534C289.524 36.1933 289.156 36.2308 288.8 36.1611C288.444 36.0914 288.117 35.9176 287.86 35.6618C287.603 35.406 287.427 35.0797 287.356 34.7242C287.285 34.3687 287.32 34 287.459 33.6648C287.597 33.3297 287.832 33.0431 288.133 32.8415C288.435 32.6399 288.789 32.5322 289.152 32.5322C289.636 32.5322 290.101 32.724 290.444 33.0656C290.787 33.4073 290.981 33.8709 290.983 34.3552Z" fill="#429EFF"/>
<path d="M150.46 31.3823C150.46 31.7445 150.353 32.0986 150.151 32.3998C149.95 32.701 149.664 32.9358 149.329 33.0744C148.995 33.213 148.626 33.2493 148.271 33.1786C147.916 33.1079 147.59 32.9335 147.333 32.6774C147.077 32.4212 146.903 32.0949 146.832 31.7396C146.761 31.3843 146.798 31.0161 146.936 30.6814C147.075 30.3467 147.31 30.0607 147.611 29.8594C147.912 29.6582 148.266 29.5508 148.628 29.5508C149.113 29.553 149.578 29.7467 149.921 30.0897C150.264 30.4327 150.458 30.8972 150.46 31.3823Z" fill="#429EFF"/>
<path d="M129.546 232.66C129.546 232.66 129.469 232.592 129.333 232.447L128.728 231.809L126.454 229.313C125.96 228.759 125.389 228.171 124.827 227.481L122.995 225.215C122.348 224.363 121.624 223.554 120.917 222.6L118.736 219.55C115.181 214.514 112.122 209.145 109.604 203.518C106.542 196.61 104.403 189.33 103.24 181.864C102.866 179.888 102.738 177.903 102.508 175.96L102.329 173.056C102.329 172.579 102.269 172.093 102.244 171.624C102.218 171.156 102.244 170.67 102.244 170.193C102.244 169.251 102.244 168.314 102.244 167.382L102.346 164.622C102.346 163.711 102.431 162.808 102.508 161.922C102.585 161.036 102.661 160.158 102.729 159.29C103.392 153.161 104.653 147.113 106.495 141.23C107.722 137.264 109.233 133.393 111.018 129.645C111.657 128.316 112.194 127.311 112.577 126.638C112.764 126.297 112.918 126.05 113.02 125.879C113.122 125.709 113.182 125.624 113.19 125.632C113.154 125.723 113.111 125.811 113.062 125.896L112.654 126.68C112.296 127.362 111.802 128.384 111.18 129.713C109.456 133.479 107.99 137.358 106.793 141.324C104.985 147.183 103.742 153.202 103.079 159.298C103.01 160.15 102.934 161.002 102.866 161.922C102.797 162.842 102.729 163.702 102.712 164.605C102.695 165.508 102.644 166.428 102.61 167.348C102.576 168.268 102.61 169.214 102.61 170.151C102.61 170.619 102.61 171.096 102.61 171.573C102.61 172.05 102.67 172.519 102.695 172.996L102.874 175.892C103.113 177.826 103.24 179.794 103.607 181.762C104.765 189.191 106.884 196.439 109.911 203.322C112.405 208.932 115.422 214.294 118.923 219.337L121.07 222.396C121.768 223.35 122.484 224.21 123.123 225.028L124.92 227.311C125.474 228.009 126.036 228.606 126.513 229.159L128.728 231.715L129.299 232.388C129.486 232.558 129.555 232.652 129.546 232.66Z" fill="#429EFF"/>
<path d="M49.8975 171.497C49.8882 171.415 49.8882 171.332 49.8975 171.25V170.526C49.8975 169.853 49.8975 168.916 49.9572 167.732C49.9572 167.127 49.9572 166.446 50.0083 165.713C50.0594 164.981 50.102 164.18 50.1616 163.32C50.2809 161.616 50.3661 159.639 50.6216 157.484C50.7409 156.411 50.8601 155.278 50.9794 154.077C51.0987 152.876 51.3116 151.683 51.4905 150.422C51.8057 147.867 52.3424 145.217 52.8365 142.398C55.2332 130.175 59.0172 118.265 64.1151 106.901C65.3333 104.302 66.4492 101.789 67.6504 99.5661C68.2381 98.4331 68.7748 97.3257 69.3541 96.295L71.0578 93.322C72.0886 91.4138 73.1534 89.7612 74.0393 88.2875C74.4993 87.5549 74.8912 86.8648 75.3086 86.243L76.4245 84.5393L77.992 82.2222L78.4009 81.6259C78.4481 81.5603 78.4993 81.4977 78.5542 81.4385C78.5297 81.5153 78.4922 81.5873 78.4435 81.6514L78.0601 82.2733L76.5694 84.633L75.4875 86.3367L74.2523 88.3897C73.4004 89.8719 72.3441 91.5331 71.3304 93.4497L69.7033 96.4227C69.1326 97.462 68.6044 98.578 67.9996 99.7109C66.824 101.96 65.7166 104.447 64.5155 107.045C62.0223 112.73 59.816 118.535 57.905 124.441C56.0567 130.361 54.51 136.372 53.2709 142.449C52.7427 145.26 52.2146 147.926 51.8738 150.448C51.695 151.709 51.4905 152.918 51.3457 154.094C51.2009 155.269 51.0901 156.394 50.9624 157.501C50.6812 159.648 50.579 161.607 50.4342 163.32C50.3661 164.171 50.3064 164.972 50.2468 165.713C50.1872 166.454 50.1786 167.11 50.1531 167.724C50.0935 168.908 50.0423 169.836 50.0083 170.509C50.0083 170.807 50.0083 171.046 50.0083 171.233C49.9824 171.326 49.9452 171.414 49.8975 171.497Z" fill="#429EFF"/>
<path d="M224.324 66.1215C224.106 66.0856 223.892 66.0285 223.685 65.9511L221.862 65.3889C221.079 65.1248 220.116 64.8267 218.983 64.537C217.85 64.2474 216.572 63.847 215.124 63.5404L212.867 63.0207C212.083 62.8418 211.257 62.7055 210.405 62.5437C208.701 62.1944 206.869 61.9559 204.936 61.6918C200.736 61.1783 196.508 60.9251 192.277 60.9337C188.045 60.9915 183.82 61.3073 179.627 61.8792C177.702 62.1859 175.87 62.45 174.175 62.8248C173.323 63.0037 172.471 63.1485 171.713 63.3359L169.464 63.8981C168.025 64.2219 166.755 64.6393 165.631 64.9545C164.506 65.2696 163.535 65.5848 162.76 65.8574L160.946 66.4537C160.737 66.5278 160.523 66.5876 160.307 66.6326C160.501 66.523 160.707 66.4345 160.92 66.3685L162.7 65.6956C163.476 65.3974 164.404 65.0567 165.554 64.7159C166.704 64.3752 167.948 63.9407 169.388 63.5915L171.636 63.0037C172.42 62.8078 173.246 62.6544 174.098 62.467C175.802 62.0752 177.642 61.794 179.576 61.4789C187.995 60.2273 196.549 60.1614 204.987 61.2829C206.921 61.5726 208.769 61.8196 210.473 62.1859C211.325 62.3648 212.177 62.5011 212.943 62.6885L215.201 63.2422C216.649 63.5659 217.918 63.9833 219.051 64.307C220.184 64.6307 221.147 64.9545 221.922 65.2441L223.711 65.883C223.923 65.9413 224.128 66.0212 224.324 66.1215Z" fill="#429EFF"/>
<path d="M257.555 104.924C257.398 104.785 257.255 104.631 257.129 104.464C256.831 104.123 256.448 103.672 255.971 103.101L255.119 102.113C254.812 101.763 254.455 101.397 254.08 100.988C253.322 100.196 252.504 99.2419 251.524 98.3048L249.957 96.797C249.403 96.2774 248.79 95.7833 248.185 95.2466C246.975 94.1562 245.578 93.117 244.13 92.001C237.732 87.2697 230.581 83.6524 222.978 81.3016C221.215 80.799 219.571 80.2879 217.952 79.9642C217.16 79.7853 216.402 79.5894 215.652 79.4531L213.514 79.0868C212.151 78.8142 210.899 78.7205 209.808 78.5842C209.263 78.516 208.752 78.4479 208.284 78.4053L207.006 78.3712L205.225 78.2434C205.016 78.2396 204.808 78.2139 204.604 78.1668C204.81 78.1462 205.019 78.1462 205.225 78.1668H207.014H208.309C208.786 78.1668 209.297 78.252 209.842 78.3031C210.941 78.4138 212.202 78.4905 213.574 78.7375L215.729 79.0868C216.478 79.2061 217.245 79.402 218.046 79.5724C219.656 79.879 221.334 80.4242 223.106 80.8757C230.776 83.1969 237.983 86.8377 244.403 91.6347C245.851 92.7762 247.256 93.824 248.457 94.9314C249.062 95.4852 249.676 95.9878 250.221 96.5159L251.78 98.0493C252.785 99.0034 253.594 99.9745 254.335 100.792C254.693 101.201 255.051 101.576 255.349 101.942C255.647 102.309 255.911 102.649 256.15 102.965C256.61 103.544 257.002 104.021 257.249 104.379C257.367 104.551 257.47 104.733 257.555 104.924Z" fill="#429EFF"/>
<path d="M275.777 81.7785C275.712 81.7345 275.652 81.683 275.599 81.6252L275.096 81.1482L273.205 79.2826L271.842 77.9281C271.331 77.4425 270.76 76.9485 270.138 76.3948C268.911 75.3129 267.583 74.0095 265.938 72.7488L263.383 70.7128C262.531 70.0058 261.534 69.3498 260.563 68.6258C258.638 67.152 256.44 65.772 254.157 64.2813C249.152 61.1718 243.928 58.4301 238.526 56.0778C233.065 53.8076 227.448 51.9343 221.718 50.4726C219.06 49.8677 216.539 49.2459 214.137 48.8881C212.944 48.6922 211.794 48.4451 210.678 48.3088L207.467 47.917C205.422 47.6188 203.557 47.5592 201.921 47.4229C201.069 47.3718 200.345 47.3036 199.638 47.2696H197.721L195.063 47.2014H194.373H194.135C194.214 47.1881 194.295 47.1881 194.373 47.2014H195.063H197.721H199.647C200.354 47.2014 201.112 47.2696 201.938 47.3122C203.574 47.4229 205.448 47.4655 207.501 47.7381L210.729 48.1044C211.845 48.2407 213.004 48.4707 214.205 48.6581C216.616 49.0074 219.146 49.6207 221.812 50.2085C233.352 52.9703 244.365 57.5909 254.421 63.8894C256.704 65.3972 258.902 66.7943 260.827 68.285C261.798 69.0176 262.761 69.6821 263.638 70.3976L266.143 72.4677C267.77 73.7455 269.099 75.0233 270.317 76.1733C270.922 76.727 271.493 77.2381 272.021 77.7322L273.358 79.1207L275.198 81.0459L275.667 81.557C275.715 81.6247 275.752 81.6994 275.777 81.7785Z" fill="#429EFF"/>
<path d="M334.923 165.9C334.912 165.827 334.912 165.752 334.923 165.679V165.006C334.923 164.393 334.923 163.532 334.872 162.45C334.872 161.888 334.872 161.275 334.872 160.602C334.872 159.929 334.804 159.188 334.769 158.396C334.676 156.82 334.642 154.988 334.429 153.046C334.344 152.058 334.258 151.018 334.156 149.937C334.054 148.855 333.892 147.739 333.747 146.58C333.492 144.263 333.049 141.801 332.614 139.212C331.547 133.624 330.165 128.1 328.474 122.668C326.743 117.241 324.709 111.914 322.383 106.713C321.259 104.336 320.228 102.062 319.112 100.009C318.567 98.9781 318.073 97.9559 317.536 97.0189L315.986 94.3099C315.032 92.6062 314.044 91.0643 313.217 89.7184L312.05 87.8528L311.011 86.3195L309.588 84.1898L309.222 83.6276L309.111 83.4316C311.706 86.8573 314.093 90.4359 316.258 94.1481L317.834 96.8485C318.38 97.794 318.882 98.8078 319.436 99.8385C320.569 101.892 321.617 104.166 322.75 106.543C325.111 111.75 327.162 117.092 328.892 122.541C330.57 128.006 331.93 133.563 332.963 139.186C333.381 141.742 333.815 144.246 334.054 146.58C334.19 147.747 334.352 148.863 334.437 149.945C334.522 151.027 334.608 152.075 334.684 153.063C335.015 157.334 335.095 161.62 334.923 165.9Z" fill="#429EFF"/>
<path d="M316.147 143.837C316.177 143.972 316.2 144.108 316.215 144.246C316.258 144.544 316.309 144.944 316.369 145.455C316.48 146.52 316.744 148.088 316.871 150.124C317.355 155.855 317.474 161.611 317.229 167.357C317.101 171.003 316.769 174.981 316.301 179.24C315.832 183.5 315.099 188.023 314.043 192.725C313.805 193.909 313.541 195.102 313.191 196.295L312.28 199.924C311.573 202.343 310.891 204.83 310.014 207.301C308.313 212.445 306.214 217.449 303.736 222.268C301.216 227.063 298.37 231.68 295.217 236.085C292.265 240.176 289.082 244.095 285.685 247.824C279.934 254.135 273.615 259.904 266.807 265.057C262.237 268.551 257.433 271.727 252.428 274.564C250.682 275.612 249.242 276.268 248.296 276.787L247.215 277.341C246.968 277.469 246.84 277.52 246.84 277.52C246.84 277.52 246.95 277.443 247.189 277.307L248.254 276.71C249.182 276.174 250.605 275.484 252.343 274.419C257.307 271.524 262.082 268.314 266.637 264.81C273.388 259.627 279.66 253.848 285.378 247.543C288.753 243.82 291.916 239.909 294.851 235.83C297.989 231.441 300.821 226.841 303.327 222.063C305.793 217.265 307.887 212.284 309.588 207.164C310.44 204.703 311.147 202.224 311.854 199.813C312.161 198.595 312.467 197.385 312.774 196.192C313.081 195 313.353 193.816 313.626 192.64C314.691 187.955 315.329 183.431 315.917 179.198C316.505 174.964 316.769 170.977 316.897 167.348C317.17 161.61 317.096 155.861 316.675 150.132C316.582 148.105 316.343 146.537 316.267 145.472C316.215 144.953 316.181 144.544 316.156 144.254C316.13 143.965 316.147 143.837 316.147 143.837Z" fill="#429EFF"/>
<path d="M277.404 107.13C277.404 107.13 277.489 107.207 277.634 107.385L278.282 108.152C278.827 108.842 279.704 109.813 280.701 111.176C283.575 114.955 286.166 118.941 288.453 123.102C289.927 125.726 291.349 128.699 292.772 131.936C294.244 135.402 295.527 138.945 296.614 142.55C297.822 146.534 298.773 150.592 299.459 154.698C300.213 159.105 300.657 163.56 300.788 168.03C300.904 172.496 300.741 176.966 300.302 181.412C299.835 185.552 299.118 189.66 298.156 193.713C295.365 205.199 290.454 216.062 283.674 225.743C282.737 227.14 281.902 228.146 281.382 228.861L280.761 229.653C280.696 229.746 280.625 229.834 280.548 229.917C280.595 229.814 280.655 229.716 280.727 229.628L281.306 228.776C281.8 228.052 282.618 227.03 283.529 225.615C286.196 221.703 288.579 217.603 290.659 213.349C293.753 207.042 296.136 200.411 297.764 193.577C298.706 189.554 299.406 185.477 299.859 181.37C300.296 176.94 300.455 172.488 300.336 168.038C300.205 163.591 299.761 159.159 299.008 154.775C298.335 150.683 297.399 146.64 296.205 142.67C295.134 139.075 293.871 135.541 292.423 132.081C291.009 128.852 289.611 125.879 288.163 123.256C285.911 119.09 283.369 115.088 280.556 111.278C279.585 109.907 278.733 108.919 278.205 108.212L277.592 107.411C277.52 107.323 277.458 107.229 277.404 107.13Z" fill="#429EFF"/>
<path d="M241.192 305.615L240.732 305.725L239.386 306.007C238.202 306.245 236.448 306.628 234.182 307.003C227.775 308.122 221.315 308.91 214.827 309.363C205.204 310.055 195.544 310.035 185.924 309.303C180.497 308.894 174.807 308.264 168.963 307.293C162.923 306.321 156.938 305.036 151.031 303.442C139.586 300.383 128.699 295.524 118.78 289.046C114.461 286.225 110.306 283.162 106.334 279.871C102.577 276.856 99.255 273.746 96.265 270.893C90.302 265.168 85.9063 260.193 82.8822 256.718C81.3744 255.014 80.2329 253.608 79.4748 252.671L78.6229 251.607L78.3418 251.24L78.6655 251.581L79.5685 252.62C80.3607 253.532 81.5278 254.886 83.0611 256.607C86.1108 260.014 90.5916 264.981 96.5206 270.671C99.5021 273.508 102.824 276.549 106.581 279.59C110.556 282.855 114.708 285.898 119.018 288.705C123.787 291.791 128.779 294.518 133.951 296.866C139.514 299.378 145.272 301.435 151.168 303.016C157.06 304.607 163.031 305.892 169.057 306.867C174.892 307.838 180.565 308.477 185.983 308.894C195.584 309.64 205.227 309.691 214.836 309.048C223.039 308.511 229.641 307.574 234.173 306.833C236.448 306.484 238.202 306.134 239.395 305.921L240.749 305.683L241.192 305.615Z" fill="#429EFF"/>
<path d="M194.084 291.235C190.206 291.439 186.319 291.39 182.447 291.09L179.628 290.869C178.648 290.792 177.643 290.639 176.587 290.511C174.482 290.289 172.259 289.872 169.916 289.472C159.747 287.567 149.897 284.241 140.655 279.59C138.551 278.491 136.523 277.469 134.692 276.37C133.78 275.833 132.886 275.339 132.051 274.811L129.683 273.278C126.409 271.173 123.279 268.854 120.312 266.335L120.483 266.446L120.977 266.795L122.834 268.175L124.163 269.189C124.657 269.546 125.211 269.913 125.798 270.322C126.974 271.122 128.277 272.085 129.819 273.014L132.196 274.521C133.048 275.041 133.9 275.518 134.837 276.055C136.651 277.137 138.67 278.133 140.8 279.224C150.031 283.806 159.84 287.119 169.959 289.071C172.293 289.48 174.508 289.923 176.604 290.145C177.651 290.281 178.657 290.443 179.628 290.528L182.439 290.783C184.219 290.971 185.846 290.996 187.269 291.073C187.984 291.073 188.64 291.15 189.254 291.167H190.957H193.275H193.879L194.084 291.235Z" fill="#429EFF"/>
<path d="M165.07 268.661C165.07 268.661 164.814 268.661 164.329 268.558L162.216 268.175L160.691 267.894C160.137 267.775 159.541 267.621 158.894 267.468C157.616 267.136 156.134 266.829 154.549 266.31L152.045 265.543C151.193 265.27 150.29 264.921 149.37 264.589C147.504 263.958 145.588 263.107 143.56 262.246C134.8 258.323 126.727 253.02 119.648 246.538C118.055 245.013 116.514 243.599 115.193 242.142C114.529 241.418 113.847 240.754 113.259 240.064L111.556 238.07C110.44 236.818 109.571 235.583 108.762 234.535C108.361 234.007 107.978 233.521 107.654 233.061L106.802 231.767L105.635 230.003C105.488 229.803 105.36 229.589 105.252 229.364C105.419 229.552 105.573 229.751 105.712 229.961L106.964 231.664L107.859 232.925C108.199 233.377 108.591 233.854 108.992 234.373C109.843 235.404 110.695 236.622 111.828 237.857L113.532 239.825C114.128 240.507 114.801 241.163 115.474 241.878C116.795 243.318 118.345 244.723 119.947 246.231C127.02 252.646 135.05 257.92 143.748 261.863C145.767 262.715 147.666 263.567 149.515 264.24C150.435 264.572 151.304 264.93 152.173 265.211L154.651 265.994C156.227 266.54 157.701 266.846 158.97 267.213C159.609 267.383 160.206 267.553 160.759 267.681L162.267 268.005L164.363 268.456C164.604 268.502 164.841 268.57 165.07 268.661Z" fill="#429EFF"/>
<path d="M197.874 329.978C197.785 330.001 197.694 330.015 197.601 330.02L196.75 330.088L193.64 330.344L191.391 330.506C190.539 330.506 189.688 330.557 188.708 330.583C186.783 330.583 184.585 330.727 182.157 330.583L178.358 330.472C177.029 330.429 175.657 330.276 174.235 330.174C171.39 330.012 168.366 329.577 165.188 329.168C151.387 327.156 137.969 323.069 125.389 317.046C122.518 315.607 119.767 314.286 117.313 312.838C116.078 312.123 114.851 311.484 113.727 310.785L110.507 308.758C108.428 307.506 106.674 306.202 105.089 305.086C104.305 304.524 103.564 304.021 102.9 303.527L101.128 302.13L98.6831 300.188L98.0528 299.677C97.9165 299.558 97.8398 299.498 97.8483 299.49C97.8568 299.481 97.9335 299.49 98.0783 299.643L98.7342 300.12L101.23 301.994L103.028 303.357C103.692 303.843 104.442 304.328 105.234 304.882C106.827 305.955 108.59 307.259 110.677 308.485L113.906 310.487C115.03 311.177 116.249 311.807 117.492 312.515C119.946 313.946 122.697 315.258 125.559 316.68C138.127 322.652 151.506 326.743 165.265 328.819C168.434 329.237 171.441 329.671 174.286 329.858C175.7 329.969 177.072 330.131 178.392 330.182L182.183 330.318C184.602 330.463 186.791 330.318 188.717 330.318C189.679 330.318 190.574 330.318 191.4 330.318L193.649 330.182L196.767 330.02H197.618L197.874 329.978Z" fill="#429EFF"/>
<path d="M75.64 129.909C75.5974 130.029 67.5047 127.03 57.5635 123.214C47.6223 119.397 39.5977 116.211 39.6744 116.101C39.751 115.99 47.8097 118.988 57.7594 122.796C67.7092 126.604 75.6826 129.799 75.64 129.909Z" fill="#429EFF"/>
<path d="M108.863 103.663C108.863 103.663 108.811 103.739 108.692 103.876L108.155 104.472C107.695 105.009 106.946 105.733 106.102 106.781C103.644 109.648 101.435 112.72 99.5005 115.964C96.6611 120.782 94.3342 125.884 92.5579 131.186C90.4001 137.702 88.9158 144.421 88.1282 151.239C87.4901 156.455 87.2764 161.714 87.4893 166.965V167.195H87.2678L60.5449 167.11L52.8185 167.016H50.757L50.2629 166.965C50.2035 166.972 50.1434 166.972 50.084 166.965C50.084 166.965 50.1436 166.965 50.2629 166.965H50.7995H52.8611L60.596 166.897L87.3189 166.82L87.1059 167.05C86.8815 161.794 87.0895 156.529 87.7278 151.307C88.5214 144.46 90.0259 137.714 92.2171 131.178C94.0124 125.841 96.3801 120.714 99.2791 115.887C101.244 112.643 103.5 109.584 106.017 106.747C106.869 105.716 107.653 105.043 108.138 104.498L108.701 103.927C108.786 103.722 108.854 103.654 108.863 103.663Z" fill="#429EFF"/>
<path d="M128.355 233.888C128.152 234.211 127.918 234.513 127.656 234.791C127.179 235.353 126.481 236.145 125.595 237.116C123.831 239.059 121.335 241.682 118.431 244.459C115.526 247.236 112.808 249.63 110.764 251.274C109.75 252.126 108.924 252.782 108.345 253.233C108.059 253.487 107.748 253.709 107.416 253.898C107.672 253.603 107.958 253.335 108.268 253.097L110.585 251.036C112.544 249.289 115.236 246.862 118.124 244.093C121.012 241.324 123.542 238.743 125.365 236.861L127.528 234.629C127.778 234.354 128.054 234.105 128.355 233.888Z" fill="#429EFF"/>
<path d="M121.01 264.375C121.112 264.435 116.189 272.519 110.013 282.426C103.837 292.334 98.7425 300.316 98.6402 300.256C98.538 300.196 103.462 292.104 109.638 282.196C115.814 272.289 120.908 264.307 121.01 264.375Z" fill="#429EFF"/>
<path d="M162.164 270.271C162.055 270.708 161.909 271.135 161.73 271.548C161.398 272.443 160.955 273.601 160.426 274.998C159.319 277.912 157.811 281.933 156.227 286.405C154.642 290.877 153.271 294.923 152.3 297.913L151.141 301.415C151.02 301.851 150.861 302.276 150.664 302.684C150.733 302.237 150.836 301.795 150.971 301.364C151.201 300.512 151.55 299.311 152.001 297.82C152.853 294.838 154.216 290.741 155.809 286.26C157.402 281.779 158.953 277.741 160.137 274.888C160.725 273.439 161.219 272.281 161.576 271.48C161.735 271.06 161.932 270.655 162.164 270.271Z" fill="#429EFF"/>
<path d="M237.444 306.347C237.376 306.233 237.324 306.109 237.29 305.981C237.197 305.683 237.077 305.325 236.933 304.899L235.689 300.887C234.667 297.479 233.27 292.811 231.762 287.623C230.254 282.435 228.908 277.707 227.954 274.3C227.502 272.639 227.102 271.276 226.846 270.254L226.599 269.189C226.567 269.06 226.544 268.929 226.531 268.797C226.531 268.797 226.599 268.916 226.693 269.163C226.787 269.41 226.906 269.819 227.051 270.245C227.366 271.259 227.784 272.613 228.286 274.257C229.317 277.665 230.714 282.333 232.222 287.521C233.73 292.709 235.075 297.411 236.03 300.827C236.481 302.48 236.881 303.843 237.128 304.873L237.41 305.981C237.439 306.1 237.45 306.224 237.444 306.347Z" fill="#429EFF"/>
<path d="M246.133 276.677C246.014 276.677 243.501 270.407 240.519 262.57C237.538 254.733 235.204 248.344 235.314 248.301C235.425 248.258 237.947 254.571 240.928 262.408C243.91 270.245 246.244 276.634 246.133 276.677Z" fill="#429EFF"/>
<path d="M307.381 247.346C306.973 247.208 306.577 247.037 306.197 246.835C305.447 246.486 304.374 245.984 303.07 245.259C300.447 243.888 296.886 241.852 293.121 239.382C289.355 236.911 286.101 234.398 283.818 232.524C282.668 231.587 281.757 230.82 281.143 230.258C280.805 230.008 280.493 229.722 280.215 229.406C280.58 229.632 280.927 229.886 281.254 230.164L284.014 232.311C286.348 234.117 289.611 236.57 293.385 239.041C297.158 241.511 300.66 243.573 303.232 245.004L306.29 246.708C306.673 246.887 307.038 247.1 307.381 247.346Z" fill="#429EFF"/>
<path d="M346.977 214.729C346.977 214.848 338.169 212.778 327.384 210.112C316.599 207.446 307.851 205.18 307.885 205.061C307.919 204.941 316.685 207.011 327.478 209.678C338.271 212.344 347.002 214.61 346.977 214.729Z" fill="#429EFF"/>
<path d="M336.797 166.403C336.797 166.53 329.13 166.718 319.675 166.829C310.219 166.939 302.544 166.931 302.535 166.829C302.527 166.726 310.202 166.513 319.666 166.403C329.13 166.292 336.797 166.283 336.797 166.403Z" fill="#429EFF"/>
<path d="M315.533 143.743C315.533 143.863 298.897 144.254 278.367 144.595C257.837 144.936 241.191 145.149 241.191 145.03C241.191 144.91 257.828 144.519 278.367 144.178C298.905 143.837 315.533 143.624 315.533 143.743Z" fill="#429EFF"/>
<path d="M345.809 114.064C345.694 114.135 345.571 114.192 345.443 114.235L344.361 114.627L340.391 116.041C337.035 117.233 332.409 118.903 327.341 120.845C322.272 122.788 317.706 124.636 314.418 125.956L310.516 127.558L309.452 127.984C309.33 128.04 309.201 128.08 309.068 128.103C309.068 128.103 309.179 128.018 309.418 127.899L310.448 127.405C311.351 126.979 312.663 126.382 314.299 125.701C317.561 124.27 322.102 122.379 327.179 120.428C332.256 118.477 336.907 116.859 340.289 115.743C341.993 115.189 343.356 114.754 344.31 114.465L345.409 114.15C345.537 114.101 345.672 114.073 345.809 114.064Z" fill="#429EFF"/>
<path d="M280.547 81.6597C280.624 81.7534 275.683 86.2342 269.516 91.6691C263.348 97.104 258.271 101.44 258.194 101.346C258.118 101.253 263.05 96.7717 269.217 91.3369C275.385 85.902 280.462 81.566 280.547 81.6597Z" fill="#429EFF"/>
<path d="M288.377 34.7642C288.479 34.8408 283.488 42.0135 277.235 50.7962C270.982 59.5789 265.828 66.6324 265.726 66.5642C265.624 66.4961 270.616 59.3149 276.877 50.5321C283.138 41.7494 288.275 34.696 288.377 34.7642Z" fill="#429EFF"/>
<path d="M193.453 45.2427C193.429 45.1046 193.429 44.9634 193.453 44.8253C193.453 44.5016 193.453 44.1097 193.496 43.6327C193.547 42.5253 193.607 41.0771 193.692 39.2371C193.837 35.523 193.948 30.3948 193.828 24.7554C193.709 19.1161 193.377 13.9623 193.07 10.2738L192.695 5.89518L192.593 4.70257C192.571 4.56434 192.571 4.42339 192.593 4.28516C192.649 4.41473 192.68 4.55324 192.687 4.69405C192.738 5.00924 192.789 5.4011 192.866 5.87814C193.01 6.90038 193.189 8.43373 193.385 10.2482C193.769 13.9453 194.152 19.082 194.237 24.7299C194.322 30.3777 194.195 35.5485 193.965 39.2626C193.854 41.1197 193.743 42.619 193.632 43.6583L193.505 44.8509C193.499 44.9827 193.482 45.1139 193.453 45.2427Z" fill="#429EFF"/>
<path d="M151.278 83.1166C151.017 82.8404 150.786 82.5378 150.588 82.2136C150.17 81.6173 149.591 80.7484 148.884 79.658C147.478 77.4772 145.613 74.402 143.696 70.9264C141.779 67.4508 140.186 64.2222 139.096 61.8626C138.551 60.687 138.116 59.7244 137.844 59.0514C137.678 58.7126 137.544 58.3589 137.443 57.9951C137.66 58.3054 137.846 58.6364 137.997 58.9833L139.377 61.7263C140.544 64.0519 142.18 67.2378 144.088 70.7134C145.996 74.189 147.819 77.2728 149.199 79.4961L150.775 82.1284C150.974 82.441 151.142 82.7719 151.278 83.1166Z" fill="#429EFF"/>
<path d="M253.178 133.837C253.171 133.74 253.171 133.643 253.178 133.547V132.695C253.178 131.962 253.178 130.932 253.135 129.62C253.135 126.945 253.084 123.129 253.041 118.452L253.212 118.622L224.197 118.673C224.001 118.878 224.47 118.409 224.419 118.46V126.374C224.419 128.93 224.419 131.426 224.419 133.794L224.206 133.581L245.008 133.683L251.031 133.743H252.641H253.22C253.044 133.755 252.868 133.755 252.692 133.743H251.116L245.153 133.794L224.214 133.896H224.01V133.692C224.01 131.324 224.01 128.836 224.01 126.272C224.01 124.986 224.01 123.716 224.01 122.362V118.358C223.959 118.401 224.427 117.932 224.231 118.128L253.246 118.188H253.416V118.35C253.416 123.069 253.348 126.919 253.322 129.62C253.322 130.915 253.322 131.928 253.28 132.661C253.28 132.985 253.28 133.24 253.28 133.445C253.264 133.579 253.23 133.711 253.178 133.837Z" fill="#429EFF"/>
<path d="M248.075 123.844C248.075 123.963 243.569 124.065 238.006 124.065C232.443 124.065 227.945 123.963 227.945 123.844C227.945 123.724 232.452 123.622 238.006 123.622C243.56 123.622 248.075 123.724 248.075 123.844Z" fill="#429EFF"/>
<path d="M248.075 127.149C248.075 127.268 243.569 127.371 238.006 127.371C232.443 127.371 227.945 127.268 227.945 127.149C227.945 127.03 232.452 126.928 238.006 126.928C243.56 126.928 248.075 127.03 248.075 127.149Z" fill="#429EFF"/>
<path d="M241.191 133.495C241.41 134.866 241.484 136.257 241.413 137.644C241.484 139.028 241.41 140.415 241.191 141.784C240.973 140.415 240.898 139.028 240.97 137.644C240.898 136.257 240.972 134.866 241.191 133.495Z" fill="#429EFF"/>
<path d="M359.089 201.04C359.089 201.04 359.089 200.938 359.089 200.75C359.089 200.563 359.089 200.273 359.089 199.898C359.089 199.166 359.089 198.135 359.047 196.823C359.047 194.148 358.996 190.34 358.962 185.655L359.123 185.826L330.16 185.877C329.956 186.081 330.424 185.613 330.382 185.664V187.666C330.382 188.339 330.382 189.003 330.382 189.667V193.578C330.382 196.133 330.382 198.629 330.382 200.997L330.177 200.784L350.971 200.887L356.994 200.946H358.612H359.183C359.01 200.958 358.836 200.958 358.663 200.946H357.087L351.124 200.997L330.186 201.1H329.973V201.04C329.973 198.672 329.973 196.184 329.973 193.62V185.706C329.922 185.706 330.39 185.28 330.194 185.476L359.157 185.536H359.328V185.706C359.328 190.434 359.26 194.276 359.234 196.976C359.234 198.271 359.234 199.285 359.234 200.018V200.801C359.199 200.888 359.15 200.969 359.089 201.04Z" fill="#429EFF"/>
<path d="M353.987 191.048C353.987 191.167 349.481 191.269 343.927 191.269C338.372 191.269 333.858 191.167 333.858 191.048C333.858 190.928 338.364 190.826 343.927 190.826C349.489 190.826 353.987 190.928 353.987 191.048Z" fill="#429EFF"/>
<path d="M353.987 194.352C353.987 194.48 349.481 194.574 343.927 194.574C338.372 194.574 333.858 194.48 333.858 194.352C333.858 194.225 338.364 194.131 343.927 194.131C349.489 194.131 353.987 194.225 353.987 194.352Z" fill="#429EFF"/>
<path d="M365.598 56.5293H336.584V71.8713H365.598V56.5293Z" fill="white"/>
<path d="M365.599 71.8714C365.599 71.8714 365.599 71.7692 365.599 71.5818C365.599 71.3944 365.599 71.1047 365.599 70.7299C365.599 69.9888 365.599 68.958 365.556 67.6547C365.556 64.9713 365.505 61.1635 365.471 56.4868L365.633 56.6486L336.627 56.7083C336.422 56.9042 336.891 56.4357 336.848 56.4868V60.4905C336.848 61.8194 336.848 63.1228 336.848 64.4006C336.848 66.9562 336.848 69.4521 336.848 71.8203L336.644 71.6159L357.438 71.7181L363.461 71.7692H365.079H365.65C365.477 71.7811 365.303 71.7811 365.13 71.7692H363.554L357.591 71.8288L336.652 71.9311H336.439V71.7181C336.439 69.3499 336.439 66.871 336.439 64.2984V56.5379L336.661 56.3164L365.667 56.3675H365.837V56.5379C365.837 61.2572 365.769 65.0565 365.752 67.808C365.752 69.0943 365.752 70.1166 365.752 70.8492C365.752 71.1644 365.752 71.4285 365.752 71.6244C365.715 71.7149 365.664 71.7985 365.599 71.8714Z" fill="#429EFF"/>
<path d="M360.503 61.8875C360.503 62.0068 355.988 62.109 350.434 62.109C344.88 62.109 340.365 62.0068 340.365 61.8875C340.365 61.7682 344.872 61.666 350.434 61.666C355.997 61.666 360.503 61.7597 360.503 61.8875Z" fill="#429EFF"/>
<path d="M360.503 65.1932C360.503 65.3124 355.988 65.4147 350.434 65.4147C344.88 65.4147 340.365 65.3124 340.365 65.1932C340.365 65.0739 344.872 64.9717 350.434 64.9717C355.997 64.9717 360.503 65.0654 360.503 65.1932Z" fill="#429EFF"/>
<path d="M345.665 71.8037C345.793 71.8037 345.886 80.8675 345.886 92.0354C345.886 103.203 345.793 112.276 345.665 112.276C345.537 112.276 345.443 103.212 345.443 92.0354C345.443 80.859 345.546 71.8037 345.665 71.8037Z" fill="#429EFF"/>
<path d="M29.2058 111.594C29.1938 111.498 29.1938 111.401 29.2058 111.305V110.495C29.2058 109.754 29.2058 108.723 29.2058 107.412C29.2058 104.737 29.1547 100.929 29.1206 96.2522L29.291 96.414L0.276521 96.4736L0.498005 96.2522V100.256C0.498005 101.576 0.498005 102.888 0.498005 104.166C0.498005 106.722 0.498005 109.218 0.498005 111.586L0.293558 111.381L21.0875 111.483L27.1102 111.535H28.7287H29.308C29.1321 111.546 28.9557 111.546 28.7799 111.535H27.2039L21.2409 111.594L0.302077 111.696H0.00392476V111.594C0.00392476 109.226 0.00392476 106.747 0.00392476 104.174V96.2607C-0.047187 96.3033 0.421338 95.8348 0.225409 96.0392L29.2399 96.0903H29.4017V96.2607C29.4017 100.98 29.3336 104.822 29.3165 107.531C29.3165 108.817 29.3165 109.839 29.3165 110.572C29.3165 110.887 29.3165 111.143 29.3165 111.347C29.3165 111.552 29.2058 111.594 29.2058 111.594Z" fill="#429EFF"/>
<path d="M24.1022 101.585C24.1022 101.713 19.5958 101.806 14.0332 101.806C8.47049 101.806 3.97266 101.713 3.97266 101.585C3.97266 101.457 8.47049 101.363 14.0332 101.363C19.5958 101.363 24.1022 101.466 24.1022 101.585Z" fill="#429EFF"/>
<path d="M24.1022 104.898C24.1022 105.017 19.5958 105.12 14.0332 105.12C8.47049 105.12 3.97266 105.017 3.97266 104.898C3.97266 104.779 8.47049 104.677 14.0332 104.677C19.5958 104.677 24.1022 104.779 24.1022 104.898Z" fill="#429EFF"/>
<path d="M81.3816 273.84H52.3672V289.182H81.3816V273.84Z" fill="white"/>
<path d="M81.3824 289.182C81.3704 289.086 81.3704 288.989 81.3824 288.893V288.083C81.3824 287.342 81.3824 286.312 81.3824 285C81.3824 282.325 81.3313 278.517 81.2887 273.84L81.4591 274.002L52.4446 274.062L52.6661 273.84V281.754C52.6661 284.31 52.6661 286.806 52.6661 289.174L52.4616 288.969L73.2641 289.072L79.2783 289.123H80.8968H81.4761C81.3003 289.135 81.1238 289.135 80.9479 289.123H79.372L73.409 289.182L52.4702 289.285H52.2657V289.072C52.2657 286.703 52.2657 284.225 52.2657 281.652V273.738L52.4872 273.517L81.5016 273.568H81.672V273.738C81.672 278.457 81.6039 282.299 81.5868 285C81.5868 286.295 81.5868 287.317 81.5442 288.049C81.5442 288.365 81.5442 288.62 81.5442 288.825C81.5097 288.952 81.4551 289.073 81.3824 289.182Z" fill="#429EFF"/>
<path d="M76.2797 279.189C76.2797 279.317 71.7734 279.411 66.2107 279.411C60.648 279.411 56.1502 279.317 56.1502 279.189C56.1502 279.061 60.6566 278.968 66.2107 278.968C71.7649 278.968 76.2797 279.07 76.2797 279.189Z" fill="#429EFF"/>
<path d="M76.2797 282.504C76.2797 282.623 71.7734 282.725 66.2107 282.725C60.648 282.725 56.1502 282.623 56.1502 282.504C56.1502 282.384 60.6566 282.282 66.2107 282.282C71.7649 282.282 76.2797 282.376 76.2797 282.504Z" fill="#429EFF"/>
<path d="M254.855 17.2077C254.855 17.2077 254.855 17.0969 254.855 16.918C254.855 16.7391 254.855 16.4325 254.855 16.0662C254.855 15.3251 254.855 14.2943 254.813 12.9909C254.813 10.3076 254.762 6.49975 254.728 1.82303L254.889 1.9934L225.884 2.04451C225.679 2.24044 226.148 1.77192 226.096 1.82303V9.73683C226.096 12.2924 226.096 14.7799 226.096 17.1566L225.884 16.9436L246.686 17.0458L252.709 17.1054H254.327H254.898C254.898 17.1054 254.728 17.1054 254.37 17.1054H252.802L246.839 17.1651L225.901 17.2673H225.696V17.2077C225.696 14.831 225.696 12.3521 225.696 9.78795V5.8779C225.696 5.21344 225.696 4.54899 225.696 3.87602V1.87414C225.654 1.92525 226.122 1.45673 225.926 1.65265L254.932 1.70377H255.102V1.86562C255.06 6.58494 255.034 10.4354 255.009 13.1358C255.009 14.4306 255.009 15.4443 254.966 16.1769V16.9606C254.943 17.0484 254.905 17.1318 254.855 17.2077Z" fill="#429EFF"/>
<path d="M249.753 7.21563C249.753 7.33489 245.246 7.43711 239.692 7.43711C234.138 7.43711 229.623 7.33489 229.623 7.21563C229.623 7.09637 234.129 6.99414 239.692 6.99414C245.255 6.99414 249.753 7.08785 249.753 7.21563Z" fill="#429EFF"/>
<path d="M249.753 10.5203C249.753 10.6396 245.246 10.7418 239.692 10.7418C234.138 10.7418 229.623 10.6396 229.623 10.5203C229.623 10.4011 234.129 10.2988 239.692 10.2988C245.255 10.2988 249.753 10.4011 249.753 10.5203Z" fill="#429EFF"/>
<path d="M35.9866 115.002C35.6591 115.071 35.3247 115.103 34.9899 115.095L32.2725 115.163C29.9725 115.163 26.8035 115.223 23.3024 115.223C19.6308 115.223 16.3256 115.223 14.0341 115.155H13.8808V115.002C13.8808 114.013 13.9319 113.17 13.9489 112.489C13.9419 112.183 13.9705 111.877 14.0341 111.577C14.1034 111.876 14.132 112.182 14.1193 112.489C14.1193 113.17 14.1193 114.013 14.1874 115.002L14.0341 114.857C16.3256 114.814 19.6308 114.78 23.3024 114.78C26.8035 114.78 29.9725 114.78 32.2725 114.848L34.9899 114.916C35.3242 114.91 35.6583 114.938 35.9866 115.002Z" fill="#429EFF"/>
<path d="M228.006 64.4434C228.024 64.2769 228.064 64.1136 228.125 63.9579C228.227 63.6086 228.364 63.1571 228.534 62.6119L230.05 57.6541C231.303 53.4714 232.93 47.6447 234.412 41.145C235.127 38.0101 235.749 35.003 236.277 32.26C236.192 27.873 236.116 24.1162 236.064 21.3903C236.064 20.104 236.064 19.0562 236.064 18.2725C236.044 17.9028 236.058 17.532 236.107 17.165C236.162 17.5318 236.193 17.9017 236.201 18.2725C236.201 19.0562 236.286 20.0954 236.337 21.3818C236.431 24.1077 236.559 27.8644 236.712 32.2515C236.209 35.003 235.596 38.0186 234.88 41.1535C233.39 47.6702 231.72 53.497 230.383 57.6626C229.718 59.7497 229.139 61.4278 228.73 62.5778L228.244 63.9067C228.19 64.0958 228.11 64.2764 228.006 64.4434Z" fill="#429EFF"/>
<path d="M107.449 282.504C107.449 282.623 101.946 282.725 95.1655 282.725C88.3847 282.725 82.8731 282.623 82.8731 282.504C82.8731 282.384 88.3762 282.282 95.1655 282.282C101.955 282.282 107.449 282.376 107.449 282.504Z" fill="#429EFF"/>
<path d="M198.003 342.236L195.771 361.267L202.595 362.213L209.776 344.323L198.003 342.236Z" fill="#E9B376"/>
<path d="M208.02 357.553C208.122 356.394 208.02 355.423 206.683 355.355L204.758 355.253C204.078 355.347 203.443 355.644 202.935 356.105C198.522 358.916 196.716 355.253 195.004 355.253C192.806 355.253 194.22 361.702 194.152 362.068L191.673 369.522C191.469 370.143 191.886 371.489 192.619 371.668C192.749 371.703 192.884 371.72 193.019 371.719H218.481C222.536 371.719 222.579 367.171 220.917 366.847C213.412 365.424 210.448 363.175 207.978 361.523C207.898 360.2 207.912 358.874 208.02 357.553Z" fill="#409CFF"/>
<path opacity="0.4" d="M218.516 371.719H193.053C192.918 371.72 192.784 371.702 192.653 371.668C192.159 371.549 191.801 370.893 191.699 370.28V369.709H221.761C221.509 370.349 221.057 370.89 220.472 371.252C219.887 371.615 219.201 371.778 218.516 371.719Z" fill="white"/>
<path d="M211.531 363.822C210.887 364.369 210.35 365.031 209.946 365.773C209.923 365.809 209.908 365.849 209.901 365.891C209.894 365.933 209.895 365.976 209.905 366.017C209.915 366.059 209.934 366.098 209.959 366.132C209.985 366.166 210.017 366.194 210.054 366.216C210.091 366.237 210.132 366.251 210.174 366.256C210.216 366.261 210.259 366.257 210.3 366.245C210.341 366.233 210.379 366.213 210.412 366.186C210.445 366.159 210.472 366.126 210.491 366.088C210.585 365.918 210.687 365.747 210.798 365.585L210.968 365.338L211.019 365.27V365.228L211.071 365.16C211.329 364.851 211.614 364.566 211.922 364.308C211.952 364.278 211.976 364.243 211.992 364.204C212.008 364.165 212.016 364.124 212.016 364.082C212.016 364.04 212.008 363.999 211.992 363.96C211.976 363.921 211.952 363.886 211.922 363.856C211.893 363.827 211.858 363.803 211.819 363.787C211.78 363.771 211.739 363.763 211.697 363.763C211.655 363.763 211.613 363.771 211.575 363.787C211.536 363.803 211.501 363.827 211.471 363.856L211.531 363.822Z" fill="#303436"/>
<path d="M209.188 362.519C208.599 363.04 208.093 363.649 207.689 364.325C207.668 364.36 207.654 364.4 207.648 364.441C207.642 364.482 207.644 364.524 207.654 364.565C207.665 364.605 207.683 364.643 207.708 364.676C207.733 364.71 207.764 364.738 207.8 364.759C207.835 364.78 207.875 364.794 207.916 364.8C207.958 364.806 208 364.804 208.04 364.794C208.08 364.783 208.118 364.765 208.151 364.74C208.185 364.715 208.213 364.684 208.234 364.648C208.328 364.487 208.431 364.331 208.541 364.18L208.703 363.958V363.916C208.732 363.874 208.763 363.835 208.796 363.796C209.039 363.493 209.304 363.209 209.589 362.945C209.619 362.915 209.643 362.88 209.659 362.841C209.675 362.803 209.684 362.761 209.684 362.719C209.684 362.677 209.675 362.635 209.659 362.596C209.643 362.558 209.619 362.522 209.589 362.493C209.528 362.434 209.447 362.401 209.363 362.401C209.279 362.401 209.198 362.434 209.137 362.493L209.188 362.519Z" fill="#303436"/>
<path d="M207.595 361.335C206.993 361.631 206.499 362.108 206.181 362.698C206.14 362.773 206.13 362.861 206.152 362.943C206.174 363.026 206.227 363.097 206.3 363.141C206.374 363.182 206.461 363.192 206.542 363.169C206.623 363.147 206.692 363.094 206.735 363.022C206.801 362.894 206.878 362.771 206.965 362.656C206.965 362.656 206.965 362.656 206.965 362.613L207.033 362.528L207.195 362.366C207.245 362.313 207.299 362.265 207.357 362.221H207.399L207.502 362.153C207.626 362.066 207.757 361.989 207.893 361.923C207.963 361.876 208.013 361.805 208.034 361.723C208.054 361.641 208.044 361.554 208.004 361.48C207.96 361.409 207.89 361.358 207.809 361.337C207.728 361.317 207.642 361.328 207.57 361.369L207.595 361.335Z" fill="#303436"/>
<path d="M207.747 358.916C207.04 358.923 206.34 359.053 205.677 359.299C205.601 359.328 205.539 359.383 205.502 359.455C205.466 359.527 205.457 359.61 205.478 359.688C205.5 359.766 205.549 359.833 205.618 359.876C205.686 359.919 205.768 359.935 205.848 359.921C206.453 359.683 207.097 359.559 207.747 359.555C207.832 359.553 207.913 359.518 207.974 359.458C208.034 359.397 208.069 359.316 208.071 359.231C208.069 359.147 208.034 359.067 207.973 359.008C207.913 358.949 207.832 358.916 207.747 358.916Z" fill="#303436"/>
<g opacity="0.3">
<path d="M200.583 359.801C200.59 360.144 200.507 360.482 200.341 360.781C200.174 361.08 199.932 361.33 199.637 361.505C199.215 361.668 198.759 361.729 198.309 361.684L194.254 361.573C194.041 359.81 193.47 355.517 195.148 355.517C196.46 355.517 197.849 357.979 200.609 357.263C200.566 358.166 200.609 359.359 200.583 359.801Z" fill="black"/>
</g>
<path d="M219.094 283.142C217.876 272.136 202.542 213.732 202.542 213.732L183.043 213.264L153.058 212.412C153.058 212.412 151.354 228.069 151.303 248.565C151.303 248.565 152.751 336.094 153.944 356.931L170.41 357.561C172.284 341.197 174.763 290.128 174.763 290.128C175.896 280.868 176.91 253.557 177.719 245.763C178.06 244.059 178.383 242.295 178.707 240.566C181.91 249.017 196.596 285.212 197.721 290.4L191.673 359.231L209.391 358.558C209.391 358.558 220.304 294.148 219.094 283.142Z" fill="#303436"/>
<path d="M192.235 216.007C193.206 218.851 194.863 221.412 197.059 223.464C199.255 225.516 201.922 226.995 204.826 227.771C204.857 227.781 204.886 227.796 204.911 227.817C204.937 227.838 204.958 227.863 204.973 227.892C204.988 227.921 204.998 227.953 205.001 227.985C205.004 228.018 205.001 228.051 204.992 228.082C204.982 228.113 204.967 228.142 204.946 228.168C204.925 228.193 204.899 228.214 204.871 228.229C204.842 228.245 204.81 228.254 204.778 228.258C204.745 228.261 204.712 228.258 204.681 228.248C201.694 227.446 198.951 225.922 196.693 223.81C194.435 221.697 192.731 219.061 191.732 216.135C191.63 215.828 192.133 215.7 192.235 216.007Z" fill="black"/>
<path d="M177.293 216.825L178.341 231.579C178.341 231.895 178.878 231.895 178.861 231.579C178.673 229.058 178.495 226.531 178.324 223.998C179.602 224.935 181.101 223.802 181.519 222.55C182.098 220.428 182.063 218.186 181.416 216.084C181.331 215.777 180.829 215.905 180.914 216.212C181.298 217.629 181.442 219.1 181.34 220.565C181.333 221.352 181.165 222.129 180.846 222.848C180.437 223.606 179.397 224.245 178.563 223.555C178.522 223.528 178.475 223.514 178.426 223.514C178.378 223.514 178.33 223.528 178.29 223.555C178.128 221.323 177.975 219.091 177.813 216.859C177.796 216.51 177.276 216.51 177.293 216.825Z" fill="black"/>
<path d="M165.077 215.922C165.145 222.439 159.847 227.848 152.998 228.402C152.666 228.402 152.674 227.942 152.998 227.916C159.574 227.431 164.634 222.158 164.558 215.922C164.569 215.861 164.601 215.806 164.648 215.766C164.696 215.727 164.756 215.705 164.818 215.705C164.879 215.705 164.939 215.727 164.987 215.766C165.034 215.806 165.066 215.861 165.077 215.922Z" fill="black"/>
<path d="M167.557 343.156L164.652 362.689L157.718 363.013L155.469 344.178L167.557 343.156Z" fill="#303436"/>
<path d="M151.814 371.753H167.335C167.564 371.038 167.546 370.267 167.284 369.564C167.225 369.317 167.148 369.044 167.046 368.712V368.669C166.901 368.226 166.739 367.69 166.56 367.102C165.985 364.511 165.586 361.884 165.368 359.239C165.368 359.239 162.429 356.53 159.405 357.799C156.755 358.907 157.164 360.355 157.164 360.355C157.164 360.355 157.164 363.993 155.111 365.637C153.867 366.65 152.632 367.434 152.044 368.703C151.929 368.945 151.84 369.2 151.78 369.461C151.776 369.495 151.776 369.53 151.78 369.564C151.641 370.288 151.652 371.033 151.814 371.753Z" fill="#409CFF"/>
<path opacity="0.4" d="M167.285 369.563C167.547 370.267 167.565 371.038 167.336 371.753H151.815C151.644 371.035 151.624 370.29 151.755 369.563H167.285Z" fill="white"/>
<path d="M157.999 362.893C158.413 362.594 158.918 362.447 159.429 362.476C159.939 362.506 160.424 362.71 160.801 363.055C161.014 363.243 161.338 362.944 161.125 362.757C160.66 362.347 160.069 362.107 159.45 362.077C158.83 362.048 158.219 362.231 157.718 362.595C157.488 362.766 157.811 363.055 158.041 362.893H157.999Z" fill="#303436"/>
<path d="M157.6 364.248C158.015 363.951 158.52 363.804 159.03 363.834C159.54 363.863 160.024 364.067 160.402 364.41C160.615 364.598 160.939 364.3 160.726 364.112C160.258 363.691 159.659 363.445 159.03 363.415C158.401 363.386 157.781 363.575 157.276 363.95C157.046 364.121 157.37 364.419 157.6 364.248Z" fill="#303436"/>
<path d="M157.121 365.45C157.535 365.151 158.039 365.003 158.549 365.031C159.059 365.058 159.545 365.261 159.924 365.603C160.137 365.799 160.46 365.501 160.247 365.313C159.779 364.892 159.18 364.646 158.551 364.616C157.922 364.587 157.303 364.776 156.797 365.151C156.559 365.313 156.891 365.611 157.121 365.45Z" fill="#303436"/>
<path opacity="0.2" d="M151.057 182.801V157.808C151.057 157.808 147.394 183.423 149.234 189.778L151.057 182.801Z" fill="black"/>
<path d="M189.117 103.348C191.396 104.784 193.271 106.777 194.565 109.14C195.859 111.503 196.529 114.156 196.511 116.85C195.796 122.302 193.905 126.161 192.431 131.468L177.949 99.54C181.306 100.213 182.83 99.5145 189.117 103.348Z" fill="#303436"/>
<path d="M181.825 100.52C176.161 97.8878 170.598 100.997 167.344 103.152C165.589 104.64 164.17 106.483 163.179 108.559C162.188 110.635 161.648 112.898 161.594 115.198C161.594 119.542 161.594 124.815 164.235 127.081C164.967 127.724 165.826 128.208 166.756 128.501C167.686 128.794 168.666 128.891 169.635 128.785L191.136 108.945C188.802 105.389 185.597 102.489 181.825 100.52Z" fill="#303436"/>
<path d="M182.191 159.299C180.539 161.003 179.031 160.44 176.825 159.537C163.697 154.818 167.582 148.463 167.582 148.463C170.069 145.541 170.18 142.049 169.286 136.716C169.277 136.56 169.277 136.403 169.286 136.247C169.293 135.536 169.522 134.845 169.942 134.271C170.201 133.889 170.534 133.561 170.921 133.308C171.308 133.055 171.741 132.88 172.195 132.795C172.65 132.709 173.116 132.715 173.569 132.81C174.021 132.905 174.45 133.089 174.831 133.351L180.709 135.055L180.76 135.31C180.76 138.224 180.692 140.49 180.709 142.27C180.726 142.486 180.726 142.702 180.709 142.917C180.73 143.136 180.73 143.355 180.709 143.573C180.854 146.01 184.968 149.596 186.672 150.439C187.694 151.019 187.805 153.557 182.191 159.299Z" fill="#B97964"/>
<path opacity="0.2" d="M180.677 135.029C180.685 135.119 180.702 135.207 180.728 135.293C180.728 138.207 180.668 140.473 180.685 142.253C180.668 142.469 180.668 142.685 180.685 142.901C180.694 143.126 180.72 143.351 180.762 143.574C176.307 142.369 172.326 139.831 169.355 136.299C169.361 135.598 169.571 134.914 169.96 134.331C170.479 133.555 171.284 133.016 172.199 132.833C173.113 132.649 174.064 132.835 174.841 133.351L180.677 135.029Z" fill="black"/>
<path d="M164.832 116.475C165.062 126.535 164.934 130.778 169.713 136.238C176.902 144.433 188.948 142.201 191.716 132.379C194.144 123.494 193.42 108.578 183.939 103.97C174.458 99.3611 164.619 106.414 164.832 116.475Z" fill="#B97964"/>
<path d="M160.385 125.088C160.831 126.065 161.465 126.944 162.252 127.675C163.038 128.406 163.961 128.974 164.968 129.347C167.583 130.242 169.321 126.059 168.639 123.307C168.312 122.068 167.553 120.986 166.499 120.255C165.445 119.524 164.165 119.193 162.889 119.321C160.283 119.593 159.218 122.609 160.385 125.088Z" fill="#B97964"/>
<path opacity="0.2" d="M166.117 125.028C166.133 124.055 165.763 123.115 165.088 122.414C164.412 121.713 163.487 121.308 162.514 121.288" stroke="black" stroke-width="0.5" stroke-linecap="round" stroke-linejoin="round"/>
<path d="M177.932 120.803C177.89 121.876 178.392 122.805 179.057 122.873C179.721 122.941 180.292 122.132 180.326 121.058C180.36 119.985 179.866 119.065 179.201 118.988C178.537 118.912 177.975 119.738 177.932 120.803Z" fill="#303436"/>
<path d="M187.883 121.62C187.883 122.66 188.351 123.554 189.016 123.622C189.68 123.69 190.242 122.907 190.276 121.867C190.31 120.828 189.808 119.934 189.152 119.865C188.496 119.797 187.925 120.581 187.883 121.62Z" fill="#303436"/>
<path d="M176.143 116.91C176.207 116.924 176.273 116.923 176.336 116.908C176.399 116.894 176.458 116.865 176.509 116.825C176.979 116.443 177.537 116.184 178.132 116.071C178.726 115.958 179.34 115.995 179.917 116.178C179.976 116.203 180.039 116.216 180.104 116.215C180.168 116.214 180.231 116.199 180.289 116.172C180.347 116.144 180.399 116.105 180.44 116.056C180.482 116.007 180.513 115.95 180.53 115.888C180.567 115.76 180.556 115.623 180.497 115.504C180.439 115.384 180.339 115.29 180.215 115.241C179.49 114.995 178.715 114.937 177.962 115.071C177.208 115.205 176.501 115.527 175.905 116.007C175.854 116.048 175.812 116.099 175.781 116.157C175.75 116.214 175.731 116.277 175.725 116.342C175.719 116.407 175.725 116.473 175.744 116.535C175.764 116.598 175.795 116.656 175.837 116.706C175.91 116.81 176.019 116.883 176.143 116.91Z" fill="#303436"/>
<path d="M191.673 116.833C191.727 116.82 191.777 116.796 191.821 116.762C191.865 116.729 191.902 116.686 191.928 116.637C191.976 116.519 191.983 116.388 191.948 116.266C191.912 116.144 191.836 116.037 191.732 115.964C191.165 115.521 190.492 115.232 189.781 115.125C189.069 115.018 188.342 115.095 187.669 115.351C187.564 115.413 187.487 115.514 187.456 115.631C187.424 115.749 187.439 115.874 187.498 115.981C187.547 116.095 187.638 116.186 187.752 116.235C187.867 116.284 187.995 116.288 188.112 116.245C188.647 116.051 189.223 115.996 189.785 116.087C190.347 116.178 190.877 116.411 191.323 116.765C191.373 116.802 191.43 116.827 191.49 116.839C191.551 116.851 191.613 116.849 191.673 116.833Z" fill="#303436"/>
<path d="M185.217 120.896C185.944 123.126 186.897 125.276 188.062 127.311C188.124 127.415 188.161 127.532 188.171 127.653C188.18 127.773 188.161 127.895 188.116 128.007C188.071 128.119 188 128.219 187.909 128.299C187.819 128.38 187.711 128.438 187.594 128.47C186.692 128.661 185.754 128.599 184.885 128.291L185.217 120.896Z" fill="#A24E3F"/>
<path d="M178.818 119.006L181.187 118.656C181.187 118.656 179.747 120.275 178.818 119.006Z" fill="#303436"/>
<path d="M188.904 119.866L191.272 119.517C191.272 119.517 189.858 121.135 188.904 119.866Z" fill="#303436"/>
<path d="M184.228 131.051C183.509 131.941 182.857 132.883 182.277 133.871L181.715 133.649C179.16 132.627 178.308 131.315 178.163 130.165C178.09 129.589 178.16 129.004 178.367 128.461C178.469 128.159 178.612 127.872 178.793 127.609C179.815 128.964 182.116 130.097 183.368 130.651C183.887 130.923 184.228 131.051 184.228 131.051Z" fill="#303436"/>
<path d="M183.368 130.684L182.771 131.536C180.378 130.565 178.819 129.568 178.367 128.537C178.469 128.235 178.612 127.948 178.793 127.686C179.816 128.997 182.116 130.13 183.368 130.684Z" fill="white"/>
<path d="M181.714 133.649C179.159 132.627 178.307 131.315 178.162 130.165C179.122 130.575 180.001 131.152 180.76 131.869C181.256 132.348 181.589 132.971 181.714 133.649Z" fill="#DE5753"/>
<path d="M168.314 118.928C168.314 118.928 174.056 112.369 174.235 106.755C174.235 106.755 194.782 102.198 192.891 119.934C192.891 119.934 197.329 104.6 180.547 102.087C163.765 99.574 160.29 121.51 167.897 129.151C167.931 129.074 164.762 123.043 168.314 118.928Z" fill="#303436"/>
<path d="M150.401 105.571C150.538 107.179 151.14 108.713 152.134 109.984C153.128 111.256 154.471 112.211 155.999 112.732C157.526 113.254 159.172 113.319 160.737 112.921C162.301 112.523 163.715 111.678 164.807 110.489C165.899 109.301 166.622 107.82 166.886 106.228C167.151 104.635 166.947 103.001 166.298 101.523C165.649 100.045 164.584 98.7875 163.233 97.9044C161.882 97.0214 160.303 96.5507 158.689 96.5498C156.398 96.6582 154.242 97.6666 152.69 99.3558C151.138 101.045 150.315 103.279 150.401 105.571Z" fill="#303436"/>
<path d="M188.18 104.286C190.386 106.409 191.862 109.176 192.397 112.191C192.397 114.38 189.415 115.956 189.415 115.956L185.778 111.186V115.377C179.815 114.729 176.407 111.561 174.346 107.003L177.659 101.04C177.659 101.04 186.204 102.573 188.18 104.286Z" fill="#303436"/>
<path d="M159.797 110.367C159.263 112.753 157.891 114.869 155.93 116.33C156.99 116.411 158.048 116.155 158.954 115.598C158.908 116.455 158.717 117.299 158.392 118.094C159.593 117.079 160.553 115.81 161.202 114.377C161.85 112.945 162.171 111.386 162.14 109.813L159.797 110.367Z" fill="#303436"/>
<path d="M228.303 172.297C228.405 170.534 223.192 180.654 223.192 180.654L214.35 174.41L221.386 167.331C221.386 167.331 228.533 171.999 228.422 172.153" fill="#B97964"/>
<path d="M192.772 149.383C195.11 150.538 197.196 152.145 198.908 154.112C200.62 156.079 201.925 158.366 202.748 160.841C204.756 167.289 206.203 173.898 207.075 180.595L218.243 170.654L226.566 176.83C226.566 176.83 215.636 193.399 208.276 199.83C202.168 205.188 195.251 194.787 195.251 194.787L192.244 149.11L192.772 149.383Z" fill="#409CFF"/>
<path opacity="0.2" d="M171.178 208.689L168.776 246.359L147.232 243.786V239.919L171.178 208.689Z" fill="black"/>
<path d="M160.759 209.635C159.907 200.077 156.499 182.571 150.681 164.18C148.781 158.217 155.571 151.589 155.571 151.589C155.571 151.589 159.958 151.248 160.759 151.155C161.559 151.061 162.548 150.967 163.451 150.882C170.265 150.32 175.862 149.911 181.944 150.26C183.478 150.345 185.045 150.473 186.587 150.601C187.09 150.652 190.318 150.703 190.795 150.754C190.795 150.754 199.544 160.977 200.021 168.217C200.277 172.255 202.227 173.993 202.006 183.653C202.006 190.213 197.21 199.762 196.775 208.988L160.759 209.635Z" fill="white"/>
<path d="M172.685 177.529C172.225 162.536 170.454 153.012 169.653 149.375C169.55 148.914 169.28 148.507 168.894 148.235C168.508 147.962 168.035 147.843 167.566 147.901L161.773 149.128C156.1 150.635 153.058 149.818 149.898 154.034C149.285 154.886 148.774 161.13 148.816 161.999C148.893 163.541 149.966 168.269 151.372 173.977C152.351 177.938 153.51 182.393 154.626 186.584C156.049 191.925 157.233 193.322 157.693 195.026L142.998 238.369C142.898 238.642 142.861 238.933 142.891 239.222C142.921 239.511 143.016 239.79 143.17 240.036C143.324 240.282 143.531 240.491 143.778 240.645C144.024 240.799 144.302 240.894 144.591 240.924L165.683 243.131C166.178 243.181 166.673 243.036 167.062 242.725C167.45 242.414 167.702 241.964 167.762 241.47C168.835 232.644 173.214 194.762 172.685 177.529Z" fill="#409CFF"/>
<path d="M200.396 206.909C200.396 206.909 204.817 179.488 203.642 172.622C202.466 165.756 192.244 149.128 192.244 149.128L187.575 148.804L182.047 146.563C182.047 146.563 194.825 161.948 197.934 173.056C199.987 180.348 195.881 203.425 196.358 208.997L198.735 220.514L204.596 220.25L200.396 206.909Z" fill="#409CFF"/>
<path d="M168.861 145.541C168.861 145.541 174.602 156.862 172.43 185.348L162.898 164.904L166.348 159.307L161.773 150.166C161.773 150.166 166.672 147.014 168.725 145.345L168.861 145.541Z" fill="#409CFF"/>
<g opacity="0.2">
<path d="M168.861 145.541C168.861 145.541 174.602 156.862 172.43 185.348L162.898 164.904L166.348 159.307L161.773 150.166C161.773 150.166 166.672 147.014 168.725 145.345L168.861 145.541Z" fill="black"/>
</g>
<path d="M198.233 185.511C198.233 185.511 200.362 179.232 199.936 173.431C199.511 167.63 199.459 163.311 199.459 163.311L192.917 158.447L193.769 152.526C193.769 152.526 190.6 150.576 187.653 148.582C185.642 147.219 181.69 145.175 181.17 145.311C181.17 145.311 197.969 166.608 198.054 175.271C198.148 183.662 198.233 185.511 198.233 185.511Z" fill="#409CFF"/>
<path opacity="0.3" d="M198.233 185.511C198.233 185.511 200.362 179.232 199.936 173.431C199.511 167.63 199.459 163.311 199.459 163.311L192.917 158.447L193.769 152.526C193.769 152.526 190.6 150.576 187.653 148.582C185.642 147.219 181.69 145.175 181.17 145.311C181.17 145.311 197.969 166.608 198.054 175.271C198.148 183.662 198.233 185.511 198.233 185.511Z" fill="black"/>
<path opacity="0.3" d="M201.461 200.094L203.752 178.942L204.604 200.776C203.524 200.737 202.46 200.507 201.461 200.094Z" fill="black"/>
<path d="M185.421 150.984L180.898 144.817L178.751 148.514L169.832 143.113L168.725 145.328L171.894 154.622C171.894 154.622 179.807 157.868 180.233 157.868C180.659 157.868 185.421 150.984 185.421 150.984Z" fill="white"/>
<path opacity="0.3" d="M185.626 151.274L183.777 155.849L179.177 151.274L176.051 156.641L171.383 154.358L176.358 158.294L179.246 152.416L184.51 157.374L185.626 151.274Z" fill="black"/>
<path opacity="0.3" d="M161.006 194.447L159.209 174.249L157.82 196.244L178.691 204.737L161.006 194.447Z" fill="black"/>
<path d="M152.752 151.274C150.732 151.864 148.918 153.008 147.516 154.577C146.114 156.146 145.18 158.077 144.821 160.151C143.543 167.392 141.856 203.596 143.296 205.87C144.736 208.145 185.037 221.127 185.037 221.127L189.356 209.934L158.894 195.188C158.894 195.188 159.141 184.846 159.388 176.796C159.516 172.537 159.652 168.908 159.746 167.792C160.078 164.555 152.752 151.274 152.752 151.274Z" fill="#409CFF"/>
<path d="M189.263 210.614C189.263 210.614 194.894 211.228 198.736 213.255C200.261 214.056 206.156 219.158 206.156 219.158L185.617 220.07L189.263 210.614Z" fill="#B97964"/>
<path opacity="0.3" d="M152.633 210.035L170.522 216.399V218.579L151.781 212.667L152.633 210.035Z" fill="black"/>
<path opacity="0.2" d="M179.244 152.415C188.742 168.984 188.214 190.527 188.742 208.817" stroke="black" stroke-width="0.5" stroke-linecap="round" stroke-linejoin="round"/>
<path d="M221.803 168.37C221.803 168.37 220.099 165.627 220.704 163.029C221.309 160.431 221.139 158.182 221.735 156.282C222.331 154.383 223.439 156.845 223.703 158.276C223.967 159.707 224.359 161.325 225.406 160.925C226.454 160.525 232.468 153.105 233.976 152.713C235.484 152.321 234.871 153.829 234.871 153.829C234.871 153.829 236.387 152.066 237.247 152.475C237.469 152.585 237.818 153.19 237.247 154.102C235.978 156.155 233.099 160.32 233.099 160.32C233.261 160.073 237.179 155.209 237.869 154.536C238.721 153.684 239.573 153.727 240.093 154.264C240.783 155.022 236.123 161.249 236.106 161.649C236.106 161.649 238.661 157.969 239.982 158.114C241.302 158.259 239.803 160.67 238.091 162.527C236.523 164.23 233.891 168.013 232.128 169.597C229.947 171.548 228.047 172.374 225.534 171.301C224.058 170.662 222.773 169.653 221.803 168.37Z" fill="#B97964"/>
<path opacity="0.3" d="M234.624 154.025C233.448 155.465 232.332 156.964 231.293 158.506" stroke="black" stroke-width="0.5" stroke-linecap="round" stroke-linejoin="round"/>
<path opacity="0.3" d="M235.16 163.106C233.748 161.141 231.79 159.634 229.529 158.771" stroke="black" stroke-width="0.5" stroke-linecap="round" stroke-linejoin="round"/>
<path opacity="0.3" d="M225.748 162.084C226.412 162.818 226.8 163.76 226.845 164.748C226.89 165.737 226.59 166.711 225.995 167.502" stroke="black" stroke-width="0.5" stroke-linecap="round" stroke-linejoin="round"/>
<path d="M189.117 217.055C188.878 220.036 193.376 220.138 193.538 221.689C193.622 222.59 193.846 223.472 194.203 224.304C194.203 224.304 191.511 223.324 191.724 224.304C191.937 225.284 192.098 228.427 194.663 229.202C197.227 229.977 202.721 227.175 203.479 226.536C204.237 225.897 204.016 222.549 204.016 222.549C204.016 222.549 204.945 226.153 205.217 228.137C205.49 230.122 207.773 230.488 207.253 227.728C207.049 226.595 206.98 217.642 206.06 216.654C205.14 215.666 196.051 212.114 196.051 212.114C192.823 210.853 187.694 214.158 189.117 217.055Z" fill="#B97964"/>
<g opacity="0.3">
<path d="M204.264 222.516C204.324 221.598 204.264 220.676 204.085 219.773C204.076 219.741 204.061 219.71 204.041 219.684C204.02 219.657 203.994 219.635 203.965 219.618C203.936 219.602 203.903 219.591 203.87 219.587C203.836 219.583 203.803 219.585 203.77 219.594C203.714 219.61 203.665 219.645 203.632 219.694C203.6 219.742 203.585 219.8 203.591 219.858C203.763 220.713 203.82 221.587 203.762 222.457C203.762 222.78 204.247 222.84 204.264 222.516Z" fill="black"/>
<path d="M201.547 227.133C201.402 227.414 201.811 227.712 201.964 227.423C202.816 225.719 202.356 224.015 201.785 222.311C201.683 222.005 201.223 222.218 201.325 222.524C201.819 224.041 202.305 225.642 201.547 227.133Z" fill="black"/>
<path d="M199.341 228.445C199.769 227.734 200.011 226.927 200.047 226.098C200.083 225.27 199.91 224.445 199.545 223.7C199.528 223.671 199.505 223.647 199.478 223.627C199.451 223.608 199.42 223.594 199.387 223.587C199.355 223.58 199.321 223.579 199.288 223.585C199.255 223.592 199.224 223.605 199.196 223.623C199.15 223.655 199.115 223.699 199.096 223.751C199.076 223.803 199.072 223.859 199.085 223.913C199.413 224.58 199.571 225.319 199.544 226.062C199.517 226.805 199.307 227.53 198.932 228.172C198.753 228.436 199.171 228.726 199.341 228.445Z" fill="black"/>
<path d="M195.576 226.042C195.848 226.173 196.133 226.273 196.428 226.34C196.743 226.408 196.922 225.94 196.607 225.863C196.131 225.759 195.681 225.559 195.286 225.275C194.89 224.99 194.557 224.628 194.306 224.211C194.145 223.921 193.685 224.142 193.846 224.415C194.142 224.943 194.556 225.395 195.056 225.735C195.056 225.735 195.056 225.803 195.056 225.838C195.148 226.095 195.16 226.375 195.09 226.639C195.02 226.904 194.872 227.141 194.664 227.32C194.613 227.363 194.582 227.424 194.576 227.49C194.571 227.557 194.592 227.623 194.634 227.673C194.677 227.724 194.739 227.756 194.805 227.761C194.871 227.767 194.937 227.746 194.988 227.703C195.215 227.496 195.388 227.236 195.49 226.946C195.593 226.657 195.622 226.346 195.576 226.042Z" fill="black"/>
</g>
</svg>
