<svg width="477" height="290" viewBox="0 0 477 290" fill="none" xmlns="http://www.w3.org/2000/svg">
<g filter="url(#filter0_d_5_3)">
<ellipse cx="252" cy="179" rx="174" ry="101" fill="url(#paint0_radial_5_3)"/>
<g clip-path="url(#clip0_5_3)">
<path opacity="0.5" d="M396.26 186.775V155.825C395.333 144.92 391.191 134.535 384.358 125.984V156.934C391.182 165.471 395.324 175.839 396.26 186.729V186.775ZM380.786 152.638V121.688C378.228 118.824 375.486 116.129 372.579 113.62V144.57C375.486 147.078 378.228 149.773 380.786 152.638ZM367.513 140.443V109.493C364.159 106.943 360.674 104.568 357.073 102.38V133.329C360.674 135.518 364.159 137.892 367.513 140.443ZM350.067 138.487V89.2146C378.568 104.428 396.368 125.984 396.368 149.943V199.216C396.368 175.273 378.568 153.654 350.067 138.518V138.487Z" fill="#7F7F7F"/>
<path opacity="0.5" d="M297.93 114.852V105.967C295.744 105.552 293.557 105.167 291.325 104.797V113.666C293.557 114.02 295.744 114.405 297.93 114.821V114.852ZM286.059 104.073V96.2052C283.811 95.8972 281.532 95.62 279.238 95.3737V103.242C281.532 103.488 283.857 103.765 286.059 104.073ZM309.34 108.523V97.7449C307.246 97.2214 305.137 96.7287 302.996 96.2052V106.984C305.137 107.446 307.246 107.938 309.34 108.446V108.523ZM273.787 102.703V86.8125C271.467 86.6175 269.126 86.4481 266.765 86.3044V102.133C269.126 102.277 271.467 102.446 273.787 102.641V102.703ZM248.303 101.81V85.9503C245.917 85.9503 243.546 86.0427 241.19 86.1504V101.964C243.546 101.856 245.917 101.795 248.303 101.748V101.81ZM235.647 102.318V82.3472C233.321 82.5012 231.027 82.6859 228.702 82.9015V102.888C230.996 102.672 233.321 102.487 235.647 102.333V102.318ZM261.176 101.949V79.1598C259.036 79.0829 256.895 79.0367 254.74 79.0059H253.97V101.795H254.74C256.895 101.795 259.036 101.872 261.176 101.949ZM223.313 103.488V74.8793C221.034 75.141 218.786 75.449 216.553 75.7724V104.274C218.786 103.95 221.034 103.642 223.313 103.381V103.488ZM202.033 72.5542C219.347 68.8838 237.011 67.1231 254.709 67.3036C277.801 67.3997 300.747 70.9603 322.782 77.8664V127.139C300.751 120.215 277.803 116.644 254.709 116.546C237.006 116.33 219.332 118.05 202.002 121.673V72.4003L202.033 72.5542Z" fill="#7F7F7F"/>
<path opacity="0.5" d="M118.269 139.226V129.31C115.397 133.405 113.049 137.843 111.279 142.521V171.885C113.046 167.205 115.394 162.767 118.269 158.674V148.758C119.116 147.526 120.025 146.325 120.979 145.124V150.467C122.825 148.141 124.804 145.925 126.908 143.83V138.472C136.146 129.125 148.557 120.934 163.2 114.328V104.797C160.598 105.967 158.057 107.199 155.609 108.477C154.377 109.108 153.161 109.755 151.975 110.417C143.144 115.207 134.993 121.157 127.739 128.109L126.908 128.941V123.598C124.808 125.696 122.829 127.912 120.979 130.234V135.593C120.025 136.778 119.116 137.995 118.269 139.226ZM109.354 138.918C114.959 114.883 138.487 94.2649 171.884 81.3154V130.588C138.487 143.461 114.913 164.155 109.354 188.191V138.918Z" fill="#7F7F7F"/>
<path opacity="0.75" d="M126.908 128.941L127.739 128.109V137.64C133.035 132.524 138.845 127.968 145.077 124.044C147.294 122.638 149.594 121.273 151.975 119.948V110.417C153.161 109.755 154.377 109.108 155.609 108.477V118.008C158.057 116.73 160.598 115.498 163.2 114.328C148.557 120.934 136.146 129.064 126.908 138.472V128.941ZM118.269 139.226C119.116 137.995 120.025 136.778 120.979 135.592V145.124C120.025 146.325 119.116 147.526 118.269 148.758V139.226Z" fill="#7F7F7F"/>
<path opacity="0.88" d="M155.609 108.477C158.057 107.199 160.598 105.967 163.2 104.797V114.328C160.598 115.499 158.057 116.73 155.609 118.008V108.477Z" fill="#7F7F7F"/>
<path opacity="0.88" d="M127.739 128.109C133.035 122.993 138.845 118.437 145.077 114.513V124.044C138.845 127.968 133.035 132.524 127.739 137.641V128.109Z" fill="#7F7F7F"/>
<path opacity="0.97" d="M145.077 114.513C147.294 113.107 149.594 111.741 151.975 110.417V119.948C149.583 121.273 147.284 122.638 145.077 124.044V114.513Z" fill="#7F7F7F"/>
<path opacity="0.75" d="M111.279 142.522C113.049 137.843 115.397 133.405 118.269 129.31V139.226C115.394 143.32 113.046 147.758 111.279 152.438V161.969C113.049 157.291 115.397 152.853 118.269 148.758V158.674C115.394 162.767 113.046 167.206 111.279 171.885V142.522Z" fill="#7F7F7F"/>
<path opacity="0.88" d="M111.279 152.438C113.046 147.758 115.394 143.32 118.269 139.227V148.758C115.397 152.853 113.049 157.291 111.279 161.969V152.438Z" fill="#7F7F7F"/>
<path opacity="0.75" d="M120.979 145.124C122.825 142.793 124.804 140.572 126.908 138.472V143.83C124.804 145.925 122.825 148.141 120.979 150.467V145.124ZM120.979 130.234C122.829 127.912 124.808 125.696 126.908 123.598V128.941C124.804 131.041 122.825 133.262 120.979 135.592V130.234Z" fill="#7F7F7F"/>
<path opacity="0.88" d="M120.979 135.593C122.825 133.262 124.804 131.041 126.908 128.941V138.472C124.804 140.572 122.825 142.793 120.979 145.124V135.593Z" fill="#7F7F7F"/>
<path opacity="0.75" d="M384.358 125.984C391.182 134.522 395.324 144.89 396.26 155.779V186.729C395.324 175.839 391.182 165.471 384.358 156.934V125.984Z" fill="#7F7F7F"/>
<path d="M372.579 113.666C375.486 116.175 378.228 118.87 380.786 121.735V152.684C378.228 149.82 375.486 147.124 372.579 144.616V113.666Z" fill="#7F7F7F"/>
<path opacity="0.75" d="M357.073 102.38C360.674 104.568 364.159 106.943 367.513 109.493V140.443C364.159 137.892 360.674 135.518 357.073 133.329V102.38Z" fill="#7F7F7F"/>
<path opacity="0.75" d="M302.996 96.2668C305.137 96.7288 307.246 97.2215 309.34 97.8066V108.585C307.246 108.077 305.137 107.584 302.996 107.122V96.3438V96.2668Z" fill="#7F7F7F"/>
<path opacity="0.75" d="M291.325 104.797C293.557 105.167 295.744 105.552 297.93 105.967V114.852C295.744 114.436 293.557 114.051 291.325 113.697V104.797Z" fill="#7F7F7F"/>
<path opacity="0.75" d="M279.238 95.312C281.532 95.5584 283.857 95.8355 286.059 96.1435V104.012C283.811 103.704 281.532 103.427 279.238 103.18V95.312Z" fill="#7F7F7F"/>
<path opacity="0.75" d="M266.765 86.3044C269.126 86.4379 271.467 86.6072 273.787 86.8125V102.641C271.467 102.446 269.126 102.277 266.765 102.133V86.3044Z" fill="#7F7F7F"/>
<path opacity="0.75" d="M253.97 78.9443H254.74C256.895 78.9443 259.036 79.0213 261.176 79.0983V101.887C259.036 101.81 256.895 101.764 254.74 101.733H253.97V78.9443Z" fill="#7F7F7F"/>
<path d="M241.19 86.1196C243.546 86.0118 245.917 85.9502 248.303 85.9194V101.748C245.917 101.748 243.546 101.856 241.19 101.964V86.1196Z" fill="#7F7F7F"/>
<path opacity="0.75" d="M228.702 82.8707C230.996 82.6551 233.321 82.4704 235.647 82.3164V102.226C233.321 102.38 231.027 102.564 228.702 102.78V82.8707Z" fill="#7F7F7F"/>
<path d="M216.553 75.7725C218.786 75.4491 221.034 75.1412 223.313 74.8794V103.381C221.034 103.642 218.786 103.95 216.553 104.274V75.7725Z" fill="#7F7F7F"/>
<path opacity="0.2" d="M252.014 212.227C283.589 212.227 309.186 197.447 309.186 179.214C309.186 160.982 283.589 146.202 252.014 146.202C220.439 146.202 194.842 160.982 194.842 179.214C194.842 197.447 220.439 212.227 252.014 212.227Z" fill="#1C3958"/>
<path d="M262.7 53.6149C262.7 53.6149 275.173 56.4481 279.361 57.4335C279.706 57.512 280.027 57.6737 280.295 57.9045C280.563 58.1353 280.771 58.4282 280.901 58.7577C282.117 61.8373 285.15 71.3531 282.856 85.2727C281.163 94.7093 280.502 104.302 280.885 113.882L286.644 143.923C286.644 143.923 293.896 172.516 293.28 173.302C292.664 174.087 276.574 186.313 271.554 184.604C266.534 182.894 268.182 179.984 268.182 179.984C268.182 179.984 266.288 194.628 248.257 194.427C230.226 194.227 226.331 195.059 223.267 187.776C221.942 184.619 209.948 183.326 209.178 175.719C208.008 164.078 212.504 149.959 214.305 143.06C217.477 130.942 225.084 106.783 225.084 106.783L198.692 77.5276L221.25 60.2975C221.25 60.2975 226.639 50.289 228.841 49.011C231.043 47.733 232.213 48.8108 232.213 48.8108L262.7 53.6149Z" fill="#416C9A"/>
<path d="M251.275 201.048C274.5 201.048 293.327 189.729 293.327 175.765C293.327 161.802 274.5 150.482 251.275 150.482C228.051 150.482 209.224 161.802 209.224 175.765C209.224 189.729 228.051 201.048 251.275 201.048Z" fill="#416C9A"/>
<path d="M229.333 48.857C229.333 48.857 224.714 54.431 231.351 61.9605C237.743 69.7928 243.461 78.1529 248.442 86.951C252.168 93.418 255.633 96.8825 257.588 102.441C257.588 102.441 257.865 95.8355 258.127 85.6268C258.374 75.9878 258.497 65.9793 258.127 63.4541C257.188 58.2342 234.43 46.3317 229.333 48.857Z" fill="#F1F6FC"/>
<path d="M246.564 65.6253C246.564 65.6253 248.919 67.0881 249.735 66.9649C250.994 66.2722 252.15 65.4066 253.169 64.3934C253.169 64.3934 259.713 64.2703 260.422 61.4679C260.89 59.0709 261.507 56.7054 262.269 54.3849C262.931 52.9221 265.749 45.9316 265.78 43.0984C265.811 40.2652 265.688 35.1993 266.919 32.5201C268.151 29.8409 269.783 2.98718 243.823 3.74167C217.862 4.49616 225.946 31.4576 225.946 31.4576C225.946 31.4576 224.067 32.2738 225.207 35.7383C226.346 39.2027 226.608 39.5569 227.193 41.2814C227.551 42.9259 228.438 44.4079 229.718 45.5004L230.15 48.6877C229.833 50.3412 229.846 52.0409 230.186 53.6895C230.527 55.3382 231.19 56.9035 232.136 58.296C235.4 62.8537 246.564 65.6253 246.564 65.6253Z" fill="#FCD1C6"/>
<path d="M280.084 57.7571C280.084 57.7571 282.841 58.1574 291.818 80.7151C296.822 93.3105 304.536 106.352 306.168 115.699C307.8 125.045 306.892 135.054 305.044 135.716C303.196 136.378 271.046 148.45 260.96 152.253C260.83 152.303 260.691 152.323 260.552 152.312C260.413 152.302 260.278 152.26 260.157 152.191C260.037 152.122 259.933 152.026 259.853 151.912C259.774 151.797 259.721 151.667 259.698 151.529L256.911 135.978L276.928 128.279C279.006 125.736 281.506 123.569 284.319 121.873C284.319 121.873 280.3 114.482 280.562 112.465C280.824 110.448 280.208 89.5842 282.548 81.1001C284.889 72.6159 280.084 57.7571 280.084 57.7571Z" fill="#264966"/>
<path d="M268.367 117.377C269.474 116.596 270.62 115.871 271.8 115.206C272.478 114.944 276.173 113.666 276.866 113.374C278.108 113.207 279.366 113.207 280.608 113.374C280.799 113.39 280.984 113.454 281.145 113.558C281.306 113.663 281.439 113.806 281.532 113.974C282.379 115.514 284.75 120.133 284.473 121.904C284.473 121.904 277.821 126.108 277.082 127.986L276.019 128.217C276.019 128.217 271.554 118.748 268.367 117.377Z" fill="#FCD1C6"/>
<path d="M214.351 143.107C215.121 140.197 216.138 136.578 217.231 132.775L257.788 150.128C253.586 154.753 248.42 158.4 242.655 160.811C236.89 163.221 230.665 164.337 224.422 164.079C219.759 163.816 215.238 162.387 211.272 159.921C212.004 154.266 213.032 148.654 214.351 143.107Z" fill="#264966"/>
<path d="M198.692 77.6201C198.692 77.6201 209.363 79.1599 218.001 92.7561C223.746 102.178 228.73 112.043 232.906 122.258L233.214 124.044C233.393 125.13 233.819 126.161 234.46 127.056C235.1 127.952 235.937 128.688 236.907 129.209C237.877 129.73 238.954 130.021 240.054 130.06C241.154 130.099 242.249 129.884 243.253 129.434C252.353 125.369 265.857 119.225 268.367 117.377C271 119.056 273.268 121.25 275.033 123.828C276.798 126.405 278.023 129.312 278.637 132.375C280.392 140.782 279.946 140.797 279.946 140.797C279.946 140.797 243.931 157.581 230.073 157.411C216.215 157.242 198.569 111.588 196.629 102.149C194.689 92.7099 192.579 80.2839 198.692 77.6201Z" fill="#264966"/>
<path d="M198.692 77.6201C198.692 77.6201 209.363 79.1599 218.001 92.7561C223.746 102.178 228.73 112.043 232.906 122.258L233.214 124.044C233.393 125.13 233.819 126.161 234.46 127.056C235.1 127.952 235.937 128.688 236.907 129.209C237.877 129.73 238.954 130.021 240.054 130.06C241.154 130.099 242.249 129.884 243.253 129.434C252.353 125.369 265.857 119.225 268.367 117.377C271 119.056 273.268 121.25 275.033 123.828C276.798 126.405 278.023 129.312 278.637 132.375C280.392 140.782 279.946 140.797 279.946 140.797C279.946 140.797 243.931 157.581 230.073 157.411C216.215 157.242 198.569 111.588 196.629 102.149C194.689 92.7099 192.579 80.2839 198.692 77.6201Z" fill="#4A739F"/>
<path d="M238.079 131.558C238.079 131.558 233.552 135.808 231.582 133.483C229.611 131.158 230.18 130.896 230.18 130.896C230.18 130.896 226.1 130.896 225.561 128.31C225.022 125.723 223.051 127.109 222.928 124.26C222.805 121.411 226.239 121.981 226.239 121.981L238.079 131.558Z" fill="#416C9A"/>
<path d="M243.561 129.295C243.561 129.295 242.314 128.14 240.712 126.77C239.111 125.399 236.493 119.779 236.093 119.286C235.693 118.794 230.227 114.667 227.609 114.544C224.991 114.421 226.931 117.408 227.532 117.824C228.132 118.239 230.688 119.502 230.688 119.502C230.688 119.502 233.321 121.704 233.614 122.027C233.907 122.351 226.315 121.504 225.114 122.258C224.867 122.442 224.664 122.681 224.522 122.955C224.38 123.229 224.302 123.532 224.295 123.841C224.287 124.15 224.35 124.456 224.479 124.737C224.608 125.017 224.799 125.265 225.038 125.461C225.49 125.778 226.025 125.954 226.577 125.969C226.344 126.606 226.362 127.308 226.628 127.931C226.894 128.555 227.388 129.054 228.009 129.326C230.288 130.388 230.812 129.788 230.812 129.788C230.812 129.788 231.012 133.745 234.784 132.96L243.561 129.295Z" fill="#FCD1C6"/>
<path d="M267.504 18.7082C267.504 18.7082 270.877 29.4866 261.977 26.4071C253.077 23.3275 245.039 18.2154 242.221 20.1556C240.081 21.6953 240.189 26.2069 240.358 28.301C240.408 29.0098 240.218 29.7146 239.819 30.3027L237.171 34.1521C236.882 34.584 236.707 35.0819 236.663 35.5995L236.478 38.2788C236.453 38.6038 236.311 38.9087 236.079 39.1378C235.847 39.3669 235.541 39.5047 235.215 39.526H234.615C234.287 39.5426 233.963 39.4392 233.706 39.2353C233.448 39.0313 233.273 38.7406 233.214 38.4173L232.521 34.4909C232.521 34.4909 230.427 29.2249 225.992 31.2882C225.992 31.2882 223.036 27.3156 224.021 18.8006C225.007 10.2856 228.825 1.43192 245.578 0.0153244C262.331 -1.40127 267.504 18.7082 267.504 18.7082Z" fill="#AB8483"/>
<path d="M241.975 75.1717L244.469 73.2316C245.781 74.3366 246.873 75.6792 247.688 77.1888C248.581 79.2213 247.688 85.7038 247.688 85.7038L248.457 87.0126L249.397 85.2881L250.182 77.5892C250.182 77.5892 249.335 71.9382 249.258 71.7842C249.181 71.6302 244.423 72.2924 244.423 72.2924C243.427 73.0826 242.595 74.0609 241.975 75.1717Z" fill="#C4CBD5"/>
<path d="M253.985 67.4729C255.354 67.5426 256.686 67.9442 257.865 68.6431C257.865 68.6431 255.063 68.7817 254.617 68.8433C254.17 68.9049 253.985 67.4729 253.985 67.4729Z" fill="#C4CBD5"/>
<path d="M248.904 68.0889L244.408 72.2771C246.689 73.3671 248.483 75.2659 249.443 77.6047C249.443 77.6047 254.324 78.5131 254.771 76.7578C255.217 75.0025 254.771 70.5987 255.34 68.5662C255.91 66.5337 248.904 68.0889 248.904 68.0889Z" fill="#264966"/>
<path d="M254.586 76.7117C254.975 78.5016 255.564 80.2421 256.341 81.9007C257.25 83.4405 258.173 85.1034 258.173 85.1034L258.066 106.66C258.066 106.66 250.151 90.3541 248.442 87.0589C248.442 87.0589 248.704 79.2061 249.443 77.7125C250.182 76.2189 254.586 76.7117 254.586 76.7117Z" fill="#264966"/>
<path d="M233.352 44.8691C238.541 59.8666 253.169 64.3935 253.169 64.3935C252.155 65.4338 250.999 66.3255 249.735 67.0419C248.919 67.1651 246.564 65.7023 246.564 65.7023C246.564 65.7023 235.4 62.9923 232.182 58.2498C231.236 56.8573 230.573 55.292 230.233 53.6434C229.892 51.9947 229.879 50.2951 230.196 48.6416L229.765 45.4543C230.36 45.6884 231.007 45.7576 231.639 45.6546C232.27 45.5517 232.862 45.2803 233.352 44.8691Z" fill="#E2B1A6"/>
<path d="M221.465 62.4226C221.465 62.4226 223.513 69.4902 223.775 69.7673C225.5 69.8032 227.225 69.7003 228.933 69.4594L226.562 73.9555C226.562 73.9555 251.198 100.347 256.264 114.544C246.685 100.502 235.935 87.2945 224.129 75.0641L227.024 70.6758L221.989 71.6613L221.465 62.4226Z" fill="#264966"/>
<path d="M261.884 56.1709L263.193 57.7107L261.653 59.1427L266.273 63.2539C266.273 63.2539 267.658 92.1246 262.1 111.249C262.1 111.249 269.645 93.6952 267.936 62.4686L263.008 59.1272L264.548 57.5875L261.884 56.1709Z" fill="#264966"/>
<path d="M230.073 157.411C216.215 157.257 198.569 111.588 196.629 102.149C196.305 100.609 195.982 98.9152 195.674 97.2368C195.674 97.3754 199.323 107.23 202.803 115.976C206.283 124.722 224.853 151.391 234.338 153.192C242.883 154.732 273.648 140.397 279.607 137.564C280.146 140.766 279.915 140.797 279.915 140.797C279.915 140.797 243.931 157.581 230.073 157.411Z" fill="url(#paint1_linear_5_3)"/>
<path d="M234.692 39.5723C234.364 39.5889 234.04 39.4856 233.783 39.2816C233.525 39.0777 233.35 38.787 233.291 38.4637L232.598 34.5372C232.598 34.5372 230.504 29.2712 226.069 31.3345C226.069 31.3345 223.282 27.5621 224.037 19.509C228.964 26.9154 239.896 30.2875 239.896 30.2875L237.248 34.1369C236.959 34.5688 236.784 35.0667 236.74 35.5843L236.555 38.2635C236.53 38.5885 236.388 38.8935 236.156 39.1226C235.924 39.3516 235.618 39.4895 235.292 39.5107L234.692 39.5723Z" fill="#946E6D"/>
<path opacity="0.5" d="M153.854 252.338V244.024C155.517 244.917 157.21 245.779 158.95 246.626V254.956C157.21 254.109 155.517 253.232 153.854 252.338ZM137.47 241.945V226.547C138.841 227.594 140.273 228.61 141.736 229.627V244.948C140.273 243.947 138.841 242.93 137.47 241.868V241.945ZM145.277 247.334V229.257C146.817 230.227 148.357 231.182 149.989 232.106V250.183C148.372 249.259 146.801 248.304 145.277 247.334ZM124.321 230.073V210.056C125.347 211.226 126.456 212.381 127.647 213.521V233.538C126.492 232.414 125.383 231.259 124.321 230.089V230.073ZM130.48 236.232V214.445C131.712 215.553 132.974 216.646 134.299 217.724V239.451C132.974 238.373 131.712 237.295 130.48 236.171V236.232ZM114.82 217.016V193.38C115.529 194.658 116.36 195.921 117.099 197.168V220.742C116.283 219.495 115.559 218.232 114.82 216.954V217.016ZM119.101 223.714V192.995C119.994 194.227 120.933 195.428 121.919 196.629V227.286C120.933 226.085 119.994 224.869 119.101 223.652V223.714ZM111.556 210.056V175.38C112.064 176.705 112.634 178.013 113.25 179.307V213.921C112.634 212.628 112.064 211.319 111.556 209.995V210.056ZM169.482 217.755C136.547 204.482 113.789 183.526 109.015 159.505V208.778C113.789 232.783 136.547 253.755 169.482 267.028V217.755Z" fill="#7F7F7F"/>
<path opacity="0.5" d="M266.057 272.371V261.269C271.723 260.961 277.297 260.453 282.764 259.729V270.831C277.292 271.509 271.723 272.022 266.057 272.371ZM239.419 272.371V252.246C242.822 252.415 246.24 252.523 249.705 252.554C252.076 252.554 254.432 252.554 256.757 252.554V272.802C254.432 272.802 252.138 272.802 249.705 272.802C246.24 272.802 242.822 272.663 239.419 272.479V272.371ZM213.751 269.722V238.773C219.109 239.62 224.606 240.313 230.211 240.79V271.739C224.606 271.247 219.109 270.569 213.751 269.722ZM291.525 269.584V236.956C296.853 236.094 302.072 235.047 307.123 233.876V266.566C302.072 267.767 296.853 268.798 291.525 269.645V269.584ZM320.257 222.836C297.375 229.671 273.582 232.963 249.705 232.598C232.742 232.484 215.839 230.58 199.277 226.917V276.189C215.815 279.879 232.699 281.799 249.643 281.917C273.522 282.296 297.317 279.004 320.196 272.155V222.882L320.257 222.836Z" fill="#7F7F7F"/>
<path opacity="0.5" d="M355.641 236.956V227.425C378.615 213.859 393.566 195.767 396.014 175.642V185.173C393.566 205.298 378.615 223.391 355.641 236.956ZM396.368 200.648V151.375C395.629 175.457 377.013 196.953 347.912 211.765V261.038C377.013 246.21 395.645 224.715 396.368 200.633V200.648Z" fill="#7F7F7F"/>
<path opacity="0.75" d="M396.014 175.642C393.566 195.767 378.615 213.859 355.641 227.425V236.956C378.615 223.391 393.566 205.298 396.014 185.173V175.642Z" fill="#7F7F7F"/>
<path d="M230.211 240.836C224.606 240.343 219.109 239.666 213.751 238.819V269.769C219.109 270.615 224.606 271.308 230.211 271.786V240.836Z" fill="#7F7F7F"/>
<path d="M282.764 259.791C277.297 260.453 271.723 260.961 266.057 261.331V272.433C271.723 272.125 277.292 271.611 282.764 270.893V259.791Z" fill="#7F7F7F"/>
<path d="M307.061 233.846C302.011 235.047 296.791 236.094 291.463 236.925V269.599C296.791 268.737 302.011 267.705 307.061 266.52V233.846Z" fill="#7F7F7F"/>
<path opacity="0.75" d="M256.757 252.462C254.432 252.462 252.138 252.462 249.705 252.462C246.24 252.462 242.822 252.323 239.419 252.154V272.417C242.822 272.602 246.24 272.694 249.705 272.74C252.076 272.74 254.432 272.74 256.757 272.74V252.462Z" fill="#7F7F7F"/>
<path d="M113.234 179.307C112.618 178.013 112.049 176.705 111.541 175.38V209.995C112.049 211.319 112.618 212.628 113.234 213.921V179.307Z" fill="#7F7F7F"/>
<path d="M117.084 197.168C116.268 195.921 115.544 194.658 114.805 193.38V216.954C115.513 218.232 116.345 219.495 117.084 220.742V197.168Z" fill="#7F7F7F"/>
<path opacity="0.75" d="M121.903 196.629C120.918 195.428 119.979 194.227 119.086 192.995V223.652C119.979 224.869 120.918 226.085 121.903 227.286V196.629Z" fill="#7F7F7F"/>
<path d="M127.647 213.475C126.497 212.335 125.388 211.18 124.321 210.01V230.027C125.383 231.197 126.492 232.352 127.647 233.476V213.459V213.475Z" fill="#7F7F7F"/>
<path opacity="0.75" d="M134.283 217.724C132.959 216.646 131.696 215.553 130.464 214.445V236.171C131.696 237.295 132.959 238.373 134.283 239.451V217.724Z" fill="#7F7F7F"/>
<path opacity="0.75" d="M141.736 229.688C140.273 228.672 138.841 227.656 137.47 226.609V242.007C138.841 243.054 140.273 244.07 141.736 245.086V229.765V229.688Z" fill="#7F7F7F"/>
<path opacity="0.75" d="M150.004 232.106C148.387 231.182 146.817 230.227 145.293 229.257V247.334C146.832 248.304 148.372 249.259 150.004 250.183V232.106Z" fill="#7F7F7F"/>
<path opacity="0.75" d="M158.95 246.626C157.21 245.779 155.517 244.917 153.854 244.024V252.338C155.517 253.232 157.21 254.109 158.95 254.956V246.626Z" fill="#7F7F7F"/>
</g>
<path fill-rule="evenodd" clip-rule="evenodd" d="M374 140C366.268 140 360 146.268 360 154V159C360 166.732 366.268 173 374 173H377V192.89L396.89 173H424C431.732 173 438 166.732 438 159V154C438 146.268 431.732 140 424 140H374Z" fill="white"/>
<path d="M377 173H377.5V172.5H377V173ZM377 192.89H376.5V194.097L377.353 193.243L377 192.89ZM396.89 173V172.5H396.683L396.536 172.646L396.89 173ZM360.5 154C360.5 146.544 366.544 140.5 374 140.5V139.5C365.992 139.5 359.5 145.992 359.5 154H360.5ZM360.5 159V154H359.5V159H360.5ZM374 172.5C366.544 172.5 360.5 166.456 360.5 159H359.5C359.5 167.008 365.992 173.5 374 173.5V172.5ZM377 172.5H374V173.5H377V172.5ZM377.5 192.89V173H376.5V192.89H377.5ZM396.536 172.646L376.646 192.536L377.353 193.243L397.243 173.354L396.536 172.646ZM424 172.5H396.89V173.5H424V172.5ZM437.5 159C437.5 166.456 431.456 172.5 424 172.5V173.5C432.008 173.5 438.5 167.008 438.5 159H437.5ZM437.5 154V159H438.5V154H437.5ZM424 140.5C431.456 140.5 437.5 146.544 437.5 154H438.5C438.5 145.992 432.008 139.5 424 139.5V140.5ZM374 140.5H424V139.5H374V140.5Z" fill="#676767"/>
<path d="M350 70H350.5V69.5H350V70ZM350 87.8898H349.5V89.0288L350.338 88.2579L350 87.8898ZM369.457 70V69.5H369.262L369.118 69.6319L369.457 70ZM323.5 51C323.5 43.5442 329.544 37.5 337 37.5V36.5C328.992 36.5 322.5 42.9919 322.5 51H323.5ZM323.5 56V51H322.5V56H323.5ZM337 69.5C329.544 69.5 323.5 63.4558 323.5 56H322.5C322.5 64.0081 328.992 70.5 337 70.5V69.5ZM350 69.5H337V70.5H350V69.5ZM350.5 87.8898V70H349.5V87.8898H350.5ZM369.118 69.6319L349.662 87.5218L350.338 88.2579L369.795 70.3681L369.118 69.6319ZM458 69.5H369.457V70.5H458V69.5ZM471.5 56C471.5 63.4558 465.456 69.5 458 69.5V70.5C466.008 70.5 472.5 64.0081 472.5 56H471.5ZM471.5 51V56H472.5V51H471.5ZM458 37.5C465.456 37.5 471.5 43.5442 471.5 51H472.5C472.5 42.9919 466.008 36.5 458 36.5V37.5ZM337 37.5H458V36.5H337V37.5Z" fill="#676767"/>
<path d="M380.014 159.341C380.014 160.22 379.695 160.906 379.057 161.398C378.419 161.891 377.553 162.137 376.459 162.137C375.274 162.137 374.363 161.984 373.725 161.679V160.558C374.135 160.731 374.581 160.868 375.064 160.968C375.547 161.068 376.026 161.118 376.5 161.118C377.275 161.118 377.858 160.972 378.25 160.681C378.642 160.384 378.838 159.974 378.838 159.45C378.838 159.104 378.767 158.821 378.626 158.603C378.489 158.379 378.257 158.174 377.929 157.987C377.605 157.8 377.111 157.589 376.445 157.352C375.516 157.019 374.85 156.625 374.449 156.169C374.053 155.713 373.854 155.118 373.854 154.385C373.854 153.615 374.144 153.002 374.723 152.546C375.301 152.09 376.067 151.862 377.019 151.862C378.013 151.862 378.927 152.045 379.761 152.409L379.398 153.421C378.574 153.075 377.771 152.901 376.992 152.901C376.377 152.901 375.896 153.034 375.55 153.298C375.203 153.562 375.03 153.929 375.03 154.398C375.03 154.745 375.094 155.03 375.222 155.253C375.349 155.472 375.563 155.674 375.864 155.861C376.17 156.044 376.634 156.246 377.259 156.47C378.307 156.843 379.027 157.244 379.419 157.673C379.815 158.101 380.014 158.657 380.014 159.341ZM382.953 154.508V159.368C382.953 159.979 383.092 160.435 383.37 160.735C383.648 161.036 384.083 161.187 384.676 161.187C385.46 161.187 386.032 160.972 386.392 160.544C386.756 160.116 386.938 159.416 386.938 158.445V154.508H388.073V162H387.137L386.973 160.995H386.911C386.679 161.364 386.355 161.647 385.94 161.843C385.53 162.039 385.061 162.137 384.532 162.137C383.621 162.137 382.937 161.92 382.481 161.487C382.03 161.054 381.805 160.362 381.805 159.409V154.508H382.953ZM393.973 162.137C393.485 162.137 393.038 162.048 392.633 161.87C392.232 161.688 391.894 161.41 391.621 161.036H391.539C391.594 161.474 391.621 161.888 391.621 162.28V165.363H390.486V154.508H391.409L391.566 155.533H391.621C391.913 155.123 392.252 154.827 392.64 154.645C393.027 154.462 393.471 154.371 393.973 154.371C394.966 154.371 395.732 154.711 396.269 155.39C396.812 156.069 397.083 157.021 397.083 158.247C397.083 159.478 396.807 160.435 396.256 161.118C395.709 161.797 394.948 162.137 393.973 162.137ZM393.809 155.335C393.043 155.335 392.489 155.547 392.147 155.971C391.806 156.395 391.63 157.069 391.621 157.994V158.247C391.621 159.3 391.796 160.054 392.147 160.51C392.498 160.961 393.061 161.187 393.836 161.187C394.483 161.187 394.989 160.924 395.353 160.4C395.723 159.876 395.907 159.154 395.907 158.233C395.907 157.299 395.723 156.584 395.353 156.087C394.989 155.586 394.474 155.335 393.809 155.335ZM402.559 162.137C402.071 162.137 401.624 162.048 401.219 161.87C400.818 161.688 400.48 161.41 400.207 161.036H400.125C400.18 161.474 400.207 161.888 400.207 162.28V165.363H399.072V154.508H399.995L400.152 155.533H400.207C400.499 155.123 400.838 154.827 401.226 154.645C401.613 154.462 402.057 154.371 402.559 154.371C403.552 154.371 404.318 154.711 404.855 155.39C405.398 156.069 405.669 157.021 405.669 158.247C405.669 159.478 405.393 160.435 404.842 161.118C404.295 161.797 403.534 162.137 402.559 162.137ZM402.394 155.335C401.629 155.335 401.075 155.547 400.733 155.971C400.392 156.395 400.216 157.069 400.207 157.994V158.247C400.207 159.3 400.382 160.054 400.733 160.51C401.084 160.961 401.647 161.187 402.422 161.187C403.069 161.187 403.575 160.924 403.939 160.4C404.309 159.876 404.493 159.154 404.493 158.233C404.493 157.299 404.309 156.584 403.939 156.087C403.575 155.586 403.06 155.335 402.394 155.335ZM414.125 158.247C414.125 159.468 413.817 160.423 413.202 161.111C412.587 161.795 411.737 162.137 410.652 162.137C409.982 162.137 409.388 161.979 408.868 161.665C408.349 161.351 407.948 160.899 407.665 160.312C407.382 159.724 407.241 159.035 407.241 158.247C407.241 157.026 407.546 156.076 408.157 155.396C408.768 154.713 409.615 154.371 410.7 154.371C411.748 154.371 412.58 154.72 413.195 155.417C413.815 156.114 414.125 157.058 414.125 158.247ZM408.417 158.247C408.417 159.204 408.608 159.933 408.991 160.435C409.374 160.936 409.937 161.187 410.68 161.187C411.422 161.187 411.985 160.938 412.368 160.441C412.755 159.94 412.949 159.209 412.949 158.247C412.949 157.295 412.755 156.572 412.368 156.08C411.985 155.583 411.418 155.335 410.666 155.335C409.923 155.335 409.363 155.579 408.984 156.066C408.606 156.554 408.417 157.281 408.417 158.247ZM419.539 154.371C419.872 154.371 420.17 154.398 420.435 154.453L420.277 155.506C419.967 155.438 419.694 155.403 419.457 155.403C418.851 155.403 418.331 155.649 417.898 156.142C417.47 156.634 417.256 157.247 417.256 157.98V162H416.121V154.508H417.058L417.187 155.896H417.242C417.52 155.408 417.855 155.032 418.247 154.768C418.639 154.503 419.07 154.371 419.539 154.371ZM424.256 161.2C424.456 161.2 424.65 161.187 424.837 161.159C425.024 161.127 425.172 161.095 425.281 161.063V161.932C425.158 161.991 424.976 162.039 424.734 162.075C424.497 162.116 424.283 162.137 424.092 162.137C422.643 162.137 421.918 161.373 421.918 159.847V155.39H420.845V154.843L421.918 154.371L422.396 152.771H423.053V154.508H425.227V155.39H423.053V159.799C423.053 160.25 423.16 160.596 423.374 160.838C423.588 161.079 423.882 161.2 424.256 161.2Z" fill="#31393C"/>
<path d="M334.338 58H333.203V47.3633H334.338V58ZM339.909 58.1367C338.802 58.1367 337.927 57.7995 337.284 57.125C336.646 56.4505 336.327 55.514 336.327 54.3154C336.327 53.1077 336.623 52.1484 337.216 51.4375C337.813 50.7266 338.613 50.3711 339.615 50.3711C340.554 50.3711 341.297 50.681 341.844 51.3008C342.391 51.916 342.664 52.7295 342.664 53.7412V54.459H337.503C337.526 55.3385 337.747 56.0062 338.166 56.4619C338.59 56.9176 339.185 57.1455 339.95 57.1455C340.757 57.1455 341.554 56.9769 342.343 56.6396V57.6514C341.942 57.8245 341.561 57.9476 341.201 58.0205C340.846 58.098 340.415 58.1367 339.909 58.1367ZM339.602 51.3213C339 51.3213 338.519 51.5173 338.159 51.9092C337.804 52.3011 337.594 52.8434 337.53 53.5361H341.447C341.447 52.8206 341.288 52.2738 340.969 51.8955C340.65 51.5127 340.194 51.3213 339.602 51.3213ZM349.438 55.9561C349.438 56.6533 349.179 57.1911 348.659 57.5693C348.14 57.9476 347.41 58.1367 346.472 58.1367C345.478 58.1367 344.703 57.9795 344.147 57.665V56.6123C344.507 56.7946 344.893 56.9382 345.303 57.043C345.717 57.1478 346.116 57.2002 346.499 57.2002C347.091 57.2002 347.547 57.1068 347.866 56.9199C348.185 56.7285 348.345 56.4391 348.345 56.0518C348.345 55.7601 348.217 55.5117 347.962 55.3066C347.711 55.097 347.219 54.8509 346.485 54.5684C345.788 54.3086 345.291 54.083 344.995 53.8916C344.703 53.6956 344.485 53.4746 344.339 53.2285C344.198 52.9824 344.127 52.6885 344.127 52.3467C344.127 51.736 344.375 51.2552 344.872 50.9043C345.369 50.5488 346.05 50.3711 346.916 50.3711C347.723 50.3711 348.511 50.5352 349.281 50.8633L348.878 51.7861C348.126 51.4762 347.445 51.3213 346.834 51.3213C346.296 51.3213 345.891 51.4056 345.617 51.5742C345.344 51.7428 345.207 51.9753 345.207 52.2715C345.207 52.472 345.257 52.6429 345.357 52.7842C345.462 52.9255 345.629 53.0599 345.856 53.1875C346.084 53.3151 346.522 53.4997 347.169 53.7412C348.058 54.0648 348.657 54.3906 348.967 54.7188C349.281 55.0469 349.438 55.4593 349.438 55.9561ZM356.124 55.9561C356.124 56.6533 355.864 57.1911 355.345 57.5693C354.825 57.9476 354.096 58.1367 353.157 58.1367C352.164 58.1367 351.389 57.9795 350.833 57.665V56.6123C351.193 56.7946 351.578 56.9382 351.988 57.043C352.403 57.1478 352.802 57.2002 353.185 57.2002C353.777 57.2002 354.233 57.1068 354.552 56.9199C354.871 56.7285 355.03 56.4391 355.03 56.0518C355.03 55.7601 354.903 55.5117 354.647 55.3066C354.397 55.097 353.905 54.8509 353.171 54.5684C352.474 54.3086 351.977 54.083 351.681 53.8916C351.389 53.6956 351.17 53.4746 351.024 53.2285C350.883 52.9824 350.812 52.6885 350.812 52.3467C350.812 51.736 351.061 51.2552 351.558 50.9043C352.054 50.5488 352.736 50.3711 353.602 50.3711C354.408 50.3711 355.197 50.5352 355.967 50.8633L355.563 51.7861C354.812 51.4762 354.13 51.3213 353.52 51.3213C352.982 51.3213 352.576 51.4056 352.303 51.5742C352.029 51.7428 351.893 51.9753 351.893 52.2715C351.893 52.472 351.943 52.6429 352.043 52.7842C352.148 52.9255 352.314 53.0599 352.542 53.1875C352.77 53.3151 353.207 53.4997 353.854 53.7412C354.743 54.0648 355.342 54.3906 355.652 54.7188C355.967 55.0469 356.124 55.4593 356.124 55.9561ZM361.142 58.1367C360.034 58.1367 359.159 57.7995 358.517 57.125C357.879 56.4505 357.56 55.514 357.56 54.3154C357.56 53.1077 357.856 52.1484 358.448 51.4375C359.045 50.7266 359.845 50.3711 360.848 50.3711C361.786 50.3711 362.529 50.681 363.076 51.3008C363.623 51.916 363.896 52.7295 363.896 53.7412V54.459H358.735C358.758 55.3385 358.979 56.0062 359.398 56.4619C359.822 56.9176 360.417 57.1455 361.183 57.1455C361.989 57.1455 362.787 56.9769 363.575 56.6396V57.6514C363.174 57.8245 362.794 57.9476 362.434 58.0205C362.078 58.098 361.647 58.1367 361.142 58.1367ZM360.834 51.3213C360.232 51.3213 359.752 51.5173 359.392 51.9092C359.036 52.3011 358.826 52.8434 358.763 53.5361H362.68C362.68 52.8206 362.52 52.2738 362.201 51.8955C361.882 51.5127 361.426 51.3213 360.834 51.3213ZM369.256 50.3711C369.589 50.3711 369.887 50.3984 370.151 50.4531L369.994 51.5059C369.684 51.4375 369.411 51.4033 369.174 51.4033C368.568 51.4033 368.048 51.6494 367.615 52.1416C367.187 52.6338 366.973 53.2467 366.973 53.9805V58H365.838V50.5078H366.774L366.904 51.8955H366.959C367.237 51.4079 367.572 51.0319 367.964 50.7676C368.356 50.5033 368.786 50.3711 369.256 50.3711ZM384.739 58V53.126C384.739 52.529 384.612 52.0824 384.356 51.7861C384.101 51.4854 383.705 51.335 383.167 51.335C382.461 51.335 381.939 51.5378 381.602 51.9434C381.264 52.349 381.096 52.9733 381.096 53.8164V58H379.961V53.126C379.961 52.529 379.833 52.0824 379.578 51.7861C379.323 51.4854 378.924 51.335 378.382 51.335C377.671 51.335 377.149 51.5492 376.816 51.9775C376.488 52.4014 376.324 53.0986 376.324 54.0693V58H375.189V50.5078H376.112L376.297 51.5332H376.352C376.566 51.1686 376.867 50.8838 377.254 50.6787C377.646 50.4736 378.083 50.3711 378.566 50.3711C379.738 50.3711 380.503 50.7949 380.863 51.6426H380.918C381.141 51.2507 381.465 50.9408 381.889 50.7129C382.312 50.485 382.796 50.3711 383.338 50.3711C384.186 50.3711 384.819 50.5898 385.238 51.0273C385.662 51.4603 385.874 52.1553 385.874 53.1123V58H384.739ZM392.826 58L392.601 56.9336H392.546C392.172 57.403 391.799 57.722 391.425 57.8906C391.056 58.0547 390.593 58.1367 390.037 58.1367C389.294 58.1367 388.711 57.9453 388.287 57.5625C387.868 57.1797 387.658 56.6351 387.658 55.9287C387.658 54.4157 388.868 53.6227 391.288 53.5498L392.56 53.5088V53.0439C392.56 52.4561 392.432 52.0231 392.177 51.7451C391.926 51.4626 391.523 51.3213 390.967 51.3213C390.342 51.3213 389.636 51.5127 388.848 51.8955L388.499 51.0273C388.868 50.8268 389.271 50.6696 389.709 50.5557C390.151 50.4417 390.593 50.3848 391.035 50.3848C391.928 50.3848 392.589 50.583 393.018 50.9795C393.451 51.376 393.667 52.0117 393.667 52.8867V58H392.826ZM390.263 57.2002C390.969 57.2002 391.523 57.0065 391.924 56.6191C392.329 56.2318 392.532 55.6895 392.532 54.9922V54.3154L391.397 54.3633C390.495 54.3952 389.843 54.5365 389.442 54.7871C389.046 55.0332 388.848 55.4183 388.848 55.9424C388.848 56.3525 388.971 56.6647 389.217 56.8789C389.467 57.0931 389.816 57.2002 390.263 57.2002ZM397.146 58H396.012V50.5078H397.146V58ZM395.916 48.4775C395.916 48.2178 395.98 48.0286 396.107 47.9102C396.235 47.7871 396.395 47.7256 396.586 47.7256C396.768 47.7256 396.925 47.7871 397.058 47.9102C397.19 48.0332 397.256 48.2223 397.256 48.4775C397.256 48.7327 397.19 48.9242 397.058 49.0518C396.925 49.1748 396.768 49.2363 396.586 49.2363C396.395 49.2363 396.235 49.1748 396.107 49.0518C395.98 48.9242 395.916 48.7327 395.916 48.4775ZM404.68 58V53.1533C404.68 52.5426 404.541 52.0869 404.263 51.7861C403.985 51.4854 403.549 51.335 402.957 51.335C402.173 51.335 401.599 51.5469 401.234 51.9707C400.87 52.3945 400.688 53.0941 400.688 54.0693V58H399.553V50.5078H400.476L400.66 51.5332H400.715C400.947 51.1641 401.273 50.8792 401.692 50.6787C402.112 50.4736 402.579 50.3711 403.094 50.3711C403.996 50.3711 404.675 50.5898 405.131 51.0273C405.587 51.4603 405.814 52.1553 405.814 53.1123V58H404.68ZM410.572 57.2002C410.773 57.2002 410.966 57.1865 411.153 57.1592C411.34 57.1273 411.488 57.0954 411.598 57.0635V57.9316C411.475 57.9909 411.292 58.0387 411.051 58.0752C410.814 58.1162 410.6 58.1367 410.408 58.1367C408.959 58.1367 408.234 57.3734 408.234 55.8467V51.3896H407.161V50.8428L408.234 50.3711L408.713 48.7715H409.369V50.5078H411.543V51.3896H409.369V55.7988C409.369 56.25 409.476 56.5964 409.69 56.8379C409.905 57.0794 410.199 57.2002 410.572 57.2002ZM416.267 58.1367C415.159 58.1367 414.284 57.7995 413.642 57.125C413.004 56.4505 412.685 55.514 412.685 54.3154C412.685 53.1077 412.981 52.1484 413.573 51.4375C414.17 50.7266 414.97 50.3711 415.973 50.3711C416.911 50.3711 417.654 50.681 418.201 51.3008C418.748 51.916 419.021 52.7295 419.021 53.7412V54.459H413.86C413.883 55.3385 414.104 56.0062 414.523 56.4619C414.947 56.9176 415.542 57.1455 416.308 57.1455C417.114 57.1455 417.912 56.9769 418.7 56.6396V57.6514C418.299 57.8245 417.919 57.9476 417.559 58.0205C417.203 58.098 416.772 58.1367 416.267 58.1367ZM415.959 51.3213C415.357 51.3213 414.877 51.5173 414.517 51.9092C414.161 52.3011 413.951 52.8434 413.888 53.5361H417.805C417.805 52.8206 417.645 52.2738 417.326 51.8955C417.007 51.5127 416.551 51.3213 415.959 51.3213ZM426.09 58V53.1533C426.09 52.5426 425.951 52.0869 425.673 51.7861C425.395 51.4854 424.96 51.335 424.367 51.335C423.583 51.335 423.009 51.5469 422.645 51.9707C422.28 52.3945 422.098 53.0941 422.098 54.0693V58H420.963V50.5078H421.886L422.07 51.5332H422.125C422.357 51.1641 422.683 50.8792 423.103 50.6787C423.522 50.4736 423.989 50.3711 424.504 50.3711C425.406 50.3711 426.085 50.5898 426.541 51.0273C426.997 51.4603 427.225 52.1553 427.225 53.1123V58H426.09ZM434.17 58L433.944 56.9336H433.89C433.516 57.403 433.142 57.722 432.769 57.8906C432.399 58.0547 431.937 58.1367 431.381 58.1367C430.638 58.1367 430.055 57.9453 429.631 57.5625C429.212 57.1797 429.002 56.6351 429.002 55.9287C429.002 54.4157 430.212 53.6227 432.632 53.5498L433.903 53.5088V53.0439C433.903 52.4561 433.776 52.0231 433.521 51.7451C433.27 51.4626 432.867 51.3213 432.311 51.3213C431.686 51.3213 430.98 51.5127 430.191 51.8955L429.843 51.0273C430.212 50.8268 430.615 50.6696 431.053 50.5557C431.495 50.4417 431.937 50.3848 432.379 50.3848C433.272 50.3848 433.933 50.583 434.361 50.9795C434.794 51.376 435.011 52.0117 435.011 52.8867V58H434.17ZM431.606 57.2002C432.313 57.2002 432.867 57.0065 433.268 56.6191C433.673 56.2318 433.876 55.6895 433.876 54.9922V54.3154L432.741 54.3633C431.839 54.3952 431.187 54.5365 430.786 54.7871C430.39 55.0332 430.191 55.4183 430.191 55.9424C430.191 56.3525 430.314 56.6647 430.561 56.8789C430.811 57.0931 431.16 57.2002 431.606 57.2002ZM442.482 58V53.1533C442.482 52.5426 442.343 52.0869 442.065 51.7861C441.787 51.4854 441.352 51.335 440.76 51.335C439.976 51.335 439.402 51.5469 439.037 51.9707C438.673 52.3945 438.49 53.0941 438.49 54.0693V58H437.355V50.5078H438.278L438.463 51.5332H438.518C438.75 51.1641 439.076 50.8792 439.495 50.6787C439.914 50.4736 440.382 50.3711 440.896 50.3711C441.799 50.3711 442.478 50.5898 442.934 51.0273C443.389 51.4603 443.617 52.1553 443.617 53.1123V58H442.482ZM448.949 58.1367C447.865 58.1367 447.024 57.804 446.427 57.1387C445.834 56.4688 445.538 55.5231 445.538 54.3018C445.538 53.0485 445.839 52.0801 446.44 51.3965C447.047 50.7129 447.908 50.3711 449.024 50.3711C449.384 50.3711 449.744 50.4098 450.104 50.4873C450.465 50.5648 450.747 50.6559 450.952 50.7607L450.604 51.7246C450.353 51.6243 450.079 51.5423 449.783 51.4785C449.487 51.4102 449.225 51.376 448.997 51.376C447.475 51.376 446.714 52.3467 446.714 54.2881C446.714 55.2087 446.898 55.915 447.268 56.4072C447.641 56.8994 448.193 57.1455 448.922 57.1455C449.546 57.1455 450.187 57.0111 450.843 56.7422V57.7471C450.341 58.0068 449.71 58.1367 448.949 58.1367ZM455.792 58.1367C454.685 58.1367 453.81 57.7995 453.167 57.125C452.529 56.4505 452.21 55.514 452.21 54.3154C452.21 53.1077 452.506 52.1484 453.099 51.4375C453.696 50.7266 454.495 50.3711 455.498 50.3711C456.437 50.3711 457.18 50.681 457.727 51.3008C458.273 51.916 458.547 52.7295 458.547 53.7412V54.459H453.386C453.409 55.3385 453.63 56.0062 454.049 56.4619C454.473 56.9176 455.067 57.1455 455.833 57.1455C456.64 57.1455 457.437 56.9769 458.226 56.6396V57.6514C457.825 57.8245 457.444 57.9476 457.084 58.0205C456.729 58.098 456.298 58.1367 455.792 58.1367ZM455.484 51.3213C454.883 51.3213 454.402 51.5173 454.042 51.9092C453.687 52.3011 453.477 52.8434 453.413 53.5361H457.33C457.33 52.8206 457.171 52.2738 456.852 51.8955C456.533 51.5127 456.077 51.3213 455.484 51.3213Z" fill="#31393C"/>
<path d="M146.822 74H146.322V73.5H146.822V74ZM146.822 92.8898H147.322V94.0969L146.469 93.2434L146.822 92.8898ZM127.932 74V73.5H128.14L128.286 73.6464L127.932 74ZM164.5 34C164.5 26.5442 158.456 20.5 151 20.5V19.5C159.008 19.5 165.5 25.9919 165.5 34H164.5ZM164.5 60V34H165.5V60H164.5ZM151 73.5C158.456 73.5 164.5 67.4558 164.5 60H165.5C165.5 68.0081 159.008 74.5 151 74.5V73.5ZM146.822 73.5H151V74.5H146.822V73.5ZM146.322 92.8898V74H147.322V92.8898H146.322ZM128.286 73.6464L147.176 92.5363L146.469 93.2434L127.579 74.3536L128.286 73.6464ZM19 73.5H127.932V74.5H19V73.5ZM5.5 60C5.5 67.4558 11.5442 73.5 19 73.5V74.5C10.9919 74.5 4.5 68.0081 4.5 60H5.5ZM5.5 34V60H4.5V34H5.5ZM19 20.5C11.5441 20.5 5.5 26.5442 5.5 34H4.5C4.5 25.9919 10.9919 19.5 19 19.5V20.5ZM151 20.5H19V19.5H151V20.5Z" fill="#676767"/>
<path d="M22.0968 41H20.9484L18.9318 34.3076C18.8361 34.0114 18.729 33.6377 18.6105 33.1865C18.492 32.7354 18.4305 32.4642 18.4259 32.373C18.3256 32.9746 18.1661 33.6331 17.9474 34.3486L15.9923 41H14.8439L12.1847 31.0059H13.4152L14.9943 37.1787C15.213 38.0446 15.3725 38.8285 15.4728 39.5303C15.5958 38.6963 15.7781 37.8805 16.0197 37.083L17.8107 31.0059H19.0411L20.921 37.1377C21.1398 37.8441 21.3243 38.6416 21.4747 39.5303C21.5613 38.8831 21.7254 38.0947 21.9669 37.165L23.5392 31.0059H24.7697L22.0968 41ZM27.299 41H26.1642V33.5078H27.299V41ZM26.0685 31.4775C26.0685 31.2178 26.1323 31.0286 26.2599 30.9102C26.3875 30.7871 26.547 30.7256 26.7384 30.7256C26.9207 30.7256 27.0779 30.7871 27.2101 30.9102C27.3422 31.0332 27.4083 31.2223 27.4083 31.4775C27.4083 31.7327 27.3422 31.9242 27.2101 32.0518C27.0779 32.1748 26.9207 32.2363 26.7384 32.2363C26.547 32.2363 26.3875 32.1748 26.2599 32.0518C26.1323 31.9242 26.0685 31.7327 26.0685 31.4775ZM32.1251 40.2002C32.3256 40.2002 32.5193 40.1865 32.7062 40.1592C32.893 40.1273 33.0411 40.0954 33.1505 40.0635V40.9316C33.0275 40.9909 32.8452 41.0387 32.6036 41.0752C32.3667 41.1162 32.1525 41.1367 31.9611 41.1367C30.5118 41.1367 29.7872 40.3734 29.7872 38.8467V34.3896H28.714V33.8428L29.7872 33.3711L30.2657 31.7715H30.922V33.5078H33.0958V34.3896H30.922V38.7988C30.922 39.25 31.0291 39.5964 31.2433 39.8379C31.4575 40.0794 31.7514 40.2002 32.1251 40.2002ZM39.7814 41V36.1533C39.7814 35.5426 39.6424 35.0869 39.3644 34.7861C39.0864 34.4854 38.6512 34.335 38.0587 34.335C37.2703 34.335 36.6938 34.5492 36.3292 34.9775C35.9692 35.4059 35.7892 36.1077 35.7892 37.083V41H34.6544V30.3633H35.7892V33.583C35.7892 33.9704 35.771 34.2917 35.7345 34.5469H35.8029C36.0262 34.1868 36.3429 33.9043 36.7531 33.6992C37.1678 33.4896 37.6394 33.3848 38.1681 33.3848C39.0841 33.3848 39.77 33.6035 40.2257 34.041C40.686 34.474 40.9161 35.1644 40.9161 36.1123V41H39.7814ZM49.7208 37.2471C49.7208 38.4684 49.4132 39.4232 48.798 40.1113C48.1827 40.7949 47.3328 41.1367 46.2482 41.1367C45.5782 41.1367 44.9835 40.9795 44.464 40.665C43.9445 40.3506 43.5434 39.8994 43.2609 39.3115C42.9783 38.7236 42.837 38.0355 42.837 37.2471C42.837 36.0257 43.1424 35.0755 43.7531 34.3965C44.3637 33.7129 45.2114 33.3711 46.296 33.3711C47.3442 33.3711 48.1759 33.7197 48.7911 34.417C49.4109 35.1143 49.7208 36.0576 49.7208 37.2471ZM44.0128 37.2471C44.0128 38.2041 44.2042 38.9333 44.587 39.4346C44.9698 39.9359 45.5327 40.1865 46.2755 40.1865C47.0184 40.1865 47.5812 39.9382 47.964 39.4414C48.3514 38.9401 48.545 38.2087 48.545 37.2471C48.545 36.2946 48.3514 35.5723 47.964 35.0801C47.5812 34.5833 47.0138 34.335 46.2618 34.335C45.519 34.335 44.9585 34.5788 44.5802 35.0664C44.2019 35.554 44.0128 36.2809 44.0128 37.2471ZM52.7833 33.5078V38.3682C52.7833 38.9788 52.9223 39.4346 53.2003 39.7354C53.4783 40.0361 53.9135 40.1865 54.506 40.1865C55.2898 40.1865 55.8618 39.9723 56.2218 39.5439C56.5864 39.1156 56.7687 38.416 56.7687 37.4453V33.5078H57.9034V41H56.9669L56.8029 39.9951H56.7413C56.5089 40.3643 56.1853 40.6468 55.7706 40.8428C55.3605 41.0387 54.8911 41.1367 54.3624 41.1367C53.451 41.1367 52.7674 40.9202 52.3116 40.4873C51.8605 40.0544 51.6349 39.3617 51.6349 38.4092V33.5078H52.7833ZM62.7365 40.2002C62.937 40.2002 63.1307 40.1865 63.3175 40.1592C63.5044 40.1273 63.6525 40.0954 63.7618 40.0635V40.9316C63.6388 40.9909 63.4565 41.0387 63.215 41.0752C62.978 41.1162 62.7638 41.1367 62.5724 41.1367C61.1232 41.1367 60.3986 40.3734 60.3986 38.8467V34.3896H59.3253V33.8428L60.3986 33.3711L60.8771 31.7715H61.5333V33.5078H63.7072V34.3896H61.5333V38.7988C61.5333 39.25 61.6404 39.5964 61.8546 39.8379C62.0688 40.0794 62.3628 40.2002 62.7365 40.2002ZM74.0021 39.9951H73.9406C73.4165 40.7562 72.6326 41.1367 71.589 41.1367C70.6092 41.1367 69.8458 40.8018 69.299 40.1318C68.7566 39.4619 68.4855 38.5094 68.4855 37.2744C68.4855 36.0394 68.7589 35.0801 69.3058 34.3965C69.8527 33.7129 70.6137 33.3711 71.589 33.3711C72.6053 33.3711 73.3846 33.7402 73.9269 34.4785H74.0157L73.9679 33.9385L73.9406 33.4121V30.3633H75.0753V41H74.1525L74.0021 39.9951ZM71.7325 40.1865C72.5073 40.1865 73.0678 39.9769 73.4142 39.5576C73.7651 39.1338 73.9406 38.4525 73.9406 37.5137V37.2744C73.9406 36.2126 73.7628 35.4561 73.4073 35.0049C73.0564 34.5492 72.4936 34.3213 71.7189 34.3213C71.0535 34.3213 70.5431 34.5811 70.1876 35.1006C69.8367 35.6156 69.6613 36.3447 69.6613 37.2881C69.6613 38.2451 69.8367 38.9674 70.1876 39.4551C70.5385 39.9427 71.0535 40.1865 71.7325 40.1865ZM78.6232 41H77.4884V33.5078H78.6232V41ZM77.3927 31.4775C77.3927 31.2178 77.4565 31.0286 77.5841 30.9102C77.7117 30.7871 77.8712 30.7256 78.0626 30.7256C78.2449 30.7256 78.4021 30.7871 78.5343 30.9102C78.6665 31.0332 78.7325 31.2223 78.7325 31.4775C78.7325 31.7327 78.6665 31.9242 78.5343 32.0518C78.4021 32.1748 78.2449 32.2363 78.0626 32.2363C77.8712 32.2363 77.7117 32.1748 77.5841 32.0518C77.4565 31.9242 77.3927 31.7327 77.3927 31.4775ZM85.8624 38.9561C85.8624 39.6533 85.6027 40.1911 85.0831 40.5693C84.5636 40.9476 83.8344 41.1367 82.8956 41.1367C81.9021 41.1367 81.1274 40.9795 80.5714 40.665V39.6123C80.9314 39.7946 81.3165 39.9382 81.7267 40.043C82.1414 40.1478 82.5402 40.2002 82.923 40.2002C83.5154 40.2002 83.9712 40.1068 84.2902 39.9199C84.6092 39.7285 84.7687 39.4391 84.7687 39.0518C84.7687 38.7601 84.6411 38.5117 84.3859 38.3066C84.1352 38.097 83.643 37.8509 82.9093 37.5684C82.212 37.3086 81.7153 37.083 81.4191 36.8916C81.1274 36.6956 80.9087 36.4746 80.7628 36.2285C80.6215 35.9824 80.5509 35.6885 80.5509 35.3467C80.5509 34.736 80.7993 34.2552 81.296 33.9043C81.7928 33.5488 82.4741 33.3711 83.34 33.3711C84.1466 33.3711 84.935 33.5352 85.7052 33.8633L85.3019 34.7861C84.5499 34.4762 83.8686 34.3213 83.2579 34.3213C82.7202 34.3213 82.3146 34.4056 82.0411 34.5742C81.7677 34.7428 81.631 34.9753 81.631 35.2715C81.631 35.472 81.6811 35.6429 81.7814 35.7842C81.8862 35.9255 82.0525 36.0599 82.2804 36.1875C82.5083 36.3151 82.9458 36.4997 83.5929 36.7412C84.4816 37.0648 85.0809 37.3906 85.3907 37.7188C85.7052 38.0469 85.8624 38.4593 85.8624 38.9561ZM91.1329 33.3711C91.4656 33.3711 91.7641 33.3984 92.0284 33.4531L91.8712 34.5059C91.5613 34.4375 91.2879 34.4033 91.0509 34.4033C90.4448 34.4033 89.9253 34.6494 89.4923 35.1416C89.0639 35.6338 88.8497 36.2467 88.8497 36.9805V41H87.715V33.5078H88.6515L88.7814 34.8955H88.8361C89.1141 34.4079 89.449 34.0319 89.8409 33.7676C90.2329 33.5033 90.6635 33.3711 91.1329 33.3711ZM94.4962 33.5078V38.3682C94.4962 38.9788 94.6352 39.4346 94.9132 39.7354C95.1912 40.0361 95.6264 40.1865 96.2189 40.1865C97.0027 40.1865 97.5747 39.9723 97.9347 39.5439C98.2993 39.1156 98.4816 38.416 98.4816 37.4453V33.5078H99.6163V41H98.6798L98.5157 39.9951H98.4542C98.2218 40.3643 97.8982 40.6468 97.4835 40.8428C97.0734 41.0387 96.604 41.1367 96.0753 41.1367C95.1639 41.1367 94.4803 40.9202 94.0245 40.4873C93.5734 40.0544 93.3478 39.3617 93.3478 38.4092V33.5078H94.4962ZM105.516 41.1367C105.028 41.1367 104.582 41.0479 104.176 40.8701C103.775 40.6878 103.438 40.4098 103.164 40.0361H103.082C103.137 40.4736 103.164 40.8883 103.164 41.2803V44.3633H102.029V33.5078H102.952L103.109 34.5332H103.164C103.456 34.123 103.795 33.8268 104.183 33.6445C104.57 33.4622 105.014 33.3711 105.516 33.3711C106.509 33.3711 107.275 33.7106 107.813 34.3896C108.355 35.0687 108.626 36.0212 108.626 37.2471C108.626 38.4775 108.35 39.4346 107.799 40.1182C107.252 40.7972 106.491 41.1367 105.516 41.1367ZM105.352 34.335C104.586 34.335 104.032 34.5469 103.691 34.9707C103.349 35.3945 103.173 36.069 103.164 36.9941V37.2471C103.164 38.2998 103.34 39.054 103.691 39.5098C104.041 39.9609 104.604 40.1865 105.379 40.1865C106.026 40.1865 106.532 39.9245 106.897 39.4004C107.266 38.8763 107.45 38.154 107.45 37.2334C107.45 36.2992 107.266 35.5837 106.897 35.0869C106.532 34.5856 106.017 34.335 105.352 34.335ZM113.035 40.2002C113.236 40.2002 113.429 40.1865 113.616 40.1592C113.803 40.1273 113.951 40.0954 114.061 40.0635V40.9316C113.938 40.9909 113.755 41.0387 113.514 41.0752C113.277 41.1162 113.063 41.1367 112.871 41.1367C111.422 41.1367 110.697 40.3734 110.697 38.8467V34.3896H109.624V33.8428L110.697 33.3711L111.176 31.7715H111.832V33.5078H114.006V34.3896H111.832V38.7988C111.832 39.25 111.939 39.5964 112.153 39.8379C112.368 40.0794 112.662 40.2002 113.035 40.2002ZM116.699 41H115.565V33.5078H116.699V41ZM115.469 31.4775C115.469 31.2178 115.533 31.0286 115.66 30.9102C115.788 30.7871 115.947 30.7256 116.139 30.7256C116.321 30.7256 116.478 30.7871 116.61 30.9102C116.743 31.0332 116.809 31.2223 116.809 31.4775C116.809 31.7327 116.743 31.9242 116.61 32.0518C116.478 32.1748 116.321 32.2363 116.139 32.2363C115.947 32.2363 115.788 32.1748 115.66 32.0518C115.533 31.9242 115.469 31.7327 115.469 31.4775ZM124.233 41V36.1533C124.233 35.5426 124.094 35.0869 123.816 34.7861C123.538 34.4854 123.102 34.335 122.51 34.335C121.726 34.335 121.152 34.5469 120.787 34.9707C120.423 35.3945 120.24 36.0941 120.24 37.0693V41H119.106V33.5078H120.028L120.213 34.5332H120.268C120.5 34.1641 120.826 33.8792 121.245 33.6787C121.665 33.4736 122.132 33.3711 122.647 33.3711C123.549 33.3711 124.228 33.5898 124.684 34.0273C125.139 34.4603 125.367 35.1553 125.367 36.1123V41H124.233ZM133.837 33.5078V34.2256L132.449 34.3896C132.577 34.5492 132.691 34.7588 132.791 35.0186C132.891 35.2738 132.942 35.5632 132.942 35.8867C132.942 36.6204 132.691 37.2061 132.19 37.6436C131.688 38.0811 131 38.2998 130.125 38.2998C129.902 38.2998 129.692 38.2816 129.496 38.2451C129.013 38.5003 128.772 38.8216 128.772 39.209C128.772 39.4141 128.856 39.5667 129.025 39.667C129.193 39.7627 129.483 39.8105 129.893 39.8105H131.219C132.03 39.8105 132.652 39.9814 133.085 40.3232C133.523 40.665 133.741 41.1618 133.741 41.8135C133.741 42.6429 133.409 43.2741 132.743 43.707C132.078 44.1445 131.107 44.3633 129.831 44.3633C128.851 44.3633 128.095 44.181 127.562 43.8164C127.033 43.4518 126.769 42.9368 126.769 42.2715C126.769 41.8158 126.915 41.4215 127.206 41.0889C127.498 40.7562 127.908 40.5306 128.437 40.4121C128.245 40.3255 128.083 40.1911 127.951 40.0088C127.824 39.8265 127.76 39.6146 127.76 39.373C127.76 39.0996 127.833 38.8604 127.979 38.6553C128.124 38.4502 128.355 38.252 128.669 38.0605C128.282 37.901 127.965 37.6299 127.719 37.2471C127.477 36.8643 127.357 36.4268 127.357 35.9346C127.357 35.1143 127.603 34.4831 128.095 34.041C128.587 33.5944 129.284 33.3711 130.187 33.3711C130.579 33.3711 130.932 33.4167 131.246 33.5078H133.837ZM127.862 42.2578C127.862 42.6634 128.033 42.971 128.375 43.1807C128.717 43.3903 129.207 43.4951 129.845 43.4951C130.797 43.4951 131.501 43.3516 131.957 43.0645C132.417 42.7819 132.648 42.3968 132.648 41.9092C132.648 41.5036 132.522 41.221 132.272 41.0615C132.021 40.9066 131.549 40.8291 130.857 40.8291H129.496C128.981 40.8291 128.58 40.9521 128.293 41.1982C128.006 41.4443 127.862 41.7975 127.862 42.2578ZM128.478 35.9072C128.478 36.4313 128.626 36.8278 128.922 37.0967C129.218 37.3656 129.631 37.5 130.159 37.5C131.267 37.5 131.82 36.9622 131.82 35.8867C131.82 34.7611 131.26 34.1982 130.139 34.1982C129.606 34.1982 129.195 34.3418 128.908 34.6289C128.621 34.916 128.478 35.3421 128.478 35.9072ZM18.3029 57.9951H18.2413C17.7172 58.7562 16.9334 59.1367 15.8898 59.1367C14.91 59.1367 14.1466 58.8018 13.5997 58.1318C13.0574 57.4619 12.7863 56.5094 12.7863 55.2744C12.7863 54.0394 13.0597 53.0801 13.6066 52.3965C14.1534 51.7129 14.9145 51.3711 15.8898 51.3711C16.906 51.3711 17.6853 51.7402 18.2277 52.4785H18.3165L18.2687 51.9385L18.2413 51.4121V48.3633H19.3761V59H18.4532L18.3029 57.9951ZM16.0333 58.1865C16.8081 58.1865 17.3686 57.9769 17.715 57.5576C18.0659 57.1338 18.2413 56.4525 18.2413 55.5137V55.2744C18.2413 54.2126 18.0636 53.4561 17.7081 53.0049C17.3572 52.5492 16.7944 52.3213 16.0197 52.3213C15.3543 52.3213 14.8439 52.5811 14.4884 53.1006C14.1375 53.6156 13.962 54.3447 13.962 55.2881C13.962 56.2451 14.1375 56.9674 14.4884 57.4551C14.8393 57.9427 15.3543 58.1865 16.0333 58.1865ZM26.3966 59L26.171 57.9336H26.1163C25.7426 58.403 25.3689 58.722 24.9952 58.8906C24.6261 59.0547 24.1635 59.1367 23.6075 59.1367C22.8647 59.1367 22.2814 58.9453 21.8575 58.5625C21.4383 58.1797 21.2286 57.6351 21.2286 56.9287C21.2286 55.4157 22.4386 54.6227 24.8585 54.5498L26.13 54.5088V54.0439C26.13 53.4561 26.0024 53.0231 25.7472 52.7451C25.4965 52.4626 25.0932 52.3213 24.5372 52.3213C23.9129 52.3213 23.2065 52.5127 22.4181 52.8955L22.0695 52.0273C22.4386 51.8268 22.8419 51.6696 23.2794 51.5557C23.7215 51.4417 24.1635 51.3848 24.6056 51.3848C25.4988 51.3848 26.1596 51.583 26.588 51.9795C27.021 52.376 27.2374 53.0117 27.2374 53.8867V59H26.3966ZM23.8331 58.2002C24.5395 58.2002 25.0932 58.0065 25.4943 57.6191C25.8999 57.2318 26.1027 56.6895 26.1027 55.9922V55.3154L24.9679 55.3633C24.0656 55.3952 23.4139 55.5365 23.0128 55.7871C22.6163 56.0332 22.4181 56.4183 22.4181 56.9424C22.4181 57.3525 22.5411 57.6647 22.7872 57.8789C23.0379 58.0931 23.3865 58.2002 23.8331 58.2002ZM28.3927 51.5078H29.6095L31.2501 55.7803C31.6101 56.7555 31.8335 57.4596 31.92 57.8926H31.9747C32.034 57.6602 32.157 57.2637 32.3439 56.7031C32.5353 56.138 33.1551 54.4062 34.2032 51.5078H35.42L32.2003 60.0391C31.8813 60.8822 31.5076 61.4792 31.0792 61.8301C30.6554 62.1855 30.1336 62.3633 29.5138 62.3633C29.1674 62.3633 28.8256 62.3245 28.4884 62.2471V61.3379C28.7391 61.3926 29.0193 61.4199 29.3292 61.4199C30.1085 61.4199 30.6645 60.9824 30.9972 60.1074L31.4142 59.041L28.3927 51.5078ZM36.0079 55.7666V54.7275H39.3644V55.7666H36.0079ZM43.5685 58.2002C43.769 58.2002 43.9627 58.1865 44.1495 58.1592C44.3364 58.1273 44.4845 58.0954 44.5939 58.0635V58.9316C44.4708 58.9909 44.2885 59.0387 44.047 59.0752C43.81 59.1162 43.5958 59.1367 43.4044 59.1367C41.9552 59.1367 41.2306 58.3734 41.2306 56.8467V52.3896H40.1573V51.8428L41.2306 51.3711L41.7091 49.7715H42.3654V51.5078H44.5392V52.3896H42.3654V56.7988C42.3654 57.25 42.4725 57.5964 42.6866 57.8379C42.9008 58.0794 43.1948 58.2002 43.5685 58.2002ZM52.5646 55.2471C52.5646 56.4684 52.257 57.4232 51.6417 58.1113C51.0265 58.7949 50.1766 59.1367 49.0919 59.1367C48.422 59.1367 47.8273 58.9795 47.3077 58.665C46.7882 58.3506 46.3872 57.8994 46.1046 57.3115C45.8221 56.7236 45.6808 56.0355 45.6808 55.2471C45.6808 54.0257 45.9861 53.0755 46.5968 52.3965C47.2075 51.7129 48.0551 51.3711 49.1398 51.3711C50.1879 51.3711 51.0197 51.7197 51.6349 52.417C52.2547 53.1143 52.5646 54.0576 52.5646 55.2471ZM46.8566 55.2471C46.8566 56.2041 47.048 56.9333 47.4308 57.4346C47.8136 57.9359 48.3764 58.1865 49.1193 58.1865C49.8621 58.1865 50.4249 57.9382 50.8077 57.4414C51.1951 56.9401 51.3888 56.2087 51.3888 55.2471C51.3888 54.2946 51.1951 53.5723 50.8077 53.0801C50.4249 52.5833 49.8575 52.335 49.1056 52.335C48.3628 52.335 47.8022 52.5788 47.424 53.0664C47.0457 53.554 46.8566 54.2809 46.8566 55.2471ZM53.9318 55.7666V54.7275H57.2882V55.7666H53.9318ZM64.172 57.9951H64.1105C63.5864 58.7562 62.8025 59.1367 61.7589 59.1367C60.7791 59.1367 60.0157 58.8018 59.4689 58.1318C58.9266 57.4619 58.6554 56.5094 58.6554 55.2744C58.6554 54.0394 58.9288 53.0801 59.4757 52.3965C60.0226 51.7129 60.7837 51.3711 61.7589 51.3711C62.7752 51.3711 63.5545 51.7402 64.0968 52.4785H64.1857L64.1378 51.9385L64.1105 51.4121V48.3633H65.2452V59H64.3224L64.172 57.9951ZM61.9025 58.1865C62.6772 58.1865 63.2378 57.9769 63.5841 57.5576C63.935 57.1338 64.1105 56.4525 64.1105 55.5137V55.2744C64.1105 54.2126 63.9327 53.4561 63.5773 53.0049C63.2264 52.5492 62.6635 52.3213 61.8888 52.3213C61.2234 52.3213 60.713 52.5811 60.3575 53.1006C60.0066 53.6156 59.8312 54.3447 59.8312 55.2881C59.8312 56.2451 60.0066 56.9674 60.3575 57.4551C60.7085 57.9427 61.2234 58.1865 61.9025 58.1865ZM72.2657 59L72.0402 57.9336H71.9855C71.6118 58.403 71.2381 58.722 70.8644 58.8906C70.4952 59.0547 70.0327 59.1367 69.4767 59.1367C68.7338 59.1367 68.1505 58.9453 67.7267 58.5625C67.3074 58.1797 67.0978 57.6351 67.0978 56.9287C67.0978 55.4157 68.3077 54.6227 70.7277 54.5498L71.9991 54.5088V54.0439C71.9991 53.4561 71.8715 53.0231 71.6163 52.7451C71.3657 52.4626 70.9624 52.3213 70.4064 52.3213C69.782 52.3213 69.0756 52.5127 68.2872 52.8955L67.9386 52.0273C68.3077 51.8268 68.7111 51.6696 69.1486 51.5557C69.5906 51.4417 70.0327 51.3848 70.4747 51.3848C71.368 51.3848 72.0288 51.583 72.4572 51.9795C72.8901 52.376 73.1066 53.0117 73.1066 53.8867V59H72.2657ZM69.7023 58.2002C70.4087 58.2002 70.9624 58.0065 71.3634 57.6191C71.769 57.2318 71.9718 56.6895 71.9718 55.9922V55.3154L70.837 55.3633C69.9347 55.3952 69.283 55.5365 68.882 55.7871C68.4855 56.0332 68.2872 56.4183 68.2872 56.9424C68.2872 57.3525 68.4103 57.6647 68.6564 57.8789C68.907 58.0931 69.2557 58.2002 69.7023 58.2002ZM74.2618 51.5078H75.4786L77.1193 55.7803C77.4793 56.7555 77.7026 57.4596 77.7892 57.8926H77.8439C77.9031 57.6602 78.0262 57.2637 78.213 56.7031C78.4044 56.138 79.0242 54.4062 80.0724 51.5078H81.2892L78.0695 60.0391C77.7504 60.8822 77.3767 61.4792 76.9484 61.8301C76.5245 62.1855 76.0027 62.3633 75.3829 62.3633C75.0366 62.3633 74.6948 62.3245 74.3575 62.2471V61.3379C74.6082 61.3926 74.8885 61.4199 75.1984 61.4199C75.9777 61.4199 76.5337 60.9824 76.8663 60.1074L77.2833 59.041L74.2618 51.5078ZM92.6095 55.2471C92.6095 56.4684 92.3019 57.4232 91.6866 58.1113C91.0714 58.7949 90.2215 59.1367 89.1368 59.1367C88.4669 59.1367 87.8722 58.9795 87.3527 58.665C86.8331 58.3506 86.4321 57.8994 86.1495 57.3115C85.867 56.7236 85.7257 56.0355 85.7257 55.2471C85.7257 54.0257 86.031 53.0755 86.6417 52.3965C87.2524 51.7129 88.1001 51.3711 89.1847 51.3711C90.2329 51.3711 91.0646 51.7197 91.6798 52.417C92.2996 53.1143 92.6095 54.0576 92.6095 55.2471ZM86.9015 55.2471C86.9015 56.2041 87.0929 56.9333 87.4757 57.4346C87.8585 57.9359 88.4213 58.1865 89.1642 58.1865C89.907 58.1865 90.4698 57.9382 90.8527 57.4414C91.24 56.9401 91.4337 56.2087 91.4337 55.2471C91.4337 54.2946 91.24 53.5723 90.8527 53.0801C90.4698 52.5833 89.9025 52.335 89.1505 52.335C88.4077 52.335 87.8471 52.5788 87.4689 53.0664C87.0906 53.554 86.9015 54.2809 86.9015 55.2471ZM98.0919 59.1367C97.6043 59.1367 97.1577 59.0479 96.7521 58.8701C96.351 58.6878 96.0138 58.4098 95.7404 58.0361H95.6583C95.713 58.4736 95.7404 58.8883 95.7404 59.2803V62.3633H94.6056V51.5078H95.5284L95.6857 52.5332H95.7404C96.032 52.123 96.3715 51.8268 96.7589 51.6445C97.1463 51.4622 97.5906 51.3711 98.0919 51.3711C99.0854 51.3711 99.851 51.7106 100.389 52.3896C100.931 53.0687 101.202 54.0212 101.202 55.2471C101.202 56.4775 100.927 57.4346 100.375 58.1182C99.8282 58.7972 99.0672 59.1367 98.0919 59.1367ZM97.9279 52.335C97.1622 52.335 96.6085 52.5469 96.2667 52.9707C95.9249 53.3945 95.7495 54.069 95.7404 54.9941V55.2471C95.7404 56.2998 95.9158 57.054 96.2667 57.5098C96.6176 57.9609 97.1805 58.1865 97.9552 58.1865C98.6023 58.1865 99.1082 57.9245 99.4728 57.4004C99.8419 56.8763 100.026 56.154 100.026 55.2334C100.026 54.2992 99.8419 53.5837 99.4728 53.0869C99.1082 52.5856 98.5932 52.335 97.9279 52.335ZM106.357 59.1367C105.249 59.1367 104.374 58.7995 103.732 58.125C103.094 57.4505 102.775 56.514 102.775 55.3154C102.775 54.1077 103.071 53.1484 103.663 52.4375C104.26 51.7266 105.06 51.3711 106.063 51.3711C107.001 51.3711 107.744 51.681 108.291 52.3008C108.838 52.916 109.111 53.7295 109.111 54.7412V55.459H103.95C103.973 56.3385 104.194 57.0062 104.613 57.4619C105.037 57.9176 105.632 58.1455 106.398 58.1455C107.204 58.1455 108.002 57.9769 108.79 57.6396V58.6514C108.389 58.8245 108.009 58.9476 107.649 59.0205C107.293 59.098 106.862 59.1367 106.357 59.1367ZM106.049 52.3213C105.447 52.3213 104.967 52.5173 104.607 52.9092C104.251 53.3011 104.041 53.8434 103.978 54.5361H107.895C107.895 53.8206 107.735 53.2738 107.416 52.8955C107.097 52.5127 106.641 52.3213 106.049 52.3213ZM114.471 51.3711C114.804 51.3711 115.102 51.3984 115.366 51.4531L115.209 52.5059C114.899 52.4375 114.626 52.4033 114.389 52.4033C113.783 52.4033 113.263 52.6494 112.83 53.1416C112.402 53.6338 112.188 54.2467 112.188 54.9805V59H111.053V51.5078H111.989L112.119 52.8955H112.174C112.452 52.4079 112.787 52.0319 113.179 51.7676C113.571 51.5033 114.001 51.3711 114.471 51.3711ZM121.375 59L121.15 57.9336H121.095C120.721 58.403 120.347 58.722 119.974 58.8906C119.605 59.0547 119.142 59.1367 118.586 59.1367C117.843 59.1367 117.26 58.9453 116.836 58.5625C116.417 58.1797 116.207 57.6351 116.207 56.9287C116.207 55.4157 117.417 54.6227 119.837 54.5498L121.109 54.5088V54.0439C121.109 53.4561 120.981 53.0231 120.726 52.7451C120.475 52.4626 120.072 52.3213 119.516 52.3213C118.891 52.3213 118.185 52.5127 117.397 52.8955L117.048 52.0273C117.417 51.8268 117.82 51.6696 118.258 51.5557C118.7 51.4417 119.142 51.3848 119.584 51.3848C120.477 51.3848 121.138 51.583 121.567 51.9795C121.999 52.376 122.216 53.0117 122.216 53.8867V59H121.375ZM118.812 58.2002C119.518 58.2002 120.072 58.0065 120.473 57.6191C120.878 57.2318 121.081 56.6895 121.081 55.9922V55.3154L119.946 55.3633C119.044 55.3952 118.392 55.5365 117.991 55.7871C117.595 56.0332 117.397 56.4183 117.397 56.9424C117.397 57.3525 117.52 57.6647 117.766 57.8789C118.016 58.0931 118.365 58.2002 118.812 58.2002ZM126.981 58.2002C127.181 58.2002 127.375 58.1865 127.562 58.1592C127.748 58.1273 127.897 58.0954 128.006 58.0635V58.9316C127.883 58.9909 127.701 59.0387 127.459 59.0752C127.222 59.1162 127.008 59.1367 126.817 59.1367C125.367 59.1367 124.643 58.3734 124.643 56.8467V52.3896H123.569V51.8428L124.643 51.3711L125.121 49.7715H125.777V51.5078H127.951V52.3896H125.777V56.7988C125.777 57.25 125.885 57.5964 126.099 57.8379C126.313 58.0794 126.607 58.2002 126.981 58.2002ZM130.645 59H129.51V51.5078H130.645V59ZM129.414 49.4775C129.414 49.2178 129.478 49.0286 129.606 48.9102C129.733 48.7871 129.893 48.7256 130.084 48.7256C130.266 48.7256 130.424 48.7871 130.556 48.9102C130.688 49.0332 130.754 49.2223 130.754 49.4775C130.754 49.7327 130.688 49.9242 130.556 50.0518C130.424 50.1748 130.266 50.2363 130.084 50.2363C129.893 50.2363 129.733 50.1748 129.606 50.0518C129.478 49.9242 129.414 49.7327 129.414 49.4775ZM139.518 55.2471C139.518 56.4684 139.21 57.4232 138.595 58.1113C137.98 58.7949 137.13 59.1367 136.045 59.1367C135.375 59.1367 134.78 58.9795 134.261 58.665C133.741 58.3506 133.34 57.8994 133.058 57.3115C132.775 56.7236 132.634 56.0355 132.634 55.2471C132.634 54.0257 132.939 53.0755 133.55 52.3965C134.161 51.7129 135.008 51.3711 136.093 51.3711C137.141 51.3711 137.973 51.7197 138.588 52.417C139.208 53.1143 139.518 54.0576 139.518 55.2471ZM133.81 55.2471C133.81 56.2041 134.001 56.9333 134.384 57.4346C134.767 57.9359 135.33 58.1865 136.072 58.1865C136.815 58.1865 137.378 57.9382 137.761 57.4414C138.148 56.9401 138.342 56.2087 138.342 55.2471C138.342 54.2946 138.148 53.5723 137.761 53.0801C137.378 52.5833 136.811 52.335 136.059 52.335C135.316 52.335 134.755 52.5788 134.377 53.0664C133.999 53.554 133.81 54.2809 133.81 55.2471ZM146.641 59V54.1533C146.641 53.5426 146.502 53.0869 146.224 52.7861C145.946 52.4854 145.511 52.335 144.918 52.335C144.134 52.335 143.56 52.5469 143.195 52.9707C142.831 53.3945 142.649 54.0941 142.649 55.0693V59H141.514V51.5078H142.437L142.621 52.5332H142.676C142.908 52.1641 143.234 51.8792 143.653 51.6787C144.073 51.4736 144.54 51.3711 145.055 51.3711C145.957 51.3711 146.636 51.5898 147.092 52.0273C147.548 52.4603 147.776 53.1553 147.776 54.1123V59H146.641ZM154.946 56.9561C154.946 57.6533 154.687 58.1911 154.167 58.5693C153.648 58.9476 152.918 59.1367 151.98 59.1367C150.986 59.1367 150.211 58.9795 149.655 58.665V57.6123C150.015 57.7946 150.401 57.9382 150.811 58.043C151.225 58.1478 151.624 58.2002 152.007 58.2002C152.599 58.2002 153.055 58.1068 153.374 57.9199C153.693 57.7285 153.853 57.4391 153.853 57.0518C153.853 56.7601 153.725 56.5117 153.47 56.3066C153.219 56.097 152.727 55.8509 151.993 55.5684C151.296 55.3086 150.799 55.083 150.503 54.8916C150.211 54.6956 149.993 54.4746 149.847 54.2285C149.706 53.9824 149.635 53.6885 149.635 53.3467C149.635 52.736 149.883 52.2552 150.38 51.9043C150.877 51.5488 151.558 51.3711 152.424 51.3711C153.231 51.3711 154.019 51.5352 154.789 51.8633L154.386 52.7861C153.634 52.4762 152.953 52.3213 152.342 52.3213C151.804 52.3213 151.399 52.4056 151.125 52.5742C150.852 52.7428 150.715 52.9753 150.715 53.2715C150.715 53.472 150.765 53.6429 150.865 53.7842C150.97 53.9255 151.137 54.0599 151.364 54.1875C151.592 54.3151 152.03 54.4997 152.677 54.7412C153.566 55.0648 154.165 55.3906 154.475 55.7188C154.789 56.0469 154.946 56.4593 154.946 56.9561Z" fill="#31393C"/>
</g>
<defs>
<filter id="filter0_d_5_3" x="0.5" y="0" width="476" height="289.902" filterUnits="userSpaceOnUse" color-interpolation-filters="sRGB">
<feFlood flood-opacity="0" result="BackgroundImageFix"/>
<feColorMatrix in="SourceAlpha" type="matrix" values="0 0 0 0 0 0 0 0 0 0 0 0 0 0 0 0 0 0 127 0" result="hardAlpha"/>
<feOffset dy="4"/>
<feGaussianBlur stdDeviation="2"/>
<feComposite in2="hardAlpha" operator="out"/>
<feColorMatrix type="matrix" values="0 0 0 0 0 0 0 0 0 0 0 0 0 0 0 0 0 0 0.25 0"/>
<feBlend mode="normal" in2="BackgroundImageFix" result="effect1_dropShadow_5_3"/>
<feBlend mode="normal" in="SourceGraphic" in2="effect1_dropShadow_5_3" result="shape"/>
</filter>
<radialGradient id="paint0_radial_5_3" cx="0" cy="0" r="1" gradientUnits="userSpaceOnUse" gradientTransform="translate(252 179) rotate(90) scale(101 174)">
<stop offset="0.307292" stop-color="#3E96F4" stop-opacity="0.45"/>
<stop offset="0.770833" stop-color="#3E96F4" stop-opacity="0.05"/>
<stop offset="1" stop-color="#3E96F4" stop-opacity="0"/>
</radialGradient>
<linearGradient id="paint1_linear_5_3" x1="279.844" y1="125.07" x2="198.205" y2="129.968" gradientUnits="userSpaceOnUse">
<stop stop-color="#5F82A8"/>
<stop offset="0.35" stop-color="#708092"/>
<stop offset="0.7" stop-color="#7B7F84"/>
<stop offset="1" stop-color="#7F7F7F"/>
</linearGradient>
<clipPath id="clip0_5_3">
<rect width="287.368" height="281.902" fill="white" transform="translate(109)"/>
</clipPath>
</defs>
</svg>
