<svg width="32" height="32" viewBox="0 0 32 32" fill="none" xmlns="http://www.w3.org/2000/svg">
<g style="mix-blend-mode:multiply">
<path d="M4.12719 12.2804C2.62676 11.4282 2.62365 9.27943 4.1216 8.42301L14.838 2.2962C15.5268 1.90239 16.3741 1.90119 17.064 2.29305L27.8729 8.43205C29.3733 9.28423 29.3763 11.4331 27.8783 12.2894L26.4413 13.1109C25.3949 13.7091 24.0754 13.3519 23.2359 12.4899C21.4054 10.6103 18.84 9.44187 16 9.44187C13.1638 9.44187 10.6015 10.6071 8.77159 12.4822C7.93417 13.3402 6.62059 13.6964 5.57624 13.1033L4.12719 12.2804Z" fill="#62D84E" fill-opacity="0.8"/>
</g>
<g style="mix-blend-mode:multiply">
<path d="M18.1667 26.1546C18.17 25.0166 17.2144 24.1039 16.0561 23.8162C11.748 22.7459 8.56903 19.0212 8.56903 14.5908C8.56903 13.754 8.68244 12.9424 8.89546 12.169C9.19503 11.0815 8.83915 9.85907 7.81481 9.29707L6.3785 8.50904C4.89491 7.69508 3.04004 8.70979 3.03514 10.338L3.00001 21.9999C2.99772 22.7591 3.423 23.4615 4.1148 23.841L14.8182 29.7131C16.3019 30.527 18.1567 29.5122 18.1615 27.884L18.1667 26.1546Z" fill="#84979C" fill-opacity="0.8"/>
</g>
<path d="M13.8334 26.1546C13.83 25.0166 14.7857 24.104 15.944 23.8162C20.2521 22.7459 23.4311 19.0213 23.4311 14.5908C23.4311 13.754 23.3177 12.9423 23.1047 12.169C22.8051 11.0814 23.161 9.85901 24.1853 9.29701L25.6215 8.50904C27.1051 7.69508 28.96 8.70979 28.9649 10.338L29 21.9999C29.0023 22.7591 28.577 23.4615 27.8852 23.841L17.1818 29.7131C15.6982 30.527 13.8433 29.5122 13.8385 27.884L13.8334 26.1546Z" fill="#C1C9D1" fill-opacity="0.8"/>
</svg>
