<svg width="78" height="78" viewBox="0 0 78 78" fill="none" xmlns="http://www.w3.org/2000/svg">
<circle cx="36" cy="36" r="37.5" transform="matrix(1 0 0 -1 3 75)" fill="#3E96F4" stroke="white" stroke-width="3"/>
<path d="M39.1362 56.5358C39.0437 56.5358 38.9523 56.5158 38.8682 56.4771C38.7841 56.4385 38.7093 56.3822 38.649 56.3121C38.631 56.2915 36.8194 54.1817 34.563 51.1185C30.2006 45.2043 25 36.936 25 31.1368C24.9984 28.1387 25.9505 25.2177 27.7187 22.7965C29.4868 20.3752 31.9794 18.5792 34.8358 17.6681C37.6922 16.7571 40.7643 16.7783 43.6079 17.7286C46.4514 18.679 48.9189 20.5092 50.6535 22.9546C50.7521 23.0939 50.7913 23.2665 50.7625 23.4346C50.7338 23.6027 50.6394 23.7526 50.5002 23.8511C50.361 23.9496 50.1883 23.9889 50.0202 23.9601C49.8521 23.9313 49.7023 23.837 49.6038 23.6978C48.0268 21.4753 45.7837 19.812 43.199 18.9484C40.6143 18.0849 37.8219 18.0659 35.2256 18.8941C32.6294 19.7224 30.3639 21.355 28.7568 23.5558C27.1497 25.7567 26.2843 28.4117 26.2857 31.1368C26.2857 35.3886 29.5925 42.2144 35.5974 50.358C36.7349 51.9022 37.9139 53.4153 39.133 54.8959C40.3544 53.4165 41.5345 51.9035 42.6719 50.3586C46.0668 45.7552 50.3745 39.1583 51.6319 33.8561C51.649 33.7716 51.6829 33.6913 51.7316 33.6202C51.7803 33.549 51.8429 33.4884 51.9155 33.4419C51.9881 33.3955 52.0694 33.3641 52.1544 33.3496C52.2394 33.3352 52.3264 33.338 52.4103 33.3579C52.4942 33.3777 52.5733 33.4143 52.6427 33.4654C52.7122 33.5164 52.7707 33.581 52.8148 33.6551C52.8588 33.7292 52.8875 33.8115 52.8991 33.8969C52.9107 33.9823 52.905 34.0692 52.8823 34.1524C51.576 39.6661 47.1719 46.4225 43.7095 51.1185C41.4531 54.1817 39.6415 56.2915 39.6235 56.3121C39.5632 56.3822 39.4884 56.4385 39.4043 56.4771C39.3202 56.5158 39.2288 56.5358 39.1362 56.5358Z" fill="white"/>
<path d="M52.5119 30.0214C52.3496 30.0219 52.1932 29.961 52.074 29.8509C51.9547 29.7409 51.8815 29.5898 51.869 29.428C51.7965 28.8468 51.6778 28.2722 51.5142 27.7097C51.497 27.6515 51.4883 27.5911 51.4885 27.5304C51.4868 27.3707 51.5446 27.2161 51.6507 27.0967C51.7567 26.9774 51.9034 26.9017 52.0622 26.8846C52.2209 26.8674 52.3804 26.9099 52.5095 27.0039C52.6386 27.0978 52.7282 27.2365 52.7607 27.3928C52.939 28.0166 53.068 28.6535 53.1464 29.2975C53.1492 29.3234 53.1507 29.3493 53.1509 29.3753C53.1517 29.5457 53.0849 29.7095 52.9651 29.8306C52.8453 29.9518 52.6823 30.0204 52.5119 30.0214ZM39.1342 41.2443C37.1453 41.2443 35.2011 40.6545 33.5474 39.5495C31.8936 38.4445 30.6047 36.874 29.8436 35.0365C29.0825 33.199 28.8833 31.177 29.2714 29.2263C29.6594 27.2756 30.6171 25.4838 32.0235 24.0774C33.4299 22.6711 35.2217 21.7133 37.1724 21.3253C39.1231 20.9373 41.145 21.1364 42.9825 21.8976C44.82 22.6587 46.3906 23.9476 47.4955 25.6013C48.6005 27.255 49.1903 29.1993 49.1903 31.1882C49.1872 33.8543 48.1268 36.4103 46.2416 38.2955C44.3563 40.1807 41.8003 41.2412 39.1342 41.2443ZM39.1342 22.4184C37.3996 22.4184 35.7039 22.9328 34.2616 23.8965C32.8193 24.8603 31.6952 26.2301 31.0314 27.8327C30.3676 29.4353 30.1939 31.1988 30.5324 32.9001C30.8709 34.6014 31.7062 36.1641 32.9328 37.3906C34.1595 38.6172 35.7223 39.4524 37.4236 39.7908C39.1249 40.1291 40.8884 39.9553 42.4909 39.2914C44.0935 38.6275 45.4632 37.5033 46.4268 36.0609C47.3905 34.6185 47.9047 32.9228 47.9046 31.1882C47.9017 28.8631 46.9767 26.634 45.3326 24.99C43.6884 23.346 41.4593 22.4211 39.1342 22.4184Z" fill="white"/>
<path d="M46.7854 37.3146C46.6831 37.3147 46.5822 37.2903 46.4912 37.2436C46.4002 37.1969 46.3217 37.1291 46.2621 37.0459C45.4662 35.9183 44.4126 34.997 43.189 34.3584C41.9653 33.7199 40.607 33.3826 39.2268 33.3746C39.2199 33.3752 39.2131 33.3752 39.2062 33.3746H39.0416C37.6615 33.3826 36.3031 33.7199 35.0795 34.3584C33.8558 34.997 32.8023 35.9183 32.0063 37.0459C31.9065 37.1829 31.7567 37.275 31.5893 37.3021C31.422 37.3292 31.2507 37.2891 31.1128 37.1905C30.9749 37.0919 30.8815 36.9428 30.8529 36.7757C30.8244 36.6086 30.863 36.437 30.9604 36.2982C31.8809 35.0129 33.0908 33.9622 34.4924 33.231C35.894 32.4997 37.448 32.1085 39.0288 32.0889H39.2416C40.8224 32.1085 42.3763 32.4997 43.778 33.231C45.1796 33.9622 46.3895 35.0129 47.31 36.2982C47.359 36.367 47.3941 36.4447 47.4131 36.5269C47.4321 36.6092 47.4347 36.6944 47.4208 36.7777C47.4069 36.8609 47.3767 36.9406 47.332 37.0123C47.2873 37.0839 47.2289 37.146 47.1602 37.195C47.0511 37.2735 46.9198 37.3154 46.7854 37.3146Z" fill="white"/>
<path d="M39.1365 33.3817C38.3524 33.3818 37.5859 33.1494 36.9338 32.7138C36.2818 32.2783 35.7736 31.6592 35.4734 30.9348C35.1733 30.2104 35.0947 29.4132 35.2476 28.6442C35.4005 27.8751 35.778 27.1687 36.3324 26.6141C36.8868 26.0596 37.5932 25.682 38.3622 25.529C39.1313 25.376 39.9284 25.4544 40.6529 25.7545C41.3773 26.0545 41.9965 26.5626 42.4322 27.2146C42.8678 27.8666 43.1004 28.6331 43.1004 29.4172C43.0993 30.4682 42.6814 31.4759 41.9383 32.2191C41.1952 32.9624 40.1876 33.3805 39.1365 33.3817ZM39.1365 26.7391C38.6067 26.739 38.0887 26.896 37.6481 27.1903C37.2075 27.4846 36.864 27.9029 36.6612 28.3924C36.4584 28.8819 36.4053 29.4206 36.5086 29.9403C36.6119 30.46 36.8671 30.9373 37.2417 31.312C37.6164 31.6867 38.0938 31.9418 38.6135 32.0452C39.1332 32.1485 39.6718 32.0954 40.1613 31.8926C40.6508 31.6897 41.0692 31.3463 41.3635 30.9057C41.6578 30.4651 41.8148 29.9471 41.8147 29.4172C41.8138 28.7072 41.5314 28.0265 41.0293 27.5244C40.5273 27.0224 39.8466 26.74 39.1365 26.7391ZM39.1365 62C31.882 62 26.1992 59.3174 26.1992 55.8929C26.1992 53.2026 29.6462 50.9289 34.9805 50.1009C35.0646 50.0863 35.1508 50.0887 35.234 50.1078C35.3171 50.1269 35.3957 50.1623 35.465 50.2121C35.5344 50.2619 35.5931 50.325 35.6378 50.3977C35.6825 50.4704 35.7122 50.5513 35.7253 50.6356C35.7384 50.72 35.7346 50.8061 35.7141 50.8889C35.6936 50.9717 35.6567 51.0497 35.6058 51.1181C35.5548 51.1866 35.4907 51.2442 35.4173 51.2877C35.3438 51.3311 35.2624 51.3595 35.1779 51.3711C30.6509 52.0751 27.4849 53.9342 27.4849 55.8929C27.4849 58.2213 32.1668 60.7143 39.1365 60.7143C46.1063 60.7143 50.7882 58.2213 50.7882 55.8929C50.7882 53.9342 47.6247 52.0751 43.0952 51.3711C43.0107 51.3595 42.9293 51.3311 42.8558 51.2877C42.7824 51.2442 42.7183 51.1866 42.6673 51.1181C42.6164 51.0497 42.5795 50.9717 42.559 50.8889C42.5385 50.8061 42.5347 50.72 42.5478 50.6356C42.5609 50.5513 42.5906 50.4704 42.6353 50.3977C42.68 50.325 42.7387 50.2619 42.8081 50.2121C42.8774 50.1623 42.9559 50.1269 43.0391 50.1078C43.1223 50.0887 43.2085 50.0863 43.2926 50.1009C48.6282 50.9289 52.0739 53.2026 52.0739 55.8929C52.0739 59.3174 46.3911 62 39.1365 62Z" fill="white"/>
</svg>
