<svg width="57" height="62" viewBox="0 0 57 62" fill="none" xmlns="http://www.w3.org/2000/svg">
<path d="M51.2637 38.6895C49.8128 38.6895 48.4587 39.3666 47.5881 40.4306L40.3339 36.5616C41.1076 34.8206 41.5913 32.9828 41.5913 30.9516C41.5913 28.9204 41.1076 27.0827 40.3339 25.3417L47.5881 21.4727C48.4587 22.5367 49.8128 23.2137 51.2637 23.2137C53.9719 23.2137 56.0998 21.0858 56.0998 18.3775C56.0998 15.6693 53.9719 13.5413 51.2637 13.5413C48.5554 13.5413 46.4275 15.6693 46.4275 18.3775C46.4275 18.8612 46.5242 19.3448 46.6209 19.7317L39.3666 23.6006C37.142 20.1186 33.273 17.7005 28.9204 17.4103V9.57566C31.1451 9.09204 32.7894 7.15757 32.7894 4.83619C32.7894 2.12793 30.6615 0 27.9532 0C25.2449 0 23.117 2.12793 23.117 4.83619C23.117 7.15757 24.7613 9.09204 26.986 9.57566V17.507C22.6334 17.7972 18.8612 20.2153 16.5398 23.6973L9.28549 19.8284C9.57566 19.3448 9.67239 18.8612 9.67239 18.3775C9.67239 15.6693 7.54446 13.5413 4.83619 13.5413C2.12793 13.5413 0 15.6693 0 18.3775C0 21.0858 2.12793 23.2137 4.83619 23.2137C6.28705 23.2137 7.64119 22.5367 8.5117 21.4727L15.766 25.3417C14.9922 27.0827 14.5086 28.9204 14.5086 30.9516C14.5086 32.9828 14.9922 34.8206 15.766 36.5616L8.5117 40.4306C7.64119 39.3666 6.28705 38.6895 4.83619 38.6895C2.12793 38.6895 0 40.8175 0 43.5257C0 46.234 2.12793 48.3619 4.83619 48.3619C7.54446 48.3619 9.67239 46.234 9.67239 43.5257C9.67239 43.0421 9.57566 42.5585 9.47894 42.1716L16.7332 38.3027C18.9579 41.7847 22.8268 44.2028 27.1794 44.493V52.4243C24.9548 52.908 23.3105 54.8424 23.3105 57.1638C23.3105 59.8721 25.4384 62 28.1466 62C30.8549 62 32.9828 59.8721 32.9828 57.1638C32.9828 54.8424 31.3385 52.908 29.1139 52.4243V44.493C33.4665 44.2028 37.2387 41.7847 39.5601 38.3027L46.8144 42.1716C46.5242 42.5585 46.4275 43.0421 46.4275 43.5257C46.4275 46.234 48.5554 48.3619 51.2637 48.3619C53.9719 48.3619 56.0998 46.234 56.0998 43.5257C56.0998 40.8175 53.9719 38.6895 51.2637 38.6895ZM51.2637 15.4758C52.908 15.4758 54.1654 16.7332 54.1654 18.3775C54.1654 20.0218 52.908 21.2793 51.2637 21.2793C49.6193 21.2793 48.3619 20.0218 48.3619 18.3775C48.3619 16.7332 49.6193 15.4758 51.2637 15.4758ZM4.83619 21.2793C3.19189 21.2793 1.93448 20.0218 1.93448 18.3775C1.93448 16.7332 3.19189 15.4758 4.83619 15.4758C6.4805 15.4758 7.73791 16.7332 7.73791 18.3775C7.73791 20.0218 6.4805 21.2793 4.83619 21.2793ZM4.83619 46.4275C3.19189 46.4275 1.93448 45.17 1.93448 43.5257C1.93448 41.8814 3.19189 40.624 4.83619 40.624C6.4805 40.624 7.73791 41.8814 7.73791 43.5257C7.73791 45.17 6.4805 46.4275 4.83619 46.4275ZM39.2699 28.1466C37.6256 27.2761 35.4009 26.6958 32.7894 26.4056C32.5959 24.5679 32.0156 21.7629 31.0484 19.7317C35.1108 20.7956 38.3027 24.0842 39.2699 28.1466ZM25.1482 4.83619C25.1482 3.19189 26.4056 1.93448 28.0499 1.93448C29.6942 1.93448 30.9516 3.19189 30.9516 4.83619C30.9516 6.4805 29.6942 7.73791 28.0499 7.73791C26.4056 7.73791 25.1482 6.4805 25.1482 4.83619ZM27.9532 19.3448H28.0499C28.8237 19.4415 30.1778 21.6661 30.7582 26.2122C29.8877 26.1154 29.0172 26.1154 28.0499 26.1154C27.0827 26.1154 26.2122 26.1154 25.2449 26.2122C25.922 21.6661 27.1794 19.4415 27.9532 19.3448ZM25.0515 19.7317C23.9875 21.7629 23.5039 24.5679 23.2137 26.4056C20.6022 26.6958 18.3775 27.2761 16.7332 28.1466C17.7972 24.0842 20.9891 20.7956 25.0515 19.7317ZM16.83 33.7566C18.4743 34.6271 20.6989 35.2075 23.3105 35.4977C23.5039 37.3354 24.0842 40.1404 25.0515 42.1716C20.9891 41.1076 17.7972 37.819 16.83 33.7566ZM30.9516 57.0671C30.9516 58.7114 29.6942 59.9688 28.0499 59.9688C26.4056 59.9688 25.1482 58.7114 25.1482 57.0671C25.1482 55.4228 26.4056 54.1654 28.0499 54.1654C29.6942 54.1654 30.9516 55.4228 30.9516 57.0671ZM28.1466 42.5585H28.0499C27.2761 42.4618 25.922 40.2371 25.3417 35.6911C26.2122 35.7878 27.0827 35.7878 28.0499 35.7878C29.0172 35.7878 29.8877 35.7878 30.8549 35.6911C30.1778 40.2371 28.9204 42.4618 28.1466 42.5585ZM31.0484 42.1716C32.1123 40.1404 32.5959 37.3354 32.8861 35.4977C35.4977 35.2075 37.7223 34.6271 39.3666 33.7566C38.3027 37.819 35.1108 41.1076 31.0484 42.1716ZM28.0499 33.8534C20.8924 33.8534 16.4431 32.0156 16.4431 30.9516C16.4431 29.8877 20.8924 28.0499 28.0499 28.0499C35.2075 28.0499 39.6568 29.8877 39.6568 30.9516C39.6568 32.0156 35.2075 33.8534 28.0499 33.8534ZM51.2637 46.4275C49.6193 46.4275 48.3619 45.17 48.3619 43.5257C48.3619 41.8814 49.6193 40.624 51.2637 40.624C52.908 40.624 54.1654 41.8814 54.1654 43.5257C54.1654 45.17 52.908 46.4275 51.2637 46.4275Z" fill="url(#paint0_linear_1_784)"/>
<path d="M23.2136 29.9843H25.1481V31.9188H23.2136V29.9843ZM27.0826 29.9843H29.0171V31.9188H27.0826V29.9843ZM30.9515 29.9843H32.886V31.9188H30.9515V29.9843ZM3.86885 26.1154H5.80333V28.0499H3.86885V26.1154ZM3.86885 29.9843H5.80333V31.9188H3.86885V29.9843ZM3.86885 33.8533H5.80333V35.7878H3.86885V33.8533ZM50.2963 33.8533H52.2308V35.7878H50.2963V33.8533ZM50.2963 29.9843H52.2308V31.9188H50.2963V29.9843ZM50.2963 26.1154H52.2308V28.0499H50.2963V26.1154ZM11.6068 12.574H13.5412V14.5085H11.6068V12.574ZM15.4757 9.67233H17.4102V11.6068H15.4757V9.67233ZM19.3447 6.77061H21.2791V8.70509H19.3447V6.77061ZM42.5584 12.574H44.4929V14.5085H42.5584V12.574ZM38.6894 9.67233H40.6239V11.6068H38.6894V9.67233ZM34.8205 6.77061H36.755V8.70509H34.8205V6.77061ZM11.6068 46.4274H13.5412V48.3619H11.6068V46.4274ZM15.4757 49.3291H17.4102V51.2636H15.4757V49.3291ZM19.3447 52.2308H21.2791V54.1653H19.3447V52.2308ZM42.5584 46.4274H44.4929V48.3619H42.5584V46.4274ZM38.6894 49.3291H40.6239V51.2636H38.6894V49.3291ZM34.8205 52.2308H36.755V54.1653H34.8205V52.2308ZM27.0826 3.8689H29.0171V5.80337H27.0826V3.8689ZM27.0826 56.0998H29.0171V58.0343H27.0826V56.0998ZM3.86885 17.4102H5.80333V19.3447H3.86885V17.4102ZM50.2963 17.4102H52.2308V19.3447H50.2963V17.4102ZM3.86885 42.5584H5.80333V44.4929H3.86885V42.5584ZM50.2963 42.5584H52.2308V44.4929H50.2963V42.5584Z" fill="url(#paint1_linear_1_784)"/>
<defs>
<linearGradient id="paint0_linear_1_784" x1="57.2157" y1="62.1002" x2="10.2264" y2="11.8239" gradientUnits="userSpaceOnUse">
<stop stop-color="#31393C"/>
<stop offset="1" stop-color="#3D96F5"/>
</linearGradient>
<linearGradient id="paint1_linear_1_784" x1="53.1927" y1="58.1218" x2="12.1079" y2="14.745" gradientUnits="userSpaceOnUse">
<stop stop-color="#31393C"/>
<stop offset="1" stop-color="#3D96F5"/>
</linearGradient>
</defs>
</svg>
