<svg width="232" height="162" viewBox="0 0 232 162" fill="none" xmlns="http://www.w3.org/2000/svg">
<g clip-path="url(#clip0_1_152)">
<path fill-rule="evenodd" clip-rule="evenodd" d="M164.18 16.53C163.732 17.0966 163.511 17.8095 163.56 18.53C163.594 20.0317 164.007 21.5004 164.76 22.8C165.065 23.3377 165.461 23.8182 165.93 24.22C165.93 24.22 166.32 24.55 166.39 24.52C166.46 24.49 166.54 23.87 166.53 23.7C166.49 22.9572 166.49 22.2128 166.53 21.47C166.53 20.35 166.79 19.22 166.74 18.1C166.74 17.79 166.74 17.19 166.53 16.95C166.03 16.44 164.18 16.53 164.18 16.53Z" fill="#262626"/>
<path fill-rule="evenodd" clip-rule="evenodd" d="M130.94 110.43C127.22 111.19 121.94 112.58 120.53 112.92C119.39 113.19 119.44 114.92 120.64 114.81C123.44 114.57 130.43 113.31 130.43 113.31C127.182 114.081 123.977 115.025 120.83 116.14C120.69 116.211 120.569 116.314 120.477 116.441C120.385 116.568 120.323 116.714 120.298 116.869C120.273 117.024 120.284 117.183 120.331 117.332C120.379 117.482 120.46 117.618 120.57 117.73C121.96 118.47 130.15 114.93 130.5 115.38C130.85 115.83 123.45 117.7 122.36 118.53C121.27 119.36 122.18 120.58 123.87 120.12C126.01 119.54 131.99 117.28 132.13 117.8C132.13 117.8 129.13 119.8 127.82 120.92C126.51 122.04 124.82 122.31 126.25 123.37C127.68 124.43 133.63 119.86 134.15 119.68C134.67 119.5 138.89 119.81 140.59 119.37C144 118.51 144.69 116.56 144.69 116.56C144.69 116.56 174.4 109.41 174.99 102.77C175.58 96.13 175.45 84.53 175.57 83.1L164.2 87.61L163.85 96.37C163.85 96.37 163.49 97.15 159.66 100.23C155.83 103.31 142.75 108.92 141.18 108.87C140.18 108.87 136.91 107.61 133.89 107.56C132.53 107.56 125.96 106.85 126.73 108.36C127.05 108.98 130.73 109.63 132.16 110C132.38 110.05 130.52 110.59 130.94 110.43Z" fill="#E8AA80"/>
<path fill-rule="evenodd" clip-rule="evenodd" d="M178.15 58.69C174.631 56.5365 170.859 54.8268 166.92 53.6C163.92 60.85 162.77 80.97 163.37 90.75L178.37 90.03L178.31 66.64L178.15 58.69Z" fill="#FFC061"/>
<path fill-rule="evenodd" clip-rule="evenodd" d="M167.58 90.55L178.25 90.04L178.32 89.56V67.56L171.46 61.85C171.544 63.9755 171.88 66.0835 172.46 68.13C173.34 70.86 174.04 83.76 173.34 86.44C172.64 89.12 167.62 90.58 167.62 90.58" fill="#FFC061"/>
<path fill-rule="evenodd" clip-rule="evenodd" d="M166.55 73.34C165.76 73.49 162.89 73.1199 162.01 74.0799C161.13 75.0399 154.85 79.82 155.77 80.0799C156.69 80.3399 158.9 79.56 160.14 78.77C161.38 77.98 161.6 77.77 161.6 77.77C169.24 78.58 167.35 73.15 166.55 73.34Z" fill="#E8AA80"/>
<path fill-rule="evenodd" clip-rule="evenodd" d="M191.02 37.72L214.55 37.12L215.76 38.22C215.76 38.22 215.93 37.87 216.6 38.99C218.34 41.9 222.17 49.49 226.94 73.27C233.56 106.21 230.72 121.85 228.59 122.33C226.46 122.81 223.16 115.69 207.09 112.85C191.02 110.01 185.82 110.95 185.82 110.95C185.087 99.026 182.292 87.3194 177.56 76.35C169.75 58.57 166.92 53.6 166.92 53.6L191.02 37.72Z" fill="#FFC061"/>
<mask id="mask0_1_152" style="mask-type:luminance" maskUnits="userSpaceOnUse" x="166" y="37" width="66" height="86">
<path fill-rule="evenodd" clip-rule="evenodd" d="M191.02 37.72L214.55 37.12L215.76 38.22C215.76 38.22 215.93 37.87 216.6 38.99C218.34 41.9 222.17 49.49 226.94 73.27C233.56 106.21 230.72 121.85 228.59 122.33C226.46 122.81 223.16 115.69 207.09 112.85C191.02 110.01 185.82 110.95 185.82 110.95C185.087 99.026 182.292 87.3194 177.56 76.35C169.75 58.57 166.92 53.6 166.92 53.6L191.02 37.72Z" fill="white"/>
</mask>
<g mask="url(#mask0_1_152)">
<path fill-rule="evenodd" clip-rule="evenodd" d="M178.05 36.04C171.63 41.54 170.24 50.5 174.94 56.04C179.64 61.58 188.69 61.58 195.11 56.04C201.53 50.5 202.92 41.58 198.21 36.04C193.5 30.5 184.47 30.53 178.05 36.04Z" fill="#FFC061"/>
</g>
<path fill-rule="evenodd" clip-rule="evenodd" d="M192.2 96.02C190.9 96.14 160.88 107.2 155.46 111.42C150.04 115.64 144.12 118.77 147.78 124.42C151.44 130.07 159.6 128.21 167.63 127.74C175.66 127.27 203.19 120.62 203.19 120.62L192.2 96.02Z" fill="#46658C"/>
<path fill-rule="evenodd" clip-rule="evenodd" d="M202.95 133.46C202.49 134.89 200.23 141.89 197.52 142.01C194.81 142.13 172.36 136.06 162.21 133.81C152.63 130.67 148.21 127.56 146.79 121.94C145.37 116.32 153.25 112.79 154.86 111.89C159.7 112.32 203.12 132.97 202.95 133.46Z" fill="#46658C"/>
<path fill-rule="evenodd" clip-rule="evenodd" d="M190.79 140.75C190.73 141.46 187.79 148.55 185.02 149.91C182.25 151.27 175.02 152.4 175.7 154.53C176.38 156.66 177.17 157.14 182.07 157.53C186.97 157.92 200.68 156.24 200.97 155.58C201.26 154.92 201.51 142.13 200.97 140.83C200.43 139.53 190.81 140.41 190.81 140.41" fill="#3C3C3B"/>
<path fill-rule="evenodd" clip-rule="evenodd" d="M188.47 144.85C189.626 144.372 190.906 144.277 192.12 144.58C193.33 144.764 194.5 145.153 195.58 145.73C195.713 145.802 195.811 145.923 195.854 146.067C195.898 146.212 195.882 146.367 195.81 146.5C195.738 146.633 195.617 146.731 195.473 146.774C195.328 146.818 195.173 146.802 195.04 146.73C194.066 146.227 193.015 145.889 191.93 145.73C190.937 145.461 189.884 145.524 188.93 145.91C188.864 145.942 188.793 145.961 188.72 145.966C188.647 145.97 188.574 145.96 188.505 145.937C188.435 145.913 188.372 145.876 188.317 145.828C188.262 145.779 188.217 145.721 188.185 145.655C188.153 145.589 188.134 145.518 188.129 145.445C188.125 145.372 188.135 145.299 188.158 145.23C188.182 145.161 188.219 145.097 188.267 145.042C188.316 144.987 188.374 144.942 188.44 144.91" fill="#D3D3D3"/>
<path fill-rule="evenodd" clip-rule="evenodd" d="M186.55 146.97C187.063 146.801 187.593 146.69 188.13 146.64C188.73 146.648 189.327 146.722 189.91 146.86C191.166 147.056 192.384 147.448 193.52 148.02C193.586 148.055 193.644 148.102 193.691 148.159C193.739 148.217 193.774 148.283 193.796 148.354C193.818 148.425 193.825 148.5 193.818 148.573C193.811 148.647 193.79 148.719 193.755 148.785C193.72 148.851 193.673 148.909 193.615 148.956C193.558 149.004 193.492 149.039 193.421 149.061C193.35 149.083 193.275 149.09 193.201 149.083C193.128 149.076 193.056 149.055 192.99 149.02C191.956 148.517 190.849 148.18 189.71 148.02C189.207 147.89 188.69 147.819 188.17 147.81C187.717 147.857 187.271 147.954 186.84 148.1C186.769 148.123 186.695 148.131 186.621 148.124C186.547 148.117 186.475 148.095 186.41 148.06C186.345 148.025 186.287 147.976 186.241 147.918C186.195 147.86 186.161 147.793 186.141 147.721C186.122 147.65 186.117 147.575 186.127 147.501C186.137 147.428 186.162 147.357 186.2 147.294C186.238 147.23 186.289 147.175 186.349 147.131C186.409 147.087 186.478 147.056 186.55 147.04" fill="#D3D3D3"/>
<path fill-rule="evenodd" clip-rule="evenodd" d="M185.12 148.61C186.649 148.742 188.138 149.173 189.5 149.88C189.628 149.948 189.725 150.064 189.77 150.202C189.814 150.34 189.804 150.49 189.74 150.62C189.707 150.684 189.662 150.742 189.607 150.789C189.552 150.835 189.488 150.871 189.42 150.893C189.351 150.916 189.279 150.924 189.207 150.918C189.135 150.913 189.064 150.893 189 150.86C187.756 150.216 186.396 149.825 185 149.71C184.855 149.695 184.722 149.624 184.628 149.512C184.535 149.4 184.489 149.255 184.5 149.11C184.515 148.965 184.586 148.832 184.698 148.738C184.811 148.645 184.955 148.599 185.1 148.61" fill="#D3D3D3"/>
<path fill-rule="evenodd" clip-rule="evenodd" d="M177.85 156.91C177.303 156.757 176.811 156.453 176.43 156.031C176.05 155.61 175.796 155.089 175.7 154.53C175.66 154.435 175.64 154.333 175.64 154.23C175.64 154.127 175.66 154.025 175.7 153.93C176.258 153.86 176.822 153.86 177.38 153.93C178.25 154 182.11 156.51 181.8 154.59C182.26 157.42 179.51 157.65 177.8 156.94" fill="#757575"/>
<path fill-rule="evenodd" clip-rule="evenodd" d="M156.06 85.4799C156.72 84.8899 156.4 85.32 157.51 83.21C158.62 81.1 158.66 81.02 158.74 80.89C158.748 80.9765 158.748 81.0635 158.74 81.15C158.561 81.5855 158.44 82.0428 158.38 82.5099C158.38 82.6899 158.38 83 158.28 83.38C158.28 84.38 158.16 87.8 158.18 87.96C158.2 88.12 158.51 88.75 159.38 88.06C159.832 87.233 160.146 86.338 160.31 85.41C160.55 83.77 160.73 82.82 160.73 82.82L162.34 79.06C162.25 79.28 161.66 81.06 161.61 81.36C161.56 81.66 161.54 85.36 161.54 85.36C161.535 86.2996 161.676 87.2342 161.96 88.13C162.231 88.1575 162.503 88.1001 162.74 87.9657C162.976 87.8313 163.165 87.6266 163.28 87.38C163.406 86.647 163.459 85.9034 163.44 85.16C163.44 84.95 163.74 82.16 163.74 82.16L165.57 79.46C165.57 79.46 165.14 81.36 164.88 83.31C164.714 84.6011 164.751 85.9103 164.99 87.19C165.05 88.06 165.58 88.81 166.49 87.06C166.85 85.57 166.69 84.6 167.16 83.21C167.724 81.997 168.584 80.9449 169.66 80.15L177.58 76.39C181.216 77.51 184.735 78.9767 188.09 80.77C194.23 83.97 210.89 92.5 214.56 87.65C218.23 82.8 221.93 62.11 222.41 60.22C222.41 60.22 207.14 62.88 206.55 62.88C205.96 62.88 206.43 73.61 206.43 73.61C205.385 73.7263 204.33 73.7062 203.29 73.55C200.93 73.31 176.01 69.22 173.47 69.11C170.93 69 162.19 73.96 161.83 74.25C159.949 76.1346 158.251 78.1939 156.76 80.4C155.889 81.8824 155.217 83.4726 154.76 85.13C154.32 86.15 156.06 85.4799 156.06 85.4799Z" fill="#FFB76C"/>
<path fill-rule="evenodd" clip-rule="evenodd" d="M156.06 85.4799C156.72 84.8899 156.4 85.32 157.51 83.21C158.62 81.1 158.66 81.02 158.74 80.89C158.748 80.9765 158.748 81.0635 158.74 81.15C158.561 81.5855 158.44 82.0428 158.38 82.5099C158.38 82.6899 158.38 83 158.28 83.38C158.28 84.38 158.16 87.8 158.18 87.96C158.2 88.12 158.51 88.75 159.38 88.06C159.832 87.233 160.146 86.338 160.31 85.41C160.55 83.77 160.73 82.82 160.73 82.82L162.34 79.06C162.25 79.28 161.66 81.06 161.61 81.36C161.56 81.66 161.54 85.36 161.54 85.36C161.535 86.2996 161.676 87.2342 161.96 88.13C162.231 88.1575 162.503 88.1001 162.74 87.9657C162.976 87.8313 163.165 87.6266 163.28 87.38C163.406 86.647 163.459 85.9034 163.44 85.16C163.44 84.95 163.74 82.16 163.74 82.16L165.57 79.46C165.57 79.46 165.14 81.36 164.88 83.31C164.714 84.6011 164.751 85.9103 164.99 87.19C165.05 88.06 165.58 88.81 166.49 87.06C166.85 85.57 166.69 84.6 167.16 83.21C167.724 81.997 168.584 80.9449 169.66 80.15L177.58 76.39C181.216 77.51 184.735 78.9767 188.09 80.77C194.23 83.97 210.89 92.5 214.56 87.65C218.23 82.8 221.93 62.11 222.41 60.22C222.41 60.22 207.14 62.88 206.55 62.88C205.96 62.88 206.43 73.61 206.43 73.61C205.385 73.7263 204.33 73.7062 203.29 73.55C200.93 73.31 176.01 69.22 173.47 69.11C170.93 69 162.19 73.96 161.83 74.25C159.949 76.1346 158.251 78.1939 156.76 80.4C155.889 81.8824 155.217 83.4726 154.76 85.13C154.32 86.15 156.06 85.4799 156.06 85.4799Z" fill="#E8AA80"/>
<mask id="mask1_1_152" style="mask-type:luminance" maskUnits="userSpaceOnUse" x="154" y="60" width="69" height="30">
<path fill-rule="evenodd" clip-rule="evenodd" d="M156.06 85.4799C156.72 84.8899 156.4 85.32 157.51 83.21C158.62 81.1 158.66 81.02 158.74 80.89C158.747 80.9765 158.747 81.0635 158.74 81.15C158.561 81.5855 158.44 82.0428 158.38 82.5099C158.38 82.6899 158.38 83 158.28 83.38C158.28 84.38 158.16 87.8 158.18 87.96C158.2 88.12 158.51 88.75 159.38 88.06C159.832 87.233 160.146 86.338 160.31 85.41C160.55 83.77 160.73 82.82 160.73 82.82L162.34 79.06C162.25 79.28 161.66 81.06 161.61 81.36C161.56 81.66 161.54 85.36 161.54 85.36C161.535 86.2996 161.676 87.2342 161.96 88.13C162.231 88.1575 162.503 88.1001 162.74 87.9657C162.976 87.8313 163.165 87.6266 163.28 87.38C163.406 86.647 163.459 85.9034 163.44 85.16C163.44 84.95 163.74 82.16 163.74 82.16L165.57 79.46C165.57 79.46 165.14 81.36 164.88 83.31C164.714 84.6011 164.751 85.9103 164.99 87.19C165.05 88.06 165.58 88.81 166.49 87.06C166.85 85.57 166.69 84.6 167.16 83.21C167.724 81.997 168.584 80.9449 169.66 80.15L177.58 76.39C181.215 77.51 184.735 78.9767 188.09 80.77C194.23 83.97 210.89 92.5 214.56 87.65C218.23 82.8 221.93 62.11 222.41 60.22C222.41 60.22 207.14 62.88 206.55 62.88C205.96 62.88 206.43 73.61 206.43 73.61C205.385 73.7263 204.33 73.7062 203.29 73.55C200.93 73.31 176.01 69.22 173.47 69.11C170.93 69 162.19 73.96 161.83 74.25C159.949 76.1346 158.251 78.1939 156.76 80.4C155.889 81.8824 155.217 83.4726 154.76 85.13C154.32 86.15 156.06 85.4799 156.06 85.4799Z" fill="white"/>
</mask>
<g mask="url(#mask1_1_152)">
<path fill-rule="evenodd" clip-rule="evenodd" d="M224.1 74.04L217.28 67.71C217.28 67.71 215.2 79.02 211.28 82.3C207.36 85.58 192.88 79.91 186.94 77.16C181 74.41 177.35 74.11 175.58 74.63C172.584 75.9445 169.926 77.9246 167.81 80.42C166.35 82.56 166.26 86.71 165.97 87.34C165.68 87.97 164.9 88.51 164.53 87.93C164.16 87.35 164.44 82.51 164.61 81.93C164.78 81.35 165.61 79.47 165.61 79.47L165.51 78.52C164.524 79.1968 163.743 80.1306 163.25 81.22C162.52 82.95 163.3 86.1 162.62 87.61C161.94 89.12 161.5 89.15 160.84 88.81C160.18 88.47 161.28 83.08 161.23 82.81C161.18 82.54 162.35 78.86 162.35 78.86C161.609 79.5113 160.977 80.2778 160.48 81.13C159.89 82.28 160.24 85.2 159.48 86.84C158.72 88.48 158.39 88.84 157.66 88.54C156.93 88.24 156.91 87.1 157.05 86.18C157.19 85.26 158.88 80.79 158.88 80.79L159.24 79.15C158.443 80.9035 157.482 82.5776 156.37 84.15C154.77 86.32 154.11 86.61 154.11 86.61C154.11 86.61 154.24 90.61 159.06 91.93C163.88 93.25 207.73 96.93 215.52 90.45C223.31 83.97 224.1 74.04 224.1 74.04Z" fill="#E8AA80"/>
</g>
<path fill-rule="evenodd" clip-rule="evenodd" d="M224.28 54.49C224.362 61.0488 223.348 67.5753 221.28 73.8L205.51 66.64C205.51 63.59 203.87 37.74 205.45 37.35C217.82 34.3 223.92 41.18 224.23 54.49" fill="#FFC061"/>
<path fill-rule="evenodd" clip-rule="evenodd" d="M230.58 118.83C229.39 123.09 223.84 130.83 214.15 130.32C204.46 129.81 187.8 101.42 185.44 91.94C183.08 82.46 184.61 77.71 192.65 77.24C200.69 76.77 211.79 89.56 218.17 97.15C224.55 104.74 230.46 114.09 230.58 118.83Z" fill="#46658C"/>
<path fill-rule="evenodd" clip-rule="evenodd" d="M195.22 139.68C194.68 140.81 190.45 146.07 186.06 150.12C181.67 154.17 178.55 153.85 178.44 155.8C178.33 157.75 179.38 159 182.16 159.12C184.94 159.24 207.03 159.06 208.99 158.47C210.95 157.88 210.87 157.16 210.63 156.28C209.85 153.35 209.84 146.11 208.27 143.36C208.04 142.94 195.22 139.68 195.22 139.68Z" fill="#3C3C3B"/>
<path fill-rule="evenodd" clip-rule="evenodd" d="M208.13 117.88C208.72 125.81 208.99 139.44 209.75 149.75C199.01 149.18 198.75 142.22 192.21 143.65C192.21 143.65 185.79 102.5 184.74 91.24C183.69 79.98 186.64 78.63 189.74 77.35C192.84 76.07 202.21 81.43 203.67 85C205.87 90.35 207.51 110 208.11 117.88" fill="#46658C"/>
<path fill-rule="evenodd" clip-rule="evenodd" d="M191.45 30.42L192.91 25.56C193.77 29.25 195.35 35.23 197.29 38.03C197.29 38.03 199.49 50.61 188.98 52.23C182.06 53.3 180.61 47.71 180.61 47.71L181.31 41.47C181.24 40.92 191.94 39.47 191.45 30.42Z" fill="#E8AA80"/>
<path fill-rule="evenodd" clip-rule="evenodd" d="M191.35 29.9L192.81 25.04C193.66 28.73 191.12 28.73 193.06 31.53C193.06 31.53 196.06 34.53 190.06 42.53C185.86 48.13 180.51 47.19 180.51 47.19L181.2 40.96C181.13 40.4 191.83 38.96 191.35 29.9Z" fill="#B7825E"/>
<path fill-rule="evenodd" clip-rule="evenodd" d="M164.8 13.07C164.92 14.26 162.12 18.58 166.85 27.45C168.73 34.03 172.94 47.73 183.85 43.7C191.73 40.8 192.99 33.26 192.97 29.35C192.95 25.44 188.34 9.91998 188.34 9.91998L164.8 13.07Z" fill="#E8AA80"/>
<path fill-rule="evenodd" clip-rule="evenodd" d="M184.33 22.15C183.61 19.4 182.81 17.4 179.62 16.01C176.304 17.2497 172.816 17.9715 169.28 18.15C164.55 18.33 160.94 17.78 157.73 9.94001C166.62 9.94001 167.92 -1.14 180.87 0.12C182.311 0.329233 183.682 0.877607 184.87 1.72001C185.22 1.78001 187.24 0.590013 191.25 3.32001C195.59 6.32001 196.16 17.48 195.86 23C195.86 23.32 194.73 32 194.63 31.74L193.37 28.06C192.874 26.8313 192.268 25.6499 191.56 24.53C190.32 22.53 190.49 19.85 188.77 20.71C187.05 21.57 187.91 23.22 187.21 24.48C186.51 25.74 184.66 23.36 184.33 22.15Z" fill="#3C3C3B"/>
<mask id="mask2_1_152" style="mask-type:luminance" maskUnits="userSpaceOnUse" x="157" y="0" width="39" height="32">
<path fill-rule="evenodd" clip-rule="evenodd" d="M184.33 22.15C183.61 19.4 182.81 17.4 179.62 16.01C176.304 17.2497 172.816 17.9715 169.28 18.15C164.55 18.33 160.94 17.78 157.73 9.94001C166.62 9.94001 167.92 -1.14 180.87 0.12C182.311 0.329233 183.682 0.877607 184.87 1.72001C185.22 1.78001 187.24 0.590013 191.25 3.32001C195.59 6.32001 196.16 17.48 195.86 23C195.86 23.32 194.73 32 194.63 31.74L193.37 28.06C193.37 28.06 194.9 23.94 193.66 21.92C192.42 19.9 190.49 19.85 188.77 20.71C187.05 21.57 187.91 23.22 187.21 24.48C186.51 25.74 184.66 23.36 184.33 22.15Z" fill="white"/>
</mask>
<g mask="url(#mask2_1_152)">
<path fill-rule="evenodd" clip-rule="evenodd" d="M187.98 26.46C184.82 24.15 185.18 20.06 183.9 16.53C182.62 13 177.34 11.47 177.77 11.89C178.2 12.31 179.29 14.03 178.32 13.89C177.35 13.75 175.76 14.62 172.26 14.23C168.76 13.84 167.35 12.72 167.35 12.72L167.58 14.72C165.989 14.5796 164.44 14.1312 163.02 13.4C161.151 12.4439 159.38 11.3085 157.73 10.01C157.187 10.8175 156.86 11.7511 156.781 12.7212C156.702 13.6913 156.874 14.6654 157.28 15.55C158.64 18.77 174.28 18.67 178.28 20.72C182.28 22.77 191.14 28.78 187.98 26.46Z" fill="#262626"/>
</g>
<path fill-rule="evenodd" clip-rule="evenodd" d="M190.66 19.15C188.66 19.15 186.97 21.52 186.97 24.3C186.959 25.3724 187.225 26.4295 187.74 27.37C188.004 27.9355 188.416 28.4195 188.931 28.7714C189.446 29.1233 190.047 29.33 190.67 29.37C192.72 29.37 194.18 25.95 194.18 23.17C194.18 20.39 193.4 19.17 191.35 19.17L190.66 19.15Z" fill="#E8AA80"/>
<path fill-rule="evenodd" clip-rule="evenodd" d="M220.66 93.15C221.29 94.3 227.3 102.15 231.1 108.32C231.138 111.451 230.931 114.581 230.48 117.68C229.57 112.68 224.09 104.18 218.21 97.19C216.21 94.81 213.76 91.93 211.07 89.1C211.726 89.138 212.383 89.0273 212.991 88.7762C213.598 88.5252 214.142 88.1402 214.58 87.65C216.38 85.25 218.2 79 219.64 73.06L221.37 73.84C222.817 69.4738 223.747 64.9529 224.14 60.37C224.7 62.7 225.28 65.26 225.9 68.07C223.9 72.78 220.9 78 220.78 78.56C220.54 79.4 219.95 91.84 220.66 93.15Z" fill="#E2A350"/>
<path fill-rule="evenodd" clip-rule="evenodd" d="M206.41 73.5701C205.369 73.6868 204.316 73.6666 203.28 73.51C202.42 73.42 198.55 72.82 193.85 72.08C197.41 72 204.63 71.72 204.85 71.01C205.07 70.3 205.21 54.3801 205.25 48.3201C205.25 55.9401 205.55 64.92 205.56 66.64L206.23 66.9401C206.23 69.9401 206.41 73.5701 206.41 73.5701Z" fill="#E2A350"/>
<g style="mix-blend-mode:multiply" opacity="0.54">
<path fill-rule="evenodd" clip-rule="evenodd" d="M226.86 125.08C225.264 126.843 223.295 128.228 221.096 129.135C218.898 130.041 216.525 130.446 214.15 130.32C212.119 130.049 210.211 129.19 208.66 127.85C208.49 124.09 208.33 120.64 208.13 117.85C208.03 116.5 207.89 114.85 207.73 112.94C207.09 105.22 205.98 94.0301 204.57 87.9401C204.57 87.9401 205.91 91.01 208.87 97.64C210.36 101.01 210.67 107.64 211.11 113.69C211.54 119.56 212.11 124.86 213.94 126.08C216.2 127.57 221.94 126.69 226.86 125.08Z" fill="#46658C"/>
</g>
<g style="mix-blend-mode:multiply" opacity="0.54">
<path fill-rule="evenodd" clip-rule="evenodd" d="M189.66 126.8C189.97 128.9 190.27 130.9 190.56 132.8C186.56 130.59 181.82 127.98 178.64 126.12C177.353 125.448 176.126 124.668 174.97 123.79C174.38 122.79 166.49 116.3 166.49 116.3C172.16 118.73 179.02 121.86 185.25 124.78L189.66 126.85" fill="#46658C"/>
</g>
<g style="mix-blend-mode:multiply" opacity="0.54">
<path fill-rule="evenodd" clip-rule="evenodd" d="M189.2 123.87L185.2 124.73C178.97 121.81 172.11 118.68 166.44 116.25C166.44 116.25 175.63 117.57 182.24 115.25C184.13 114.56 185.96 113.95 187.61 113.4C188.13 116.91 188.61 120.5 189.16 123.91" fill="#46658C"/>
</g>
<path fill-rule="evenodd" clip-rule="evenodd" d="M195.22 156.64C200.285 156.215 205.316 155.453 210.28 154.36C210.363 155.006 210.48 155.646 210.63 156.28C210.87 157.16 210.93 157.87 208.99 158.47C207.05 159.07 184.94 159.24 182.16 159.12C179.38 159 178.32 157.75 178.44 155.8V155.6C180.232 155.17 182.092 155.102 183.91 155.4C186.57 156.11 187.81 157.12 195.19 156.64" fill="#757575"/>
<path fill-rule="evenodd" clip-rule="evenodd" d="M177.16 24.51C176.66 24.51 176.41 25.14 176.63 25.91C176.85 26.68 177.42 27.32 177.92 27.32C178.42 27.32 178.67 26.69 178.47 25.91C178.27 25.13 177.67 24.51 177.16 24.51Z" fill="#34353A"/>
<path fill-rule="evenodd" clip-rule="evenodd" d="M168.71 25.94C168.2 25.94 167.97 26.57 168.17 27.35C168.37 28.13 168.96 28.75 169.47 28.75C169.98 28.75 170.21 28.12 170 27.35C169.79 26.58 169.21 25.94 168.71 25.94Z" fill="#34353A"/>
<path fill-rule="evenodd" clip-rule="evenodd" d="M189.42 20.31C190.14 20.16 192.16 20.24 192.57 21.52C192.881 23.1217 192.63 24.7817 191.86 26.22C191.745 26.4379 191.58 26.626 191.38 26.7695C191.179 26.9129 190.948 27.0078 190.705 27.0466C190.461 27.0854 190.212 27.0671 189.977 26.993C189.742 26.919 189.527 26.7913 189.35 26.62C188.49 25.86 188.19 24.82 188.78 24.18C189.37 23.54 189.39 23.18 188.88 22.61C188.37 22.04 188.88 21.39 189.02 20.98C189.12 20.7386 189.255 20.513 189.42 20.31Z" fill="#B7825E"/>
<path fill-rule="evenodd" clip-rule="evenodd" d="M189.28 145.88C190.436 145.402 191.716 145.307 192.93 145.61C194.14 145.796 195.31 146.184 196.39 146.76C196.523 146.832 196.621 146.953 196.664 147.097C196.708 147.242 196.692 147.397 196.62 147.53C196.548 147.663 196.427 147.761 196.283 147.804C196.138 147.848 195.983 147.832 195.85 147.76C194.875 147.258 193.824 146.921 192.74 146.76C191.747 146.491 190.694 146.554 189.74 146.94C189.607 147.005 189.454 147.015 189.315 146.967C189.175 146.919 189.06 146.818 188.995 146.685C188.93 146.552 188.92 146.399 188.968 146.26C189.016 146.12 189.117 146.005 189.25 145.94" fill="#D3D3D3"/>
<path fill-rule="evenodd" clip-rule="evenodd" d="M187.36 148C187.873 147.831 188.403 147.72 188.94 147.67C189.54 147.678 190.137 147.752 190.72 147.89C191.977 148.083 193.196 148.475 194.33 149.05C194.457 149.122 194.551 149.24 194.592 149.38C194.634 149.52 194.618 149.671 194.55 149.8C194.516 149.864 194.469 149.921 194.412 149.966C194.355 150.012 194.29 150.045 194.22 150.065C194.15 150.084 194.076 150.09 194.004 150.08C193.932 150.071 193.863 150.047 193.8 150.01C192.766 149.507 191.659 149.17 190.52 149.01C190.016 148.881 189.5 148.81 188.98 148.8C188.527 148.846 188.081 148.943 187.65 149.09C187.579 149.113 187.505 149.121 187.431 149.114C187.357 149.107 187.285 149.085 187.22 149.05C187.155 149.015 187.097 148.966 187.051 148.908C187.005 148.85 186.971 148.783 186.951 148.711C186.932 148.64 186.927 148.565 186.937 148.491C186.947 148.418 186.972 148.347 187.01 148.284C187.048 148.22 187.099 148.165 187.159 148.121C187.219 148.077 187.288 148.046 187.36 148.03" fill="#D3D3D3"/>
<path fill-rule="evenodd" clip-rule="evenodd" d="M185.93 149.64C187.459 149.772 188.948 150.203 190.31 150.91C190.438 150.978 190.534 151.094 190.577 151.233C190.621 151.371 190.607 151.521 190.54 151.65C190.508 151.714 190.464 151.771 190.41 151.818C190.356 151.865 190.293 151.9 190.225 151.922C190.157 151.945 190.086 151.953 190.014 151.948C189.943 151.942 189.874 151.923 189.81 151.89C188.566 151.246 187.206 150.855 185.81 150.74C185.664 150.727 185.53 150.656 185.436 150.544C185.342 150.431 185.297 150.286 185.31 150.14C185.323 149.994 185.394 149.859 185.506 149.766C185.619 149.672 185.764 149.627 185.91 149.64" fill="#D3D3D3"/>
<path d="M174.07 28.69C174.414 29.7857 174.364 30.967 173.93 32.03C173.93 32.1 173.8 32.31 173.83 32.39C173.86 32.47 174.14 32.56 174.21 32.6C174.459 32.7196 174.721 32.8102 174.99 32.87C175.524 32.9805 176.076 32.9805 176.61 32.87C176.86 32.82 176.96 33.2 176.71 33.25C176.129 33.3699 175.531 33.3699 174.95 33.25C174.662 33.1824 174.381 33.0887 174.11 32.97C173.91 32.88 173.56 32.76 173.45 32.54C173.34 32.32 173.53 31.97 173.59 31.74C173.699 31.413 173.786 31.0789 173.85 30.74C173.978 30.0943 173.922 29.4258 173.69 28.81C173.59 28.58 173.97 28.48 174.07 28.71" fill="#B7825E"/>
<path d="M175.03 37.3701C176.236 37.579 177.473 37.5313 178.66 37.23C179.188 37.1493 179.689 36.9403 180.118 36.6212C180.547 36.3022 180.891 35.8829 181.12 35.4C181.2 35.16 181.59 35.2601 181.5 35.5001C181.272 36.0262 180.92 36.4893 180.474 36.8498C180.029 37.2102 179.502 37.4574 178.94 37.5701C177.637 37.9263 176.27 37.9878 174.94 37.7501C174.69 37.7501 174.8 37.3201 175.05 37.3701" fill="#705949"/>
<path d="M174.6 22.93C175.934 22.2629 177.391 21.8782 178.88 21.8C179.39 21.8 179.38 22.58 178.88 22.6C177.534 22.6542 176.214 22.9951 175.01 23.6C174.55 23.83 174.15 23.14 174.6 22.91" fill="#34353A"/>
<path d="M166.22 25.27C167.203 24.5847 168.372 24.2182 169.57 24.22C169.624 24.2168 169.678 24.2253 169.728 24.2451C169.778 24.2648 169.823 24.2953 169.86 24.3343C169.897 24.3734 169.926 24.4201 169.943 24.4712C169.96 24.5222 169.966 24.5765 169.96 24.63C169.926 24.7407 169.854 24.8362 169.758 24.9C169.661 24.9638 169.545 24.9921 169.43 24.98H169.29H169.09H168.72L168.36 25.06H168.26L168.09 25.12C167.633 25.2598 167.204 25.4762 166.82 25.76C166.725 25.8314 166.609 25.87 166.49 25.87C166.371 25.87 166.255 25.8314 166.16 25.76C166.125 25.7209 166.099 25.6744 166.084 25.6239C166.069 25.5734 166.066 25.5202 166.075 25.4684C166.084 25.4165 166.104 25.3672 166.134 25.3242C166.164 25.2812 166.204 25.2456 166.25 25.22" fill="#34353A"/>
<path fill-rule="evenodd" clip-rule="evenodd" d="M186.77 3.60004C187.37 3.61584 187.95 3.82639 188.42 4.20002C190.144 5.54867 191.557 7.25433 192.56 9.20002C192.8 9.80002 193.16 10.37 193.37 10.98C193.623 11.7851 193.777 12.6178 193.83 13.46C193.83 13.68 193.83 13.9 193.83 14.12C193.835 14.1866 193.835 14.2535 193.83 14.32C193.69 14.37 193.4 13.99 193.33 13.89C192.94 13.33 192.56 12.76 192.18 12.19C192.068 12.0217 191.944 11.8613 191.81 11.71C191.76 11.64 191.7 11.59 191.65 11.53C191.6 11.47 191.57 11.42 191.56 11.45C191.533 11.8348 191.557 12.2214 191.63 12.6C191.652 13.1121 191.618 13.6251 191.53 14.13C191.53 14.29 191.53 14.77 191.42 14.91C191.31 15.05 191.17 14.72 191.16 14.71C190.934 14.4457 190.734 14.1612 190.56 13.86C190.009 13.0322 189.335 12.2936 188.56 11.67C188.37 11.52 188.19 11.36 187.99 11.22C187.99 11.22 187.84 11.11 187.82 11.12C187.8 11.13 187.77 11.53 187.77 11.58C187.77 11.96 187.85 12.34 187.85 12.72C187.85 12.878 187.833 13.0355 187.8 13.19C187.72 13.19 187.6 13 187.56 12.95C187.37 12.7 187.2 12.43 187.03 12.18C186.472 11.3196 185.799 10.5391 185.03 9.86002C184.004 9.10553 182.936 8.41105 181.83 7.78003L181.1 7.32004C181.04 7.32004 180.86 7.20003 180.85 7.12003C180.85 6.78003 181.38 6.56002 181.61 6.49002C182.264 6.33265 182.939 6.27535 183.61 6.32004C183.72 6.32004 184.3 6.32002 184.38 6.27002C184.46 6.22002 184.28 5.73003 184.18 5.59003C183.95 5.25003 183.05 4.50003 183.18 4.00003C183.28 3.71003 183.62 3.59003 183.88 3.53003C184.551 3.43977 185.234 3.49778 185.88 3.70002C186.129 3.75012 186.373 3.82037 186.61 3.91004L186.84 3.99002C186.84 3.99002 186.97 4.07002 186.95 3.99002C186.93 3.91002 186.82 3.76004 186.77 3.60004Z" fill="#494949"/>
<path d="M55.89 158.25V161.15C55.89 161.15 32.66 163.15 29.66 140.77C29.4087 138.696 28.9906 136.646 28.41 134.64C23.77 118.79 11.24 120.76 6.78002 124.37C6.87002 124.14 8.41004 120.48 11.11 119.58C11.11 119.58 3.68002 120.67 -0.0299755 126.85C-0.0299755 126.85 -0.189954 112.62 13.43 109.85L7.09002 109.08C7.09002 109.08 26.5 98.3 34.61 120.21L35.07 114.8C35.34 114.94 39.69 117.54 39.4 135.8C39.13 154.68 48.52 158.25 55.89 158.25Z" fill="#CC944A"/>
<path d="M29.55 120.06C29.67 120.35 31.63 125.14 31.55 128.29C30.2803 126.356 28.5205 124.793 26.45 123.76C26.45 123.76 30.89 127.65 28.45 134.64C23.81 118.79 11.28 120.76 6.82 124.37C6.91 124.14 8.45002 120.48 11.15 119.58C11.15 119.58 3.72 120.67 0.0100025 126.85C0.0100025 126.85 -0.149976 112.62 13.47 109.85L7.13 109.08C7.13 109.08 26.54 98.3 34.65 120.21L35.11 114.8C35.21 115.16 37.62 123.07 35.57 128.3C34.1772 125.154 32.1242 122.343 29.55 120.06Z" fill="#F9DBB7"/>
<path d="M112.12 159.25H99.37C99.37 159.25 95.66 152.99 98.09 150.9C98.09 150.9 95.54 147.31 97.73 144.64C99.92 141.97 102.03 139.22 98.3199 120.97L115.95 107.97L106.15 152.8C106.15 152.8 112.47 153.76 112.12 159.25Z" fill="#CC944A"/>
<path d="M172.01 64.8401C170.46 66.0701 160.18 66.33 160.18 66.33C160.18 66.33 165.6 67.8501 166.91 68.2401C168.22 68.6301 167.91 70.9401 166.05 72.6501C164.19 74.3601 151.67 71.9501 148.35 71.7901C147.033 71.8266 145.736 72.1187 144.53 72.6501C142.609 73.4483 140.756 74.4015 138.99 75.5001C138.99 75.5001 135.28 79.3801 133.82 80.6801C131.947 82.1316 129.986 83.4674 127.95 84.6801C127.95 84.6801 128.87 89.79 124.54 101.17C121.54 109.17 108.01 115.8 98.64 122.17C94.64 124.88 91.44 127.56 90.05 130.27C90.05 130.36 89.97 130.45 89.92 130.54C85.26 139.59 77.3701 149.76 77.3701 149.76C77.3701 149.76 78.61 151.92 88.82 151.15C99.03 150.38 99.82 159.73 99.82 159.73H72.82V161.59H54.02C47.15 160.66 39.95 154.02 38.76 140.51C38.19 133.97 39.01 125.8 41.96 115.89C51.01 85.5 76.9601 77.4901 90.5601 67.9901C104.16 58.4901 116.5 52.1701 120.21 49.9901C123.92 47.8101 133.66 38.7801 145.03 40.9901C156.4 43.2001 157.41 51.5901 157.41 51.5901C161.04 53.4401 170.24 55.45 172.48 56.45C174.72 57.45 173.55 63.6101 172.01 64.8401Z" fill="#E5AF61"/>
<path d="M135.74 47.98C133.89 47.73 131.65 45.5101 129.09 48.9101C126.53 52.3101 122.37 51.3801 120.98 54.3201C119.59 57.2601 125.77 64.45 125.54 69.4C125.31 74.35 130.18 77.29 132.19 69.01C134.2 60.73 134.27 55.1701 136.19 54.3201C138.11 53.4701 139.22 48.45 135.74 47.98Z" fill="#F4BA6C"/>
<path d="M72.85 159.71C72.8919 160.33 72.8752 160.953 72.8 161.57H54.01C51.9334 161.267 49.9494 160.509 48.2 159.35C46.463 158.195 44.9431 156.743 43.71 155.06C41.17 151.62 39.31 146.82 38.71 140.49C39.78 137.03 45.83 119.49 58.92 117.11C73.46 114.48 82.27 133.5 56.92 154.11C56.92 154.11 60.07 156.11 65.47 155.58C70.14 155.09 72.59 156.27 72.85 159.71Z" fill="#F4BA6C"/>
<path d="M110.07 159.25H108.59C108.309 157.719 107.485 156.342 106.27 155.37C107.195 155.613 108.037 156.102 108.706 156.785C109.375 157.468 109.846 158.32 110.07 159.25Z" fill="#BC8542"/>
<path d="M105.43 159.25H103.96C103.677 157.718 102.85 156.339 101.63 155.37C102.555 155.613 103.397 156.102 104.066 156.785C104.735 157.468 105.206 158.32 105.43 159.25Z" fill="#BC8542"/>
<path d="M96.66 159.71H94.14C94.096 158.828 93.8771 157.964 93.496 157.167C93.1149 156.37 92.5792 155.658 91.92 155.07C95.59 155.54 96.66 159.71 96.66 159.71Z" fill="#CC944A"/>
<path d="M69.43 161.57C69.4998 160.576 69.3247 159.58 68.92 158.67C69.5358 158.859 70.0723 159.245 70.4464 159.769C70.8206 160.293 71.0117 160.926 70.99 161.57H69.43Z" fill="#CC944A"/>
<path d="M169.26 65.63C169.26 65.63 170 65.3 172.2 68.55C174.4 71.8 179.28 64.95 180.78 67.85C182.28 70.75 178.14 76.78 173.72 75.28C169.3 73.78 170.72 67.49 163.29 67.21L160.18 66.33C160.18 66.33 166.91 66.2 169.26 65.63Z" fill="#EA5E5E"/>
<path d="M149.47 54.81H149.38C149.258 54.7858 149.151 54.7144 149.082 54.6113C149.012 54.5083 148.986 54.3819 149.01 54.26C149.46 52.03 150.33 50.59 151.59 49.98C152.045 49.7702 152.539 49.6615 153.04 49.6615C153.541 49.6615 154.035 49.7702 154.49 49.98C154.599 50.0377 154.682 50.1354 154.722 50.2528C154.761 50.3702 154.753 50.4982 154.7 50.61C154.642 50.7195 154.544 50.802 154.426 50.8394C154.308 50.8769 154.18 50.8663 154.07 50.81C153.741 50.6654 153.385 50.5908 153.025 50.5908C152.665 50.5908 152.309 50.6654 151.98 50.81C150.98 51.29 150.31 52.51 149.92 54.43C149.901 54.536 149.846 54.632 149.764 54.7014C149.682 54.7709 149.578 54.8093 149.47 54.81Z" fill="#846136"/>
<path d="M171.89 55.95C170.89 56.32 171.39 59.95 172.89 60.86C174.39 61.77 174.67 58.86 174.32 57.3C173.97 55.74 173.09 55.48 171.89 55.95Z" fill="#726049"/>
<path d="M48.2 159.35C46.463 158.195 44.9431 156.743 43.71 155.06C47.37 151.06 53.78 148.7 53.78 148.7C47.33 154.69 47.12 157.78 48.2 159.35Z" fill="#CC944A"/>
<path d="M124.53 101.15C121.53 109.15 108 115.78 98.64 122.15C94.64 124.87 91.43 127.54 90.04 130.26C90.0027 130.35 89.9593 130.436 89.91 130.52C90.25 119.95 97 112.01 109.06 106.14C121.12 100.27 120.77 81.04 120.77 81.04C122.876 82.7367 125.321 83.9641 127.94 84.64C127.94 84.64 128.87 89.73 124.53 101.15Z" fill="#F9DBB7"/>
<path d="M98.66 122.15C94.66 124.87 91.4501 127.54 90.0601 130.26C90.0228 130.35 89.9793 130.436 89.93 130.52C73.44 116.01 79.09 95.04 79.09 95.04L98.66 122.15Z" fill="#CC944A"/>
<path d="M79.22 104.74C81.22 114.43 89.52 120.9 96.57 125.74C103.62 130.58 101.7 137.64 104.09 138.01C104.701 140.122 104.776 142.352 104.31 144.5C103.61 148.62 107.31 150.79 108.82 149.05C108.82 149.05 109.18 152.4 111.41 151.61C113.64 150.82 113.41 148.17 113.41 148.17C113.762 147.962 114.058 147.67 114.272 147.322C114.486 146.974 114.613 146.578 114.64 146.17C114.296 144.109 113.417 142.174 112.09 140.56C112.09 140.56 111.33 129.42 109 125.77C106.67 122.12 99.5 115.4 99.78 111.61C100.06 107.82 105.78 100.92 101.19 90.21C96.6 79.5 74.81 82.99 79.22 104.74Z" fill="#F4BA6C"/>
<path opacity="0.48" d="M144.52 72.6501C142.599 73.4483 140.746 74.4015 138.98 75.5001C138.98 75.5001 135.27 79.3801 133.81 80.6801C133.471 81.048 133.049 81.3305 132.58 81.5043C132.111 81.6781 131.607 81.7383 131.11 81.6801L130.76 82.01C125.43 72.18 132.31 57.0601 132.31 57.0601L144.52 72.6501Z" fill="#CC944A"/>
</g>
<defs>
<clipPath id="clip0_1_152">
<rect width="231.06" height="161.57" fill="white"/>
</clipPath>
</defs>
</svg>
