<svg width="178" height="193" viewBox="0 0 178 193" fill="none" xmlns="http://www.w3.org/2000/svg">
<path fill-rule="evenodd" clip-rule="evenodd" d="M14.7431 23.6844H14.7441V142.564C14.7441 170.178 37.1299 192.564 64.7442 192.564H112.77C140.384 192.564 162.77 170.178 162.77 142.564V23.6844H162.771V14.7436C162.771 6.6011 169.371 0.000272121 177.514 0H162.77H132.693H44.8205H14.7441H0C8.14243 0.000272078 14.7431 6.6011 14.7431 14.7436V23.6844Z" fill="url(#paint0_linear_1_970)"/>
<path d="M54.3095 94.3335H47.4272V58.1368H35.0449V52.2336H66.6918V58.1368H54.3095V94.3335Z" fill="white"/>
<path d="M107.01 73.2259C107.01 80.0794 105.292 85.4067 101.855 89.2078C98.4381 93.0088 93.5908 94.9094 87.3133 94.9094C80.9589 94.9094 76.0732 93.028 72.6561 89.2654C69.2581 85.4835 67.5591 80.1178 67.5591 73.1683C67.5591 66.2189 69.2677 60.882 72.6848 57.1577C76.1212 53.4334 81.0165 51.5713 87.3708 51.5713C93.6292 51.5713 98.4669 53.4622 101.884 57.2441C105.301 61.026 107.01 66.3533 107.01 73.2259ZM74.8733 73.2259C74.8733 78.4092 75.9196 82.3447 78.0121 85.0323C80.1046 87.7008 83.205 89.035 87.3133 89.035C91.4023 89.035 94.4835 87.7104 96.5568 85.0611C98.6493 82.4119 99.6956 78.4668 99.6956 73.2259C99.6956 68.0618 98.6589 64.1456 96.5856 61.4771C94.5315 58.8087 91.4599 57.4745 87.3708 57.4745C83.2434 57.4745 80.1238 58.8087 78.0121 61.4771C75.9196 64.1456 74.8733 68.0618 74.8733 73.2259Z" fill="white"/>
<path d="M140.388 64.9615C140.388 69.3577 138.948 72.7268 136.068 75.0689C133.189 77.411 129.09 78.582 123.773 78.582H119.396V94.3335H112.513V52.2336H124.636C129.897 52.2336 133.832 53.3087 136.443 55.4588C139.073 57.6089 140.388 60.7764 140.388 64.9615ZM119.396 72.794H123.053C126.585 72.794 129.177 72.1797 130.828 70.951C132.479 69.7224 133.304 67.8027 133.304 65.1918C133.304 62.773 132.565 60.9684 131.087 59.7782C129.609 58.5879 127.305 57.9928 124.176 57.9928H119.396V72.794Z" fill="white"/>
<path d="M89.0979 131.872C95.4618 131.872 100.501 133.556 104.216 136.925C107.931 140.294 109.788 144.887 109.788 150.704C109.788 157.442 107.671 162.712 103.438 166.513C99.2341 170.285 93.2445 172.172 85.4696 172.172C78.4145 172.172 72.8713 171.034 68.8398 168.759V159.559C71.1723 160.884 73.8504 161.906 76.8739 162.626C79.8975 163.346 82.7052 163.706 85.2968 163.706C89.8754 163.706 93.3597 162.683 95.7498 160.639C98.1399 158.594 99.3349 155.599 99.3349 151.654C99.3349 144.11 94.5259 140.338 84.9081 140.338C83.5546 140.338 81.8845 140.482 79.8975 140.77C77.9106 141.029 76.1684 141.331 74.671 141.677L70.1357 138.999L72.5545 108.158H105.382V117.186H81.4957L80.0703 132.822C81.0782 132.649 82.302 132.447 83.7418 132.217C85.2104 131.987 86.9958 131.872 89.0979 131.872Z" fill="white"/>
<path d="M89.0538 16.1282L91.5695 23.8707H99.7105L93.1243 28.6559L95.64 36.3984L89.0538 31.6133L82.4676 36.3984L84.9833 28.6559L78.3971 23.8707H86.5381L89.0538 16.1282Z" fill="white"/>
<path d="M111.465 24.3845L113.054 29.2746H118.196L114.036 32.2968L115.625 37.1868L111.465 34.1646L107.306 37.1868L108.894 32.2968L104.735 29.2746H109.876L111.465 24.3845Z" fill="white"/>
<path d="M66.6435 24.3845L68.2323 29.2746H73.374L69.2143 32.2968L70.8032 37.1868L66.6435 34.1646L62.4837 37.1868L64.0726 32.2968L59.9129 29.2746H65.0546L66.6435 24.3845Z" fill="white"/>
<defs>
<linearGradient id="paint0_linear_1_970" x1="181.031" y1="192.778" x2="90.4653" y2="49.3499" gradientUnits="userSpaceOnUse">
<stop stop-color="#B07A3B"/>
<stop offset="1" stop-color="#F59F3D"/>
</linearGradient>
</defs>
</svg>
