<svg width="32" height="32" viewBox="0 0 32 32" fill="none" xmlns="http://www.w3.org/2000/svg">
<g style="mix-blend-mode:multiply">
<path d="M32 21.4846C32 22.5892 31.1046 23.4846 30 23.4846L2 23.4846C0.89543 23.4846 7.65153e-08 22.5892 1.70902e-07 21.4846L9.61651e-07 12.2308L32 12.2308L32 21.4846Z" fill="#007BFF" fill-opacity="0.8"/>
</g>
<path d="M-3.49691e-07 4C-1.56562e-07 2.89543 0.895431 2 2 2L30 2.00001C31.1046 2.00001 32 2.89544 32 4.00001L32 20.4154L-3.21985e-06 20.4154L-3.49691e-07 4Z" fill="#C1C9D1" fill-opacity="0.8"/>
<g style="mix-blend-mode:multiply">
<path d="M7 20.3693C7 19.2647 7.89543 18.3693 9 18.3693H23C24.1046 18.3693 25 19.2647 25 20.3693V28C25 29.1046 24.1046 30 23 30H9C7.89543 30 7 29.1046 7 28V20.3693Z" fill="#84979C" fill-opacity="0.8"/>
</g>
<g style="mix-blend-mode:multiply">
<path d="M18.682 8.46379C20.4393 10.2617 20.4393 13.1767 18.682 14.9746C16.9246 16.7725 14.0754 16.7725 12.318 14.9746C10.5607 13.1767 10.5607 10.2617 12.318 8.46379C14.0754 6.66588 16.9246 6.66588 18.682 8.46379Z" fill="#84979C" fill-opacity="0.8"/>
</g>
</svg>
