<svg width="65" height="39" viewBox="0 0 65 39" fill="none" xmlns="http://www.w3.org/2000/svg">
<path d="M18.7288 13.9374C18.7288 14.7271 18.8141 15.3674 18.9635 15.837C19.1343 16.3065 19.3477 16.8188 19.6465 17.3737C19.7532 17.5445 19.7959 17.7152 19.7959 17.8646C19.7959 18.0781 19.6679 18.2915 19.3904 18.5049L18.0458 19.4014C17.8537 19.5294 17.6616 19.5935 17.4908 19.5935C17.2774 19.5935 17.0639 19.4867 16.8505 19.2946C16.5517 18.9745 16.2956 18.633 16.0821 18.2915C15.8687 17.9287 15.6553 17.5231 15.4205 17.0322C13.7557 18.9958 11.664 19.9776 9.14546 19.9776C7.35259 19.9776 5.92257 19.4654 4.87673 18.4409C3.83089 17.4164 3.2973 16.0504 3.2973 14.3429C3.2973 12.5287 3.93761 11.056 5.23957 9.94613C6.54154 8.83627 8.27037 8.28133 10.4688 8.28133C11.1944 8.28133 11.9415 8.34536 12.7312 8.45208C13.5209 8.5588 14.332 8.72955 15.1857 8.92164V7.36355C15.1857 5.74144 14.8442 4.61023 14.1826 3.94857C13.4996 3.28692 12.347 2.96677 10.7035 2.96677C9.95652 2.96677 9.18815 3.05214 8.39843 3.24423C7.60872 3.43633 6.84035 3.67111 6.09332 3.96992C5.75182 4.11932 5.4957 4.2047 5.34629 4.24738C5.19689 4.29007 5.09017 4.31141 5.00479 4.31141C4.70598 4.31141 4.55658 4.09798 4.55658 3.64976V2.60392C4.55658 2.26243 4.59926 2.0063 4.70598 1.8569C4.8127 1.70749 5.00479 1.55809 5.3036 1.40868C6.05063 1.02449 6.94706 0.70434 7.9929 0.448216C9.03874 0.170749 10.1486 0.0426873 11.3225 0.0426873C13.8624 0.0426873 15.7193 0.618965 16.9145 1.77152C18.0884 2.92408 18.6861 4.67426 18.6861 7.02206V13.9374H18.7288ZM10.0632 17.1816C10.7676 17.1816 11.4933 17.0536 12.2616 16.7974C13.03 16.5413 13.713 16.0718 14.2893 15.4314C14.6308 15.0259 14.8869 14.5777 15.015 14.0655C15.143 13.5532 15.2284 12.9342 15.2284 12.2086V11.3121C14.6094 11.1627 13.9478 11.0347 13.2648 10.9493C12.5818 10.8639 11.9201 10.8212 11.2585 10.8212C9.82846 10.8212 8.78262 11.0987 8.07828 11.675C7.37394 12.2512 7.03244 13.0623 7.03244 14.1295C7.03244 15.1326 7.28856 15.8797 7.82215 16.3919C8.3344 16.9255 9.08143 17.1816 10.0632 17.1816ZM27.2022 19.4867C26.818 19.4867 26.5619 19.4227 26.3911 19.2733C26.2204 19.1452 26.071 18.8464 25.9429 18.4409L20.9271 1.94227C20.7991 1.5154 20.7351 1.23793 20.7351 1.08853C20.7351 0.747027 20.9058 0.554935 21.2473 0.554935H23.339C23.7445 0.554935 24.022 0.618965 24.1714 0.768371C24.3421 0.896433 24.4702 1.19524 24.5983 1.60077L28.184 15.7303L31.5136 1.60077C31.6203 1.1739 31.7484 0.896433 31.9191 0.768371C32.0899 0.640309 32.3887 0.554935 32.7729 0.554935H34.4804C34.8859 0.554935 35.1633 0.618965 35.3341 0.768371C35.5048 0.896433 35.6543 1.19524 35.7396 1.60077L39.1119 15.901L42.8044 1.60077C42.9324 1.1739 43.0818 0.896433 43.2312 0.768371C43.402 0.640309 43.6795 0.554935 44.0636 0.554935H46.0486C46.3901 0.554935 46.5822 0.725684 46.5822 1.08853C46.5822 1.19524 46.5609 1.30196 46.5395 1.43002C46.5182 1.55809 46.4755 1.72883 46.3901 1.96361L41.2463 18.4622C41.1182 18.8891 40.9688 19.1666 40.7981 19.2946C40.6273 19.4227 40.3499 19.5081 39.987 19.5081H38.1515C37.7459 19.5081 37.4685 19.4441 37.2977 19.2946C37.127 19.1452 36.9776 18.8678 36.8922 18.4409L33.5839 4.67426L30.297 18.4196C30.1903 18.8464 30.0622 19.1239 29.8915 19.2733C29.7207 19.4227 29.4219 19.4867 29.0377 19.4867H27.2022ZM54.6287 20.063C53.5189 20.063 52.409 19.935 51.3418 19.6788C50.2746 19.4227 49.4422 19.1452 48.8873 18.8251C48.5458 18.633 48.311 18.4196 48.2257 18.2275C48.1403 18.0354 48.0976 17.8219 48.0976 17.6298V16.5413C48.0976 16.0931 48.2683 15.8797 48.5885 15.8797C48.7166 15.8797 48.8446 15.901 48.9727 15.9437C49.1007 15.9864 49.2928 16.0718 49.5063 16.1571C50.232 16.4773 51.0217 16.7334 51.8541 16.9042C52.7078 17.0749 53.5402 17.1603 54.394 17.1603C55.7386 17.1603 56.7845 16.9255 57.5101 16.4559C58.2358 15.9864 58.62 15.3034 58.62 14.4283C58.62 13.8307 58.4279 13.3398 58.0437 12.9342C57.6595 12.5287 56.9339 12.1659 55.888 11.8244L52.7932 10.8639C51.2351 10.373 50.0826 9.64732 49.3782 8.68686C48.6739 7.74774 48.311 6.7019 48.311 5.59203C48.311 4.6956 48.5031 3.90589 48.8873 3.22289C49.2715 2.53989 49.7837 1.94227 50.424 1.47271C51.0644 0.981807 51.79 0.618965 52.6438 0.362842C53.4975 0.106718 54.394 0 55.3331 0C55.8026 0 56.2936 0.0213436 56.7631 0.0853745C57.254 0.149405 57.7022 0.23478 58.1504 0.320154C58.5773 0.426873 58.9828 0.533591 59.367 0.661653C59.7512 0.789714 60.05 0.917776 60.2635 1.04584C60.5623 1.21659 60.7757 1.38734 60.9038 1.57943C61.0318 1.75018 61.0959 1.98496 61.0959 2.28377V3.28692C61.0959 3.73514 60.9251 3.96992 60.605 3.96992C60.4342 3.96992 60.1567 3.88454 59.7939 3.71379C58.5773 3.15886 57.2113 2.88139 55.6959 2.88139C54.4793 2.88139 53.5189 3.07348 52.8572 3.47901C52.1956 3.88454 51.8541 4.50351 51.8541 5.3786C51.8541 5.97622 52.0675 6.48847 52.4944 6.89399C52.9213 7.29952 53.711 7.70505 54.8422 8.06789L57.873 9.02836C59.4097 9.51926 60.5196 10.2023 61.1812 11.0773C61.8429 11.9524 62.163 12.9556 62.163 14.0655C62.163 14.9832 61.971 15.8156 61.6081 16.5413C61.2239 17.267 60.7117 17.9073 60.05 18.4196C59.3884 18.9531 58.5987 19.3373 57.6809 19.6148C56.7204 19.9136 55.7173 20.063 54.6287 20.063Z" fill="#252F3E"/>
<path fill-rule="evenodd" clip-rule="evenodd" d="M58.6627 30.4167C51.6406 35.6032 41.4384 38.3565 32.6661 38.3565C20.3722 38.3565 9.29487 33.8103 0.928161 26.2546C0.266508 25.657 0.86413 24.846 1.65384 25.3155C10.7035 30.5661 21.8663 33.7463 33.4132 33.7463C41.2036 33.7463 49.7624 32.1242 57.6382 28.7945C58.8121 28.261 59.8153 29.5629 58.6627 30.4167Z" fill="#FF9900"/>
<path fill-rule="evenodd" clip-rule="evenodd" d="M61.5868 27.0871C60.6903 25.9346 55.6532 26.5322 53.3695 26.8097C52.6865 26.895 52.5798 26.2974 53.1987 25.8492C57.2113 23.0318 63.8065 23.8429 64.5749 24.782C65.3433 25.7425 64.3615 32.3377 60.605 35.4965C60.0287 35.9874 59.4738 35.7313 59.7299 35.091C60.5836 32.978 62.4832 28.2183 61.5868 27.0871Z" fill="#FF9900"/>
</svg>
