<svg width="76" height="63" viewBox="0 0 76 63" fill="none" xmlns="http://www.w3.org/2000/svg">
<path d="M64.1397 4.77771H11.7016C5.80944 4.77771 1 9.59974 1 15.4794V51.2984C1 57.1906 5.82203 62 11.7016 62H64.1397C70.0319 62 74.8413 57.178 74.8413 51.2984V15.4794C74.8539 9.58715 70.0319 4.77771 64.1397 4.77771Z" fill="url(#paint0_linear_98_15)" stroke="#3E96F4" stroke-width="2" stroke-miterlimit="10" stroke-linecap="round" stroke-linejoin="round"/>
<path d="M17.7213 2V7.90165" stroke="#3E96F4" stroke-width="4" stroke-miterlimit="10" stroke-linecap="round" stroke-linejoin="round"/>
<path d="M58.0493 2V7.90165" stroke="#3E96F4" stroke-width="4" stroke-miterlimit="10" stroke-linecap="round" stroke-linejoin="round"/>
<path d="M29.1392 45.133H24.3902V32.1309C24.3902 31.8645 24.3902 31.5469 24.3902 31.178C24.4005 30.7989 24.4107 30.4096 24.421 30.01C24.4414 29.6002 24.4568 29.1903 24.4671 28.7805C24.4876 28.3707 24.5029 27.9967 24.5132 27.6586C24.4619 27.72 24.3749 27.8123 24.2519 27.9352C24.1289 28.0582 23.9906 28.1965 23.8369 28.3502C23.6833 28.4936 23.5244 28.6422 23.3605 28.7959C23.1966 28.9496 23.0378 29.0879 22.8841 29.2108L20.3021 31.2856L17.9968 28.427L25.2355 22.6637H29.1392V45.133Z" fill="#31393C"/>
<path d="M48.997 45.133H33.9201V41.8287L39.207 36.1268C39.873 35.4096 40.4775 34.7487 41.0206 34.1442C41.5636 33.5397 42.0298 32.9506 42.4191 32.3768C42.8085 31.803 43.1107 31.219 43.3259 30.6248C43.541 30.0305 43.6486 29.3901 43.6486 28.7036C43.6486 27.9455 43.4181 27.3563 42.957 26.9362C42.5062 26.5161 41.8966 26.3061 41.1281 26.3061C40.3187 26.3061 39.54 26.5059 38.7921 26.9055C38.0441 27.3051 37.2603 27.8737 36.4406 28.6114L33.8587 25.553C34.3197 25.133 34.8013 24.7334 35.3033 24.3543C35.8054 23.9649 36.3587 23.6217 36.9632 23.3245C37.5677 23.0274 38.2337 22.7918 38.9611 22.6176C39.6886 22.4332 40.5031 22.3409 41.4048 22.3409C42.4806 22.3409 43.4437 22.4895 44.2941 22.7866C45.1548 23.0838 45.8874 23.509 46.4919 24.0623C47.0964 24.6053 47.5574 25.2661 47.8751 26.0448C48.2029 26.8235 48.3669 27.6996 48.3669 28.6729C48.3669 29.5541 48.2132 30.3993 47.9058 31.2088C47.5984 32.008 47.1783 32.7969 46.6456 33.5756C46.1128 34.344 45.4929 35.1125 44.7859 35.8809C44.0892 36.6391 43.3413 37.4127 42.5421 38.2016L39.8372 40.9219V41.1371H48.997V45.133Z" fill="#31393C"/>
<path d="M53.1171 28.7116H49.7329V26.6922H53.1171V23.2895H55.1365V26.6922H58.5115V28.7116H55.1365V32.0682H53.1171V28.7116Z" fill="#31393C"/>
<defs>
<linearGradient id="paint0_linear_98_15" x1="0.999999" y1="11.8361" x2="74.7706" y2="62.0001" gradientUnits="userSpaceOnUse">
<stop stop-color="#9FCEFF"/>
<stop offset="1" stop-color="#E7F2FF"/>
</linearGradient>
</defs>
</svg>
