<svg width="38" height="37" viewBox="0 0 38 37" fill="none" xmlns="http://www.w3.org/2000/svg">
<path fill-rule="evenodd" clip-rule="evenodd" d="M17.9646 2.71677C17.9682 2.67752 17.968 2.63733 17.9636 2.59663C17.928 2.26718 17.632 2.02896 17.3026 2.06456C14.153 2.40487 11.2704 3.63399 8.90973 5.49504C8.6495 5.7002 8.60485 6.07746 8.81 6.33769C9.01516 6.59792 9.39242 6.64257 9.65265 6.43741C11.2916 5.14534 13.2007 4.18244 15.2814 3.64769C14.0108 4.84618 12.9518 6.61055 12.1637 8.70148C12.0468 9.01156 12.2034 9.35767 12.5135 9.47454C12.8236 9.59142 13.1697 9.4348 13.2865 9.12472C14.3929 6.18952 15.961 4.20197 17.6401 3.47751C17.9351 3.35023 18.0759 3.01442 17.9646 2.71677ZM20.2257 2.59663C20.2613 2.26718 20.5573 2.02896 20.8867 2.06456C24.0363 2.40487 26.9189 3.63399 29.2796 5.49504C29.5398 5.7002 29.5845 6.07746 29.3793 6.33769C29.1742 6.59792 28.7969 6.64257 28.5367 6.43741C26.8976 5.14528 24.9885 4.18235 22.9077 3.64762C24.1774 4.84527 25.2357 6.60788 26.0241 8.69698C26.1411 9.00701 25.9847 9.35319 25.6747 9.4702C25.3646 9.58721 25.0184 9.43074 24.9014 9.12072C23.7944 6.18753 22.2277 4.20197 20.5491 3.47748C20.2541 3.35017 20.1134 3.01439 20.2247 2.71677C20.2211 2.67752 20.2214 2.63733 20.2257 2.59663ZM8.81003 7.87887C9.01521 7.61866 9.39248 7.57404 9.65269 7.77922C10.1621 8.18087 10.6964 8.54978 11.2526 8.88373C11.5366 9.05432 11.6286 9.42291 11.4581 9.707C11.2875 9.99108 10.9189 10.0831 10.6348 9.91249C10.0351 9.5524 9.45894 9.15461 8.90969 8.72153C8.64947 8.51635 8.60486 8.13908 8.81003 7.87887ZM29.3791 7.87863C29.5844 8.13873 29.54 8.51603 29.2799 8.72133C28.7286 9.15647 28.1479 9.55707 27.5429 9.91876C27.2585 10.0888 26.8901 9.99606 26.72 9.71164C26.55 9.42722 26.6427 9.05881 26.9271 8.88878C27.4875 8.55376 28.0256 8.1826 28.5364 7.77941C28.7965 7.5741 29.1738 7.61852 29.3791 7.87863ZM7.19762 7.92092C7.45387 8.13102 7.49128 8.50907 7.28118 8.76532C6.78035 9.37616 6.3278 10.025 5.92763 10.7061C5.75975 10.9918 5.39205 11.0873 5.10635 10.9194C4.82065 10.7515 4.72514 10.3838 4.89302 10.0981C5.32472 9.36345 5.81293 8.66345 6.35322 8.00448C6.56332 7.74823 6.94137 7.71082 7.19762 7.92092ZM30.9917 7.92087C31.248 7.7108 31.6261 7.74826 31.8361 8.00454C33.8066 10.4085 35.1107 13.3815 35.4628 16.6407C35.4984 16.9701 35.2602 17.266 34.9307 17.3016C34.6013 17.3372 34.3054 17.099 34.2698 16.7695C33.9435 13.7498 32.7355 10.9947 30.9081 8.76526C30.698 8.50898 30.7355 8.13093 30.9917 7.92087ZM13.3642 10.595C13.472 10.2816 13.8134 10.115 14.1267 10.2227C15.1803 10.585 16.2871 10.8357 17.4317 10.9597C17.7611 10.9954 17.9992 11.2914 17.9635 11.6208C17.9279 11.9503 17.6319 12.1884 17.3024 12.1527C16.0679 12.019 14.8736 11.7485 13.7365 11.3575C13.4231 11.2497 13.2565 10.9084 13.3642 10.595ZM24.8096 10.6003C24.9172 10.9137 24.7504 11.255 24.4369 11.3626C23.304 11.7515 22.1155 12.0197 20.8869 12.1527C20.5574 12.1884 20.2614 11.9502 20.2258 11.6208C20.1901 11.2914 20.4283 10.9954 20.7577 10.9597C21.8968 10.8364 22.998 10.5878 24.0473 10.2276C24.3607 10.12 24.702 10.2868 24.8096 10.6003ZM26.3 11.6442C26.6241 11.5751 26.9428 11.7819 27.0118 12.106C27.3167 13.5368 27.521 15.0702 27.6083 16.6717C27.6263 17.0026 27.3727 17.2855 27.0418 17.3035C26.7109 17.3215 26.4281 17.0679 26.41 16.7371C26.326 15.1949 26.1295 13.7234 25.8382 12.356C25.7691 12.0319 25.9759 11.7132 26.3 11.6442ZM11.8887 11.6484C12.2128 11.7175 12.4195 12.0362 12.3504 12.3603C12.0591 13.727 11.8626 15.197 11.7793 16.7368C11.7614 17.0677 11.4786 17.3214 11.1477 17.3035C10.8168 17.2856 10.5631 17.0029 10.581 16.672C10.6676 15.0723 10.8719 13.5402 11.1768 12.1101C11.2459 11.7861 11.5646 11.5793 11.8887 11.6484ZM4.54771 12.0643C4.85601 12.1858 5.00744 12.5342 4.88594 12.8425C4.38948 14.1023 4.06445 15.423 3.91957 16.7693C3.88411 17.0988 3.58828 17.3371 3.25881 17.3017C2.92935 17.2662 2.691 16.9704 2.72646 16.6409C2.88283 15.1878 3.23365 13.7623 3.76951 12.4025C3.89101 12.0943 4.23942 11.9428 4.54771 12.0643ZM4.35859 18.4327C4.35859 18.1014 4.62722 17.8327 4.95859 17.8327H9.40368C9.73505 17.8327 10.0037 18.1014 10.0037 18.4327C10.0037 18.7641 9.73505 19.0327 9.40368 19.0327H4.95859C4.62722 19.0327 4.35859 18.7641 4.35859 18.4327ZM12.2625 18.4327C12.2625 18.1014 12.5311 17.8327 12.8625 17.8327H17.3649C17.6963 17.8327 17.9649 18.1014 17.9649 18.4327C17.9649 18.7641 17.6963 19.0327 17.3649 19.0327H12.8625C12.5311 19.0327 12.2625 18.7641 12.2625 18.4327ZM20.2244 18.4327C20.2244 18.1014 20.493 17.8327 20.8244 17.8327H25.3268C25.6582 17.8327 25.9268 18.1014 25.9268 18.4327C25.9268 18.7641 25.6582 19.0327 25.3268 19.0327H20.8244C20.493 19.0327 20.2244 18.7641 20.2244 18.4327ZM28.1856 18.4327C28.1856 18.1014 28.4543 17.8327 28.7856 17.8327H29.6608C29.9921 17.8327 30.2608 18.1014 30.2608 18.4327C30.2608 18.7641 29.9921 19.0327 29.6608 19.0327H28.7856C28.4543 19.0327 28.1856 18.7641 28.1856 18.4327ZM31.5389 18.4327C31.5389 18.1014 31.8075 17.8327 32.1389 17.8327H33.2307C33.5621 17.8327 33.8307 18.1014 33.8307 18.4327C33.8307 18.7641 33.5621 19.0327 33.2307 19.0327H32.1389C31.8075 19.0327 31.5389 18.7641 31.5389 18.4327ZM3.25857 19.5638C3.58802 19.5282 3.88395 19.7665 3.91954 20.0959C4.24577 23.1157 5.45378 25.8707 7.28123 28.1002C7.4913 28.3565 7.45384 28.7345 7.19756 28.9446C6.94128 29.1547 6.56323 29.1172 6.35317 28.8609C4.38268 26.4569 3.07856 23.4839 2.72648 20.2248C2.69089 19.8953 2.92912 19.5994 3.25857 19.5638ZM34.9307 19.5638C35.2602 19.5994 35.4984 19.8953 35.4628 20.2248C35.1107 23.4839 33.8066 26.4569 31.8361 28.8609C31.6261 29.1172 31.248 29.1547 30.9917 28.9446C30.7355 28.7345 30.698 28.3565 30.9081 28.1002C32.7355 25.8707 33.9435 23.1157 34.2698 20.0959C34.3054 19.7665 34.6013 19.5282 34.9307 19.5638ZM27.0416 19.5619C27.3725 19.5799 27.6262 19.8626 27.6083 20.1935C27.5087 22.0318 27.2539 23.7806 26.869 25.388C26.7919 25.7103 26.4681 25.909 26.1458 25.8319C25.8236 25.7547 25.6249 25.4309 25.702 25.1086C26.0691 23.5752 26.3142 21.8985 26.41 20.1286C26.428 19.7977 26.7107 19.544 27.0416 19.5619ZM11.1477 19.5619C11.4786 19.544 11.7613 19.7977 11.7793 20.1286C11.8751 21.897 12.1202 23.5731 12.4866 25.106C12.5637 25.4283 12.3649 25.752 12.0426 25.8291C11.7203 25.9061 11.3966 25.7073 11.3195 25.385C10.9354 23.7784 10.6806 22.0305 10.581 20.1935C10.5631 19.8626 10.8168 19.5799 11.1477 19.5619ZM17.9636 25.2447C17.9992 25.5742 17.761 25.8701 17.4316 25.9058C16.2223 26.0366 15.0564 26.3083 13.9501 26.7052C13.6382 26.8171 13.2947 26.655 13.1828 26.3431C13.0709 26.0312 13.233 25.6876 13.5449 25.5757C14.7397 25.1471 15.9983 24.8538 17.3025 24.7127C17.632 24.6771 17.9279 24.9153 17.9636 25.2447ZM20.2258 25.2445C20.2616 24.915 20.5576 24.677 20.8871 24.7127C22.1859 24.8538 23.4391 25.1448 24.6303 25.5705C24.9423 25.682 25.1049 26.0254 24.9933 26.3375C24.8818 26.6495 24.5384 26.812 24.2264 26.7005C23.1235 26.3063 21.9623 26.0366 20.7575 25.9057C20.4281 25.87 20.19 25.5739 20.2258 25.2445ZM27.0287 27.3271C27.2052 27.0465 27.5756 26.9622 27.8561 27.1386C28.3495 27.4489 28.8243 27.7848 29.2797 28.144C29.5399 28.3492 29.5844 28.7265 29.3792 28.9866C29.174 29.2468 28.7967 29.2914 28.5366 29.0862C28.114 28.7529 27.674 28.4416 27.2172 28.1544C26.9367 27.978 26.8523 27.6076 27.0287 27.3271ZM11.1473 27.3341C11.3242 27.6143 11.2404 27.9849 10.9601 28.1617C10.5076 28.4472 10.0711 28.7558 9.6531 29.0859C9.39307 29.2913 9.01576 29.247 8.81036 28.987C8.60496 28.727 8.64924 28.3497 8.90928 28.1443C9.36079 27.7876 9.83192 27.4547 10.3197 27.1468C10.6 26.97 10.9705 27.0538 11.1473 27.3341ZM12.7174 27.9594C13.0236 27.8327 13.3745 27.9783 13.5012 28.2845C14.594 30.927 16.0693 32.71 17.6402 33.388C17.9352 33.5153 18.0759 33.8511 17.9646 34.1487C17.9682 34.1879 17.968 34.2281 17.9636 34.2688C17.928 34.5983 17.632 34.8365 17.3026 34.8009C14.153 34.4606 11.2704 33.2315 8.90973 31.3704C8.6495 31.1653 8.60485 30.788 8.81 30.5278C9.01516 30.2675 9.39242 30.2229 9.65265 30.428C11.2917 31.7202 13.2009 32.6831 15.2817 33.2178C14.1285 32.1301 13.1509 30.5776 12.3923 28.7431C12.2656 28.4369 12.4112 28.086 12.7174 27.9594ZM25.47 27.9658C25.7761 28.0926 25.9216 28.4435 25.7948 28.7497C25.0365 30.5815 24.0598 32.1314 22.908 33.2178C24.9887 32.683 26.8977 31.7201 28.5367 30.428C28.7969 30.2229 29.1742 30.2675 29.3793 30.5278C29.5845 30.788 29.5398 31.1653 29.2796 31.3704C26.9189 33.2315 24.0363 34.4606 20.8867 34.8009C20.5573 34.8365 20.2613 34.5983 20.2257 34.2688C20.2214 34.2281 20.2211 34.1879 20.2248 34.1487C20.1134 33.8511 20.2542 33.5153 20.5491 33.388C22.1188 32.7106 23.5933 30.9303 24.6861 28.2907C24.8128 27.9845 25.1638 27.8391 25.47 27.9658Z" fill="url(#paint0_linear_1_240)"/>
<path fill-rule="evenodd" clip-rule="evenodd" d="M7.98347 5.97856C7.35972 5.97856 6.85408 6.48421 6.85408 7.10795C6.85408 7.73169 7.35973 8.23733 7.98347 8.23733C8.60721 8.23733 9.11285 7.73169 9.11285 7.10795C9.11285 6.48421 8.60721 5.97856 7.98347 5.97856ZM5.65408 7.10795C5.65408 5.82146 6.69698 4.77856 7.98347 4.77856C9.26995 4.77856 10.3128 5.82146 10.3128 7.10795C10.3128 8.39443 9.26995 9.43733 7.98347 9.43733C6.69698 9.43733 5.65408 8.39443 5.65408 7.10795Z" fill="url(#paint1_linear_1_240)"/>
<path fill-rule="evenodd" clip-rule="evenodd" d="M12.2174 9.43755C11.5936 9.43755 11.088 9.94319 11.088 10.5669C11.088 11.1907 11.5936 11.6963 12.2174 11.6963C12.8411 11.6963 13.3468 11.1907 13.3468 10.5669C13.3468 9.94319 12.8411 9.43755 12.2174 9.43755ZM9.888 10.5669C9.888 9.28045 10.9309 8.23755 12.2174 8.23755C13.5039 8.23755 14.5468 9.28045 14.5468 10.5669C14.5468 11.8534 13.5039 12.8963 12.2174 12.8963C10.9309 12.8963 9.888 11.8534 9.888 10.5669Z" fill="url(#paint2_linear_1_240)"/>
<path fill-rule="evenodd" clip-rule="evenodd" d="M11.1333 17.3033C10.5096 17.3033 10.0037 17.809 10.0037 18.4327C10.0037 19.0565 10.5096 19.562 11.1333 19.562C11.7571 19.562 12.2625 19.0565 12.2625 18.4327C12.2625 17.809 11.7571 17.3033 11.1333 17.3033ZM8.80396 18.4327C8.80396 17.1462 9.84686 16.1033 11.1333 16.1033C12.4198 16.1033 13.4627 17.1462 13.4627 18.4327C13.4627 19.7191 12.4198 20.762 11.1333 20.762C9.84686 20.762 8.80396 19.7191 8.80396 18.4327Z" fill="url(#paint3_linear_1_240)"/>
<path fill-rule="evenodd" clip-rule="evenodd" d="M27.0562 17.3033C26.4325 17.3033 25.9268 17.809 25.9268 18.4327C25.9268 19.0565 26.4325 19.562 27.0562 19.562C27.68 19.562 28.1856 19.0565 28.1856 18.4327C28.1856 17.809 27.68 17.3033 27.0562 17.3033ZM24.7269 18.4327C24.7269 17.1462 25.7698 16.1033 27.0562 16.1033C28.3427 16.1033 29.3856 17.1462 29.3856 18.4327C29.3856 19.7191 28.3427 20.762 27.0562 20.762C25.7698 20.762 24.7269 19.7191 24.7269 18.4327Z" fill="url(#paint4_linear_1_240)"/>
<path fill-rule="evenodd" clip-rule="evenodd" d="M34.9602 17.3033C34.3365 17.3033 33.8307 17.809 33.8307 18.4327C33.8307 19.0565 34.3365 19.562 34.9602 19.562C35.584 19.562 36.0896 19.0564 36.0896 18.4327C36.0896 17.8089 35.584 17.3033 34.9602 17.3033ZM32.6309 18.4327C32.6309 17.1462 33.6738 16.1033 34.9602 16.1033C36.2467 16.1033 37.2896 17.1462 37.2896 18.4327C37.2896 19.7191 36.2467 20.762 34.9602 20.762C33.6738 20.762 32.6309 19.7191 32.6309 18.4327Z" fill="url(#paint5_linear_1_240)"/>
<path fill-rule="evenodd" clip-rule="evenodd" d="M3.22959 17.3033C2.60585 17.3033 2.10021 17.8089 2.10021 18.4327C2.10021 19.0564 2.60585 19.562 3.22959 19.562C3.85333 19.562 4.35859 19.0565 4.35859 18.4327C4.35859 17.809 3.85333 17.3033 3.22959 17.3033ZM0.900208 18.4327C0.900208 17.1462 1.94311 16.1033 3.22959 16.1033C4.51607 16.1033 5.55897 17.1462 5.55897 18.4327C5.55897 19.7191 4.51607 20.762 3.22959 20.762C1.94311 20.762 0.900208 19.7191 0.900208 18.4327Z" fill="url(#paint6_linear_1_240)"/>
<path fill-rule="evenodd" clip-rule="evenodd" d="M7.98347 28.6281C7.35972 28.6281 6.85408 29.1337 6.85408 29.7575C6.85408 30.3812 7.35972 30.8869 7.98347 30.8869C8.60721 30.8869 9.11285 30.3812 9.11285 29.7575C9.11285 29.1337 8.60721 28.6281 7.98347 28.6281ZM5.65408 29.7575C5.65408 28.471 6.69698 27.4281 7.98347 27.4281C9.26995 27.4281 10.3128 28.471 10.3128 29.7575C10.3128 31.044 9.26995 32.0869 7.98347 32.0869C6.69698 32.0869 5.65408 31.044 5.65408 29.7575Z" fill="url(#paint7_linear_1_240)"/>
<path fill-rule="evenodd" clip-rule="evenodd" d="M30.2064 5.97856C29.5827 5.97856 29.077 6.48421 29.077 7.10795C29.077 7.73169 29.5827 8.23733 30.2064 8.23733C30.8302 8.23733 31.3358 7.73169 31.3358 7.10795C31.3358 6.48421 30.8302 5.97856 30.2064 5.97856ZM27.877 7.10795C27.877 5.82146 28.9199 4.77856 30.2064 4.77856C31.4929 4.77856 32.5358 5.82146 32.5358 7.10795C32.5358 8.39443 31.4929 9.43733 30.2064 9.43733C28.9199 9.43733 27.877 8.39443 27.877 7.10795Z" fill="url(#paint8_linear_1_240)"/>
<path fill-rule="evenodd" clip-rule="evenodd" d="M30.2064 28.6281C29.5827 28.6281 29.077 29.1337 29.077 29.7575C29.077 30.3812 29.5827 30.8869 30.2064 30.8869C30.8302 30.8869 31.3358 30.3812 31.3358 29.7575C31.3358 29.1337 30.8302 28.6281 30.2064 28.6281ZM27.877 29.7575C27.877 28.471 28.9199 27.4281 30.2064 27.4281C31.4929 27.4281 32.5358 28.471 32.5358 29.7575C32.5358 31.044 31.4929 32.0869 30.2064 32.0869C28.9199 32.0869 27.877 31.044 27.877 29.7575Z" fill="url(#paint9_linear_1_240)"/>
<path fill-rule="evenodd" clip-rule="evenodd" d="M12.2174 25.8165C11.5936 25.8165 11.088 26.3221 11.088 26.9458C11.088 27.5696 11.5936 28.0752 12.2174 28.0752C12.8411 28.0752 13.3468 27.5696 13.3468 26.9458C13.3468 26.3221 12.8411 25.8165 12.2174 25.8165ZM9.888 26.9458C9.888 25.6594 10.9309 24.6165 12.2174 24.6165C13.5039 24.6165 14.5468 25.6594 14.5468 26.9458C14.5468 28.2323 13.5039 29.2752 12.2174 29.2752C10.9309 29.2752 9.888 28.2323 9.888 26.9458Z" fill="url(#paint10_linear_1_240)"/>
<path fill-rule="evenodd" clip-rule="evenodd" d="M25.956 9.43767C25.3322 9.43767 24.8266 9.94331 24.8266 10.5671C24.8266 11.1908 25.3322 11.6964 25.956 11.6964C26.5797 11.6964 27.0854 11.1908 27.0854 10.5671C27.0854 9.94331 26.5797 9.43767 25.956 9.43767ZM23.6266 10.5671C23.6266 9.28057 24.6695 8.23767 25.956 8.23767C27.2425 8.23767 28.2854 9.28057 28.2854 10.5671C28.2854 11.8535 27.2425 12.8964 25.956 12.8964C24.6695 12.8964 23.6266 11.8535 23.6266 10.5671Z" fill="url(#paint11_linear_1_240)"/>
<path fill-rule="evenodd" clip-rule="evenodd" d="M25.956 25.8163C25.3322 25.8163 24.8266 26.322 24.8266 26.9457C24.8266 27.5695 25.3322 28.0751 25.956 28.0751C26.5797 28.0751 27.0854 27.5695 27.0854 26.9457C27.0854 26.322 26.5797 25.8163 25.956 25.8163ZM23.6266 26.9457C23.6266 25.6592 24.6695 24.6163 25.956 24.6163C27.2425 24.6163 28.2854 25.6592 28.2854 26.9457C28.2854 28.2322 27.2425 29.2751 25.956 29.2751C24.6695 29.2751 23.6266 28.2322 23.6266 26.9457Z" fill="url(#paint12_linear_1_240)"/>
<path fill-rule="evenodd" clip-rule="evenodd" d="M19.0949 3.69666C19.4263 3.69666 19.6949 3.96528 19.6949 4.29666V9.91993C19.6949 10.2513 19.4263 10.5199 19.0949 10.5199C18.7636 10.5199 18.4949 10.2513 18.4949 9.91993V4.29666C18.4949 3.96528 18.7636 3.69666 19.0949 3.69666ZM19.0949 12.7787C19.4263 12.7787 19.6949 13.0473 19.6949 13.3787V16.703C19.6949 17.0343 19.4263 17.303 19.0949 17.303C18.7636 17.303 18.4949 17.0343 18.4949 16.703V13.3787C18.4949 13.0473 18.7636 12.7787 19.0949 12.7787ZM19.0949 19.5625C19.4263 19.5625 19.6949 19.8311 19.6949 20.1625V23.4867C19.6949 23.8181 19.4263 24.0867 19.0949 24.0867C18.7636 24.0867 18.4949 23.8181 18.4949 23.4867V20.1625C18.4949 19.8311 18.7636 19.5625 19.0949 19.5625ZM19.0949 26.3455C19.4263 26.3455 19.6949 26.6141 19.6949 26.9455V32.5688C19.6949 32.9002 19.4263 33.1688 19.0949 33.1688C18.7636 33.1688 18.4949 32.9002 18.4949 32.5688V26.9455C18.4949 26.6141 18.7636 26.3455 19.0949 26.3455Z" fill="url(#paint13_linear_1_240)"/>
<path fill-rule="evenodd" clip-rule="evenodd" d="M19.0949 17.303C18.4712 17.303 17.9649 17.809 17.9649 18.4327C17.9649 19.0565 18.4712 19.5625 19.0949 19.5625C19.7187 19.5625 20.2244 19.0565 20.2244 18.4327C20.2244 17.809 19.7187 17.303 19.0949 17.303ZM16.7655 18.4327C16.7655 17.1462 17.8084 16.1033 19.0949 16.1033C20.3814 16.1033 21.4243 17.1462 21.4243 18.4327C21.4243 19.7191 20.3814 20.762 19.0949 20.762C17.8084 20.762 16.7655 19.7191 16.7655 18.4327Z" fill="url(#paint14_linear_1_240)"/>
<path fill-rule="evenodd" clip-rule="evenodd" d="M19.0949 10.5199C18.4712 10.5199 17.9655 11.0255 17.9655 11.6492C17.9655 12.2729 18.4712 12.7787 19.0949 12.7787C19.7187 12.7787 20.2243 12.2729 20.2243 11.6492C20.2243 11.0255 19.7187 10.5199 19.0949 10.5199ZM16.7655 11.6492C16.7655 10.3627 17.8084 9.31982 19.0949 9.31982C20.3814 9.31982 21.4243 10.3627 21.4243 11.6492C21.4243 12.9357 20.3814 13.9786 19.0949 13.9786C17.8084 13.9786 16.7655 12.9357 16.7655 11.6492Z" fill="url(#paint15_linear_1_240)"/>
<path fill-rule="evenodd" clip-rule="evenodd" d="M19.0949 1.43804C18.4712 1.43804 17.9655 1.94368 17.9655 2.56742C17.9655 3.19116 18.4712 3.69666 19.0949 3.69666C19.7187 3.69666 20.2243 3.19116 20.2243 2.56742C20.2243 1.94368 19.7187 1.43804 19.0949 1.43804ZM16.7655 2.56742C16.7655 1.28094 17.8084 0.238037 19.0949 0.238037C20.3814 0.238037 21.4243 1.28094 21.4243 2.56742C21.4243 3.8539 20.3814 4.8968 19.0949 4.8968C17.8084 4.8968 16.7655 3.8539 16.7655 2.56742Z" fill="url(#paint16_linear_1_240)"/>
<path fill-rule="evenodd" clip-rule="evenodd" d="M18.2019 32.1467C19.3898 31.6536 20.7532 32.2161 21.2465 33.4046C21.7161 34.5357 21.2279 35.8265 20.1533 36.3729C19.858 36.523 19.4968 36.4053 19.3466 36.1099C19.1964 35.8146 19.3141 35.4534 19.6095 35.3032C20.1289 35.0391 20.3658 34.4128 20.1382 33.8646C19.8992 33.2888 19.2383 33.0157 18.662 33.255C18.0856 33.4943 17.8124 34.155 18.0513 34.7307M18.2019 32.1467C17.014 32.6398 16.4497 34.0024 16.9431 35.1909L18.2019 32.1467ZM16.9431 35.1909C16.9725 35.2618 17.0053 35.3307 17.0412 35.3974L16.9431 35.1909ZM18.0513 34.7307C18.0653 34.7645 18.0808 34.7969 18.0975 34.8279C18.2548 35.1196 18.1458 35.4835 17.8541 35.6408C17.5624 35.798 17.1985 35.689 17.0412 35.3974" fill="url(#paint17_linear_1_240)"/>
<path fill-rule="evenodd" clip-rule="evenodd" d="M19.0949 24.0867C18.4712 24.0867 17.9655 24.5925 17.9655 25.2162C17.9655 25.84 18.4712 26.3455 19.0949 26.3455C19.7187 26.3455 20.2243 25.84 20.2243 25.2162C20.2243 24.5925 19.7187 24.0867 19.0949 24.0867ZM16.7655 25.2162C16.7655 23.9297 17.8084 22.8868 19.0949 22.8868C20.3814 22.8868 21.4243 23.9297 21.4243 25.2162C21.4243 26.5027 20.3814 27.5456 19.0949 27.5456C17.8084 27.5456 16.7655 26.5027 16.7655 25.2162Z" fill="url(#paint18_linear_1_240)"/>
<defs>
<linearGradient id="paint0_linear_1_240" x1="5.66434" y1="4.85457" x2="37.11" y2="33.5322" gradientUnits="userSpaceOnUse">
<stop stop-color="#3FB72B"/>
<stop offset="1" stop-color="#31393C"/>
</linearGradient>
<linearGradient id="paint1_linear_1_240" x1="5.66434" y1="4.85457" x2="37.11" y2="33.5322" gradientUnits="userSpaceOnUse">
<stop stop-color="#3FB72B"/>
<stop offset="1" stop-color="#31393C"/>
</linearGradient>
<linearGradient id="paint2_linear_1_240" x1="5.66434" y1="4.85457" x2="37.11" y2="33.5322" gradientUnits="userSpaceOnUse">
<stop stop-color="#3FB72B"/>
<stop offset="1" stop-color="#31393C"/>
</linearGradient>
<linearGradient id="paint3_linear_1_240" x1="5.66434" y1="4.85457" x2="37.11" y2="33.5322" gradientUnits="userSpaceOnUse">
<stop stop-color="#3FB72B"/>
<stop offset="1" stop-color="#31393C"/>
</linearGradient>
<linearGradient id="paint4_linear_1_240" x1="5.66434" y1="4.85457" x2="37.11" y2="33.5322" gradientUnits="userSpaceOnUse">
<stop stop-color="#3FB72B"/>
<stop offset="1" stop-color="#31393C"/>
</linearGradient>
<linearGradient id="paint5_linear_1_240" x1="5.66434" y1="4.85457" x2="37.11" y2="33.5322" gradientUnits="userSpaceOnUse">
<stop stop-color="#3FB72B"/>
<stop offset="1" stop-color="#31393C"/>
</linearGradient>
<linearGradient id="paint6_linear_1_240" x1="5.66434" y1="4.85457" x2="37.11" y2="33.5322" gradientUnits="userSpaceOnUse">
<stop stop-color="#3FB72B"/>
<stop offset="1" stop-color="#31393C"/>
</linearGradient>
<linearGradient id="paint7_linear_1_240" x1="5.66434" y1="4.85457" x2="37.11" y2="33.5322" gradientUnits="userSpaceOnUse">
<stop stop-color="#3FB72B"/>
<stop offset="1" stop-color="#31393C"/>
</linearGradient>
<linearGradient id="paint8_linear_1_240" x1="5.66434" y1="4.85457" x2="37.11" y2="33.5322" gradientUnits="userSpaceOnUse">
<stop stop-color="#3FB72B"/>
<stop offset="1" stop-color="#31393C"/>
</linearGradient>
<linearGradient id="paint9_linear_1_240" x1="5.66434" y1="4.85457" x2="37.11" y2="33.5322" gradientUnits="userSpaceOnUse">
<stop stop-color="#3FB72B"/>
<stop offset="1" stop-color="#31393C"/>
</linearGradient>
<linearGradient id="paint10_linear_1_240" x1="5.66434" y1="4.85457" x2="37.11" y2="33.5322" gradientUnits="userSpaceOnUse">
<stop stop-color="#3FB72B"/>
<stop offset="1" stop-color="#31393C"/>
</linearGradient>
<linearGradient id="paint11_linear_1_240" x1="5.66434" y1="4.85457" x2="37.11" y2="33.5322" gradientUnits="userSpaceOnUse">
<stop stop-color="#3FB72B"/>
<stop offset="1" stop-color="#31393C"/>
</linearGradient>
<linearGradient id="paint12_linear_1_240" x1="5.66434" y1="4.85457" x2="37.11" y2="33.5322" gradientUnits="userSpaceOnUse">
<stop stop-color="#3FB72B"/>
<stop offset="1" stop-color="#31393C"/>
</linearGradient>
<linearGradient id="paint13_linear_1_240" x1="5.66434" y1="4.85457" x2="37.11" y2="33.5322" gradientUnits="userSpaceOnUse">
<stop stop-color="#3FB72B"/>
<stop offset="1" stop-color="#31393C"/>
</linearGradient>
<linearGradient id="paint14_linear_1_240" x1="5.66434" y1="4.85457" x2="37.11" y2="33.5322" gradientUnits="userSpaceOnUse">
<stop stop-color="#3FB72B"/>
<stop offset="1" stop-color="#31393C"/>
</linearGradient>
<linearGradient id="paint15_linear_1_240" x1="5.66434" y1="4.85457" x2="37.11" y2="33.5322" gradientUnits="userSpaceOnUse">
<stop stop-color="#3FB72B"/>
<stop offset="1" stop-color="#31393C"/>
</linearGradient>
<linearGradient id="paint16_linear_1_240" x1="5.66434" y1="4.85457" x2="37.11" y2="33.5322" gradientUnits="userSpaceOnUse">
<stop stop-color="#3FB72B"/>
<stop offset="1" stop-color="#31393C"/>
</linearGradient>
<linearGradient id="paint17_linear_1_240" x1="5.66434" y1="4.85457" x2="37.11" y2="33.5322" gradientUnits="userSpaceOnUse">
<stop stop-color="#3FB72B"/>
<stop offset="1" stop-color="#31393C"/>
</linearGradient>
<linearGradient id="paint18_linear_1_240" x1="5.66434" y1="4.85457" x2="37.11" y2="33.5322" gradientUnits="userSpaceOnUse">
<stop stop-color="#3FB72B"/>
<stop offset="1" stop-color="#31393C"/>
</linearGradient>
</defs>
</svg>
