<svg width="31" height="31" viewBox="0 0 31 31" fill="none" xmlns="http://www.w3.org/2000/svg">
<path d="M30.4447 17.7665C30.311 16.8591 30.1961 16.0736 30.1586 15.5694C30.0343 13.8859 29.5795 12.9902 28.6345 12.5377C28.2287 12.3476 27.7834 12.2568 27.3355 12.2727C27.1995 11.7006 26.9229 10.7744 26.5008 10.3571C25.7739 9.63959 24.7774 9.61849 24.1936 9.68649C24.1121 9.4184 23.9683 9.17344 23.7739 8.97169C23.5795 8.76994 23.34 8.61715 23.0751 8.52584C22.4329 8.33899 21.7444 8.39491 21.1407 8.68294C20.9578 5.88097 20.7234 3.3041 20.4561 2.77653C20.363 2.56143 20.2158 2.37409 20.0288 2.23275C19.8419 2.0914 19.6215 2.00086 19.3892 1.96994C18.6694 1.88084 17.9636 2.38965 17.7479 2.63585C17.5978 2.80936 17.49 2.93363 17.4993 8.02875C17.4993 10.418 17.5415 13.1286 17.5767 13.6092C17.6072 14.0196 17.5509 15.485 17.4853 16.8919C17.3708 16.7144 17.2712 16.5278 17.1875 16.3338C16.6576 15.1615 15.5462 14.2025 14.0901 13.6421C13.1311 13.2763 12.2377 13.3748 11.6961 13.9047C11.5017 14.092 11.366 14.3319 11.3056 14.595C11.2453 14.8582 11.2628 15.1332 11.3561 15.3866C11.5367 15.8883 11.947 16.3784 12.4206 16.9458C12.8595 17.4393 13.252 17.9723 13.593 18.5379C13.9003 19.128 14.1613 19.741 14.3738 20.3715C14.6172 21.1037 14.9313 21.8104 15.3117 22.4817C15.4876 22.7725 15.6798 23.0797 15.8768 23.3962C16.4775 24.3211 17.0255 25.2793 17.5181 26.2662C18.1019 27.5394 20.2216 28.6109 20.4607 28.7422C20.5164 28.771 20.5773 28.7884 20.6398 28.7933C20.7023 28.7983 20.7651 28.7906 20.8246 28.7708C20.884 28.751 20.9389 28.7195 20.986 28.6781C21.0331 28.6367 21.0714 28.5863 21.0987 28.5299C21.126 28.4735 21.1417 28.4121 21.1448 28.3495C21.148 28.2869 21.1386 28.2243 21.1172 28.1654C21.0957 28.1065 21.0627 28.0525 21.02 28.0066C20.9773 27.9607 20.9259 27.9238 20.8687 27.8981C20.299 27.6144 18.7397 26.6976 18.3599 25.8699C17.8479 24.844 17.2763 23.8489 16.6482 22.8897C16.4536 22.5779 16.2637 22.2731 16.0901 21.9847C15.7463 21.3708 15.4621 20.7254 15.2414 20.0573C15.0131 19.3804 14.7316 18.7226 14.3996 18.09C14.0321 17.4732 13.6074 16.8923 13.1311 16.3549C12.7301 15.886 12.3526 15.417 12.2284 15.0794C12.196 14.9953 12.1897 14.9033 12.2101 14.8155C12.2306 14.7278 12.277 14.6481 12.3433 14.587C12.5543 14.3807 13.0326 14.2587 13.7501 14.5307C15.4149 15.1662 16.0784 16.172 16.3293 16.7324C16.5671 17.3076 16.9404 17.8168 17.4173 18.2167C17.3938 18.6434 17.3751 19.0209 17.3587 19.2976C17.3516 19.4216 17.3941 19.5434 17.4767 19.6361C17.5594 19.7289 17.6754 19.7851 17.7995 19.7923H17.8206C17.9402 19.7925 18.0554 19.747 18.1426 19.6651C18.2298 19.5831 18.2823 19.4709 18.2895 19.3515C18.2895 19.1499 18.5709 14.4276 18.5052 13.5412C18.4302 12.4416 18.3857 4.29593 18.524 3.1939C18.7332 3.01575 18.9972 2.91477 19.272 2.90784C19.3282 2.90784 19.4783 2.93363 19.6143 3.20562C19.8277 3.64174 20.0832 6.61019 20.2896 10.2586V10.3407C20.4021 12.2774 20.5006 14.4041 20.578 16.437C20.5827 16.5614 20.6365 16.6788 20.7278 16.7634C20.819 16.8481 20.9401 16.893 21.0645 16.8884C21.1889 16.8837 21.3063 16.8298 21.391 16.7386C21.4756 16.6473 21.5205 16.5262 21.5159 16.4018C21.4807 15.4639 21.3752 12.8214 21.2158 10.1039C21.2113 10.0061 21.2303 9.90878 21.2711 9.81987C21.3119 9.73096 21.3733 9.65308 21.4502 9.5927C21.7973 9.31836 22.4538 9.31836 22.7774 9.42153C23.2932 9.58801 23.3635 10.2422 23.3659 10.268C23.3659 10.3102 23.7832 14.6269 23.8348 15.607C23.8414 15.7268 23.8937 15.8396 23.981 15.922C24.0682 16.0044 24.1838 16.0503 24.3038 16.0501H24.3319C24.4559 16.0429 24.572 15.9867 24.6547 15.8939C24.7373 15.8012 24.7798 15.6794 24.7727 15.5554C24.7258 14.7347 24.4445 11.7452 24.339 10.615C24.7469 10.5751 25.3941 10.5962 25.8326 11.0277C26.1022 11.2926 26.3836 12.2704 26.4985 12.88V12.9152C26.7384 13.9067 26.8223 14.9296 26.747 15.9469C26.7408 16.0082 26.7468 16.0701 26.7646 16.1291C26.7823 16.1881 26.8115 16.2429 26.8505 16.2906C26.8895 16.3383 26.9375 16.3778 26.9917 16.407C27.046 16.4361 27.1054 16.4543 27.1667 16.4604H27.2136C27.3303 16.461 27.443 16.4181 27.5297 16.3401C27.6164 16.262 27.6709 16.1545 27.6826 16.0384C27.7591 15.0977 27.7063 14.151 27.5255 13.2247C27.769 13.2363 28.0079 13.2952 28.2289 13.3982C28.74 13.6327 29.1011 14.1016 29.216 15.6492C29.2559 16.1861 29.3731 16.9857 29.5091 17.9118C29.76 19.6282 30.0742 21.7643 30.0062 23.0703C29.903 25.0492 29.0894 28.074 29.0824 28.1044C29.0654 28.1676 29.0619 28.2336 29.072 28.2982C29.0821 28.3628 29.1056 28.4246 29.141 28.4796L30.0789 29.9521C30.1478 30.0521 30.2529 30.1214 30.372 30.1455C30.491 30.1696 30.6147 30.1465 30.7171 30.0812C30.8195 30.0159 30.8926 29.9134 30.9209 29.7953C30.9493 29.6771 30.9307 29.5526 30.8691 29.448L30.039 28.149C30.2266 27.4221 30.848 24.9179 30.9417 23.1195C31.0238 21.7174 30.7026 19.525 30.4447 17.7665Z" fill="url(#paint0_linear_1_245)"/>
<path d="M1.40737 3.8973H15.0585C15.1714 4.54116 15.481 5.13421 15.9448 5.5949C15.9883 5.63847 16.0401 5.67303 16.097 5.69661C16.1539 5.72019 16.2149 5.73233 16.2766 5.73233C16.3382 5.73233 16.3992 5.72019 16.4561 5.69661C16.513 5.67303 16.5648 5.63847 16.6083 5.5949C16.6519 5.55133 16.6865 5.4996 16.71 5.44267C16.7336 5.38575 16.7458 5.32473 16.7458 5.26312C16.7458 5.2015 16.7336 5.14048 16.71 5.08356C16.6865 5.02663 16.6519 4.97491 16.6083 4.93134C16.2423 4.56386 16.0146 4.08116 15.9637 3.56501C15.9129 3.04885 16.042 2.53099 16.3293 2.09915C16.6165 1.66731 17.0442 1.34804 17.5399 1.19544C18.0356 1.04284 18.5688 1.06629 19.0492 1.26181C19.1062 1.28522 19.1672 1.29717 19.2288 1.29699C19.2904 1.29681 19.3513 1.2845 19.4081 1.26077C19.5229 1.21284 19.6139 1.12128 19.6612 1.00624C19.6846 0.949272 19.6965 0.888256 19.6964 0.826673C19.6962 0.765089 19.6839 0.704144 19.6601 0.647316C19.6364 0.590489 19.6017 0.538892 19.558 0.495473C19.5144 0.452053 19.4626 0.417661 19.4056 0.394259C18.9517 0.207509 18.4607 0.128227 17.9711 0.162606C17.4815 0.196985 17.0064 0.344094 16.583 0.592443C16.1597 0.840791 15.7994 1.18366 15.5305 1.59425C15.2615 2.00485 15.0912 2.47207 15.0327 2.95941H1.40737C1.28299 2.95941 1.16372 3.00881 1.07577 3.09676C0.987826 3.1847 0.938419 3.30398 0.938419 3.42836C0.938419 3.55273 0.987826 3.67201 1.07577 3.75995C1.16372 3.8479 1.28299 3.8973 1.40737 3.8973ZM22.0411 2.95941C21.9167 2.95941 21.7974 3.00881 21.7095 3.09676C21.6216 3.1847 21.5721 3.30398 21.5721 3.42836C21.5721 3.55273 21.6216 3.67201 21.7095 3.75995C21.7974 3.8479 21.9167 3.8973 22.0411 3.8973H30.4822C30.6065 3.8973 30.7258 3.8479 30.8138 3.75995C30.9017 3.67201 30.9511 3.55273 30.9511 3.42836C30.9511 3.30398 30.9017 3.1847 30.8138 3.09676C30.7258 3.00881 30.6065 2.95941 30.4822 2.95941H22.0411ZM4.22106 18.4347C5.00976 18.4338 5.77176 18.1489 6.36766 17.6323C6.96356 17.1156 7.35351 16.4016 7.46618 15.621H9.84844C9.97281 15.621 10.0921 15.5716 10.18 15.4837C10.268 15.3957 10.3174 15.2764 10.3174 15.1521C10.3174 15.0277 10.268 14.9084 10.18 14.8205C10.0921 14.7325 9.97281 14.6831 9.84844 14.6831H7.46618C7.37627 14.0602 7.10917 13.4762 6.69672 13.0008C6.28426 12.5254 5.74383 12.1786 5.13982 12.0017C4.53581 11.8249 3.89367 11.8253 3.28992 12.0031C2.68617 12.1809 2.14626 12.5285 1.73451 13.0045C1.32276 13.4805 1.05653 14.0649 0.967548 14.6879C0.878562 15.311 0.970568 15.9465 1.2326 16.5188C1.49464 17.091 1.91566 17.5759 2.4455 17.9155C2.97535 18.2552 3.59168 18.4354 4.22106 18.4347ZM4.22106 12.8073C4.6848 12.8073 5.13814 12.9448 5.52373 13.2025C5.90932 13.4601 6.20985 13.8263 6.38732 14.2548C6.56479 14.6832 6.61122 15.1547 6.52075 15.6095C6.43027 16.0643 6.20696 16.4821 5.87904 16.8101C5.55112 17.138 5.13333 17.3613 4.67849 17.4518C4.22366 17.5422 3.75221 17.4958 3.32376 17.3183C2.89532 17.1409 2.52912 16.8403 2.27148 16.4547C2.01383 16.0691 1.87632 15.6158 1.87632 15.1521C1.87632 14.5302 2.12335 13.9338 2.56307 13.4941C3.0028 13.0544 3.59919 12.8073 4.22106 12.8073ZM1.40737 27.3447H8.01016C8.12848 28.1206 8.52088 28.8284 9.11621 29.3399C9.71155 29.8513 10.4704 30.1325 11.2553 30.1325C12.0401 30.1325 12.799 29.8513 13.3944 29.3399C13.9897 28.8284 14.3821 28.1206 14.5004 27.3447H16.1792C16.3036 27.3447 16.4229 27.2953 16.5108 27.2074C16.5988 27.1194 16.6482 27.0002 16.6482 26.8758C16.6482 26.7514 16.5988 26.6321 16.5108 26.5442C16.4229 26.4562 16.3036 26.4068 16.1792 26.4068H14.5004C14.3821 25.6309 13.9897 24.9231 13.3944 24.4117C12.799 23.9003 12.0401 23.6191 11.2553 23.6191C10.4704 23.6191 9.71155 23.9003 9.11621 24.4117C8.52088 24.9231 8.12848 25.6309 8.01016 26.4068H1.40737C1.28299 26.4068 1.16372 26.4562 1.07577 26.5442C0.987826 26.6321 0.938419 26.7514 0.938419 26.8758C0.938419 27.0002 0.987826 27.1194 1.07577 27.2074C1.16372 27.2953 1.28299 27.3447 1.40737 27.3447ZM11.2553 24.531C11.719 24.531 12.1724 24.6686 12.558 24.9262C12.9435 25.1838 13.2441 25.55 13.4215 25.9785C13.599 26.4069 13.6454 26.8784 13.555 27.3332C13.4645 27.7881 13.2412 28.2058 12.9133 28.5338C12.5854 28.8617 12.1676 29.085 11.7127 29.1755C11.2579 29.2659 10.7864 29.2195 10.358 29.042C9.92955 28.8646 9.56335 28.564 9.3057 28.1784C9.04806 27.7929 8.91054 27.3395 8.91054 26.8758C8.91054 26.2539 9.15758 25.6575 9.5973 25.2178C10.037 24.7781 10.6334 24.531 11.2553 24.531Z" fill="url(#paint1_linear_1_245)"/>
<defs>
<linearGradient id="paint0_linear_1_245" x1="13.8475" y1="5.55527" x2="36.0842" y2="19.6396" gradientUnits="userSpaceOnUse">
<stop stop-color="#3FB72B"/>
<stop offset="1" stop-color="#31393C"/>
</linearGradient>
<linearGradient id="paint1_linear_1_245" x1="4.86436" y1="3.97779" x2="30.8953" y2="27.6244" gradientUnits="userSpaceOnUse">
<stop stop-color="#3FB72B"/>
<stop offset="1" stop-color="#31393C"/>
</linearGradient>
</defs>
</svg>
