<svg width="8" height="15" viewBox="0 0 8 15" fill="none" xmlns="http://www.w3.org/2000/svg">
<path d="M5.41406 6.604C5.41406 6.604 5.51172 6.50635 5.70703 6.31104C5.90234 6.11572 6 5.74202 6 5.18994C6 4.63786 5.80469 4.1665 5.41406 3.77588C5.02344 3.38525 4.55208 3.18994 4 3.18994C3.44792 3.18994 2.97656 3.38525 2.58594 3.77588C2.19531 4.1665 2 4.63786 2 5.18994C2 5.74202 2.19531 6.21338 2.58594 6.604C2.97656 6.99463 3.44792 7.18994 4 7.18994C4.55208 7.18994 5.02344 6.99463 5.41406 6.604ZM8 5.18994C8 5.75765 7.91406 6.2238 7.74219 6.58838L4.89844 12.6353C4.8151 12.8071 4.69141 12.9425 4.52734 13.0415C4.36328 13.1405 4.1875 13.1899 4 13.1899C3.8125 13.1899 3.63672 13.1405 3.47266 13.0415C3.30859 12.9425 3.1875 12.8071 3.10938 12.6353L0.257812 6.58838C0.0859375 6.2238 0 5.75765 0 5.18994C0 4.08577 0.390625 3.14307 1.17188 2.36182C1.95312 1.58057 2.89583 1.18994 4 1.18994C5.10417 1.18994 6.04688 1.58057 6.82812 2.36182C7.60938 3.14307 8 4.08577 8 5.18994Z" fill="white"/>
</svg>
