<svg width="32" height="32" viewBox="0 0 32 32" fill="none" xmlns="http://www.w3.org/2000/svg">
<g style="mix-blend-mode:multiply">
<path d="M32 21.4846C32 22.5892 31.1046 23.4846 30 23.4846L2 23.4846C0.89543 23.4846 7.65153e-08 22.5892 1.70902e-07 21.4846L9.61651e-07 12.2308L32 12.2308L32 21.4846Z" fill="#62D84E" fill-opacity="0.8"/>
</g>
<path d="M-3.49691e-07 4C-1.56562e-07 2.89543 0.895431 2 2 2L30 2.00001C31.1046 2.00001 32 2.89544 32 4.00001L32 20.4154L-3.21985e-06 20.4154L-3.49691e-07 4Z" fill="#C1C9D1" fill-opacity="0.8"/>
<g style="mix-blend-mode:multiply">
<path d="M7 20.3691C7 19.2646 7.89543 18.3691 9 18.3691H23C24.1046 18.3691 25 19.2646 25 20.3691V27.9999C25 29.1045 24.1046 29.9999 23 29.9999H9C7.89543 29.9999 7 29.1045 7 27.9999V20.3691Z" fill="#84979C" fill-opacity="0.8"/>
</g>
<g style="mix-blend-mode:multiply">
<path d="M18.682 8.46391C20.4393 10.2618 20.4393 13.1768 18.682 14.9747C16.9246 16.7727 14.0754 16.7727 12.318 14.9747C10.5607 13.1768 10.5607 10.2618 12.318 8.46391C14.0754 6.666 16.9246 6.666 18.682 8.46391Z" fill="#84979C" fill-opacity="0.8"/>
</g>
</svg>
