<svg width="228" height="228" viewBox="0 0 228 228" fill="none" xmlns="http://www.w3.org/2000/svg">
<g filter="url(#filter0_d_1_1349)">
<rect width="220" height="220" rx="10" fill="url(#paint0_linear_1_1349)"/>
<rect x="1" y="1" width="218" height="218" rx="9" stroke="white" stroke-width="2"/>
</g>
<path d="M80.1627 81.8533H100.168H136.394V54.8191L134.772 53.197H110.441V40.2206L84.4882 45.6274V66.1734H80.1627V81.8533Z" fill="url(#paint1_linear_1_1349)"/>
<path d="M122.466 28.5526H118.962C118.138 28.5526 117.47 29.2207 117.47 30.0449V52.1481C117.47 52.9723 118.138 53.6404 118.962 53.6404H122.466C123.29 53.6404 123.958 52.9723 123.958 52.1481V30.0449C123.958 29.2207 123.29 28.5526 122.466 28.5526Z" stroke="#3E96F4" stroke-width="2" stroke-miterlimit="10"/>
<path d="M129.462 24H132.966C133.362 24 133.741 24.1572 134.021 24.4371C134.301 24.7169 134.458 25.0965 134.458 25.4923V53.6079H127.97V25.4923C127.97 25.0965 128.127 24.7169 128.407 24.4371C128.687 24.1572 129.067 24 129.462 24Z" stroke="#3E96F4" stroke-width="2" stroke-miterlimit="10"/>
<path d="M116.929 33.0942H123.418" stroke="#3E96F4" stroke-width="2" stroke-miterlimit="10"/>
<path d="M127.743 27.6875H134.231" stroke="#3E96F4" stroke-width="2" stroke-miterlimit="10"/>
<path d="M102.742 53.6403H135.442C135.695 53.6403 135.937 53.7405 136.115 53.919C136.294 54.0974 136.394 54.3395 136.394 54.5919V81.7559H101.79V54.5919C101.79 54.3395 101.89 54.0974 102.069 53.919C102.247 53.7405 102.489 53.6403 102.742 53.6403Z" stroke="#3E96F4" stroke-width="2" stroke-miterlimit="10"/>
<path d="M110.03 59.0471H107.608C106.784 59.0471 106.116 59.7152 106.116 60.5394V62.9617C106.116 63.7858 106.784 64.454 107.608 64.454H110.03C110.854 64.454 111.522 63.7858 111.522 62.9617V60.5394C111.522 59.7152 110.854 59.0471 110.03 59.0471Z" fill="white" stroke="#3E96F4" stroke-width="2" stroke-miterlimit="10"/>
<path d="M120.303 59.0471H117.881C117.057 59.0471 116.389 59.7152 116.389 60.5394V62.9617C116.389 63.7858 117.057 64.454 117.881 64.454H120.303C121.127 64.454 121.795 63.7858 121.795 62.9617V60.5394C121.795 59.7152 121.127 59.0471 120.303 59.0471Z" fill="white" stroke="#3E96F4" stroke-width="2" stroke-miterlimit="10"/>
<path d="M130.576 59.0471H128.154C127.33 59.0471 126.662 59.7152 126.662 60.5394V62.9617C126.662 63.7858 127.33 64.454 128.154 64.454H130.576C131.4 64.454 132.068 63.7858 132.068 62.9617V60.5394C132.068 59.7152 131.4 59.0471 130.576 59.0471Z" fill="white" stroke="#3E96F4" stroke-width="2" stroke-miterlimit="10"/>
<path d="M110.03 69.8608H107.608C106.784 69.8608 106.116 70.529 106.116 71.3531V73.7754C106.116 74.5996 106.784 75.2677 107.608 75.2677H110.03C110.854 75.2677 111.522 74.5996 111.522 73.7754V71.3531C111.522 70.529 110.854 69.8608 110.03 69.8608Z" fill="white" stroke="#3E96F4" stroke-width="2" stroke-miterlimit="10"/>
<path d="M120.303 69.8608H117.881C117.057 69.8608 116.389 70.529 116.389 71.3531V73.7754C116.389 74.5996 117.057 75.2677 117.881 75.2677H120.303C121.127 75.2677 121.795 74.5996 121.795 73.7754V71.3531C121.795 70.529 121.127 69.8608 120.303 69.8608Z" fill="white" stroke="#3E96F4" stroke-width="2" stroke-miterlimit="10"/>
<path d="M130.576 69.8608H128.154C127.33 69.8608 126.662 70.529 126.662 71.3531V73.7754C126.662 74.5996 127.33 75.2677 128.154 75.2677H130.576C131.4 75.2677 132.068 74.5996 132.068 73.7754V71.3531C132.068 70.529 131.4 69.8608 130.576 69.8608Z" fill="white" stroke="#3E96F4" stroke-width="2" stroke-miterlimit="10"/>
<path d="M92.4363 48.2334H89.5166C89.1284 48.2334 88.8137 48.5481 88.8137 48.9363V51.856C88.8137 52.2442 89.1284 52.5589 89.5166 52.5589H92.4363C92.8245 52.5589 93.1392 52.2442 93.1392 51.856V48.9363C93.1392 48.5481 92.8245 48.2334 92.4363 48.2334Z" fill="white" stroke="#3E96F4" stroke-width="2" stroke-miterlimit="10"/>
<path d="M92.4363 56.8844H89.5166C89.1284 56.8844 88.8137 57.1991 88.8137 57.5873V60.507C88.8137 60.8952 89.1284 61.2099 89.5166 61.2099H92.4363C92.8245 61.2099 93.1392 60.8952 93.1392 60.507V57.5873C93.1392 57.1991 92.8245 56.8844 92.4363 56.8844Z" fill="white" stroke="#3E96F4" stroke-width="2" stroke-miterlimit="10"/>
<path d="M81.1143 65.5354H101.79V81.7559H80.1627V66.487C80.1627 66.362 80.1873 66.2383 80.2352 66.1228C80.283 66.0074 80.3531 65.9025 80.4415 65.8141C80.5298 65.7258 80.6347 65.6557 80.7502 65.6078C80.8656 65.56 80.9894 65.5354 81.1143 65.5354Z" stroke="#3E96F4" stroke-width="2" stroke-miterlimit="10"/>
<path d="M85.4398 71.072H96.513C96.7654 71.072 97.0075 71.1723 97.1859 71.3507C97.3644 71.5292 97.4646 71.7712 97.4646 72.0236V81.6154H84.4882V72.0236C84.4882 71.7712 84.5885 71.5292 84.7669 71.3507C84.9454 71.1723 85.1874 71.072 85.4398 71.072Z" fill="#31393C" stroke="#3E96F4" stroke-width="2" stroke-miterlimit="10"/>
<path d="M90.9764 70.9423V81.756" stroke="#3E96F4" stroke-width="2" stroke-miterlimit="10"/>
<path d="M112.604 39.9934L82.812 45.7679C82.6205 45.8043 82.4233 45.7983 82.2344 45.75C82.0455 45.7018 81.8694 45.6126 81.7188 45.4888C81.5682 45.365 81.4465 45.2096 81.3626 45.0336C81.2787 44.8576 81.2346 44.6653 81.2333 44.4703V43.0104C81.2349 42.701 81.3435 42.4017 81.5406 42.1633C81.7377 41.9248 82.0111 41.7619 82.3147 41.702L112.106 35.9383C112.298 35.8998 112.496 35.9044 112.686 35.9519C112.876 35.9993 113.053 36.0884 113.204 36.2126C113.355 36.3368 113.476 36.493 113.56 36.67C113.643 36.847 113.686 37.0403 113.685 37.2359V38.6957C113.683 39.0038 113.574 39.3016 113.377 39.5382C113.18 39.7749 112.906 39.9358 112.604 39.9934Z" stroke="#3E96F4" stroke-width="2" stroke-miterlimit="10"/>
<path d="M84.4882 65.5353V46.0707" stroke="#3E96F4" stroke-width="2" stroke-miterlimit="10"/>
<path d="M110.441 53.6402V40.6638" stroke="#3E96F4" stroke-width="2" stroke-miterlimit="10"/>
<path d="M137.789 81.7559H78.7678C78.3437 81.7559 78 82.0996 78 82.5236V84.2322C78 84.6562 78.3437 85 78.7678 85H137.789C138.213 85 138.557 84.6562 138.557 84.2322V82.5236C138.557 82.0996 138.213 81.7559 137.789 81.7559Z" stroke="#3E96F4" stroke-width="2" stroke-miterlimit="10"/>
<path d="M83.5312 168H73.875V141.562C73.875 141.021 73.875 140.375 73.875 139.625C73.8958 138.854 73.9167 138.062 73.9375 137.25C73.9792 136.417 74.0104 135.583 74.0312 134.75C74.0729 133.917 74.1042 133.156 74.125 132.469C74.0208 132.594 73.8438 132.781 73.5938 133.031C73.3438 133.281 73.0625 133.562 72.75 133.875C72.4375 134.167 72.1146 134.469 71.7812 134.781C71.4479 135.094 71.125 135.375 70.8125 135.625L65.5625 139.844L60.875 134.031L75.5938 122.312H83.5312V168ZM123.971 145.156C123.971 148.844 123.68 152.135 123.096 155.031C122.534 157.927 121.617 160.385 120.346 162.406C119.096 164.427 117.471 165.969 115.471 167.031C113.492 168.094 111.096 168.625 108.284 168.625C105.638 168.625 103.336 168.094 101.377 167.031C99.4192 165.969 97.7942 164.427 96.5025 162.406C95.2108 160.385 94.2421 157.927 93.5962 155.031C92.9712 152.135 92.6587 148.844 92.6587 145.156C92.6587 141.469 92.94 138.167 93.5025 135.25C94.0858 132.333 95.0025 129.865 96.2525 127.844C97.5025 125.823 99.1171 124.281 101.096 123.219C103.075 122.135 105.471 121.594 108.284 121.594C110.909 121.594 113.2 122.125 115.159 123.188C117.117 124.25 118.752 125.792 120.065 127.812C121.377 129.833 122.357 132.302 123.002 135.219C123.648 138.135 123.971 141.448 123.971 145.156ZM102.284 145.156C102.284 150.365 102.732 154.281 103.627 156.906C104.523 159.531 106.075 160.844 108.284 160.844C110.45 160.844 112.002 159.542 112.94 156.938C113.898 154.333 114.377 150.406 114.377 145.156C114.377 139.927 113.898 136 112.94 133.375C112.002 130.729 110.45 129.406 108.284 129.406C107.18 129.406 106.242 129.74 105.471 130.406C104.721 131.073 104.107 132.062 103.627 133.375C103.148 134.688 102.805 136.333 102.596 138.312C102.388 140.271 102.284 142.552 102.284 145.156ZM138.224 150.75H126.755V143.906H138.224V132.375H145.067V143.906H156.505V150.75H145.067V162.125H138.224V150.75Z" fill="#31393C"/>
<path d="M43.8416 182.364V194H42.4325V182.364H43.8416ZM47.826 188.75V194H46.4851V185.273H47.7805V186.636H47.8942C48.0987 186.193 48.4093 185.837 48.826 185.568C49.2427 185.295 49.7805 185.159 50.4396 185.159C51.0305 185.159 51.5476 185.28 51.9908 185.523C52.4339 185.761 52.7786 186.125 53.0249 186.614C53.2711 187.098 53.3942 187.712 53.3942 188.455V194H52.0533V188.545C52.0533 187.86 51.8752 187.326 51.5192 186.943C51.1631 186.557 50.6745 186.364 50.0533 186.364C49.6252 186.364 49.2427 186.456 48.9055 186.642C48.5722 186.828 48.3089 187.098 48.1158 187.455C47.9226 187.811 47.826 188.242 47.826 188.75ZM59.1399 194.182C58.4126 194.182 57.7706 193.998 57.2138 193.631C56.657 193.259 56.2214 192.737 55.907 192.062C55.5926 191.384 55.4354 190.583 55.4354 189.659C55.4354 188.742 55.5926 187.947 55.907 187.273C56.2214 186.598 56.6589 186.078 57.2195 185.71C57.7801 185.343 58.4278 185.159 59.1626 185.159C59.7308 185.159 60.1797 185.254 60.5092 185.443C60.8426 185.629 61.0964 185.841 61.2706 186.08C61.4486 186.314 61.5869 186.508 61.6854 186.659H61.799V182.364H63.1399V194H61.8445V192.659H61.6854C61.5869 192.818 61.4467 193.019 61.2649 193.261C61.0831 193.5 60.8236 193.714 60.4865 193.903C60.1494 194.089 59.7005 194.182 59.1399 194.182ZM59.3217 192.977C59.8596 192.977 60.3142 192.837 60.6854 192.557C61.0566 192.273 61.3388 191.881 61.532 191.381C61.7251 190.877 61.8217 190.295 61.8217 189.636C61.8217 188.985 61.727 188.415 61.5376 187.926C61.3482 187.434 61.0679 187.051 60.6967 186.778C60.3255 186.502 59.8672 186.364 59.3217 186.364C58.7536 186.364 58.2801 186.509 57.9013 186.801C57.5263 187.089 57.2441 187.481 57.0547 187.977C56.8691 188.47 56.7763 189.023 56.7763 189.636C56.7763 190.258 56.871 190.822 57.0604 191.33C57.2536 191.833 57.5376 192.235 57.9126 192.534C58.2914 192.83 58.7611 192.977 59.3217 192.977ZM71.282 190.432V185.273H72.6229V194H71.282V192.523H71.1911C70.9865 192.966 70.6683 193.343 70.2365 193.653C69.8047 193.96 69.2592 194.114 68.6001 194.114C68.0547 194.114 67.5698 193.994 67.1456 193.756C66.7214 193.513 66.388 193.15 66.1456 192.665C65.9032 192.176 65.782 191.561 65.782 190.818V185.273H67.1229V190.727C67.1229 191.364 67.3009 191.871 67.657 192.25C68.0168 192.629 68.4751 192.818 69.032 192.818C69.3653 192.818 69.7043 192.733 70.049 192.562C70.3975 192.392 70.6892 192.131 70.924 191.778C71.1626 191.426 71.282 190.977 71.282 190.432ZM81.2607 187.227L80.0561 187.568C79.9804 187.367 79.8686 187.172 79.7209 186.983C79.5769 186.79 79.38 186.631 79.13 186.506C78.88 186.381 78.5599 186.318 78.1697 186.318C77.6357 186.318 77.1906 186.441 76.8345 186.688C76.4822 186.93 76.3061 187.239 76.3061 187.614C76.3061 187.947 76.4273 188.21 76.6697 188.403C76.9122 188.597 77.291 188.758 77.8061 188.886L79.1016 189.205C79.8819 189.394 80.4633 189.684 80.8459 190.074C81.2285 190.46 81.4197 190.958 81.4197 191.568C81.4197 192.068 81.2758 192.515 80.9879 192.909C80.7038 193.303 80.3061 193.614 79.7947 193.841C79.2834 194.068 78.6887 194.182 78.0107 194.182C77.1205 194.182 76.3838 193.989 75.8004 193.602C75.2171 193.216 74.8478 192.652 74.6925 191.909L75.9652 191.591C76.0864 192.061 76.3156 192.413 76.6527 192.648C76.9936 192.883 77.4387 193 77.9879 193C78.6129 193 79.1091 192.867 79.4766 192.602C79.8478 192.333 80.0334 192.011 80.0334 191.636C80.0334 191.333 79.9273 191.08 79.7152 190.875C79.5031 190.667 79.1773 190.511 78.7379 190.409L77.2834 190.068C76.4841 189.879 75.897 189.585 75.522 189.188C75.1508 188.786 74.9652 188.284 74.9652 187.682C74.9652 187.189 75.1035 186.754 75.38 186.375C75.6603 185.996 76.041 185.699 76.522 185.483C77.0069 185.267 77.5561 185.159 78.1697 185.159C79.0334 185.159 79.7114 185.348 80.2038 185.727C80.7 186.106 81.0523 186.606 81.2607 187.227ZM87.2337 185.273V186.409H82.7109V185.273H87.2337ZM84.0291 183.182H85.37V191.5C85.37 191.879 85.425 192.163 85.5348 192.352C85.6484 192.538 85.7924 192.663 85.9666 192.727C86.1446 192.788 86.3321 192.818 86.5291 192.818C86.6768 192.818 86.7981 192.811 86.8928 192.795C86.9875 192.777 87.0632 192.761 87.12 192.75L87.3928 193.955C87.3018 193.989 87.175 194.023 87.0121 194.057C86.8492 194.095 86.6428 194.114 86.3928 194.114C86.014 194.114 85.6428 194.032 85.2791 193.869C84.9193 193.706 84.62 193.458 84.3814 193.125C84.1465 192.792 84.0291 192.371 84.0291 191.864V183.182ZM89.2507 194V185.273H90.5462V186.591H90.6371C90.7962 186.159 91.084 185.809 91.5007 185.54C91.9174 185.271 92.3871 185.136 92.9098 185.136C93.0083 185.136 93.1314 185.138 93.2791 185.142C93.4268 185.146 93.5386 185.152 93.6143 185.159V186.523C93.5689 186.511 93.4647 186.494 93.3018 186.472C93.1428 186.445 92.9742 186.432 92.7962 186.432C92.3719 186.432 91.9931 186.521 91.6598 186.699C91.3303 186.873 91.0689 187.116 90.8757 187.426C90.6863 187.733 90.5916 188.083 90.5916 188.477V194H89.2507ZM95.2038 194V185.273H96.5447V194H95.2038ZM95.8857 183.818C95.6243 183.818 95.3989 183.729 95.2095 183.551C95.0239 183.373 94.9311 183.159 94.9311 182.909C94.9311 182.659 95.0239 182.445 95.2095 182.267C95.3989 182.089 95.6243 182 95.8857 182C96.147 182 96.3705 182.089 96.5561 182.267C96.7455 182.445 96.8402 182.659 96.8402 182.909C96.8402 183.159 96.7455 183.373 96.5561 183.551C96.3705 183.729 96.147 183.818 95.8857 183.818ZM102.66 194.182C101.819 194.182 101.094 193.996 100.484 193.625C99.8776 193.25 99.4098 192.727 99.0803 192.057C98.7545 191.383 98.5916 190.598 98.5916 189.705C98.5916 188.811 98.7545 188.023 99.0803 187.341C99.4098 186.655 99.8681 186.121 100.455 185.739C101.046 185.352 101.736 185.159 102.523 185.159C102.978 185.159 103.427 185.235 103.87 185.386C104.313 185.538 104.717 185.784 105.08 186.125C105.444 186.462 105.734 186.909 105.95 187.466C106.165 188.023 106.273 188.708 106.273 189.523V190.091H99.5462V188.932H104.91C104.91 188.439 104.811 188 104.614 187.614C104.421 187.227 104.145 186.922 103.785 186.699C103.429 186.475 103.008 186.364 102.523 186.364C101.989 186.364 101.527 186.496 101.137 186.761C100.751 187.023 100.453 187.364 100.245 187.784C100.037 188.205 99.9325 188.655 99.9325 189.136V189.909C99.9325 190.568 100.046 191.127 100.273 191.585C100.504 192.04 100.825 192.386 101.234 192.625C101.643 192.86 102.118 192.977 102.66 192.977C103.012 192.977 103.33 192.928 103.614 192.83C103.902 192.727 104.15 192.576 104.359 192.375C104.567 192.17 104.728 191.917 104.842 191.614L106.137 191.977C106.001 192.417 105.772 192.803 105.45 193.136C105.128 193.466 104.73 193.723 104.256 193.909C103.783 194.091 103.251 194.182 102.66 194.182ZM114.495 187.227L113.29 187.568C113.215 187.367 113.103 187.172 112.955 186.983C112.811 186.79 112.614 186.631 112.364 186.506C112.114 186.381 111.794 186.318 111.404 186.318C110.87 186.318 110.425 186.441 110.069 186.688C109.717 186.93 109.54 187.239 109.54 187.614C109.54 187.947 109.662 188.21 109.904 188.403C110.147 188.597 110.525 188.758 111.04 188.886L112.336 189.205C113.116 189.394 113.698 189.684 114.08 190.074C114.463 190.46 114.654 190.958 114.654 191.568C114.654 192.068 114.51 192.515 114.222 192.909C113.938 193.303 113.54 193.614 113.029 193.841C112.518 194.068 111.923 194.182 111.245 194.182C110.355 194.182 109.618 193.989 109.035 193.602C108.451 193.216 108.082 192.652 107.927 191.909L109.2 191.591C109.321 192.061 109.55 192.413 109.887 192.648C110.228 192.883 110.673 193 111.222 193C111.847 193 112.344 192.867 112.711 192.602C113.082 192.333 113.268 192.011 113.268 191.636C113.268 191.333 113.162 191.08 112.95 190.875C112.737 190.667 112.412 190.511 111.972 190.409L110.518 190.068C109.719 189.879 109.131 189.585 108.756 189.188C108.385 188.786 108.2 188.284 108.2 187.682C108.2 187.189 108.338 186.754 108.614 186.375C108.895 185.996 109.275 185.699 109.756 185.483C110.241 185.267 110.79 185.159 111.404 185.159C112.268 185.159 112.946 185.348 113.438 185.727C113.934 186.106 114.287 186.606 114.495 187.227ZM127.718 185.273C127.65 184.697 127.373 184.25 126.888 183.932C126.404 183.614 125.809 183.455 125.104 183.455C124.589 183.455 124.138 183.538 123.752 183.705C123.37 183.871 123.07 184.1 122.854 184.392C122.642 184.684 122.536 185.015 122.536 185.386C122.536 185.697 122.61 185.964 122.758 186.188C122.909 186.407 123.103 186.591 123.337 186.739C123.572 186.883 123.818 187.002 124.076 187.097C124.334 187.187 124.57 187.261 124.786 187.318L125.968 187.636C126.271 187.716 126.608 187.826 126.979 187.966C127.354 188.106 127.712 188.297 128.053 188.54C128.398 188.778 128.682 189.085 128.906 189.46C129.129 189.835 129.241 190.295 129.241 190.841C129.241 191.47 129.076 192.038 128.746 192.545C128.421 193.053 127.943 193.456 127.315 193.756C126.69 194.055 125.93 194.205 125.036 194.205C124.203 194.205 123.481 194.07 122.871 193.801C122.265 193.532 121.788 193.157 121.44 192.676C121.095 192.195 120.9 191.636 120.854 191H122.309C122.347 191.439 122.495 191.803 122.752 192.091C123.013 192.375 123.343 192.587 123.741 192.727C124.142 192.864 124.574 192.932 125.036 192.932C125.574 192.932 126.057 192.845 126.485 192.67C126.913 192.492 127.252 192.246 127.502 191.932C127.752 191.614 127.877 191.242 127.877 190.818C127.877 190.432 127.769 190.117 127.553 189.875C127.337 189.633 127.053 189.436 126.701 189.284C126.349 189.133 125.968 189 125.559 188.886L124.127 188.477C123.218 188.216 122.498 187.843 121.968 187.358C121.438 186.873 121.173 186.239 121.173 185.455C121.173 184.803 121.349 184.235 121.701 183.75C122.057 183.261 122.534 182.883 123.133 182.614C123.735 182.341 124.407 182.205 125.15 182.205C125.9 182.205 126.567 182.339 127.15 182.608C127.733 182.873 128.195 183.237 128.536 183.699C128.881 184.161 129.063 184.686 129.082 185.273H127.718ZM135.035 194.182C134.194 194.182 133.469 193.996 132.859 193.625C132.253 193.25 131.785 192.727 131.455 192.057C131.129 191.383 130.967 190.598 130.967 189.705C130.967 188.811 131.129 188.023 131.455 187.341C131.785 186.655 132.243 186.121 132.83 185.739C133.421 185.352 134.111 185.159 134.898 185.159C135.353 185.159 135.802 185.235 136.245 185.386C136.688 185.538 137.092 185.784 137.455 186.125C137.819 186.462 138.109 186.909 138.325 187.466C138.54 188.023 138.648 188.708 138.648 189.523V190.091H131.921V188.932H137.285C137.285 188.439 137.186 188 136.989 187.614C136.796 187.227 136.52 186.922 136.16 186.699C135.804 186.475 135.383 186.364 134.898 186.364C134.364 186.364 133.902 186.496 133.512 186.761C133.126 187.023 132.828 187.364 132.62 187.784C132.412 188.205 132.308 188.655 132.308 189.136V189.909C132.308 190.568 132.421 191.127 132.648 191.585C132.879 192.04 133.2 192.386 133.609 192.625C134.018 192.86 134.493 192.977 135.035 192.977C135.387 192.977 135.705 192.928 135.989 192.83C136.277 192.727 136.525 192.576 136.734 192.375C136.942 192.17 137.103 191.917 137.217 191.614L138.512 191.977C138.376 192.417 138.147 192.803 137.825 193.136C137.503 193.466 137.105 193.723 136.631 193.909C136.158 194.091 135.626 194.182 135.035 194.182ZM140.688 194V185.273H141.984V186.591H142.075C142.234 186.159 142.522 185.809 142.938 185.54C143.355 185.271 143.825 185.136 144.347 185.136C144.446 185.136 144.569 185.138 144.717 185.142C144.864 185.146 144.976 185.152 145.052 185.159V186.523C145.006 186.511 144.902 186.494 144.739 186.472C144.58 186.445 144.412 186.432 144.234 186.432C143.809 186.432 143.431 186.521 143.097 186.699C142.768 186.873 142.506 187.116 142.313 187.426C142.124 187.733 142.029 188.083 142.029 188.477V194H140.688ZM154.043 185.273L150.816 194H149.452L146.225 185.273H147.68L150.089 192.227H150.18L152.589 185.273H154.043ZM159.16 194.182C158.319 194.182 157.594 193.996 156.984 193.625C156.378 193.25 155.91 192.727 155.58 192.057C155.254 191.383 155.092 190.598 155.092 189.705C155.092 188.811 155.254 188.023 155.58 187.341C155.91 186.655 156.368 186.121 156.955 185.739C157.546 185.352 158.236 185.159 159.023 185.159C159.478 185.159 159.927 185.235 160.37 185.386C160.813 185.538 161.217 185.784 161.58 186.125C161.944 186.462 162.234 186.909 162.45 187.466C162.665 188.023 162.773 188.708 162.773 189.523V190.091H156.046V188.932H161.41C161.41 188.439 161.311 188 161.114 187.614C160.921 187.227 160.645 186.922 160.285 186.699C159.929 186.475 159.508 186.364 159.023 186.364C158.489 186.364 158.027 186.496 157.637 186.761C157.251 187.023 156.953 187.364 156.745 187.784C156.537 188.205 156.433 188.655 156.433 189.136V189.909C156.433 190.568 156.546 191.127 156.773 191.585C157.004 192.04 157.325 192.386 157.734 192.625C158.143 192.86 158.618 192.977 159.16 192.977C159.512 192.977 159.83 192.928 160.114 192.83C160.402 192.727 160.65 192.576 160.859 192.375C161.067 192.17 161.228 191.917 161.342 191.614L162.637 191.977C162.501 192.417 162.272 192.803 161.95 193.136C161.628 193.466 161.23 193.723 160.756 193.909C160.283 194.091 159.751 194.182 159.16 194.182ZM168.109 194.182C167.381 194.182 166.739 193.998 166.183 193.631C165.626 193.259 165.19 192.737 164.876 192.062C164.561 191.384 164.404 190.583 164.404 189.659C164.404 188.742 164.561 187.947 164.876 187.273C165.19 186.598 165.628 186.078 166.188 185.71C166.749 185.343 167.397 185.159 168.131 185.159C168.7 185.159 169.148 185.254 169.478 185.443C169.811 185.629 170.065 185.841 170.239 186.08C170.417 186.314 170.556 186.508 170.654 186.659H170.768V182.364H172.109V194H170.813V192.659H170.654C170.556 192.818 170.415 193.019 170.234 193.261C170.052 193.5 169.792 193.714 169.455 193.903C169.118 194.089 168.669 194.182 168.109 194.182ZM168.29 192.977C168.828 192.977 169.283 192.837 169.654 192.557C170.025 192.273 170.308 191.881 170.501 191.381C170.694 190.877 170.79 190.295 170.79 189.636C170.79 188.985 170.696 188.415 170.506 187.926C170.317 187.434 170.037 187.051 169.665 186.778C169.294 186.502 168.836 186.364 168.29 186.364C167.722 186.364 167.249 186.509 166.87 186.801C166.495 187.089 166.213 187.481 166.023 187.977C165.838 188.47 165.745 189.023 165.745 189.636C165.745 190.258 165.84 190.822 166.029 191.33C166.222 191.833 166.506 192.235 166.881 192.534C167.26 192.83 167.73 192.977 168.29 192.977ZM176.523 182.364L176.41 190.727H175.092L174.978 182.364H176.523ZM175.751 194.091C175.47 194.091 175.23 193.991 175.029 193.79C174.828 193.589 174.728 193.348 174.728 193.068C174.728 192.788 174.828 192.547 175.029 192.347C175.23 192.146 175.47 192.045 175.751 192.045C176.031 192.045 176.272 192.146 176.472 192.347C176.673 192.547 176.773 192.788 176.773 193.068C176.773 193.254 176.726 193.424 176.631 193.58C176.54 193.735 176.417 193.86 176.262 193.955C176.111 194.045 175.94 194.091 175.751 194.091Z" fill="#31393C"/>
<defs>
<filter id="filter0_d_1_1349" x="0" y="0" width="228" height="228" filterUnits="userSpaceOnUse" color-interpolation-filters="sRGB">
<feFlood flood-opacity="0" result="BackgroundImageFix"/>
<feColorMatrix in="SourceAlpha" type="matrix" values="0 0 0 0 0 0 0 0 0 0 0 0 0 0 0 0 0 0 127 0" result="hardAlpha"/>
<feOffset dx="4" dy="4"/>
<feGaussianBlur stdDeviation="2"/>
<feComposite in2="hardAlpha" operator="out"/>
<feColorMatrix type="matrix" values="0 0 0 0 0.243137 0 0 0 0 0.588235 0 0 0 0 0.956863 0 0 0 0.15 0"/>
<feBlend mode="normal" in2="BackgroundImageFix" result="effect1_dropShadow_1_1349"/>
<feBlend mode="normal" in="SourceGraphic" in2="effect1_dropShadow_1_1349" result="shape"/>
</filter>
<linearGradient id="paint0_linear_1_1349" x1="0" y1="0" x2="220" y2="220" gradientUnits="userSpaceOnUse">
<stop stop-color="#ECF5FF"/>
<stop offset="1" stop-color="white"/>
</linearGradient>
<linearGradient id="paint1_linear_1_1349" x1="80.1627" y1="45.356" x2="134.693" y2="84.1671" gradientUnits="userSpaceOnUse">
<stop stop-color="#9FCEFF"/>
<stop offset="1" stop-color="#E7F2FF"/>
</linearGradient>
</defs>
</svg>
