<svg width="228" height="228" viewBox="0 0 228 228" fill="none" xmlns="http://www.w3.org/2000/svg">
<g filter="url(#filter0_d_1_1375)">
<rect width="220" height="220" rx="10" fill="url(#paint0_linear_1_1375)"/>
<rect x="1" y="1" width="218" height="218" rx="9" stroke="white" stroke-width="2"/>
</g>
<path d="M125.219 168H94.5625V161.281L105.312 149.688C106.667 148.229 107.896 146.885 109 145.656C110.104 144.427 111.052 143.229 111.844 142.062C112.635 140.896 113.25 139.708 113.688 138.5C114.125 137.292 114.344 135.99 114.344 134.594C114.344 133.052 113.875 131.854 112.938 131C112.021 130.146 110.781 129.719 109.219 129.719C107.573 129.719 105.99 130.125 104.469 130.938C102.948 131.75 101.354 132.906 99.6875 134.406L94.4375 128.188C95.375 127.333 96.3542 126.521 97.375 125.75C98.3958 124.958 99.5208 124.26 100.75 123.656C101.979 123.052 103.333 122.573 104.812 122.219C106.292 121.844 107.948 121.656 109.781 121.656C111.969 121.656 113.927 121.958 115.656 122.562C117.406 123.167 118.896 124.031 120.125 125.156C121.354 126.26 122.292 127.604 122.938 129.188C123.604 130.771 123.938 132.552 123.938 134.531C123.938 136.323 123.625 138.042 123 139.688C122.375 141.312 121.521 142.917 120.438 144.5C119.354 146.062 118.094 147.625 116.656 149.188C115.24 150.729 113.719 152.302 112.094 153.906L106.594 159.438V159.875H125.219V168Z" fill="#31393C"/>
<path d="M71.7649 194L68.5831 182.364H70.0149L72.4467 191.841H72.5604L75.0376 182.364H76.6286L79.1058 191.841H79.2195L81.6513 182.364H83.0831L79.9013 194H78.4467L75.8786 184.727H75.7876L73.2195 194H71.7649ZM87.3899 194.182C86.602 194.182 85.9107 193.994 85.3161 193.619C84.7251 193.244 84.263 192.72 83.9297 192.045C83.6001 191.371 83.4354 190.583 83.4354 189.682C83.4354 188.773 83.6001 187.979 83.9297 187.301C84.263 186.623 84.7251 186.097 85.3161 185.722C85.9107 185.347 86.602 185.159 87.3899 185.159C88.1778 185.159 88.8672 185.347 89.4581 185.722C90.0528 186.097 90.5149 186.623 90.8445 187.301C91.1778 187.979 91.3445 188.773 91.3445 189.682C91.3445 190.583 91.1778 191.371 90.8445 192.045C90.5149 192.72 90.0528 193.244 89.4581 193.619C88.8672 193.994 88.1778 194.182 87.3899 194.182ZM87.3899 192.977C87.9884 192.977 88.4808 192.824 88.8672 192.517C89.2536 192.21 89.5395 191.807 89.7251 191.307C89.9107 190.807 90.0036 190.265 90.0036 189.682C90.0036 189.098 89.9107 188.555 89.7251 188.051C89.5395 187.547 89.2536 187.14 88.8672 186.83C88.4808 186.519 87.9884 186.364 87.3899 186.364C86.7914 186.364 86.299 186.519 85.9126 186.83C85.5263 187.14 85.2403 187.547 85.0547 188.051C84.8691 188.555 84.7763 189.098 84.7763 189.682C84.7763 190.265 84.8691 190.807 85.0547 191.307C85.2403 191.807 85.5263 192.21 85.9126 192.517C86.299 192.824 86.7914 192.977 87.3899 192.977ZM93.3913 194V185.273H94.6868V186.591H94.7777C94.9368 186.159 95.2247 185.809 95.6413 185.54C96.058 185.271 96.5277 185.136 97.0504 185.136C97.1489 185.136 97.272 185.138 97.4197 185.142C97.5675 185.146 97.6792 185.152 97.755 185.159V186.523C97.7095 186.511 97.6054 186.494 97.4425 186.472C97.2834 186.445 97.1148 186.432 96.9368 186.432C96.5125 186.432 96.1338 186.521 95.8004 186.699C95.4709 186.873 95.2095 187.116 95.0163 187.426C94.8269 187.733 94.7322 188.083 94.7322 188.477V194H93.3913ZM100.594 190.818L100.572 189.159H100.844L104.663 185.273H106.322L102.254 189.386H102.14L100.594 190.818ZM99.3445 194V182.364H100.685V194H99.3445ZM104.89 194L101.481 189.682L102.435 188.75L106.594 194H104.89ZM112.729 194V182.364H114.138V187.545H120.343V182.364H121.752V194H120.343V188.795H114.138V194H112.729ZM129.891 190.432V185.273H131.232V194H129.891V192.523H129.8C129.596 192.966 129.278 193.343 128.846 193.653C128.414 193.96 127.869 194.114 127.21 194.114C126.664 194.114 126.179 193.994 125.755 193.756C125.331 193.513 124.997 193.15 124.755 192.665C124.513 192.176 124.391 191.561 124.391 190.818V185.273H125.732V190.727C125.732 191.364 125.91 191.871 126.266 192.25C126.626 192.629 127.085 192.818 127.641 192.818C127.975 192.818 128.314 192.733 128.658 192.562C129.007 192.392 129.299 192.131 129.533 191.778C129.772 191.426 129.891 190.977 129.891 190.432ZM133.87 194V182.364H135.211V186.659H135.325C135.423 186.508 135.559 186.314 135.734 186.08C135.912 185.841 136.165 185.629 136.495 185.443C136.828 185.254 137.279 185.159 137.847 185.159C138.582 185.159 139.23 185.343 139.79 185.71C140.351 186.078 140.789 186.598 141.103 187.273C141.417 187.947 141.575 188.742 141.575 189.659C141.575 190.583 141.417 191.384 141.103 192.062C140.789 192.737 140.353 193.259 139.796 193.631C139.239 193.998 138.597 194.182 137.87 194.182C137.309 194.182 136.861 194.089 136.523 193.903C136.186 193.714 135.927 193.5 135.745 193.261C135.563 193.019 135.423 192.818 135.325 192.659H135.165V194H133.87ZM135.188 189.636C135.188 190.295 135.285 190.877 135.478 191.381C135.671 191.881 135.953 192.273 136.325 192.557C136.696 192.837 137.15 192.977 137.688 192.977C138.249 192.977 138.717 192.83 139.092 192.534C139.47 192.235 139.754 191.833 139.944 191.33C140.137 190.822 140.234 190.258 140.234 189.636C140.234 189.023 140.139 188.47 139.95 187.977C139.764 187.481 139.482 187.089 139.103 186.801C138.728 186.509 138.256 186.364 137.688 186.364C137.143 186.364 136.684 186.502 136.313 186.778C135.942 187.051 135.662 187.434 135.472 187.926C135.283 188.415 135.188 188.985 135.188 189.636ZM149.808 187.227L148.603 187.568C148.527 187.367 148.415 187.172 148.268 186.983C148.124 186.79 147.927 186.631 147.677 186.506C147.427 186.381 147.107 186.318 146.717 186.318C146.183 186.318 145.737 186.441 145.381 186.688C145.029 186.93 144.853 187.239 144.853 187.614C144.853 187.947 144.974 188.21 145.217 188.403C145.459 188.597 145.838 188.758 146.353 188.886L147.648 189.205C148.429 189.394 149.01 189.684 149.393 190.074C149.775 190.46 149.967 190.958 149.967 191.568C149.967 192.068 149.823 192.515 149.535 192.909C149.251 193.303 148.853 193.614 148.342 193.841C147.83 194.068 147.236 194.182 146.558 194.182C145.667 194.182 144.931 193.989 144.347 193.602C143.764 193.216 143.395 192.652 143.239 191.909L144.512 191.591C144.633 192.061 144.862 192.413 145.2 192.648C145.54 192.883 145.986 193 146.535 193C147.16 193 147.656 192.867 148.023 192.602C148.395 192.333 148.58 192.011 148.58 191.636C148.58 191.333 148.474 191.08 148.262 190.875C148.05 190.667 147.724 190.511 147.285 190.409L145.83 190.068C145.031 189.879 144.444 189.585 144.069 189.188C143.698 188.786 143.512 188.284 143.512 187.682C143.512 187.189 143.65 186.754 143.927 186.375C144.207 185.996 144.588 185.699 145.069 185.483C145.554 185.267 146.103 185.159 146.717 185.159C147.58 185.159 148.258 185.348 148.751 185.727C149.247 186.106 149.599 186.606 149.808 187.227Z" fill="#31393C"/>
<path d="M98.25 38.94V31C98.3131 30.1821 98.6832 29.4183 99.2859 28.8619C99.8887 28.3055 100.68 27.9976 101.5 28C102.268 27.9271 102.981 27.5705 103.5 27C103.788 26.4385 104.215 25.9599 104.74 25.6099C105.265 25.2598 105.871 25.0499 106.5 25H115.5C115.5 25 121.5 25 121.5 32V38.58" fill="#31393C"/>
<path d="M98.25 38.94V31C98.3131 30.1821 98.6832 29.4183 99.2859 28.8619C99.8887 28.3055 100.68 27.9976 101.5 28C102.268 27.9271 102.981 27.5705 103.5 27C103.788 26.4385 104.215 25.9599 104.74 25.6099C105.265 25.2598 105.871 25.0499 106.5 25H115.5C115.5 25 121.5 25 121.5 32V38.58" stroke="#3E96F4" stroke-width="2" stroke-miterlimit="10"/>
<path d="M82 85.5H100.5H132.5H139L139.5 83.5L139 82L137 81.5H132.5L135 78.5L136.5 76.5L135.5 72L133.5 65L131.5 61L129 59.5L126 58.5L124 57.5H120.5L117 57L116 55L115 53L117 51.5L119 47.5L120.5 45L122 44.5L123 43.5L123.5 42V40.5L122.5 39L120.5 38.5H118.5L118 36.5L117.5 34L117 33.5H115L110.5 34.5L107 34L104 33.5L102.5 34L102 36L101 38L100 38.5L98 39L97 40L96.5 42.5L98.5 44.5L100 45.5L101.5 49.5L104.5 53V54.5L102.5 57.5H98L94 59L91.5 59.5L87 64L84.5 73L83.5 76L86 79.5L87.5 81.5H86H81.5L80.5 82.5V84L82 85.5Z" fill="url(#paint1_linear_1_1375)"/>
<path d="M138 81.5H82C80.8954 81.5 80 82.3954 80 83.5C80 84.6046 80.8954 85.5 82 85.5H138C139.105 85.5 140 84.6046 140 83.5C140 82.3954 139.105 81.5 138 81.5Z" fill="#31393C"/>
<path d="M138 81.5H82C80.8954 81.5 80 82.3954 80 83.5C80 84.6046 80.8954 85.5 82 85.5H138C139.105 85.5 140 84.6046 140 83.5C140 82.3954 139.105 81.5 138 81.5Z" stroke="#3E96F4" stroke-width="2" stroke-miterlimit="10"/>
<path d="M128 77.5H92C90.8954 77.5 90 78.3954 90 79.5C90 80.6046 90.8954 81.5 92 81.5H128C129.105 81.5 130 80.6046 130 79.5C130 78.3954 129.105 77.5 128 77.5Z" stroke="#3E96F4" stroke-width="2" stroke-miterlimit="10"/>
<rect x="94" y="58" width="32" height="20" fill="url(#paint2_linear_1_1375)"/>
<path d="M96.65 57.5H123.35C124.053 57.5 124.727 57.7792 125.224 58.2762C125.721 58.7731 126 59.4472 126 60.15V77.32C126 77.3677 125.981 77.4135 125.947 77.4473C125.914 77.481 125.868 77.5 125.82 77.5H94.18C94.1323 77.5 94.0865 77.481 94.0527 77.4473C94.019 77.4135 94 77.3677 94 77.32V60.15C94 59.4472 94.2792 58.7731 94.7762 58.2762C95.2731 57.7792 95.9472 57.5 96.65 57.5Z" stroke="#3E96F4" stroke-width="2" stroke-miterlimit="10"/>
<path d="M110 70C111.381 70 112.5 68.8807 112.5 67.5C112.5 66.1193 111.381 65 110 65C108.619 65 107.5 66.1193 107.5 67.5C107.5 68.8807 108.619 70 110 70Z" fill="#31393C"/>
<path d="M87.8301 81.5L84.0001 77.5C84.0001 77.5 83.0001 76.5 84.0001 72.5C84.8316 69.4464 85.8332 66.4418 87.0001 63.5C87.6702 62.0698 88.7265 60.8551 90.0499 59.9929C91.3732 59.1306 92.911 58.6552 94.4901 58.62" stroke="#3E96F4" stroke-width="2" stroke-miterlimit="10"/>
<path d="M132.22 81.5L136.05 77.5C136.05 77.5 137.05 76.5 136.05 72.5C135.219 69.4464 134.217 66.4418 133.05 63.5C132.378 62.0712 131.321 60.8578 129.998 59.9958C128.675 59.1339 127.139 58.6575 125.56 58.62" stroke="#3E96F4" stroke-width="2" stroke-miterlimit="10"/>
<path d="M110 54.4999C107.348 54.4999 104.804 53.4463 102.929 51.571C101.054 49.6956 100 47.1521 100 44.4999V39.0699C100 39.0699 102 39.4999 102 35.4999C102 31.4999 105 34.4999 110 34.4999C115 34.4999 118 31.4999 118 35.4999C118 39.4999 120 38.9899 120 38.9899V44.4999C120 47.1521 118.946 49.6956 117.071 51.571C115.196 53.4463 112.652 54.4999 110 54.4999Z" stroke="#3E96F4" stroke-width="2" stroke-miterlimit="10"/>
<path d="M100 44.9999C99.1058 45.0297 98.2361 44.7048 97.5804 44.096C96.9248 43.4872 96.5365 42.6439 96.5 41.7499C96.5365 40.856 96.9248 40.0127 97.5804 39.4039C98.2361 38.7951 99.1058 38.4702 100 38.4999V44.9999Z" stroke="#3E96F4" stroke-width="2" stroke-miterlimit="10"/>
<path d="M120.5 44.9999C121.394 45.0297 122.264 44.7048 122.92 44.096C123.575 43.4872 123.964 42.6439 124 41.7499C123.964 40.856 123.575 40.0127 122.92 39.4039C122.264 38.7951 121.394 38.4702 120.5 38.4999V44.9999Z" stroke="#3E96F4" stroke-width="2" stroke-miterlimit="10"/>
<path d="M98.25 38.94V31C98.3131 30.1821 98.6832 29.4183 99.2859 28.8619C99.8887 28.3055 100.68 27.9976 101.5 28C102.268 27.9271 102.981 27.5705 103.5 27C103.788 26.4385 104.215 25.9599 104.74 25.6099C105.265 25.2598 105.871 25.0499 106.5 25H115.5C115.5 25 121.5 25 121.5 32V38.58" stroke="#3E96F4" stroke-width="2" stroke-miterlimit="10"/>
<path d="M101.38 57.5001C102.336 57.1687 103.157 56.532 103.715 55.688C104.274 54.844 104.539 53.8397 104.47 52.8301" stroke="#3E96F4" stroke-width="2" stroke-miterlimit="10"/>
<path d="M118.47 57.5001C117.515 57.1673 116.695 56.5302 116.137 55.6866C115.578 54.843 115.313 53.8394 115.38 52.8301" stroke="#3E96F4" stroke-width="2" stroke-miterlimit="10"/>
<defs>
<filter id="filter0_d_1_1375" x="0" y="0" width="228" height="228" filterUnits="userSpaceOnUse" color-interpolation-filters="sRGB">
<feFlood flood-opacity="0" result="BackgroundImageFix"/>
<feColorMatrix in="SourceAlpha" type="matrix" values="0 0 0 0 0 0 0 0 0 0 0 0 0 0 0 0 0 0 127 0" result="hardAlpha"/>
<feOffset dx="4" dy="4"/>
<feGaussianBlur stdDeviation="2"/>
<feComposite in2="hardAlpha" operator="out"/>
<feColorMatrix type="matrix" values="0 0 0 0 0.243137 0 0 0 0 0.588235 0 0 0 0 0.956863 0 0 0 0.15 0"/>
<feBlend mode="normal" in2="BackgroundImageFix" result="effect1_dropShadow_1_1375"/>
<feBlend mode="normal" in="SourceGraphic" in2="effect1_dropShadow_1_1375" result="shape"/>
</filter>
<linearGradient id="paint0_linear_1_1375" x1="0" y1="0" x2="220" y2="220" gradientUnits="userSpaceOnUse">
<stop stop-color="#ECF5FF"/>
<stop offset="1" stop-color="white"/>
</linearGradient>
<linearGradient id="paint1_linear_1_1375" x1="80.5" y1="39.9142" x2="143.999" y2="77.8801" gradientUnits="userSpaceOnUse">
<stop stop-color="#9FCEFF"/>
<stop offset="1" stop-color="#E7F2FF"/>
</linearGradient>
<linearGradient id="paint2_linear_1_1375" x1="110" y1="58" x2="110" y2="78" gradientUnits="userSpaceOnUse">
<stop stop-color="#C2E0FF"/>
<stop offset="0.734375" stop-color="#70B5FF"/>
</linearGradient>
</defs>
</svg>
