<svg width="228" height="228" viewBox="0 0 228 228" fill="none" xmlns="http://www.w3.org/2000/svg">
<g filter="url(#filter0_d_1_1335)">
<rect width="220" height="220" rx="10" fill="url(#paint0_linear_1_1335)"/>
<rect x="1" y="1" width="218" height="218" rx="9" stroke="white" stroke-width="2"/>
</g>
<path d="M77.6875 138.812C79.6458 138.812 81.4688 139.115 83.1562 139.719C84.8438 140.323 86.3125 141.208 87.5625 142.375C88.8125 143.542 89.7917 145 90.5 146.75C91.2083 148.479 91.5625 150.469 91.5625 152.719C91.5625 155.198 91.1771 157.427 90.4062 159.406C89.6354 161.365 88.5 163.031 87 164.406C85.5 165.76 83.6354 166.802 81.4062 167.531C79.1979 168.26 76.6562 168.625 73.7812 168.625C72.6354 168.625 71.5 168.573 70.375 168.469C69.25 168.365 68.1667 168.208 67.125 168C66.1042 167.812 65.125 167.562 64.1875 167.25C63.2708 166.938 62.4375 166.573 61.6875 166.156V157.812C62.4167 158.229 63.2604 158.625 64.2188 159C65.1771 159.354 66.1667 159.667 67.1875 159.938C68.2292 160.188 69.2708 160.396 70.3125 160.562C71.3542 160.708 72.3438 160.781 73.2812 160.781C76.0729 160.781 78.1979 160.208 79.6562 159.062C81.1146 157.896 81.8438 156.052 81.8438 153.531C81.8438 151.281 81.125 149.573 79.6875 148.406C78.2708 147.219 76.0729 146.625 73.0938 146.625C72.5521 146.625 71.9688 146.656 71.3438 146.719C70.7396 146.781 70.1354 146.865 69.5312 146.969C68.9479 147.073 68.3854 147.188 67.8438 147.312C67.3021 147.417 66.8333 147.531 66.4375 147.656L62.5938 145.594L64.3125 122.312H88.4375V130.5H72.6875L71.9375 139.469C72.6042 139.323 73.375 139.177 74.25 139.031C75.1458 138.885 76.2917 138.812 77.6875 138.812ZM124.971 145.156C124.971 148.844 124.68 152.135 124.096 155.031C123.534 157.927 122.617 160.385 121.346 162.406C120.096 164.427 118.471 165.969 116.471 167.031C114.492 168.094 112.096 168.625 109.284 168.625C106.638 168.625 104.336 168.094 102.377 167.031C100.419 165.969 98.7942 164.427 97.5025 162.406C96.2108 160.385 95.2421 157.927 94.5962 155.031C93.9712 152.135 93.6587 148.844 93.6587 145.156C93.6587 141.469 93.94 138.167 94.5025 135.25C95.0858 132.333 96.0025 129.865 97.2525 127.844C98.5025 125.823 100.117 124.281 102.096 123.219C104.075 122.135 106.471 121.594 109.284 121.594C111.909 121.594 114.2 122.125 116.159 123.188C118.117 124.25 119.752 125.792 121.065 127.812C122.377 129.833 123.357 132.302 124.002 135.219C124.648 138.135 124.971 141.448 124.971 145.156ZM103.284 145.156C103.284 150.365 103.732 154.281 104.627 156.906C105.523 159.531 107.075 160.844 109.284 160.844C111.45 160.844 113.002 159.542 113.94 156.938C114.898 154.333 115.377 150.406 115.377 145.156C115.377 139.927 114.898 136 113.94 133.375C113.002 130.729 111.45 129.406 109.284 129.406C108.18 129.406 107.242 129.74 106.471 130.406C105.721 131.073 105.107 132.062 104.627 133.375C104.148 134.688 103.805 136.333 103.596 138.312C103.388 140.271 103.284 142.552 103.284 145.156ZM139.224 150.75H127.755V143.906H139.224V132.375H146.067V143.906H157.505V150.75H146.067V162.125H139.224V150.75Z" fill="#31393C"/>
<path d="M54.0391 198H50.4482V186.364H54.1982C55.3269 186.364 56.2929 186.597 57.0959 187.062C57.8989 187.525 58.5144 188.189 58.9425 189.057C59.3705 189.92 59.5845 190.955 59.5845 192.159C59.5845 193.371 59.3686 194.415 58.9368 195.29C58.505 196.161 57.8762 196.831 57.0504 197.301C56.2247 197.767 55.2209 198 54.0391 198ZM51.8572 196.75H53.9482C54.9103 196.75 55.7076 196.564 56.3402 196.193C56.9728 195.822 57.4444 195.294 57.755 194.608C58.0656 193.922 58.2209 193.106 58.2209 192.159C58.2209 191.22 58.0675 190.411 57.7607 189.733C57.4538 189.051 56.9955 188.528 56.3857 188.165C55.7758 187.797 55.0163 187.614 54.1072 187.614H51.8572V196.75ZM65.4254 198.182C64.5845 198.182 63.8591 197.996 63.2493 197.625C62.6432 197.25 62.1754 196.727 61.8459 196.057C61.5201 195.383 61.3572 194.598 61.3572 193.705C61.3572 192.811 61.5201 192.023 61.8459 191.341C62.1754 190.655 62.6338 190.121 63.2209 189.739C63.8118 189.352 64.5012 189.159 65.2891 189.159C65.7436 189.159 66.1925 189.235 66.6357 189.386C67.0788 189.538 67.4822 189.784 67.8459 190.125C68.2095 190.462 68.4993 190.909 68.7152 191.466C68.9311 192.023 69.0391 192.708 69.0391 193.523V194.091H62.3118V192.932H67.6754C67.6754 192.439 67.5769 192 67.38 191.614C67.1868 191.227 66.9103 190.922 66.5504 190.699C66.1944 190.475 65.7739 190.364 65.2891 190.364C64.755 190.364 64.2929 190.496 63.9027 190.761C63.5163 191.023 63.219 191.364 63.0107 191.784C62.8023 192.205 62.6982 192.655 62.6982 193.136V193.909C62.6982 194.568 62.8118 195.127 63.0391 195.585C63.2701 196.04 63.5902 196.386 63.9993 196.625C64.4084 196.86 64.8838 196.977 65.4254 196.977C65.7777 196.977 66.0959 196.928 66.38 196.83C66.6679 196.727 66.916 196.576 67.1243 196.375C67.3326 196.17 67.4936 195.917 67.6072 195.614L68.9027 195.977C68.7663 196.417 68.5372 196.803 68.2152 197.136C67.8932 197.466 67.4955 197.723 67.022 197.909C66.5485 198.091 66.0163 198.182 65.4254 198.182ZM74.3743 198.182C73.647 198.182 73.005 197.998 72.4482 197.631C71.8913 197.259 71.4557 196.737 71.1413 196.062C70.8269 195.384 70.6697 194.583 70.6697 193.659C70.6697 192.742 70.8269 191.947 71.1413 191.273C71.4557 190.598 71.8932 190.078 72.4538 189.71C73.0144 189.343 73.6622 189.159 74.397 189.159C74.9652 189.159 75.4141 189.254 75.7436 189.443C76.0769 189.629 76.3307 189.841 76.505 190.08C76.683 190.314 76.8213 190.508 76.9197 190.659H77.0334V186.364H78.3743V198H77.0788V196.659H76.9197C76.8213 196.818 76.6811 197.019 76.4993 197.261C76.3175 197.5 76.058 197.714 75.7209 197.903C75.3838 198.089 74.9349 198.182 74.3743 198.182ZM74.5561 196.977C75.094 196.977 75.5485 196.837 75.9197 196.557C76.291 196.273 76.5732 195.881 76.7663 195.381C76.9595 194.877 77.0561 194.295 77.0561 193.636C77.0561 192.985 76.9614 192.415 76.772 191.926C76.5826 191.434 76.3023 191.051 75.9311 190.778C75.5599 190.502 75.1016 190.364 74.5561 190.364C73.9879 190.364 73.5144 190.509 73.1357 190.801C72.7607 191.089 72.4785 191.481 72.2891 191.977C72.1035 192.47 72.0107 193.023 72.0107 193.636C72.0107 194.258 72.1054 194.822 72.2947 195.33C72.4879 195.833 72.772 196.235 73.147 196.534C73.5258 196.83 73.9955 196.977 74.5561 196.977ZM81.0163 198V189.273H82.3572V198H81.0163ZM81.6982 187.818C81.4368 187.818 81.2114 187.729 81.022 187.551C80.8364 187.373 80.7436 187.159 80.7436 186.909C80.7436 186.659 80.8364 186.445 81.022 186.267C81.2114 186.089 81.4368 186 81.6982 186C81.9595 186 82.183 186.089 82.3686 186.267C82.558 186.445 82.6527 186.659 82.6527 186.909C82.6527 187.159 82.558 187.373 82.3686 187.551C82.183 187.729 81.9595 187.818 81.6982 187.818ZM88.3587 198.182C87.5405 198.182 86.8359 197.989 86.245 197.602C85.6541 197.216 85.1996 196.684 84.8814 196.006C84.5632 195.328 84.4041 194.553 84.4041 193.682C84.4041 192.795 84.567 192.013 84.8928 191.335C85.2223 190.653 85.6806 190.121 86.2678 189.739C86.8587 189.352 87.5481 189.159 88.3359 189.159C88.9496 189.159 89.5026 189.273 89.995 189.5C90.4875 189.727 90.8909 190.045 91.2053 190.455C91.5196 190.864 91.7147 191.341 91.7905 191.886H90.4496C90.3473 191.489 90.12 191.136 89.7678 190.83C89.4193 190.519 88.9496 190.364 88.3587 190.364C87.8359 190.364 87.3776 190.5 86.9837 190.773C86.5935 191.042 86.2886 191.422 86.0689 191.915C85.853 192.403 85.745 192.977 85.745 193.636C85.745 194.311 85.8511 194.898 86.0632 195.398C86.2791 195.898 86.5821 196.286 86.9723 196.562C87.3662 196.839 87.8284 196.977 88.3587 196.977C88.7071 196.977 89.0234 196.917 89.3075 196.795C89.5916 196.674 89.8321 196.5 90.0291 196.273C90.2261 196.045 90.3662 195.773 90.4496 195.455H91.7905C91.7147 195.97 91.5272 196.434 91.228 196.847C90.9325 197.256 90.5405 197.581 90.0518 197.824C89.567 198.062 89.0026 198.182 88.3587 198.182ZM96.3189 198.205C95.7659 198.205 95.264 198.1 94.8132 197.892C94.3625 197.68 94.0045 197.375 93.7393 196.977C93.4742 196.576 93.3416 196.091 93.3416 195.523C93.3416 195.023 93.4401 194.617 93.6371 194.307C93.834 193.992 94.0973 193.746 94.4268 193.568C94.7564 193.39 95.12 193.258 95.5178 193.17C95.9193 193.08 96.3227 193.008 96.728 192.955C97.2583 192.886 97.6882 192.835 98.0178 192.801C98.3511 192.763 98.5935 192.701 98.745 192.614C98.9003 192.527 98.978 192.375 98.978 192.159V192.114C98.978 191.553 98.8246 191.117 98.5178 190.807C98.2147 190.496 97.7545 190.341 97.1371 190.341C96.4969 190.341 95.995 190.481 95.6314 190.761C95.2678 191.042 95.0121 191.341 94.8643 191.659L93.5916 191.205C93.8189 190.674 94.1219 190.261 94.5007 189.966C94.8833 189.667 95.3 189.458 95.7507 189.341C96.2053 189.22 96.6522 189.159 97.0916 189.159C97.3719 189.159 97.6939 189.193 98.0575 189.261C98.425 189.326 98.7791 189.46 99.12 189.665C99.4647 189.869 99.7507 190.178 99.978 190.591C100.205 191.004 100.319 191.557 100.319 192.25V198H98.978V196.818H98.9098C98.8189 197.008 98.6674 197.21 98.4553 197.426C98.2431 197.642 97.9609 197.826 97.6087 197.977C97.2564 198.129 96.8265 198.205 96.3189 198.205ZM96.5234 197C97.0537 197 97.5007 196.896 97.8643 196.688C98.2318 196.479 98.5083 196.21 98.6939 195.881C98.8833 195.551 98.978 195.205 98.978 194.841V193.614C98.9212 193.682 98.7962 193.744 98.603 193.801C98.4136 193.854 98.1939 193.902 97.9439 193.943C97.6977 193.981 97.4571 194.015 97.2223 194.045C96.9912 194.072 96.8037 194.095 96.6598 194.114C96.3113 194.159 95.9856 194.233 95.6825 194.335C95.3833 194.434 95.1409 194.583 94.9553 194.784C94.7734 194.981 94.6825 195.25 94.6825 195.591C94.6825 196.057 94.8549 196.409 95.1996 196.648C95.5481 196.883 95.9893 197 96.5234 197ZM106.562 189.273V190.409H102.039V189.273H106.562ZM103.357 187.182H104.698V195.5C104.698 195.879 104.753 196.163 104.863 196.352C104.977 196.538 105.121 196.663 105.295 196.727C105.473 196.788 105.66 196.818 105.857 196.818C106.005 196.818 106.126 196.811 106.221 196.795C106.316 196.777 106.391 196.761 106.448 196.75L106.721 197.955C106.63 197.989 106.503 198.023 106.34 198.057C106.177 198.095 105.971 198.114 105.721 198.114C105.342 198.114 104.971 198.032 104.607 197.869C104.247 197.706 103.948 197.458 103.71 197.125C103.475 196.792 103.357 196.371 103.357 195.864V187.182ZM112.144 198.182C111.303 198.182 110.578 197.996 109.968 197.625C109.362 197.25 108.894 196.727 108.565 196.057C108.239 195.383 108.076 194.598 108.076 193.705C108.076 192.811 108.239 192.023 108.565 191.341C108.894 190.655 109.353 190.121 109.94 189.739C110.531 189.352 111.22 189.159 112.008 189.159C112.462 189.159 112.911 189.235 113.354 189.386C113.798 189.538 114.201 189.784 114.565 190.125C114.928 190.462 115.218 190.909 115.434 191.466C115.65 192.023 115.758 192.708 115.758 193.523V194.091H109.031V192.932H114.394C114.394 192.439 114.296 192 114.099 191.614C113.906 191.227 113.629 190.922 113.269 190.699C112.913 190.475 112.493 190.364 112.008 190.364C111.474 190.364 111.012 190.496 110.621 190.761C110.235 191.023 109.938 191.364 109.729 191.784C109.521 192.205 109.417 192.655 109.417 193.136V193.909C109.417 194.568 109.531 195.127 109.758 195.585C109.989 196.04 110.309 196.386 110.718 196.625C111.127 196.86 111.603 196.977 112.144 196.977C112.496 196.977 112.815 196.928 113.099 196.83C113.387 196.727 113.635 196.576 113.843 196.375C114.051 196.17 114.212 195.917 114.326 195.614L115.621 195.977C115.485 196.417 115.256 196.803 114.934 197.136C114.612 197.466 114.214 197.723 113.741 197.909C113.267 198.091 112.735 198.182 112.144 198.182ZM121.093 198.182C120.366 198.182 119.724 197.998 119.167 197.631C118.61 197.259 118.174 196.737 117.86 196.062C117.546 195.384 117.388 194.583 117.388 193.659C117.388 192.742 117.546 191.947 117.86 191.273C118.174 190.598 118.612 190.078 119.173 189.71C119.733 189.343 120.381 189.159 121.116 189.159C121.684 189.159 122.133 189.254 122.462 189.443C122.796 189.629 123.049 189.841 123.224 190.08C123.402 190.314 123.54 190.508 123.638 190.659H123.752V186.364H125.093V198H123.798V196.659H123.638C123.54 196.818 123.4 197.019 123.218 197.261C123.036 197.5 122.777 197.714 122.44 197.903C122.103 198.089 121.654 198.182 121.093 198.182ZM121.275 196.977C121.813 196.977 122.267 196.837 122.638 196.557C123.01 196.273 123.292 195.881 123.485 195.381C123.678 194.877 123.775 194.295 123.775 193.636C123.775 192.985 123.68 192.415 123.491 191.926C123.301 191.434 123.021 191.051 122.65 190.778C122.279 190.502 121.82 190.364 121.275 190.364C120.707 190.364 120.233 190.509 119.854 190.801C119.479 191.089 119.197 191.481 119.008 191.977C118.822 192.47 118.729 193.023 118.729 193.636C118.729 194.258 118.824 194.822 119.013 195.33C119.207 195.833 119.491 196.235 119.866 196.534C120.245 196.83 120.714 196.977 121.275 196.977ZM136.031 189.273V190.409H131.508V189.273H136.031ZM132.826 187.182H134.167V195.5C134.167 195.879 134.222 196.163 134.332 196.352C134.445 196.538 134.589 196.663 134.763 196.727C134.942 196.788 135.129 196.818 135.326 196.818C135.474 196.818 135.595 196.811 135.69 196.795C135.784 196.777 135.86 196.761 135.917 196.75L136.19 197.955C136.099 197.989 135.972 198.023 135.809 198.057C135.646 198.095 135.44 198.114 135.19 198.114C134.811 198.114 134.44 198.032 134.076 197.869C133.716 197.706 133.417 197.458 133.178 197.125C132.943 196.792 132.826 196.371 132.826 195.864V187.182ZM141.613 198.182C140.772 198.182 140.047 197.996 139.437 197.625C138.831 197.25 138.363 196.727 138.033 196.057C137.708 195.383 137.545 194.598 137.545 193.705C137.545 192.811 137.708 192.023 138.033 191.341C138.363 190.655 138.821 190.121 139.408 189.739C139.999 189.352 140.689 189.159 141.477 189.159C141.931 189.159 142.38 189.235 142.823 189.386C143.266 189.538 143.67 189.784 144.033 190.125C144.397 190.462 144.687 190.909 144.903 191.466C145.119 192.023 145.227 192.708 145.227 193.523V194.091H138.499V192.932H143.863C143.863 192.439 143.764 192 143.567 191.614C143.374 191.227 143.098 190.922 142.738 190.699C142.382 190.475 141.961 190.364 141.477 190.364C140.942 190.364 140.48 190.496 140.09 190.761C139.704 191.023 139.406 191.364 139.198 191.784C138.99 192.205 138.886 192.655 138.886 193.136V193.909C138.886 194.568 138.999 195.127 139.227 195.585C139.458 196.04 139.778 196.386 140.187 196.625C140.596 196.86 141.071 196.977 141.613 196.977C141.965 196.977 142.283 196.928 142.567 196.83C142.855 196.727 143.103 196.576 143.312 196.375C143.52 196.17 143.681 195.917 143.795 195.614L145.09 195.977C144.954 196.417 144.725 196.803 144.403 197.136C144.081 197.466 143.683 197.723 143.21 197.909C142.736 198.091 142.204 198.182 141.613 198.182ZM149.835 198.205C149.281 198.205 148.78 198.1 148.329 197.892C147.878 197.68 147.52 197.375 147.255 196.977C146.99 196.576 146.857 196.091 146.857 195.523C146.857 195.023 146.956 194.617 147.153 194.307C147.35 193.992 147.613 193.746 147.942 193.568C148.272 193.39 148.636 193.258 149.033 193.17C149.435 193.08 149.838 193.008 150.244 192.955C150.774 192.886 151.204 192.835 151.533 192.801C151.867 192.763 152.109 192.701 152.261 192.614C152.416 192.527 152.494 192.375 152.494 192.159V192.114C152.494 191.553 152.34 191.117 152.033 190.807C151.73 190.496 151.27 190.341 150.653 190.341C150.013 190.341 149.511 190.481 149.147 190.761C148.783 191.042 148.528 191.341 148.38 191.659L147.107 191.205C147.335 190.674 147.638 190.261 148.016 189.966C148.399 189.667 148.816 189.458 149.266 189.341C149.721 189.22 150.168 189.159 150.607 189.159C150.888 189.159 151.21 189.193 151.573 189.261C151.941 189.326 152.295 189.46 152.636 189.665C152.98 189.869 153.266 190.178 153.494 190.591C153.721 191.004 153.835 191.557 153.835 192.25V198H152.494V196.818H152.425C152.335 197.008 152.183 197.21 151.971 197.426C151.759 197.642 151.477 197.826 151.124 197.977C150.772 198.129 150.342 198.205 149.835 198.205ZM150.039 197C150.569 197 151.016 196.896 151.38 196.688C151.747 196.479 152.024 196.21 152.21 195.881C152.399 195.551 152.494 195.205 152.494 194.841V193.614C152.437 193.682 152.312 193.744 152.119 193.801C151.929 193.854 151.71 193.902 151.46 193.943C151.213 193.981 150.973 194.015 150.738 194.045C150.507 194.072 150.319 194.095 150.175 194.114C149.827 194.159 149.501 194.233 149.198 194.335C148.899 194.434 148.656 194.583 148.471 194.784C148.289 194.981 148.198 195.25 148.198 195.591C148.198 196.057 148.371 196.409 148.715 196.648C149.064 196.883 149.505 197 150.039 197ZM156.282 198V189.273H157.577V190.636H157.691C157.873 190.17 158.166 189.809 158.572 189.551C158.977 189.29 159.464 189.159 160.032 189.159C160.608 189.159 161.087 189.29 161.469 189.551C161.856 189.809 162.157 190.17 162.373 190.636H162.464C162.687 190.186 163.022 189.828 163.469 189.562C163.916 189.294 164.452 189.159 165.077 189.159C165.858 189.159 166.496 189.403 166.992 189.892C167.488 190.377 167.737 191.133 167.737 192.159V198H166.396V192.159C166.396 191.515 166.219 191.055 165.867 190.778C165.515 190.502 165.1 190.364 164.623 190.364C164.009 190.364 163.534 190.549 163.197 190.92C162.86 191.288 162.691 191.754 162.691 192.318V198H161.327V192.023C161.327 191.527 161.166 191.127 160.844 190.824C160.522 190.517 160.108 190.364 159.6 190.364C159.252 190.364 158.926 190.456 158.623 190.642C158.324 190.828 158.081 191.085 157.896 191.415C157.714 191.741 157.623 192.117 157.623 192.545V198H156.282Z" fill="#31393C"/>
<circle cx="109.67" cy="55.5" r="29.5" fill="url(#paint1_linear_1_1335)"/>
<path d="M88.7758 76.1571C77.3075 64.6889 77.3075 46.0738 88.7758 34.6056C100.244 23.1374 118.859 23.1374 130.327 34.6056C141.796 46.0738 141.796 64.6889 130.327 76.1571" stroke="#3E96F4" stroke-width="2" stroke-linecap="round" stroke-linejoin="round"/>
<g clip-path="url(#clip0_1_1335)">
<path d="M110.17 65.8621C115.045 65.8621 118.996 61.8635 118.996 56.931C118.996 51.9986 115.045 48 110.17 48C105.296 48 101.344 51.9986 101.344 56.931C101.344 61.8635 105.296 65.8621 110.17 65.8621Z" fill="#31393C"/>
<path d="M110.17 85C104.269 85 96.3005 85.2169 96.3005 79.2586V76.7069C96.3104 73.8338 97.4428 71.0812 99.4506 69.0496C101.458 67.018 104.179 65.8721 107.018 65.8621H113.322C116.162 65.8721 118.882 67.018 120.89 69.0496C122.897 71.0812 124.03 73.8338 124.04 76.7069V79.2586C124.04 85.2169 110.17 85 110.17 85Z" fill="#31393C"/>
<path d="M129.083 63.54C132.628 63.54 135.501 60.6325 135.501 57.0459C135.501 53.4593 132.628 50.5518 129.083 50.5518C125.539 50.5518 122.665 53.4593 122.665 57.0459C122.665 60.6325 125.539 63.54 129.083 63.54Z" fill="#31393C"/>
<path d="M91.257 63.54C94.8015 63.54 97.6748 60.6325 97.6748 57.0459C97.6748 53.4593 94.8015 50.5518 91.257 50.5518C87.7125 50.5518 84.8392 53.4593 84.8392 57.0459C84.8392 60.6325 87.7125 63.54 91.257 63.54Z" fill="#31393C"/>
<path d="M131.378 63.54H126.788C125.67 63.5437 124.565 63.7905 123.549 64.2637C122.533 64.737 121.63 65.4257 120.9 66.2831C122.638 67.4525 124.064 69.0378 125.052 70.8984C126.039 72.759 126.558 74.8374 126.561 76.9494V77.4469C127.419 77.4469 128.276 77.4469 129.083 77.4469C129.083 77.4469 139.17 77.6128 139.17 73.2749V71.4249C139.163 69.3357 138.34 67.3341 136.88 65.8569C135.421 64.3797 133.442 63.5468 131.378 63.54Z" fill="#31393C"/>
<path d="M93.7787 76.9494C93.7823 74.8374 94.3009 72.759 95.2884 70.8984C96.276 69.0378 97.702 67.4525 99.44 66.2831C98.7101 65.4257 97.8066 64.737 96.7907 64.2637C95.7748 63.7905 94.6702 63.5437 93.5518 63.54H88.9622C86.8955 63.5468 84.9155 64.3814 83.4552 65.8614C81.995 67.3414 81.1734 69.3463 81.17 71.4376V73.2876C81.17 77.6256 86.97 77.4597 91.257 77.4597C91.257 77.4597 92.3287 77.4597 93.7787 77.3449V76.9494Z" fill="#31393C"/>
</g>
<defs>
<filter id="filter0_d_1_1335" x="0" y="0" width="228" height="228" filterUnits="userSpaceOnUse" color-interpolation-filters="sRGB">
<feFlood flood-opacity="0" result="BackgroundImageFix"/>
<feColorMatrix in="SourceAlpha" type="matrix" values="0 0 0 0 0 0 0 0 0 0 0 0 0 0 0 0 0 0 127 0" result="hardAlpha"/>
<feOffset dx="4" dy="4"/>
<feGaussianBlur stdDeviation="2"/>
<feComposite in2="hardAlpha" operator="out"/>
<feColorMatrix type="matrix" values="0 0 0 0 0.243137 0 0 0 0 0.588235 0 0 0 0 0.956863 0 0 0 0.15 0"/>
<feBlend mode="normal" in2="BackgroundImageFix" result="effect1_dropShadow_1_1335"/>
<feBlend mode="normal" in="SourceGraphic" in2="effect1_dropShadow_1_1335" result="shape"/>
</filter>
<linearGradient id="paint0_linear_1_1335" x1="0" y1="0" x2="220" y2="220" gradientUnits="userSpaceOnUse">
<stop stop-color="#ECF5FF"/>
<stop offset="1" stop-color="white"/>
</linearGradient>
<linearGradient id="paint1_linear_1_1335" x1="80.1701" y1="33.2777" x2="147.635" y2="68.8288" gradientUnits="userSpaceOnUse">
<stop stop-color="#9FCEFF"/>
<stop offset="1" stop-color="#E7F2FF"/>
</linearGradient>
<clipPath id="clip0_1_1335">
<rect width="58" height="37" fill="white" transform="translate(81.17 48)"/>
</clipPath>
</defs>
</svg>
