<?xml version="1.0" encoding="UTF-8"?>
<svg fill="none" viewBox="0 0 503 503" xmlns="http://www.w3.org/2000/svg">
<g filter="url(#a)">
<ellipse cx="251.45" cy="251.02" rx="181.45" ry="181.02" fill="#fff"/>
<path d="m432.4 251.02c0 99.699-81.014 180.52-180.95 180.52-99.938 0-180.95-80.824-180.95-180.52 0-99.698 81.014-180.52 180.95-180.52 99.939 0 180.95 80.824 180.95 180.52z" stroke="#B5CBE3"/>
</g>
<g clip-path="url(#b)">
<path d="m339.47 109.7c4.07-0.58 7.84 2.25 8.42 6.32s-2.25 7.84-6.32 8.42-7.84-2.25-8.42-6.32 2.25-7.84 6.32-8.42z" fill="#E9F4FF" opacity=".4"/>
<path d="m331.28 120.92c0.36 0.87 0.84 1.67 1.42 2.39l-0.84 1.77 1.7 1.27 1.7 1.28 1.46-1.3c0.85 0.35 1.75 0.59 2.69 0.69l0.65 1.84 4.2-0.6 0.11-1.95c0.87-0.36 1.67-0.84 2.39-1.42l1.77 0.84 1.27-1.7 1.28-1.7-1.3-1.46c0.35-0.85 0.59-1.75 0.69-2.69l1.84-0.65-0.6-4.2-1.95-0.11c-0.36-0.87-0.84-1.67-1.42-2.39l0.84-1.77-1.7-1.28-1.7-1.27-1.46 1.3c-0.85-0.35-1.75-0.59-2.69-0.69l-0.65-1.84-4.2 0.6-0.11 1.95c-0.87 0.36-1.67 0.84-2.39 1.42l-1.77-0.84-1.28 1.7-1.27 1.7 1.3 1.46c-0.35 0.85-0.59 1.75-0.69 2.69l-1.84 0.65 0.6 4.2 1.95 0.11zm8.19-11.22c4.07-0.58 7.84 2.25 8.42 6.32s-2.25 7.84-6.32 8.42-7.84-2.25-8.42-6.32 2.25-7.84 6.32-8.42zm0 0c4.07-0.58 7.84 2.25 8.42 6.32s-2.25 7.84-6.32 8.42-7.84-2.25-8.42-6.32 2.25-7.84 6.32-8.42z" stroke="#EEF7FF" stroke-miterlimit="10" stroke-width=".5"/>
<path d="m237.38 188.14h-11.58v2.94h11.58v-2.94z" fill="#fff"/>
<path d="m235.06 193.57h-9.26v2.94h9.26v-2.94z" fill="#fff"/>
<path d="m238.49 321.37h-12.15v3.92h12.15v-3.92z" fill="#fff"/>
<path d="m357.38 161.14h-18.29v2.94h18.29v-2.94z" fill="#D4EAFF"/>
<path d="m365.03 166.57h-25.94v2.94h25.94v-2.94z" fill="#EEF7FF"/>
<path d="m216.1 188.14h-21.47v2.94h21.47v-2.94z" fill="#fff"/>
<path d="m208.36 193.57h-13.73v2.94h13.73v-2.94z" fill="#fff"/>
<path d="m285.66 188.14h-13.31v2.94h13.31v-2.94z" fill="#fff"/>
<path d="m287.86 193.57h-15.51v2.94h15.51v-2.94z" fill="#fff"/>
<path d="m207.6 321.37h-12.15v3.92h12.15v-3.92z" fill="#fff"/>
<path d="m284.5 321.37h-12.15v3.92h12.15v-3.92z" fill="#fff"/>
<path d="m339.53 237.94h-3.67v15.84h3.67v-15.84z" fill="#D4EAFF"/>
<path d="m348.64 231.5h-3.67v22.28h3.67v-22.28z" fill="#D4EAFF"/>
<path d="m357.75 228.15h-3.67v25.64h3.67v-25.64z" fill="#D4EAFF"/>
<path d="m366.87 226.75h-3.67v27.04h3.67v-27.04z" fill="#D4EAFF"/>
<path d="m339.53 243.84h-3.67v9.94h3.67v-9.94z" fill="#4E7ED6"/>
<path d="m348.64 239.81h-3.67v13.98h3.67v-13.98z" fill="#4E7ED6"/>
<path d="m357.75 237.7h-3.67v16.09h3.67v-16.09z" fill="#4E7ED6"/>
<path d="m366.87 236.82h-3.67v16.96h3.67v-16.96z" fill="#4E7ED6"/>
<path d="m278.26 134.03h-95.96c-6.16 0-11.16 5-11.16 11.16v167.21c0 6.16 5 11.16 11.16 11.16h95.96c6.16 0 11.16-5 11.16-11.16v-167.21c0-6.17-5-11.16-11.16-11.16z" stroke="#92C9FF" stroke-miterlimit="10" stroke-width=".5"/>
<path d="m278.4 169.51h-34.88v4.41h34.88v-4.41z" fill="#D4EAFF"/>
<path d="m275.53 188h-32.01v4.41h32.01v-4.41z" fill="#D4EAFF"/>
<path d="m271.22 178.76h-27.7v4.41h27.7v-4.41z" fill="#D4EAFF"/>
<g opacity=".4">
<path d="m202.31 209.8c-3.35 0-6.59-0.7-9.61-2.07-8.29-3.77-13.65-12.09-13.65-21.19 0-12.83 10.44-23.26 23.26-23.26 12.83 0 23.26 10.44 23.26 23.26 0 9.1-5.36 17.42-13.65 21.19-3.02 1.37-6.25 2.07-9.61 2.07zm0-45.3c-12.15 0-22.03 9.88-22.03 22.03 0 8.62 5.07 16.5 12.93 20.07 2.86 1.3 5.93 1.96 9.11 1.96s6.24-0.66 9.11-1.96c7.85-3.57 12.93-11.45 12.93-20.07-0.01-12.14-9.9-22.03-22.05-22.03z" fill="#E9F4FF"/>
</g>
<path d="m264.7 215.86h-40.07v3.93h40.07v-3.93z" fill="#EEF7FF"/>
<path d="m264.7 226.44h-40.07v3.93h40.07v-3.93z" fill="#EEF7FF"/>
<path d="m264.7 237.02h-40.07v3.93h40.07v-3.93z" fill="#EEF7FF"/>
<path d="m279.57 215.86h-6.69v3.93h6.69v-3.93z" fill="#4E7ED6"/>
<path d="m279.57 226.44h-6.69v3.93h6.69v-3.93z" fill="#4E7ED6"/>
<path d="m279.57 237.02h-6.69v3.93h6.69v-3.93z" fill="#4E7ED6"/>
<path d="m225.22 349.48h-64.13c-4.4 0-7.97-3.57-7.97-7.97v-105.64c0-4.4 3.57-7.97 7.97-7.97h64.13c4.4 0 7.97 3.57 7.97 7.97v105.64c0 4.4-3.57 7.97-7.97 7.97z" fill="#fff" stroke="#92C9FF" stroke-miterlimit="10" stroke-width=".5"/>
<path d="m223.83 245.98c-1.96-5.49-7.21-8.86-12.73-8.69-1.34 0.04-2.69 0.29-4.02 0.76-4.03 1.44-6.91 4.65-8.1 8.43-0.82 2.63-0.83 5.53 0.17 8.32 0.1 0.28 0.21 0.55 0.32 0.82 0.52 1.21 1.21 2.3 2.03 3.26 3.43 4.03 9.12 5.74 14.4 3.85 6.81-2.43 10.36-9.93 7.93-16.75zm-9.04 13.67c-3.96 1.42-8.22 0.14-10.8-2.88-0.61-0.72-1.13-1.54-1.52-2.45-0.09-0.2-0.17-0.4-0.24-0.61-0.75-2.09-0.74-4.27-0.13-6.24 0.89-2.84 3.05-5.24 6.07-6.32 1-0.36 2.01-0.54 3.01-0.57 4.14-0.13 8.07 2.4 9.55 6.52 1.83 5.09-0.83 10.72-5.94 12.55z" fill="#EEF7FF"/>
<path d="m202.11 247.46-3.13-0.98c1.19-3.79 4.07-6.99 8.1-8.43 1.33-0.48 2.68-0.72 4.02-0.76l0.1 3.28c-1 0.03-2.02 0.22-3.01 0.57-3.03 1.08-5.2 3.48-6.08 6.32z" fill="#4E7ED6"/>
<path d="m202.48 254.31-3.01 1.31c-0.12-0.27-0.22-0.54-0.32-0.82-1-2.79-0.99-5.69-0.17-8.32l3.13 0.98c-0.62 1.97-0.62 4.15 0.13 6.24 0.07 0.21 0.15 0.41 0.24 0.61z" fill="#72A2E8"/>
<path d="m201.5 258.89c-0.82-0.96-1.51-2.05-2.03-3.26l3.01-1.31c0.39 0.91 0.91 1.73 1.52 2.45l-2.5 2.12z" fill="#98C2F4"/>
<path d="m301.36 299.03h-7.06v23.16h7.06v-23.16z" fill="#D4EAFF"/>
<path d="m290.86 305.53h-7.06v16.67h7.06v-16.67z" fill="#D4EAFF"/>
<path d="m311.55 288.29h-7.06v33.9h7.06v-33.9z" fill="#D4EAFF"/>
<path d="m163.82 319.64-0.62-0.47 11.51-14.98 14.21 0.77 10.72-17.06 11.54-1.19 6.94-13.72 0.69 0.35-7.13 14.1-11.59 1.19-10.75 17.13-14.26-0.77-11.26 14.65z" fill="#4E7ED6"/>
<path d="m185.59 245.16h-20.09c-1.27 0-2.3-1.03-2.3-2.3s1.03-2.3 2.3-2.3h20.09c1.27 0 2.3 1.03 2.3 2.3s-1.03 2.3-2.3 2.3z" fill="#4E7ED6"/>
<path d="m185.59 253.17h-20.09c-1.27 0-2.3-1.03-2.3-2.3s1.03-2.3 2.3-2.3h20.09c1.27 0 2.3 1.03 2.3 2.3s-1.03 2.3-2.3 2.3z" fill="#D4EAFF"/>
<path d="m185.59 261.18h-20.09c-1.27 0-2.3-1.03-2.3-2.3s1.03-2.3 2.3-2.3h20.09c1.27 0 2.3 1.03 2.3 2.3s-1.03 2.3-2.3 2.3z" fill="#D4EAFF"/>
<path d="m205.34 173.79h-6.06v25.49h6.06v-25.49z" fill="#92C9FF"/>
<path d="m215.06 189.57v-6.06h-25.49v6.06h25.49z" fill="#92C9FF"/>
<path d="m362.31 177.85c-6.86-3.25-14.8-1.52-19.74 3.73-1.2 1.27-2.22 2.75-3 4.41-2.38 5.04-2.09 10.65 0.31 15.24 1.66 3.18 4.33 5.86 7.83 7.51 0.35 0.16 0.7 0.32 1.05 0.46 1.6 0.63 3.24 1 4.88 1.13 6.88 0.56 13.69-3.12 16.82-9.72 4.02-8.54 0.38-18.72-8.15-22.76zm4.27 20.92c-2.34 4.95-7.45 7.71-12.61 7.29-1.23-0.1-2.46-0.38-3.66-0.85-0.26-0.1-0.53-0.22-0.79-0.34-2.62-1.24-4.62-3.25-5.87-5.63-1.8-3.44-2.02-7.65-0.23-11.42 0.59-1.25 1.35-2.35 2.25-3.31 3.7-3.93 9.66-5.23 14.8-2.79 6.4 3.02 9.13 10.66 6.11 17.05z" fill="#EEF7FF"/>
<path d="m343.66 199.24-3.79 1.98c-2.4-4.58-2.69-10.2-0.31-15.24 0.79-1.66 1.81-3.14 3-4.41l3.11 2.93c-0.9 0.95-1.66 2.06-2.25 3.31-1.78 3.78-1.56 7.99 0.24 11.43z" fill="#4E7ED6"/>
<path d="m350.31 205.21-1.57 3.98c-0.35-0.14-0.7-0.29-1.05-0.46-3.49-1.65-6.16-4.33-7.83-7.51l3.79-1.98c1.25 2.38 3.25 4.39 5.87 5.63 0.27 0.12 0.53 0.24 0.79 0.34z" fill="#72A2E8"/>
<path d="m353.63 210.33c-1.64-0.13-3.28-0.5-4.88-1.13l1.57-3.98c1.2 0.47 2.43 0.75 3.66 0.85l-0.35 4.26z" fill="#98C2F4"/>
<path d="m349.75 221.58h-31.89v-0.63h31.26v-13.51h0.63v14.14z" fill="#92C9FF"/>
<path d="m334.65 214.35h-16.79v3.8h16.79v-3.8z" fill="#D4EAFF"/>
<path d="m139.03 343.25s0.47 1.11 1.35 2.26c0.65 0.85 2.67 4.32 3.56 4.57 0.89 0.24 3.64 0.73 3.88 2.26 0.24 1.54 0.36 2.63-2.34 2.75-2.71 0.12-4.49 0.28-5.78-1.62s-3.35-3.27-3.35-3.27v4.96h-1.05s-0.48-5.16-0.77-5.52c-0.28-0.36-1.01-4.32 1.5-6.39 2.5-2.06 3 0 3 0z" fill="#D4EAFF"/>
<path d="m143.94 350.08s-2.42 0.61-3.35 0-4.09-5.95-5.14-6.27c0 0 1.01-2.06 3.58-0.56 0 0 4.22 5.94 4.91 6.83z" fill="#EEA886"/>
<path d="m138.39 223.71s5.23 11.02 1.63 11.68c-4.94 0.91-6.94-8.23-6.94-8.23l5.31-3.45z" fill="#163342"/>
<path d="m166.94 251.1s1.63-0.51 1.77-1.48c0.11-0.82 0.85-1.81 1.08-2.11 0.3-0.41 0.77-2 1.29-1.62s-0.65 2.66-0.79 3.19c-0.15 0.53 2.09-0.48 2.64-0.34s2.01 3.94 0.39 4.45c-1.61 0.51-3.68-0.01-3.94 0.14-0.27 0.15-1.16 0.42-1.16 0.42l-1.28-2.65z" fill="#EEA886"/>
<path d="m172.52 248.77s5.05-1.24 5.45-1.04c0.41 0.2 0.46 0.48-0.01 0.61-0.47 0.14-4.84 1.34-4.84 1.34s6.22-0.46 6.59-0.37c0.22 0.05 0.35 0.58 0.1 0.68s-6.38 0.91-6.38 0.91 5.81-0.42 6.09-0.25c0.25 0.15 0.25 0.66-0.18 0.72s-5.8 0.76-5.8 0.76 4.25-0.04 4.4 0.24c0.1 0.17 0.23 0.63-0.87 0.6-1.1-0.02-3.69 0.19-3.69 0.19l-0.86-4.39z" fill="#EEA886"/>
<path d="m125.47 346.46s2.71 4.02 3.8 4.99c0 0 2.42 0.89 2.67 2.59 0.24 1.7 0.2 2.83-2.67 2.91s-4.75-0.43-5.28-2.17-1.68-2.92-1.68-2.92v3.64h-0.63s-0.16-3.52-0.2-4.16c-0.04-0.65-0.46-3.13 0.9-4.23 1.36-1.11 3.09-0.65 3.09-0.65z" fill="#D4EAFF"/>
<path d="m123.66 268.84s-3.42 4.45-4.35 9.72 0.55 22.98 0.51 25.58c-0.04 2.61-2.47 9.09-1.98 14 0.48 4.91 2.4 29.35 2.4 29.35l5.24-1.04s-0.3-24.92 0-26.98 0.91-9.57 1.03-10.42 7.7-23.14 7.7-26.94c-0.01-3.79-2.31-19.47-10.55-13.27z" fill="#323B3D"/>
<path d="m140.83 270.58s5.62 21.44 6.28 24.41c0.67 2.97 1.63 5.42 1.63 6.68 0 2.93-1.09 7.63-1.09 7.63l-7.13 34.12h-6.79s3.79-20.47 3.89-24.47c0.1-4.01 3.19-9.71 2.58-11.41s-9.76-21.28-9.76-21.28-6.93-21.91 10.39-15.68z" fill="#323B3D"/>
<path d="m129.27 351.45s-2.77 1.55-4.56-0.44c-1.51-1.68-2.34-3.91-2.34-3.91l3.1-0.64 3.8 4.99z" fill="#EEA886"/>
<path d="m138.51 234.14s2.32 0.22 4.07 2.09c1.75 1.88 3.39 4.87 3.85 5.87s6.88 10.27 7.22 10.48c0.33 0.21 3.14-0.53 5.39-0.72 3.67-0.31 9.16-2.18 9.16-2.18l0.82 4.15s-13.51 4.36-16.63 3.59c-3.81-0.94-12.59-12.2-12.59-12.2s-6.54-7.66-1.29-11.08z" fill="#D4EAFF"/>
<path d="m134.47 232.52s3 1.42 4.04 1.62c1.04 0.21 5.08 5.46 5.79 7.38s0 4.79-1.46 8.17-0.08 4.5-0.75 7.88-0.45 16-0.33 17.88c0.13 1.88-19.5 4.72-23.38 1.3 0 0 2.62-11.38 5.73-14.63 0.67-0.7 0.6-5.38 0.14-6.55s-5.63-9.88-5.63-9.88-0.38-8.83 1.88-10.58c1.96-1.52 7.3-2.06 8.25-2.4 0.97-0.34 3.76-0.48 5.72-0.19z" fill="#3481CE"/>
<path d="m135.9 229.06s-0.6 5.5-0.47 7.3c0 0-3.12 3.12-6.66-3.65 0 0 1.49-2.79 0.37-6.59-1.13-3.81 6.76 2.94 6.76 2.94z" fill="#EEA886"/>
<path d="m144.63 250.93s0.75-4.99-0.05-8.03c0 0 0 2.61-1.43 6.32l1.48 1.71z" fill="#AAADBA"/>
<path d="m126.69 218.73s-0.69-0.83-0.94 0.01c-0.26 0.83 0.58 3.3 0.68 3.66 0 0 0.42 1.39 0.58 1.21s-0.32-4.88-0.32-4.88z" fill="#EEA987"/>
<path d="m138.71 218.83s0.69-0.83 0.94 0.01c0.26 0.83-0.58 3.3-0.68 3.66 0 0-0.42 1.39-0.58 1.21s0.32-4.88 0.32-4.88z" fill="#EEA987"/>
<path d="m133.78 210.82s6.31 0.97 5.39 10.92-6.5 9.16-6.87 9.15-5.59 0.21-6.04-11.93c0 0-0.21-8.98 7.52-8.14z" fill="#EEA987"/>
<path d="m127.47 218.36s7.01 2.08 10.36 1.42c0 0 0.21 1.24 0.7 1.31 0.48 0.08 0.73-2.37 0.73-2.37s0.16-8.09-7.15-8.16c-7.32-0.08-5.83 8.76-5.83 8.76l0.1 1.51c-0.01 0.01 1.04 0.42 1.09-2.47z" fill="#163342"/>
<path d="m129.82 229.94s2.21 2.09 5.61 0.17c0 0-1 1.68-2.91 1.64-1.91-0.05-2.7-1.81-2.7-1.81z" fill="#A77860"/>
<path d="m126.37 233.19s2.14 6.33 8.03 5.87c5.89-0.47 2.79-5.35 2.79-5.35s-1.47-0.84-1.88-0.92-6.51-0.16-6.51-0.16l-2.43 0.56z" fill="#EEA886"/>
<path d="m137.19 233.71s3.08 8.53 3.08 17.22 0.25 22.86 1.33 27.33 4.14 18.3 4.14 18.3l2.4-1.24s-5.78-22.07-6.21-23.67c-0.44-1.59 0.33-18.41 0.75-19.82 0.41-1.41 2.18-7.68 1.9-9.41-0.35-2.19-2.4-5.44-5.71-8.22l-1.68-0.49z" fill="#D4EAFF"/>
<path d="m127.53 232.92s1.92 6.14 2.89 14-2.98 44.35-5.63 52.63l-10.27-1.66s2.21-25.79 5.21-30.48 3.96-8.85 0.72-18.64c-3.24-9.8 1.42-14.65 1.42-14.65s4.76-1.1 5.66-1.2z" fill="#D4EAFF"/>
<path d="m138.61 258.95-12.45 21.56-13.84-7.99 11.91-21.88 14.38 8.31z" fill="#616161"/>
<path d="m137.11 259.69-11.06 19.15-12.29-7.09 10.58-19.44 12.77 7.38z" fill="#E0CEC7"/>
<path d="m133.03 257.97 0.78-1.35-4.97-2.87-0.97 1.24 5.16 2.98z" fill="#616161"/>
<path d="m132.44 273.27s-0.57 0-0.81-0.12c0 0-0.43-0.25-0.75-0.41-0.1-0.05-0.19-0.09-0.25-0.11-0.25-0.09-0.84-0.2-1.39-0.59-0.55-0.38-2.5-2.64-2.5-2.64l0.92-1.4 0.68-1.43s4.09 0.26 4.65 0.56c0.05 0.03 0.11 0.06 0.15 0.09 0.44 0.3 0.65 0.7 0.87 0.89 0.08 0.07 0.82 0.79 0.79 1.1-0.04 0.43-0.23 0.71-0.49 0.85 0 0-0.11 0.83-0.52 1.22 0 0-0.07 0.77-0.72 1.11-0.01-0.01-0.18 0.77-0.63 0.88z" fill="#EEA886"/>
<path d="m124 234.14s-3.78-1.08-5.95 3.08c-2.17 4.17-2.16 5.94-2.45 7.98-0.27 1.92-1.51 7.17-1.63 7.71s-2.92 7-1.64 9.26c1.29 2.27 14.38 8.95 14.29 9.45-0.08 0.5 2.27-5.05 2.27-5.05s-5.3-2.95-6.16-3.86c-1.41-1.48-4.38-3.07-3.77-4.9 0.72-2.15 2.87-9.41 3.37-10.47s4.86-11.84 1.67-13.2z" fill="#D4EAFF"/>
<path d="m180.83 145.43c1.48 0 2.68-1.2 2.68-2.68s-1.2-2.68-2.68-2.68-2.68 1.2-2.68 2.68 1.2 2.68 2.68 2.68z" fill="#3481CE"/>
<path d="m191.04 140.07c-0.53 0-1.05 0.16-1.49 0.45s-0.78 0.71-0.99 1.2c-0.2 0.49-0.26 1.03-0.15 1.55 0.1 0.52 0.36 1 0.73 1.37s0.85 0.63 1.37 0.73 1.06 0.05 1.55-0.15 0.91-0.55 1.2-0.99 0.45-0.96 0.45-1.49c0-0.71-0.28-1.39-0.79-1.9-0.48-0.49-1.16-0.77-1.88-0.77z" fill="#3481CE"/>
<path d="m201.27 145.43c-0.53 0-1.05-0.16-1.49-0.45s-0.79-0.71-0.99-1.2-0.26-1.03-0.15-1.55c0.1-0.52 0.36-1 0.73-1.37 0.38-0.37 0.85-0.63 1.37-0.73s1.06-0.05 1.55 0.15 0.91 0.55 1.2 0.99 0.45 0.96 0.45 1.49c0 0.71-0.28 1.39-0.79 1.89-0.49 0.49-1.17 0.78-1.88 0.78zm0-4.86c-0.43 0-0.85 0.13-1.21 0.37s-0.64 0.58-0.8 0.98c-0.17 0.4-0.21 0.84-0.12 1.26 0.08 0.42 0.29 0.81 0.6 1.12 0.3 0.3 0.69 0.51 1.12 0.6 0.42 0.08 0.86 0.04 1.26-0.12s0.74-0.44 0.98-0.8 0.37-0.78 0.37-1.21c0-0.58-0.23-1.13-0.64-1.54-0.43-0.43-0.98-0.66-1.56-0.66z" fill="#92C9FF"/>
<path d="m267.18 145.73h-49.79c-0.4 0.01-0.79-0.06-1.17-0.2-0.37-0.15-0.71-0.36-0.99-0.64-0.29-0.28-0.51-0.61-0.67-0.98-0.15-0.37-0.23-0.76-0.23-1.16s0.08-0.79 0.23-1.16 0.38-0.7 0.67-0.98 0.62-0.5 0.99-0.64c0.37-0.15 0.77-0.21 1.17-0.2h49.79c0.78 0.02 1.52 0.34 2.06 0.9s0.85 1.3 0.85 2.08-0.3 1.53-0.85 2.08c-0.54 0.56-1.28 0.88-2.06 0.9zm-49.79-5.46c-0.33-0.01-0.66 0.05-0.97 0.17s-0.59 0.3-0.83 0.53-0.43 0.51-0.56 0.81c-0.13 0.31-0.2 0.63-0.2 0.97 0 0.33 0.07 0.66 0.2 0.97s0.32 0.58 0.56 0.81 0.52 0.41 0.83 0.53 0.64 0.18 0.97 0.17h49.79c0.65-0.02 1.26-0.29 1.71-0.75s0.7-1.08 0.7-1.73-0.25-1.27-0.7-1.73-1.06-0.73-1.71-0.75h-49.79z" fill="#92C9FF"/>
<path d="m170.86 150.78h118.5" stroke="#92C9FF" stroke-miterlimit="10" stroke-width=".5"/>
<path d="m278.57 155.15c0.97 2.32 2.25 4.46 3.78 6.38l-2.25 4.71 9.08 6.8 3.9-3.48c2.27 0.94 4.68 1.57 7.18 1.84l1.74 4.92 11.24-1.6 0.3-5.21c2.32-0.97 4.46-2.25 6.38-3.78l4.71 2.25 6.8-9.08-3.48-3.9c0.94-2.27 1.57-4.68 1.84-7.18l4.92-1.74-1.6-11.24-5.21-0.3c-0.97-2.32-2.25-4.46-3.78-6.38l2.25-4.71-9.08-6.8-3.9 3.48c-2.27-0.94-4.68-1.57-7.18-1.84l-1.74-4.92-11.24 1.6-0.3 5.21c-2.32 0.97-4.46 2.25-6.38 3.78l-4.71-2.25-6.8 9.08 3.48 3.9c-0.94 2.27-1.57 4.68-1.84 7.18l-4.92 1.74 1.6 11.24 5.21 0.3zm21.86-29.97c10.87-1.55 20.94 6 22.49 16.87s-6 20.94-16.87 22.49-20.94-6-22.49-16.87c-1.56-10.87 6-20.94 16.87-22.49z" fill="#fff" stroke="#92C9FF" stroke-dasharray="2 2" stroke-miterlimit="10" stroke-width=".5"/>
<path d="m343.21 303.93c0 6.15-7.66 58.89-61.88 58.89-48.68 0-61.88-52.75-61.88-58.89s27.71-5.16 61.88-5.16 61.88-0.99 61.88 5.16z" fill="#3481CE"/>
<path d="m281.33 315.06c34.175 0 61.88-4.983 61.88-11.13s-27.705-11.13-61.88-11.13-61.88 4.983-61.88 11.13 27.705 11.13 61.88 11.13z" fill="#2B73AD"/>
<path d="m278.85 292.69 19.87-34.85c-1.69-3.66-1.83-8.01-0.01-11.96 3.3-7.19 11.8-10.34 18.99-7.04s10.34 11.8 7.04 18.99c-1.75 3.82-4.98 6.5-8.69 7.68l-9.99 28.03-7.33 21.15c-5.19 0.25-10.8 0.26-16.44 0.26-5.33 0-10.51-0.12-15.45-0.35l-0.37-0.17 12.38-21.74z" fill="#92C9FF"/>
<path d="m382.74 281.05-5.46-5.01h-37.69l-5.96 5.01c0.03 0.01 0.05-0.02 0.08-0.02h-0.09v76.03h49.19v-76.03h-0.16c0.04 0 0.07 0.03 0.09 0.02z" fill="#D4EAFF"/>
<path d="m376.63 311.26c1.618-9.971-5.153-19.366-15.124-20.984-9.971-1.619-19.366 5.153-20.984 15.124s5.153 19.365 15.124 20.984c9.971 1.618 19.366-5.153 20.984-15.124z" fill="#fff"/>
<path d="m363.06 302.25c4.26 2.55 3.39 7.37 0.86 9.99-2.53 2.63-7.44 3.8-10.02-0.48-2.99-4.96-2.71-11.78-2.71-11.78s6.95-0.68 11.87 2.27z" fill="#3481CE"/>
<path d="m366.03 318.19c-0.1 0-0.2-0.06-0.23-0.17-1.36-3.92-3.39-7.42-6.03-10.39-1.86-2.09-4.03-3.92-6.44-5.44-0.12-0.07-0.15-0.23-0.08-0.34 0.07-0.12 0.23-0.15 0.34-0.08 2.46 1.55 4.66 3.41 6.55 5.53 2.69 3.02 4.75 6.57 6.13 10.56 0.04 0.13-0.02 0.27-0.15 0.32-0.04 0-0.07 0.01-0.09 0.01z" fill="#323B3D"/>
<path d="m377.46 266.16h-38.37v10.23h38.37v-10.23z" fill="#3481CE"/>
<path d="m366.97 325.44h-14.9v36.49h14.9v-36.49z" fill="#D4EAFF"/>
<path d="m367.53 336.47h-16.22v12.45h16.22v-12.45z" fill="#92C9FF"/>
<path d="m367.72 363.03h-16.41c-0.14 0-0.25-0.11-0.25-0.25v-35.65c0-0.14 0.11-0.25 0.25-0.25h16.41c0.14 0 0.25 0.11 0.25 0.25v35.65c0 0.14-0.11 0.25-0.25 0.25zm-16.16-0.49h15.91v-35.15h-15.91v35.15z" fill="#3481CE"/>
<path d="m368.66 321.1h-18.29v6.69h18.29v-6.69z" fill="#3481CE"/>
<path d="m350.94 324.74c-0.14 0-0.25-0.11-0.25-0.25s0.11-0.25 0.25-0.25l16.97-0.09c0.14 0 0.25 0.11 0.25 0.25s-0.11 0.25-0.25 0.25l-16.97 0.09z" fill="#323B3D"/>
<path d="m331.2 340.68c-2.66 2.69-6.59 3.13-9.85-0.1-2.43-2.4 6.31-13.04 9.63-9.75 3.13 3.09 2.88 7.16 0.22 9.85z" fill="#92C9FF"/>
<path d="m330.25 339.74c-2.52 2.55-6.35 2.9-8.82 0.89-0.14-0.11 0.29-1.06 0.29-1.06s-0.9 0.49-1 0.38c-2.11-2.44-1.83-6.32 0.72-8.9 2.54-2.58 6.43-2.9 8.89-0.83 0.11 0.09-0.36 1-0.36 1s0.94-0.44 1.06-0.3c2.04 2.44 1.74 6.27-0.78 8.82z" fill="#D4EAFF"/>
<path d="m320.73 339.94 0.3 0.33c0.13 0.13 0.27 0.25 0.41 0.36l9.59-9.71c-0.12-0.14-0.24-0.27-0.37-0.4-0.11-0.11-0.22-0.2-0.33-0.3l-9.6 9.72z" fill="#92C9FF"/>
<path d="m332.5 337.56 5.6-6.81c1.57-1.91 4.42-2.19 6.33-0.62s2.19 4.42 0.62 6.33l-5.6 6.81-6.95-5.71z" fill="#92C9FF"/>
<path d="m339.45 343.27-5.6 6.81c-1.57 1.91-4.42 2.19-6.33 0.62s-2.19-4.42-0.62-6.33l5.6-6.81 6.95 5.71z" fill="#D4EAFF"/>
<path d="m343.11 329.38c0.47 0.17 0.92 0.42 1.32 0.75 1.91 1.57 2.19 4.42 0.62 6.33l-5.6 6.81-2.31-1.9 5.6-6.81c1.24-1.51 1.32-3.6 0.37-5.18z" fill="#78B7EA"/>
<path d="m331.53 348.18 5.6-6.81 2.31 1.9-5.6 6.81c-1.57 1.91-4.42 2.19-6.33 0.62-0.41-0.33-0.74-0.72-0.99-1.15 1.74 0.63 3.77 0.14 5.01-1.37z" fill="#B7D5ED"/>
<path d="m331.23 351.75-7.41 4.79c-2.08 1.34-2.68 4.14-1.34 6.22s4.14 2.68 6.22 1.34l7.41-4.79-4.88-7.56z" fill="#D4EAFF"/>
<path d="m336.11 359.31 7.41-4.79c2.08-1.34 2.68-4.14 1.34-6.22s-4.14-2.68-6.22-1.34l-7.41 4.79 4.88 7.56z" fill="#92C9FF"/>
<path d="m321.88 361.36c0.11 0.48 0.31 0.96 0.6 1.4 1.34 2.08 4.14 2.68 6.22 1.34l7.41-4.79-1.63-2.52-7.41 4.79c-1.64 1.06-3.72 0.91-5.19-0.22z" fill="#B7D5ED"/>
<path d="m341.89 352.01-7.41 4.79 1.63 2.52 7.41-4.79c2.08-1.34 2.68-4.14 1.34-6.22-0.28-0.44-0.64-0.81-1.03-1.12 0.42 1.8-0.3 3.76-1.94 4.82z" fill="#78B7EA"/>
<path d="m317.07 340.65-8.81 0.42c-2.47 0.12-4.4 2.24-4.28 4.71s2.24 4.4 4.71 4.28l8.81-0.42-0.43-8.99z" fill="#D4EAFF"/>
<path d="m317.5 349.63 8.81-0.42c2.47-0.12 4.4-2.24 4.28-4.71s-2.24-4.4-4.71-4.28l-8.81 0.42 0.43 8.99z" fill="#92C9FF"/>
<path d="m304.16 344.27c-0.14 0.48-0.21 0.98-0.19 1.51 0.12 2.47 2.24 4.4 4.71 4.28l8.81-0.42-0.14-2.99-8.81 0.42c-1.94 0.09-3.67-1.09-4.38-2.8z" fill="#B7D5ED"/>
<path d="m326.16 346.22-8.81 0.42 0.14 2.99 8.81-0.42c2.47-0.12 4.4-2.24 4.28-4.71-0.03-0.52-0.14-1.02-0.33-1.48-0.53 1.77-2.14 3.1-4.09 3.2z" fill="#78B7EA"/>
<path d="m320.54 361.14c-3.86 1.06-7.68-0.62-8.96-5.3-0.95-3.48 12.67-8.59 13.98-3.82 1.22 4.48-1.16 8.07-5.02 9.12z" fill="#92C9FF"/>
<path d="m320.17 359.79c-3.65 1-7.34-0.71-8.54-3.85-0.07-0.18 0.83-0.82 0.83-0.82s-1.08-0.03-1.11-0.18c-0.64-3.34 1.68-6.75 5.37-7.76s7.42 0.75 8.57 3.95c0.05 0.15-0.86 0.72-0.86 0.72s1.1 0.1 1.13 0.29c0.57 3.3-1.74 6.65-5.39 7.65z" fill="#D4EAFF"/>
<path d="m311.35 354.93c0.03 0.15 0.06 0.31 0.1 0.46 0.05 0.19 0.11 0.37 0.18 0.55l13.92-3.81c-0.03-0.19-0.07-0.37-0.12-0.56-0.04-0.15-0.09-0.3-0.14-0.45l-13.94 3.81z" fill="#92C9FF"/>
<path d="m365.95 340.55-1.76 1.8s-0.08 19.46-0.08 19.5c0 1.37 3.54 2.52 7.91 2.46 8.32-0.11 8.07-2.53 8.07-2.53v-19.43l-1.9-1.8c-1.66 1.57-10.98 1.35-12.24 0z" fill="#92C9FF"/>
<path d="m372 341.66c3.468 0 6.28-0.394 6.28-0.88s-2.812-0.88-6.28-0.88-6.28 0.394-6.28 0.88 2.812 0.88 6.28 0.88z" fill="#78B7EA"/>
<path d="m372.06 365.12c-4.41 0-8.87-0.93-8.87-2.7v-20.46l3.48-3v-4.26h10.93v4.27l3.23 3v20.31 0.07c0 1.8-4.52 2.77-8.77 2.77zm-8.37-22.93v20.23c0 1.07 3.36 2.21 8.37 2.21 4.95 0 8.27-1.18 8.27-2.28v-0.1-20.07l-3.23-3v-3.99h-9.94v3.99l-3.47 3.01z" fill="#363E44"/>
<path d="m378.81 353.55v-10.45l-1.38 0.43v10.56l1.38-0.54z" fill="#fff"/>
<path d="m377.43 355.35v6.79l1.38-0.42v-6.88l-1.38 0.51z" fill="#fff"/>
<path d="m373.34 353.37h-3.33c-0.14 0-0.25-0.11-0.25-0.25v-21.34c0-0.14 0.11-0.25 0.25-0.25h3.33c0.14 0 0.25 0.11 0.25 0.25v21.34c0 0.13-0.12 0.25-0.25 0.25zm-3.08-0.5h2.83v-20.84h-2.83v20.84z" fill="#3481CE"/>
<path d="m378.35 328.96-13.4 0.36 0.16 5.88h0.01v0.06c0.03 0.98 3.05 1.7 6.75 1.6s6.68-0.98 6.65-1.96c0-0.02 0-0.04-0.01-0.06h0.01l-0.17-5.88z" fill="#363E44"/>
<path d="m371.68 330.92c3.698-0.1 6.676-0.977 6.649-1.959-0.026-0.983-3.046-1.699-6.745-1.6s-6.676 0.976-6.649 1.959c0.026 0.983 3.046 1.699 6.745 1.6z" fill="#2D353A"/>
<path d="m374.43 329.34-5.54 0.15-0.28-10.62c-0.04-1.53 1.17-2.81 2.7-2.85s2.81 1.17 2.85 2.7l0.27 10.62z" fill="#363E44"/>
</g>
<rect x="404.5" y="306.5" width="41.998" height="5.0198" rx="2.5099" fill="#fff" stroke="#B5CBE3"/>
<defs>
<filter id="a" x="0" y="0" width="502.9" height="502.04" color-interpolation-filters="sRGB" filterUnits="userSpaceOnUse">
<feFlood flood-opacity="0" result="BackgroundImageFix"/>
<feColorMatrix in="SourceAlpha" result="hardAlpha" values="0 0 0 0 0 0 0 0 0 0 0 0 0 0 0 0 0 0 127 0"/>
<feOffset/>
<feGaussianBlur stdDeviation="35"/>
<feComposite in2="hardAlpha" operator="out"/>
<feColorMatrix values="0 0 0 0 0.243137 0 0 0 0 0.588235 0 0 0 0 0.956863 0 0 0 0.1 0"/>
<feBlend in2="BackgroundImageFix" result="effect1_dropShadow_1_1866"/>
<feBlend in="SourceGraphic" in2="effect1_dropShadow_1_1866" result="shape"/>
<feColorMatrix in="SourceAlpha" result="hardAlpha" values="0 0 0 0 0 0 0 0 0 0 0 0 0 0 0 0 0 0 127 0"/>
<feOffset/>
<feGaussianBlur stdDeviation="35"/>
<feComposite in2="hardAlpha" k2="-1" k3="1" operator="arithmetic"/>
<feColorMatrix values="0 0 0 0 0.243137 0 0 0 0 0.588235 0 0 0 0 0.956863 0 0 0 0.05 0"/>
<feBlend in2="shape" result="effect2_innerShadow_1_1866"/>
</filter>
<clipPath id="b">
<rect transform="translate(112 105)" width="270.82" height="260.12" fill="#fff"/>
</clipPath>
</defs>
</svg>
