<svg width="503" height="503" viewBox="0 0 503 503" fill="none" xmlns="http://www.w3.org/2000/svg">
<g filter="url(#filter0_di_1_843)">
<ellipse cx="251.452" cy="251.022" rx="181.452" ry="181.022" fill="white"/>
<path d="M432.405 251.022C432.405 350.721 351.391 431.545 251.452 431.545C151.514 431.545 70.5 350.721 70.5 251.022C70.5 151.324 151.514 70.5 251.452 70.5C351.391 70.5 432.405 151.324 432.405 251.022Z" stroke="#B5CBE3"/>
</g>
<path d="M377.137 351.776H356.471V351.932H377.137V351.776Z" fill="#ECECEC"/>
<path d="M303.079 353.468H297.652V353.624H303.079V353.468Z" fill="#ECECEC"/>
<path d="M355.847 345.972H343.866V346.128H355.847V345.972Z" fill="#ECECEC"/>
<path d="M165.573 347.021H161.62V347.178H165.573V347.021Z" fill="#ECECEC"/>
<path d="M236.883 349.659H178.42V349.815H236.883V349.659Z" fill="#ECECEC"/>
<path d="M244.286 313.872H123.78C121.812 313.872 120.217 312.275 120.217 310.306V140.783C120.217 138.813 121.812 137.217 123.78 137.217H244.286C246.254 137.217 247.849 138.813 247.849 140.783V310.306C247.849 312.267 246.245 313.872 244.286 313.872ZM123.78 137.373C121.899 137.373 120.373 138.9 120.373 140.783V310.306C120.373 312.188 121.899 313.715 123.78 313.715H244.286C246.167 313.715 247.693 312.188 247.693 310.306V140.783C247.693 138.9 246.167 137.373 244.286 137.373H123.78Z" fill="white" stroke="#92C9FF" stroke-width="0.5" stroke-miterlimit="10"/>
<path d="M379.27 313.872H258.763C256.795 313.872 255.2 312.275 255.2 310.306V140.783C255.2 138.813 256.795 137.217 258.763 137.217H379.27C381.237 137.217 382.833 138.813 382.833 140.783V310.306C382.824 312.267 381.229 313.872 379.27 313.872ZM258.763 137.373C256.882 137.373 255.356 138.9 255.356 140.783V310.306C255.356 312.188 256.882 313.715 258.763 313.715H379.27C381.151 313.715 382.677 312.188 382.677 310.306V140.783C382.677 138.9 381.151 137.373 379.27 137.373H258.763Z" fill="white" stroke="#92C9FF" stroke-width="0.5" stroke-miterlimit="10"/>
<path d="M189.473 254.426H175.49V313.733H189.473V254.426Z" fill="#D4EAFF"/>
<path d="M212.775 234.203H198.792V313.733H212.775V234.203Z" fill="#D4EAFF"/>
<path d="M236.077 254.426H222.094V313.733H236.077V254.426Z" fill="#D4EAFF"/>
<path d="M142.869 274.64H128.886V313.724H142.869V274.64Z" fill="#D4EAFF"/>
<path d="M166.171 264.88H152.188V313.733H166.171V264.88Z" fill="#D4EAFF"/>
<path d="M259.379 274.64H245.396V313.724H259.379V274.64Z" fill="#D4EAFF"/>
<path d="M375.889 213.979H361.906V313.733H375.889V213.979Z" fill="#D4EAFF"/>
<path d="M282.681 254.426H268.698V313.733H282.681V254.426Z" fill="#D4EAFF"/>
<path d="M352.587 234.203H338.604V313.733H352.587V234.203Z" fill="#D4EAFF"/>
<path d="M329.285 244.657H315.302V313.724H329.285V244.657Z" fill="#D4EAFF"/>
<path d="M305.983 264.88H292V313.733H305.983V264.88Z" fill="#D4EAFF"/>
<path d="M148.245 237.805C149.483 232.559 146.237 227.303 140.995 226.064C135.753 224.825 130.5 228.074 129.262 233.32C128.025 238.565 131.271 243.822 136.513 245.061C141.754 246.3 147.007 243.051 148.245 237.805Z" fill="#E1E1E1"/>
<path d="M146.82 242.459C150.629 238.647 150.629 232.467 146.82 228.656C143.012 224.844 136.837 224.844 133.028 228.656C129.22 232.467 129.22 238.647 133.028 242.459C136.837 246.27 143.012 246.27 146.82 242.459Z" fill="#E7E7E7"/>
<path d="M139.921 242.861C143.952 242.861 147.22 239.59 147.22 235.556C147.22 231.522 143.952 228.251 139.921 228.251C135.89 228.251 132.622 231.522 132.622 235.556C132.622 239.59 135.89 242.861 139.921 242.861Z" fill="#F0F0F0"/>
<path d="M143.129 237.109C143.415 238.723 142.305 239.807 140.303 239.972L140.268 241.308H139.054L139.089 239.972C137.919 239.859 136.835 239.495 136.133 239.035L136.679 237.525C137.407 238.003 138.274 238.306 139.124 238.384L139.176 236.328C137.988 235.99 136.67 235.539 136.41 234.072C136.124 232.459 137.26 231.366 139.297 231.218L139.332 229.882H140.545L140.511 231.227C141.386 231.314 142.218 231.556 142.869 231.921L142.392 233.43C141.811 233.075 141.144 232.875 140.476 232.797L140.424 234.931C141.612 235.27 142.886 235.712 143.129 237.109ZM139.228 234.602L139.271 232.849C138.604 232.979 138.283 233.361 138.352 233.821C138.413 234.203 138.751 234.419 139.228 234.602ZM141.222 237.421C141.161 237.066 140.84 236.849 140.389 236.692L140.355 238.358C140.987 238.219 141.3 237.881 141.222 237.421Z" fill="white"/>
<path d="M234.421 181.02C240.042 181.02 244.598 176.46 244.598 170.835C244.598 165.21 240.042 160.65 234.421 160.65C228.8 160.65 224.244 165.21 224.244 170.835C224.244 176.46 228.8 181.02 234.421 181.02Z" fill="#E1E1E1"/>
<path opacity="0.8" d="M234.291 179.008C238.801 179.008 242.457 175.349 242.457 170.835C242.457 166.322 238.801 162.663 234.291 162.663C229.781 162.663 226.125 166.322 226.125 170.835C226.125 175.349 229.781 179.008 234.291 179.008Z" fill="white"/>
<path d="M234.274 172.345C234.733 172.345 235.106 171.972 235.106 171.512C235.106 171.052 234.733 170.679 234.274 170.679C233.814 170.679 233.441 171.052 233.441 171.512C233.441 171.972 233.814 172.345 234.274 172.345Z" fill="#E1E1E1"/>
<path d="M234.178 171.816L230.667 168.51L231.005 168.146L234.187 171.147L239.9 166.098L240.229 166.471L234.178 171.816Z" fill="#E1E1E1"/>
<path d="M230.31 241.456H189.107V349.954H230.31V241.456Z" fill="#007CFF"/>
<path opacity="0.5" d="M230.44 241.456H199.718V349.954H230.44V241.456Z" fill="black"/>
<path d="M176.225 260.811H135.021V349.963H176.225V260.811Z" fill="#007CFF"/>
<path opacity="0.4" d="M176.225 260.594H145.502V349.963H176.225V260.594Z" fill="black"/>
<path d="M151.059 350.075C151.007 351.403 155.203 352.661 160.439 352.886C165.675 353.112 169.966 352.21 170.027 350.882C170.088 349.555 165.883 348.297 160.647 348.071C155.411 347.854 151.12 348.748 151.059 350.075Z" fill="#007CFF"/>
<path d="M151.158 347.672L151.057 350.073L170.024 350.878L170.126 348.477L151.158 347.672Z" fill="#007CFF"/>
<path d="M151.163 347.672C151.103 349 155.307 350.258 160.543 350.483C165.779 350.709 170.07 349.806 170.131 348.479C170.192 347.152 165.987 345.894 160.751 345.668C155.515 345.451 151.224 346.345 151.163 347.672Z" fill="#007CFF"/>
<path opacity="0.4" d="M151.163 347.672C151.103 349 155.307 350.258 160.543 350.483C165.779 350.709 170.07 349.806 170.131 348.479C170.192 347.152 165.987 345.894 160.751 345.668C155.515 345.451 151.224 346.345 151.163 347.672Z" fill="white"/>
<path d="M152.377 347.629C152.377 347.707 152.403 347.802 152.455 347.863C153.088 347.082 156.555 346.622 160.699 346.796C164.852 346.97 168.267 347.724 168.822 348.557C168.883 348.496 168.917 348.41 168.926 348.332C168.961 347.429 165.294 346.527 160.716 346.336C156.157 346.145 152.412 346.735 152.377 347.629Z" fill="#007CFF"/>
<path opacity="0.4" d="M152.377 347.629C152.377 347.707 152.403 347.802 152.455 347.863C153.088 347.082 156.555 346.622 160.699 346.796C164.852 346.97 168.267 347.724 168.822 348.557C168.883 348.496 168.917 348.41 168.926 348.332C168.961 347.429 165.294 346.527 160.716 346.336C156.157 346.145 152.412 346.735 152.377 347.629Z" fill="#007CFF"/>
<path opacity="0.4" d="M152.455 347.872C153.018 348.705 156.434 349.451 160.578 349.633C164.73 349.806 168.198 349.355 168.822 348.575C168.267 347.742 164.852 346.996 160.699 346.813C156.555 346.631 153.088 347.091 152.455 347.872Z" fill="#007CFF"/>
<path d="M149.065 346.44C149.013 347.768 153.209 349.026 158.445 349.251C163.681 349.477 167.972 348.575 168.033 347.247C168.085 345.92 163.889 344.662 158.653 344.436C153.417 344.211 149.126 345.113 149.065 346.44Z" fill="#007CFF"/>
<path d="M149.173 344.045L149.071 346.446L168.039 347.251L168.14 344.85L149.173 344.045Z" fill="#007CFF"/>
<path d="M149.169 344.037C149.117 345.364 153.313 346.622 158.549 346.848C163.785 347.074 168.076 346.171 168.137 344.844C168.198 343.517 163.993 342.259 158.757 342.033C153.521 341.807 149.23 342.71 149.169 344.037Z" fill="#007CFF"/>
<path opacity="0.4" d="M149.169 344.037C149.117 345.364 153.313 346.622 158.549 346.848C163.785 347.074 168.076 346.171 168.137 344.844C168.198 343.517 163.993 342.259 158.757 342.033C153.521 341.807 149.23 342.71 149.169 344.037Z" fill="white"/>
<path d="M150.383 343.994C150.383 344.072 150.409 344.167 150.461 344.228C151.094 343.447 154.562 342.987 158.705 343.17C162.858 343.343 166.273 344.098 166.828 344.931C166.889 344.87 166.923 344.783 166.932 344.705C166.967 343.803 163.3 342.901 158.723 342.71C154.163 342.51 150.418 343.091 150.383 343.994Z" fill="#007CFF"/>
<path opacity="0.4" d="M150.383 343.994C150.383 344.072 150.409 344.167 150.461 344.228C151.094 343.447 154.562 342.987 158.705 343.17C162.858 343.343 166.273 344.098 166.828 344.931C166.889 344.87 166.923 344.783 166.932 344.705C166.967 343.803 163.3 342.901 158.723 342.71C154.163 342.51 150.418 343.091 150.383 343.994Z" fill="#007CFF"/>
<path opacity="0.4" d="M150.461 344.228C151.025 345.061 154.44 345.807 158.584 345.989C162.736 346.163 166.204 345.712 166.828 344.931C166.273 344.098 162.858 343.352 158.705 343.17C154.562 342.987 151.094 343.447 150.461 344.228Z" fill="#007CFF"/>
<path d="M149.325 342.05C149.265 343.378 153.469 344.636 158.705 344.861C163.941 345.087 168.232 344.185 168.293 342.857C168.345 341.53 164.149 340.272 158.913 340.046C153.677 339.829 149.386 340.723 149.325 342.05Z" fill="#007CFF"/>
<path d="M149.425 339.652L149.323 342.053L168.291 342.859L168.392 340.458L149.425 339.652Z" fill="#007CFF"/>
<path d="M149.429 339.647C149.377 340.975 153.573 342.233 158.809 342.458C164.045 342.684 168.336 341.781 168.397 340.454C168.458 339.127 164.253 337.869 159.017 337.643C153.773 337.426 149.482 338.32 149.429 339.647Z" fill="#007CFF"/>
<path opacity="0.4" d="M149.429 339.647C149.377 340.975 153.573 342.233 158.809 342.458C164.045 342.684 168.336 341.781 168.397 340.454C168.458 339.127 164.253 337.869 159.017 337.643C153.773 337.426 149.482 338.32 149.429 339.647Z" fill="white"/>
<path d="M150.634 339.604C150.634 339.682 150.66 339.777 150.712 339.838C151.345 339.057 154.813 338.597 158.957 338.771C163.109 338.944 166.525 339.699 167.079 340.532C167.14 340.471 167.175 340.385 167.183 340.307C167.218 339.404 163.551 338.502 158.974 338.311C154.423 338.12 150.678 338.71 150.634 339.604Z" fill="#007CFF"/>
<path opacity="0.4" d="M150.634 339.604C150.634 339.682 150.66 339.777 150.712 339.838C151.345 339.057 154.813 338.597 158.957 338.771C163.109 338.944 166.525 339.699 167.079 340.532C167.14 340.471 167.175 340.385 167.183 340.307C167.218 339.404 163.551 338.502 158.974 338.311C154.423 338.12 150.678 338.71 150.634 339.604Z" fill="#007CFF"/>
<path opacity="0.4" d="M150.721 339.847C151.285 340.68 154.7 341.426 158.844 341.608C162.996 341.781 166.464 341.33 167.088 340.549C166.533 339.717 163.118 338.971 158.965 338.788C154.822 338.606 151.354 339.066 150.721 339.847Z" fill="#007CFF"/>
<path d="M147.332 338.415C147.271 339.743 151.475 341.001 156.711 341.226C161.947 341.452 166.239 340.549 166.299 339.222C166.36 337.895 162.155 336.637 156.919 336.411C151.683 336.186 147.392 337.088 147.332 338.415Z" fill="#007CFF"/>
<path d="M147.44 336.022L147.338 338.423L166.305 339.23L166.408 336.829L147.44 336.022Z" fill="#007CFF"/>
<path d="M147.436 336.012C147.375 337.339 151.579 338.597 156.815 338.823C162.051 339.049 166.343 338.146 166.403 336.819C166.455 335.492 162.259 334.234 157.023 334.008C151.787 333.782 147.496 334.685 147.436 336.012Z" fill="#007CFF"/>
<path opacity="0.4" d="M147.436 336.012C147.375 337.339 151.579 338.597 156.815 338.823C162.051 339.049 166.343 338.146 166.403 336.819C166.455 335.492 162.259 334.234 157.023 334.008C151.787 333.782 147.496 334.685 147.436 336.012Z" fill="white"/>
<path d="M148.649 335.969C148.649 336.047 148.675 336.142 148.727 336.203C149.36 335.422 152.828 334.962 156.971 335.145C161.124 335.318 164.539 336.073 165.094 336.906C165.155 336.845 165.19 336.758 165.198 336.68C165.233 335.778 161.566 334.876 156.989 334.685C152.429 334.485 148.684 335.066 148.649 335.969Z" fill="#007CFF"/>
<path opacity="0.4" d="M148.649 335.969C148.649 336.047 148.675 336.142 148.727 336.203C149.36 335.422 152.828 334.962 156.971 335.145C161.124 335.318 164.539 336.073 165.094 336.906C165.155 336.845 165.19 336.758 165.198 336.68C165.233 335.778 161.566 334.876 156.989 334.685C152.429 334.485 148.684 335.066 148.649 335.969Z" fill="#007CFF"/>
<path opacity="0.4" d="M148.727 336.203C149.291 337.036 152.706 337.782 156.85 337.964C161.003 338.138 164.47 337.687 165.094 336.906C164.539 336.073 161.124 335.327 156.971 335.145C152.828 334.962 149.36 335.422 148.727 336.203Z" fill="#007CFF"/>
<path d="M150.374 335.327C150.322 336.654 154.518 337.912 159.754 338.138C164.99 338.363 169.281 337.461 169.342 336.134C169.403 334.806 165.198 333.548 159.962 333.323C154.726 333.106 150.435 333.999 150.374 335.327Z" fill="#007CFF"/>
<path d="M150.476 332.928L150.374 335.329L169.342 336.135L169.444 333.734L150.476 332.928Z" fill="#007CFF"/>
<path d="M150.478 332.924C150.418 334.251 154.622 335.509 159.858 335.734C165.094 335.96 169.385 335.058 169.446 333.73C169.507 332.403 165.302 331.145 160.066 330.919C154.83 330.703 150.539 331.596 150.478 332.924Z" fill="#007CFF"/>
<path opacity="0.4" d="M150.478 332.924C150.418 334.251 154.622 335.509 159.858 335.734C165.094 335.96 169.385 335.058 169.446 333.73C169.507 332.403 165.302 331.145 160.066 330.919C154.83 330.703 150.539 331.596 150.478 332.924Z" fill="white"/>
<path d="M151.692 332.88C151.692 332.958 151.718 333.054 151.77 333.114C152.403 332.334 155.871 331.874 160.014 332.047C164.167 332.221 167.582 332.976 168.137 333.808C168.198 333.748 168.232 333.661 168.241 333.583C168.276 332.681 164.609 331.778 160.032 331.587C155.472 331.397 151.727 331.987 151.692 332.88Z" fill="#007CFF"/>
<path opacity="0.4" d="M151.692 332.88C151.692 332.958 151.718 333.054 151.77 333.114C152.403 332.334 155.871 331.874 160.014 332.047C164.167 332.221 167.582 332.976 168.137 333.808C168.198 333.748 168.232 333.661 168.241 333.583C168.276 332.681 164.609 331.778 160.032 331.587C155.472 331.397 151.727 331.987 151.692 332.88Z" fill="#007CFF"/>
<path opacity="0.4" d="M151.77 333.123C152.334 333.956 155.749 334.702 159.893 334.884C164.045 335.058 167.513 334.607 168.137 333.826C167.582 332.993 164.167 332.247 160.014 332.065C155.871 331.882 152.403 332.342 151.77 333.123Z" fill="#007CFF"/>
<path d="M148.381 331.692C148.32 333.019 152.524 334.277 157.76 334.503C162.996 334.728 167.287 333.826 167.348 332.498C167.409 331.171 163.204 329.913 157.968 329.687C152.732 329.462 148.441 330.364 148.381 331.692Z" fill="#007CFF"/>
<path d="M148.487 329.284L148.386 331.685L167.353 332.491L167.455 330.09L148.487 329.284Z" fill="#007CFF"/>
<path d="M148.485 329.28C148.424 330.607 152.628 331.865 157.864 332.091C163.1 332.316 167.391 331.414 167.452 330.087C167.513 328.759 163.308 327.501 158.072 327.276C152.836 327.059 148.545 327.952 148.485 329.28Z" fill="#007CFF"/>
<path opacity="0.4" d="M148.485 329.28C148.424 330.607 152.628 331.865 157.864 332.091C163.1 332.316 167.391 331.414 167.452 330.087C167.513 328.759 163.308 327.501 158.072 327.276C152.836 327.059 148.545 327.952 148.485 329.28Z" fill="white"/>
<path d="M149.698 329.245C149.698 329.323 149.724 329.419 149.776 329.479C150.409 328.698 153.877 328.239 158.02 328.421C162.173 328.594 165.588 329.349 166.143 330.182C166.204 330.121 166.239 330.035 166.247 329.956C166.282 329.054 162.615 328.152 158.038 327.961C153.478 327.761 149.733 328.343 149.698 329.245Z" fill="#007CFF"/>
<path opacity="0.4" d="M149.698 329.245C149.698 329.323 149.724 329.419 149.776 329.479C150.409 328.698 153.877 328.239 158.02 328.421C162.173 328.594 165.588 329.349 166.143 330.182C166.204 330.121 166.239 330.035 166.247 329.956C166.282 329.054 162.615 328.152 158.038 327.961C153.478 327.761 149.733 328.343 149.698 329.245Z" fill="#007CFF"/>
<path opacity="0.4" d="M149.776 329.479C150.34 330.312 153.755 331.058 157.899 331.24C162.051 331.414 165.519 330.963 166.143 330.182C165.588 329.349 162.173 328.603 158.02 328.421C153.877 328.239 150.409 328.698 149.776 329.479Z" fill="#007CFF"/>
<path d="M122.773 348.913C122.712 350.24 126.916 351.498 132.152 351.724C137.388 351.949 141.68 351.047 141.74 349.72C141.801 348.392 137.596 347.134 132.36 346.909C127.124 346.692 122.833 347.585 122.773 348.913Z" fill="#007CFF"/>
<path d="M122.875 346.51L122.773 348.911L141.741 349.717L141.843 347.316L122.875 346.51Z" fill="#007CFF"/>
<path d="M122.877 346.51C122.816 347.837 127.02 349.095 132.256 349.321C137.492 349.546 141.784 348.644 141.844 347.317C141.905 345.989 137.7 344.731 132.464 344.506C127.228 344.289 122.937 345.182 122.877 346.51Z" fill="#007CFF"/>
<path opacity="0.4" d="M122.877 346.51C122.816 347.837 127.02 349.095 132.256 349.321C137.492 349.546 141.784 348.644 141.844 347.317C141.905 345.989 137.7 344.731 132.464 344.506C127.228 344.289 122.937 345.182 122.877 346.51Z" fill="white"/>
<path d="M124.09 346.466C124.09 346.544 124.116 346.64 124.168 346.701C124.801 345.92 128.269 345.46 132.412 345.642C136.565 345.816 139.98 346.57 140.535 347.403C140.596 347.343 140.631 347.256 140.639 347.178C140.674 346.275 137.007 345.373 132.43 345.182C127.87 344.983 124.125 345.573 124.09 346.466Z" fill="#007CFF"/>
<path opacity="0.4" d="M124.09 346.466C124.09 346.544 124.116 346.64 124.168 346.701C124.801 345.92 128.269 345.46 132.412 345.642C136.565 345.816 139.98 346.57 140.535 347.403C140.596 347.343 140.631 347.256 140.639 347.178C140.674 346.275 137.007 345.373 132.43 345.182C127.87 344.983 124.125 345.573 124.09 346.466Z" fill="#007CFF"/>
<path opacity="0.4" d="M124.168 346.709C124.732 347.542 128.147 348.288 132.291 348.47C136.444 348.644 139.911 348.193 140.535 347.412C139.98 346.579 136.565 345.833 132.412 345.651C128.269 345.469 124.801 345.928 124.168 346.709Z" fill="#007CFF"/>
<path d="M131.025 346.57C130.722 347.863 134.606 349.893 139.703 351.108C144.8 352.322 149.187 352.253 149.49 350.96C149.794 349.668 145.91 347.638 140.813 346.423C135.715 345.217 131.338 345.278 131.025 346.57Z" fill="#007CFF"/>
<path d="M131.594 344.237L131.039 346.575L149.509 350.972L150.065 348.634L131.594 344.237Z" fill="#007CFF"/>
<path d="M131.58 344.228C131.277 345.521 135.16 347.551 140.258 348.765C145.355 349.98 149.742 349.911 150.045 348.618C150.348 347.325 146.465 345.295 141.367 344.08C136.27 342.875 131.892 342.935 131.58 344.228Z" fill="#007CFF"/>
<path opacity="0.4" d="M131.58 344.228C131.277 345.521 135.16 347.551 140.258 348.765C145.355 349.98 149.742 349.911 150.045 348.618C150.348 347.325 146.465 345.295 141.367 344.08C136.27 342.875 131.892 342.935 131.58 344.228Z" fill="white"/>
<path d="M132.777 344.419C132.759 344.497 132.768 344.592 132.811 344.67C133.583 344.028 137.076 344.237 141.107 345.191C145.156 346.154 148.363 347.542 148.753 348.462C148.823 348.418 148.875 348.332 148.892 348.254C149.1 347.377 145.667 345.798 141.211 344.74C136.773 343.681 132.985 343.543 132.777 344.419Z" fill="#007CFF"/>
<path opacity="0.4" d="M132.777 344.419C132.759 344.497 132.768 344.592 132.811 344.67C133.583 344.028 137.076 344.237 141.107 345.191C145.156 346.154 148.363 347.542 148.753 348.462C148.823 348.418 148.875 348.332 148.892 348.254C149.1 347.377 145.667 345.798 141.211 344.74C136.773 343.681 132.985 343.543 132.777 344.419Z" fill="#007CFF"/>
<path opacity="0.4" d="M132.811 344.67C133.21 345.59 136.417 346.978 140.457 347.941C144.506 348.904 147.99 349.112 148.753 348.462C148.363 347.542 145.156 346.154 141.107 345.191C137.076 344.228 133.583 344.02 132.811 344.67Z" fill="#007CFF"/>
<path d="M155.099 330.902C159.824 330.902 163.655 327.068 163.655 322.339C163.655 317.61 159.824 313.776 155.099 313.776C150.374 313.776 146.543 317.61 146.543 322.339C146.543 327.068 150.374 330.902 155.099 330.902Z" fill="#007CFF"/>
<path d="M156.122 330.902C160.847 330.902 164.678 327.068 164.678 322.339C164.678 317.61 160.847 313.776 156.122 313.776C151.396 313.776 147.566 317.61 147.566 322.339C147.566 327.068 151.396 330.902 156.122 330.902Z" fill="#007CFF"/>
<path opacity="0.5" d="M156.122 330.902C160.847 330.902 164.678 327.068 164.678 322.339C164.678 317.61 160.847 313.776 156.122 313.776C151.396 313.776 147.566 317.61 147.566 322.339C147.566 327.068 151.396 330.902 156.122 330.902Z" fill="white"/>
<path d="M160.644 326.868C163.142 324.367 163.142 320.314 160.644 317.813C158.145 315.313 154.095 315.313 151.596 317.813C149.098 320.314 149.098 324.367 151.596 326.868C154.095 329.368 158.145 329.368 160.644 326.868Z" fill="#007CFF"/>
<g opacity="0.3">
<path d="M159.789 321.784C160.777 322.834 160.482 324.152 159.104 325.246L159.72 326.243L158.835 326.833L158.211 325.835C157.301 326.321 156.33 326.582 155.602 326.582L155.281 325.211C156.044 325.211 156.824 325.011 157.483 324.664L156.529 323.137C155.498 323.458 154.319 323.771 153.417 322.816C152.429 321.767 152.732 320.422 154.154 319.337L153.539 318.34L154.423 317.75L155.047 318.756C155.732 318.392 156.451 318.175 157.102 318.123L157.474 319.459C156.876 319.485 156.287 319.65 155.766 319.927L156.763 321.515C157.786 321.177 158.931 320.882 159.789 321.784ZM155.723 321.845L154.917 320.543C154.492 320.96 154.44 321.394 154.709 321.697C154.934 321.94 155.29 321.94 155.723 321.845ZM158.541 322.938C158.324 322.712 157.986 322.704 157.578 322.808L158.35 324.04C158.749 323.641 158.818 323.241 158.541 322.938Z" fill="white"/>
</g>
<path d="M205.188 348.574C205.136 349.902 209.332 351.16 214.568 351.385C219.804 351.611 224.095 350.709 224.156 349.381C224.216 348.054 220.012 346.796 214.776 346.57C209.54 346.354 205.249 347.247 205.188 348.574Z" fill="#007CFF"/>
<path d="M205.284 346.171L205.182 348.572L224.15 349.378L224.252 346.977L205.284 346.171Z" fill="#007CFF"/>
<path d="M205.292 346.171C205.231 347.499 209.436 348.757 214.672 348.982C219.908 349.208 224.199 348.306 224.26 346.978C224.32 345.651 220.116 344.393 214.88 344.167C209.635 343.95 205.344 344.844 205.292 346.171Z" fill="#007CFF"/>
<path opacity="0.4" d="M205.292 346.171C205.231 347.499 209.436 348.757 214.672 348.982C219.908 349.208 224.199 348.306 224.26 346.978C224.32 345.651 220.116 344.393 214.88 344.167C209.635 343.95 205.344 344.844 205.292 346.171Z" fill="white"/>
<path d="M206.506 346.137C206.506 346.215 206.532 346.31 206.584 346.371C207.217 345.59 210.684 345.13 214.828 345.304C218.98 345.477 222.396 346.232 222.951 347.065C223.011 347.004 223.046 346.917 223.055 346.839C223.089 345.937 219.422 345.035 214.845 344.844C210.285 344.644 206.54 345.234 206.506 346.137Z" fill="#007CFF"/>
<path opacity="0.4" d="M206.506 346.137C206.506 346.215 206.532 346.31 206.584 346.371C207.217 345.59 210.684 345.13 214.828 345.304C218.98 345.477 222.396 346.232 222.951 347.065C223.011 347.004 223.046 346.917 223.055 346.839C223.089 345.937 219.422 345.035 214.845 344.844C210.285 344.644 206.54 345.234 206.506 346.137Z" fill="#007CFF"/>
<path opacity="0.4" d="M206.584 346.371C207.147 347.204 210.563 347.95 214.706 348.132C218.859 348.306 222.326 347.854 222.951 347.074C222.396 346.241 218.98 345.495 214.828 345.312C210.684 345.13 207.217 345.59 206.584 346.371Z" fill="#007CFF"/>
<path d="M203.194 344.939C203.142 346.267 207.338 347.525 212.574 347.75C217.81 347.976 222.101 347.074 222.162 345.746C222.214 344.419 218.018 343.161 212.782 342.935C207.546 342.718 203.255 343.612 203.194 344.939Z" fill="#007CFF"/>
<path d="M203.301 342.544L203.199 344.945L222.167 345.751L222.269 343.35L203.301 342.544Z" fill="#007CFF"/>
<path d="M203.298 342.536C203.246 343.864 207.442 345.122 212.678 345.347C217.914 345.573 222.205 344.67 222.266 343.343C222.326 342.016 218.122 340.758 212.886 340.532C207.65 340.307 203.359 341.209 203.298 342.536Z" fill="#007CFF"/>
<path opacity="0.4" d="M203.298 342.536C203.246 343.864 207.442 345.122 212.678 345.347C217.914 345.573 222.205 344.67 222.266 343.343C222.326 342.016 218.122 340.758 212.886 340.532C207.65 340.307 203.359 341.209 203.298 342.536Z" fill="white"/>
<path d="M204.512 342.493C204.512 342.571 204.538 342.666 204.59 342.727C205.223 341.946 208.69 341.486 212.834 341.669C216.986 341.842 220.402 342.597 220.957 343.43C221.017 343.369 221.052 343.282 221.061 343.204C221.095 342.302 217.429 341.4 212.851 341.209C208.291 341.009 204.547 341.591 204.512 342.493Z" fill="#007CFF"/>
<path opacity="0.4" d="M204.512 342.493C204.512 342.571 204.538 342.666 204.59 342.727C205.223 341.946 208.69 341.486 212.834 341.669C216.986 341.842 220.402 342.597 220.957 343.43C221.017 343.369 221.052 343.282 221.061 343.204C221.095 342.302 217.429 341.4 212.851 341.209C208.291 341.009 204.547 341.591 204.512 342.493Z" fill="#007CFF"/>
<path opacity="0.4" d="M204.59 342.727C205.153 343.56 208.569 344.306 212.713 344.488C216.865 344.662 220.333 344.211 220.957 343.43C220.402 342.597 216.986 341.851 212.834 341.669C208.69 341.486 205.223 341.946 204.59 342.727Z" fill="#007CFF"/>
<path d="M203.454 340.549C203.394 341.877 207.598 343.135 212.834 343.36C218.07 343.586 222.361 342.684 222.422 341.356C222.474 340.029 218.278 338.771 213.042 338.545C207.806 338.328 203.515 339.222 203.454 340.549Z" fill="#007CFF"/>
<path d="M203.552 338.152L203.45 340.553L222.418 341.358L222.52 338.957L203.552 338.152Z" fill="#007CFF"/>
<path d="M203.558 338.146C203.506 339.474 207.702 340.732 212.938 340.957C218.174 341.183 222.465 340.281 222.526 338.953C222.587 337.626 218.382 336.368 213.146 336.142C207.901 335.925 203.61 336.819 203.558 338.146Z" fill="#007CFF"/>
<path opacity="0.4" d="M203.558 338.146C203.506 339.474 207.702 340.732 212.938 340.957C218.174 341.183 222.465 340.281 222.526 338.953C222.587 337.626 218.382 336.368 213.146 336.142C207.901 335.925 203.61 336.819 203.558 338.146Z" fill="white"/>
<path d="M204.763 338.112C204.763 338.19 204.789 338.285 204.841 338.346C205.474 337.565 208.942 337.105 213.085 337.279C217.238 337.452 220.653 338.207 221.208 339.04C221.269 338.979 221.304 338.892 221.312 338.814C221.347 337.912 217.68 337.01 213.103 336.819C208.552 336.619 204.807 337.209 204.763 338.112Z" fill="#007CFF"/>
<path opacity="0.4" d="M204.763 338.112C204.763 338.19 204.789 338.285 204.841 338.346C205.474 337.565 208.942 337.105 213.085 337.279C217.238 337.452 220.653 338.207 221.208 339.04C221.269 338.979 221.304 338.892 221.312 338.814C221.347 337.912 217.68 337.01 213.103 336.819C208.552 336.619 204.807 337.209 204.763 338.112Z" fill="#007CFF"/>
<path opacity="0.4" d="M204.85 338.346C205.413 339.179 208.829 339.925 212.973 340.107C217.125 340.281 220.593 339.829 221.217 339.049C220.662 338.216 217.246 337.47 213.094 337.287C208.95 337.105 205.483 337.565 204.85 338.346Z" fill="#007CFF"/>
<path d="M201.46 336.914C201.4 338.242 205.604 339.5 210.84 339.725C216.076 339.951 220.367 339.049 220.428 337.721C220.489 336.394 216.284 335.136 211.048 334.91C205.812 334.693 201.521 335.587 201.46 336.914Z" fill="#007CFF"/>
<path d="M201.57 334.521L201.468 336.922L220.435 337.73L220.537 335.329L201.57 334.521Z" fill="#007CFF"/>
<path d="M201.564 334.511C201.504 335.839 205.708 337.097 210.944 337.322C216.18 337.548 220.471 336.645 220.532 335.318C220.584 333.991 216.388 332.733 211.152 332.507C205.916 332.282 201.625 333.184 201.564 334.511Z" fill="#007CFF"/>
<path opacity="0.4" d="M201.564 334.511C201.504 335.839 205.708 337.097 210.944 337.322C216.18 337.548 220.471 336.645 220.532 335.318C220.584 333.991 216.388 332.733 211.152 332.507C205.916 332.282 201.625 333.184 201.564 334.511Z" fill="white"/>
<path d="M202.778 334.468C202.778 334.546 202.804 334.641 202.856 334.702C203.489 333.921 206.956 333.461 211.1 333.644C215.253 333.817 218.668 334.572 219.223 335.405C219.284 335.344 219.318 335.257 219.327 335.179C219.362 334.277 215.695 333.375 211.118 333.184C206.558 332.984 202.813 333.566 202.778 334.468Z" fill="#007CFF"/>
<path opacity="0.4" d="M202.778 334.468C202.778 334.546 202.804 334.641 202.856 334.702C203.489 333.921 206.956 333.461 211.1 333.644C215.253 333.817 218.668 334.572 219.223 335.405C219.284 335.344 219.318 335.257 219.327 335.179C219.362 334.277 215.695 333.375 211.118 333.184C206.558 332.984 202.813 333.566 202.778 334.468Z" fill="#007CFF"/>
<path opacity="0.4" d="M202.856 334.702C203.42 335.535 206.835 336.281 210.979 336.463C215.131 336.637 218.599 336.186 219.223 335.405C218.668 334.572 215.253 333.826 211.1 333.644C206.956 333.461 203.489 333.921 202.856 334.702Z" fill="#007CFF"/>
<path d="M204.503 333.826C204.451 335.153 208.647 336.411 213.883 336.637C219.119 336.862 223.41 335.96 223.471 334.633C223.531 333.305 219.327 332.047 214.091 331.822C208.855 331.605 204.564 332.498 204.503 333.826Z" fill="#007CFF"/>
<path d="M204.604 331.428L204.502 333.829L223.47 334.634L223.571 332.233L204.604 331.428Z" fill="#007CFF"/>
<path d="M204.607 331.423C204.547 332.75 208.751 334.008 213.987 334.234C219.223 334.459 223.514 333.557 223.575 332.229C223.635 330.902 219.431 329.644 214.195 329.419C208.959 329.202 204.668 330.095 204.607 331.423Z" fill="#007CFF"/>
<path opacity="0.4" d="M204.607 331.423C204.547 332.75 208.751 334.008 213.987 334.234C219.223 334.459 223.514 333.557 223.575 332.229C223.635 330.902 219.431 329.644 214.195 329.419C208.959 329.202 204.668 330.095 204.607 331.423Z" fill="white"/>
<path d="M205.821 331.379C205.821 331.457 205.847 331.553 205.899 331.614C206.532 330.833 209.999 330.373 214.143 330.546C218.295 330.72 221.711 331.475 222.266 332.308C222.326 332.247 222.361 332.16 222.37 332.082C222.404 331.18 218.737 330.277 214.16 330.087C209.6 329.896 205.855 330.486 205.821 331.379Z" fill="#007CFF"/>
<path opacity="0.4" d="M205.821 331.379C205.821 331.457 205.847 331.553 205.899 331.614C206.532 330.833 209.999 330.373 214.143 330.546C218.295 330.72 221.711 331.475 222.266 332.308C222.326 332.247 222.361 332.16 222.37 332.082C222.404 331.18 218.737 330.277 214.16 330.087C209.6 329.896 205.855 330.486 205.821 331.379Z" fill="#007CFF"/>
<path opacity="0.4" d="M205.899 331.622C206.462 332.455 209.878 333.201 214.022 333.383C218.174 333.557 221.642 333.106 222.266 332.325C221.711 331.492 218.295 330.746 214.143 330.564C209.999 330.382 206.532 330.841 205.899 331.622Z" fill="#007CFF"/>
<path d="M202.509 330.191C202.449 331.518 206.653 332.776 211.889 333.002C217.125 333.227 221.416 332.325 221.477 330.998C221.538 329.67 217.333 328.412 212.097 328.187C206.861 327.961 202.57 328.863 202.509 330.191Z" fill="#007CFF"/>
<path d="M202.613 327.784L202.511 330.185L221.479 330.99L221.581 328.589L202.613 327.784Z" fill="#007CFF"/>
<path d="M202.613 327.788C202.553 329.115 206.757 330.373 211.993 330.598C217.229 330.824 221.52 329.922 221.581 328.594C221.642 327.267 217.437 326.009 212.201 325.783C206.965 325.558 202.674 326.451 202.613 327.788Z" fill="#007CFF"/>
<path opacity="0.4" d="M202.613 327.788C202.553 329.115 206.757 330.373 211.993 330.598C217.229 330.824 221.52 329.922 221.581 328.594C221.642 327.267 217.437 326.009 212.201 325.783C206.965 325.558 202.674 326.451 202.613 327.788Z" fill="white"/>
<path d="M203.827 327.744C203.827 327.822 203.853 327.918 203.905 327.978C204.538 327.198 208.005 326.738 212.149 326.92C216.302 327.093 219.717 327.848 220.272 328.681C220.333 328.62 220.367 328.534 220.376 328.456C220.411 327.553 216.744 326.651 212.166 326.46C207.607 326.261 203.862 326.842 203.827 327.744Z" fill="#007CFF"/>
<path opacity="0.4" d="M203.827 327.744C203.827 327.822 203.853 327.918 203.905 327.978C204.538 327.198 208.005 326.738 212.149 326.92C216.302 327.093 219.717 327.848 220.272 328.681C220.333 328.62 220.367 328.534 220.376 328.456C220.411 327.553 216.744 326.651 212.166 326.46C207.607 326.261 203.862 326.842 203.827 327.744Z" fill="#007CFF"/>
<path opacity="0.4" d="M203.905 327.978C204.469 328.811 207.884 329.557 212.028 329.74C216.18 329.913 219.648 329.462 220.272 328.681C219.717 327.848 216.302 327.102 212.149 326.92C208.005 326.738 204.538 327.198 203.905 327.978Z" fill="#007CFF"/>
<path d="M223.462 327.605C223.514 328.933 219.318 330.191 214.082 330.416C208.846 330.642 204.555 329.74 204.494 328.412C204.434 327.085 208.638 325.827 213.874 325.601C219.11 325.376 223.401 326.278 223.462 327.605Z" fill="#007CFF"/>
<path d="M223.353 325.203L204.385 326.009L204.487 328.41L223.454 327.604L223.353 325.203Z" fill="#007CFF"/>
<path d="M223.358 325.202C223.419 326.53 219.215 327.788 213.978 328.013C208.742 328.239 204.451 327.336 204.391 326.009C204.33 324.682 208.534 323.424 213.77 323.198C219.015 322.972 223.306 323.875 223.358 325.202Z" fill="#007CFF"/>
<path opacity="0.4" d="M223.358 325.202C223.419 326.53 219.215 327.788 213.978 328.013C208.742 328.239 204.451 327.336 204.391 326.009C204.33 324.682 208.534 323.424 213.77 323.198C219.015 322.972 223.306 323.875 223.358 325.202Z" fill="white"/>
<path d="M222.153 325.159C222.153 325.237 222.127 325.332 222.075 325.393C221.442 324.612 217.975 324.152 213.831 324.326C209.678 324.499 206.263 325.254 205.708 326.087C205.647 326.026 205.613 325.94 205.604 325.862C205.569 324.959 209.236 324.057 213.814 323.866C218.365 323.675 222.11 324.257 222.153 325.159Z" fill="#007CFF"/>
<path opacity="0.4" d="M222.153 325.159C222.153 325.237 222.127 325.332 222.075 325.393C221.442 324.612 217.975 324.152 213.831 324.326C209.678 324.499 206.263 325.254 205.708 326.087C205.647 326.026 205.613 325.94 205.604 325.862C205.569 324.959 209.236 324.057 213.814 323.866C218.365 323.675 222.11 324.257 222.153 325.159Z" fill="#007CFF"/>
<path opacity="0.4" d="M222.066 325.393C221.503 326.226 218.087 326.972 213.944 327.154C209.791 327.328 206.324 326.877 205.699 326.096C206.254 325.263 209.67 324.517 213.822 324.335C217.966 324.152 221.434 324.612 222.066 325.393Z" fill="#007CFF"/>
<path d="M225.456 323.962C225.508 325.289 221.312 326.547 216.076 326.772C210.84 326.998 206.549 326.096 206.488 324.768C206.436 323.441 210.632 322.183 215.868 321.957C221.104 321.741 225.395 322.634 225.456 323.962Z" fill="#007CFF"/>
<path d="M225.356 321.554L206.388 322.359L206.49 324.76L225.457 323.955L225.356 321.554Z" fill="#007CFF"/>
<path d="M225.352 321.558C225.404 322.886 221.208 324.144 215.972 324.369C210.736 324.595 206.445 323.693 206.384 322.365C206.324 321.038 210.528 319.78 215.764 319.554C221.009 319.337 225.3 320.231 225.352 321.558Z" fill="#007CFF"/>
<path opacity="0.4" d="M225.352 321.558C225.404 322.886 221.208 324.144 215.972 324.369C210.736 324.595 206.445 323.693 206.384 322.365C206.324 321.038 210.528 319.78 215.764 319.554C221.009 319.337 225.3 320.231 225.352 321.558Z" fill="white"/>
<path d="M224.147 321.515C224.147 321.593 224.121 321.688 224.069 321.749C223.436 320.968 219.968 320.509 215.825 320.691C211.672 320.864 208.257 321.619 207.702 322.452C207.641 322.391 207.607 322.304 207.598 322.226C207.563 321.324 211.23 320.422 215.807 320.231C220.359 320.031 224.104 320.621 224.147 321.515Z" fill="#007CFF"/>
<path opacity="0.4" d="M224.147 321.515C224.147 321.593 224.121 321.688 224.069 321.749C223.436 320.968 219.968 320.509 215.825 320.691C211.672 320.864 208.257 321.619 207.702 322.452C207.641 322.391 207.607 322.304 207.598 322.226C207.563 321.324 211.23 320.422 215.807 320.231C220.359 320.031 224.104 320.621 224.147 321.515Z" fill="#007CFF"/>
<path opacity="0.4" d="M224.06 321.758C223.497 322.591 220.081 323.337 215.937 323.519C211.785 323.693 208.317 323.241 207.693 322.461C208.248 321.628 211.664 320.882 215.816 320.699C219.96 320.517 223.427 320.977 224.06 321.758Z" fill="#007CFF"/>
<path d="M225.196 319.58C225.257 320.908 221.052 322.166 215.816 322.391C210.58 322.617 206.289 321.715 206.228 320.387C206.176 319.06 210.372 317.802 215.608 317.576C220.853 317.359 225.144 318.253 225.196 319.58Z" fill="#007CFF"/>
<path d="M225.1 317.175L206.132 317.981L206.234 320.382L225.202 319.576L225.1 317.175Z" fill="#007CFF"/>
<path d="M225.092 317.177C225.144 318.504 220.948 319.762 215.712 319.988C210.476 320.214 206.185 319.311 206.124 317.984C206.064 316.657 210.268 315.399 215.504 315.173C220.749 314.947 225.04 315.85 225.092 317.177Z" fill="#007CFF"/>
<path opacity="0.4" d="M225.092 317.177C225.144 318.504 220.948 319.762 215.712 319.988C210.476 320.214 206.185 319.311 206.124 317.984C206.064 316.657 210.268 315.399 215.504 315.173C220.749 314.947 225.04 315.85 225.092 317.177Z" fill="white"/>
<path d="M223.887 317.134C223.887 317.212 223.861 317.307 223.809 317.368C223.176 316.587 219.708 316.127 215.565 316.301C211.412 316.474 207.997 317.229 207.442 318.062C207.381 318.001 207.347 317.915 207.338 317.836C207.303 316.934 210.97 316.032 215.547 315.841C220.099 315.65 223.844 316.231 223.887 317.134Z" fill="#007CFF"/>
<path opacity="0.4" d="M223.887 317.134C223.887 317.212 223.861 317.307 223.809 317.368C223.176 316.587 219.708 316.127 215.565 316.301C211.412 316.474 207.997 317.229 207.442 318.062C207.381 318.001 207.347 317.915 207.338 317.836C207.303 316.934 210.97 316.032 215.547 315.841C220.099 315.65 223.844 316.231 223.887 317.134Z" fill="#007CFF"/>
<path opacity="0.4" d="M223.8 317.368C223.237 318.201 219.821 318.947 215.677 319.129C211.525 319.303 208.057 318.852 207.433 318.071C207.988 317.238 211.404 316.492 215.556 316.31C219.7 316.127 223.167 316.587 223.8 317.368Z" fill="#007CFF"/>
<path d="M227.19 315.936C227.25 317.264 223.046 318.522 217.81 318.747C212.574 318.973 208.283 318.071 208.222 316.743C208.161 315.416 212.366 314.158 217.602 313.932C222.838 313.716 227.129 314.609 227.19 315.936Z" fill="#007CFF"/>
<path d="M227.094 313.526L208.126 314.333L208.228 316.734L227.196 315.927L227.094 313.526Z" fill="#007CFF"/>
<path d="M227.086 313.533C227.146 314.861 222.942 316.119 217.706 316.344C212.47 316.57 208.179 315.668 208.118 314.34C208.066 313.013 212.262 311.755 217.498 311.529C222.743 311.312 227.034 312.206 227.086 313.533Z" fill="#007CFF"/>
<path opacity="0.4" d="M227.086 313.533C227.146 314.861 222.942 316.119 217.706 316.344C212.47 316.57 208.179 315.668 208.118 314.34C208.066 313.013 212.262 311.755 217.498 311.529C222.743 311.312 227.034 312.206 227.086 313.533Z" fill="white"/>
<path d="M225.881 313.49C225.881 313.568 225.855 313.663 225.803 313.724C225.17 312.943 221.702 312.484 217.559 312.666C213.406 312.839 209.991 313.594 209.436 314.427C209.375 314.366 209.34 314.279 209.332 314.201C209.297 313.299 212.964 312.397 217.541 312.206C222.092 312.006 225.837 312.596 225.881 313.49Z" fill="#007CFF"/>
<path opacity="0.4" d="M225.881 313.49C225.881 313.568 225.855 313.663 225.803 313.724C225.17 312.943 221.702 312.484 217.559 312.666C213.406 312.839 209.991 313.594 209.436 314.427C209.375 314.366 209.34 314.279 209.332 314.201C209.297 313.299 212.964 312.397 217.541 312.206C222.092 312.006 225.837 312.596 225.881 313.49Z" fill="#007CFF"/>
<path opacity="0.4" d="M225.794 313.733C225.231 314.566 221.815 315.312 217.671 315.494C213.519 315.668 210.051 315.216 209.427 314.436C209.982 313.603 213.397 312.857 217.55 312.674C221.694 312.492 225.161 312.952 225.794 313.733Z" fill="#007CFF"/>
<path d="M224.147 312.857C224.199 314.184 220.003 315.442 214.767 315.668C209.531 315.893 205.24 314.991 205.179 313.663C205.127 312.336 209.323 311.078 214.559 310.853C219.795 310.627 224.086 311.529 224.147 312.857Z" fill="#007CFF"/>
<path d="M224.047 310.449L205.079 311.254L205.181 313.655L224.149 312.85L224.047 310.449Z" fill="#007CFF"/>
<path d="M224.043 310.453C224.104 311.781 219.899 313.039 214.663 313.264C209.427 313.49 205.136 312.588 205.075 311.26C205.015 309.933 209.219 308.675 214.455 308.449C219.7 308.224 223.991 309.117 224.043 310.453Z" fill="#007CFF"/>
<path opacity="0.4" d="M224.043 310.453C224.104 311.781 219.899 313.039 214.663 313.264C209.427 313.49 205.136 312.588 205.075 311.26C205.015 309.933 209.219 308.675 214.455 308.449C219.7 308.224 223.991 309.117 224.043 310.453Z" fill="white"/>
<path d="M222.838 310.41C222.838 310.488 222.812 310.584 222.76 310.644C222.127 309.863 218.659 309.404 214.516 309.577C210.363 309.751 206.948 310.505 206.393 311.338C206.332 311.278 206.298 311.191 206.289 311.113C206.254 310.211 209.921 309.308 214.498 309.117C219.05 308.927 222.795 309.508 222.838 310.41Z" fill="#007CFF"/>
<path opacity="0.4" d="M222.838 310.41C222.838 310.488 222.812 310.584 222.76 310.644C222.127 309.863 218.659 309.404 214.516 309.577C210.363 309.751 206.948 310.505 206.393 311.338C206.332 311.278 206.298 311.191 206.289 311.113C206.254 310.211 209.921 309.308 214.498 309.117C219.05 308.927 222.795 309.508 222.838 310.41Z" fill="#007CFF"/>
<path opacity="0.4" d="M222.751 310.644C222.188 311.477 218.772 312.223 214.628 312.405C210.476 312.579 207.008 312.128 206.384 311.347C206.939 310.514 210.355 309.768 214.507 309.586C218.651 309.404 222.118 309.863 222.751 310.644Z" fill="#007CFF"/>
<path d="M226.141 309.213C226.201 310.54 221.997 311.798 216.761 312.024C211.525 312.249 207.234 311.347 207.173 310.02C207.112 308.692 211.317 307.434 216.553 307.209C221.789 306.992 226.08 307.885 226.141 309.213Z" fill="#007CFF"/>
<path d="M226.032 306.811L207.064 307.616L207.166 310.017L226.134 309.212L226.032 306.811Z" fill="#007CFF"/>
<path d="M226.037 306.81C226.098 308.137 221.893 309.395 216.657 309.621C211.421 309.846 207.13 308.944 207.069 307.616C207.009 306.289 211.213 305.031 216.449 304.806C221.694 304.589 225.985 305.482 226.037 306.81Z" fill="#007CFF"/>
<path opacity="0.4" d="M226.037 306.81C226.098 308.137 221.893 309.395 216.657 309.621C211.421 309.846 207.13 308.944 207.069 307.616C207.009 306.289 211.213 305.031 216.449 304.806C221.694 304.589 225.985 305.482 226.037 306.81Z" fill="white"/>
<path d="M224.823 306.766C224.823 306.844 224.797 306.94 224.745 307.001C224.112 306.22 220.645 305.76 216.501 305.933C212.348 306.107 208.933 306.862 208.378 307.695C208.317 307.634 208.283 307.547 208.274 307.469C208.239 306.567 211.906 305.664 216.484 305.474C221.043 305.283 224.788 305.873 224.823 306.766Z" fill="#007CFF"/>
<path opacity="0.4" d="M224.823 306.766C224.823 306.844 224.797 306.94 224.745 307.001C224.112 306.22 220.645 305.76 216.501 305.933C212.348 306.107 208.933 306.862 208.378 307.695C208.317 307.634 208.283 307.547 208.274 307.469C208.239 306.567 211.906 305.664 216.484 305.474C221.043 305.283 224.788 305.873 224.823 306.766Z" fill="#007CFF"/>
<path opacity="0.4" d="M224.745 307.001C224.182 307.833 220.766 308.579 216.622 308.762C212.47 308.935 209.002 308.484 208.378 307.703C208.933 306.87 212.348 306.124 216.501 305.942C220.645 305.769 224.112 306.22 224.745 307.001Z" fill="#007CFF"/>
<path d="M218.247 306.473C222.671 304.813 224.913 299.877 223.254 295.449C221.595 291.021 216.663 288.778 212.238 290.438C207.814 292.099 205.572 297.034 207.231 301.462C208.89 305.89 213.822 308.133 218.247 306.473Z" fill="#007CFF"/>
<path d="M222.704 304.44C225.766 300.838 225.332 295.434 221.733 292.369C218.134 289.304 212.734 289.739 209.671 293.341C206.608 296.943 207.043 302.347 210.642 305.412C214.241 308.477 219.641 308.042 222.704 304.44Z" fill="#007CFF"/>
<path opacity="0.4" d="M222.704 304.44C225.766 300.838 225.332 295.434 221.733 292.369C218.134 289.304 212.734 289.739 209.671 293.341C206.608 296.943 207.043 302.347 210.642 305.412C214.241 308.477 219.641 308.042 222.704 304.44Z" fill="white"/>
<path d="M222.006 301.535C220.541 304.753 216.752 306.176 213.527 304.719C210.311 303.253 208.89 299.461 210.346 296.234C211.811 293.015 215.599 291.592 218.824 293.05C222.049 294.525 223.471 298.316 222.006 301.535Z" fill="#007CFF"/>
<path d="M183.854 350.691C183.819 351.49 186.359 352.253 189.515 352.383C192.679 352.513 195.271 351.975 195.305 351.177C195.34 350.379 192.8 349.616 189.645 349.485C186.48 349.347 183.888 349.885 183.854 350.691Z" fill="#007CFF"/>
<path d="M183.922 349.242L183.86 350.689L195.31 351.176L195.372 349.728L183.922 349.242Z" fill="#007CFF"/>
<path d="M183.915 349.234C183.88 350.032 186.42 350.795 189.576 350.926C192.74 351.056 195.332 350.518 195.366 349.72C195.401 348.922 192.861 348.158 189.706 348.028C186.541 347.889 183.949 348.436 183.915 349.234Z" fill="#007CFF"/>
<path opacity="0.4" d="M183.915 349.234C183.88 350.032 186.42 350.795 189.576 350.926C192.74 351.056 195.332 350.518 195.366 349.72C195.401 348.922 192.861 348.158 189.706 348.028C186.541 347.889 183.949 348.436 183.915 349.234Z" fill="white"/>
<path d="M184.651 349.208C184.651 349.251 184.669 349.312 184.703 349.347C185.085 348.878 187.183 348.601 189.679 348.705C192.185 348.809 194.248 349.269 194.586 349.763C194.621 349.728 194.647 349.668 194.647 349.624C194.673 349.078 192.453 348.54 189.688 348.418C186.931 348.314 184.669 348.67 184.651 349.208Z" fill="#007CFF"/>
<path opacity="0.4" d="M184.651 349.208C184.651 349.251 184.669 349.312 184.703 349.347C185.085 348.878 187.183 348.601 189.679 348.705C192.185 348.809 194.248 349.269 194.586 349.763C194.621 349.728 194.647 349.668 194.647 349.624C194.673 349.078 192.453 348.54 189.688 348.418C186.931 348.314 184.669 348.67 184.651 349.208Z" fill="#007CFF"/>
<path opacity="0.4" d="M184.695 349.355C185.033 349.859 187.096 350.31 189.601 350.414C192.107 350.518 194.205 350.24 194.577 349.772C194.239 349.269 192.176 348.817 189.671 348.713C187.174 348.609 185.076 348.878 184.695 349.355Z" fill="#007CFF"/>
<path d="M182.649 348.488C182.614 349.286 185.154 350.049 188.31 350.18C191.474 350.31 194.066 349.772 194.1 348.974C194.135 348.175 191.595 347.412 188.44 347.282C185.276 347.143 182.684 347.69 182.649 348.488Z" fill="#007CFF"/>
<path d="M182.715 347.048L182.653 348.495L194.103 348.983L194.165 347.535L182.715 347.048Z" fill="#007CFF"/>
<path d="M182.718 347.039C182.684 347.837 185.224 348.601 188.379 348.731C191.543 348.861 194.135 348.323 194.17 347.525C194.204 346.727 191.665 345.963 188.509 345.833C185.336 345.694 182.753 346.232 182.718 347.039Z" fill="#007CFF"/>
<path opacity="0.4" d="M182.718 347.039C182.684 347.837 185.224 348.601 188.379 348.731C191.543 348.861 194.135 348.323 194.17 347.525C194.204 346.727 191.665 345.963 188.509 345.833C185.336 345.694 182.753 346.232 182.718 347.039Z" fill="white"/>
<path d="M183.446 347.013C183.446 347.056 183.464 347.117 183.498 347.152C183.88 346.683 185.978 346.406 188.474 346.51C190.98 346.614 193.043 347.074 193.381 347.568C193.416 347.533 193.442 347.473 193.442 347.429C193.468 346.883 191.248 346.345 188.483 346.223C185.726 346.119 183.472 346.466 183.446 347.013Z" fill="#007CFF"/>
<path opacity="0.4" d="M183.446 347.013C183.446 347.056 183.464 347.117 183.498 347.152C183.88 346.683 185.978 346.406 188.474 346.51C190.98 346.614 193.043 347.074 193.381 347.568C193.416 347.533 193.442 347.473 193.442 347.429C193.468 346.883 191.248 346.345 188.483 346.223C185.726 346.119 183.472 346.466 183.446 347.013Z" fill="#007CFF"/>
<path opacity="0.4" d="M183.49 347.152C183.828 347.655 185.891 348.106 188.396 348.21C190.902 348.314 193 348.037 193.372 347.568C193.034 347.065 190.971 346.614 188.466 346.51C185.969 346.406 183.88 346.683 183.49 347.152Z" fill="#007CFF"/>
<path d="M182.805 345.842C182.77 346.64 185.31 347.403 188.466 347.533C191.63 347.664 194.222 347.126 194.256 346.327C194.291 345.529 191.751 344.766 188.596 344.636C185.432 344.497 182.84 345.043 182.805 345.842Z" fill="#007CFF"/>
<path d="M182.872 344.399L182.811 345.847L194.261 346.334L194.322 344.886L182.872 344.399Z" fill="#007CFF"/>
<path d="M182.874 344.393C182.84 345.191 185.38 345.954 188.535 346.085C191.699 346.215 194.291 345.677 194.326 344.879C194.361 344.08 191.821 343.317 188.665 343.187C185.492 343.048 182.909 343.586 182.874 344.393Z" fill="#007CFF"/>
<path opacity="0.4" d="M182.874 344.393C182.84 345.191 185.38 345.954 188.535 346.085C191.699 346.215 194.291 345.677 194.326 344.879C194.361 344.08 191.821 343.317 188.665 343.187C185.492 343.048 182.909 343.586 182.874 344.393Z" fill="white"/>
<path d="M183.602 344.367C183.602 344.41 183.62 344.471 183.654 344.506C184.036 344.037 186.134 343.759 188.63 343.864C191.136 343.968 193.199 344.428 193.537 344.922C193.572 344.887 193.598 344.827 193.598 344.783C193.624 344.237 191.404 343.699 188.639 343.577C185.882 343.465 183.628 343.82 183.602 344.367Z" fill="#007CFF"/>
<path opacity="0.4" d="M183.602 344.367C183.602 344.41 183.62 344.471 183.654 344.506C184.036 344.037 186.134 343.759 188.63 343.864C191.136 343.968 193.199 344.428 193.537 344.922C193.572 344.887 193.598 344.827 193.598 344.783C193.624 344.237 191.404 343.699 188.639 343.577C185.882 343.465 183.628 343.82 183.602 344.367Z" fill="#007CFF"/>
<path opacity="0.4" d="M183.646 344.506C183.984 345.009 186.047 345.46 188.552 345.564C191.058 345.668 193.156 345.391 193.528 344.922C193.19 344.419 191.127 343.968 188.622 343.864C186.125 343.76 184.036 344.037 183.646 344.506Z" fill="#007CFF"/>
<path d="M181.609 343.647C181.574 344.445 184.114 345.208 187.269 345.338C190.433 345.469 193.025 344.931 193.06 344.133C193.095 343.334 190.555 342.571 187.399 342.441C184.235 342.302 181.643 342.84 181.609 343.647Z" fill="#007CFF"/>
<path d="M181.667 342.192L181.606 343.639L193.056 344.125L193.117 342.678L181.667 342.192Z" fill="#007CFF"/>
<path d="M181.669 342.189C181.635 342.987 184.175 343.751 187.33 343.881C190.494 344.011 193.086 343.473 193.121 342.675C193.156 341.877 190.616 341.113 187.46 340.983C184.296 340.844 181.704 341.391 181.669 342.189Z" fill="#007CFF"/>
<path opacity="0.4" d="M181.669 342.189C181.635 342.987 184.175 343.751 187.33 343.881C190.494 344.011 193.086 343.473 193.121 342.675C193.156 341.877 190.616 341.113 187.46 340.983C184.296 340.844 181.704 341.391 181.669 342.189Z" fill="white"/>
<path d="M182.397 342.163C182.397 342.207 182.415 342.267 182.449 342.302C182.831 341.833 184.929 341.556 187.425 341.66C189.931 341.764 191.994 342.224 192.332 342.718C192.367 342.684 192.393 342.623 192.393 342.58C192.419 342.033 190.199 341.495 187.434 341.374C184.686 341.27 182.423 341.625 182.397 342.163Z" fill="#007CFF"/>
<path opacity="0.4" d="M182.397 342.163C182.397 342.207 182.415 342.267 182.449 342.302C182.831 341.833 184.929 341.556 187.425 341.66C189.931 341.764 191.994 342.224 192.332 342.718C192.367 342.684 192.393 342.623 192.393 342.58C192.419 342.033 190.199 341.495 187.434 341.374C184.686 341.27 182.423 341.625 182.397 342.163Z" fill="#007CFF"/>
<path opacity="0.4" d="M182.449 342.311C182.787 342.814 184.851 343.265 187.356 343.369C189.861 343.473 191.959 343.196 192.332 342.727C191.994 342.224 189.931 341.773 187.425 341.669C184.92 341.565 182.831 341.833 182.449 342.311Z" fill="#007CFF"/>
<path d="M183.446 341.781C183.412 342.58 185.952 343.343 189.107 343.473C192.271 343.603 194.863 343.065 194.898 342.267C194.933 341.469 192.393 340.706 189.237 340.575C186.064 340.437 183.481 340.975 183.446 341.781Z" fill="#007CFF"/>
<path d="M183.508 340.339L183.446 341.787L194.896 342.274L194.958 340.827L183.508 340.339Z" fill="#007CFF"/>
<path d="M183.507 340.324C183.473 341.122 186.013 341.886 189.168 342.016C192.332 342.146 194.924 341.608 194.959 340.81C194.994 340.012 192.454 339.248 189.298 339.118C186.134 338.988 183.542 339.526 183.507 340.324Z" fill="#007CFF"/>
<path opacity="0.4" d="M183.507 340.324C183.473 341.122 186.013 341.886 189.168 342.016C192.332 342.146 194.924 341.608 194.959 340.81C194.994 340.012 192.454 339.248 189.298 339.118C186.134 338.988 183.542 339.526 183.507 340.324Z" fill="white"/>
<path d="M184.235 340.307C184.235 340.35 184.253 340.411 184.287 340.445C184.669 339.977 186.767 339.699 189.263 339.803C191.769 339.907 193.832 340.367 194.17 340.862C194.205 340.827 194.231 340.766 194.231 340.723C194.257 340.176 192.037 339.639 189.272 339.517C186.524 339.404 184.261 339.76 184.235 340.307Z" fill="#007CFF"/>
<path opacity="0.4" d="M184.235 340.307C184.235 340.35 184.253 340.411 184.287 340.445C184.669 339.977 186.767 339.699 189.263 339.803C191.769 339.907 193.832 340.367 194.17 340.862C194.205 340.827 194.231 340.766 194.231 340.723C194.257 340.176 192.037 339.639 189.272 339.517C186.524 339.404 184.261 339.76 184.235 340.307Z" fill="#007CFF"/>
<path opacity="0.4" d="M184.287 340.445C184.625 340.949 186.689 341.4 189.194 341.504C191.699 341.608 193.797 341.33 194.17 340.862C193.832 340.359 191.769 339.907 189.263 339.803C186.758 339.699 184.669 339.977 184.287 340.445Z" fill="#007CFF"/>
<path d="M175.367 350.561C175.558 351.342 178.21 351.351 181.279 350.579C184.348 349.806 186.68 348.557 186.489 347.776C186.298 346.996 183.646 346.987 180.577 347.759C177.508 348.522 175.176 349.78 175.367 350.561Z" fill="#007CFF"/>
<path d="M186.124 346.354L175.008 349.14L175.36 350.545L186.476 347.76L186.124 346.354Z" fill="#007CFF"/>
<path d="M175.02 349.147C175.211 349.928 177.864 349.937 180.932 349.164C184.001 348.392 186.333 347.143 186.142 346.362C185.952 345.581 183.299 345.573 180.23 346.345C177.153 347.117 174.821 348.375 175.02 349.147Z" fill="#007CFF"/>
<path opacity="0.4" d="M175.02 349.147C175.211 349.928 177.864 349.937 180.932 349.164C184.001 348.392 186.333 347.143 186.142 346.362C185.952 345.581 183.299 345.573 180.23 346.345C177.153 347.117 174.821 348.375 175.02 349.147Z" fill="white"/>
<path d="M175.714 348.922C175.722 348.965 175.757 349.017 175.8 349.043C176.034 348.479 177.959 347.62 180.395 347.013C182.831 346.406 184.937 346.249 185.397 346.64C185.423 346.596 185.423 346.536 185.414 346.492C185.284 345.963 183.004 346.076 180.317 346.744C177.647 347.412 175.575 348.392 175.714 348.922Z" fill="#007CFF"/>
<path opacity="0.4" d="M175.714 348.922C175.722 348.965 175.757 349.017 175.8 349.043C176.034 348.479 177.959 347.62 180.395 347.013C182.831 346.406 184.937 346.249 185.397 346.64C185.423 346.596 185.423 346.536 185.414 346.492C185.284 345.963 183.004 346.076 180.317 346.744C177.647 347.412 175.575 348.392 175.714 348.922Z" fill="#007CFF"/>
<path opacity="0.4" d="M175.8 349.043C176.268 349.425 178.375 349.277 180.802 348.67C183.238 348.063 185.171 347.195 185.397 346.64C184.937 346.249 182.831 346.406 180.395 347.013C177.959 347.62 176.034 348.479 175.8 349.043Z" fill="#007CFF"/>
<path d="M170.062 350.691C170.027 351.49 172.567 352.253 175.722 352.383C178.887 352.513 181.479 351.975 181.513 351.177C181.548 350.379 179.008 349.616 175.852 349.485C172.688 349.347 170.096 349.885 170.062 350.691Z" fill="#007CFF"/>
<path d="M170.126 349.24L170.065 350.696L181.515 351.184L181.576 349.728L170.126 349.24Z" fill="#007CFF"/>
<path d="M170.122 349.234C170.088 350.032 172.628 350.795 175.783 350.926C178.947 351.056 181.539 350.518 181.574 349.72C181.609 348.922 179.069 348.158 175.913 348.028C172.749 347.889 170.157 348.436 170.122 349.234Z" fill="#007CFF"/>
<path opacity="0.4" d="M170.122 349.234C170.088 350.032 172.628 350.795 175.783 350.926C178.947 351.056 181.539 350.518 181.574 349.72C181.609 348.922 179.069 348.158 175.913 348.028C172.749 347.889 170.157 348.436 170.122 349.234Z" fill="white"/>
<path d="M170.85 349.208C170.85 349.251 170.868 349.312 170.902 349.347C171.284 348.878 173.382 348.601 175.878 348.705C178.384 348.809 180.447 349.269 180.785 349.763C180.82 349.728 180.846 349.668 180.846 349.624C180.872 349.078 178.652 348.54 175.887 348.418C173.139 348.314 170.876 348.67 170.85 349.208Z" fill="#007CFF"/>
<path opacity="0.4" d="M170.85 349.208C170.85 349.251 170.868 349.312 170.902 349.347C171.284 348.878 173.382 348.601 175.878 348.705C178.384 348.809 180.447 349.269 180.785 349.763C180.82 349.728 180.846 349.668 180.846 349.624C180.872 349.078 178.652 348.54 175.887 348.418C173.139 348.314 170.876 348.67 170.85 349.208Z" fill="#007CFF"/>
<path opacity="0.4" d="M170.902 349.355C171.241 349.859 173.304 350.31 175.809 350.414C178.314 350.518 180.412 350.24 180.785 349.772C180.447 349.269 178.384 348.817 175.878 348.713C173.373 348.609 171.284 348.878 170.902 349.355Z" fill="#007CFF"/>
<path d="M229.21 350.622C229.175 351.446 231.784 352.227 235.035 352.366C238.286 352.505 240.947 351.949 240.991 351.125C241.025 350.301 238.416 349.52 235.165 349.381C231.914 349.243 229.244 349.798 229.21 350.622Z" fill="#007CFF"/>
<path d="M229.279 349.136L229.216 350.627L240.995 351.129L241.058 349.638L229.279 349.136Z" fill="#007CFF"/>
<path d="M229.27 349.13C229.236 349.954 231.845 350.735 235.096 350.874C238.347 351.012 241.008 350.457 241.052 349.633C241.086 348.809 238.477 348.028 235.226 347.889C231.975 347.75 229.305 348.306 229.27 349.13Z" fill="#007CFF"/>
<path opacity="0.4" d="M229.27 349.13C229.236 349.954 231.845 350.735 235.096 350.874C238.347 351.012 241.008 350.457 241.052 349.633C241.086 348.809 238.477 348.028 235.226 347.889C231.975 347.75 229.305 348.306 229.27 349.13Z" fill="white"/>
<path d="M230.024 349.104C230.024 349.156 230.042 349.208 230.076 349.251C230.467 348.765 232.625 348.479 235.2 348.592C237.783 348.705 239.898 349.164 240.245 349.685C240.28 349.65 240.306 349.59 240.306 349.546C240.332 348.991 238.052 348.427 235.208 348.306C232.374 348.184 230.05 348.548 230.024 349.104Z" fill="#007CFF"/>
<path opacity="0.4" d="M230.024 349.104C230.024 349.156 230.042 349.208 230.076 349.251C230.467 348.765 232.625 348.479 235.2 348.592C237.783 348.705 239.898 349.164 240.245 349.685C240.28 349.65 240.306 349.59 240.306 349.546C240.332 348.991 238.052 348.427 235.208 348.306C232.374 348.184 230.05 348.548 230.024 349.104Z" fill="#007CFF"/>
<path opacity="0.4" d="M230.076 349.251C230.432 349.772 232.547 350.232 235.122 350.344C237.705 350.457 239.855 350.171 240.245 349.685C239.898 349.173 237.783 348.705 235.2 348.592C232.625 348.479 230.467 348.765 230.076 349.251Z" fill="#007CFF"/>
<path d="M227.97 348.358C227.935 349.182 230.545 349.963 233.795 350.101C237.046 350.24 239.708 349.685 239.751 348.861C239.786 348.037 237.176 347.256 233.925 347.117C230.675 346.978 228.005 347.533 227.97 348.358Z" fill="#007CFF"/>
<path d="M228.03 346.866L227.966 348.357L239.745 348.857L239.809 347.366L228.03 346.866Z" fill="#007CFF"/>
<path d="M228.039 346.865C228.005 347.69 230.614 348.47 233.865 348.609C237.116 348.748 239.777 348.193 239.812 347.369C239.846 346.544 237.237 345.764 233.986 345.625C230.735 345.486 228.074 346.041 228.039 346.865Z" fill="#007CFF"/>
<path opacity="0.4" d="M228.039 346.865C228.005 347.69 230.614 348.47 233.865 348.609C237.116 348.748 239.777 348.193 239.812 347.369C239.846 346.544 237.237 345.764 233.986 345.625C230.735 345.486 228.074 346.041 228.039 346.865Z" fill="white"/>
<path d="M228.785 346.839C228.785 346.891 228.802 346.943 228.837 346.987C229.227 346.501 231.385 346.215 233.96 346.327C236.543 346.44 238.659 346.9 239.005 347.421C239.04 347.386 239.066 347.325 239.066 347.282C239.092 346.727 236.812 346.163 233.969 346.041C231.134 345.92 228.811 346.284 228.785 346.839Z" fill="#007CFF"/>
<path opacity="0.4" d="M228.785 346.839C228.785 346.891 228.802 346.943 228.837 346.987C229.227 346.501 231.385 346.215 233.96 346.327C236.543 346.44 238.659 346.9 239.005 347.421C239.04 347.386 239.066 347.325 239.066 347.282C239.092 346.727 236.812 346.163 233.969 346.041C231.134 345.92 228.811 346.284 228.785 346.839Z" fill="#007CFF"/>
<path opacity="0.4" d="M228.837 346.987C229.192 347.507 231.307 347.967 233.882 348.08C236.465 348.193 238.615 347.906 239.005 347.421C238.659 346.909 236.543 346.44 233.96 346.327C231.385 346.223 229.236 346.501 228.837 346.987Z" fill="#007CFF"/>
<path d="M230.623 346.692C230.588 347.516 233.197 348.297 236.448 348.436C239.699 348.575 242.36 348.019 242.404 347.195C242.438 346.371 239.829 345.59 236.578 345.451C233.327 345.304 230.657 345.868 230.623 346.692Z" fill="#007CFF"/>
<path d="M230.698 345.205L230.635 346.696L242.414 347.197L242.477 345.706L230.698 345.205Z" fill="#007CFF"/>
<path d="M230.692 345.191C230.657 346.015 233.267 346.796 236.517 346.935C239.768 347.074 242.43 346.518 242.473 345.694C242.508 344.87 239.898 344.089 236.647 343.95C233.388 343.812 230.727 344.367 230.692 345.191Z" fill="#007CFF"/>
<path opacity="0.4" d="M230.692 345.191C230.657 346.015 233.267 346.796 236.517 346.935C239.768 347.074 242.43 346.518 242.473 345.694C242.508 344.87 239.898 344.089 236.647 343.95C233.388 343.812 230.727 344.367 230.692 345.191Z" fill="white"/>
<path d="M231.437 345.174C231.437 345.226 231.455 345.278 231.489 345.321C231.88 344.835 234.038 344.549 236.613 344.662C239.196 344.775 241.311 345.234 241.658 345.755C241.693 345.72 241.719 345.659 241.719 345.616C241.745 345.061 239.465 344.497 236.621 344.375C233.787 344.245 231.463 344.61 231.437 345.174Z" fill="#007CFF"/>
<path opacity="0.4" d="M231.437 345.174C231.437 345.226 231.455 345.278 231.489 345.321C231.88 344.835 234.038 344.549 236.613 344.662C239.196 344.775 241.311 345.234 241.658 345.755C241.693 345.72 241.719 345.659 241.719 345.616C241.745 345.061 239.465 344.497 236.621 344.375C233.787 344.245 231.463 344.61 231.437 345.174Z" fill="#007CFF"/>
<path opacity="0.4" d="M231.49 345.312C231.845 345.833 233.96 346.293 236.535 346.406C239.118 346.518 241.268 346.232 241.658 345.746C241.311 345.234 239.196 344.766 236.613 344.653C234.038 344.549 231.888 344.835 231.49 345.312Z" fill="#007CFF"/>
<path d="M230.657 344.428C230.623 345.252 233.232 346.033 236.483 346.171C239.734 346.31 242.395 345.755 242.438 344.931C242.473 344.107 239.864 343.326 236.613 343.187C233.353 343.048 230.692 343.603 230.657 344.428Z" fill="#007CFF"/>
<path d="M230.718 342.931L230.655 344.421L242.434 344.922L242.497 343.431L230.718 342.931Z" fill="#007CFF"/>
<path d="M230.718 342.935C230.684 343.759 233.293 344.54 236.544 344.679C239.795 344.818 242.456 344.263 242.499 343.438C242.534 342.614 239.925 341.833 236.674 341.695C233.423 341.556 230.753 342.111 230.718 342.935Z" fill="#007CFF"/>
<path opacity="0.4" d="M230.718 342.935C230.684 343.759 233.293 344.54 236.544 344.679C239.795 344.818 242.456 344.263 242.499 343.438C242.534 342.614 239.925 341.833 236.674 341.695C233.423 341.556 230.753 342.111 230.718 342.935Z" fill="white"/>
<path d="M231.472 342.909C231.472 342.961 231.489 343.013 231.524 343.057C231.914 342.571 234.073 342.285 236.647 342.397C239.231 342.51 241.346 342.97 241.693 343.491C241.727 343.456 241.753 343.395 241.753 343.352C241.779 342.796 239.5 342.233 236.656 342.111C233.821 341.99 231.498 342.354 231.472 342.909Z" fill="#007CFF"/>
<path opacity="0.4" d="M231.472 342.909C231.472 342.961 231.489 343.013 231.524 343.057C231.914 342.571 234.073 342.285 236.647 342.397C239.231 342.51 241.346 342.97 241.693 343.491C241.727 343.456 241.753 343.395 241.753 343.352C241.779 342.796 239.5 342.233 236.656 342.111C233.821 341.99 231.498 342.354 231.472 342.909Z" fill="#007CFF"/>
<path opacity="0.4" d="M231.524 343.057C231.88 343.577 233.995 344.037 236.569 344.15C239.153 344.263 241.303 343.976 241.693 343.491C241.346 342.979 239.231 342.51 236.647 342.397C234.073 342.285 231.914 342.571 231.524 343.057Z" fill="#007CFF"/>
<path d="M228.239 342.58C228.204 343.404 230.813 344.185 234.064 344.323C237.315 344.462 239.976 343.907 240.02 343.083C240.054 342.259 237.445 341.478 234.194 341.339C230.935 341.2 228.273 341.755 228.239 342.58Z" fill="#007CFF"/>
<path d="M228.3 341.085L228.237 342.575L240.016 343.077L240.079 341.586L228.3 341.085Z" fill="#007CFF"/>
<path d="M228.3 341.087C228.265 341.912 230.874 342.692 234.125 342.831C237.376 342.97 240.037 342.415 240.081 341.591C240.115 340.766 237.506 339.986 234.255 339.847C231.004 339.708 228.334 340.263 228.3 341.087Z" fill="#007CFF"/>
<path opacity="0.4" d="M228.3 341.087C228.265 341.912 230.874 342.692 234.125 342.831C237.376 342.97 240.037 342.415 240.081 341.591C240.115 340.766 237.506 339.986 234.255 339.847C231.004 339.708 228.334 340.263 228.3 341.087Z" fill="white"/>
<path d="M229.053 341.061C229.053 341.113 229.071 341.165 229.105 341.209C229.496 340.723 231.654 340.437 234.229 340.549C236.812 340.662 238.927 341.122 239.274 341.643C239.309 341.608 239.335 341.547 239.335 341.504C239.361 340.949 237.081 340.385 234.237 340.263C231.403 340.142 229.079 340.506 229.053 341.061Z" fill="#007CFF"/>
<path opacity="0.4" d="M229.053 341.061C229.053 341.113 229.071 341.165 229.105 341.209C229.496 340.723 231.654 340.437 234.229 340.549C236.812 340.662 238.927 341.122 239.274 341.643C239.309 341.608 239.335 341.547 239.335 341.504C239.361 340.949 237.081 340.385 234.237 340.263C231.403 340.142 229.079 340.506 229.053 341.061Z" fill="#007CFF"/>
<path opacity="0.4" d="M229.106 341.209C229.461 341.729 231.576 342.189 234.151 342.302C236.734 342.415 238.884 342.128 239.274 341.643C238.927 341.131 236.812 340.662 234.229 340.549C231.646 340.437 229.496 340.723 229.106 341.209Z" fill="#007CFF"/>
<path d="M243.444 347.082C243.106 347.811 245.152 349.485 248.012 350.839C250.873 352.184 253.474 352.687 253.821 351.967C254.159 351.238 252.113 349.564 249.252 348.21C246.383 346.857 243.782 346.354 243.444 347.082Z" fill="#007CFF"/>
<path d="M244.055 345.755L243.439 347.066L253.812 351.943L254.427 350.632L244.055 345.755Z" fill="#007CFF"/>
<path d="M244.059 345.764C243.721 346.492 245.767 348.167 248.628 349.52C251.489 350.865 254.089 351.368 254.436 350.648C254.774 349.919 252.728 348.245 249.868 346.891C246.998 345.538 244.397 345.035 244.059 345.764Z" fill="#007CFF"/>
<path opacity="0.4" d="M244.059 345.764C243.721 346.492 245.767 348.167 248.628 349.52C251.489 350.865 254.089 351.368 254.436 350.648C254.774 349.919 252.728 348.245 249.868 346.891C246.998 345.538 244.397 345.035 244.059 345.764Z" fill="white"/>
<path d="M244.744 346.024C244.727 346.067 244.718 346.128 244.736 346.171C245.273 345.885 247.31 346.44 249.573 347.507C251.844 348.575 253.569 349.789 253.691 350.388C253.734 350.37 253.777 350.327 253.803 350.284C254.037 349.789 252.199 348.436 249.694 347.256C247.197 346.085 244.97 345.529 244.744 346.024Z" fill="#007CFF"/>
<path opacity="0.4" d="M244.744 346.024C244.727 346.067 244.718 346.128 244.736 346.171C245.273 345.885 247.31 346.44 249.573 347.507C251.844 348.575 253.569 349.789 253.691 350.388C253.734 350.37 253.777 350.327 253.803 350.284C254.037 349.789 252.199 348.436 249.694 347.256C247.197 346.085 244.97 345.529 244.744 346.024Z" fill="#007CFF"/>
<path opacity="0.4" d="M244.727 346.171C244.848 346.77 246.573 347.985 248.845 349.052C251.116 350.119 253.153 350.674 253.682 350.388C253.569 349.798 251.835 348.583 249.564 347.507C247.302 346.44 245.264 345.885 244.727 346.171Z" fill="#007CFF"/>
<path d="M237.419 349.659C237.384 350.457 239.924 351.221 243.08 351.351C246.244 351.481 248.836 350.943 248.871 350.145C248.905 349.347 246.365 348.583 243.21 348.453C240.046 348.314 237.454 348.852 237.419 349.659Z" fill="#007CFF"/>
<path d="M237.491 348.212L237.429 349.659L248.879 350.147L248.941 348.699L237.491 348.212Z" fill="#007CFF"/>
<path d="M237.48 348.201C237.445 349 239.985 349.763 243.141 349.893C246.305 350.023 248.897 349.485 248.932 348.687C248.966 347.889 246.426 347.126 243.271 346.996C240.107 346.857 237.515 347.403 237.48 348.201Z" fill="#007CFF"/>
<path opacity="0.4" d="M237.48 348.201C237.445 349 239.985 349.763 243.141 349.893C246.305 350.023 248.897 349.485 248.932 348.687C248.966 347.889 246.426 347.126 243.271 346.996C240.107 346.857 237.515 347.403 237.48 348.201Z" fill="white"/>
<path d="M238.217 348.175C238.217 348.219 238.234 348.28 238.269 348.314C238.65 347.846 240.748 347.568 243.245 347.672C245.75 347.776 247.813 348.236 248.151 348.731C248.186 348.696 248.212 348.635 248.212 348.592C248.238 348.045 246.019 347.507 243.253 347.386C240.496 347.282 238.234 347.638 238.217 348.175Z" fill="#007CFF"/>
<path opacity="0.4" d="M238.217 348.175C238.217 348.219 238.234 348.28 238.269 348.314C238.65 347.846 240.748 347.568 243.245 347.672C245.75 347.776 247.813 348.236 248.151 348.731C248.186 348.696 248.212 348.635 248.212 348.592C248.238 348.045 246.019 347.507 243.253 347.386C240.496 347.282 238.234 347.638 238.217 348.175Z" fill="#007CFF"/>
<path opacity="0.4" d="M238.26 348.323C238.598 348.826 240.661 349.277 243.166 349.381C245.672 349.485 247.77 349.208 248.142 348.739C247.804 348.236 245.741 347.785 243.236 347.681C240.739 347.577 238.641 347.846 238.26 348.323Z" fill="#007CFF"/>
<g opacity="0.3">
<path d="M219.041 299.314C219.37 300.711 218.451 301.717 216.709 301.96L216.744 303.131L215.677 303.192L215.643 302.021C214.611 301.986 213.649 301.717 213.007 301.353L213.415 300.008C214.074 300.39 214.845 300.607 215.599 300.641L215.547 298.845C214.49 298.611 213.319 298.281 213.016 297.006C212.687 295.609 213.623 294.594 215.4 294.36L215.365 293.189L216.432 293.128L216.475 294.308C217.246 294.334 217.983 294.508 218.573 294.794L218.235 296.139C217.706 295.861 217.108 295.713 216.527 295.679L216.588 297.553C217.619 297.787 218.755 298.108 219.041 299.314ZM215.495 297.327L215.452 295.792C214.871 295.939 214.611 296.286 214.698 296.685C214.767 297.015 215.079 297.188 215.495 297.327ZM217.385 299.687C217.316 299.383 217.021 299.21 216.622 299.088L216.674 300.546C217.22 300.398 217.481 300.086 217.385 299.687Z" fill="white"/>
</g>
<path d="M179.33 202.215V205.989C181.757 206.18 183.977 207.152 185.728 208.644L188.389 205.981C185.953 203.812 182.798 202.424 179.33 202.215Z" fill="#007CFF"/>
<path d="M177.51 228.485C172.005 228.043 167.618 223.653 167.176 218.144H163.405C163.856 225.727 169.924 231.8 177.501 232.251V228.485H177.51Z" fill="#007CFF"/>
<path d="M167.185 216.331C167.627 210.822 172.014 206.432 177.519 205.989V202.215C169.933 202.675 163.865 208.739 163.414 216.331H167.185Z" fill="#007CFF"/>
<path opacity="0.2" d="M167.185 216.331C167.627 210.822 172.014 206.432 177.519 205.989V202.215C169.933 202.675 163.865 208.739 163.414 216.331H167.185Z" fill="black"/>
<path d="M189.681 207.265L187.019 209.928C188.693 211.897 189.707 214.448 189.707 217.242C189.707 223.167 185.138 228.026 179.339 228.494V232.268C187.219 231.8 193.469 225.249 193.469 217.25C193.46 213.407 192.03 209.919 189.681 207.265Z" fill="#007CFF"/>
<g opacity="0.8">
<path d="M179.33 202.215V205.989C181.757 206.18 183.977 207.152 185.728 208.644L188.389 205.981C185.953 203.812 182.798 202.424 179.33 202.215Z" fill="white"/>
</g>
<g opacity="0.6">
<path d="M177.51 228.485C172.005 228.043 167.618 223.653 167.176 218.144H163.405C163.856 225.727 169.924 231.8 177.501 232.251V228.485H177.51Z" fill="white"/>
</g>
<g opacity="0.7">
<path d="M167.185 216.331C167.627 210.822 172.014 206.432 177.519 205.989V202.215C169.933 202.675 163.865 208.739 163.414 216.331H167.185Z" fill="white"/>
</g>
<path opacity="0.5" d="M189.681 207.265L187.019 209.928C188.693 211.897 189.707 214.448 189.707 217.242C189.707 223.167 185.138 228.026 179.339 228.494V232.268C187.219 231.8 193.469 225.249 193.469 217.25C193.46 213.407 192.03 209.919 189.681 207.265Z" fill="white"/>
<path d="M205.77 198.242L210.547 204.723L238.053 193.288L264.866 202.84L289.165 187.111L290.907 189.427L296.672 179.971L283.738 178.956L285.723 181.576L261.407 197.149L234.993 187.779L205.77 198.242Z" fill="#007CFF"/>
<g opacity="0.5">
<path d="M205.77 198.242L210.547 204.723L238.053 193.288L264.866 202.84L289.165 187.111L290.907 189.427L296.672 179.971L283.738 178.956L285.723 181.576L261.407 197.149L234.993 187.779L205.77 198.242Z" fill="white"/>
</g>
<path d="M318.535 202.276C315.189 202.276 312.484 204.992 312.484 208.332C312.484 211.672 315.198 214.387 318.535 214.387C321.873 214.387 324.586 211.672 324.586 208.332C324.586 204.983 321.873 202.276 318.535 202.276ZM318.535 211.36C316.862 211.36 315.51 210.006 315.51 208.332C315.51 206.657 316.871 205.304 318.535 205.304C320.208 205.304 321.561 206.666 321.561 208.332C321.552 210.006 320.2 211.36 318.535 211.36Z" fill="#007CFF"/>
<path d="M333.793 220.044C330.446 220.044 327.742 222.759 327.742 226.1C327.742 229.44 330.455 232.155 333.793 232.155C337.13 232.155 339.843 229.44 339.843 226.1C339.843 222.759 337.13 220.044 333.793 220.044ZM333.793 229.136C332.119 229.136 330.767 227.783 330.767 226.108C330.767 224.434 332.128 223.08 333.793 223.08C335.466 223.08 336.818 224.443 336.818 226.108C336.818 227.783 335.466 229.136 333.793 229.136Z" fill="#007CFF"/>
<path d="M320.807 232.164H316.784L330.767 202.276H334.789L320.807 232.164Z" fill="#007CFF"/>
<g opacity="0.5">
<path d="M318.535 202.276C315.189 202.276 312.484 204.992 312.484 208.332C312.484 211.672 315.198 214.387 318.535 214.387C321.873 214.387 324.586 211.672 324.586 208.332C324.586 204.983 321.873 202.276 318.535 202.276ZM318.535 211.36C316.862 211.36 315.51 210.006 315.51 208.332C315.51 206.657 316.871 205.304 318.535 205.304C320.208 205.304 321.561 206.666 321.561 208.332C321.552 210.006 320.2 211.36 318.535 211.36Z" fill="white"/>
<path d="M333.793 220.044C330.446 220.044 327.742 222.759 327.742 226.1C327.742 229.44 330.455 232.155 333.793 232.155C337.13 232.155 339.843 229.44 339.843 226.1C339.843 222.759 337.13 220.044 333.793 220.044ZM333.793 229.136C332.119 229.136 330.767 227.783 330.767 226.108C330.767 224.434 332.128 223.08 333.793 223.08C335.466 223.08 336.818 224.443 336.818 226.108C336.818 227.783 335.466 229.136 333.793 229.136Z" fill="white"/>
<path d="M320.807 232.164H316.784L330.767 202.276H334.789L320.807 232.164Z" fill="white"/>
</g>
<path d="M375.135 145.78H309.797V188.863H375.135V145.78Z" fill="white"/>
<path d="M375.326 189.045H309.615V145.589H375.326V189.045ZM309.988 188.664H374.944V145.962H309.988V188.664Z" fill="#92C9FF"/>
<path d="M316.689 178.452L320.911 170.532L329.614 178.721L335.423 161.821L346.241 173.707L353.367 170.8L366.293 153.9" fill="white"/>
<path d="M329.701 179.068L320.963 170.853L316.862 178.548L316.516 178.366L320.859 170.211L329.528 178.366L335.345 161.439L346.293 173.464L353.237 170.636L366.137 153.779L366.449 154.022L353.489 170.965L346.189 173.941L346.094 173.837L335.501 162.203L329.701 179.068Z" fill="#92C9FF"/>
<path d="M320.937 171.59C321.535 171.59 322.02 171.104 322.02 170.505C322.02 169.907 321.535 169.421 320.937 169.421C320.339 169.421 319.853 169.907 319.853 170.505C319.853 171.104 320.339 171.59 320.937 171.59Z" fill="#92C9FF"/>
<path d="M329.545 179.606C330.143 179.606 330.629 179.12 330.629 178.522C330.629 177.923 330.143 177.437 329.545 177.437C328.947 177.437 328.461 177.923 328.461 178.522C328.461 179.12 328.947 179.606 329.545 179.606Z" fill="#92C9FF"/>
<path d="M335.483 162.975C336.081 162.975 336.567 162.489 336.567 161.891C336.567 161.292 336.081 160.806 335.483 160.806C334.885 160.806 334.4 161.292 334.4 161.891C334.4 162.489 334.885 162.975 335.483 162.975Z" fill="#92C9FF"/>
<path d="M356.323 152.642H328.617V153.041H356.323V152.642Z" fill="#92C9FF"/>
<path d="M321.511 303.051V368.353C321.511 372.161 318.399 375.276 314.593 375.276H247.522C246.941 375.276 246.377 375.206 245.831 375.068C244.67 374.781 243.621 374.2 242.762 373.419C242.147 372.855 241.635 372.187 241.245 371.45C241.228 371.407 241.202 371.372 241.185 371.328C240.786 370.522 240.534 369.628 240.465 368.682C240.456 368.518 240.448 368.361 240.448 368.197V303.467C240.448 299.806 242.338 296.414 245.424 294.444C245.424 294.444 245.424 294.444 245.432 294.436C247.998 292.787 249.706 289.907 249.706 286.628C249.706 285.656 249.559 284.719 249.281 283.834H312.686C312.408 284.719 312.261 285.656 312.261 286.628C312.261 289.768 313.83 292.553 316.223 294.227C316.379 294.34 316.543 294.444 316.708 294.548C319.673 296.362 321.511 299.572 321.511 303.051Z" fill="#92CEFF" fill-opacity="0.5"/>
<path d="M321.511 303.051V368.353C321.511 371.996 318.659 375.007 315.078 375.259C314.914 375.267 314.758 375.276 314.593 375.276H285.058C281.166 375.276 277.984 372.092 277.984 368.197V303.467C277.984 299.806 279.874 296.414 282.96 294.444C285.535 292.796 287.243 289.916 287.243 286.628C287.243 285.656 287.095 284.719 286.818 283.834H312.686C312.408 284.719 312.261 285.656 312.261 286.628C312.261 289.204 313.31 291.538 315.009 293.212C315.521 293.724 316.093 294.167 316.708 294.548C319.673 296.362 321.511 299.572 321.511 303.051Z" fill="#92CEFF" fill-opacity="0.5"/>
<path d="M284.446 296.598C294.837 295.85 302.655 286.813 301.907 276.414C301.159 266.015 292.129 258.191 281.738 258.94C271.347 259.688 263.53 268.725 264.278 279.125C265.026 289.524 274.056 297.347 284.446 296.598Z" fill="#007CFF"/>
<path d="M299.894 283.366C302.54 273.282 296.517 262.96 286.441 260.312C276.364 257.664 266.051 263.692 263.405 273.776C260.758 283.86 266.782 294.182 276.858 296.83C286.934 299.478 297.248 293.45 299.894 283.366Z" fill="#73B7EF"/>
<path d="M281.781 294.67C276.172 294.67 270.737 291.703 267.842 286.445C265.796 282.723 265.31 278.429 266.489 274.351C267.668 270.274 270.364 266.899 274.083 264.843C277.802 262.795 282.093 262.309 286.168 263.489C290.242 264.669 293.614 267.367 295.669 271.089C299.899 278.767 297.099 288.458 289.427 292.692C287 294.028 284.373 294.67 281.781 294.67Z" fill="#007CFF"/>
<path d="M289.921 278.281C291.95 281.153 290.788 284.259 287.078 286.419L288.239 289.039L285.89 290.15L284.729 287.53C282.362 288.397 279.926 288.684 278.149 288.432L277.837 285.014C279.675 285.265 281.634 285.057 283.359 284.441L281.582 280.416C278.972 280.849 276.008 281.188 274.161 278.576C272.133 275.705 273.329 272.556 277.135 270.404L275.973 267.784L278.322 266.673L279.501 269.311C281.278 268.669 283.107 268.382 284.694 268.487L285.153 271.844C283.697 271.697 282.223 271.913 280.862 272.382L282.726 276.564C285.301 276.13 288.17 275.8 289.921 278.281ZM280.065 277.023L278.548 273.597C277.377 274.473 277.1 275.497 277.655 276.321C278.131 276.989 278.99 277.102 280.065 277.023ZM286.514 280.65C286.072 280.025 285.257 279.895 284.234 279.999L285.691 283.253C286.792 282.411 287.095 281.465 286.514 280.65Z" fill="#73B7EF"/>
<path d="M300.428 267.619C299.639 267.064 297.845 265.832 297.758 266.109C297.689 266.309 297.784 266.639 298.001 266.986C296.917 266.578 295.816 266.318 293.215 266.812C292.695 266.916 292.227 267.211 291.932 267.654C291.664 268.07 291.568 268.582 292.236 268.998C293.562 269.823 293.181 269.328 295.019 270.534C296.865 271.74 299.119 272.044 300.471 271.202L302.283 270.898L302.509 267.923C302.509 267.914 301.477 267.793 300.428 267.619Z" fill="#FFB27D"/>
<path d="M347.847 242.633C347.847 242.633 343.582 247.7 338.146 245.583C338.146 245.583 336.976 242.754 336.959 240.672C336.959 240.412 336.95 240.169 336.95 239.926C336.924 237.575 336.846 236.256 336.846 236.256C336.846 236.256 336.846 236.256 336.855 236.256C337.106 236.152 345.16 232.838 345.151 233.116C345.012 239.466 347.847 242.633 347.847 242.633Z" fill="#FFB27D"/>
<path d="M344.345 234.625C343.564 236.065 340.903 238.885 336.959 239.917C336.933 237.566 336.855 236.248 336.855 236.248C336.855 236.248 336.855 236.248 336.863 236.248C337.071 236.196 344.57 234.2 344.345 234.625Z" fill="#ED975D"/>
<path d="M335.156 236.013C335.156 236.013 344.215 238.148 345.454 232.474C346.694 226.809 348.696 223.26 342.966 221.664C337.236 220.059 335.632 221.976 334.757 223.772C333.89 225.559 332.832 235.311 335.156 236.013Z" fill="#FFB27D"/>
<path d="M345.151 234.018C345.272 234.096 347.223 234.695 350.916 227.338C351.497 226.184 351.887 223.685 350.543 221.473C349.191 219.261 344.397 217.525 340.418 216.771C336.439 216.016 335.485 218.254 334.54 220.51C333.552 222.878 330.717 224.822 330.717 224.822C334.15 226.739 338.285 223.998 339.715 224.449C341.146 224.9 341.657 227.156 341.761 227.884C341.865 228.604 342.03 229.212 343.833 228.561C345.636 227.91 344.648 231.112 344.362 231.728C344.362 231.728 344.119 233.359 345.151 234.018Z" fill="#1B1B43"/>
<path d="M368.496 375.38H373.984C375.137 375.38 376.411 374.226 376.732 372.118C377.052 370.01 379.419 368.856 379.931 367.129C380.442 365.403 377.824 362.974 377.824 362.974L377.382 362.41L376.922 361.82L372.579 362.844C372.579 362.844 372.475 363.876 372.406 365.195C372.363 366.149 372.337 367.251 372.389 368.214C372.519 370.522 371.747 372.994 369.701 373.445C367.655 373.896 368.496 375.38 368.496 375.38Z" fill="#D4EAFF"/>
<path d="M330.292 375.38H344.839C344.977 375.354 345.082 375.319 345.151 375.293C346.122 374.807 345.818 371.086 345.697 369.932C345.671 369.715 345.662 369.593 345.662 369.593C345.662 369.593 340.548 365.498 339.845 368.63C339.819 368.726 339.793 368.821 339.767 368.917C338.883 371.849 334.913 373.185 332.616 373.549C330.865 373.853 330.414 374.877 330.292 375.38Z" fill="#D4EAFF"/>
<path d="M333.231 291.434C333.231 291.434 334.011 301.133 334.922 312.793C336.161 328.635 337.652 348.086 337.8 351.773C338.051 358.176 339.083 368.413 339.083 368.413C339.083 368.413 341.51 370.843 346.373 369.819C346.373 369.819 350.708 355.209 351.939 339.74C351.956 339.489 351.973 339.228 351.999 338.977C353.152 323.239 354.938 290.089 354.938 290.089L333.231 291.434Z" fill="#323B3D"/>
<path d="M333.231 291.434C333.231 291.434 334.011 301.133 334.922 312.793L351.939 339.74C351.956 339.489 351.973 339.228 351.999 338.977C353.152 323.239 354.938 290.089 354.938 290.089L333.231 291.434Z" fill="#222728"/>
<path d="M336.777 292.588C336.777 292.588 350.777 327.716 359.983 344.226C369.19 360.735 372.068 365.342 372.068 365.342C372.068 365.342 377.339 363.234 377.824 361.794C377.824 361.794 374.304 329.928 368.141 322.155C364.656 317.765 360.564 304.586 360.373 299.979C360.183 295.373 359.125 286.254 359.125 286.254L336.777 292.588Z" fill="#323B3D"/>
<path d="M368.704 286.202L368.852 288.458C368.852 288.458 367.361 292.475 371.53 294.531C371.53 294.531 373.316 295.251 373.386 293.863C373.455 292.475 373.229 292.995 373.377 291.035C373.524 289.074 372.753 287.226 371.461 286.601L370.395 285.378L368.704 286.202Z" fill="#FFB27D"/>
<path d="M370.334 287.851C368.782 288.345 368.54 288.233 368.54 288.233C368.54 288.233 360.998 274.49 360.235 273.232C359.472 271.974 344.223 257.824 344.223 257.824L348.142 243.197C348.142 243.197 365.488 265.676 367.361 268.903C370.455 274.23 372.267 286.61 372.267 286.61C372.267 286.61 371.556 287.46 370.334 287.851Z" fill="#2F74AD"/>
<path d="M330.275 263.559C330.327 266.561 330.5 269.935 330.743 273.371C330.76 273.571 330.769 273.779 330.786 273.978C330.934 276.104 331.099 278.229 331.289 280.312C331.367 281.144 331.445 281.969 331.523 282.775L331.532 282.888C331.541 283.192 331.575 283.522 331.61 283.817C332.373 291.599 333.179 297.741 333.326 297.837C333.5 297.958 333.708 298.01 333.925 297.993C335.962 297.732 342.047 298.201 347.023 297.116C351.228 296.231 354.843 294.548 358.674 292.284C359.186 291.98 360.339 291.182 360.252 290.592C360.157 289.942 359.992 288.987 359.767 287.799C359.012 283.66 357.703 276.546 357.261 268.218C357.175 266.665 357.045 265.138 356.889 263.628C356.464 259.707 355.779 255.976 354.86 252.662C353.152 246.511 350.647 241.8 347.5 239.961C347.093 239.727 344.873 241.141 342.845 242.442C340.972 243.648 338.996 243.978 337.071 243.813L335.381 245.687C333.335 248.073 331.151 251.239 330.561 255.751C330.518 256.08 330.474 256.436 330.448 256.818C330.266 258.631 330.223 260.956 330.275 263.559Z" fill="#3481CE"/>
<path d="M330.275 263.559C330.327 266.561 330.5 269.935 330.743 273.371C330.76 273.571 330.769 273.779 330.786 273.978C342.429 266.682 344.223 253.339 344.223 253.339C338.493 253.59 333.942 254.909 330.44 256.792C330.266 258.631 330.223 260.956 330.275 263.559Z" fill="#113A5B"/>
<path d="M300.853 269.311C300.731 267.584 301.624 267.298 301.624 267.298C301.624 267.298 319.179 264.114 320.67 263.646C322.161 263.177 334.922 249.895 334.922 249.895C334.922 249.895 339.811 244.377 343.816 245.591C347.292 246.65 348.653 249.365 349.121 251.959C349.676 255.048 348.254 258.145 345.584 259.785C339.594 263.463 327.605 270.708 324.779 271.532C318.494 273.38 301.598 271.679 301.598 271.679C301.598 271.679 300.948 270.664 300.853 269.311Z" fill="#3481CE"/>
<path d="M316.214 294.227C314.142 292.987 305.17 288.588 282.353 288.77C256.216 288.987 245.753 294.271 245.432 294.436C247.998 292.787 249.706 289.907 249.706 286.628C249.706 285.656 249.559 284.719 249.281 283.834H312.686C312.408 284.719 312.261 285.656 312.261 286.628C312.252 289.777 313.821 292.553 316.214 294.227Z" fill="#3481CE" fill-opacity="0.5"/>
<path d="M314.116 283.383V286.341C314.116 286.636 313.882 286.87 313.587 286.87H248.371C248.076 286.87 247.842 286.636 247.842 286.341V283.383C247.842 283.088 248.076 282.854 248.371 282.854H313.587C313.882 282.854 314.116 283.096 314.116 283.383Z" fill="#2B478B"/>
<path d="M314.116 283.383V286.341C314.116 286.636 313.882 286.87 313.587 286.87H288.898C288.604 286.87 288.37 286.636 288.37 286.341V283.383C288.37 283.088 288.612 282.854 288.898 282.854H313.587C313.882 282.854 314.116 283.096 314.116 283.383Z" fill="#233862"/>
<path d="M237.075 375.909C237.032 377.237 232.741 378.165 227.505 377.974C222.269 377.783 218.056 376.56 218.108 375.233C218.151 373.905 222.442 372.977 227.678 373.168C232.914 373.35 237.119 374.582 237.075 375.909Z" fill="#007CFF"/>
<path d="M218.197 372.811L218.111 375.213L237.085 375.893L237.171 373.491L218.197 372.811Z" fill="#007CFF"/>
<path d="M237.162 373.506C237.119 374.833 232.828 375.762 227.592 375.571C222.356 375.38 218.143 374.157 218.195 372.829C218.238 371.502 222.529 370.574 227.765 370.765C233.001 370.947 237.205 372.179 237.162 373.506Z" fill="#007CFF"/>
<path opacity="0.4" d="M237.162 373.506C237.119 374.833 232.828 375.762 227.592 375.571C222.356 375.38 218.143 374.157 218.195 372.829C218.238 371.502 222.529 370.574 227.765 370.765C233.001 370.947 237.205 372.179 237.162 373.506Z" fill="white"/>
<path d="M235.957 373.367C235.957 373.445 235.914 373.541 235.862 373.593C235.29 372.769 231.874 372.04 227.722 371.884C223.569 371.736 220.102 372.213 219.486 373.003C219.434 372.942 219.4 372.847 219.408 372.769C219.443 371.866 223.171 371.259 227.748 371.424C232.299 371.597 235.983 372.474 235.957 373.367Z" fill="#007CFF"/>
<path opacity="0.4" d="M235.957 373.367C235.957 373.445 235.914 373.541 235.862 373.593C235.29 372.769 231.874 372.04 227.722 371.884C223.569 371.736 220.102 372.213 219.486 373.003C219.434 372.942 219.4 372.847 219.408 372.769C219.443 371.866 223.171 371.259 227.748 371.424C232.299 371.597 235.983 372.474 235.957 373.367Z" fill="#007CFF"/>
<path opacity="0.4" d="M235.853 373.602C235.22 374.382 231.761 374.868 227.618 374.721C223.465 374.573 220.041 373.844 219.478 373.012C220.093 372.222 223.561 371.745 227.713 371.892C231.865 372.04 235.281 372.769 235.853 373.602Z" fill="#007CFF"/>
<path d="M239.347 372.439C239.303 373.766 235.012 374.695 229.776 374.504C224.54 374.313 220.327 373.09 220.379 371.762C220.422 370.435 224.714 369.507 229.95 369.697C235.186 369.88 239.39 371.112 239.347 372.439Z" fill="#007CFF"/>
<path d="M220.468 369.349L220.382 371.751L239.356 372.433L239.442 370.031L220.468 369.349Z" fill="#007CFF"/>
<path d="M239.425 370.036C239.381 371.363 235.09 372.291 229.854 372.101C224.618 371.91 220.405 370.686 220.457 369.359C220.5 368.032 224.792 367.103 230.028 367.294C235.272 367.476 239.477 368.708 239.425 370.036Z" fill="#007CFF"/>
<path opacity="0.4" d="M239.425 370.036C239.381 371.363 235.09 372.291 229.854 372.101C224.618 371.91 220.405 370.686 220.457 369.359C220.5 368.032 224.792 367.103 230.028 367.294C235.272 367.476 239.477 368.708 239.425 370.036Z" fill="white"/>
<path d="M238.228 369.897C238.228 369.975 238.185 370.071 238.133 370.123C237.561 369.298 234.145 368.57 229.993 368.413C225.841 368.266 222.373 368.743 221.758 369.533C221.705 369.472 221.671 369.376 221.679 369.298C221.714 368.396 225.442 367.789 230.019 367.954C234.57 368.118 238.254 368.995 238.228 369.897Z" fill="#007CFF"/>
<path opacity="0.4" d="M238.228 369.897C238.228 369.975 238.185 370.071 238.133 370.123C237.561 369.298 234.145 368.57 229.993 368.413C225.841 368.266 222.373 368.743 221.758 369.533C221.705 369.472 221.671 369.376 221.679 369.298C221.714 368.396 225.442 367.789 230.019 367.954C234.57 368.118 238.254 368.995 238.228 369.897Z" fill="#007CFF"/>
<path opacity="0.4" d="M238.124 370.131C237.492 370.912 234.033 371.398 229.889 371.25C225.737 371.103 222.312 370.374 221.749 369.55C222.364 368.76 225.832 368.283 229.984 368.431C234.137 368.57 237.552 369.298 238.124 370.131Z" fill="#007CFF"/>
<path d="M239.425 368.049C239.381 369.376 235.09 370.305 229.854 370.114C224.618 369.923 220.405 368.7 220.457 367.372C220.501 366.045 224.792 365.117 230.028 365.308C235.264 365.49 239.477 366.722 239.425 368.049Z" fill="#007CFF"/>
<path d="M220.556 364.956L220.469 367.358L239.443 368.04L239.529 365.639L220.556 364.956Z" fill="#007CFF"/>
<path d="M239.511 365.646C239.468 366.973 235.177 367.902 229.941 367.711C224.705 367.52 220.492 366.297 220.544 364.969C220.587 363.642 224.878 362.714 230.114 362.904C235.35 363.087 239.563 364.31 239.511 365.646Z" fill="#007CFF"/>
<path opacity="0.4" d="M239.511 365.646C239.468 366.973 235.177 367.902 229.941 367.711C224.705 367.52 220.492 366.297 220.544 364.969C220.587 363.642 224.878 362.714 230.114 362.904C235.35 363.087 239.563 364.31 239.511 365.646Z" fill="white"/>
<path d="M238.315 365.507C238.315 365.585 238.272 365.681 238.22 365.733C237.648 364.908 234.232 364.18 230.08 364.024C225.927 363.876 222.46 364.353 221.844 365.143C221.792 365.082 221.758 364.987 221.766 364.908C221.801 364.006 225.529 363.399 230.106 363.564C234.657 363.729 238.341 364.605 238.315 365.507Z" fill="#007CFF"/>
<path opacity="0.4" d="M238.315 365.507C238.315 365.585 238.272 365.681 238.22 365.733C237.648 364.908 234.232 364.18 230.08 364.024C225.927 363.876 222.46 364.353 221.844 365.143C221.792 365.082 221.758 364.987 221.766 364.908C221.801 364.006 225.529 363.399 230.106 363.564C234.657 363.729 238.341 364.605 238.315 365.507Z" fill="#007CFF"/>
<path opacity="0.4" d="M238.211 365.733C237.578 366.513 234.119 366.999 229.976 366.852C225.823 366.704 222.399 365.976 221.836 365.151C222.451 364.362 225.919 363.885 230.071 364.032C234.223 364.18 237.639 364.908 238.211 365.733Z" fill="#007CFF"/>
<path d="M241.696 364.57C241.653 365.897 237.362 366.826 232.126 366.635C226.89 366.444 222.676 365.221 222.728 363.893C222.772 362.566 227.063 361.638 232.299 361.829C237.535 362.019 241.748 363.243 241.696 364.57Z" fill="#007CFF"/>
<path d="M222.823 361.473L222.737 363.874L241.71 364.555L241.796 362.153L222.823 361.473Z" fill="#007CFF"/>
<path d="M241.783 362.167C241.739 363.494 237.448 364.423 232.212 364.232C226.976 364.041 222.763 362.818 222.815 361.49C222.867 360.163 227.15 359.235 232.386 359.425C237.622 359.616 241.835 360.84 241.783 362.167Z" fill="#007CFF"/>
<path opacity="0.4" d="M241.783 362.167C241.739 363.494 237.448 364.423 232.212 364.232C226.976 364.041 222.763 362.818 222.815 361.49C222.867 360.163 227.15 359.235 232.386 359.425C237.622 359.616 241.835 360.84 241.783 362.167Z" fill="white"/>
<path d="M240.586 362.037C240.586 362.115 240.543 362.21 240.491 362.262C239.919 361.438 236.503 360.709 232.351 360.553C228.199 360.406 224.731 360.883 224.115 361.672C224.063 361.612 224.029 361.516 224.037 361.438C224.072 360.536 227.8 359.929 232.377 360.093C236.928 360.258 240.612 361.135 240.586 362.037Z" fill="#007CFF"/>
<path opacity="0.4" d="M240.586 362.037C240.586 362.115 240.543 362.21 240.491 362.262C239.919 361.438 236.503 360.709 232.351 360.553C228.199 360.406 224.731 360.883 224.115 361.672C224.063 361.612 224.029 361.516 224.037 361.438C224.072 360.536 227.8 359.929 232.377 360.093C236.928 360.258 240.612 361.135 240.586 362.037Z" fill="#007CFF"/>
<path opacity="0.4" d="M240.482 362.262C239.85 363.043 236.391 363.529 232.247 363.382C228.095 363.234 224.67 362.505 224.107 361.672C224.722 360.883 228.19 360.406 232.342 360.553C236.495 360.709 239.91 361.438 240.482 362.262Z" fill="#007CFF"/>
<path d="M263.273 374.556C263.308 375.354 260.768 376.117 257.612 376.248C254.448 376.378 251.856 375.84 251.821 375.042C251.787 374.244 254.327 373.48 257.482 373.35C260.655 373.211 263.238 373.758 263.273 374.556Z" fill="#007CFF"/>
<path d="M263.221 373.102L251.771 373.589L251.833 375.037L263.283 374.55L263.221 373.102Z" fill="#007CFF"/>
<path d="M263.212 373.107C263.247 373.905 260.707 374.669 257.551 374.799C254.387 374.929 251.795 374.391 251.761 373.593C251.726 372.795 254.266 372.031 257.421 371.901C260.586 371.762 263.178 372.3 263.212 373.107Z" fill="#007CFF"/>
<path opacity="0.4" d="M263.212 373.107C263.247 373.905 260.707 374.669 257.551 374.799C254.387 374.929 251.795 374.391 251.761 373.593C251.726 372.795 254.266 372.031 257.421 371.901C260.586 371.762 263.178 372.3 263.212 373.107Z" fill="white"/>
<path d="M262.484 373.081C262.484 373.124 262.467 373.185 262.432 373.22C262.051 372.751 259.953 372.474 257.456 372.578C254.951 372.682 252.888 373.142 252.549 373.636C252.515 373.602 252.489 373.541 252.489 373.497C252.463 372.951 254.682 372.413 257.447 372.292C260.195 372.179 262.458 372.534 262.484 373.081Z" fill="#007CFF"/>
<path opacity="0.4" d="M262.484 373.081C262.484 373.124 262.467 373.185 262.432 373.22C262.051 372.751 259.953 372.474 257.456 372.578C254.951 372.682 252.888 373.142 252.549 373.636C252.515 373.602 252.489 373.541 252.489 373.497C252.463 372.951 254.682 372.413 257.447 372.292C260.195 372.179 262.458 372.534 262.484 373.081Z" fill="#007CFF"/>
<path opacity="0.4" d="M262.432 373.22C262.094 373.723 260.031 374.174 257.525 374.278C255.02 374.382 252.922 374.105 252.549 373.636C252.888 373.133 254.951 372.682 257.456 372.578C259.961 372.474 262.051 372.751 262.432 373.22Z" fill="#007CFF"/>
<path d="M257.271 371.728C259.864 367.775 258.764 362.466 254.814 359.87C250.863 357.275 245.558 358.376 242.965 362.33C240.372 366.283 241.472 371.592 245.422 374.187C249.373 376.783 254.678 375.682 257.271 371.728Z" fill="#007CFF"/>
<path d="M257.257 373.411C254.11 376.942 248.709 377.245 245.181 374.105C241.653 370.955 241.349 365.55 244.487 362.019C247.634 358.488 253.035 358.185 256.563 361.325C260.091 364.475 260.404 369.888 257.257 373.411Z" fill="#007CFF"/>
<path opacity="0.4" d="M257.257 373.411C254.11 376.942 248.709 377.245 245.181 374.105C241.653 370.955 241.349 365.55 244.487 362.019C247.634 358.488 253.035 358.185 256.563 361.325C260.091 364.475 260.404 369.888 257.257 373.411Z" fill="white"/>
<path d="M255.653 371.979C253.304 374.617 249.255 374.851 246.62 372.5C243.985 370.149 243.751 366.097 246.1 363.46C248.449 360.822 252.497 360.588 255.133 362.939C257.768 365.29 258.002 369.342 255.653 371.979Z" fill="#007CFF"/>
<g opacity="0.3">
<path d="M252.064 370.608C251.31 371.832 249.949 371.892 248.544 370.834L247.747 371.693L246.949 370.981L247.747 370.123C247.045 369.368 246.551 368.5 246.36 367.789L247.6 367.121C247.799 367.858 248.189 368.561 248.701 369.116L249.932 367.806C249.351 366.887 248.753 365.828 249.437 364.718C250.192 363.494 251.57 363.442 252.992 364.535L253.789 363.677L254.587 364.388L253.781 365.255C254.301 365.819 254.708 366.47 254.916 367.086L253.728 367.797C253.555 367.225 253.234 366.704 252.844 366.262L251.561 367.633C252.142 368.518 252.723 369.55 252.064 370.608ZM250.963 366.687L252.012 365.568C251.501 365.264 251.067 365.325 250.842 365.663C250.668 365.95 250.764 366.297 250.963 366.687ZM250.634 369.697C250.798 369.429 250.72 369.099 250.512 368.734L249.515 369.802C250.01 370.079 250.417 370.044 250.634 369.697Z" fill="white"/>
</g>
<rect x="404.5" y="306.5" width="41.9982" height="5.01975" rx="2.50987" fill="white" stroke="#B5CBE3"/>
<defs>
<filter id="filter0_di_1_843" x="0" y="0" width="502.905" height="502.045" filterUnits="userSpaceOnUse" color-interpolation-filters="sRGB">
<feFlood flood-opacity="0" result="BackgroundImageFix"/>
<feColorMatrix in="SourceAlpha" type="matrix" values="0 0 0 0 0 0 0 0 0 0 0 0 0 0 0 0 0 0 127 0" result="hardAlpha"/>
<feOffset/>
<feGaussianBlur stdDeviation="35"/>
<feComposite in2="hardAlpha" operator="out"/>
<feColorMatrix type="matrix" values="0 0 0 0 0.243137 0 0 0 0 0.588235 0 0 0 0 0.956863 0 0 0 0.1 0"/>
<feBlend mode="normal" in2="BackgroundImageFix" result="effect1_dropShadow_1_843"/>
<feBlend mode="normal" in="SourceGraphic" in2="effect1_dropShadow_1_843" result="shape"/>
<feColorMatrix in="SourceAlpha" type="matrix" values="0 0 0 0 0 0 0 0 0 0 0 0 0 0 0 0 0 0 127 0" result="hardAlpha"/>
<feOffset/>
<feGaussianBlur stdDeviation="35"/>
<feComposite in2="hardAlpha" operator="arithmetic" k2="-1" k3="1"/>
<feColorMatrix type="matrix" values="0 0 0 0 0.243137 0 0 0 0 0.588235 0 0 0 0 0.956863 0 0 0 0.05 0"/>
<feBlend mode="normal" in2="shape" result="effect2_innerShadow_1_843"/>
</filter>
</defs>
</svg>
