<svg width="32" height="35" viewBox="0 0 32 35" fill="none" xmlns="http://www.w3.org/2000/svg">
<g id="Group">
<path id="Vector" d="M27.5237 24.6105C27.5647 24.4563 27.6545 24.3196 27.7796 24.2207C27.9048 24.1219 28.0585 24.0661 28.2179 24.0619H29.0973C29.2281 24.0618 29.3549 24.0163 29.4559 23.9331C29.5569 23.8499 29.6258 23.7342 29.651 23.6058C29.8268 22.7112 29.9162 21.8017 29.9179 20.8899C29.9179 20.7402 29.8585 20.5967 29.7526 20.4908C29.6468 20.385 29.5032 20.3255 29.3535 20.3255H23.7095V12.9883C23.7094 12.8656 23.6694 12.7463 23.5954 12.6485C23.5215 12.5506 23.4177 12.4795 23.2997 12.4459L19.7587 11.4339V8.47306C19.7587 8.32337 19.6992 8.17981 19.5934 8.07396C19.4875 7.96812 19.344 7.90865 19.1943 7.90865H12.4214C12.2717 7.90865 12.1282 7.96812 12.0223 8.07396C11.9165 8.17981 11.857 8.32337 11.857 8.47306V11.4339L8.31597 12.4459C8.19801 12.4795 8.09421 12.5506 8.02028 12.6485C7.94635 12.7463 7.9063 12.8656 7.90621 12.9883V20.3255H2.26219C2.1125 20.3255 1.96894 20.385 1.86309 20.4908C1.75725 20.5967 1.69778 20.7402 1.69778 20.8899C1.6995 21.8017 1.7889 22.7112 1.96475 23.6058C1.98987 23.7342 2.05883 23.8499 2.15982 23.9331C2.26082 24.0163 2.38758 24.0618 2.51843 24.0619H3.39833C3.55775 24.0661 3.71152 24.1219 3.83665 24.2207C3.96177 24.3196 4.05154 24.4563 4.09255 24.6105C4.30419 25.2755 4.57232 25.9213 4.894 26.5407C4.97416 26.679 5.00743 26.8394 4.98881 26.9981C4.97019 27.1568 4.90069 27.3053 4.79071 27.4212L4.16535 28.0465C4.0729 28.1391 4.01548 28.2609 4.00292 28.3912C3.99036 28.5214 4.02344 28.652 4.0965 28.7605C5.11595 30.2774 6.42036 31.5818 7.93726 32.6013C8.0458 32.6743 8.17635 32.7074 8.30659 32.6948C8.43682 32.6823 8.55865 32.6249 8.65123 32.5324L9.27715 31.9071C9.39352 31.7983 9.54159 31.7296 9.69978 31.7109C9.85797 31.6922 10.018 31.7245 10.1565 31.8032C10.7762 32.1254 11.4223 32.3939 12.0879 32.6058C12.2417 32.6469 12.3782 32.7366 12.4769 32.8617C12.5755 32.9867 12.6311 33.1402 12.6353 33.2994V34.1788C12.6353 34.3099 12.6809 34.4369 12.7644 34.538C12.8478 34.6392 12.9638 34.7081 13.0925 34.733C14.8852 35.089 16.7305 35.089 18.5232 34.733C18.6519 34.7081 18.7679 34.6392 18.8514 34.538C18.9348 34.4369 18.9804 34.3099 18.9804 34.1788V33.2994C18.9845 33.1401 19.04 32.9864 19.1387 32.8613C19.2374 32.7362 19.3739 32.6464 19.5278 32.6052C20.193 32.3938 20.8388 32.1256 21.4581 31.8038C21.5967 31.7249 21.7569 31.6923 21.9153 31.7109C22.0737 31.7295 22.222 31.7982 22.3386 31.9071L22.9645 32.5324C23.057 32.625 23.1788 32.6825 23.309 32.6951C23.4393 32.7078 23.5698 32.6748 23.6784 32.6018C25.1954 31.5822 26.4998 30.2776 27.5192 28.7605C27.5923 28.652 27.6253 28.5214 27.6128 28.3912C27.6002 28.2609 27.5428 28.1391 27.4504 28.0465L26.825 27.4201C26.7149 27.3042 26.6454 27.1558 26.6268 26.997C26.6081 26.8383 26.6415 26.6778 26.7217 26.5396C27.0433 25.9202 27.3115 25.2744 27.5232 24.6093L27.5237 24.6105ZM19.7587 12.6079L22.5807 13.4138V20.3255H19.7587V12.6079ZM12.9858 9.03746H18.6299V20.3255H17.5011V18.0679C17.5011 17.9182 17.4416 17.7747 17.3358 17.6688C17.2299 17.563 17.0863 17.5035 16.9367 17.5035H14.679C14.5294 17.5035 14.3858 17.563 14.28 17.6688C14.1741 17.7747 14.1146 17.9182 14.1146 18.0679V20.3255H12.9858V9.03746ZM16.3723 18.6323V20.3255H15.2435V18.6323H16.3723ZM9.03502 13.4138L11.857 12.6079V20.3255H9.03502V13.4138ZM23.5814 21.4543C23.4411 23.4202 22.5612 25.26 21.1189 26.6032C19.6765 27.9463 17.7788 28.6931 15.8079 28.6931C13.8369 28.6931 11.9392 27.9463 10.4969 26.6032C9.05448 25.26 8.17457 23.4202 8.03433 21.4543H23.5814ZM26.448 24.2679C26.2557 24.8717 26.0121 25.458 25.7199 26.0203C25.53 26.3716 25.4574 26.7744 25.5126 27.1699C25.5678 27.5654 25.7481 27.9329 26.0269 28.2187L26.3176 28.5099C25.5131 29.6198 24.5377 30.5951 23.4279 31.3997L23.1366 31.1084C22.8509 30.8291 22.4833 30.6487 22.0876 30.5935C21.6919 30.5384 21.2889 30.6114 20.9377 30.802C20.3757 31.0944 19.7896 31.338 19.1858 31.53C18.8038 31.6443 18.4683 31.8775 18.2282 32.1958C17.9881 32.5141 17.8559 32.9008 17.851 33.2994V33.7058C16.4977 33.9252 15.118 33.9252 13.7647 33.7058V33.2994C13.7598 32.9008 13.6276 32.5141 13.3875 32.1958C13.1474 31.8775 12.8119 31.6443 12.4299 31.53C11.826 31.3379 11.2397 31.0943 10.6774 30.802C10.3263 30.6116 9.92346 30.5387 9.52788 30.5939C9.13231 30.649 8.76478 30.8293 8.47908 31.1084L8.18785 31.3997C7.07799 30.5951 6.10264 29.6198 5.29811 28.5099L5.58934 28.2187C5.86814 27.9328 6.0483 27.5654 6.10353 27.1699C6.15876 26.7744 6.08618 26.3716 5.89638 26.0203C5.60412 25.458 5.36054 24.8717 5.1683 24.2679C5.05381 23.8859 4.8204 23.5505 4.50205 23.3104C4.1837 23.0703 3.79703 22.9381 3.39833 22.9331H2.9914C2.91304 22.4434 2.86216 21.9497 2.83901 21.4543H6.90553C7.04536 23.7205 8.04414 25.848 9.69829 27.4032C11.3524 28.9584 13.5374 29.8243 15.8079 29.8243C18.0783 29.8243 20.2633 28.9584 21.9174 27.4032C23.5716 25.848 24.5703 23.7205 24.7102 21.4543H28.7767C28.7535 21.9497 28.7027 22.4434 28.6243 22.9331H28.2179C27.8192 22.9381 27.4326 23.0703 27.1142 23.3104C26.7959 23.5505 26.5625 23.8859 26.448 24.2679ZM16.3723 7.34425V3.28958C16.7488 3.15644 17.0662 2.89446 17.2683 2.54994C17.4704 2.20542 17.5442 1.80055 17.4767 1.40688C17.4091 1.01322 17.2046 0.656098 16.8992 0.39865C16.5938 0.141202 16.2073 0 15.8079 0C15.4084 0 15.0219 0.141202 14.7165 0.39865C14.4111 0.656098 14.2066 1.01322 14.139 1.40688C14.0715 1.80055 14.1453 2.20542 14.3474 2.54994C14.5495 2.89446 14.8669 3.15644 15.2435 3.28958V7.34425H16.3723ZM15.8079 1.13582C15.9195 1.13582 16.0286 1.16892 16.1214 1.23094C16.2142 1.29296 16.2866 1.3811 16.3293 1.48423C16.372 1.58737 16.3832 1.70085 16.3614 1.81033C16.3396 1.91982 16.2859 2.02038 16.2069 2.09932C16.128 2.17825 16.0274 2.232 15.918 2.25378C15.8085 2.27556 15.695 2.26438 15.5919 2.22166C15.4887 2.17894 15.4006 2.1066 15.3386 2.01379C15.2766 1.92097 15.2435 1.81185 15.2435 1.70022C15.2436 1.55058 15.3031 1.40711 15.4089 1.30129C15.5147 1.19548 15.6582 1.13597 15.8079 1.13582Z" fill="url(#paint0_linear_305_323)"/>
<path id="Vector_2" d="M21.4519 7.34413V11.2949H22.5807V7.57779L23.5486 6.60984C23.7746 6.72024 24.0225 6.77831 24.2739 6.77973C24.6088 6.77973 24.9361 6.68042 25.2146 6.49437C25.493 6.30832 25.7101 6.04388 25.8382 5.73448C25.9664 5.42509 25.9999 5.08464 25.9346 4.75619C25.8692 4.42774 25.708 4.12604 25.4712 3.88924C25.2344 3.65244 24.9327 3.49118 24.6042 3.42585C24.2758 3.36051 23.9353 3.39404 23.6259 3.5222C23.3165 3.65035 23.0521 3.86738 22.866 4.14582C22.68 4.42427 22.5807 4.75163 22.5807 5.08652C22.5819 5.33792 22.6398 5.58581 22.75 5.81178L21.6173 6.9451C21.5114 7.05092 21.4519 7.19445 21.4519 7.34413ZM24.2739 4.52212C24.3855 4.52212 24.4946 4.55522 24.5875 4.61724C24.6803 4.67925 24.7526 4.7674 24.7953 4.87053C24.8381 4.97366 24.8492 5.08715 24.8275 5.19663C24.8057 5.30611 24.7519 5.40668 24.673 5.48561C24.5941 5.56455 24.4935 5.6183 24.384 5.64008C24.2745 5.66186 24.161 5.65068 24.0579 5.60796C23.9548 5.56524 23.8666 5.4929 23.8046 5.40009C23.7426 5.30727 23.7095 5.19815 23.7095 5.08652C23.7096 4.93688 23.7692 4.7934 23.875 4.68759C23.9808 4.58178 24.1243 4.52227 24.2739 4.52212ZM7.34182 3.39331C6.89275 3.39331 6.46208 3.5717 6.14454 3.88924C5.827 4.20678 5.64861 4.63745 5.64861 5.08652C5.64861 5.53559 5.827 5.96626 6.14454 6.2838C6.46208 6.60134 6.89275 6.77973 7.34182 6.77973C7.59322 6.77848 7.84111 6.72061 8.06708 6.61041L9.03503 7.57723V11.2949H10.1638V7.34413C10.1638 7.19445 10.1043 7.05092 9.99846 6.9451L8.86514 5.81178C8.97554 5.58586 9.03361 5.33797 9.03503 5.08652C9.03458 4.63759 8.85604 4.20718 8.5386 3.88974C8.22116 3.57229 7.79075 3.39376 7.34182 3.39331ZM7.34182 5.65092C7.23019 5.65092 7.12107 5.61782 7.02825 5.5558C6.93544 5.49379 6.8631 5.40564 6.82038 5.30251C6.77766 5.19938 6.76648 5.08589 6.78826 4.97641C6.81004 4.86693 6.86379 4.76636 6.94272 4.68743C7.02166 4.60849 7.12222 4.55474 7.23171 4.53296C7.34119 4.51118 7.45467 4.52236 7.55781 4.56508C7.66094 4.6078 7.74908 4.68014 7.8111 4.77295C7.87312 4.86577 7.90622 4.97489 7.90622 5.08652C7.90607 5.23616 7.84656 5.37963 7.74075 5.48545C7.63493 5.59126 7.49146 5.65077 7.34182 5.65092ZM1.69779 9.60174C1.42026 9.60099 1.1468 9.66847 0.901478 9.79824C0.656156 9.92801 0.446493 10.1161 0.290944 10.3459C0.135394 10.5758 0.0387264 10.8403 0.00944859 11.1163C-0.0198292 11.3923 0.0191806 11.6713 0.123045 11.9286C0.226909 12.186 0.392442 12.4139 0.605077 12.5922C0.817711 12.7706 1.07093 12.8939 1.34244 12.9514C1.61395 13.0089 1.89543 12.9988 2.16211 12.9219C2.42878 12.8451 2.67248 12.7038 2.87175 12.5107L4.5198 13.3364V17.5034H5.64861V12.9882C5.64861 12.8834 5.61946 12.7808 5.56444 12.6917C5.50942 12.6025 5.43069 12.5305 5.33706 12.4836L3.37068 11.4981C3.38161 11.4309 3.38839 11.363 3.391 11.2949C3.39055 10.846 3.21202 10.4156 2.89457 10.0982C2.57713 9.78072 2.14672 9.60219 1.69779 9.60174ZM1.69779 11.8594C1.58616 11.8594 1.47704 11.8263 1.38423 11.7642C1.29141 11.7022 1.21907 11.6141 1.17635 11.5109C1.13363 11.4078 1.12245 11.2943 1.14423 11.1848C1.16601 11.0754 1.21976 10.9748 1.2987 10.8959C1.37763 10.8169 1.4782 10.7632 1.58768 10.7414C1.69716 10.7196 1.81065 10.7308 1.91378 10.7735C2.01691 10.8162 2.10506 10.8886 2.16707 10.9814C2.22909 11.0742 2.26219 11.1833 2.26219 11.2949C2.26204 11.4446 2.20253 11.5881 2.09672 11.6939C1.9909 11.7997 1.84743 11.8592 1.69779 11.8594ZM4.5198 18.6322H5.64861V19.761H4.5198V18.6322ZM31.6111 11.2949C31.6111 10.8459 31.4327 10.4152 31.1152 10.0977C30.7977 9.78013 30.367 9.60174 29.9179 9.60174C29.4689 9.60174 29.0382 9.78013 28.7206 10.0977C28.4031 10.4152 28.2247 10.8459 28.2247 11.2949C28.2273 11.363 28.2341 11.4309 28.245 11.4981L26.2787 12.4836C26.185 12.5305 26.1063 12.6025 26.0513 12.6917C25.9963 12.7808 25.9671 12.8834 25.9671 12.9882V17.5034H27.0959V13.3364L28.744 12.5107C28.9824 12.7423 29.2839 12.8984 29.6107 12.9595C29.9374 13.0206 30.2749 12.984 30.581 12.8543C30.887 12.7245 31.148 12.5073 31.3312 12.23C31.5145 11.9526 31.6118 11.6274 31.6111 11.2949ZM29.3535 11.2949C29.3535 11.1833 29.3866 11.0742 29.4486 10.9814C29.5107 10.8886 29.5988 10.8162 29.7019 10.7735C29.8051 10.7308 29.9186 10.7196 30.028 10.7414C30.1375 10.7632 30.2381 10.8169 30.317 10.8959C30.396 10.9748 30.4497 11.0754 30.4715 11.1848C30.4933 11.2943 30.4821 11.4078 30.4394 11.5109C30.3966 11.6141 30.3243 11.7022 30.2315 11.7642C30.1387 11.8263 30.0296 11.8594 29.9179 11.8594C29.7683 11.8592 29.6248 11.7997 29.519 11.6939C29.4132 11.5881 29.3537 11.4446 29.3535 11.2949ZM25.9671 18.6322H27.0959V19.761H25.9671V18.6322ZM14.1147 10.7305H17.5011V11.8594H14.1147V10.7305ZM14.1147 12.9882H17.5011V14.117H14.1147V12.9882ZM14.1147 15.2458H17.5011V16.3746H14.1147V15.2458ZM20.3231 14.117H22.0163V15.2458H20.3231V14.117ZM20.3231 16.3746H22.0163V17.5034H20.3231V16.3746ZM9.59943 14.117H11.2926V15.2458H9.59943V14.117ZM9.59943 16.3746H11.2926V17.5034H9.59943V16.3746Z" fill="url(#paint1_linear_305_323)"/>
</g>
<defs>
<linearGradient id="paint0_linear_305_323" x1="6.0662" y1="4.37256" x2="29.5238" y2="23.1209" gradientUnits="userSpaceOnUse">
<stop stop-color="#3E96F4"/>
<stop offset="1" stop-color="#31393C"/>
</linearGradient>
<linearGradient id="paint1_linear_305_323" x1="4.89334" y1="5.43813" x2="14.124" y2="23.1096" gradientUnits="userSpaceOnUse">
<stop stop-color="#3E96F4"/>
<stop offset="1" stop-color="#31393C"/>
</linearGradient>
</defs>
</svg>
