<svg xmlns="http://www.w3.org/2000/svg" width="85.435" height="85.849" viewBox="0 0 85.435 85.849">
  <g id="analysisi-icon" transform="translate(-470.757 -566.988)">
    <g id="Group_4234" data-name="Group 4234" transform="translate(470.757 566.988)">
      <path id="Path_8701" data-name="Path 8701" d="M507.96,647.782a5.466,5.466,0,0,1-5.088-3.52l-1.105-2.938a2.06,2.06,0,0,1-.086-.3.671.671,0,0,0-.465-.506,34.532,34.532,0,0,1-6.459-2.672.672.672,0,0,0-.69.024,1.742,1.742,0,0,1-.269.149l-2.857,1.3a5.461,5.461,0,0,1-6.085-1.108l-4.6-4.6a5.306,5.306,0,0,1-1.076-5.91l1.335-2.952a2.088,2.088,0,0,1,.152-.277.671.671,0,0,0,.024-.684,34.409,34.409,0,0,1-2.682-6.462.662.662,0,0,0-.5-.463,2.072,2.072,0,0,1-.3-.088l-3.029-1.141a5.3,5.3,0,0,1-3.417-4.939l0-6.511a5.462,5.462,0,0,1,3.516-5.083l2.922-1.1a2.454,2.454,0,0,1,.3-.087.667.667,0,0,0,.5-.463,34.33,34.33,0,0,1,2.682-6.478.668.668,0,0,0-.026-.682,1.919,1.919,0,0,1-.152-.277l-1.285-2.844a5.45,5.45,0,0,1,1.11-6.081l4.523-4.526a5.461,5.461,0,0,1,6.085-1.11l2.837,1.283a1.978,1.978,0,0,1,.275.151.666.666,0,0,0,.685.023,34.545,34.545,0,0,1,6.483-2.685.663.663,0,0,0,.462-.5,2.177,2.177,0,0,1,.089-.3l1.1-2.912a5.454,5.454,0,0,1,5.082-3.516h6.4a5.461,5.461,0,0,1,5.085,3.515l1.1,2.914a1.942,1.942,0,0,1,.088.3.669.669,0,0,0,.465.5,34.486,34.486,0,0,1,6.483,2.688.669.669,0,0,0,.681-.024,1.885,1.885,0,0,1,.28-.154l2.938-1.327a5.3,5.3,0,0,1,5.9,1.074l4.605,4.6a5.463,5.463,0,0,1,1.108,6.083l-1.287,2.844a1.974,1.974,0,0,1-.151.275.664.664,0,0,0-.024.682,34.6,34.6,0,0,1,2.68,6.477.666.666,0,0,0,.5.465,2.153,2.153,0,0,1,.3.088l2.922,1.1a5.458,5.458,0,0,1,3.518,5.083v6.511a5.306,5.306,0,0,1-3.414,4.939l-3.032,1.141a2.129,2.129,0,0,1-.3.088.664.664,0,0,0-.5.465c-.266.891-.575,1.786-.945,2.726a29.381,29.381,0,0,1-3.4,7.324,2.026,2.026,0,0,1-3.4-2.2,25.23,25.23,0,0,0,2.956-6.381c.016-.054.036-.105.055-.159.339-.857.622-1.667.862-2.474a4.719,4.719,0,0,1,3.382-3.229l2.9-1.094a1.231,1.231,0,0,0,.792-1.147v-6.511a1.387,1.387,0,0,0-.9-1.291l-2.794-1.055a4.709,4.709,0,0,1-3.383-3.231,30.53,30.53,0,0,0-2.366-5.714,4.714,4.714,0,0,1,.107-4.675l1.232-2.721a1.394,1.394,0,0,0-.285-1.551l-4.6-4.6a1.235,1.235,0,0,0-1.373-.25l-2.815,1.272a4.722,4.722,0,0,1-4.675.112,30.385,30.385,0,0,0-5.723-2.376,4.713,4.713,0,0,1-3.228-3.379l-1.052-2.787a1.392,1.392,0,0,0-1.295-.894h-6.4a1.383,1.383,0,0,0-1.29.893l-1.053,2.787a4.71,4.71,0,0,1-3.229,3.383,30.318,30.318,0,0,0-5.72,2.371,4.717,4.717,0,0,1-4.677-.105l-2.716-1.228a1.4,1.4,0,0,0-1.549.284l-4.524,4.527a1.384,1.384,0,0,0-.282,1.548l1.23,2.721a4.718,4.718,0,0,1,.107,4.675,30.412,30.412,0,0,0-2.366,5.715,4.718,4.718,0,0,1-3.379,3.229l-2.8,1.055a1.391,1.391,0,0,0-.9,1.293l0,6.511a1.215,1.215,0,0,0,.794,1.147l2.9,1.094a4.707,4.707,0,0,1,3.38,3.226,30.455,30.455,0,0,0,2.367,5.7,4.716,4.716,0,0,1-.107,4.678l-1.28,2.829a1.237,1.237,0,0,0,.251,1.374l4.6,4.6a1.386,1.386,0,0,0,1.547.282L492,634.39a4.734,4.734,0,0,1,4.675-.105,30.613,30.613,0,0,0,5.7,2.359,4.715,4.715,0,0,1,3.228,3.38l1.058,2.81a1.393,1.393,0,0,0,1.295.9l6.4,0a1.386,1.386,0,0,0,1.293-.9l1.06-2.811a4.715,4.715,0,0,1,3.228-3.38c.781-.235,1.565-.506,2.4-.833.053-.021.105-.039.16-.055a25.431,25.431,0,0,0,5.983-2.68,2.024,2.024,0,1,1,2.121,3.448,29.325,29.325,0,0,1-6.861,3.089c-.911.355-1.778.655-2.641.912a.663.663,0,0,0-.462.5,2.337,2.337,0,0,1-.087.3l-1.105,2.936a5.461,5.461,0,0,1-5.085,3.521Z" transform="translate(-470.757 -566.988)" fill="#1e0b4b"/>
    </g>
    <g id="Group_4235" data-name="Group 4235" transform="translate(523.407 620.156)">
      <path id="Path_8702" data-name="Path 8702" d="M527.332,632.48a6.666,6.666,0,0,1-4.743-1.965l-18.747-18.747a2.025,2.025,0,1,1,2.863-2.865l18.748,18.747a2.721,2.721,0,0,0,3.756,0l2-1.995a2.658,2.658,0,0,0,0-3.758l-18.638-18.64a2.025,2.025,0,1,1,2.863-2.865l18.64,18.64a6.717,6.717,0,0,1,0,9.486l-2,2A6.664,6.664,0,0,1,527.332,632.48Z" transform="translate(-503.248 -599.799)" fill="#1e0b4b"/>
    </g>
    <g id="Group_4236" data-name="Group 4236" transform="translate(482.889 579.117)">
      <path id="Path_8703" data-name="Path 8703" d="M506.509,631a28.273,28.273,0,1,1,20-48.261h0a28.265,28.265,0,0,1-20,48.261Zm0-52.481a24.216,24.216,0,1,0,17.131,7.084h0A24.15,24.15,0,0,0,506.509,578.524Z" transform="translate(-478.244 -574.473)" fill="#1e0b4b"/>
    </g>
    <g id="Group_4237" data-name="Group 4237" transform="translate(491.416 587.656)">
      <path id="Path_8704" data-name="Path 8704" d="M503.244,619.2A19.733,19.733,0,1,1,517.2,585.515h0A19.728,19.728,0,0,1,503.244,619.2Zm0-35.406a15.678,15.678,0,1,0,11.092,4.586A15.643,15.643,0,0,0,503.244,583.793Z" transform="translate(-483.506 -579.742)" fill="#1e0b4b"/>
    </g>
  </g>
</svg>
