<svg xmlns="http://www.w3.org/2000/svg" xmlns:xlink="http://www.w3.org/1999/xlink" width="82.664" height="82.664" viewBox="0 0 82.664 82.664">
  <defs>
    <linearGradient id="linear-gradient" x1="-0.279" y1="1.56" x2="1.779" y2="-0.45" gradientUnits="objectBoundingBox">
      <stop offset="0" stop-color="#1e0b4b"/>
      <stop offset="1" stop-color="#8f005b"/>
    </linearGradient>
  </defs>
  <g id="checking-the-machine" transform="translate(83.5 166.5)">
    <g id="Group_3977" data-name="Group 3977" transform="translate(-83 -155.792)">
      <g id="Group_3974" data-name="Group 3974">
        <path id="Path_7780" data-name="Path 7780" d="M-60.883-115.765A22.143,22.143,0,0,1-83-137.883,22.143,22.143,0,0,1-60.883-160a22.143,22.143,0,0,1,22.117,22.117A22.143,22.143,0,0,1-60.883-115.765Zm0-40.832A18.737,18.737,0,0,0-79.6-137.883a18.737,18.737,0,0,0,18.715,18.715,18.737,18.737,0,0,0,18.715-18.715A18.737,18.737,0,0,0-60.883-156.6Z" transform="translate(83 160)" stroke="rgba(0,0,0,0)" stroke-width="1" fill="url(#linear-gradient)"/>
      </g>
      <g id="Group_3975" data-name="Group 3975" transform="translate(20.416 40.832)">
        <path id="Path_7781" data-name="Path 7781" d="M-69.3-124.091a1.7,1.7,0,0,1-1.7-1.7V-134.3a1.7,1.7,0,0,1,1.7-1.7,1.7,1.7,0,0,1,1.7,1.7v8.507A1.7,1.7,0,0,1-69.3-124.091Z" transform="translate(71 136)" stroke="rgba(0,0,0,0)" stroke-width="1" fill="url(#linear-gradient)"/>
      </g>
      <g id="Group_3976" data-name="Group 3976" transform="translate(15.312 51.04)">
        <path id="Path_7782" data-name="Path 7782" d="M-65.493-109.584h-3.4a5.11,5.11,0,0,1-5.1-5.1V-124.9a5.11,5.11,0,0,1,5.1-5.1h3.4a5.11,5.11,0,0,1,5.1,5.1v10.208A5.11,5.11,0,0,1-65.493-109.584ZM-68.9-126.6a1.7,1.7,0,0,0-1.7,1.7v10.208a1.7,1.7,0,0,0,1.7,1.7h3.4a1.7,1.7,0,0,0,1.7-1.7V-124.9a1.7,1.7,0,0,0-1.7-1.7Z" transform="translate(74 130)" stroke="rgba(0,0,0,0)" stroke-width="1" fill="url(#linear-gradient)"/>
      </g>
    </g>
    <g id="Group_3984" data-name="Group 3984" transform="translate(-83 -166)">
      <g id="Group_3983" data-name="Group 3983">
        <g id="Group_3982" data-name="Group 3982">
          <g id="Group_3978" data-name="Group 3978">
            <path id="Path_7783" data-name="Path 7783" d="M-8.141-91.141H-47.272a1.7,1.7,0,0,1-1.7-1.7,1.7,1.7,0,0,1,1.7-1.7H-8.141a3.406,3.406,0,0,0,3.4-3.4v-61.248a3.406,3.406,0,0,0-3.4-3.4H-76.195a3.406,3.406,0,0,0-3.4,3.4,1.7,1.7,0,0,1-1.7,1.7,1.7,1.7,0,0,1-1.7-1.7A6.812,6.812,0,0,1-76.195-166H-8.141a6.812,6.812,0,0,1,6.805,6.805v61.248A6.812,6.812,0,0,1-8.141-91.141Z" transform="translate(83 166)" stroke="rgba(0,0,0,0)" stroke-width="1" fill="url(#linear-gradient)"/>
          </g>
          <g id="Group_3979" data-name="Group 3979" transform="translate(68.054 6.805)">
            <path id="Path_7784" data-name="Path 7784" d="M-39.6-158.6h-1.7a1.7,1.7,0,0,1-1.7-1.7,1.7,1.7,0,0,1,1.7-1.7h1.7a1.7,1.7,0,0,1,1.7,1.7A1.7,1.7,0,0,1-39.6-158.6Z" transform="translate(43 162)" stroke="rgba(0,0,0,0)" stroke-width="1" fill="url(#linear-gradient)"/>
          </g>
          <g id="Group_3980" data-name="Group 3980" transform="translate(59.547 6.805)">
            <path id="Path_7785" data-name="Path 7785" d="M-44.6-158.6h-1.7a1.7,1.7,0,0,1-1.7-1.7,1.7,1.7,0,0,1,1.7-1.7h1.7a1.7,1.7,0,0,1,1.7,1.7A1.7,1.7,0,0,1-44.6-158.6Z" transform="translate(48 162)" stroke="rgba(0,0,0,0)" stroke-width="1" fill="url(#linear-gradient)"/>
          </g>
          <g id="Group_3981" data-name="Group 3981" transform="translate(42.533 13.611)">
            <path id="Path_7786" data-name="Path 7786" d="M-27.376-154.6H-56.3a1.7,1.7,0,0,1-1.7-1.7,1.7,1.7,0,0,1,1.7-1.7h28.923a1.7,1.7,0,0,1,1.7,1.7A1.7,1.7,0,0,1-27.376-154.6Z" transform="translate(58 158)" stroke="rgba(0,0,0,0)" stroke-width="1" fill="url(#linear-gradient)"/>
          </g>
        </g>
      </g>
    </g>
    <g id="Group_3985" data-name="Group 3985" transform="translate(-72.792 -140.48)">
      <path id="Path_7787" data-name="Path 7787" d="M-70.194-137.389a1.7,1.7,0,0,1-1.2-.5l-5.1-5.1a1.7,1.7,0,0,1,0-2.406l5.1-5.1a1.7,1.7,0,0,1,2.406,0,1.7,1.7,0,0,1,0,2.406l-3.9,3.9,3.9,3.9a1.7,1.7,0,0,1,0,2.406A1.7,1.7,0,0,1-70.194-137.389Z" transform="translate(77 151)" stroke="rgba(0,0,0,0)" stroke-width="1" fill="url(#linear-gradient)"/>
    </g>
    <g id="Group_3986" data-name="Group 3986" transform="translate(-57.48 -140.48)">
      <path id="Path_7788" data-name="Path 7788" d="M-66.3-137.389a1.7,1.7,0,0,1-1.2-.5,1.7,1.7,0,0,1,0-2.406l3.9-3.9-3.9-3.9a1.7,1.7,0,0,1,0-2.406,1.7,1.7,0,0,1,2.406,0l5.1,5.1a1.7,1.7,0,0,1,0,2.406l-5.1,5.1A1.7,1.7,0,0,1-66.3-137.389Z" transform="translate(68 151)" stroke="rgba(0,0,0,0)" stroke-width="1" fill="url(#linear-gradient)"/>
    </g>
  </g>
</svg>
