<svg xmlns="http://www.w3.org/2000/svg" width="126.057" height="91.396" viewBox="0 0 126.057 91.396">
  <g id="customizability" transform="translate(-12.833 -44.5)">
    <path id="Path_7628" data-name="Path 7628" d="M193.942,110.111a1.368,1.368,0,0,1-1.368-1.368V86.832a1.368,1.368,0,1,1,2.736,0v21.911A1.368,1.368,0,0,1,193.942,110.111Z" transform="translate(-81.373 -18.545)" fill="#1e0b4b"/>
    <path id="Path_7629" data-name="Path 7629" d="M196.4,75.37l-7.284-13.05a1.368,1.368,0,0,0-2.389,0l-7.284,13.05a1.365,1.365,0,0,0-.173.667V97.947a1.368,1.368,0,0,0,1.368,1.368H195.2a1.368,1.368,0,0,0,1.368-1.368V76.037A1.366,1.366,0,0,0,196.4,75.37ZM185.5,70.121h4.831l2.538,4.547h-9.906Zm3.3-2.736H187.03l.888-1.591ZM182,96.579V77.4h11.831V96.579Z" transform="translate(-75.348 -7.75)" fill="#1e0b4b"/>
    <path id="Path_7630" data-name="Path 7630" d="M63.461,86.112A1.369,1.369,0,0,1,62.2,84.217l5.48-13.172A1.368,1.368,0,1,1,70.2,72.1l-5.48,13.172A1.368,1.368,0,0,1,63.461,86.112Z" transform="translate(-22.301 -11.636)" fill="#2f5bea"/>
    <path id="Path_7631" data-name="Path 7631" d="M88.415,86.1a1.368,1.368,0,0,1-.968-2.336l5.574-5.575L87.448,72.62a1.368,1.368,0,0,1,1.935-1.935l6.542,6.542a1.368,1.368,0,0,1,0,1.935L89.382,85.7A1.36,1.36,0,0,1,88.415,86.1Z" transform="translate(-33.598 -11.673)" fill="#2f5bea"/>
    <path id="Path_7632" data-name="Path 7632" d="M43.109,86.1a1.362,1.362,0,0,1-.967-.4L35.6,79.162a1.367,1.367,0,0,1,0-1.935l6.542-6.542a1.368,1.368,0,0,1,1.935,1.935L38.5,78.194l5.574,5.575a1.368,1.368,0,0,1-.968,2.336Z" transform="translate(-10.126 -11.673)" fill="#2f5bea"/>
    <path id="Path_7633" data-name="Path 7633" d="M42.328,119.041H36.567a1.368,1.368,0,1,1,0-2.736h5.761a1.368,1.368,0,0,1,0,2.736Z" transform="translate(-10.126 -32.508)" fill="#1e0b4b"/>
    <path id="Path_7634" data-name="Path 7634" d="M42.328,163.151H36.567a1.368,1.368,0,1,1,0-2.736h5.761a1.368,1.368,0,0,1,0,2.736Z" transform="translate(-10.126 -52.477)" fill="#2f5bea"/>
    <g id="Group_3649" data-name="Group 3649" transform="translate(12.833 44.5)">
      <path id="Path_7635" data-name="Path 7635" d="M57.093,119.041H77.525a1.368,1.368,0,1,0,0-2.736H57.093a1.368,1.368,0,1,0,0,2.736Z" transform="translate(-32.251 -77.008)" fill="#1e0b4b"/>
      <path id="Path_7636" data-name="Path 7636" d="M57.093,163.151h4.743a1.368,1.368,0,1,0,0-2.736H57.093a1.368,1.368,0,1,0,0,2.736Z" transform="translate(-32.251 -96.977)" fill="#2f5bea"/>
      <path id="Path_7637" data-name="Path 7637" d="M88.3,160.415H75.759a1.368,1.368,0,1,0,0,2.736H88.3a1.368,1.368,0,0,0,0-2.736Z" transform="translate(-40.702 -96.977)" fill="#1e0b4b"/>
      <path id="Path_7638" data-name="Path 7638" d="M75.657,177.854a1.368,1.368,0,0,0,0-2.736H57.093a1.368,1.368,0,1,0,0,2.736Z" transform="translate(-32.251 -103.634)" fill="#1e0b4b"/>
      <path id="Path_7639" data-name="Path 7639" d="M57.093,133.744h11.4a1.368,1.368,0,1,0,0-2.736h-11.4a1.368,1.368,0,1,0,0,2.736Z" transform="translate(-32.251 -83.664)" fill="#1e0b4b"/>
      <path id="Path_7640" data-name="Path 7640" d="M86.558,132.376a1.368,1.368,0,0,0,1.368,1.368h14.326a1.368,1.368,0,1,0,0-2.736H87.926A1.368,1.368,0,0,0,86.558,132.376Z" transform="translate(-46.21 -83.664)" fill="#1e0b4b"/>
      <path id="Path_7641" data-name="Path 7641" d="M57.093,148.447h11.4a1.368,1.368,0,1,0,0-2.736h-11.4a1.368,1.368,0,1,0,0,2.736Z" transform="translate(-32.251 -90.32)" fill="#1e0b4b"/>
      <path id="Path_7642" data-name="Path 7642" d="M98.03,145.711h-10.1a1.368,1.368,0,1,0,0,2.736h10.1a1.368,1.368,0,0,0,0-2.736Z" transform="translate(-46.21 -90.32)" fill="#1e0b4b"/>
      <path id="Path_7643" data-name="Path 7643" d="M137.522,44.5H14.2a1.368,1.368,0,0,0-1.368,1.368v88.659A1.368,1.368,0,0,0,14.2,135.9h123.32a1.368,1.368,0,0,0,1.368-1.368V45.868A1.368,1.368,0,0,0,137.522,44.5Zm-1.368,44.33H78.192l21.823-41.593h36.138ZM15.569,47.236H96.925L51.843,133.159H15.569Zm68.647,85.454,3.338-5.657a1.368,1.368,0,0,0-.837-2.02l-6.359-1.639a.717.717,0,0,1-.537-.694v-4.727a.716.716,0,0,1,.536-.693l6.36-1.639a1.369,1.369,0,0,0,.837-2.021l-3.337-5.655a.717.717,0,0,1,.111-.871l3.342-3.342a.718.718,0,0,1,.869-.112L94.2,106.96a1.368,1.368,0,0,0,2.02-.836l1.639-6.36a.716.716,0,0,1,.693-.536h4.727a.715.715,0,0,1,.693.535l1.64,6.361a1.368,1.368,0,0,0,2.02.836l5.655-3.337a.717.717,0,0,1,.871.111l3.342,3.342a.715.715,0,0,1,.112.869l-3.338,5.657a1.368,1.368,0,0,0,.837,2.021l6.359,1.639a.717.717,0,0,1,.537.694v4.727a.716.716,0,0,1-.536.693l-6.36,1.639a1.368,1.368,0,0,0-.837,2.02l3.338,5.656a.709.709,0,0,1,.089.47H84.128A.709.709,0,0,1,84.216,132.691Zm36.214.468a3.437,3.437,0,0,0-.465-1.859l-2.414-4.09,4.6-1.185a3.453,3.453,0,0,0,2.588-3.343v-4.727a3.454,3.454,0,0,0-2.589-3.343l-4.6-1.185,2.415-4.091a3.452,3.452,0,0,0-.534-4.193l-3.343-3.343a3.455,3.455,0,0,0-4.194-.533l-4.09,2.414-1.186-4.6a3.452,3.452,0,0,0-3.342-2.588H98.548a3.452,3.452,0,0,0-3.343,2.589l-1.185,4.6-4.092-2.415a3.454,3.454,0,0,0-4.193.534l-3.342,3.343a3.453,3.453,0,0,0-.534,4.194l2.414,4.09-4.6,1.185a3.454,3.454,0,0,0-2.588,3.343v4.727a3.454,3.454,0,0,0,2.589,3.343l4.6,1.185L81.858,131.3a3.436,3.436,0,0,0-.464,1.857H54.933L76.757,91.566h59.4v41.593Z" transform="translate(-12.833 -44.5)" fill="#1e0b4b"/>
    </g>
    <path id="Path_7644" data-name="Path 7644" d="M165.66,184.731a9.808,9.808,0,1,1,9.807-9.807A9.818,9.818,0,0,1,165.66,184.731Zm0-16.879a7.071,7.071,0,1,0,7.071,7.071A7.079,7.079,0,0,0,165.66,167.852Z" transform="translate(-64.748 -54.605)" fill="#1e0b4b"/>
  </g>
</svg>
