<svg xmlns="http://www.w3.org/2000/svg" width="49.184" height="47.516" viewBox="0 0 49.184 47.516">
  <g id="dedicated-team-red-icon" transform="translate(0)">
    <path id="Path_8504" data-name="Path 8504" d="M48.9,16.363l-7.4-7.4a.969.969,0,0,0-1.371,0L35.592,13.5A9.571,9.571,0,0,0,27.9,16.261l-2.884,2.884-4.462-3.724-.041-.033a11.107,11.107,0,0,0-7.257-2.165l-4.2-4.2a.969.969,0,0,0-1.371,0l-7.4,7.4a.969.969,0,0,0,0,1.371l4.539,4.539a9.574,9.574,0,0,0,2.758,7.7s7.187,7.184,7.2,7.2l.482,5.34c0,.017,0,.035.006.052a11.1,11.1,0,0,0,3.6,6.663v5.94a.969.969,0,0,0,.969.969H20.7a.969.969,0,0,0,.117-1.932v-1.9h8.524v1.891h-.062a.969.969,0,1,0,0,1.939h1.031a.969.969,0,0,0,.969-.969V48.8a9.572,9.572,0,0,0,3.491-7.391V37.436c.063-.041,7.7-8.162,7.7-8.162a.966.966,0,0,0,.07-.083A11.105,11.105,0,0,0,44.7,21.934l4.2-4.2a.97.97,0,0,0,0-1.371ZM8.368,11.079,9.7,12.416,3.677,18.444,2.34,17.106Zm.584,17.576A7.674,7.674,0,0,1,6.8,22.11a.969.969,0,0,0-.275-.819L5.048,19.814l6.028-6.028L12.2,14.914a.97.97,0,0,0,.8.277,9.076,9.076,0,0,1,6.326,1.736l4.193,3.5a2.77,2.77,0,0,0-.744.6,3.208,3.208,0,0,0-.72,1.522,2.8,2.8,0,0,0-.913-.152,2.737,2.737,0,0,0-2.757,2.711v5.276a3.753,3.753,0,0,0-1.329.091h0c-.1.03-.218.072-.315.109L13.891,27.7a.969.969,0,1,0-1.377,1.365l2.629,2.653a3.791,3.791,0,0,0-.629,2.5ZM32.828,41.41a7.673,7.673,0,0,1-3.107,6.151.969.969,0,0,0-.385.773v2.088H20.812V48.828a.969.969,0,0,0-.371-.763,9.067,9.067,0,0,1-3.245-5.7l-.761-8.434c0-.012,0-.024,0-.036-.1-.756.293-1.28,1.157-1.557a1.619,1.619,0,0,1,.8.013V39.3a.969.969,0,1,0,1.939,0V25.105a.82.82,0,0,1,1.635,0V35.378a.993.993,0,0,0,1.986,0V23.1c0-.469.306-1.077.851-1.05.51.025.785.6.785,1.05V35.378a.993.993,0,0,0,1.986,0V25.105a.82.82,0,0,1,1.635,0V35.378a.976.976,0,0,0,1.823.46.965.965,0,0,0,.164-.539V26.829a.822.822,0,0,1,1.636,0V41.41Zm9.905-19.726a9.077,9.077,0,0,1-1.72,6.3l-6.246,6.656V31.572c.054-.035,3.213-3.153,3.213-3.153a.969.969,0,1,0-1.364-1.378l-1.849,1.83V26.829a2.657,2.657,0,0,0-.82-1.921,2.8,2.8,0,0,0-2.922-.6,2.678,2.678,0,0,0-.695-1.127,2.757,2.757,0,0,0-1.941-.788,2.787,2.787,0,0,0-.913.154c-.014-.083-.031-.166-.051-.247a2.977,2.977,0,0,0-1.132-1.693l2.977-2.977a7.671,7.671,0,0,1,6.545-2.152.969.969,0,0,0,.819-.275l1.477-1.477,6.028,6.028L43.01,20.883a.969.969,0,0,0-.277.8Zm2.774-3.3L39.48,12.357l1.337-1.337,6.027,6.028Z" transform="translate(0 -8.68)" fill="#f15151"/>
    <ellipse id="Ellipse_209" data-name="Ellipse 209" cx="0.961" cy="0.961" rx="0.961" ry="0.961" transform="translate(24.003 45.595)" fill="#f15151"/>
  </g>
</svg>
