<svg xmlns="http://www.w3.org/2000/svg" width="98.426" height="100.148" viewBox="0 0 98.426 100.148">
  <g id="development-crossplatform" transform="translate(-6.997 -6)">
    <g id="Group_3928" data-name="Group 3928" transform="translate(10.45 9.453)">
      <path id="Path_7873" data-name="Path 7873" d="M103.845,79.859H101.49a18.337,18.337,0,0,0-2.162-5.21L101,72.981a2.128,2.128,0,0,0,0-3l-3.2-3.2a2.175,2.175,0,0,0-3,0l-1.669,1.668a18.3,18.3,0,0,0-5.209-2.161V63.925A2.127,2.127,0,0,0,85.787,61.8h-1.4V43.584h9.7a4.322,4.322,0,0,0,4.317-4.317V28.109a4.322,4.322,0,0,0-4.317-4.317h-9.7V16.938A6.946,6.946,0,0,0,77.454,10H36.7a6.946,6.946,0,0,0-6.938,6.938V33.577H16.788A5.8,5.8,0,0,0,11,39.369V55.294a5.8,5.8,0,0,0,5.792,5.792H29.763V99.757a6.946,6.946,0,0,0,6.938,6.938H85.787a2.127,2.127,0,0,0,2.125-2.125v-2.355a18.332,18.332,0,0,0,5.209-2.162l1.669,1.668a2.126,2.126,0,0,0,3,0l3.2-3.2a2.128,2.128,0,0,0,0-3l-1.668-1.669a18.327,18.327,0,0,0,2.162-5.209h2.355a2.127,2.127,0,0,0,2.125-2.125V81.983A2.126,2.126,0,0,0,103.845,79.859Z" transform="translate(-10.996 -10)" fill="#fcfeff"/>
    </g>
    <g id="Group_3942" data-name="Group 3942" transform="translate(6.997 6)">
      <g id="Group_3932" data-name="Group 3932" transform="translate(19.63 0.863)">
        <g id="Group_3931" data-name="Group 3931">
          <path id="Path_7874" data-name="Path 7874" d="M76.561,7H35.808a6.074,6.074,0,0,0-6.074,6.074v82.82a6.074,6.074,0,0,0,6.074,6.074H82.635V13.074A6.074,6.074,0,0,0,76.561,7Z" transform="translate(-29.734 -7)" fill="#2f5bea"/>
          <g id="Group_3929" data-name="Group 3929" transform="translate(0 9.004)">
            <rect id="Rectangle_996" data-name="Rectangle 996" width="73.088" height="52.901" transform="translate(52.901 0) rotate(90)" fill="#f1f6fb"/>
          </g>
          <g id="Group_3930" data-name="Group 3930" transform="translate(0 9.004)">
            <rect id="Rectangle_997" data-name="Rectangle 997" width="52.901" height="2.59" fill="#fff"/>
          </g>
          <rect id="Rectangle_998" data-name="Rectangle 998" width="16.514" height="1.959" rx="0.98" transform="translate(18.194 3.614)" fill="#aec1ff"/>
          <path id="Path_7875" data-name="Path 7875" d="M74.3,11.075a1.075,1.075,0,1,0,1.076,1.076A1.076,1.076,0,0,0,74.3,11.075Z" transform="translate(-35.678 -7.557)" fill="#aec1ff"/>
          <rect id="Rectangle_999" data-name="Rectangle 999" width="14.275" height="4.758" rx="2.379" transform="translate(19.313 85.603)" fill="#aec1ff"/>
        </g>
      </g>
      <g id="Group_3934" data-name="Group 3934" transform="translate(50.942 52.664)">
        <g id="Group_3933" data-name="Group 3933" transform="translate(11.265 11.265)">
          <circle id="Ellipse_99" data-name="Ellipse 99" cx="10.319" cy="10.319" r="10.319" fill="#ffd7e5"/>
        </g>
        <path id="Path_7876" data-name="Path 7876" d="M109.17,90.848V86.319a1.261,1.261,0,0,0-1.261-1.261h-3.048a17.53,17.53,0,0,0-2.569-6.194l2.158-2.157a1.26,1.26,0,0,0,0-1.784l-3.2-3.2a1.26,1.26,0,0,0-1.784,0l-2.157,2.157a17.529,17.529,0,0,0-6.194-2.569V68.261A1.261,1.261,0,0,0,89.851,67H85.322a1.261,1.261,0,0,0-1.261,1.261v3.048a17.529,17.529,0,0,0-6.194,2.569L75.71,71.721a1.26,1.26,0,0,0-1.784,0l-3.2,3.2a1.26,1.26,0,0,0,0,1.784l2.157,2.157a17.53,17.53,0,0,0-2.569,6.194H67.264A1.261,1.261,0,0,0,66,86.319v4.529a1.261,1.261,0,0,0,1.261,1.261h3.048A17.53,17.53,0,0,0,72.881,98.3l-2.157,2.157a1.26,1.26,0,0,0,0,1.784l3.2,3.2a1.26,1.26,0,0,0,1.784,0l2.157-2.157a17.529,17.529,0,0,0,6.194,2.569v3.048a1.261,1.261,0,0,0,1.261,1.261h4.529a1.261,1.261,0,0,0,1.261-1.261v-3.048a17.529,17.529,0,0,0,6.194-2.569l2.157,2.157a1.26,1.26,0,0,0,1.784,0l3.2-3.2a1.26,1.26,0,0,0,0-1.784L102.292,98.3a17.53,17.53,0,0,0,2.569-6.194h3.048A1.261,1.261,0,0,0,109.17,90.848ZM87.587,98.9A10.319,10.319,0,1,1,97.905,88.584,10.319,10.319,0,0,1,87.587,98.9Z" transform="translate(-66.003 -67)" fill="#f15151"/>
      </g>
      <g id="Group_3936" data-name="Group 3936" transform="translate(58.619 14.655)">
        <path id="Path_7877" data-name="Path 7877" d="M99.369,22.975H78.348a3.453,3.453,0,0,0-3.453,3.453V37.587a3.453,3.453,0,0,0,3.453,3.453h5.139v4.973l5.628-4.973H99.369a3.454,3.454,0,0,0,3.453-3.453V26.428A3.454,3.454,0,0,0,99.369,22.975Z" transform="translate(-74.895 -22.975)" fill="#ffd7e5"/>
        <g id="Group_3935" data-name="Group 3935" transform="translate(7.115 3.496)">
          <path id="Path_7878" data-name="Path 7878" d="M95.77,28.089h0a3.629,3.629,0,0,0-5.134,0l-.651.651-.652-.651a3.628,3.628,0,0,0-5.133,0h0a3.628,3.628,0,0,0,0,5.133l.651.652L89.179,38.2a1.14,1.14,0,0,0,1.613,0l4.327-4.327.652-.652A3.63,3.63,0,0,0,95.77,28.089Z" transform="translate(-83.136 -27.025)" fill="#fa759e"/>
        </g>
      </g>
      <g id="Group_3941" data-name="Group 3941">
        <g id="Group_3939" data-name="Group 3939">
          <g id="Group_3938" data-name="Group 3938">
            <path id="Path_7879" data-name="Path 7879" d="M12.925,34.309h30a4.929,4.929,0,0,1,4.929,4.928V55.162a4.929,4.929,0,0,1-4.929,4.929H35.592v7.1l-8.033-7.1H12.925A4.929,4.929,0,0,1,8,55.162V39.237A4.929,4.929,0,0,1,12.925,34.309Z" transform="translate(-7.134 -9.869)" fill="#aec1ff"/>
            <g id="Group_3937" data-name="Group 3937">
              <path id="Path_7880" data-name="Path 7880" d="M29.6,86.144a.863.863,0,0,0,.863-.863V76.863a.863.863,0,0,0-1.727,0v8.418A.863.863,0,0,0,29.6,86.144Z" transform="translate(-9.968 -15.566)" fill="#3a2c60"/>
              <path id="Path_7881" data-name="Path 7881" d="M99.845,75.858H97.49a18.3,18.3,0,0,0-2.163-5.209L97,68.981a2.121,2.121,0,0,0,0-3l-3.2-3.2a2.174,2.174,0,0,0-3,0l-1.669,1.668a18.275,18.275,0,0,0-5.209-2.161V59.925A2.127,2.127,0,0,0,81.788,57.8h-1.4V39.584h9.7a4.322,4.322,0,0,0,4.317-4.317V24.109a4.322,4.322,0,0,0-4.317-4.317h-9.7V12.937A6.945,6.945,0,0,0,73.454,6H32.7a6.945,6.945,0,0,0-6.937,6.937v16.64H12.788A5.8,5.8,0,0,0,7,35.369V51.294a5.8,5.8,0,0,0,5.791,5.792H25.763v6.542a.863.863,0,0,0,1.727,0V57.435l7.394,6.532a.863.863,0,0,0,1.435-.648V57.086h6.47a5.8,5.8,0,0,0,5.792-5.792V35.369a5.8,5.8,0,0,0-5.792-5.792H27.49V16.73H78.665v3.062h-9.6a4.322,4.322,0,0,0-4.317,4.317V35.267a4.322,4.322,0,0,0,4.317,4.317h4.275v4.11a.864.864,0,0,0,1.436.647l3.885-3.432V57.8H77.259a2.127,2.127,0,0,0-2.125,2.125v2.356a18.28,18.28,0,0,0-5.209,2.161l-1.669-1.668a2.174,2.174,0,0,0-3,0l-3.2,3.2a2.128,2.128,0,0,0,0,3l1.67,1.669a18.335,18.335,0,0,0-2.163,5.209H59.2a2.127,2.127,0,0,0-2.125,2.125v4.529A2.126,2.126,0,0,0,59.2,84.636h2.355a18.2,18.2,0,0,0,1.234,3.456H27.49V79.6a.863.863,0,0,0-1.727,0V95.757a6.946,6.946,0,0,0,6.937,6.938H81.788a2.127,2.127,0,0,0,2.125-2.125V98.215a18.322,18.322,0,0,0,5.209-2.162l1.669,1.668a2.126,2.126,0,0,0,3,0l3.2-3.2a2.123,2.123,0,0,0,0-3.005l-1.669-1.669a18.27,18.27,0,0,0,2.163-5.209h2.355a2.127,2.127,0,0,0,2.125-2.124V77.983A2.127,2.127,0,0,0,99.845,75.858ZM46.854,35.369V51.294a4.07,4.07,0,0,1-4.065,4.065H35.455a.863.863,0,0,0-.863.863V61.4l-6.6-5.829a.863.863,0,0,0-.572-.216H12.788a4.069,4.069,0,0,1-4.065-4.065V35.369A4.069,4.069,0,0,1,12.788,31.3h30A4.07,4.07,0,0,1,46.854,35.369ZM27.49,15V12.937a5.216,5.216,0,0,1,5.21-5.21H73.454a5.217,5.217,0,0,1,5.211,5.21V15ZM74.207,37.857H69.069a2.593,2.593,0,0,1-2.59-2.59V24.109a2.593,2.593,0,0,1,2.59-2.59H90.09a2.593,2.593,0,0,1,2.59,2.59V35.267a2.593,2.593,0,0,1-2.59,2.59H79.836a.863.863,0,0,0-.572.216l-4.194,3.705V38.721A.863.863,0,0,0,74.207,37.857ZM27.49,95.757V89.819H63.7l.015.027-1.67,1.669a2.128,2.128,0,0,0,0,3l3.2,3.2a2.127,2.127,0,0,0,3,0l1.669-1.668a18.328,18.328,0,0,0,5.209,2.162v2.355a2.16,2.16,0,0,0,.04.4H32.7A5.217,5.217,0,0,1,27.49,95.757Zm72.753-13.245a.4.4,0,0,1-.4.4H96.8a.864.864,0,0,0-.846.692,16.568,16.568,0,0,1-2.443,5.889.863.863,0,0,0,.11,1.087l2.158,2.159a.4.4,0,0,1,0,.562l-3.2,3.2a.4.4,0,0,1-.562,0l-2.158-2.157a.863.863,0,0,0-1.087-.11,16.61,16.61,0,0,1-5.89,2.443.864.864,0,0,0-.691.846v3.048a.4.4,0,0,1-.4.4H77.259a.4.4,0,0,1-.4-.4V97.522a.864.864,0,0,0-.692-.846,16.6,16.6,0,0,1-5.889-2.443.863.863,0,0,0-1.087.11L67.036,96.5a.4.4,0,0,1-.563,0l-3.2-3.2a.4.4,0,0,1,0-.563l2.158-2.158a.863.863,0,0,0,.11-1.087A16.6,16.6,0,0,1,63.094,83.6a.863.863,0,0,0-.846-.692H59.2a.4.4,0,0,1-.4-.4V77.983a.4.4,0,0,1,.4-.4h3.048a.863.863,0,0,0,.846-.691A16.61,16.61,0,0,1,65.538,71a.863.863,0,0,0-.11-1.087L63.27,67.76a.4.4,0,0,1,0-.563l3.2-3.2a.4.4,0,0,1,.563,0l2.158,2.157a.863.863,0,0,0,1.088.11,16.582,16.582,0,0,1,5.888-2.443.863.863,0,0,0,.692-.846V59.925a.4.4,0,0,1,.4-.4h4.528a.4.4,0,0,1,.4.4v3.048a.863.863,0,0,0,.691.846,16.587,16.587,0,0,1,5.889,2.443.863.863,0,0,0,1.088-.11L92.011,64a.4.4,0,0,1,.562,0l3.2,3.2a.4.4,0,0,1,0,.563l-2.157,2.157A.863.863,0,0,0,93.508,71a16.579,16.579,0,0,1,2.443,5.89.863.863,0,0,0,.846.691h3.048a.4.4,0,0,1,.4.4Z" transform="translate(-6.997 -6)" fill="#1e0b4b"/>
              <path id="Path_7882" data-name="Path 7882" d="M89.233,79.048A11.182,11.182,0,1,0,100.415,90.23,11.194,11.194,0,0,0,89.233,79.048Zm0,20.637a9.455,9.455,0,1,1,9.455-9.455A9.466,9.466,0,0,1,89.233,99.685Z" transform="translate(-16.707 -15.983)" fill="#1e0b4b"/>
            </g>
          </g>
        </g>
        <g id="Group_3940" data-name="Group 3940" transform="translate(7.41 34.965)">
          <circle id="Ellipse_100" data-name="Ellipse 100" cx="3.022" cy="3.022" r="3.022" fill="#fff"/>
          <circle id="Ellipse_101" data-name="Ellipse 101" cx="3.022" cy="3.022" r="3.022" transform="translate(10.36)" fill="#fff"/>
          <circle id="Ellipse_102" data-name="Ellipse 102" cx="3.022" cy="3.022" r="3.022" transform="translate(20.72)" fill="#fff"/>
        </g>
      </g>
    </g>
  </g>
</svg>
