<svg xmlns="http://www.w3.org/2000/svg" width="98.869" height="85.849" viewBox="0 0 98.869 85.849">
  <g id="development-icon" transform="translate(-194.14 -1353.681)">
    <g id="Group_4218" data-name="Group 4218" transform="translate(198.489 1362.353)">
      <path id="Path_8687" data-name="Path 8687" d="M204.17,1429.613V1381.7a8.032,8.032,0,0,1,8.023-8.023h2.6a1.518,1.518,0,1,1,0,3.035h-2.6a4.994,4.994,0,0,0-4.988,4.988v44.873l84.114-.013V1381.7a4.994,4.994,0,0,0-4.988-4.988H283.3a1.518,1.518,0,1,1,0-3.035h3.033a8.032,8.032,0,0,1,8.023,8.023V1429.6Z" transform="translate(-204.17 -1373.681)" fill="#1e0b4b"/>
    </g>
    <g id="Group_4219" data-name="Group 4219" transform="translate(276.222 1367.252)">
      <path id="Path_8688" data-name="Path 8688" d="M388.749,1428.642a1.518,1.518,0,0,1-1.518-1.517v-36.847a2.265,2.265,0,0,0-2.262-2.262,1.518,1.518,0,1,1,0-3.035,5.3,5.3,0,0,1,5.3,5.3v36.847A1.517,1.517,0,0,1,388.749,1428.642Z" transform="translate(-383.452 -1384.981)" fill="#1e0b4b"/>
    </g>
    <g id="Group_4220" data-name="Group 4220" transform="translate(203.258 1367.252)">
      <path id="Path_8689" data-name="Path 8689" d="M216.688,1428.642a1.518,1.518,0,0,1-1.518-1.517v-36.847a5.3,5.3,0,0,1,5.3-5.3,1.518,1.518,0,1,1,0,3.035,2.265,2.265,0,0,0-2.263,2.262v36.847A1.517,1.517,0,0,1,216.688,1428.642Z" transform="translate(-215.17 -1384.981)" fill="#1e0b4b"/>
    </g>
    <g id="Group_4221" data-name="Group 4221" transform="translate(194.14 1415.536)">
      <path id="Path_8690" data-name="Path 8690" d="M195.659,1515.069a1.519,1.519,0,0,1-1.464-1.922l4.338-15.691a1.518,1.518,0,0,1,2.926.809l-4.339,15.691A1.518,1.518,0,0,1,195.659,1515.069Z" transform="translate(-194.14 -1496.342)" fill="#1e0b4b"/>
    </g>
    <g id="Group_4222" data-name="Group 4222" transform="translate(285.249 1415.536)">
      <path id="Path_8691" data-name="Path 8691" d="M410.129,1515.069a1.518,1.518,0,0,1-1.462-1.114l-4.338-15.691a1.518,1.518,0,0,1,2.925-.809l4.338,15.691a1.519,1.519,0,0,1-1.464,1.922Z" transform="translate(-404.274 -1496.342)" fill="#1e0b4b"/>
    </g>
    <g id="Group_4223" data-name="Group 4223" transform="translate(194.586 1430.858)">
      <path id="Path_8692" data-name="Path 8692" d="M289.688,1540.353H199.074a3.909,3.909,0,0,1-3.9-3.9v-3.1a1.669,1.669,0,0,1,1.668-1.667h95.11a1.646,1.646,0,0,1,1.645,1.645v3.123A3.909,3.909,0,0,1,289.688,1540.353Zm-91.483-5.636v1.732a.871.871,0,0,0,.869.869h90.614a.87.87,0,0,0,.869-.869v-1.732Z" transform="translate(-195.17 -1531.681)" fill="#1e0b4b"/>
    </g>
    <g id="Group_4224" data-name="Group 4224" transform="translate(203.628 1418.783)">
      <path id="Path_8693" data-name="Path 8693" d="M292.932,1513.739H218.208a2.183,2.183,0,0,1-2.125-2.683l1.424-6.053a1.517,1.517,0,1,1,2.954.7l-1.178,5.006h72.634l-.9-5.09a1.518,1.518,0,0,1,2.989-.527l1.074,6.09a2.183,2.183,0,0,1-2.15,2.563Z" transform="translate(-216.024 -1503.831)" fill="#1e0b4b"/>
    </g>
    <g id="Group_4232" data-name="Group 4232" transform="translate(213.23 1353.681)">
      <g id="Group_4225" data-name="Group 4225">
        <path id="Path_8694" data-name="Path 8694" d="M294.177,1407.011H242.864a4.7,4.7,0,0,1-4.694-4.694v-43.942a4.7,4.7,0,0,1,4.694-4.694h51.313a4.7,4.7,0,0,1,4.694,4.694v43.942A4.7,4.7,0,0,1,294.177,1407.011Zm-51.313-50.3a1.661,1.661,0,0,0-1.659,1.659v43.942a1.661,1.661,0,0,0,1.659,1.659h51.313a1.661,1.661,0,0,0,1.659-1.659v-43.942a1.661,1.661,0,0,0-1.659-1.659Z" transform="translate(-238.17 -1353.681)" fill="#1e0b4b"/>
      </g>
      <g id="Group_4226" data-name="Group 4226" transform="translate(0 12.14)">
        <path id="Path_8695" data-name="Path 8695" d="M289.549,1384.716H239.688a1.518,1.518,0,1,1,0-3.035h49.862a1.518,1.518,0,1,1,0,3.035Z" transform="translate(-238.17 -1381.681)" fill="#1e0b4b"/>
      </g>
      <g id="Group_4227" data-name="Group 4227" transform="translate(47.694 6.07)">
        <path id="Path_8696" data-name="Path 8696" d="M351.855,1370.716h-2.168a1.518,1.518,0,1,1,0-3.035h2.168a1.518,1.518,0,1,1,0,3.035Z" transform="translate(-348.17 -1367.681)" fill="#1e0b4b"/>
      </g>
      <g id="Group_4228" data-name="Group 4228" transform="translate(40.323 6.07)">
        <path id="Path_8697" data-name="Path 8697" d="M335.289,1370.716h-2.6a1.518,1.518,0,1,1,0-3.035h2.6a1.518,1.518,0,1,1,0,3.035Z" transform="translate(-331.17 -1367.681)" fill="#1e0b4b"/>
      </g>
      <g id="Group_4229" data-name="Group 4229" transform="translate(15.535 23.939)">
        <path id="Path_8698" data-name="Path 8698" d="M282.315,1424.616a1.511,1.511,0,0,1-1.078-.45L274,1416.857l7.289-7.5a1.517,1.517,0,1,1,2.177,2.115l-5.215,5.368,5.143,5.194a1.517,1.517,0,0,1-1.079,2.585Z" transform="translate(-274 -1408.894)" fill="#1e0b4b"/>
      </g>
      <g id="Group_4230" data-name="Group 4230" transform="translate(36.326 23.939)">
        <path id="Path_8699" data-name="Path 8699" d="M323.531,1424.616a1.517,1.517,0,0,1-1.079-2.585l5.143-5.194-5.215-5.368a1.517,1.517,0,1,1,2.177-2.115l7.289,7.5-7.236,7.309A1.514,1.514,0,0,1,323.531,1424.616Z" transform="translate(-321.951 -1408.894)" fill="#1e0b4b"/>
      </g>
      <g id="Group_4231" data-name="Group 4231" transform="translate(27.331 22.123)">
        <path id="Path_8700" data-name="Path 8700" d="M302.724,1425.07a1.52,1.52,0,0,1-1.483-1.848l3.858-17.328a1.518,1.518,0,0,1,2.963.66l-3.858,17.328A1.519,1.519,0,0,1,302.724,1425.07Z" transform="translate(-301.205 -1404.705)" fill="#1e0b4b"/>
      </g>
    </g>
  </g>
</svg>
