<svg xmlns="http://www.w3.org/2000/svg" xmlns:xlink="http://www.w3.org/1999/xlink" width="90.088" height="82.664" viewBox="0 0 90.088 82.664">
  <defs>
    <linearGradient id="linear-gradient" y1="1.236" x2="0.92" gradientUnits="objectBoundingBox">
      <stop offset="0" stop-color="#1e0b4b"/>
      <stop offset="1" stop-color="#8f005b"/>
    </linearGradient>
  </defs>
  <g id="developer-friendly" transform="translate(0.5 81.5)">
    <g id="Group_3994" data-name="Group 3994" transform="translate(0 -81)">
      <g id="Group_3993" data-name="Group 3993">
        <g id="Group_3988" data-name="Group 3988">
          <path id="Path_7789" data-name="Path 7789" d="M81.664.664H7.424A7.431,7.431,0,0,1,0-6.76V-73.576A7.431,7.431,0,0,1,7.424-81h74.24a7.431,7.431,0,0,1,7.424,7.424V-6.76A7.431,7.431,0,0,1,81.664.664ZM7.424-77.288a3.716,3.716,0,0,0-3.712,3.712V-6.76A3.716,3.716,0,0,0,7.424-3.048h74.24A3.716,3.716,0,0,0,85.376-6.76V-73.576a3.716,3.716,0,0,0-3.712-3.712Z" transform="translate(0 81)" stroke="rgba(0,0,0,0)" stroke-width="1" fill="url(#linear-gradient)"/>
        </g>
        <g id="Group_3989" data-name="Group 3989" transform="translate(9.28 7.424)">
          <path id="Path_7790" data-name="Path 7790" d="M8.712-73.288H6.856A1.854,1.854,0,0,1,5-75.144,1.854,1.854,0,0,1,6.856-77H8.712a1.854,1.854,0,0,1,1.856,1.856A1.854,1.854,0,0,1,8.712-73.288Z" transform="translate(-5 77)" stroke="rgba(0,0,0,0)" stroke-width="1" fill="url(#linear-gradient)"/>
        </g>
        <g id="Group_3990" data-name="Group 3990" transform="translate(18.56 7.424)">
          <path id="Path_7791" data-name="Path 7791" d="M13.712-73.288H11.856A1.854,1.854,0,0,1,10-75.144,1.854,1.854,0,0,1,11.856-77h1.856a1.854,1.854,0,0,1,1.856,1.856A1.854,1.854,0,0,1,13.712-73.288Z" transform="translate(-10 77)" stroke="rgba(0,0,0,0)" stroke-width="1" fill="url(#linear-gradient)"/>
        </g>
        <g id="Group_3991" data-name="Group 3991" transform="translate(74.24 7.424)">
          <path id="Path_7792" data-name="Path 7792" d="M43.712-73.288H41.856A1.854,1.854,0,0,1,40-75.144,1.854,1.854,0,0,1,41.856-77h1.856a1.854,1.854,0,0,1,1.856,1.856A1.854,1.854,0,0,1,43.712-73.288Z" transform="translate(-40 77)" stroke="rgba(0,0,0,0)" stroke-width="1" fill="url(#linear-gradient)"/>
        </g>
        <g id="Group_3992" data-name="Group 3992" transform="translate(7.424 14.848)">
          <path id="Path_7793" data-name="Path 7793" d="M76.384-69.288H5.856A1.854,1.854,0,0,1,4-71.144,1.854,1.854,0,0,1,5.856-73H76.384a1.854,1.854,0,0,1,1.856,1.856A1.854,1.854,0,0,1,76.384-69.288Z" transform="translate(-4 73)" stroke="rgba(0,0,0,0)" stroke-width="1" fill="url(#linear-gradient)"/>
        </g>
      </g>
    </g>
    <g id="Group_4003" data-name="Group 4003" transform="translate(14.848 -56.872)">
      <g id="Group_3995" data-name="Group 3995">
        <path id="Path_7794" data-name="Path 7794" d="M65.536-19.744A1.854,1.854,0,0,1,63.68-21.6V-62.432a1.857,1.857,0,0,0-1.856-1.856H13.568a1.857,1.857,0,0,0-1.856,1.856V-21.6a1.854,1.854,0,0,1-1.856,1.856A1.854,1.854,0,0,1,8-21.6V-62.432A5.575,5.575,0,0,1,13.568-68H61.824a5.575,5.575,0,0,1,5.568,5.568V-21.6A1.854,1.854,0,0,1,65.536-19.744Z" transform="translate(-8 68)" stroke="rgba(0,0,0,0)" stroke-width="1" fill="url(#linear-gradient)"/>
      </g>
      <g id="Group_3996" data-name="Group 3996" transform="translate(7.424 7.424)">
        <path id="Path_7795" data-name="Path 7795" d="M15.712-60.288H13.856A1.854,1.854,0,0,1,12-62.144,1.854,1.854,0,0,1,13.856-64h1.856a1.854,1.854,0,0,1,1.856,1.856A1.854,1.854,0,0,1,15.712-60.288Z" transform="translate(-12 64)" stroke="rgba(0,0,0,0)" stroke-width="1" fill="url(#linear-gradient)"/>
      </g>
      <g id="Group_3997" data-name="Group 3997" transform="translate(16.704 7.424)">
        <path id="Path_7796" data-name="Path 7796" d="M20.712-60.288H18.856A1.854,1.854,0,0,1,17-62.144,1.854,1.854,0,0,1,18.856-64h1.856a1.854,1.854,0,0,1,1.856,1.856A1.854,1.854,0,0,1,20.712-60.288Z" transform="translate(-17 64)" stroke="rgba(0,0,0,0)" stroke-width="1" fill="url(#linear-gradient)"/>
      </g>
      <g id="Group_3998" data-name="Group 3998" transform="translate(46.4 7.424)">
        <path id="Path_7797" data-name="Path 7797" d="M36.712-60.288H34.856A1.854,1.854,0,0,1,33-62.144,1.854,1.854,0,0,1,34.856-64h1.856a1.854,1.854,0,0,1,1.856,1.856A1.854,1.854,0,0,1,36.712-60.288Z" transform="translate(-33 64)" stroke="rgba(0,0,0,0)" stroke-width="1" fill="url(#linear-gradient)"/>
      </g>
      <g id="Group_3999" data-name="Group 3999" transform="translate(7.424 14.848)">
        <path id="Path_7798" data-name="Path 7798" d="M54.688-56.288H13.856A1.854,1.854,0,0,1,12-58.144,1.854,1.854,0,0,1,13.856-60H54.688a1.854,1.854,0,0,1,1.856,1.856A1.854,1.854,0,0,1,54.688-56.288Z" transform="translate(-12 60)" stroke="rgba(0,0,0,0)" stroke-width="1" fill="url(#linear-gradient)"/>
      </g>
      <g id="Group_4002" data-name="Group 4002" transform="translate(16.704 27.84)">
        <g id="Group_4000" data-name="Group 4000">
          <path id="Path_7799" data-name="Path 7799" d="M24.424-38.152a1.851,1.851,0,0,1-1.312-.544l-5.568-5.568a1.854,1.854,0,0,1,0-2.624l5.568-5.568a1.854,1.854,0,0,1,2.624,0,1.854,1.854,0,0,1,0,2.624l-4.256,4.256,4.256,4.256a1.854,1.854,0,0,1,0,2.624A1.851,1.851,0,0,1,24.424-38.152Z" transform="translate(-17 53)" stroke="rgba(0,0,0,0)" stroke-width="1" fill="url(#linear-gradient)"/>
        </g>
        <g id="Group_4001" data-name="Group 4001" transform="translate(16.704)">
          <path id="Path_7800" data-name="Path 7800" d="M27.856-38.152a1.851,1.851,0,0,1-1.312-.544,1.854,1.854,0,0,1,0-2.624L30.8-45.576l-4.256-4.256a1.854,1.854,0,0,1,0-2.624,1.854,1.854,0,0,1,2.624,0l5.568,5.568a1.854,1.854,0,0,1,0,2.624L29.168-38.7A1.851,1.851,0,0,1,27.856-38.152Z" transform="translate(-26 53)" stroke="rgba(0,0,0,0)" stroke-width="1" fill="url(#linear-gradient)"/>
        </g>
      </g>
    </g>
  </g>
</svg>
