<svg id="effective-authentication" xmlns="http://www.w3.org/2000/svg" width="94.47" height="104.965" viewBox="0 0 94.47 104.965">
  <path id="Path_7203" data-name="Path 7203" d="M-256.142-209.759h-7.872v-10.5A15.761,15.761,0,0,0-279.759-236,15.761,15.761,0,0,0-295.5-220.255v10.5h-7.872A2.622,2.622,0,0,0-306-207.135v31.489a2.622,2.622,0,0,0,2.624,2.624h47.234a2.622,2.622,0,0,0,2.624-2.624v-31.489A2.622,2.622,0,0,0-256.142-209.759Zm-34.114-10.5a10.507,10.507,0,0,1,10.5-10.5,10.507,10.507,0,0,1,10.5,10.5v10.5h-20.993Zm31.489,41.986h-41.986v-26.241h41.986Z" transform="translate(326.994 236)" fill="#1e0b4b"/>
  <path id="Path_7204" data-name="Path 7204" d="M-299.024-207.231a2.621,2.621,0,0,0-3.711,0l-3.393,3.393-3.393-3.393a2.621,2.621,0,0,0-3.71,0,2.621,2.621,0,0,0,0,3.71l3.393,3.393-3.393,3.393a2.621,2.621,0,0,0,0,3.711,2.617,2.617,0,0,0,1.855.769,2.617,2.617,0,0,0,1.855-.769l3.393-3.393,3.393,3.393a2.617,2.617,0,0,0,1.855.769,2.617,2.617,0,0,0,1.855-.769,2.621,2.621,0,0,0,0-3.711l-3.393-3.393,3.393-3.393A2.621,2.621,0,0,0-299.024-207.231Z" transform="translate(314 281.475)" fill="#1e0b4b"/>
  <path id="Path_7205" data-name="Path 7205" d="M-300.879-198h-10.5A2.622,2.622,0,0,0-314-195.376a2.622,2.622,0,0,0,2.624,2.624h10.5a2.622,2.622,0,0,0,2.624-2.624A2.622,2.622,0,0,0-300.879-198Z" transform="translate(314.001 297.717)" fill="#1e0b4b"/>
  <path id="Path_7206" data-name="Path 7206" d="M-289.024-207.231a2.621,2.621,0,0,0-3.711,0l-3.393,3.393-3.393-3.393a2.621,2.621,0,0,0-3.711,0,2.621,2.621,0,0,0,0,3.71l3.393,3.393-3.393,3.393a2.621,2.621,0,0,0,0,3.711,2.617,2.617,0,0,0,1.855.769,2.617,2.617,0,0,0,1.855-.769l3.393-3.393,3.393,3.393a2.617,2.617,0,0,0,1.855.769,2.617,2.617,0,0,0,1.855-.769,2.621,2.621,0,0,0,0-3.711l-3.393-3.393,3.393-3.393A2.621,2.621,0,0,0-289.024-207.231Z" transform="translate(330.241 281.475)" fill="#1e0b4b"/>
  <path id="Path_7207" data-name="Path 7207" d="M-290.879-198h-10.5A2.622,2.622,0,0,0-304-195.376a2.622,2.622,0,0,0,2.624,2.624h10.5a2.622,2.622,0,0,0,2.624-2.624A2.622,2.622,0,0,0-290.879-198Z" transform="translate(330.242 297.717)" fill="#1e0b4b"/>
  <path id="Path_7208" data-name="Path 7208" d="M-279.024-207.231a2.621,2.621,0,0,0-3.71,0l-3.393,3.393-3.393-3.393a2.621,2.621,0,0,0-3.711,0,2.621,2.621,0,0,0,0,3.71l3.393,3.393-3.393,3.393a2.621,2.621,0,0,0,0,3.711,2.617,2.617,0,0,0,1.855.769,2.617,2.617,0,0,0,1.855-.769l3.393-3.393,3.393,3.393a2.617,2.617,0,0,0,1.855.769,2.617,2.617,0,0,0,1.855-.769,2.621,2.621,0,0,0,0-3.711l-3.393-3.393,3.393-3.393A2.621,2.621,0,0,0-279.024-207.231Z" transform="translate(346.483 281.475)" fill="#1e0b4b"/>
  <path id="Path_7209" data-name="Path 7209" d="M-280.879-198h-10.5A2.622,2.622,0,0,0-294-195.376a2.622,2.622,0,0,0,2.624,2.624h10.5a2.622,2.622,0,0,0,2.624-2.624A2.622,2.622,0,0,0-280.879-198Z" transform="translate(346.483 297.717)" fill="#1e0b4b"/>
  <path id="Path_7210" data-name="Path 7210" d="M-272.417-200.127l3.393-3.393a2.621,2.621,0,0,0,0-3.71,2.621,2.621,0,0,0-3.711,0l-3.393,3.393-3.393-3.393a2.621,2.621,0,0,0-3.711,0,2.621,2.621,0,0,0,0,3.71l3.393,3.393-3.393,3.393a2.621,2.621,0,0,0,0,3.711,2.617,2.617,0,0,0,1.855.769,2.617,2.617,0,0,0,1.855-.769l3.393-3.393,3.393,3.393a2.617,2.617,0,0,0,1.855.769,2.617,2.617,0,0,0,1.855-.769,2.621,2.621,0,0,0,0-3.711Z" transform="translate(362.724 281.475)" fill="#1e0b4b"/>
  <path id="Path_7211" data-name="Path 7211" d="M-270.879-198h-10.5A2.622,2.622,0,0,0-284-195.376a2.622,2.622,0,0,0,2.624,2.624h10.5a2.622,2.622,0,0,0,2.624-2.624A2.622,2.622,0,0,0-270.879-198Z" transform="translate(362.724 297.717)" fill="#1e0b4b"/>
</svg>
