<svg xmlns="http://www.w3.org/2000/svg" width="103.408" height="66.325" viewBox="0 0 103.408 66.325">
  <g id="efficient-contact" transform="translate(-708.789 -263.074)">
    <g id="Group_3669" data-name="Group 3669" transform="translate(708.789 280.978)">
      <rect id="Rectangle_965" data-name="Rectangle 965" width="3.1" height="17.989" transform="matrix(0.731, -0.683, 0.683, 0.731, 0, 2.117)" fill="#1e0b4b"/>
    </g>
    <g id="Group_3670" data-name="Group 3670" transform="translate(738.237 263.074)">
      <path id="Path_7898" data-name="Path 7898" d="M777.115,315.191c-.152,0-.3-.006-.458-.02a5.085,5.085,0,0,1-3.544-1.886l-13.529-16.648,2.406-1.955,13.53,16.652a2.042,2.042,0,0,0,2.933.252l2.791-2.428a2.037,2.037,0,0,0,.247-2.841l-18.63-22.937a4.447,4.447,0,0,0-4.349-1.537l-18.079,3.86a4.188,4.188,0,0,1-4.358-1.873l-1.863-2.95a2.7,2.7,0,0,1,.984-3.811l23.84-13.092a7.408,7.408,0,0,1,7.2.064l15.541,8.773,7.209-6.442,2.065,2.312-8.865,7.921-17.475-9.864a4.319,4.319,0,0,0-4.192-.04l-23.46,12.882,1.637,2.591a1.089,1.089,0,0,0,1.126.491l18.042-3.852a7.485,7.485,0,0,1,7.4,2.615l18.63,22.936a5.119,5.119,0,0,1-.624,7.138l-2.786,2.422A5.094,5.094,0,0,1,777.115,315.191Z" transform="translate(-733.797 -263.074)" fill="#1e0b4b"/>
    </g>
    <g id="Group_3671" data-name="Group 3671" transform="translate(729.112 266.434)">
      <rect id="Rectangle_966" data-name="Rectangle 966" width="3.1" height="16.347" transform="translate(0 2.064) rotate(-41.749)" fill="#1e0b4b"/>
    </g>
    <g id="Group_3672" data-name="Group 3672" transform="translate(793.316 284.755)">
      <path id="Path_7899" data-name="Path 7899" d="M781.852,303.561l-1.28-2.824,1.412-.639c5.677-2.572,6.7-10.252,6.707-10.328l.071-.577,8.627-7.707,2.064,2.311-7.782,6.953c-.39,2.141-2.144,9.333-8.408,12.171Z" transform="translate(-780.572 -281.486)" fill="#1e0b4b"/>
    </g>
    <g id="Group_3673" data-name="Group 3673" transform="translate(756.531 300.213)">
      <path id="Path_7900" data-name="Path 7900" d="M765.3,315.09a5.047,5.047,0,0,1-.516-.026A5.114,5.114,0,0,1,761.3,313.2l-11.967-14.661,2.4-1.959,11.967,14.66a2.049,2.049,0,0,0,2.891.286l2.5-2.063a2.057,2.057,0,0,0,.294-2.866l-8.069-10.037,2.415-1.942,8.068,10.037a5.166,5.166,0,0,1-.738,7.2l-2.5,2.063A5.1,5.1,0,0,1,765.3,315.09Z" transform="translate(-749.333 -294.614)" fill="#1e0b4b"/>
    </g>
    <g id="Group_3674" data-name="Group 3674" transform="translate(750.464 303.52)">
      <path id="Path_7901" data-name="Path 7901" d="M757.176,319.434c-.166,0-.331-.008-.5-.024a5.122,5.122,0,0,1-3.493-1.859l-9-10.975,2.4-1.965,9,10.973a2.05,2.05,0,0,0,2.9.276l2.2-1.831a2.055,2.055,0,0,0,.278-2.872l-9.611-11.775,2.4-1.959,9.611,11.775a5.165,5.165,0,0,1-.7,7.215l-2.2,1.831A5.118,5.118,0,0,1,757.176,319.434Z" transform="translate(-744.181 -297.422)" fill="#1e0b4b"/>
    </g>
    <g id="Group_3675" data-name="Group 3675" transform="translate(748.592 310.709)">
      <path id="Path_7902" data-name="Path 7902" d="M747.8,322.218a5.145,5.145,0,0,1-3.946-1.828l-1.259-1.5,2.37-2,1.26,1.5a2.056,2.056,0,0,0,2.879.257l2.093-1.74a2.057,2.057,0,0,0,.274-2.876l-7-8.542,2.4-1.965,7,8.542a5.163,5.163,0,0,1-.689,7.223l-2.091,1.74A5.126,5.126,0,0,1,747.8,322.218Z" transform="translate(-742.591 -303.527)" fill="#1e0b4b"/>
    </g>
    <g id="Group_3676" data-name="Group 3676" transform="translate(717.742 292.352)">
      <path id="Path_7903" data-name="Path 7903" d="M723.162,301.921a3.9,3.9,0,0,1-2.959-1.349h0l-2.863-3.315a3.91,3.91,0,0,1,.4-5.508l3.315-2.861a3.916,3.916,0,0,1,2.838-.94,3.873,3.873,0,0,1,2.67,1.342l2.864,3.314a3.912,3.912,0,0,1-.4,5.509l-3.314,2.863A3.889,3.889,0,0,1,723.162,301.921Zm-.613-3.377a.807.807,0,0,0,1.136.085L727,295.765a.805.805,0,0,0,.085-1.135l-2.864-3.315a.8.8,0,0,0-.55-.277.778.778,0,0,0-.585.194l-3.315,2.863a.808.808,0,0,0-.084,1.136Z" transform="translate(-716.392 -287.938)" fill="#1e0b4b"/>
    </g>
    <g id="Group_3677" data-name="Group 3677" transform="translate(723.667 299.134)">
      <path id="Path_7904" data-name="Path 7904" d="M728.171,307.632c-.1,0-.194,0-.291-.011a3.874,3.874,0,0,1-2.669-1.341l-2.839-3.286a3.91,3.91,0,0,1,.4-5.509l3.286-2.838a3.905,3.905,0,0,1,5.507.4l2.839,3.285a3.905,3.905,0,0,1-.4,5.507l-3.287,2.839A3.873,3.873,0,0,1,728.171,307.632Zm.44-10.835a.8.8,0,0,0-.524.2l-3.286,2.838a.808.808,0,0,0-.084,1.137l2.839,3.286a.8.8,0,0,0,.55.276.781.781,0,0,0,.585-.194l3.287-2.838a.807.807,0,0,0,.277-.551.8.8,0,0,0-.193-.585l-2.839-3.285a.793.793,0,0,0-.551-.277A.512.512,0,0,0,728.612,296.8Z" transform="translate(-721.424 -293.698)" fill="#1e0b4b"/>
    </g>
    <g id="Group_3678" data-name="Group 3678" transform="translate(729.585 305.985)">
      <path id="Path_7905" data-name="Path 7905" d="M733.194,313.448a3.9,3.9,0,0,1-2.959-1.349h0l-2.838-3.286a3.912,3.912,0,0,1,.4-5.509l3.286-2.838a3.9,3.9,0,0,1,5.507.4l2.839,3.285a3.906,3.906,0,0,1-.4,5.507l-3.286,2.839A3.891,3.891,0,0,1,733.194,313.448Zm-.614-3.377a.806.806,0,0,0,1.136.085L737,307.316a.8.8,0,0,0,.082-1.135l-2.838-3.286a.8.8,0,0,0-.551-.278.827.827,0,0,0-.585.194l-3.287,2.839a.806.806,0,0,0-.082,1.135Z" transform="translate(-726.45 -299.515)" fill="#1e0b4b"/>
    </g>
    <g id="Group_3679" data-name="Group 3679" transform="translate(734.889 312.839)">
      <path id="Path_7906" data-name="Path 7906" d="M738.445,317.418a3.891,3.891,0,0,1-2.957-1.352l-4.535-5.248,5.25-4.535a3.914,3.914,0,0,1,5.509.4l1.981,2.3a3.9,3.9,0,0,1-.4,5.507l-2.294,1.982A3.891,3.891,0,0,1,738.445,317.418Zm-3.119-6.281,2.508,2.9a.8.8,0,0,0,.55.276.815.815,0,0,0,.585-.193l2.294-1.982a.793.793,0,0,0,.277-.551.8.8,0,0,0-.193-.585l-1.981-2.294a.808.808,0,0,0-1.136-.084Z" transform="translate(-730.954 -305.336)" fill="#1e0b4b"/>
    </g>
  </g>
</svg>
