<svg id="emphasisi-on-customer" xmlns="http://www.w3.org/2000/svg" width="82.574" height="82.574" viewBox="0 0 82.574 82.574">
  <path id="Path_7944" data-name="Path 7944" d="M16.6,30a8.6,8.6,0,1,0,8.6,8.6A8.611,8.611,0,0,0,16.6,30Zm0,13.762A5.161,5.161,0,1,1,21.762,38.6,5.167,5.167,0,0,1,16.6,43.762Z" transform="translate(5.762 21.609)" fill="#1e0b4b"/>
  <path id="Path_7945" data-name="Path 7945" d="M77.413,10.322h-13.9a12.026,12.026,0,0,0-23.809,0H25.8a5.167,5.167,0,0,0-5.161,5.161V37.847a5.167,5.167,0,0,0-5.161,5.161v.59l-.416-.416a5.283,5.283,0,0,0-7.3,0L5.335,45.614a5.164,5.164,0,0,0,0,7.3l.416.418h-.59A5.167,5.167,0,0,0,0,58.49v3.441a5.167,5.167,0,0,0,5.161,5.161h.59l-.416.418a5.164,5.164,0,0,0,0,7.3L7.767,77.24a5.283,5.283,0,0,0,7.3,0l.418-.416v.59a5.167,5.167,0,0,0,5.161,5.161h3.441a5.167,5.167,0,0,0,5.161-5.161v-.59l.416.416a5.283,5.283,0,0,0,7.3,0l2.432-2.432a5.164,5.164,0,0,0,0-7.3l-.416-.418h.59a5.167,5.167,0,0,0,5.161-5.161V60.21h6.881v17.2a5.161,5.161,0,0,0,10.322,0V60.21H77.413a5.167,5.167,0,0,0,5.161-5.161V15.483A5.167,5.167,0,0,0,77.413,10.322Zm-25.8-6.881a8.618,8.618,0,0,1,8.428,6.881H43.181A8.618,8.618,0,0,1,51.609,3.441ZM41.287,61.931a1.722,1.722,0,0,1-1.72,1.72h-2.62A1.726,1.726,0,0,0,35.323,64.8a13.746,13.746,0,0,1-.552,1.333,1.718,1.718,0,0,0,.337,1.956l1.853,1.854a1.721,1.721,0,0,1,0,2.432l-2.432,2.433a1.759,1.759,0,0,1-2.433,0l-1.854-1.853a1.723,1.723,0,0,0-1.961-.335,14.139,14.139,0,0,1-1.33.554A1.72,1.72,0,0,0,25.8,74.793v2.62a1.722,1.722,0,0,1-1.72,1.72H20.644a1.722,1.722,0,0,1-1.72-1.72v-2.62a1.72,1.72,0,0,0-1.146-1.621,14.14,14.14,0,0,1-1.33-.554,1.736,1.736,0,0,0-.745-.169,1.717,1.717,0,0,0-1.216.5L12.63,74.809a1.76,1.76,0,0,1-2.431,0L7.767,72.375a1.721,1.721,0,0,1,0-2.432L9.62,68.088a1.718,1.718,0,0,0,.337-1.956A13.745,13.745,0,0,1,9.4,64.8a1.726,1.726,0,0,0-1.624-1.147H5.161a1.722,1.722,0,0,1-1.72-1.72V58.49a1.722,1.722,0,0,1,1.72-1.72h2.62A1.726,1.726,0,0,0,9.4,55.622a13.745,13.745,0,0,1,.552-1.333,1.718,1.718,0,0,0-.337-1.956L7.767,50.479a1.721,1.721,0,0,1,0-2.432L10.2,45.614a1.76,1.76,0,0,1,2.432,0l1.854,1.853a1.723,1.723,0,0,0,1.961.335,14.136,14.136,0,0,1,1.33-.554,1.72,1.72,0,0,0,1.146-1.621v-2.62a1.722,1.722,0,0,1,1.72-1.72h3.441a1.722,1.722,0,0,1,1.72,1.72v2.62a1.72,1.72,0,0,0,1.146,1.621,14.136,14.136,0,0,1,1.33.554,1.723,1.723,0,0,0,1.961-.335L32.1,45.612a1.76,1.76,0,0,1,2.431,0l2.432,2.433a1.721,1.721,0,0,1,0,2.432l-1.853,1.854a1.718,1.718,0,0,0-.337,1.956,13.746,13.746,0,0,1,.552,1.333,1.726,1.726,0,0,0,1.624,1.147h2.62a1.722,1.722,0,0,1,1.72,1.72Zm17.2-10.922v26.4a1.72,1.72,0,1,1-3.441,0v-26.4A1.723,1.723,0,0,0,53.9,49.386a8.583,8.583,0,0,1-2.295-14.968v8.589a1.72,1.72,0,0,0,1.72,1.72H60.21a1.72,1.72,0,0,0,1.72-1.72V34.418a8.583,8.583,0,0,1-2.295,14.968A1.723,1.723,0,0,0,58.49,51.009ZM77.413,56.77H61.931V52.158a12.028,12.028,0,0,0-1.146-22.214,1.721,1.721,0,0,0-2.295,1.622v9.721H55.049V31.566a1.721,1.721,0,0,0-2.295-1.622,12.028,12.028,0,0,0-1.146,22.214V56.77h-7.2a5.154,5.154,0,0,0-4.844-3.441h-.59l.416-.418a5.164,5.164,0,0,0,0-7.3l-2.432-2.432a5.281,5.281,0,0,0-7.3,0l-.418.416v-.59a5.167,5.167,0,0,0-5.161-5.161V25.8H34.406v3.441h3.441V18.923H34.406v3.441H24.084V15.483a1.722,1.722,0,0,1,1.72-1.72H77.413a1.722,1.722,0,0,1,1.72,1.72v6.881H68.812V18.923H65.371V29.245h3.441V25.8H79.134V55.049A1.722,1.722,0,0,1,77.413,56.77Z" fill="#1e0b4b"/>
  <rect id="Rectangle_999" data-name="Rectangle 999" width="3" height="22" transform="translate(12 13)" fill="#1e0b4b"/>
  <rect id="Rectangle_1000" data-name="Rectangle 1000" width="3" height="4" transform="translate(12 7)" fill="#1e0b4b"/>
  <rect id="Rectangle_1001" data-name="Rectangle 1001" width="3" height="21" transform="translate(4 20)" fill="#1e0b4b"/>
  <rect id="Rectangle_1002" data-name="Rectangle 1002" width="3" height="4" transform="translate(4 13)" fill="#1e0b4b"/>
  <rect id="Rectangle_1003" data-name="Rectangle 1003" width="21" height="4" transform="translate(41 22)" fill="#1e0b4b"/>
</svg>
