<svg xmlns="http://www.w3.org/2000/svg" width="73.678" height="68.361" viewBox="0 0 73.678 68.361">
  <g id="end-to-end-project-management" transform="translate(-440.708 -568.094)">
    <g id="Group_3680" data-name="Group 3680" transform="translate(502.129 579.702)">
      <path id="Path_7907" data-name="Path 7907" d="M506.349,624.511l-2.25-1.2,8.852-16.607a7.33,7.33,0,0,0,.773-4.522l-2.878-18.859a.814.814,0,0,0-.909-.691l-1.383.168a.815.815,0,0,0-.718.74l.44,13.937-2.549.081-.444-14.047,0-.048a3.363,3.363,0,0,1,2.962-3.2l1.384-.167a3.353,3.353,0,0,1,3.737,2.838l2.877,18.859A9.9,9.9,0,0,1,515.2,607.9Z" transform="translate(-504.099 -580.074)" fill="#1e0b4b"/>
    </g>
    <g id="Group_3681" data-name="Group 3681" transform="translate(488.952 598.323)">
      <path id="Path_7908" data-name="Path 7908" d="M493.166,626.487,492.5,625.4a14.656,14.656,0,0,1-1.012-12.689,9.6,9.6,0,0,1,5.62-5.835l3.225-6.051a2.9,2.9,0,0,1,3.919-1.192l2.193,1.169a2.9,2.9,0,0,1,1.195,3.918L502.8,613.8l-2.251-1.2,4.841-9.082a.345.345,0,0,0-.142-.468l-2.193-1.169a.346.346,0,0,0-.469.141l-3.73,7-.533.144a6.979,6.979,0,0,0-4.461,4.479,12.029,12.029,0,0,0,.81,10.412l.67,1.086Z" transform="translate(-490.5 -599.293)" fill="#1e0b4b"/>
    </g>
    <g id="Group_3682" data-name="Group 3682" transform="translate(485.823 622.125)">
      <path id="Path_7909" data-name="Path 7909" d="M504.694,638.187l-17.424-5.043,2.688-9.286,17.425,5.043ZM490.43,631.4l12.524,3.626,1.269-4.387L491.7,627.017Z" transform="translate(-487.27 -623.858)" fill="#1e0b4b"/>
    </g>
    <g id="Group_3683" data-name="Group 3683" transform="translate(440.708 579.701)">
      <path id="Path_7910" data-name="Path 7910" d="M450.715,624.511,441.861,607.9a9.9,9.9,0,0,1-1.042-6.106l2.876-18.859a3.354,3.354,0,0,1,3.736-2.838l1.385.167a3.362,3.362,0,0,1,2.962,3.2l0,.048-.443,14.046-2.549-.079.439-13.938a.815.815,0,0,0-.718-.74l-1.383-.168a.82.82,0,0,0-.909.691l-2.877,18.859a7.323,7.323,0,0,0,.772,4.522l8.852,16.607Z" transform="translate(-440.708 -580.074)" fill="#1e0b4b"/>
    </g>
    <g id="Group_3684" data-name="Group 3684" transform="translate(448.663 598.322)">
      <path id="Path_7911" data-name="Path 7911" d="M463.73,626.487l-2.17-1.339.67-1.086a12.029,12.029,0,0,0,.81-10.412,6.979,6.979,0,0,0-4.461-4.479l-.533-.144-3.731-7a.341.341,0,0,0-.2-.168.33.33,0,0,0-.263.026l-2.2,1.169a.34.34,0,0,0-.168.2.336.336,0,0,0,.026.263l4.841,9.082-2.251,1.2-4.841-9.082a2.9,2.9,0,0,1,1.193-3.918l2.195-1.169a2.894,2.894,0,0,1,3.917,1.192l3.226,6.051a9.6,9.6,0,0,1,5.62,5.835A14.659,14.659,0,0,1,464.4,625.4Z" transform="translate(-448.918 -599.291)" fill="#1e0b4b"/>
    </g>
    <g id="Group_3685" data-name="Group 3685" transform="translate(449.158 622.125)">
      <path id="Path_7912" data-name="Path 7912" d="M452.118,638.187l-2.689-9.286,17.425-5.043,2.688,9.286Zm.471-7.545,1.269,4.387,12.524-3.626-1.269-4.387Z" transform="translate(-449.429 -623.858)" fill="#1e0b4b"/>
    </g>
    <g id="Group_3686" data-name="Group 3686" transform="translate(457.613 568.094)">
      <path id="Path_7913" data-name="Path 7913" d="M478.09,607.963a19.935,19.935,0,1,1,19.934-19.935A19.957,19.957,0,0,1,478.09,607.963Zm0-37.318a17.384,17.384,0,1,0,17.384,17.384A17.4,17.4,0,0,0,478.09,570.645Z" transform="translate(-458.155 -568.094)" fill="#1e0b4b"/>
    </g>
    <g id="Group_3687" data-name="Group 3687" transform="translate(466.351 568.094)">
      <path id="Path_7914" data-name="Path 7914" d="M478.37,607.963c-4.936,0-11.2-9.386-11.2-19.935,0-10.811,6.877-19.935,11.2-19.935s11.2,9.123,11.2,19.935C489.566,598.577,483.3,607.963,478.37,607.963Zm0-37.318c-2.438,0-8.647,7.709-8.647,17.384,0,9.869,5.762,17.383,8.647,17.383s8.646-7.514,8.646-17.383C487.016,578.354,480.807,570.645,478.37,570.645Z" transform="translate(-467.173 -568.094)" fill="#1e0b4b"/>
    </g>
    <g id="Group_3688" data-name="Group 3688" transform="translate(476.272 568.504)">
      <rect id="Rectangle_967" data-name="Rectangle 967" width="2.55" height="39.048" fill="#1e0b4b"/>
    </g>
    <g id="Group_3689" data-name="Group 3689" transform="translate(464.471 579.756)">
      <rect id="Rectangle_968" data-name="Rectangle 968" width="30.691" height="2.551" fill="#1e0b4b"/>
    </g>
    <g id="Group_3690" data-name="Group 3690" transform="translate(459.933 593.75)">
      <rect id="Rectangle_969" data-name="Rectangle 969" width="31.069" height="2.551" fill="#1e0b4b"/>
    </g>
  </g>
</svg>
