<svg xmlns="http://www.w3.org/2000/svg" width="103.933" height="104.594" viewBox="0 0 103.933 104.594">
  <g id="enhanced-performance" transform="translate(-441.981 -410.294)">
    <g id="Group_3721" data-name="Group 3721" transform="translate(449.644 410.294)">
      <path id="Path_7275" data-name="Path 7275" d="M483.843,506.562l-36.5-36.494,38.878-38.876a74.389,74.389,0,0,1,39.263-20.642,15.341,15.341,0,0,1,17.873,17.871,74.39,74.39,0,0,1-20.641,39.266Zm-29.427-36.494,29.427,29.425,35.343-35.341a69.436,69.436,0,0,0,19.26-36.637A10.345,10.345,0,0,0,526.4,415.465a69.432,69.432,0,0,0-36.637,19.261Z" transform="translate(-447.346 -410.294)" fill="#1e0b4b"/>
    </g>
    <g id="Group_3722" data-name="Group 3722" transform="translate(510.008 423.657)">
      <path id="Path_7276" data-name="Path 7276" d="M514.328,446.867a2.489,2.489,0,0,1-1.767-.733l-22.221-22.218a2.5,2.5,0,0,1,3.535-3.535L516.1,442.6a2.5,2.5,0,0,1-1.767,4.266Z" transform="translate(-489.608 -419.65)" fill="#1e0b4b"/>
    </g>
    <g id="Group_3723" data-name="Group 3723" transform="translate(490.748 442.955)">
      <path id="Path_7277" data-name="Path 7277" d="M487.377,455.665a11.25,11.25,0,1,1,7.96-3.292h0A11.221,11.221,0,0,1,487.377,455.665Zm0-17.507a6.257,6.257,0,1,0,4.426,10.681h0a6.255,6.255,0,0,0-4.426-10.681Z" transform="translate(-476.124 -433.161)" fill="#1e0b4b"/>
    </g>
    <g id="Group_3724" data-name="Group 3724" transform="translate(458.249 460)">
      <path id="Path_7278" data-name="Path 7278" d="M482.783,477.006a2.487,2.487,0,0,1-1.767-.733L454.1,449.361a2.5,2.5,0,0,1,3.535-3.535l26.913,26.913a2.5,2.5,0,0,1-1.767,4.268Z" transform="translate(-453.371 -445.094)" fill="#1e0b4b"/>
    </g>
    <g id="Group_3725" data-name="Group 3725" transform="translate(441.981 449.364)">
      <path id="Path_7279" data-name="Path 7279" d="M456.346,458.72l-14.365-14.362,1.768-1.768a16.921,16.921,0,0,1,23.9,0L470.065,445Zm-7.107-14.175,7.107,7.106,6.573-6.573A11.929,11.929,0,0,0,449.238,444.546Z" transform="translate(-441.981 -437.648)" fill="#1e0b4b"/>
    </g>
    <g id="Group_3726" data-name="Group 3726" transform="translate(485.771 486.144)">
      <path id="Path_7280" data-name="Path 7280" d="M487,491.48l-14.363-14.363L486.358,463.4l2.411,2.412a16.9,16.9,0,0,1,0,23.9Zm-7.293-14.363,7.107,7.107a11.918,11.918,0,0,0-.533-13.683Z" transform="translate(-472.639 -463.398)" fill="#1e0b4b"/>
    </g>
    <g id="Group_3727" data-name="Group 3727" transform="translate(444.395 483.274)">
      <path id="Path_7281" data-name="Path 7281" d="M447.658,493l-3.987-3c2.752-4.161,2.073-7.159,1.286-10.631a19.779,19.779,0,0,1-.7-6.763c.86-7.733,5.926-11.894,13.541-11.131l.157.016a2.451,2.451,0,0,1,2.444,2.5,2.546,2.546,0,0,1-2.555,2.5c-.1,0-.284-.011-.546-.036-4.941-.5-7.509,1.633-8.072,6.707a15.511,15.511,0,0,0,.608,5.1,21.529,21.529,0,0,1,.737,7.3,21.606,21.606,0,0,1,10.981-.568,4.775,4.775,0,0,0,4.618-1.448,7.678,7.678,0,0,0,1.9-6.3,2.5,2.5,0,1,1,4.851-1.207,12.491,12.491,0,0,1-3.108,10.941,9.765,9.765,0,0,1-9.173,2.934C451.89,488.275,447.827,492.808,447.658,493Z" transform="translate(-443.671 -461.389)" fill="#1e0b4b"/>
    </g>
    <g id="Group_3728" data-name="Group 3728" transform="translate(452.303 490.672)">
      <path id="Path_7282" data-name="Path 7282" d="M452.042,478.158a2.5,2.5,0,0,1-2.494-2.364,16.948,16.948,0,0,0-.28-2.111l-.05-.387a6.141,6.141,0,0,1,4.583-6.675,2.5,2.5,0,0,1,1.106,4.876c-.473.151-.707.62-.7,1.4a21.523,21.523,0,0,1,.333,2.628,2.5,2.5,0,0,1-2.358,2.632C452.135,478.156,452.088,478.158,452.042,478.158Z" transform="translate(-449.207 -466.568)" fill="#1e0b4b"/>
    </g>
  </g>
</svg>
