<svg xmlns="http://www.w3.org/2000/svg" width="47.517" height="47.517" viewBox="0 0 47.517 47.517">
  <path id="fixed-pricing-model" d="M47.516,19.926H45.794l-2.567,1.351a3.81,3.81,0,0,0-.913-.376l-3.229-.808v-.367a5.382,5.382,0,0,0,2.3-4.4v-1.34a5.506,5.506,0,0,0-5.2-5.556c-.146,0-.289,0-.433.009l.837-1.96L32.531,2.424,30.138,3.981a12.964,12.964,0,0,0-2.869-1.19L26.679,0H20.838l-.591,2.792a12.949,12.949,0,0,0-2.869,1.19L14.986,2.425,10.931,6.48l.823,1.961c-.031,0-.061-.007-.093-.008A5.367,5.367,0,0,0,6.131,13.8v1.533a5.38,5.38,0,0,0,2.3,4.4v.368l-2.106.527L2.507,18.393H0V34.274l7.54,2.513H9.008l.183-.642L11.5,37.532a2.386,2.386,0,0,0,2.3,2.312,2.386,2.386,0,0,0,2.3,2.3,2.386,2.386,0,0,0,2.3,2.3,2.384,2.384,0,0,0,3.727,1.892l.679.6a2.334,2.334,0,0,0,1.542.582h.142a2.333,2.333,0,0,0,2.329-2.3,2.331,2.331,0,0,0,2.3-2.3,2.331,2.331,0,0,0,2.3-2.3,2.357,2.357,0,0,0,2.3-2.352,2.244,2.244,0,0,0-.012-.23l13.807-6.9Zm-7.664-5.938v1.34a3.847,3.847,0,0,1-1.918,3.316l-.383.222,0,2.425,3.829.956-8.428,4.436V24.619a3.813,3.813,0,0,0-1.1-2.671l2.63-.657V18.864l-.382-.221a3.843,3.843,0,0,1-1.917-3.315V13.8a3.832,3.832,0,0,1,3.951-3.83,3.962,3.962,0,0,1,3.713,4.023ZM24.914,26.081l-3.469-1.109a9.464,9.464,0,0,0-4.911-.224l-.439.1v-.227a2.3,2.3,0,0,1,1.741-2.231l4.39-1.1V18.864l-.382-.221a3.843,3.843,0,0,1-1.917-3.315V13.8a3.832,3.832,0,0,1,3.951-3.83,3.962,3.962,0,0,1,3.713,4.023v1.34a3.847,3.847,0,0,1-1.918,3.316l-.383.222,0,2.425,4.389,1.1a2.3,2.3,0,0,1,1.741,2.231v2.872l-.189.1h-.47l-4.712-1.346a4.831,4.831,0,0,0-1.138-.163ZM16.266,11.47a8.425,8.425,0,0,1,14.953-.062,5.33,5.33,0,0,0-.563,2.386v1.533a5.38,5.38,0,0,0,2.3,4.4v.368l-3.066.768-3.066-.768v-.367a5.382,5.382,0,0,0,2.3-4.4v-1.34a5.506,5.506,0,0,0-5.2-5.556,5.366,5.366,0,0,0-5.529,5.363v1.533a5.38,5.38,0,0,0,2.3,4.4v.368l-3.066.768-3.066-.768v-.367a5.382,5.382,0,0,0,2.3-4.4v-1.34a5.649,5.649,0,0,0-.595-2.518ZM12.741,6.835,15.19,4.387l2.155,1.4.412-.253A11.437,11.437,0,0,1,21.076,4.16l.472-.113.533-2.514h3.356l.532,2.514.472.113a11.448,11.448,0,0,1,3.319,1.377l.412.253,2.155-1.4,2.446,2.446L33.9,8.868a5.357,5.357,0,0,0-1.618,1.076c-.031.031-.058.064-.089.1a9.953,9.953,0,0,0-16.9.046,5.406,5.406,0,0,0-1.691-1.2ZM9.963,21.291V18.864l-.382-.221a3.843,3.843,0,0,1-1.917-3.315V13.8a3.832,3.832,0,0,1,3.951-3.83,3.962,3.962,0,0,1,3.713,4.023v1.34a3.847,3.847,0,0,1-1.918,3.316l-.383.222,0,2.425,2.63.657a3.813,3.813,0,0,0-1.1,2.671v.568l-2.39.531.062-.217.029-1.416L8.22,21.727Zm-8.43-1.365h.559L7.6,23.141,4.822,34.265l-3.289-1.1ZM7.788,35.254l-1.508-.5,2.7-10.806,1.748,1.019v.219L7.852,35.254Zm5.241,2.206a.865.865,0,0,1,.251-.608l1.347-1.347a.859.859,0,0,1,1.215,1.215L14.5,38.068a.859.859,0,0,1-1.467-.608Zm2.3,2.3a.865.865,0,0,1,.251-.608L16.926,37.8a.859.859,0,0,1,1.215,1.215l-1.347,1.347a.859.859,0,0,1-1.467-.608Zm2.3,2.3a.865.865,0,0,1,.251-.608L19.226,40.1a.859.859,0,0,1,1.215,1.215l-1.347,1.347a.859.859,0,0,1-1.467-.608Zm3.158,3.158a.859.859,0,0,1-.608-1.467L21.525,42.4a.859.859,0,0,1,1.215,1.215l-1.347,1.347A.865.865,0,0,1,20.785,45.217Zm3.706.766H24.35a.794.794,0,0,1-.528-.2l-.573-.506.576-.576a2.383,2.383,0,0,0,.483-.712l.7.58a.8.8,0,0,1-.512,1.413Zm6.873-6.9h-.132a.822.822,0,0,1-.527-.192l-4.156-3.463-.982,1.178L29.6,39.972a.8.8,0,0,1-.513,1.413h-.167a.8.8,0,0,1-.511-.186l-4.163-3.469-.982,1.178L27.3,42.272a.8.8,0,0,1-.512,1.412,1.266,1.266,0,0,1-.806-.292l-1.711-1.426a2.384,2.384,0,0,0-2.058-1.339,2.386,2.386,0,0,0-2.3-2.3,2.386,2.386,0,0,0-2.3-2.3,2.386,2.386,0,0,0-4.074-1.607L12.2,35.769a2.362,2.362,0,0,0-.215.262L9.627,34.619,11.691,27.4l5.174-1.15a7.9,7.9,0,0,1,4.112.186l1.129.361-3.827,1.914A2.555,2.555,0,0,0,16.86,31v.152a2.567,2.567,0,0,0,3.888,2.2L23.6,31.644a1.582,1.582,0,0,1,1.838.177l6.475,5.828a.825.825,0,0,1-.551,1.438Zm14.619-8.9L33.072,36.638c-.042-.045-.086-.087-.132-.128l-6.474-5.828a3.084,3.084,0,0,0-3.653-.353l-2.855,1.712a1.034,1.034,0,0,1-1.565-.888V31a1.028,1.028,0,0,1,.572-.925L23.24,27.94a3.331,3.331,0,0,1,2.389-.222l4.816,1.376,1.166.029,14.372-7.564Zm0,0" transform="translate(0)" fill="#f15151"/>
</svg>
