<?xml version="1.0" encoding="utf-8"?>
<!-- Generator: Adobe Illustrator 24.2.3, SVG Export Plug-In . SVG Version: 6.00 Build 0)  -->
<svg version="1.1" id="Layer_1" xmlns="http://www.w3.org/2000/svg" xmlns:xlink="http://www.w3.org/1999/xlink" x="0px" y="0px"
	 viewBox="0 0 50 50" style="enable-background:new 0 0 50 50;" xml:space="preserve">
<style type="text/css">
	.st0{fill:#1E0B4B;}
</style>
<g>
	<path class="st0" d="M15.5,33.4c-2.1,0-3.8,1.7-3.8,3.8c0,2.1,1.7,3.8,3.8,3.8c2.1,0,3.8-1.7,3.8-3.8
		C19.3,35.1,17.6,33.4,15.5,33.4z M15.5,39.4c-1.2,0-2.2-1-2.2-2.2c0-1.1,0.8-2,1.9-2.2c0.1,0,0.2,0.1,0.3,0.1c0.1,0,0.2,0,0.3-0.1
		c1.1,0.1,1.9,1.1,1.9,2.2C17.7,38.4,16.7,39.4,15.5,39.4z"/>
	<path class="st0" d="M47.2,14.2H24.6c-1.3,0-2.3,1-2.3,2.3v3.7c-0.7-0.2-1.4-0.3-2.1-0.3H20v-2.2c2.1-2,3.2-5.3,3.2-9.5
		c0-4.2-3.5-7.7-7.7-7.7S7.8,4,7.8,8.2c0,0.2,0,0.3,0,0.5c0,0,0,0,0,0c0,0,0,0,0,0c0.1,4,1.2,7,3.2,9v2.2h-0.3
		c-4.7,0-8.5,3.8-8.5,8.5v0.1c-0.5,0.1-0.9,0.4-1.2,0.7c-0.4,0.4-0.5,1-0.5,1.5l1.8,13.8c-1.1,0.3-1.8,1.3-1.8,2.4
		c0,1.4,1.1,2.5,2.5,2.5h24.8c1.4,0,2.5-1.1,2.5-2.5c0-1.2-0.8-2.1-1.8-2.4l1-7.4h17.6c1.3,0,2.3-1,2.3-2.3V16.5
		C49.5,15.2,48.4,14.2,47.2,14.2z M24.6,15.8h22.5c0.4,0,0.7,0.3,0.7,0.7V19H23.9v-2.6C23.9,16.1,24.3,15.8,24.6,15.8z M20.3,21.5
		c0.2,0,0.3,0,0.5,0l-1.6,4.2L16.8,24l2.7-2.6H20.3z M15.5,2.1c3.4,0,6.1,2.7,6.1,6.1c0,0.1,0,0.2,0,0.4c-1.2-0.5-2.1-1.3-2.2-3
		c0-0.4-0.3-0.6-0.6-0.7c-0.3-0.1-0.7,0.1-0.9,0.4C16.5,8.1,11.8,8.1,9.4,8C9.5,4.7,12.2,2.1,15.5,2.1z M9.4,9.6
		c2.4,0.1,6.4,0.1,8.8-2.1c0.7,1.6,2.1,2.3,3.3,2.8c-0.3,2.9-1.6,7.3-6,7.9C10.7,17.5,9.7,12.4,9.4,9.6z M15.4,19.8c0,0,0.1,0,0.1,0
		s0.1,0,0.1,0c1-0.1,2-0.5,2.8-0.9v1.5l-2.9,2.7l-2.9-2.7v-1.5C13.4,19.3,14.4,19.6,15.4,19.8z M11.5,21.5l2.7,2.6l-2.5,1.7
		l-1.6-4.2c0.2,0,0.3,0,0.5,0H11.5z M8.6,21.8l2,5.4c0.1,0.2,0.3,0.4,0.5,0.5c0.1,0,0.2,0,0.2,0c0.2,0,0.3,0,0.4-0.1l3.7-2.5
		l3.7,2.5c0.1,0.1,0.3,0.1,0.4,0.1c0.1,0,0.2,0,0.2,0c0.2-0.1,0.4-0.2,0.5-0.5l2-5.4v6.6H3.8v-0.1C3.8,25.3,5.8,22.7,8.6,21.8z
		 M27.9,47.9H3.1c-0.5,0-1-0.4-1-1c0-0.5,0.4-1,1-1h0.2h24.4h0.2c0.5,0,1,0.4,1,1C28.9,47.5,28.4,47.9,27.9,47.9z M27,44.4H4
		L2.1,30.5c0-0.1,0-0.2,0.1-0.3C2.3,30.1,2.6,30,2.7,30h19.6v4.8c0,1.3,1,2.3,2.3,2.3H28L27,44.4z M47.2,35.5H28.9h-4.3
		c-0.4,0-0.7-0.3-0.7-0.7v-5.6v-8c0,0,0,0,0,0v-0.6h23.9v14.2C47.9,35.2,47.6,35.5,47.2,35.5z"/>
	<path class="st0" d="M33.5,25.6c-0.3-0.3-0.8-0.4-1.1-0.1L30,27.4c-0.2,0.1-0.3,0.4-0.3,0.6c0,0.2,0.1,0.5,0.3,0.6l2.4,1.9
		c0.1,0.1,0.3,0.2,0.5,0.2c0.2,0,0.5-0.1,0.6-0.3c0.3-0.3,0.2-0.8-0.1-1.1l-1.6-1.3l1.6-1.3C33.8,26.5,33.8,26,33.5,25.6z"/>
	<path class="st0" d="M36.9,25.4c-0.4-0.1-0.9,0.1-1,0.5l-1.4,3.9c-0.1,0.4,0.1,0.9,0.5,1c0.1,0,0.2,0,0.3,0c0.3,0,0.6-0.2,0.7-0.5
		l1.4-3.9C37.5,26,37.3,25.5,36.9,25.4z"/>
	<path class="st0" d="M39.4,25.5c-0.3-0.3-0.8-0.2-1.1,0.1c-0.3,0.3-0.2,0.8,0.1,1.1l1.6,1.3l-1.6,1.3c-0.3,0.3-0.4,0.8-0.1,1.1
		c0.2,0.2,0.4,0.3,0.6,0.3c0.2,0,0.3-0.1,0.5-0.2l2.4-1.9c0.2-0.2,0.3-0.4,0.3-0.6s-0.1-0.5-0.3-0.6L39.4,25.5z"/>
	<path class="st0" d="M42.2,17.8c0.1,0.2,0.4,0.4,0.7,0.4c0.1,0,0.3,0,0.4-0.1c0.4-0.2,0.5-0.7,0.3-1.1c-0.2-0.4-0.7-0.5-1.1-0.3
		C42.1,16.9,42,17.4,42.2,17.8L42.2,17.8z"/>
	<path class="st0" d="M45.1,17.8c0.1,0.2,0.4,0.4,0.7,0.4c0.1,0,0.3,0,0.4-0.1c0.4-0.2,0.5-0.7,0.3-1.1c-0.2-0.4-0.7-0.5-1.1-0.3
		C45,16.9,44.9,17.4,45.1,17.8L45.1,17.8z"/>
	<path class="st0" d="M39.2,17.8c0.1,0.2,0.4,0.4,0.7,0.4c0.1,0,0.3,0,0.4-0.1c0.4-0.2,0.5-0.7,0.3-1.1c-0.2-0.4-0.7-0.5-1.1-0.3
		C39.1,16.9,39,17.4,39.2,17.8L39.2,17.8z"/>
</g>
</svg>
