<svg xmlns="http://www.w3.org/2000/svg" xmlns:xlink="http://www.w3.org/1999/xlink" width="73.259" height="81.352" viewBox="0 0 73.259 81.352">
  <defs>
    <linearGradient id="linear-gradient" y1="1.236" x2="0.92" gradientUnits="objectBoundingBox">
      <stop offset="0" stop-color="#1e0b4b"/>
      <stop offset="1" stop-color="#8f005b"/>
    </linearGradient>
  </defs>
  <g id="high-security" transform="translate(-6 -4.017)">
    <path id="Path_7762" data-name="Path 7762" d="M77.224,16.18c-11.835,0-27.417-3.995-32.964-11.394a2.112,2.112,0,0,0-3.26,0C35.452,12.185,19.87,16.18,8.035,16.18A2.034,2.034,0,0,0,6,18.215V44.67c0,22.376,19.432,35.866,36.07,40.62a2.013,2.013,0,0,0,1.119,0c16.638-4.754,36.07-18.243,36.07-40.62V18.215A2.034,2.034,0,0,0,77.224,16.18ZM75.189,44.67c0,19.865-17.409,32.043-32.559,36.546C27.479,76.712,10.07,64.535,10.07,44.67V20.215c11.76-.4,25.671-4.19,32.559-11.117,6.888,6.927,20.8,10.718,32.559,11.117Z" transform="translate(0)" fill="url(#linear-gradient)"/>
    <path id="Path_7763" data-name="Path 7763" d="M23.474,25.66A2.035,2.035,0,1,0,20.6,28.537l4.07,4.07a2.034,2.034,0,0,0,2.877,0l8.14-8.14a2.035,2.035,0,1,0-2.877-2.877l-6.7,6.7Z" transform="translate(14.489 17.571)" fill="url(#linear-gradient)"/>
    <path id="Path_7764" data-name="Path 7764" d="M14,34.344a20.35,20.35,0,1,0,20.35-20.35A20.373,20.373,0,0,0,14,34.344Zm36.629,0a16.28,16.28,0,1,1-16.28-16.28A16.3,16.3,0,0,1,50.629,34.344Z" transform="translate(8.28 10.326)" fill="url(#linear-gradient)"/>
  </g>
</svg>
