<?xml version="1.0" encoding="utf-8"?>
<!-- Generator: Adobe Illustrator 24.2.3, SVG Export Plug-In . SVG Version: 6.00 Build 0)  -->
<svg version="1.1" id="Layer_1" xmlns="http://www.w3.org/2000/svg" xmlns:xlink="http://www.w3.org/1999/xlink" x="0px" y="0px"
	 viewBox="0 0 50 50" style="enable-background:new 0 0 50 50;" xml:space="preserve">
<style type="text/css">
	.st0{fill:#1E0B4B;}
</style>
<g>
	<path class="st0" d="M37.4,17.7l3.1-3.4l1.2,1c0.2,0.1,0.3,0.2,0.5,0.2c0.2,0,0.4-0.1,0.6-0.3c0.3-0.3,0.3-0.8-0.1-1.1L39.2,11
		c-0.3-0.3-0.8-0.3-1.1,0.1c-0.3,0.3-0.3,0.8,0.1,1.1l1.2,1l-3.1,3.5c-2.9-2.2-6.5-3.6-10.4-3.8V12c2.9-0.4,5.1-2.8,5.1-5.8
		c0-3.2-2.6-5.9-5.9-5.9S19.1,3,19.1,6.2c0,3,2.2,5.4,5.1,5.8v0.9c-4,0.2-7.6,1.6-10.5,3.9l-3.2-3.6l1.2-1c0.3-0.3,0.4-0.8,0.1-1.1
		c-0.3-0.3-0.8-0.4-1.1-0.1l-3.5,3.2C6.7,14.5,6.7,15,7,15.3c0.2,0.2,0.4,0.3,0.6,0.3c0.2,0,0.4-0.1,0.5-0.2l1.2-1l3.2,3.6
		C8.9,21.2,6.6,26,6.6,31.3c0,10.1,8.2,18.4,18.4,18.4s18.4-8.2,18.4-18.4C43.4,25.9,41.1,21.1,37.4,17.7z M20.7,6.2
		C20.7,3.9,22.6,2,25,2s4.3,1.9,4.3,4.3c0,2.4-1.9,4.3-4.3,4.3S20.7,8.6,20.7,6.2z M25,48c-9.3,0-16.8-7.5-16.8-16.8
		c0-9.3,7.5-16.8,16.8-16.8S41.8,22,41.8,31.3C41.8,40.5,34.3,48,25,48z"/>
	<path class="st0" d="M25,16.3c-8.2,0-15,6.7-15,15c0,8.2,6.7,14.9,15,14.9c8.2,0,15-6.7,15-14.9C40,23,33.2,16.3,25,16.3z
		 M25.8,44.6v-3.8c0-0.4-0.4-0.8-0.8-0.8s-0.8,0.4-0.8,0.8v3.8c-6.7-0.4-12.1-5.8-12.5-12.5h3.8c0.4,0,0.8-0.4,0.8-0.8
		c0-0.4-0.4-0.8-0.8-0.8h-3.8c0.4-6.7,5.8-12.1,12.5-12.5v3.8c0,0.4,0.4,0.8,0.8,0.8s0.8-0.4,0.8-0.8v-3.8
		c6.7,0.4,12.1,5.8,12.5,12.5h-3.8c-0.4,0-0.8,0.4-0.8,0.8c0,0.4,0.4,0.8,0.8,0.8h3.8C37.9,38.8,32.5,44.2,25.8,44.6z"/>
	<path class="st0" d="M28,6.2c0-1.7-1.4-3-3-3c-1.7,0-3,1.4-3,3s1.4,3,3,3C26.7,9.2,28,7.9,28,6.2z M23.6,6.2c0-0.8,0.6-1.4,1.4-1.4
		c0.8,0,1.4,0.6,1.4,1.4S25.8,7.6,25,7.6C24.2,7.6,23.6,7,23.6,6.2z"/>
	<path class="st0" d="M25,27.4c-0.8,0-1.5,0.2-2.1,0.6l-5.2-5.2c-0.3-0.3-0.8-0.3-1.1,0c-0.3,0.3-0.3,0.8,0,1.1l5.2,5.2
		c-0.4,0.6-0.6,1.3-0.6,2.1c0,2.1,1.7,3.8,3.8,3.8s3.8-1.7,3.8-3.8C28.8,29.2,27.1,27.4,25,27.4z M25,33.5c-1.2,0-2.2-1-2.2-2.2
		c0-1.2,1-2.2,2.2-2.2s2.2,1,2.2,2.2C27.2,32.5,26.2,33.5,25,33.5z"/>
</g>
</svg>
