<svg xmlns="http://www.w3.org/2000/svg" width="49.2" height="47.229" viewBox="0 0 49.2 47.229">
  <g id="hourly-rate-icon" transform="translate(0 -10.262)">
    <g id="XMLID_386_" transform="translate(0 10.262)">
      <path id="XMLID_389_" d="M49.105,36.149A19.4,19.4,0,0,0,34.023,19.141V16.7a3.267,3.267,0,0,0-.789-6.438H26.316a3.267,3.267,0,0,0-.789,6.438v2.448a19.3,19.3,0,0,0-9.463,5.205,19.5,19.5,0,0,0-1.632,1.852c-.024,0-.048,0-.073,0H7.512a.961.961,0,1,0,0,1.922h5.613a19.264,19.264,0,0,0-1.705,3.694H.961a.961.961,0,1,0,0,1.922h9.916a19.538,19.538,0,0,0-.477,3.694H6.15a.961.961,0,1,0,0,1.922h4.28a19.51,19.51,0,0,0,.6,3.694H4.8a.961.961,0,1,0,0,1.922h6.839A19.409,19.409,0,0,0,27.871,57.4q.952.094,1.9.094a19.458,19.458,0,0,0,10.593-3.131.961.961,0,1,0-1.049-1.611,17.489,17.489,0,1,1,5.151-5.158.961.961,0,1,0,1.612,1.047A19.473,19.473,0,0,0,49.105,36.149ZM24.97,13.529a1.347,1.347,0,0,1,1.345-1.345h6.919a1.345,1.345,0,0,1,0,2.691H26.316A1.347,1.347,0,0,1,24.97,13.529Zm2.479,5.288V16.8H32.1v2.018A19.58,19.58,0,0,0,27.449,18.818Z" transform="translate(0 -10.262)" fill="#f15151"/>
      <path id="XMLID_391_" d="M436.731,425.5a.961.961,0,1,0,.679.282A.966.966,0,0,0,436.731,425.5Z" transform="translate(-393.894 -385.597)" fill="#f15151"/>
      <path id="XMLID_394_" d="M169.779,144.609a14.907,14.907,0,1,0,14.907,14.907A14.924,14.924,0,0,0,169.779,144.609Zm0,27.893a12.985,12.985,0,1,1,12.985-12.985A13,13,0,0,1,169.779,172.5Z" transform="translate(-139.989 -131.699)" fill="#f15151"/>
      <path id="XMLID_398_" d="M399.506,289.86h-.89a.961.961,0,1,0,0,1.922h.89a.961.961,0,0,0,0-1.922Z" transform="translate(-359.442 -262.992)" fill="#f15151"/>
      <path id="XMLID_399_" d="M194.933,289.616h-.89a.961.961,0,1,0,0,1.922h.89a.961.961,0,1,0,0-1.922Z" transform="translate(-174.528 -262.771)" fill="#f15151"/>
      <path id="XMLID_400_" d="M301.084,185.631a.961.961,0,0,0,.961-.961v-.89a.961.961,0,1,0-1.922,0v.89A.961.961,0,0,0,301.084,185.631Z" transform="translate(-271.282 -166.237)" fill="#f15151"/>
      <path id="XMLID_424_" d="M300.84,387.393a.961.961,0,0,0-.961.961v.89a.961.961,0,0,0,1.922,0v-.89A.961.961,0,0,0,300.84,387.393Z" transform="translate(-271.062 -351.152)" fill="#f15151"/>
      <path id="XMLID_425_" d="M.961,351.44a.961.961,0,1,0,.679,1.64.961.961,0,0,0-.679-1.64Z" transform="translate(0 -318.654)" fill="#f15151"/>
      <path id="Path_8505" data-name="Path 8505" d="M121.555,5.594a14.828,14.828,0,0,0-1.506-.682,3.381,3.381,0,0,1-.827-.463A.719.719,0,0,1,119.4,3.17a1.451,1.451,0,0,1,.506-.1,3.842,3.842,0,0,1,1.9.376c.3.145.4.1.5-.214.107-.331.2-.666.3-1a.349.349,0,0,0-.226-.465,4.836,4.836,0,0,0-1.2-.359c-.544-.084-.544-.086-.547-.633,0-.771,0-.771-.776-.771-.112,0-.224,0-.336,0-.361.01-.422.074-.432.437-.005.163,0,.326,0,.491,0,.483-.005.476-.468.643a2.58,2.58,0,0,0-1.885,2.391,2.45,2.45,0,0,0,1.386,2.343,15.325,15.325,0,0,0,1.732.778,2.573,2.573,0,0,1,.631.371.865.865,0,0,1-.206,1.516,2.074,2.074,0,0,1-1.111.145,4.961,4.961,0,0,1-1.694-.506c-.313-.163-.4-.12-.511.219-.092.292-.173.588-.254.883-.109.4-.069.491.31.677a5.408,5.408,0,0,0,1.526.437c.412.066.425.084.43.511,0,.193,0,.389.005.582a.346.346,0,0,0,.371.392c.285.005.572.005.857,0a.326.326,0,0,0,.354-.369c0-.265.013-.532,0-.8a.42.42,0,0,1,.364-.478,2.874,2.874,0,0,0,1.5-.961A2.7,2.7,0,0,0,121.555,5.594Z" transform="translate(-90.312 21.432)" fill="#f15151"/>
    </g>
  </g>
</svg>
