<svg xmlns="http://www.w3.org/2000/svg" xmlns:xlink="http://www.w3.org/1999/xlink" width="82.664" height="82.664" viewBox="0 0 82.664 82.664">
  <defs>
    <linearGradient id="linear-gradient" y1="1.236" x2="0.92" gradientUnits="objectBoundingBox">
      <stop offset="0" stop-color="#1e0b4b"/>
      <stop offset="1" stop-color="#8f005b"/>
    </linearGradient>
  </defs>
  <g id="increased-performance" transform="translate(0.5 0.5)">
    <path id="Path_7771" data-name="Path 7771" d="M76.56,5.1H51.04V2.552A2.553,2.553,0,0,0,48.488,0H33.176a2.553,2.553,0,0,0-2.552,2.552V5.1H5.1a5.109,5.109,0,0,0-5.1,5.1V66.352a5.109,5.109,0,0,0,5.1,5.1H38.28v5.1H30.624a5,5,0,0,0,5.1,5.1H45.936a5,5,0,0,0,5.1-5.1H43.384v-5.1H76.56a5.109,5.109,0,0,0,5.1-5.1V10.208A5.109,5.109,0,0,0,76.56,5.1Zm0,61.248-71.456,0V10.208H76.56Z" stroke="rgba(0,0,0,0)" stroke-width="1" fill="url(#linear-gradient)"/>
    <path id="Path_7772" data-name="Path 7772" d="M33.617,28.36l-8.4-8.4a2.549,2.549,0,0,0-3.609,0L6.293,35.268,9.9,38.876,23.409,25.369l8.4,8.4a2.549,2.549,0,0,0,3.609,0l16.06-16.06v6.6h5.1V11.552A2.553,2.553,0,0,0,54.033,9H41.273v5.1h6.6Z" transform="translate(9.767 13.968)" stroke="rgba(0,0,0,0)" stroke-width="1" fill="url(#linear-gradient)"/>
  </g>
</svg>
