<svg xmlns="http://www.w3.org/2000/svg" width="145.994" height="91.396" viewBox="0 0 145.994 91.396">
  <g id="integration-trouble-free" transform="translate(-14.798 -57.133)">
    <path id="Path_7609" data-name="Path 7609" d="M65.135,148.529H55.856a5.7,5.7,0,0,1-5.522-4.275l-2.684-10.413-9.258,5.465a5.705,5.705,0,0,1-6.929-.882L24.9,131.863a5.7,5.7,0,0,1-.883-6.927l5.465-9.261-10.41-2.682A5.7,5.7,0,0,1,14.8,107.47V98.191a5.7,5.7,0,0,1,4.275-5.523l10.412-2.683L24.02,80.727A5.7,5.7,0,0,1,24.9,73.8l6.561-6.562a5.7,5.7,0,0,1,6.928-.882l9.259,5.466,2.683-10.411a5.7,5.7,0,0,1,5.522-4.276h9.279a5.705,5.705,0,0,1,5.523,4.274L73.342,71.82,82.6,66.355a5.7,5.7,0,0,1,6.929.881L96.09,73.8a5.7,5.7,0,0,1,.882,6.928l-5.464,9.259,10.41,2.683h0a5.7,5.7,0,0,1,4.275,5.523v9.279a5.7,5.7,0,0,1-4.275,5.522l-10.412,2.683,5.464,9.259a5.7,5.7,0,0,1-.881,6.929l-6.562,6.562a5.7,5.7,0,0,1-6.928.882l-9.259-5.466-2.683,10.411A5.706,5.706,0,0,1,65.135,148.529ZM48.677,129.752a1.611,1.611,0,0,1,1.561,1.21l3.218,12.486a2.48,2.48,0,0,0,2.4,1.857h9.279a2.481,2.481,0,0,0,2.4-1.859l3.216-12.484a1.612,1.612,0,0,1,2.381-.986l11.1,6.554a2.481,2.481,0,0,0,3.011-.384l6.562-6.562a2.48,2.48,0,0,0,.383-3.012l-6.553-11.1a1.612,1.612,0,0,1,.986-2.38l12.485-3.217a2.48,2.48,0,0,0,1.857-2.4V98.191a2.481,2.481,0,0,0-1.859-2.4L88.627,92.573a1.612,1.612,0,0,1-.986-2.381l6.553-11.1a2.478,2.478,0,0,0-.384-3.011l-6.561-6.562a2.482,2.482,0,0,0-3.012-.383l-11.1,6.553a1.612,1.612,0,0,1-2.381-.986L67.537,62.214a2.481,2.481,0,0,0-2.4-1.856H55.856a2.48,2.48,0,0,0-2.4,1.858L50.238,74.7a1.612,1.612,0,0,1-2.381.986l-11.1-6.554a2.482,2.482,0,0,0-3.011.384l-6.561,6.562A2.482,2.482,0,0,0,26.8,79.09l6.554,11.1a1.612,1.612,0,0,1-.986,2.381L19.879,95.79a2.481,2.481,0,0,0-1.857,2.4v9.279a2.481,2.481,0,0,0,1.859,2.4l12.484,3.216a1.612,1.612,0,0,1,.986,2.381l-6.554,11.1a2.481,2.481,0,0,0,.385,3.011l6.561,6.562a2.482,2.482,0,0,0,3.013.383l11.1-6.553A1.614,1.614,0,0,1,48.677,129.752Z" transform="translate(0 0)" fill="#1e0b4b"/>
    <g id="Group_3644" data-name="Group 3644" transform="translate(34.381 57.133)">
      <path id="Path_7610" data-name="Path 7610" d="M204.358,92.668l-10.41-2.683,5.464-9.259a5.7,5.7,0,0,0-.881-6.928l-6.562-6.562a5.7,5.7,0,0,0-6.929-.881l-9.258,5.464L173.1,61.407a5.705,5.705,0,0,0-5.523-4.274H158.3a5.7,5.7,0,0,0-5.522,4.276l-3.218,12.486a1.612,1.612,0,0,0,3.122.8L155.9,62.216a2.479,2.479,0,0,1,2.4-1.858h9.279a2.481,2.481,0,0,1,2.4,1.856L173.195,74.7a1.612,1.612,0,0,0,2.381.986l11.1-6.553a2.482,2.482,0,0,1,3.012.383l6.561,6.562a2.479,2.479,0,0,1,.384,3.011l-6.553,11.1a1.612,1.612,0,0,0,.986,2.381l12.484,3.216a2.481,2.481,0,0,1,1.859,2.4v9.279a2.48,2.48,0,0,1-1.857,2.4l-12.486,3.217a1.612,1.612,0,0,0-.986,2.38l6.553,11.1a2.481,2.481,0,0,1-.383,3.012l-6.562,6.562a2.481,2.481,0,0,1-3.011.384l-11.1-6.554a1.612,1.612,0,0,0-2.381.986l-3.216,12.484a2.482,2.482,0,0,1-2.4,1.859H158.3a2.478,2.478,0,0,1-2.4-1.857l-3.218-12.486a1.612,1.612,0,1,0-3.122.8l3.218,12.488a5.7,5.7,0,0,0,5.522,4.275h9.279a5.706,5.706,0,0,0,5.524-4.277l2.683-10.411,9.259,5.466a5.7,5.7,0,0,0,6.928-.882l6.562-6.562a5.7,5.7,0,0,0,.881-6.929l-5.464-9.259,10.412-2.683a5.7,5.7,0,0,0,4.275-5.522V98.191A5.705,5.705,0,0,0,204.358,92.668Z" transform="translate(-82.224 -57.133)" fill="#2f5bea"/>
      <path id="Path_7611" data-name="Path 7611" d="M91.423,116.721a1.612,1.612,0,0,0-2.28,2.28l3.84,3.84h-46.2a1.612,1.612,0,1,0,0,3.224h46.2l-3.84,3.841a1.612,1.612,0,0,0,2.28,2.28l6.592-6.592a1.611,1.611,0,0,0,0-2.28Z" transform="translate(-45.167 -78.129)" fill="#2f5bea"/>
      <path id="Path_7612" data-name="Path 7612" d="M174.008,116.721a1.612,1.612,0,0,0-2.28,0l-6.593,6.593a1.612,1.612,0,0,0,0,2.28l6.593,6.592a1.612,1.612,0,0,0,2.28-2.28l-3.841-3.841h16.411a1.612,1.612,0,0,0,0-3.224H170.168l3.841-3.84A1.612,1.612,0,0,0,174.008,116.721Z" transform="translate(-87.608 -78.129)" fill="#1e0b4b"/>
    </g>
  </g>
</svg>
