<?xml version="1.0" encoding="utf-8"?>
<!-- Generator: Adobe Illustrator 24.2.3, SVG Export Plug-In . SVG Version: 6.00 Build 0)  -->
<svg version="1.1" id="Layer_1" xmlns="http://www.w3.org/2000/svg" xmlns:xlink="http://www.w3.org/1999/xlink" x="0px" y="0px"
	 viewBox="0 0 50 50" style="enable-background:new 0 0 50 50;" xml:space="preserve">
<style type="text/css">
	.st0{fill:#1E0B4B;}
</style>
<g>
	<g>
		<path class="st0" d="M28.1,49.5h-6.3c-1.5,0-2.7-1.2-2.7-2.7v-1.6c-1.5-0.4-3-1.1-4.4-1.8l-1.1,1.1c-0.5,0.5-1.2,0.8-1.9,0.8
			c0,0,0,0,0,0c-0.7,0-1.4-0.3-1.9-0.8l-4.5-4.5c-0.5-0.5-0.8-1.2-0.8-1.9c0-0.7,0.3-1.4,0.8-1.9l1.1-1.1c-0.8-1.4-1.4-2.9-1.8-4.4
			H3.1c-1.5,0-2.7-1.2-2.7-2.7v-6.3c0-1.5,1.2-2.7,2.7-2.7h1.6c0.4-1.5,1.1-3,1.8-4.4l-1.1-1.1c-0.5-0.5-0.8-1.2-0.8-1.9
			c0-0.7,0.3-1.4,0.8-1.9l4.5-4.5c0.5-0.5,1.2-0.8,1.9-0.8c0,0,0,0,0,0c0.7,0,1.4,0.3,1.9,0.8l1.1,1.1c1.4-0.8,2.9-1.4,4.4-1.8V3.1
			c0-1.5,1.2-2.7,2.7-2.7h6.3c1.5,0,2.7,1.2,2.7,2.7v1.6c1.5,0.4,3,1.1,4.4,1.8l1.1-1.1c0.5-0.5,1.2-0.8,1.9-0.8c0,0,0,0,0,0
			c0.7,0,1.4,0.3,1.9,0.8l4.5,4.5c0.5,0.5,0.8,1.2,0.8,1.9c0,0.7-0.3,1.4-0.8,1.9l-1.1,1.1c0.8,1.4,1.4,2.9,1.8,4.4h1.6
			c1.5,0,2.7,1.2,2.7,2.7v6.3c0,1.5-1.2,2.7-2.7,2.7h-1.6c-0.4,1.5-1,3-1.8,4.4l1.1,1.1c0.5,0.5,0.8,1.2,0.8,1.9
			c0,0.7-0.3,1.4-0.8,1.9l-4.5,4.5c-0.5,0.5-1.2,0.8-1.9,0.8c0,0,0,0,0,0c-0.7,0-1.4-0.3-1.9-0.8l-1.1-1.1c-1.4,0.8-2.9,1.4-4.4,1.8
			v1.6C30.8,48.3,29.6,49.5,28.1,49.5z M14.6,41.7c0.1,0,0.3,0,0.4,0.1c1.6,0.9,3.3,1.7,5.1,2.1c0.4,0.1,0.6,0.4,0.6,0.8v2.2
			c0,0.6,0.5,1.1,1.1,1.1h6.3c0.6,0,1.1-0.5,1.1-1.1v-2.2c0-0.4,0.2-0.7,0.6-0.8c1.8-0.5,3.5-1.2,5.1-2.1c0.3-0.2,0.7-0.1,1,0.1
			l1.5,1.5c0.2,0.2,0.5,0.3,0.8,0.3c0,0,0,0,0,0c0.3,0,0.6-0.1,0.8-0.3l4.5-4.5c0.2-0.2,0.3-0.5,0.3-0.8c0-0.3-0.1-0.6-0.3-0.8
			l-1.5-1.5c-0.3-0.3-0.3-0.7-0.1-1c1-1.6,1.7-3.3,2.1-5.1c0.1-0.4,0.4-0.6,0.8-0.6h2.2c0.6,0,1.1-0.5,1.1-1.1v-6.3
			c0-0.6-0.5-1.1-1.1-1.1h-2.2c-0.4,0-0.7-0.2-0.8-0.6c-0.5-1.8-1.2-3.5-2.1-5.1c-0.2-0.3-0.1-0.7,0.1-1l1.5-1.5
			c0.2-0.2,0.3-0.5,0.3-0.8c0-0.3-0.1-0.6-0.3-0.8L39,6.5c-0.2-0.2-0.5-0.3-0.8-0.3c0,0,0,0,0,0c-0.3,0-0.6,0.1-0.8,0.3l-1.5,1.5
			c-0.3,0.3-0.7,0.3-1,0.1c-1.6-0.9-3.3-1.7-5.1-2.1c-0.4-0.1-0.6-0.4-0.6-0.8V3.1c0-0.6-0.5-1.1-1.1-1.1h-6.3
			c-0.6,0-1.1,0.5-1.1,1.1v2.2c0,0.4-0.2,0.7-0.6,0.8c-1.8,0.5-3.5,1.2-5.1,2.1c-0.3,0.2-0.7,0.1-1-0.1l-1.5-1.5
			c-0.2-0.2-0.5-0.3-0.8-0.3c0,0,0,0,0,0c-0.3,0-0.6,0.1-0.8,0.3L6.5,11c-0.2,0.2-0.3,0.5-0.3,0.8c0,0.3,0.1,0.6,0.3,0.8l1.5,1.5
			c0.3,0.3,0.3,0.7,0.1,1c-0.9,1.6-1.7,3.3-2.1,5.1c-0.1,0.4-0.4,0.6-0.8,0.6H3.1c-0.6,0-1.1,0.5-1.1,1.1v6.3c0,0.6,0.5,1.1,1.1,1.1
			h2.2c0.4,0,0.7,0.2,0.8,0.6c0.5,1.8,1.2,3.5,2.1,5.1c0.2,0.3,0.1,0.7-0.1,1l-1.5,1.5c-0.2,0.2-0.3,0.5-0.3,0.8
			c0,0.3,0.1,0.6,0.3,0.8l4.5,4.5c0.2,0.2,0.5,0.3,0.8,0.3c0,0,0,0,0,0c0.3,0,0.6-0.1,0.8-0.3l1.5-1.5
			C14.2,41.8,14.4,41.7,14.6,41.7z M20,5.3L20,5.3L20,5.3z"/>
	</g>
	<g>
		<path class="st0" d="M25,41c-8.8,0-16-7.2-16-16c0-8.8,7.2-16,16-16s16,7.2,16,16C41,33.8,33.8,41,25,41z M25,10.6
			c-7.9,0-14.4,6.4-14.4,14.4S17.1,39.4,25,39.4S39.4,32.9,39.4,25S32.9,10.6,25,10.6z"/>
	</g>
	<g>
		<path class="st0" d="M18.7,29.9c-0.2,0-0.4-0.1-0.5-0.2l-5-4.1c-0.2-0.2-0.3-0.4-0.3-0.6c0-0.2,0.1-0.5,0.3-0.6l5-4.1
			c0.3-0.3,0.8-0.2,1.1,0.1c0.3,0.3,0.2,0.8-0.1,1.1L14.9,25l4.3,3.5c0.3,0.3,0.4,0.8,0.1,1.1C19.2,29.8,18.9,29.9,18.7,29.9z"/>
	</g>
	<g>
		<path class="st0" d="M23.5,29.9c-0.1,0-0.2,0-0.3,0c-0.4-0.1-0.6-0.6-0.5-1l2.9-8.1c0.1-0.4,0.6-0.6,1-0.5c0.4,0.1,0.6,0.6,0.5,1
			l-2.9,8.1C24.2,29.7,23.9,29.9,23.5,29.9z"/>
	</g>
	<g>
		<path class="st0" d="M31.3,29.9c-0.2,0-0.5-0.1-0.6-0.3c-0.3-0.3-0.2-0.8,0.1-1.1l4.3-3.5l-4.3-3.5c-0.3-0.3-0.4-0.8-0.1-1.1
			c0.3-0.3,0.8-0.4,1.1-0.1l5,4.1c0.2,0.2,0.3,0.4,0.3,0.6c0,0.2-0.1,0.5-0.3,0.6l-5,4.1C31.6,29.8,31.5,29.9,31.3,29.9z"/>
	</g>
	<g>
		<path class="st0" d="M44.4,25.8c-0.2,0-0.5-0.1-0.6-0.3l0,0c-0.3-0.4-0.2-0.9,0.2-1.1c0.4-0.3,0.9-0.2,1.1,0.2
			c0.3,0.4,0.2,0.9-0.2,1.1C44.7,25.8,44.6,25.8,44.4,25.8z"/>
	</g>
	<g>
		<path class="st0" d="M5.6,25.8c-0.3,0-0.6-0.2-0.7-0.4l0,0c-0.2-0.4,0-0.9,0.4-1.1c0.4-0.2,0.9,0,1.1,0.4c0.2,0.4,0,0.9-0.4,1.1
			C5.8,25.8,5.7,25.8,5.6,25.8z"/>
	</g>
	<g>
		<path class="st0" d="M25,45.2c-0.3,0-0.5-0.1-0.7-0.4l0,0c-0.2-0.4-0.1-0.9,0.3-1.1c0.4-0.2,0.9-0.1,1.1,0.3
			c0.2,0.4,0.1,0.9-0.3,1.1C25.3,45.2,25.1,45.2,25,45.2z"/>
	</g>
	<g>
		<path class="st0" d="M25,6.4c-0.3,0-0.5-0.1-0.7-0.4l0,0c-0.2-0.4-0.1-0.9,0.2-1.1c0.4-0.2,0.9-0.1,1.1,0.2
			c0.2,0.4,0.1,0.9-0.2,1.1C25.3,6.3,25.1,6.4,25,6.4z"/>
	</g>
	<g>
		<path class="st0" d="M38.8,11.7c-0.2,0-0.5-0.1-0.6-0.3l0,0c-0.3-0.3-0.2-0.8,0.1-1.1c0.3-0.3,0.8-0.2,1.1,0.1
			c0.3,0.3,0.2,0.8-0.1,1.1C39.2,11.6,39,11.7,38.8,11.7z"/>
	</g>
	<g>
		<path class="st0" d="M11.2,11.7c-0.3,0-0.5-0.1-0.7-0.4l0,0c-0.2-0.4-0.1-0.9,0.3-1.1c0.4-0.2,0.9-0.1,1.1,0.3
			c0.2,0.4,0.1,0.9-0.3,1.1C11.4,11.7,11.3,11.7,11.2,11.7z"/>
	</g>
	<g>
		<path class="st0" d="M38.8,39.9c-0.2,0-0.5-0.1-0.6-0.3l0,0c-0.3-0.3-0.2-0.8,0.1-1.1c0.3-0.3,0.8-0.2,1.1,0.1
			c0.3,0.3,0.2,0.8-0.1,1.1C39.2,39.8,39,39.9,38.8,39.9z"/>
	</g>
	<g>
		<path class="st0" d="M11.2,39.9c-0.3,0-0.5-0.1-0.7-0.4l0,0c-0.2-0.4-0.1-0.9,0.3-1.1c0.4-0.2,0.9-0.1,1.1,0.3
			c0.2,0.4,0.1,0.9-0.3,1.1C11.4,39.9,11.3,39.9,11.2,39.9z"/>
	</g>
</g>
</svg>
