<svg xmlns="http://www.w3.org/2000/svg" width="152.019" height="156.496" viewBox="0 0 152.019 156.496">
  <path id="laravel-icon-red" d="M151.933,35.4a2.477,2.477,0,0,1,.086.64V69.635a2.449,2.449,0,0,1-1.231,2.125L122.594,87.992v32.174a2.455,2.455,0,0,1-1.225,2.125L62.517,156.17a2.631,2.631,0,0,1-.429.178c-.055.018-.107.052-.165.067a2.465,2.465,0,0,1-1.255,0c-.067-.018-.129-.055-.193-.08a2.546,2.546,0,0,1-.4-.165L1.231,122.291A2.452,2.452,0,0,1,0,120.166V19.392a2.5,2.5,0,0,1,.086-.643c.018-.07.061-.135.086-.205a2.414,2.414,0,0,1,.156-.38A2.291,2.291,0,0,1,.5,17.947a2.5,2.5,0,0,1,.217-.285,2.392,2.392,0,0,1,.242-.184,2,2,0,0,1,.269-.211h0L30.649.327a2.455,2.455,0,0,1,2.449,0L62.52,17.267h.006a3,3,0,0,1,.269.208,2.9,2.9,0,0,1,.239.184,2.864,2.864,0,0,1,.22.288,2.259,2.259,0,0,1,.165.217,2.557,2.557,0,0,1,.159.38c.024.07.067.135.086.208a2.477,2.477,0,0,1,.086.64V82.334L88.268,68.217V36.04a2.475,2.475,0,0,1,.086-.637c.021-.073.061-.138.086-.208a2.76,2.76,0,0,1,.159-.38c.046-.08.113-.144.165-.217a2.52,2.52,0,0,1,.22-.285,2.352,2.352,0,0,1,.239-.184,2.473,2.473,0,0,1,.269-.211h0l29.425-16.94a2.452,2.452,0,0,1,2.449,0l29.422,16.94a2.705,2.705,0,0,1,.276.208c.077.061.165.116.236.184a2.866,2.866,0,0,1,.22.288,1.849,1.849,0,0,1,.165.217,2.427,2.427,0,0,1,.159.38,1.751,1.751,0,0,1,.086.208Zm-4.819,32.814V40.284l-10.3,5.927L122.594,54.4V82.334l24.523-14.117Zm-29.422,50.531V90.8L103.7,98.787l-39.953,22.8V149.8ZM4.9,23.632v95.116L58.843,149.8V121.593L30.665,105.645l-.009-.006-.012-.006a115.947,115.947,0,0,0-.5-.38l-.006-.009a2.334,2.334,0,0,1-.2-.257,2.615,2.615,0,0,1-.184-.239l0-.009a1.952,1.952,0,0,1-.129-.306,1.811,1.811,0,0,1-.116-.276v0a2.343,2.343,0,0,1-.049-.358,2.124,2.124,0,0,1-.037-.276V37.749L15.2,29.556,4.9,23.635ZM31.877,5.281,7.363,19.392,31.871,33.5,56.382,19.389,31.871,5.281ZM44.625,93.344l14.221-8.187V23.632l-10.3,5.927-14.224,8.19V99.274Zm75.519-71.411L95.634,36.043l24.511,14.111L144.652,36.04ZM117.692,54.4l-14.224-8.19-10.3-5.927V68.217L107.393,76.4l10.3,5.93Zm-56.4,62.949L97.244,96.825l17.971-10.256-24.492-14.1L62.523,88.7l-25.7,14.8Z" transform="translate(0 0)" fill="#ff2d20"/>
</svg>
