<svg xmlns="http://www.w3.org/2000/svg" width="192.886" height="188.257" viewBox="0 0 192.886 188.257">
  <g id="maintenance-and-support-icon" transform="translate(-1329.478 -210.536)">
    <g id="Group_3740" data-name="Group 3740" transform="translate(1473.394 212.882)">
      <path id="Path_7291" data-name="Path 7291" d="M1579.562,223.92a4.692,4.692,0,1,1,4.692-4.692A4.7,4.7,0,0,1,1579.562,223.92Zm0-7.624a2.932,2.932,0,1,0,2.932,2.932A2.936,2.936,0,0,0,1579.562,216.3Z" transform="translate(-1574.87 -214.536)" fill="#ff8cac"/>
    </g>
    <g id="Group_3741" data-name="Group 3741" transform="translate(1504.672 375.338)">
      <path id="Path_7292" data-name="Path 7292" d="M1632.984,502.184l-4.781-10.643,12.646,1.594Zm-1.892-8.505,2.369,5.274,3.9-4.484Z" transform="translate(-1628.203 -491.541)" fill="#ff8cac"/>
    </g>
    <g id="Group_3742" data-name="Group 3742" transform="translate(1343.097 221.962)">
      <path id="Path_7293" data-name="Path 7293" d="M1370.185,251.057l-6.43-3.273,2.749-6.191-13.8-1.189,11.407-10.385,1.185,1.3L1356.86,239l12.254,1.056-3.074,6.921,4.943,2.516Z" transform="translate(-1352.7 -230.018)" fill="#ff8cac"/>
    </g>
    <g id="Group_3768" data-name="Group 3768" transform="translate(1329.478 261.523)">
      <g id="gear-5-icon" transform="translate(91.842 69.649)">
        <path id="Path_7294" data-name="Path 7294" d="M1498.507,458.215a20.991,20.991,0,0,1-2.935-3.032l-6.61.154-2.883-7.545,5.03-4.294a21.143,21.143,0,0,1,.108-3.764l-4.783-4.569,3.3-7.371,6.6.519a20.832,20.832,0,0,1,2.735-2.589l-.155-6.611,7.542-2.88,4.3,5.028a20.828,20.828,0,0,1,3.763.106l4.569-4.787,7.371,3.3-.523,6.595a20.847,20.847,0,0,1,2.867,3.094l-1.4,1.06a19.079,19.079,0,0,0-2.941-3.106l-.346-.291.5-6.253-5.1-2.283-4.331,4.537-.447-.063a19.116,19.116,0,0,0-4.274-.12l-.45.039-4.073-4.767-5.222,1.995.147,6.268-.362.272a19,19,0,0,0-3.105,2.939l-.291.345-6.252-.493-2.282,5.105,4.534,4.331-.063.447a19.363,19.363,0,0,0-.123,4.278l.037.449-4.766,4.068,2,5.225,6.264-.145.271.359a19.219,19.219,0,0,0,2.943,3.107Zm13.529-5.831a10.212,10.212,0,1,1,3.641-.677A10.138,10.138,0,0,1,1512.035,452.384Zm.011-18.619a8.441,8.441,0,1,0,3.434.738A8.424,8.424,0,0,0,1512.047,433.764Z" transform="translate(-1486.078 -416.233)" fill="#1e0b4b"/>
      </g>
      <path id="gear-5-icon-2" data-name="gear-5-icon" d="M1423.772,442.391l-1.493-3.906-3.938.093a12.213,12.213,0,0,0-1.883-1.988l.311-3.928-3.816-1.707-2.722,2.851a12.172,12.172,0,0,0-2.736-.077l-2.559-3-3.9,1.491.093,3.939a12.091,12.091,0,0,0-1.988,1.881l-3.929-.31-1.706,3.816,2.849,2.721a12.351,12.351,0,0,0-.079,2.737l-3,2.557,1.493,3.906,3.936-.091a12.352,12.352,0,0,0,1.883,1.988l-.309,3.926L1404.1,461l2.722-2.851a12.061,12.061,0,0,0,2.736.077l2.556,3,3.9-1.491-.089-3.939a12.174,12.174,0,0,0,1.988-1.882l3.928.311,1.705-3.818-2.851-2.72a12.068,12.068,0,0,0,.079-2.736Zm-13.216,8.906a5.692,5.692,0,1,1,3.286-7.35A5.69,5.69,0,0,1,1410.556,451.3Z" transform="translate(-1355.861 -352.581)" fill="#f15151"/>
      <g id="Group_3743" data-name="Group 3743" transform="translate(16.064 26.428)">
        <path id="Path_7295" data-name="Path 7295" d="M1520.487,432.8V351.249a.5.5,0,0,0-.5-.5H1451.87v-8.211h71.805a5.023,5.023,0,0,1,5.022,5.023v84.9Z" transform="translate(-1396.155 -342.536)" fill="#f15151"/>
        <path id="Path_7296" data-name="Path 7296" d="M1365.08,462.314V415.8l-8.211-2.206v48.641Z" transform="translate(-1356.87 -371.922)" fill="#f15151"/>
      </g>
      <g id="Group_3748" data-name="Group 3748" transform="translate(14.891 25.255)">
        <g id="Group_3744" data-name="Group 3744" transform="translate(57.475)">
          <path id="Path_7297" data-name="Path 7297" d="M1529.112,433.2h-1.76v-86.76a4.147,4.147,0,0,0-4.143-4.143H1452.87v-1.759h70.339a5.909,5.909,0,0,1,5.9,5.9Z" transform="translate(-1452.87 -340.536)" fill="#1e0b4b"/>
        </g>
        <g id="Group_3745" data-name="Group 3745" transform="translate(0 43.985)">
          <rect id="Rectangle_976" data-name="Rectangle 976" width="1.759" height="48.091" fill="#1e0b4b"/>
        </g>
        <g id="Group_3746" data-name="Group 3746" transform="translate(57.475 7.624)">
          <path id="Path_7298" data-name="Path 7298" d="M1520.9,434.469h-1.759V355.3H1452.87v-1.759h66.649a1.383,1.383,0,0,1,1.382,1.382Z" transform="translate(-1452.87 -353.536)" fill="#1e0b4b"/>
        </g>
        <g id="Group_3747" data-name="Group 3747" transform="translate(8.211 46.331)">
          <rect id="Rectangle_977" data-name="Rectangle 977" width="1.759" height="42.813" fill="#1e0b4b"/>
        </g>
      </g>
      <path id="Path_7299" data-name="Path 7299" d="M1427.306,499.536a5.866,5.866,0,0,1-4.261,1.173h-7.916c-1.826.371-4.261-1.173-4.261-1.173h-63v.725a8.658,8.658,0,0,0,8.658,8.659h122.85a8.659,8.659,0,0,0,8.659-8.659v-.725Z" transform="translate(-1337.084 -381.032)" fill="#f15151"/>
      <g id="Group_3749" data-name="Group 3749" transform="translate(30.726 135.511)">
        <rect id="Rectangle_978" data-name="Rectangle 978" width="102.046" height="1.759" fill="#1e0b4b"/>
      </g>
      <g id="Group_3750" data-name="Group 3750" transform="translate(10.786 116.745)">
        <path id="Path_7300" data-name="Path 7300" d="M1480.258,507.679h-122.85a9.549,9.549,0,0,1-9.538-9.538v-1.6h64.148l.242.491a3.963,3.963,0,0,0,3.472,2.441h7.916a3.962,3.962,0,0,0,3.471-2.441l.242-.491H1489.8v1.6A9.549,9.549,0,0,1,1480.258,507.679ZM1349.631,498.3a7.788,7.788,0,0,0,7.777,7.624h122.85a7.787,7.787,0,0,0,7.777-7.624h-59.6a5.652,5.652,0,0,1-4.785,2.932h-7.916a5.651,5.651,0,0,1-4.785-2.932Z" transform="translate(-1347.87 -496.536)" fill="#1e0b4b"/>
      </g>
      <g id="Group_3751" data-name="Group 3751" transform="translate(142.156 126.128)">
        <rect id="Rectangle_979" data-name="Rectangle 979" width="13.489" height="1.759" fill="#1e0b4b"/>
      </g>
      <g id="Group_3752" data-name="Group 3752" transform="translate(4.921 126.128)">
        <rect id="Rectangle_980" data-name="Rectangle 980" width="17.008" height="1.759" fill="#1e0b4b"/>
      </g>
      <g id="Group_3753" data-name="Group 3753">
        <path id="Path_7301" data-name="Path 7301" d="M1385.886,368.667a22.123,22.123,0,0,1-8.243-1.575,22.8,22.8,0,0,1-6.645-4.07,33.552,33.552,0,0,1-8.231,1.03,33.255,33.255,0,0,1-33.027-29.277,29.529,29.529,0,0,1-.262-4.011,33.289,33.289,0,1,1,58.035,22.284,13.444,13.444,0,0,0-.208,5.081,13.755,13.755,0,0,0,4.631,8.3l1.288,1.1-1.637.425A22.935,22.935,0,0,1,1385.886,368.667Zm-14.416-7.59.355.325a21.11,21.11,0,0,0,6.468,4.055,20.741,20.741,0,0,0,11.266,1.133,15.231,15.231,0,0,1-3.7-14.177l.053-.216.15-.165a31.534,31.534,0,1,0-54.821-21.269,27.881,27.881,0,0,0,.247,3.789A31.527,31.527,0,0,0,1371,361.2Z" transform="translate(-1329.478 -297.474)" fill="#2f5bea"/>
      </g>
      <g id="Group_3763" data-name="Group 3763" transform="translate(8.563 0.13)">
        <g id="Group_3754" data-name="Group 3754" transform="translate(5.102)">
          <path id="Path_7302" data-name="Path 7302" d="M1353.247,336.43a33.46,33.46,0,0,1-.464-6.139c.228-13.9,8.84-27.547,20.48-32.446l.357-.15.352.161c5.379,2.474,9.827,8.726,13.075,13.29l-1.412,1.05-.021-.029c-3.06-4.3-7.222-10.151-12.029-12.545-10.672,4.705-18.832,17.82-19.042,30.7a31.645,31.645,0,0,0,.44,5.815Z" transform="translate(-1352.778 -297.695)" fill="#2f5bea"/>
        </g>
        <g id="Group_3755" data-name="Group 3755" transform="translate(13.533 30.475)">
          <path id="Path_7303" data-name="Path 7303" d="M1378.529,385.348l-.352-.161c-3.342-1.537-6.318-5.13-8.943-8.3-.734-.885-1.427-1.722-2.079-2.452l1.313-1.172c.673.755,1.376,1.6,2.121,2.5,2.409,2.908,5.126,6.19,7.978,7.656,10.54-4.658,18.6-17.9,18.816-31.008.015-.879-.008-1.766-.066-2.636l1.756-.117c.061.918.084,1.854.069,2.782-.231,14.138-8.75,27.914-20.256,32.757Z" transform="translate(-1367.155 -349.659)" fill="#2f5bea"/>
        </g>
        <g id="Group_3756" data-name="Group 3756" transform="translate(24.093 0.479)">
          <rect id="Rectangle_981" data-name="Rectangle 981" width="61.588" height="1.76" transform="translate(0 61.58) rotate(-89.068)" fill="#2f5bea"/>
        </g>
        <g id="Group_3757" data-name="Group 3757" transform="translate(48.062 14.001)">
          <path id="Path_7304" data-name="Path 7304" d="M1427.266,324.551l-1.236-1.252c.56-.552,1.106-1.134,1.625-1.73l1.327,1.155C1428.434,323.353,1427.857,323.968,1427.266,324.551Z" transform="translate(-1426.03 -321.569)" fill="#2f5bea"/>
        </g>
        <g id="Group_3758" data-name="Group 3758" transform="translate(0.805 13.889)">
          <path id="Path_7305" data-name="Path 7305" d="M1370.618,334.054c-.185,0-.369,0-.554,0a33.257,33.257,0,0,1-24.612-11.524l1.332-1.149a31.5,31.5,0,0,0,31.653,9.935l.437,1.7A33.249,33.249,0,0,1,1370.618,334.054Z" transform="translate(-1345.452 -321.377)" fill="#2f5bea"/>
        </g>
        <g id="Group_3759" data-name="Group 3759" transform="translate(0 52.227)">
          <path id="Path_7306" data-name="Path 7306" d="M1345.348,389.685l-1.268-1.219c.565-.588,1.164-1.167,1.778-1.719l1.175,1.31C1346.45,388.58,1345.883,389.128,1345.348,389.685Z" transform="translate(-1344.079 -386.747)" fill="#2f5bea"/>
        </g>
        <g id="Group_3760" data-name="Group 3760" transform="translate(17.875 43.741)">
          <path id="Path_7307" data-name="Path 7307" d="M1404.714,384.163a34.815,34.815,0,0,0-23.566-10.122,31.47,31.47,0,0,0-6.271.52l-.32-1.729a33.6,33.6,0,0,1,6.62-.55,36.664,36.664,0,0,1,24.811,10.669Z" transform="translate(-1374.557 -372.278)" fill="#2f5bea"/>
        </g>
        <g id="Group_3761" data-name="Group 3761" transform="translate(35.758 15.477)">
          <path id="Path_7308" data-name="Path 7308" d="M1411.566,337.111h-.109a6.531,6.531,0,1,1,.109,0Zm0-11.266a4.751,4.751,0,1,0,.08,0Z" transform="translate(-1405.051 -324.085)" fill="#ff8cac"/>
        </g>
        <g id="Group_3762" data-name="Group 3762" transform="translate(2.892 40.735)">
          <path id="Path_7309" data-name="Path 7309" d="M1355.526,380.179h-.109a6.559,6.559,0,1,1,.109,0Zm0-11.266a4.753,4.753,0,0,0-.077,9.506,4.753,4.753,0,0,0,4.831-4.675,4.758,4.758,0,0,0-4.675-4.831Z" transform="translate(-1349.01 -367.153)" fill="#ff8cac"/>
        </g>
      </g>
      <g id="Group_3764" data-name="Group 3764" transform="translate(73.539 48.127)">
        <rect id="Rectangle_982" data-name="Rectangle 982" width="51.023" height="1.759" fill="#ff8cac"/>
      </g>
      <g id="Group_3765" data-name="Group 3765" transform="translate(73.539 57.51)">
        <rect id="Rectangle_983" data-name="Rectangle 983" width="51.023" height="1.759" fill="#ff8cac"/>
      </g>
      <g id="Group_3766" data-name="Group 3766" transform="translate(73.539 66.894)">
        <rect id="Rectangle_984" data-name="Rectangle 984" width="22.872" height="1.759" fill="#ff8cac"/>
      </g>
      <g id="Group_3767" data-name="Group 3767" transform="translate(22.516 135.511)">
        <rect id="Rectangle_985" data-name="Rectangle 985" width="4.105" height="1.759" fill="#1e0b4b"/>
      </g>
    </g>
    <g id="Group_3778" data-name="Group 3778" transform="translate(1384.836 210.536)">
      <g id="Group_3773" data-name="Group 3773" transform="translate(0 19.354)">
        <g id="Group_3769" data-name="Group 3769">
          <path id="Path_7310" data-name="Path 7310" d="M1489.555,292.8h-48.677V291.04H1487.8V245.3h-62.166v31.083h-1.76V243.536h65.685Z" transform="translate(-1423.87 -243.536)" fill="#ff8cac"/>
        </g>
        <g id="Group_3770" data-name="Group 3770" transform="translate(40.725 25.984)">
          <rect id="Rectangle_986" data-name="Rectangle 986" width="1.759" height="23.767" transform="translate(0 1.244) rotate(-45)" fill="#ff8cac"/>
        </g>
        <g id="Group_3771" data-name="Group 3771" transform="translate(8.376 25.537)">
          <rect id="Rectangle_987" data-name="Rectangle 987" width="17.99" height="1.759" transform="translate(0 12.52) rotate(-44.103)" fill="#ff8cac"/>
        </g>
        <g id="Group_3772" data-name="Group 3772" transform="translate(10.469 5.607)">
          <path id="Path_7311" data-name="Path 7311" d="M1462.793,279.616h-.051a3.416,3.416,0,0,1-2.417-1.043l-18.605-19.266,1.266-1.222,18.6,19.265a1.671,1.671,0,0,0,1.179.507,1.59,1.59,0,0,0,1.195-.475l24.946-24.286,1.227,1.261-24.947,24.286A3.416,3.416,0,0,1,1462.793,279.616Z" transform="translate(-1441.72 -253.096)" fill="#1e0b4b"/>
        </g>
      </g>
      <g id="Group_3777" data-name="Group 3777" transform="translate(11.835)">
        <g id="Group_3774" data-name="Group 3774" transform="translate(18.662)">
          <rect id="Rectangle_988" data-name="Rectangle 988" width="1.759" height="7.038" fill="#ff8cac"/>
        </g>
        <g id="Group_3775" data-name="Group 3775" transform="translate(0 4.614)">
          <rect id="Rectangle_989" data-name="Rectangle 989" width="1.759" height="7.356" transform="matrix(0.777, -0.63, 0.63, 0.777, 0, 1.108)" fill="#ff8cac"/>
        </g>
        <g id="Group_3776" data-name="Group 3776" transform="translate(33.007 4.614)">
          <rect id="Rectangle_990" data-name="Rectangle 990" width="7.356" height="1.759" transform="matrix(0.63, -0.777, 0.777, 0.63, 0, 5.714)" fill="#ff8cac"/>
        </g>
      </g>
    </g>
    <g id="Group_3780" data-name="Group 3780" transform="translate(1482.964 310.659)">
      <path id="Path_7312" data-name="Path 7312" d="M1610.1,424.6l-9.973-9.988,3.574-3.578,6.4,6.408,11.912-11.929,3.574,3.578Z" transform="translate(-1594.886 -391.288)" fill="#f15151"/>
      <g id="Group_3779" data-name="Group 3779" transform="translate(0)">
        <path id="Path_7313" data-name="Path 7313" d="M1607.964,426.573a23.048,23.048,0,0,1-3.8-.317,22.485,22.485,0,0,1-12.979-7.036l1.3-1.189a20.888,20.888,0,1,0,.2-28.471l-1.277-1.209a22.676,22.676,0,1,1,16.557,38.223Z" transform="translate(-1591.188 -381.256)" fill="#ff8cac"/>
      </g>
    </g>
    <g id="Group_3785" data-name="Group 3785" transform="translate(1471.048 235.167)">
      <g id="Group_3781" data-name="Group 3781" transform="translate(0)">
        <path id="Path_7314" data-name="Path 7314" d="M1587.27,299.532l.115-10.049H1570.87V252.536h46.918v36.948h-11.143v-1.759h9.384V254.3h-43.4v33.429h16.535l-.093,8.132,9.753-7.741,1.094,1.378Z" transform="translate(-1570.87 -252.536)" fill="#ff8cac"/>
      </g>
      <g id="Group_3782" data-name="Group 3782" transform="translate(22.286 6.564)">
        <path id="Path_7315" data-name="Path 7315" d="M1610.629,281.8h-1.759v-5.233h.88a5.538,5.538,0,1,0,0-11.076v-1.759a7.3,7.3,0,0,1,.88,14.542Z" transform="translate(-1608.87 -263.728)" fill="#1e0b4b"/>
      </g>
      <g id="Group_3783" data-name="Group 3783" transform="translate(15.728 6.564)">
        <path id="Path_7316" data-name="Path 7316" d="M1599.448,271.025h-1.76a7.306,7.306,0,0,1,7.3-7.3v1.759A5.544,5.544,0,0,0,1599.448,271.025Z" transform="translate(-1597.688 -263.728)" fill="#1e0b4b"/>
      </g>
      <g id="Group_3784" data-name="Group 3784" transform="translate(22.286 27.564)">
        <rect id="Rectangle_991" data-name="Rectangle 991" width="1.759" height="2.932" fill="#1e0b4b"/>
      </g>
    </g>
    <g id="Group_3786" data-name="Group 3786" transform="translate(1497.439 280.326)">
      <path id="Path_7317" data-name="Path 7317" d="M1617.629,355.341h-1.759v-2.346h1.759Zm0-4.692h-1.759V348.3h1.759Zm0-4.692h-1.759v-2.346h1.759Zm0-4.692h-1.759V338.92h1.759Zm0-4.692h-1.759v-2.346h1.759Zm0-4.692h-1.759v-2.346h1.759Z" transform="translate(-1615.87 -329.536)" fill="#1e0b4b"/>
    </g>
    <g id="Group_3787" data-name="Group 3787" transform="translate(1454.04 255.694)">
      <path id="Path_7318" data-name="Path 7318" d="M1553.6,289.3h-2.346v-1.759h2.346Zm-4.692,0h-2.346v-1.759h2.346Zm-4.692,0h-2.346v-1.759h2.346Z" transform="translate(-1541.87 -287.536)" fill="#1e0b4b"/>
    </g>
  </g>
</svg>
