<svg xmlns="http://www.w3.org/2000/svg" width="59.618" height="102.795" viewBox="0 0 59.618 102.795">
  <g id="migrate-app-react" transform="translate(-30.362 -6)">
    <g id="Group_3859" data-name="Group 3859" transform="translate(33.907 9.545)">
      <rect id="Rectangle_985" data-name="Rectangle 985" width="56.073" height="99.251" rx="8.036" transform="translate(0)" fill="#fcfeff"/>
    </g>
    <g id="Group_3869" data-name="Group 3869" transform="translate(30.362 6)">
      <g id="Group_3862" data-name="Group 3862" transform="translate(0.887 0.886)">
        <rect id="Rectangle_986" data-name="Rectangle 986" width="54.3" height="97.479" rx="7.035" transform="translate(0)" fill="#2f5bea"/>
        <rect id="Rectangle_987" data-name="Rectangle 987" width="54.3" height="75.021" transform="translate(0 9.242)" fill="#f1f6fb"/>
        <g id="Group_3860" data-name="Group 3860" transform="translate(0 9.242)">
          <rect id="Rectangle_988" data-name="Rectangle 988" width="54.3" height="2.659" transform="translate(0 0)" fill="#fff"/>
        </g>
        <rect id="Rectangle_989" data-name="Rectangle 989" width="16.951" height="2.011" rx="1.006" transform="translate(18.675 3.709)" fill="#aec1ff"/>
        <path id="Path_7782" data-name="Path 7782" d="M75.961,11.075a1.1,1.1,0,1,0,1.1,1.1A1.1,1.1,0,0,0,75.961,11.075Z" transform="translate(-36.314 -7.464)" fill="#aec1ff"/>
        <rect id="Rectangle_990" data-name="Rectangle 990" width="14.652" height="4.884" rx="2.442" transform="translate(19.824 87.866)" fill="#aec1ff"/>
        <g id="Group_3861" data-name="Group 3861" transform="translate(4.978 16.354)">
          <path id="Path_7783" data-name="Path 7783" d="M53.055,44.107v.035a2.036,2.036,0,0,1-2.845,1.868L38.74,41.038a2.922,2.922,0,0,1-1.76-2.681v-.031a2.919,2.919,0,0,1,1.76-2.68L50.21,30.675a2.035,2.035,0,0,1,2.845,1.867V32.6a2.035,2.035,0,0,1-1.3,1.9l-9.9,3.813,9.912,3.9A2.036,2.036,0,0,1,53.055,44.107Z" transform="translate(-36.98 -26.029)" fill="#f15151"/>
          <path id="Path_7784" data-name="Path 7784" d="M64.4,25.508A1.892,1.892,0,0,0,62.116,26.9L57.072,47.744a1.891,1.891,0,1,0,3.677.889l5.044-20.842A1.893,1.893,0,0,0,64.4,25.508Z" transform="translate(-39.261 -25.454)" fill="#f15151"/>
          <path id="Path_7785" data-name="Path 7785" d="M83.2,41l-11.472,5a2.036,2.036,0,0,1-2.848-1.866V44.1a2.036,2.036,0,0,1,1.292-1.895l9.942-3.9L70.18,34.458a2.036,2.036,0,0,1-1.3-1.9h0a2.035,2.035,0,0,1,2.842-1.869l11.47,4.947a2.921,2.921,0,0,1,1.763,2.682h0A2.921,2.921,0,0,1,83.2,41Z" transform="translate(-40.611 -26.031)" fill="#f15151"/>
        </g>
      </g>
      <g id="Group_3868" data-name="Group 3868">
        <g id="Group_3863" data-name="Group 3863" transform="translate(26.275 46.081)">
          <path id="Path_7786" data-name="Path 7786" d="M66.931,59.772H60.9A.886.886,0,1,1,60.9,58h6.033a.886.886,0,1,1,0,1.772Z" transform="translate(-60.012 -58)" fill="#f15151"/>
        </g>
        <g id="Group_3864" data-name="Group 3864" transform="translate(6.041 46.081)">
          <path id="Path_7787" data-name="Path 7787" d="M52.982,59.772H38.065a.886.886,0,1,1,0-1.772H52.982a.886.886,0,1,1,0,1.772Z" transform="translate(-37.179 -58)" fill="#f15151"/>
        </g>
        <g id="Group_3865" data-name="Group 3865">
          <path id="Path_7788" data-name="Path 7788" d="M31.248,53.266a.886.886,0,0,0,.886-.886V45.219a.886.886,0,1,0-1.772,0V52.38A.886.886,0,0,0,31.248,53.266Z" transform="translate(-30.362 -10.364)" fill="#1e0b4b"/>
          <path id="Path_7789" data-name="Path 7789" d="M79.314,6H37.483a7.129,7.129,0,0,0-7.121,7.121V36.573a.886.886,0,0,0,1.772,0V17.014H84.663V90.262H32.134V52.3a.886.886,0,1,0-1.772,0V98.13a7.129,7.129,0,0,0,7.121,7.121H79.314a7.13,7.13,0,0,0,7.121-7.121V13.121A7.13,7.13,0,0,0,79.314,6Zm-47.18,9.242V13.121a5.355,5.355,0,0,1,5.349-5.349H79.314a5.355,5.355,0,0,1,5.349,5.349v2.121Zm47.18,88.237H37.483a5.355,5.355,0,0,1-5.349-5.349v-6.1H84.663v6.1A5.355,5.355,0,0,1,79.314,103.479Z" transform="translate(-30.362 -6)" fill="#1e0b4b"/>
          <path id="Path_7790" data-name="Path 7790" d="M53.828,32.429a2.921,2.921,0,0,0-4.083-2.681L38.274,34.719a3.832,3.832,0,0,0,0,7.018l11.471,4.971a2.921,2.921,0,0,0,4.083-2.681v-.035a2.9,2.9,0,0,0-1.852-2.719l-7.794-3.069,7.774-3A2.956,2.956,0,0,0,53.828,32.429Zm-2.509,1.128-9.9,3.813a.887.887,0,0,0-.006,1.652l9.911,3.9a1.141,1.141,0,0,1,.728,1.07v.035a1.149,1.149,0,0,1-1.607,1.055L38.978,40.112a2.06,2.06,0,0,1,0-3.766l11.471-4.971a1.164,1.164,0,0,1,.461-.1,1.14,1.14,0,0,1,.627.191,1.195,1.195,0,0,1-.218,2.089Z" transform="translate(-31.002 -8.676)" fill="#1e0b4b"/>
          <path id="Path_7791" data-name="Path 7791" d="M64.5,24.533a2.778,2.778,0,0,0-3.354,2.047L56.1,47.421a2.781,2.781,0,0,0,2.048,3.354,2.811,2.811,0,0,0,.653.077,2.769,2.769,0,0,0,2.7-2.124L66.54,27.886A2.779,2.779,0,0,0,64.5,24.533Zm.322,2.936L59.774,48.31a1.02,1.02,0,0,1-1.214.741,1.007,1.007,0,0,1-.741-1.213L62.864,27a1,1,0,0,1,.455-.623.991.991,0,0,1,.519-.147.977.977,0,0,1,.237.029h0a1.006,1.006,0,0,1,.741,1.213Z" transform="translate(-33.282 -8.101)" fill="#1e0b4b"/>
          <path id="Path_7792" data-name="Path 7792" d="M85.727,38.208a3.8,3.8,0,0,0-2.3-3.5l-11.47-4.947a2.922,2.922,0,1,0-2.211,5.407l7.812,3.023-7.825,3.072a2.935,2.935,0,1,0,2.234,5.427l11.472-5A3.808,3.808,0,0,0,85.727,38.208Zm-3,1.865-11.472,5a1.127,1.127,0,0,1-1.089-.093,1.173,1.173,0,0,1,.21-2.059l9.942-3.9a.886.886,0,0,0,0-1.651l-9.931-3.842a1.159,1.159,0,0,1-.736-1.072A1.155,1.155,0,0,1,70.8,31.295a1.151,1.151,0,0,1,.459.1l11.469,4.948a2.034,2.034,0,0,1,.007,3.733Z" transform="translate(-34.633 -8.678)" fill="#1e0b4b"/>
          <path id="Path_7793" data-name="Path 7793" d="M84.419,65H74.4a.886.886,0,0,0,0,1.772H84.419a.886.886,0,0,0,0-1.772Z" transform="translate(-35.274 -12.716)" fill="#1e0b4b"/>
          <path id="Path_7794" data-name="Path 7794" d="M45.065,66.772H66.48a.886.886,0,0,0,0-1.772H45.065a.886.886,0,0,0,0,1.772Z" transform="translate(-31.935 -12.716)" fill="#1e0b4b"/>
          <path id="Path_7795" data-name="Path 7795" d="M83.177,72H63.486a.886.886,0,0,0,0,1.772H83.177a.886.886,0,0,0,0-1.772Z" transform="translate(-34.032 -13.513)" fill="#1e0b4b"/>
          <path id="Path_7796" data-name="Path 7796" d="M45.065,73.772H55.994a.886.886,0,0,0,0-1.772H45.065a.886.886,0,0,0,0,1.772Z" transform="translate(-31.935 -13.513)" fill="#1e0b4b"/>
          <path id="Path_7797" data-name="Path 7797" d="M81.08,79H45.065a.886.886,0,0,0,0,1.772H81.08a.886.886,0,0,0,0-1.772Z" transform="translate(-31.935 -14.31)" fill="#1e0b4b"/>
          <path id="Path_7798" data-name="Path 7798" d="M84.81,86H77.831a.886.886,0,0,0,0,1.772H84.81a.886.886,0,0,0,0-1.772Z" transform="translate(-35.665 -15.107)" fill="#1e0b4b"/>
          <path id="Path_7799" data-name="Path 7799" d="M45.065,86a.886.886,0,0,0,0,1.772H69.656a.886.886,0,0,0,0-1.772Z" transform="translate(-31.935 -15.107)" fill="#1e0b4b"/>
        </g>
        <g id="Group_3866" data-name="Group 3866" transform="translate(23.173 77.097)">
          <path id="Path_7800" data-name="Path 7800" d="M66.533,94.772H57.4A.886.886,0,1,1,57.4,93h9.135a.886.886,0,0,1,0,1.772Z" transform="translate(-56.512 -93)" fill="#f15151"/>
        </g>
        <g id="Group_3867" data-name="Group 3867" transform="translate(6.041 77.097)">
          <path id="Path_7801" data-name="Path 7801" d="M51.653,94.772H38.065a.886.886,0,0,1,0-1.772H51.653a.886.886,0,0,1,0,1.772Z" transform="translate(-37.179 -93)" fill="#f15151"/>
        </g>
      </g>
    </g>
  </g>
</svg>
