<svg xmlns="http://www.w3.org/2000/svg" width="96" height="116.666" viewBox="0 0 96 116.666">
  <g id="mobile-app-development-icon" transform="translate(-16 -5.667)">
    <g id="Group_3822" data-name="Group 3822">
      <path id="Path_7733" data-name="Path 7733" d="M107,46.333h-5V41.994a3.049,3.049,0,0,0-3.045-3.045H94.818a29.289,29.289,0,0,0-3.695-8.906l2.929-2.93a3.047,3.047,0,0,0,0-4.306l-5.193-5.193a3.049,3.049,0,0,0-4.306,0l-2.929,2.93a29.249,29.249,0,0,0-8.907-3.695V12.712a3.048,3.048,0,0,0-3.045-3.045H62.328a3.048,3.048,0,0,0-3.045,3.045v4.137a29.259,29.259,0,0,0-8.907,3.695l-2.929-2.93a3.049,3.049,0,0,0-4.306,0l-5.193,5.193a3.047,3.047,0,0,0,0,4.306l2.929,2.93a29.293,29.293,0,0,0-3.695,8.906H33.045A3.049,3.049,0,0,0,30,41.994v4.339H25a5.006,5.006,0,0,0-5,5v66a5.006,5.006,0,0,0,5,5h82a5.006,5.006,0,0,0,5-5v-66A5.006,5.006,0,0,0,107,46.333Zm-56.733-.666a15.733,15.733,0,0,1,31.466,0c0,.225-.024.443-.034.666H50.3C50.291,46.11,50.267,45.892,50.267,45.667Z" fill="#fcfeff"/>
    </g>
    <g id="Group_3826" data-name="Group 3826">
      <path id="Path_7734" data-name="Path 7734" d="M45.351,43.333c-.054-.548-.084-1.1-.084-1.666a16.733,16.733,0,1,1,33.466,0c0,.562-.03,1.118-.084,1.666H97V37.995a2.046,2.046,0,0,0-2.045-2.046H90.013a28.418,28.418,0,0,0-4.167-10.043l3.5-3.5a2.045,2.045,0,0,0,0-2.893l-5.193-5.193a2.046,2.046,0,0,0-2.892,0l-3.5,3.5a28.423,28.423,0,0,0-10.044-4.167V8.712a2.045,2.045,0,0,0-2.045-2.045H58.328a2.045,2.045,0,0,0-2.045,2.045v4.942a28.43,28.43,0,0,0-10.044,4.167l-3.5-3.5a2.046,2.046,0,0,0-2.892,0l-5.193,5.193a2.045,2.045,0,0,0,0,2.893l3.5,3.5a28.4,28.4,0,0,0-4.166,10.043H29.045A2.046,2.046,0,0,0,27,37.995v5.338Z" fill="#f15151"/>
      <g id="Group_3825" data-name="Group 3825">
        <rect id="Rectangle_971" data-name="Rectangle 971" width="90" height="74" rx="4" transform="translate(17 43.333)" fill="#ede8f9"/>
        <g id="Group_3823" data-name="Group 3823">
          <path id="Path_7735" data-name="Path 7735" d="M103,114.333H21a4,4,0,0,1-4-4v3a4,4,0,0,0,4,4h82a4,4,0,0,0,4-4v-3A4,4,0,0,1,103,114.333Z" fill="#fff"/>
        </g>
        <rect id="Rectangle_972" data-name="Rectangle 972" width="32" height="28.833" rx="2" transform="translate(27.167 78.666)" fill="#f15151"/>
        <path id="Path_7736" data-name="Path 7736" d="M94.5,67.833h-65a2.833,2.833,0,0,0,0,5.667h65a2.833,2.833,0,0,0,0-5.667Z" fill="#2f5bea"/>
        <path id="Path_7737" data-name="Path 7737" d="M103,43.333H21a4,4,0,0,0-4,4v10.5h90v-10.5A4,4,0,0,0,103,43.333Z" fill="#2f5bea"/>
        <path id="Path_7738" data-name="Path 7738" d="M85.667,48.416A2.333,2.333,0,1,0,88,50.75,2.334,2.334,0,0,0,85.667,48.416Z" fill="#fff"/>
        <path id="Path_7739" data-name="Path 7739" d="M92.667,48.416A2.333,2.333,0,1,0,95,50.75,2.334,2.334,0,0,0,92.667,48.416Z" fill="#d4fbff"/>
        <path id="Path_7740" data-name="Path 7740" d="M99.667,48.416A2.333,2.333,0,1,0,102,50.75,2.334,2.334,0,0,0,99.667,48.416Z" fill="#fa759e"/>
        <g id="Group_3824" data-name="Group 3824">
          <path id="Path_7741" data-name="Path 7741" d="M96.833,78.833H66.166a1,1,0,0,0,0,2H96.833a1,1,0,0,0,0-2Z" fill="#3a2c60"/>
          <path id="Path_7742" data-name="Path 7742" d="M96.833,87.833H66.166a1,1,0,0,0,0,2H96.833a1,1,0,0,0,0-2Z" fill="#3a2c60"/>
          <path id="Path_7743" data-name="Path 7743" d="M96.833,96.833H66.166a1,1,0,0,0,0,2H96.833a1,1,0,0,0,0-2Z" fill="#3a2c60"/>
          <path id="Path_7744" data-name="Path 7744" d="M96.833,105.833H66.166a1,1,0,0,0,0,2H96.833a1,1,0,0,0,0-2Z" fill="#3a2c60"/>
          <path id="Path_7745" data-name="Path 7745" d="M40.25,56.833H31.5a1,1,0,0,0,0,2h8.75a1,1,0,0,0,0-2Z" fill="#3a2c60"/>
          <path id="Path_7746" data-name="Path 7746" d="M103,42.333H98V37.995a3.049,3.049,0,0,0-3.045-3.046H90.818a29.279,29.279,0,0,0-3.695-8.906l2.929-2.929a3.044,3.044,0,0,0,0-4.306l-5.193-5.194a3.118,3.118,0,0,0-4.306,0l-2.929,2.93a29.249,29.249,0,0,0-8.907-3.7V8.712a3.048,3.048,0,0,0-3.045-3.045H58.328a3.048,3.048,0,0,0-3.045,3.045v4.137a29.259,29.259,0,0,0-8.907,3.7l-2.929-2.93a3.049,3.049,0,0,0-4.306,0l-5.193,5.194a3.043,3.043,0,0,0,0,4.305l2.929,2.93a29.293,29.293,0,0,0-3.695,8.906H29.045A3.049,3.049,0,0,0,26,37.995v4.338H21a5.006,5.006,0,0,0-5,5v66a5.006,5.006,0,0,0,5,5h82a5.006,5.006,0,0,0,5-5v-66A5.006,5.006,0,0,0,103,42.333ZM28,37.995a1.047,1.047,0,0,1,1.045-1.046h4.942a1,1,0,0,0,.98-.8,27.345,27.345,0,0,1,4.021-9.69,1,1,0,0,0-.127-1.259l-3.5-3.5a1.044,1.044,0,0,1,0-1.476l5.193-5.194a1.045,1.045,0,0,1,1.478,0l3.5,3.5a1,1,0,0,0,1.259.127,27.3,27.3,0,0,1,9.69-4.02,1,1,0,0,0,.8-.981V8.712a1.046,1.046,0,0,1,1.045-1.045h7.344a1.046,1.046,0,0,1,1.045,1.045v4.942a1,1,0,0,0,.8.981,27.272,27.272,0,0,1,9.689,4.02,1,1,0,0,0,1.26-.127l3.5-3.5a1.072,1.072,0,0,1,1.477,0l5.193,5.194a1.044,1.044,0,0,1,0,1.477l-3.5,3.5a1,1,0,0,0-.127,1.259,27.323,27.323,0,0,1,4.021,9.69,1,1,0,0,0,.98.8h4.942A1.047,1.047,0,0,1,96,37.995v4.338H79.7c.01-.223.034-.441.034-.666a17.733,17.733,0,1,0-35.466,0c0,.225.024.443.034.666H28Zm18.3,4.338c-.01-.223-.036-.441-.036-.666a15.733,15.733,0,1,1,31.466,0c0,.225-.026.443-.036.666Zm56.7,74H21a3,3,0,0,1-3-3v-54.5h8.666a1,1,0,0,0,0-2H18v-9.5a3,3,0,0,1,3-3h82a3,3,0,0,1,3,3v9.5H45.267a1,1,0,1,0,0,2H106v54.5A3,3,0,0,1,103,116.333Z" fill="#1e0b4b"/>
        </g>
      </g>
    </g>
  </g>
</svg>
