<svg xmlns="http://www.w3.org/2000/svg" width="112.464" height="104.594" viewBox="0 0 112.464 104.594">
  <g id="multiple-languages" transform="translate(-440.275 -567.66)">
    <g id="Group_3729" data-name="Group 3729" transform="translate(532.747 585.178)">
      <path id="Path_7283" data-name="Path 7283" d="M508.028,648.2l-4.517-2.407,13.661-25.624a10.438,10.438,0,0,0,1.1-6.431l-4.342-28.463a.61.61,0,0,0-.671-.508l-2.085.252a.6.6,0,0,0-.525.513l.683,21.625-5.115.161-.69-21.857,0-.1a5.7,5.7,0,0,1,5.029-5.425l2.087-.253a5.7,5.7,0,0,1,6.344,4.818l4.34,28.463a15.558,15.558,0,0,1-1.641,9.609Z" transform="translate(-503.511 -579.639)" fill="#1e0b4b"/>
    </g>
    <g id="Group_3730" data-name="Group 3730" transform="translate(513.088 613.28)">
      <path id="Path_7284" data-name="Path 7284" d="M494.518,641.409l-1.344-2.177a22.786,22.786,0,0,1-1.576-19.718c1.774-4.488,4.813-7.676,8.628-9.087l4.753-8.916a5,5,0,0,1,6.773-2.06l3.308,1.762a5.013,5.013,0,0,1,2.063,6.773l-7.6,14.265L505,619.844l7.551-14.167-3.112-1.658-5.706,10.706-1.069.29c-2.735.741-4.975,3.008-6.309,6.382a17.5,17.5,0,0,0,1.171,15.148l1.344,2.176Z" transform="translate(-490.067 -598.857)" fill="#1e0b4b"/>
    </g>
    <g id="Group_3731" data-name="Group 3731" transform="translate(508.212 649.053)">
      <path id="Path_7285" data-name="Path 7285" d="M514.248,646.521l-27.515-7.967,4.41-15.234,27.515,7.967Zm-21.176-11.459,17.684,5.118,1.563-5.4-17.684-5.118Z" transform="translate(-486.733 -623.32)" fill="#1e0b4b"/>
    </g>
    <g id="Group_3732" data-name="Group 3732" transform="translate(440.275 585.179)">
      <path id="Path_7286" data-name="Path 7286" d="M455.75,648.2l-13.66-25.624a15.558,15.558,0,0,1-1.641-9.609l4.34-28.463a5.7,5.7,0,0,1,6.342-4.818l2.09.253a5.7,5.7,0,0,1,5.028,5.425l0,.1,0,.1-.686,21.759-5.115-.161.681-21.625a.6.6,0,0,0-.523-.513l-2.09-.251a.611.611,0,0,0-.668.507l-4.34,28.463a10.426,10.426,0,0,0,1.1,6.431l13.661,25.624Z" transform="translate(-440.275 -579.64)" fill="#1e0b4b"/>
    </g>
    <g id="Group_3733" data-name="Group 3733" transform="translate(452.282 613.281)">
      <path id="Path_7287" data-name="Path 7287" d="M471.678,641.409l-4.355-2.689,1.344-2.176a17.5,17.5,0,0,0,1.171-15.148c-1.334-3.374-3.574-5.64-6.309-6.382l-1.069-.29-5.706-10.706-3.112,1.658,7.551,14.167-4.517,2.407-7.6-14.265a5.011,5.011,0,0,1,2.062-6.772l3.312-1.765a5.005,5.005,0,0,1,6.771,2.06l4.753,8.917c3.815,1.411,6.854,4.6,8.628,9.087a22.781,22.781,0,0,1-1.576,19.718Z" transform="translate(-448.486 -598.858)" fill="#1e0b4b"/>
    </g>
    <g id="Group_3734" data-name="Group 3734" transform="translate(452.876 649.053)">
      <path id="Path_7288" data-name="Path 7288" d="M453.3,646.521l-4.41-15.234,27.515-7.967,4.41,15.234Zm1.929-11.742,1.563,5.4,17.684-5.118-1.563-5.4Z" transform="translate(-448.892 -623.32)" fill="#1e0b4b"/>
    </g>
    <g id="Group_3735" data-name="Group 3735" transform="translate(465.787 567.66)">
      <path id="Path_7289" data-name="Path 7289" d="M488.442,629.1a30.721,30.721,0,1,1,30.719-30.721A30.755,30.755,0,0,1,488.442,629.1Zm0-56.323a25.6,25.6,0,1,0,25.6,25.6A25.631,25.631,0,0,0,488.442,572.778Z" transform="translate(-457.721 -567.66)" fill="#1e0b4b"/>
    </g>
    <g id="Group_3736" data-name="Group 3736" transform="translate(478.974 567.66)">
      <path id="Path_7290" data-name="Path 7290" d="M484.272,629.1c-7.728,0-17.533-14.464-17.533-30.721,0-16.662,10.77-30.721,17.533-30.721S501.8,581.719,501.8,598.381C501.8,614.637,492,629.1,484.272,629.1Zm0-56.323c-3,0-12.415,10.624-12.415,25.6,0,14.79,8.711,25.6,12.415,25.6s12.414-10.812,12.414-25.6C496.686,583.4,487.272,572.778,484.272,572.778Z" transform="translate(-466.739 -567.66)" fill="#1e0b4b"/>
    </g>
    <g id="Group_3737" data-name="Group 3737" transform="translate(493.948 568.28)">
      <rect id="Rectangle_973" data-name="Rectangle 973" width="5.118" height="60.2" fill="#1e0b4b"/>
    </g>
    <g id="Group_3738" data-name="Group 3738" transform="translate(476.137 585.261)">
      <rect id="Rectangle_974" data-name="Rectangle 974" width="47.588" height="5.118" fill="#1e0b4b"/>
    </g>
    <g id="Group_3739" data-name="Group 3739" transform="translate(469.288 606.382)">
      <rect id="Rectangle_975" data-name="Rectangle 975" width="48.16" height="5.118" fill="#1e0b4b"/>
    </g>
  </g>
</svg>
