<svg xmlns="http://www.w3.org/2000/svg" width="117.657" height="117.657" viewBox="0 0 117.657 117.657">
  <g id="mvp-development" transform="translate(9.182 9.182)">
    <g id="Group_3897" data-name="Group 3897" transform="translate(4.492 4.492)">
      <path id="Path_7831" data-name="Path 7831" d="M104.283,55.824a6.754,6.754,0,0,0-6.577-6.741A42.2,42.2,0,0,0,90.19,30.992a6.744,6.744,0,0,0-9.535-9.535,42.188,42.188,0,0,0-18.091-7.517,6.743,6.743,0,0,0-13.481,0,42.188,42.188,0,0,0-18.091,7.517,6.744,6.744,0,0,0-9.535,9.535,42.2,42.2,0,0,0-7.517,18.091,6.743,6.743,0,0,0,0,13.481,42.2,42.2,0,0,0,7.517,18.091,6.744,6.744,0,0,0,9.535,9.535,42.188,42.188,0,0,0,18.091,7.517,6.743,6.743,0,0,0,13.481,0A42.188,42.188,0,0,0,80.655,90.19a6.744,6.744,0,0,0,9.535-9.535,42.2,42.2,0,0,0,7.517-18.091A6.754,6.754,0,0,0,104.283,55.824Z" transform="translate(-7.364 -7.364)" fill="#fcfeff"/>
    </g>
    <g id="Group_3905" data-name="Group 3905" transform="translate(-9.182 -9.182)">
      <circle id="Ellipse_90" data-name="Ellipse 90" cx="41.598" cy="41.598" r="41.598" transform="translate(0 58.828) rotate(-45)" fill="#f1f6fb"/>
      <g id="Group_3898" data-name="Group 3898" transform="translate(8.742 50.452)">
        <circle id="Ellipse_91" data-name="Ellipse 91" cx="5.923" cy="5.923" r="5.923" transform="translate(85.874 2.453)" fill="#2f5bea"/>
        <circle id="Ellipse_92" data-name="Ellipse 92" cx="5.923" cy="5.923" r="5.923" transform="translate(0 8.376) rotate(-45)" fill="#2f5bea"/>
      </g>
      <g id="Group_3899" data-name="Group 3899" transform="translate(50.452 8.742)">
        <circle id="Ellipse_93" data-name="Ellipse 93" cx="5.923" cy="5.923" r="5.923" transform="translate(0 8.376) rotate(-45)" fill="#2f5bea"/>
        <circle id="Ellipse_94" data-name="Ellipse 94" cx="5.923" cy="5.923" r="5.923" transform="translate(1.251 87.393) rotate(-13.282)" fill="#2f5bea"/>
      </g>
      <g id="Group_3900" data-name="Group 3900" transform="translate(23.412 23.412)">
        <circle id="Ellipse_95" data-name="Ellipse 95" cx="5.923" cy="5.923" r="5.923" transform="translate(58.987 0)" fill="#2f5bea"/>
        <circle id="Ellipse_96" data-name="Ellipse 96" cx="5.923" cy="5.923" r="5.923" transform="translate(0 58.987)" fill="#2f5bea"/>
      </g>
      <g id="Group_3901" data-name="Group 3901" transform="translate(23.412 23.412)">
        <path id="Path_7832" data-name="Path 7832" d="M29.258,20.881a5.923,5.923,0,1,0,0,8.377A5.925,5.925,0,0,0,29.258,20.881Z" transform="translate(-19.146 -19.146)" fill="#2f5bea"/>
        <circle id="Ellipse_97" data-name="Ellipse 97" cx="5.923" cy="5.923" r="5.923" transform="translate(58.987 58.987)" fill="#0089ef"/>
      </g>
      <circle id="Ellipse_98" data-name="Ellipse 98" cx="13.633" cy="13.633" r="13.633" transform="translate(39.549 58.828) rotate(-45)" fill="#ede8f9"/>
      <g id="Group_3902" data-name="Group 3902" transform="translate(45.196 57.589)">
        <path id="Path_7833" data-name="Path 7833" d="M59.137,72.893A13.629,13.629,0,0,1,45.567,60.5c-.036.409-.062.821-.062,1.24a13.632,13.632,0,0,0,27.265,0c0-.418-.026-.831-.062-1.24A13.629,13.629,0,0,1,59.137,72.893Z" transform="translate(-45.505 -60.5)" fill="#fff"/>
      </g>
      <g id="Group_3903" data-name="Group 3903" transform="translate(30.313 30.313)">
        <path id="Path_7834" data-name="Path 7834" d="M84.527,59V53.02a1.667,1.667,0,0,0-1.666-1.666H78.834a23.149,23.149,0,0,0-3.4-8.183l2.851-2.851a1.667,1.667,0,0,0,0-2.356L74.06,33.733a1.667,1.667,0,0,0-2.356,0l-2.851,2.851a23.149,23.149,0,0,0-8.183-3.4V29.163A1.667,1.667,0,0,0,59,27.5H53.02a1.667,1.667,0,0,0-1.666,1.666V33.19a23.149,23.149,0,0,0-8.183,3.4L40.32,33.733a1.667,1.667,0,0,0-2.356,0l-4.231,4.231a1.667,1.667,0,0,0,0,2.356l2.851,2.851a23.149,23.149,0,0,0-3.4,8.183H29.163A1.667,1.667,0,0,0,27.5,53.02V59a1.667,1.667,0,0,0,1.666,1.666H33.19a23.149,23.149,0,0,0,3.4,8.183L33.733,71.7a1.668,1.668,0,0,0,0,2.357l4.231,4.231a1.667,1.667,0,0,0,2.356,0l2.851-2.851a23.149,23.149,0,0,0,8.183,3.4v4.026a1.667,1.667,0,0,0,1.666,1.666H59a1.667,1.667,0,0,0,1.666-1.666V78.834a23.149,23.149,0,0,0,8.183-3.4L71.7,78.291a1.667,1.667,0,0,0,2.356,0l4.231-4.231a1.667,1.667,0,0,0,0-2.357l-2.851-2.85a23.149,23.149,0,0,0,3.4-8.183h4.026A1.667,1.667,0,0,0,84.527,59ZM56.012,69.644A13.632,13.632,0,1,1,69.644,56.012,13.632,13.632,0,0,1,56.012,69.644Z" transform="translate(-27.497 -27.497)" fill="#f15151"/>
      </g>
      <g id="Group_3904" data-name="Group 3904" transform="translate(10.369 10.369)">
        <path id="Path_7835" data-name="Path 7835" d="M100.283,51.824a6.753,6.753,0,0,0-6.6-6.741,42.182,42.182,0,0,0-7.507-18.075,6.744,6.744,0,0,0-9.539-9.534A42.2,42.2,0,0,0,58.566,9.964a6.744,6.744,0,0,0-13.484,0,42.178,42.178,0,0,0-18.074,7.507,6.744,6.744,0,0,0-9.534,9.539A42.188,42.188,0,0,0,9.965,45.082a6.743,6.743,0,0,0,0,13.483,42.188,42.188,0,0,0,7.508,18.073,6.744,6.744,0,0,0,9.533,9.539,42.149,42.149,0,0,0,18.076,7.517,6.743,6.743,0,0,0,13.484-.009A42.178,42.178,0,0,0,76.64,86.177a6.744,6.744,0,0,0,9.534-9.539,42.188,42.188,0,0,0,7.508-18.073A6.754,6.754,0,0,0,100.283,51.824ZM81.317,74.568A6.744,6.744,0,0,0,75.6,84.894a40.529,40.529,0,0,1-17.2,7.143,6.744,6.744,0,0,0-13.155.007,40.526,40.526,0,0,1-17.2-7.151,6.744,6.744,0,0,0-9.293-9.3A40.53,40.53,0,0,1,11.61,58.4a6.743,6.743,0,0,0,0-13.152,40.537,40.537,0,0,1,7.145-17.2,6.744,6.744,0,0,0,9.293-9.3,40.533,40.533,0,0,1,17.2-7.143,6.744,6.744,0,0,0,13.154,0,40.542,40.542,0,0,1,17.2,7.146,6.744,6.744,0,0,0,9.3,9.293,40.539,40.539,0,0,1,7.144,17.2,6.743,6.743,0,0,0,0,13.152,40.537,40.537,0,0,1-7.145,17.2A6.7,6.7,0,0,0,81.317,74.568ZM98.63,51.824a5.1,5.1,0,1,1-5.1-5.1A5.1,5.1,0,0,1,98.63,51.824ZM81.317,17.236a5.09,5.09,0,1,1-3.6,1.49A5.08,5.08,0,0,1,81.317,17.236ZM51.824,5.017a5.1,5.1,0,1,1-5.1,5.1A5.1,5.1,0,0,1,51.824,5.017Zm-33.1,13.709a5.1,5.1,0,1,1-1.493,3.6A5.1,5.1,0,0,1,18.726,18.726ZM5.017,51.824a5.1,5.1,0,1,1,5.1,5.1A5.1,5.1,0,0,1,5.017,51.824ZM22.33,86.414a5.1,5.1,0,1,1,3.6-1.493A5.064,5.064,0,0,1,22.33,86.414ZM51.824,98.63a5.1,5.1,0,1,1,5.1-5.1A5.1,5.1,0,0,1,51.824,98.63Zm33.1-13.71a5.1,5.1,0,1,1,1.493-3.6A5.064,5.064,0,0,1,84.921,84.92Z" transform="translate(-3.364 -3.364)" fill="#1e0b4b"/>
        <path id="Path_7836" data-name="Path 7836" d="M65.076,46.495a12.709,12.709,0,0,1,3.544,1.322.827.827,0,0,0,.8-1.445,14.383,14.383,0,0,0-4.006-1.494.826.826,0,1,0-.34,1.617Z" transform="translate(-13.96 -10.566)" fill="#3a2c60"/>
        <path id="Path_7837" data-name="Path 7837" d="M67.685,48.455a.826.826,0,0,0,.037,1.168,12.686,12.686,0,0,1,4.047,9.343,12.806,12.806,0,1,1-13.291-12.8.827.827,0,0,0-.061-1.652,14.457,14.457,0,1,0,10.436,3.9A.826.826,0,0,0,67.685,48.455Z" transform="translate(-10.504 -10.506)" fill="#1e0b4b"/>
        <path id="Path_7838" data-name="Path 7838" d="M82.687,50.354h-3.36a23.869,23.869,0,0,0-3.006-7.243l2.38-2.38a2.5,2.5,0,0,0,0-3.525l-4.231-4.231a2.552,2.552,0,0,0-3.526,0l-2.38,2.38a23.838,23.838,0,0,0-7.242-3V28.99A2.5,2.5,0,0,0,58.83,26.5H52.847a2.5,2.5,0,0,0-2.493,2.493v3.361a23.838,23.838,0,0,0-7.242,3l-2.38-2.38a2.552,2.552,0,0,0-3.526,0l-4.231,4.231a2.5,2.5,0,0,0,0,3.525l2.38,2.38a23.869,23.869,0,0,0-3.006,7.243H28.99A2.5,2.5,0,0,0,26.5,52.847V58.83a2.5,2.5,0,0,0,2.493,2.493h3.36a23.873,23.873,0,0,0,3.006,7.242l-2.38,2.38a2.5,2.5,0,0,0,0,3.525L37.206,78.7a2.5,2.5,0,0,0,3.526,0l2.38-2.38a23.838,23.838,0,0,0,7.242,3v3.361a2.5,2.5,0,0,0,2.493,2.493H58.83a2.5,2.5,0,0,0,2.493-2.493V79.326a23.838,23.838,0,0,0,7.242-3l2.38,2.38a2.5,2.5,0,0,0,3.526,0L78.7,74.47a2.5,2.5,0,0,0,0-3.525l-2.38-2.38a23.873,23.873,0,0,0,3.006-7.242h3.36A2.5,2.5,0,0,0,85.18,58.83V52.847A2.5,2.5,0,0,0,82.687,50.354Zm.84,8.476a.841.841,0,0,1-.84.84H78.661a.826.826,0,0,0-.81.662,22.24,22.24,0,0,1-3.274,7.89.827.827,0,0,0,.1,1.041l2.851,2.85a.841.841,0,0,1,0,1.188L73.3,77.533a.861.861,0,0,1-1.188,0l-2.85-2.851a.828.828,0,0,0-1.041-.1,22.247,22.247,0,0,1-7.891,3.274.826.826,0,0,0-.662.81v4.026a.841.841,0,0,1-.84.84H52.847a.841.841,0,0,1-.84-.84V78.661a.826.826,0,0,0-.662-.81,22.247,22.247,0,0,1-7.891-3.274.826.826,0,0,0-1.04.1l-2.85,2.851a.861.861,0,0,1-1.188,0L34.144,73.3a.841.841,0,0,1,0-1.188L37,69.263a.827.827,0,0,0,.1-1.041,22.24,22.24,0,0,1-3.274-7.89.826.826,0,0,0-.81-.662H28.99a.841.841,0,0,1-.84-.84V52.847a.841.841,0,0,1,.84-.84h4.026a.826.826,0,0,0,.81-.662A22.244,22.244,0,0,1,37.1,43.454a.826.826,0,0,0-.1-1.04l-2.851-2.851a.841.841,0,0,1,0-1.188l4.231-4.231a.861.861,0,0,1,1.188,0L42.414,37a.827.827,0,0,0,1.04.1,22.247,22.247,0,0,1,7.891-3.274.826.826,0,0,0,.662-.81V28.99a.841.841,0,0,1,.84-.84H58.83a.841.841,0,0,1,.84.84v4.026a.826.826,0,0,0,.662.81A22.247,22.247,0,0,1,68.223,37.1a.827.827,0,0,0,1.041-.1l2.85-2.851a.861.861,0,0,1,1.188,0l4.231,4.231a.841.841,0,0,1,0,1.188l-2.851,2.851a.826.826,0,0,0-.1,1.04,22.244,22.244,0,0,1,3.274,7.891.826.826,0,0,0,.81.662h4.026a.841.841,0,0,1,.84.84Z" transform="translate(-7.379 -7.379)" fill="#1e0b4b"/>
      </g>
    </g>
  </g>
</svg>
