<svg xmlns="http://www.w3.org/2000/svg" width="97.142" height="101.112" viewBox="0 0 97.142 101.112">
  <g id="native-ui-react" transform="translate(-6.782 -4.444)">
    <g id="Group_3848" data-name="Group 3848" transform="translate(10.178 7.84)">
      <path id="Path_7765" data-name="Path 7765" d="M98.319,20.642H80.956V10.991A2.55,2.55,0,0,0,78.41,8.444H34.976a.852.852,0,0,0-.6.249l-23.3,23.3a.852.852,0,0,0-.295.643V97.01a2.549,2.549,0,0,0,2.547,2.547H56.14v.394a6.217,6.217,0,0,0,6.21,6.21H98.319a6.217,6.217,0,0,0,6.21-6.21v-73.1A6.217,6.217,0,0,0,98.319,20.642Z" transform="translate(-10.782 -8.444)" fill="#e6e7e8"/>
    </g>
    <g id="Group_3857" data-name="Group 3857" transform="translate(6.782 4.444)">
      <g id="Group_3852" data-name="Group 3852" transform="translate(0.849 0.849)">
        <g id="Group_3849" data-name="Group 3849">
          <path id="Path_7766" data-name="Path 7766" d="M7.784,28.788,31.127,5.444H74.56a1.7,1.7,0,0,1,1.7,1.7v86.02a1.7,1.7,0,0,1-1.7,1.7H9.48a1.7,1.7,0,0,1-1.7-1.7V28.787Z" transform="translate(-7.782 -5.444)" fill="#f1f6fb"/>
        </g>
        <g id="Group_3850" data-name="Group 3850" transform="translate(20.798)">
          <path id="Path_7767" data-name="Path 7767" d="M78.263,7.991H32.283L34.83,5.444H78.263a1.7,1.7,0,0,1,1.7,1.7V9.688A1.7,1.7,0,0,0,78.263,7.991Z" transform="translate(-32.283 -5.444)" fill="#fff"/>
        </g>
        <g id="Group_3851" data-name="Group 3851">
          <path id="Path_7768" data-name="Path 7768" d="M31.125,5.444l0,0V27.09a1.7,1.7,0,0,1-1.7,1.7H7.782Z" transform="translate(-7.782 -5.444)" fill="#2f5bea"/>
        </g>
      </g>
      <g id="Group_3853" data-name="Group 3853" transform="translate(46.207 13.048)">
        <rect id="Rectangle_979" data-name="Rectangle 979" width="46.691" height="83.82" rx="7.035" fill="#2f5bea"/>
        <rect id="Rectangle_980" data-name="Rectangle 980" width="46.691" height="64.508" transform="translate(0 7.947)" fill="#f1f6fb"/>
        <path id="Path_7769" data-name="Path 7769" d="M93.842,23.572H81A.865.865,0,0,0,81,25.3H93.842a.865.865,0,1,0,0-1.729Z" transform="translate(-64.074 -20.382)" fill="#fff"/>
        <path id="Path_7770" data-name="Path 7770" d="M101.207,23.473a.949.949,0,1,0,.949.949A.948.948,0,0,0,101.207,23.473Z" transform="translate(-67.116 -20.367)" fill="#fff"/>
        <path id="Path_7771" data-name="Path 7771" d="M91.795,108.819H83.4a2.1,2.1,0,1,0,0,4.2h8.4a2.1,2.1,0,1,0,0-4.2Z" transform="translate(-64.25 -33.265)" fill="#fff"/>
      </g>
      <g id="Group_3854" data-name="Group 3854" transform="translate(56.495 28.561)">
        <rect id="Rectangle_981" data-name="Rectangle 981" width="26.116" height="26.116" fill="#fa759e"/>
        <rect id="Rectangle_982" data-name="Rectangle 982" width="13.587" height="5.093" transform="translate(6.264 45.592)" fill="#aec1ff"/>
      </g>
      <g id="Group_3856" data-name="Group 3856">
        <rect id="Rectangle_983" data-name="Rectangle 983" width="26.116" height="26.116" transform="translate(11.699 28.561)" fill="#fa759e"/>
        <rect id="Rectangle_984" data-name="Rectangle 984" width="13.587" height="5.093" transform="translate(17.964 74.153)" fill="#aec1ff"/>
        <g id="Group_3855" data-name="Group 3855">
          <path id="Path_7772" data-name="Path 7772" d="M93.709,16.642H76.956V6.991a2.549,2.549,0,0,0-2.547-2.547H30.976a.852.852,0,0,0-.6.249l-23.3,23.3a.85.85,0,0,0-.295.643V93.01a2.549,2.549,0,0,0,2.547,2.547H52.151a6.825,6.825,0,0,0,6.811,6.6H93.709a6.829,6.829,0,0,0,6.821-6.822V70.916a.849.849,0,1,0-1.7,0V89.1H53.838V26.287H98.832V58.466a.849.849,0,1,0,1.7,0v-35A6.829,6.829,0,0,0,93.709,16.642Zm-63.582-9.3v19.6a.85.85,0,0,1-.849.849H9.682ZM8.48,93.01V29.486h20.8a2.55,2.55,0,0,0,2.547-2.547V6.142H74.409a.85.85,0,0,1,.849.849v9.652h-16.3a6.829,6.829,0,0,0-6.822,6.822v70.4H9.329A.849.849,0,0,1,8.48,93.01ZM98.832,90.8v4.542a5.129,5.129,0,0,1-5.123,5.124H58.962a5.13,5.13,0,0,1-5.124-5.124V90.8ZM53.838,24.59V23.464a5.13,5.13,0,0,1,5.124-5.124H93.709a5.129,5.129,0,0,1,5.123,5.124V24.59Z" transform="translate(-6.782 -4.444)" fill="#1e0b4b"/>
          <path id="Path_7773" data-name="Path 7773" d="M116.068,71a.849.849,0,0,0-.849.849v5.995a.849.849,0,1,0,1.7,0V71.849A.849.849,0,0,0,116.068,71Z" transform="translate(-23.169 -14.502)" fill="#1e0b4b"/>
          <path id="Path_7774" data-name="Path 7774" d="M100.148,37.938a.849.849,0,0,0-.849-.849H73.183a.849.849,0,0,0-.849.849V64.055a.849.849,0,0,0,.849.849H99.3a.849.849,0,0,0,.849-.849ZM74.032,39.987,85.041,51,74.032,62.005Zm1.2-1.2H97.25L86.241,49.8ZM86.241,52.2,97.25,63.206H75.232Zm1.2-1.2L98.451,39.987V62.005Z" transform="translate(-16.688 -9.377)" fill="#1e0b4b"/>
          <path id="Path_7775" data-name="Path 7775" d="M80.563,90.8a.849.849,0,0,0-.849.849V96.74a.849.849,0,0,0,.849.849H94.15A.849.849,0,0,0,95,96.74V91.647a.849.849,0,0,0-.849-.849ZM93.3,95.891H81.412V92.5H93.3Z" transform="translate(-17.803 -17.494)" fill="#1e0b4b"/>
          <path id="Path_7776" data-name="Path 7776" d="M99.3,76.438H73.183a.849.849,0,0,0,0,1.7H99.3a.849.849,0,1,0,0-1.7Z" transform="translate(-16.688 -15.324)" fill="#1e0b4b"/>
          <path id="Path_7777" data-name="Path 7777" d="M100.148,85.313a.849.849,0,0,0-.849-.849H73.183a.849.849,0,0,0,0,1.7H99.3A.849.849,0,0,0,100.148,85.313Z" transform="translate(-16.688 -16.537)" fill="#1e0b4b"/>
          <path id="Path_7778" data-name="Path 7778" d="M46.53,37.089H20.413a.849.849,0,0,0-.849.849V64.055a.849.849,0,0,0,.849.849H46.53a.849.849,0,0,0,.849-.849V37.938A.849.849,0,0,0,46.53,37.089Zm-25.268,2.9L32.271,51,21.262,62.005Zm1.2-1.2H44.48L33.471,49.8ZM33.471,52.2,44.48,63.206H22.462Zm1.2-1.2L45.681,39.987V62.005Z" transform="translate(-8.714 -9.377)" fill="#1e0b4b"/>
          <path id="Path_7779" data-name="Path 7779" d="M41.38,90.8H27.793a.849.849,0,0,0-.849.849V96.74a.849.849,0,0,0,.849.849H41.38a.849.849,0,0,0,.849-.849V91.647A.849.849,0,0,0,41.38,90.8Zm-.849,5.093H28.642V92.5H40.531Z" transform="translate(-9.829 -17.494)" fill="#1e0b4b"/>
          <path id="Path_7780" data-name="Path 7780" d="M46.53,76.438H20.413a.849.849,0,1,0,0,1.7H46.53a.849.849,0,1,0,0-1.7Z" transform="translate(-8.714 -15.324)" fill="#1e0b4b"/>
          <path id="Path_7781" data-name="Path 7781" d="M46.53,84.464H20.413a.849.849,0,1,0,0,1.7H46.53a.849.849,0,1,0,0-1.7Z" transform="translate(-8.714 -16.537)" fill="#1e0b4b"/>
        </g>
      </g>
    </g>
  </g>
</svg>
