<svg xmlns="http://www.w3.org/2000/svg" width="101.38" height="96.059" viewBox="0 0 101.38 96.059">
  <g id="native-configuration" transform="translate(-3.604 -6.774)">
    <g id="Group_3871" data-name="Group 3871" transform="translate(6.962 10.131)">
      <path id="Path_7802" data-name="Path 7802" d="M104.788,93.507h-7.55V48.583a5.882,5.882,0,0,0-5.875-5.875h-9.69V31.847l5.512-3.806a.84.84,0,0,0,.363-.691V19.572a4.442,4.442,0,1,0-1.679,0v7.338l-5.513,3.807a.838.838,0,0,0-.362.69v11.3H67.4V37.722l5.512-3.806a.84.84,0,0,0,.363-.691V25.447a4.442,4.442,0,1,0-1.679,0v7.338l-5.513,3.807a.838.838,0,0,0-.362.69v5.426H57.455V21.25a4.442,4.442,0,1,0-1.679,0V42.708h-8.27V37.282a.839.839,0,0,0-.363-.69l-5.513-3.807V25.447a4.441,4.441,0,1,0-1.679,0v7.779a.84.84,0,0,0,.362.691l5.513,3.806v4.985H33.238v-11.3a.839.839,0,0,0-.363-.69l-5.513-3.807V19.572a4.442,4.442,0,1,0-1.679,0V27.35a.84.84,0,0,0,.362.691l5.513,3.806V42.708H21.869a5.882,5.882,0,0,0-5.875,5.875V93.507H8.444a.839.839,0,0,0-.839.839v3.3a5.835,5.835,0,0,0,5.829,5.829H99.8a5.837,5.837,0,0,0,5.831-5.829v-3.3A.839.839,0,0,0,104.788,93.507Z" transform="translate(-7.605 -10.774)" fill="#fff"/>
    </g>
    <g id="Group_3887" data-name="Group 3887" transform="translate(3.604 6.774)">
      <g id="Group_3875" data-name="Group 3875" transform="translate(0.84 32.773)">
        <g id="Group_3874" data-name="Group 3874" transform="translate(0 0)">
          <g id="Group_3872" data-name="Group 3872" transform="translate(8.388)">
            <path id="Path_7803" data-name="Path 7803" d="M94.166,96.621V50.858a5.036,5.036,0,0,0-5.036-5.036h-69.5A5.036,5.036,0,0,0,14.6,50.858V96.621Z" transform="translate(-14.599 -45.822)" fill="#aec1ff"/>
          </g>
          <g id="Group_3873" data-name="Group 3873" transform="translate(8.388)">
            <path id="Path_7804" data-name="Path 7804" d="M89.13,45.822h-69.5A5.036,5.036,0,0,0,14.6,50.858v2.518a5.036,5.036,0,0,1,5.036-5.036h69.5a5.036,5.036,0,0,1,5.036,5.036V50.858A5.036,5.036,0,0,0,89.13,45.822Z" transform="translate(-14.599 -45.822)" fill="#fff"/>
          </g>
          <path id="Path_7805" data-name="Path 7805" d="M89.4,98.041v-41.7a1.679,1.679,0,0,0-1.679-1.679H23.307a1.679,1.679,0,0,0-1.679,1.679v41.7Z" transform="translate(-7.341 -47.242)" fill="#f1f6fb"/>
          <path id="Path_7806" data-name="Path 7806" d="M4.605,106.348v3.3a4.989,4.989,0,0,0,4.99,4.99H95.957a4.99,4.99,0,0,0,4.99-4.99v-3.3Z" transform="translate(-4.605 -55.549)" fill="#2f5bea"/>
        </g>
      </g>
      <g id="Group_3881" data-name="Group 3881" transform="translate(30.745 43.889)">
        <g id="Group_3876" data-name="Group 3876" transform="translate(7.666 7.665)">
          <circle id="Ellipse_86" data-name="Ellipse 86" cx="10.601" cy="10.601" r="10.601" fill="#aec1ff"/>
        </g>
        <path id="Path_7807" data-name="Path 7807" d="M76.768,79.249V75.416A1.067,1.067,0,0,0,75.7,74.349H73.122a14.851,14.851,0,0,0-2.175-5.242l1.826-1.826a1.068,1.068,0,0,0,0-1.509l-2.71-2.71a1.067,1.067,0,0,0-1.51,0l-1.826,1.826a14.825,14.825,0,0,0-5.241-2.175V60.134a1.068,1.068,0,0,0-1.068-1.068H56.586a1.068,1.068,0,0,0-1.068,1.068v2.579a14.825,14.825,0,0,0-5.241,2.175l-1.826-1.826a1.067,1.067,0,0,0-1.51,0l-2.71,2.71a1.068,1.068,0,0,0,0,1.509l1.826,1.826a14.851,14.851,0,0,0-2.175,5.242H41.3a1.067,1.067,0,0,0-1.068,1.067v3.833A1.068,1.068,0,0,0,41.3,80.316h2.579a14.847,14.847,0,0,0,2.175,5.241l-1.826,1.826a1.068,1.068,0,0,0,0,1.509l2.71,2.71a1.067,1.067,0,0,0,1.51,0l1.826-1.826a14.809,14.809,0,0,0,5.241,2.175V94.53A1.067,1.067,0,0,0,56.586,95.6h3.832a1.067,1.067,0,0,0,1.068-1.068V91.951a14.809,14.809,0,0,0,5.241-2.175L68.554,91.6a1.067,1.067,0,0,0,1.51,0l2.71-2.71a1.068,1.068,0,0,0,0-1.509l-1.826-1.826a14.847,14.847,0,0,0,2.175-5.241H75.7A1.067,1.067,0,0,0,76.768,79.249ZM58.5,87.933a10.6,10.6,0,1,1,10.6-10.6A10.6,10.6,0,0,1,58.5,87.933Z" transform="translate(-40.236 -59.066)" fill="#f15151"/>
        <g id="Group_3880" data-name="Group 3880" transform="translate(10.004 14.529)">
          <g id="Group_3877" data-name="Group 3877">
            <path id="Path_7808" data-name="Path 7808" d="M59.444,83.258a.518.518,0,0,1-.193.406.655.655,0,0,1-.443.167.58.58,0,0,1-.542-.365l-.625-1.4H53.971l-.626,1.4a.588.588,0,0,1-.229.276.613.613,0,0,1-.323.089.665.665,0,0,1-.438-.167.513.513,0,0,1-.2-.406.636.636,0,0,1,.063-.271L55.1,76.8a.671.671,0,0,1,.287-.318.831.831,0,0,1,.823,0,.675.675,0,0,1,.287.318l2.887,6.182A.636.636,0,0,1,59.444,83.258Zm-5.015-2.232h2.752l-1.376-3.1Z" transform="translate(-52.156 -76.377)" fill="#fff"/>
          </g>
          <g id="Group_3878" data-name="Group 3878" transform="translate(8.299 0.062)">
            <path id="Path_7809" data-name="Path 7809" d="M62.226,83.681a.667.667,0,0,1-.182-.5v-6.1a.622.622,0,0,1,.172-.469.653.653,0,0,1,.474-.167h2.564a2.654,2.654,0,0,1,1.836.589,2.415,2.415,0,0,1,0,3.31,2.639,2.639,0,0,1-1.836.594H63.389v2.241a.63.63,0,0,1-.678.678A.654.654,0,0,1,62.226,83.681Zm2.862-3.768q1.386,0,1.387-1.209t-1.387-1.209h-1.7v2.419Z" transform="translate(-62.044 -76.451)" fill="#fff"/>
          </g>
          <g id="Group_3879" data-name="Group 3879" transform="translate(15.18 0.01)">
            <path id="Path_7810" data-name="Path 7810" d="M70.424,83.666a.672.672,0,0,1-.182-.49V77.056a.627.627,0,0,1,.666-.667.671.671,0,0,1,.5.182.656.656,0,0,1,.183.485v6.119a.672.672,0,0,1-.183.49.658.658,0,0,1-.5.188A.643.643,0,0,1,70.424,83.666Z" transform="translate(-70.242 -76.389)" fill="#fff"/>
          </g>
        </g>
      </g>
      <circle id="Ellipse_87" data-name="Ellipse 87" cx="3.602" cy="3.602" r="3.602" transform="translate(45.41 2.518)" fill="#f15151"/>
      <g id="Group_3886" data-name="Group 3886">
        <g id="Group_3882" data-name="Group 3882" transform="translate(61.234 0.839)">
          <circle id="Ellipse_88" data-name="Ellipse 88" cx="3.602" cy="3.602" r="3.602" transform="translate(0 5.875)" fill="#f15151"/>
          <path id="Path_7811" data-name="Path 7811" d="M97.164,7.774a3.6,3.6,0,1,0,3.6,3.6A3.6,3.6,0,0,0,97.164,7.774Z" transform="translate(-79.295 -7.774)" fill="#f15151"/>
        </g>
        <g id="Group_3885" data-name="Group 3885">
          <circle id="Ellipse_89" data-name="Ellipse 89" cx="3.602" cy="3.602" r="3.602" transform="translate(29.585 6.714)" fill="#f15151"/>
          <g id="Group_3884" data-name="Group 3884">
            <path id="Path_7812" data-name="Path 7812" d="M25.456,7.774a3.6,3.6,0,1,0,3.6,3.6A3.6,3.6,0,0,0,25.456,7.774Z" transform="translate(-6.537 -6.935)" fill="#f15151"/>
            <g id="Group_3883" data-name="Group 3883">
              <path id="Path_7813" data-name="Path 7813" d="M100.787,89.507H93.238V44.583a5.882,5.882,0,0,0-5.875-5.875H77.672V27.847l5.513-3.806a.84.84,0,0,0,.362-.691V15.572a4.442,4.442,0,1,0-1.679,0v7.338l-5.512,3.807a.839.839,0,0,0-.363.69v11.3H63.4V33.722l5.513-3.806a.84.84,0,0,0,.362-.691V21.447a4.442,4.442,0,1,0-1.679,0v7.338l-5.512,3.807a.839.839,0,0,0-.363.69v5.426h-8.27V17.25a4.442,4.442,0,1,0-1.679,0V38.708H43.505V33.282a.838.838,0,0,0-.362-.69L37.63,28.785V21.447a4.441,4.441,0,1,0-1.679,0v7.779a.84.84,0,0,0,.363.691l5.513,3.806v4.985H29.237v-11.3a.838.838,0,0,0-.362-.69l-5.513-3.807V15.572a4.441,4.441,0,1,0-1.679,0V23.35a.84.84,0,0,0,.363.691l5.513,3.806V38.708h-9.69a5.882,5.882,0,0,0-5.875,5.875V67.045a.839.839,0,1,0,1.679,0V44.583a4.2,4.2,0,0,1,4.2-4.2H87.362a4.2,4.2,0,0,1,4.2,4.2V89.507h-4.22V48.642a2.521,2.521,0,0,0-2.518-2.518H20.41a2.521,2.521,0,0,0-2.518,2.518V89.507h-4.22V81.942a.839.839,0,0,0-1.679,0v7.565H4.443a.839.839,0,0,0-.839.839v3.3a5.836,5.836,0,0,0,5.83,5.829H95.8a5.836,5.836,0,0,0,5.831-5.829v-3.3A.839.839,0,0,0,100.787,89.507ZM79.945,11.215a2.763,2.763,0,1,1,2.763,2.763A2.766,2.766,0,0,1,79.945,11.215ZM65.677,17.09a2.763,2.763,0,1,1,2.763,2.763A2.766,2.766,0,0,1,65.677,17.09Zm-15.824-4.2a2.763,2.763,0,1,1,2.763,2.763A2.766,2.766,0,0,1,49.853,12.893Zm-15.824,4.2a2.763,2.763,0,1,1,2.762,2.763A2.765,2.765,0,0,1,34.029,17.09ZM19.76,11.215a2.763,2.763,0,1,1,2.762,2.763A2.765,2.765,0,0,1,19.76,11.215Zm-.19,37.428a.84.84,0,0,1,.839-.839H84.821a.84.84,0,0,1,.839.839V89.507H19.571Zm80.377,45A4.156,4.156,0,0,1,95.8,97.8H9.434a4.155,4.155,0,0,1-4.151-4.15V91.185H99.948Z" transform="translate(-3.604 -6.774)" fill="#1e0b4b"/>
              <path id="Path_7814" data-name="Path 7814" d="M14.439,90.874a.84.84,0,0,0,.839-.839V82.775a.839.839,0,0,0-1.679,0v7.259A.839.839,0,0,0,14.439,90.874Z" transform="translate(-5.21 -18.853)" fill="#3a2c60"/>
              <path id="Path_7815" data-name="Path 7815" d="M59.809,67.2a11.44,11.44,0,1,0,11.44,11.44A11.454,11.454,0,0,0,59.809,67.2Zm0,21.2a9.761,9.761,0,1,1,9.762-9.761A9.773,9.773,0,0,1,59.809,88.4Z" transform="translate(-10.798 -16.484)" fill="#1e0b4b"/>
              <path id="Path_7816" data-name="Path 7816" d="M75.541,73.348H73.632a15.6,15.6,0,0,0-1.778-4.283l1.352-1.352a1.909,1.909,0,0,0,0-2.7L70.5,62.308a1.95,1.95,0,0,0-2.7,0l-1.353,1.352a15.605,15.605,0,0,0-4.283-1.778V59.973a1.909,1.909,0,0,0-1.907-1.907H56.426a1.909,1.909,0,0,0-1.907,1.907v1.909a15.594,15.594,0,0,0-4.283,1.778l-1.352-1.351a1.95,1.95,0,0,0-2.7,0l-2.711,2.711a1.909,1.909,0,0,0,0,2.7l1.352,1.351a15.594,15.594,0,0,0-1.778,4.283H41.143a1.909,1.909,0,0,0-1.907,1.907v3.833a1.909,1.909,0,0,0,1.907,1.907h1.909a15.584,15.584,0,0,0,1.778,4.283L43.477,86.63a1.909,1.909,0,0,0,0,2.7l2.71,2.71a1.951,1.951,0,0,0,2.7,0l1.353-1.352a15.543,15.543,0,0,0,4.283,1.778V94.37a1.909,1.909,0,0,0,1.907,1.907h3.832a1.909,1.909,0,0,0,1.907-1.907V92.461a15.554,15.554,0,0,0,4.283-1.778L67.8,92.036a1.952,1.952,0,0,0,2.7,0l2.711-2.71a1.909,1.909,0,0,0,0-2.7l-1.351-1.352a15.592,15.592,0,0,0,1.777-4.283h1.909a1.909,1.909,0,0,0,1.907-1.907V75.255A1.909,1.909,0,0,0,75.541,73.348Zm.228,5.74a.229.229,0,0,1-.228.228H72.961a.84.84,0,0,0-.823.672,13.948,13.948,0,0,1-2.051,4.945.839.839,0,0,0,.107,1.057l1.826,1.825a.231.231,0,0,1,0,.323l-2.712,2.71a.2.2,0,0,1-.321,0L67.16,89.023a.839.839,0,0,0-1.057-.106,13.936,13.936,0,0,1-4.946,2.051.839.839,0,0,0-.671.823V94.37a.229.229,0,0,1-.228.228H56.426a.229.229,0,0,1-.228-.228V91.791a.839.839,0,0,0-.671-.823,13.936,13.936,0,0,1-4.946-2.051.838.838,0,0,0-1.057.106L47.7,90.849a.2.2,0,0,1-.321,0l-2.711-2.71a.229.229,0,0,1,0-.322l1.827-1.826a.839.839,0,0,0,.107-1.057,13.928,13.928,0,0,1-2.052-4.945.84.84,0,0,0-.823-.672H41.143a.229.229,0,0,1-.228-.228V75.255a.229.229,0,0,1,.228-.228h2.579a.84.84,0,0,0,.823-.671A13.915,13.915,0,0,1,46.6,69.41a.84.84,0,0,0-.107-1.058l-1.827-1.825a.231.231,0,0,1,0-.323l2.712-2.71a.2.2,0,0,1,.321,0l1.827,1.826a.838.838,0,0,0,1.057.106,13.952,13.952,0,0,1,4.946-2.051.839.839,0,0,0,.671-.823V59.973a.229.229,0,0,1,.228-.228h3.832a.229.229,0,0,1,.228.228v2.579a.839.839,0,0,0,.671.823A13.952,13.952,0,0,1,66.1,65.426a.838.838,0,0,0,1.057-.106l1.828-1.826a.2.2,0,0,1,.321,0L72.02,66.2a.229.229,0,0,1,0,.322l-1.827,1.826a.84.84,0,0,0-.107,1.058,13.915,13.915,0,0,1,2.052,4.945.84.84,0,0,0,.823.671h2.579a.229.229,0,0,1,.228.228Z" transform="translate(-9.33 -15.017)" fill="#1e0b4b"/>
            </g>
          </g>
        </g>
      </g>
    </g>
  </g>
</svg>
