<svg xmlns="http://www.w3.org/2000/svg" width="114.103" height="104.594" viewBox="0 0 114.103 104.594">
  <g id="open-source-community" transform="translate(249 81)">
    <g id="Group_3698" data-name="Group 3698" transform="translate(-249 -81)">
      <path id="Path_7256" data-name="Path 7256" d="M-144.406,23.594h-95.086A9.518,9.518,0,0,1-249,14.086V-71.491A9.518,9.518,0,0,1-239.491-81h95.086a9.518,9.518,0,0,1,9.509,9.509V14.086A9.518,9.518,0,0,1-144.406,23.594Zm-95.086-99.84a4.759,4.759,0,0,0-4.754,4.754V14.086a4.759,4.759,0,0,0,4.754,4.754h95.086a4.759,4.759,0,0,0,4.754-4.754V-71.491a4.759,4.759,0,0,0-4.754-4.754Z" transform="translate(249 81)" fill="#1e0b4b"/>
    </g>
    <g id="Group_3699" data-name="Group 3699" transform="translate(-237.114 -71.491)">
      <path id="Path_7257" data-name="Path 7257" d="M-239.246-72.246h-2.377A2.378,2.378,0,0,1-244-74.623,2.378,2.378,0,0,1-241.623-77h2.377a2.378,2.378,0,0,1,2.377,2.377A2.378,2.378,0,0,1-239.246-72.246Z" transform="translate(244 77)" fill="#1e0b4b"/>
    </g>
    <g id="Group_3700" data-name="Group 3700" transform="translate(-225.229 -71.491)">
      <path id="Path_7258" data-name="Path 7258" d="M-234.246-72.246h-2.377A2.378,2.378,0,0,1-239-74.623,2.378,2.378,0,0,1-236.623-77h2.377a2.378,2.378,0,0,1,2.377,2.377A2.378,2.378,0,0,1-234.246-72.246Z" transform="translate(239 77)" fill="#1e0b4b"/>
    </g>
    <g id="Group_3701" data-name="Group 3701" transform="translate(-153.914 -71.491)">
      <path id="Path_7259" data-name="Path 7259" d="M-204.246-72.246h-2.377A2.378,2.378,0,0,1-209-74.623,2.378,2.378,0,0,1-206.623-77h2.377a2.378,2.378,0,0,1,2.377,2.377A2.378,2.378,0,0,1-204.246-72.246Z" transform="translate(209 77)" fill="#1e0b4b"/>
    </g>
    <g id="Group_3702" data-name="Group 3702" transform="translate(-239.491 -61.983)">
      <path id="Path_7260" data-name="Path 7260" d="M-152.291-68.246h-90.331A2.378,2.378,0,0,1-245-70.623,2.378,2.378,0,0,1-242.623-73h90.331a2.378,2.378,0,0,1,2.377,2.377A2.378,2.378,0,0,1-152.291-68.246Z" transform="translate(245 73)" fill="#1e0b4b"/>
    </g>
    <g id="Group_3703" data-name="Group 3703" transform="translate(-220.474 -50.097)">
      <path id="Path_7261" data-name="Path 7261" d="M-234.623-6.194A2.378,2.378,0,0,1-237-8.571V-65.623A2.378,2.378,0,0,1-234.623-68a2.378,2.378,0,0,1,2.377,2.377V-8.571A2.378,2.378,0,0,1-234.623-6.194Z" transform="translate(237 68)" fill="#1e0b4b"/>
    </g>
    <g id="Group_3704" data-name="Group 3704" transform="translate(-237.114 -42.966)">
      <path id="Path_7262" data-name="Path 7262" d="M-236.869-60.246h-4.754A2.378,2.378,0,0,1-244-62.623,2.378,2.378,0,0,1-241.623-65h4.754a2.378,2.378,0,0,1,2.377,2.377A2.378,2.378,0,0,1-236.869-60.246Z" transform="translate(244 65)" fill="#1e0b4b"/>
    </g>
    <g id="Group_3705" data-name="Group 3705" transform="translate(-237.114 -28.703)">
      <path id="Path_7263" data-name="Path 7263" d="M-236.869-54.246h-4.754A2.378,2.378,0,0,1-244-56.623,2.378,2.378,0,0,1-241.623-59h4.754a2.378,2.378,0,0,1,2.377,2.377A2.378,2.378,0,0,1-236.869-54.246Z" transform="translate(244 59)" fill="#1e0b4b"/>
    </g>
    <g id="Group_3706" data-name="Group 3706" transform="translate(-237.114 -14.44)">
      <path id="Path_7264" data-name="Path 7264" d="M-236.869-48.246h-4.754A2.378,2.378,0,0,1-244-50.623,2.378,2.378,0,0,1-241.623-53h4.754a2.378,2.378,0,0,1,2.377,2.377A2.378,2.378,0,0,1-236.869-48.246Z" transform="translate(244 53)" fill="#1e0b4b"/>
    </g>
    <g id="Group_3707" data-name="Group 3707" transform="translate(-237.114 -0.177)">
      <path id="Path_7265" data-name="Path 7265" d="M-236.869-42.246h-4.754A2.378,2.378,0,0,1-244-44.623,2.378,2.378,0,0,1-241.623-47h4.754a2.378,2.378,0,0,1,2.377,2.377A2.378,2.378,0,0,1-236.869-42.246Z" transform="translate(244 47)" fill="#1e0b4b"/>
    </g>
    <g id="Group_3708" data-name="Group 3708" transform="translate(-201.458 -33.458)">
      <path id="Path_7266" data-name="Path 7266" d="M-214.737-32.474a2.371,2.371,0,0,1-1.681-.7L-228.3-45.056a2.375,2.375,0,0,1,0-3.361L-216.417-60.3a2.374,2.374,0,0,1,3.361,0,2.374,2.374,0,0,1,0,3.361l-10.205,10.205,10.205,10.205a2.374,2.374,0,0,1,0,3.361A2.371,2.371,0,0,1-214.737-32.474Z" transform="translate(229 61)" fill="#1e0b4b"/>
    </g>
    <g id="Group_3709" data-name="Group 3709" transform="translate(-170.555 -33.458)">
      <path id="Path_7267" data-name="Path 7267" d="M-213.622-32.474a2.371,2.371,0,0,1-1.681-.7,2.374,2.374,0,0,1,0-3.361L-205.1-46.737-215.3-56.942a2.374,2.374,0,0,1,0-3.361,2.374,2.374,0,0,1,3.361,0l11.886,11.886a2.374,2.374,0,0,1,0,3.361L-211.942-33.17A2.371,2.371,0,0,1-213.622-32.474Z" transform="translate(216 61)" fill="#1e0b4b"/>
    </g>
  </g>
</svg>
