<svg xmlns="http://www.w3.org/2000/svg" xmlns:xlink="http://www.w3.org/1999/xlink" width="101.091" height="82.664" viewBox="0 0 101.091 82.664">
  <defs>
    <linearGradient id="linear-gradient" y1="1.064" x2="1.064" y2="-0.121" gradientUnits="objectBoundingBox">
      <stop offset="0" stop-color="#1e0b4b"/>
      <stop offset="1" stop-color="#8f005b"/>
    </linearGradient>
  </defs>
  <g id="predefined-templates" transform="translate(-3.75 -14.75)">
    <path id="Path_7773" data-name="Path 7773" d="M96.175,15.25H12.416A8.176,8.176,0,0,0,4.25,23.416V87.91a9.014,9.014,0,0,0,9,9H95.337a9.014,9.014,0,0,0,9-9V23.416A8.176,8.176,0,0,0,96.175,15.25Zm5.235,8.166V33.2H44.988l7.1-15.02H96.175A5.241,5.241,0,0,1,101.41,23.416ZM12.416,18.182H48.85l-7.1,15.02H7.182V23.416A5.241,5.241,0,0,1,12.416,18.182Zm82.921,75.8H13.254A6.079,6.079,0,0,1,7.182,87.91V36.133H101.41V87.91A6.079,6.079,0,0,1,95.337,93.983Z" stroke="rgba(0,0,0,0)" stroke-width="1" fill="url(#linear-gradient)"/>
    <path id="Path_7774" data-name="Path 7774" d="M20.636,31.6a4.816,4.816,0,1,0-4.816-4.816A4.821,4.821,0,0,0,20.636,31.6Zm0-6.7a1.885,1.885,0,1,1-1.885,1.885A1.887,1.887,0,0,1,20.636,24.9Z" transform="translate(-1.879 -1.091)" stroke="rgba(0,0,0,0)" stroke-width="1" fill="url(#linear-gradient)"/>
    <path id="Path_7775" data-name="Path 7775" d="M36.692,31.6a4.816,4.816,0,1,0-4.816-4.816A4.821,4.821,0,0,0,36.692,31.6Zm0-6.7a1.885,1.885,0,1,1-1.885,1.885A1.887,1.887,0,0,1,36.692,24.9Z" transform="translate(-4.487 -1.091)" stroke="rgba(0,0,0,0)" stroke-width="1" fill="url(#linear-gradient)"/>
    <path id="Path_7776" data-name="Path 7776" d="M67.238,28.9h37.478a1.466,1.466,0,0,0,0-2.932H67.238a1.466,1.466,0,1,0,0,2.932Z" transform="translate(-9.992 -1.74)" stroke="rgba(0,0,0,0)" stroke-width="1" fill="url(#linear-gradient)"/>
    <path id="Path_7777" data-name="Path 7777" d="M95.111,48.966h-77.9a1.466,1.466,0,0,0-1.466,1.466V81.423a1.465,1.465,0,0,0,1.466,1.466h77.9a1.454,1.454,0,0,0,.316-.036c.027-.006.053-.018.079-.024a1.546,1.546,0,0,0,.217-.077c.033-.016.065-.035.1-.053a1.378,1.378,0,0,0,.173-.111,1.118,1.118,0,0,0,.091-.075,1.427,1.427,0,0,0,.152-.158c.015-.018.034-.033.049-.052s.012-.021.018-.031a1.357,1.357,0,0,0,.081-.134c.022-.039.046-.078.064-.118a1.2,1.2,0,0,0,.046-.13,1.3,1.3,0,0,0,.045-.144c.008-.039.012-.08.018-.121a1.419,1.419,0,0,0,.017-.168c0-.011,0-.022,0-.033V50.432A1.466,1.466,0,0,0,95.111,48.966ZM93.645,51.9v26.6L71.41,61.851a1.468,1.468,0,0,0-1.683-.052L55.25,71.3,42.15,58.328a1.466,1.466,0,0,0-1.782-.218L18.682,71.048V51.9ZM64,79.957,57.38,73.406l13.1-8.591,20.23,15.143Zm-45.315-5.5L40.894,61.21,59.83,79.957H18.682Z" transform="translate(-1.868 -5.476)" stroke="rgba(0,0,0,0)" stroke-width="1" fill="url(#linear-gradient)"/>
    <path id="Path_7778" data-name="Path 7778" d="M92.223,96.967H21.493a1.466,1.466,0,1,0,0,2.932H92.223a1.466,1.466,0,0,0,0-2.932Z" transform="translate(-2.562 -13.272)" stroke="rgba(0,0,0,0)" stroke-width="1" fill="url(#linear-gradient)"/>
    <path id="Path_7779" data-name="Path 7779" d="M95.551,65.367a4.939,4.939,0,1,0-4.939-4.938A4.944,4.944,0,0,0,95.551,65.367Zm0-6.946a2.007,2.007,0,1,1-2.008,2.008A2.01,2.01,0,0,1,95.551,58.421Z" transform="translate(-14.027 -6.536)" stroke="rgba(0,0,0,0)" stroke-width="1" fill="url(#linear-gradient)"/>
  </g>
</svg>
