<svg xmlns="http://www.w3.org/2000/svg" width="75.118" height="85.849" viewBox="0 0 75.118 85.849">
  <g id="proposal-icon" transform="translate(334 204)">
    <g id="Group_4242" data-name="Group 4242" transform="translate(-334 -204)">
      <g id="Group_4241" data-name="Group 4241">
        <g id="Group_4240" data-name="Group 4240">
          <g id="Group_4238" data-name="Group 4238">
            <path id="Path_8705" data-name="Path 8705" d="M-280.345-118.151h-44.713A8.953,8.953,0,0,1-334-127.094V-187.9a1.784,1.784,0,0,1,.524-1.264l14.308-14.308A1.784,1.784,0,0,1-317.9-204h39.347a8.953,8.953,0,0,1,8.943,8.943v5.366h-3.577v-5.366a5.372,5.372,0,0,0-5.366-5.366h-38.607l-13.26,13.26v60.069a5.372,5.372,0,0,0,5.366,5.366h44.713a5.372,5.372,0,0,0,5.366-5.366v-5.366h3.577v5.366A8.953,8.953,0,0,1-280.345-118.151Z" transform="translate(334 204)" fill="#1e0b4b"/>
          </g>
          <g id="Group_4239" data-name="Group 4239" transform="translate(1.789 1.789)">
            <path id="Path_8706" data-name="Path 8706" d="M-318.692-186.9H-333v-3.577h12.52V-203h3.577v14.308A1.789,1.789,0,0,1-318.692-186.9Z" transform="translate(333 203)" fill="#1e0b4b"/>
          </g>
        </g>
      </g>
    </g>
    <g id="Group_4243" data-name="Group 4243" transform="translate(-308.961 -186.115)">
      <path id="Path_8707" data-name="Path 8707" d="M-294.961-143.922A25.067,25.067,0,0,1-320-168.961,25.067,25.067,0,0,1-294.961-194a25.067,25.067,0,0,1,25.039,25.039A25.067,25.067,0,0,1-294.961-143.922Zm0-46.5a21.486,21.486,0,0,0-21.462,21.462A21.486,21.486,0,0,0-294.961-147.5,21.486,21.486,0,0,0-273.5-168.961,21.486,21.486,0,0,0-294.961-190.423Z" transform="translate(320 194)" fill="#1e0b4b"/>
    </g>
    <g id="Group_4244" data-name="Group 4244" transform="translate(-301.807 -178.961)">
      <path id="Path_8708" data-name="Path 8708" d="M-298.115-154.23A17.905,17.905,0,0,1-316-172.115,17.905,17.905,0,0,1-298.115-190a17.905,17.905,0,0,1,17.885,17.885A17.905,17.905,0,0,1-298.115-154.23Zm0-32.193a14.325,14.325,0,0,0-14.308,14.308,14.325,14.325,0,0,0,14.308,14.308,14.325,14.325,0,0,0,14.308-14.308A14.325,14.325,0,0,0-298.115-186.423Z" transform="translate(316 190)" fill="#1e0b4b"/>
    </g>
    <g id="Group_4245" data-name="Group 4245" transform="translate(-294.653 -171.807)">
      <path id="Path_8709" data-name="Path 8709" d="M-301.269-164.538A10.742,10.742,0,0,1-312-175.269,10.742,10.742,0,0,1-301.269-186a10.742,10.742,0,0,1,10.731,10.731A10.742,10.742,0,0,1-301.269-164.538Zm0-17.885a7.161,7.161,0,0,0-7.154,7.154,7.161,7.161,0,0,0,7.154,7.154,7.161,7.161,0,0,0,7.154-7.154A7.161,7.161,0,0,0-301.269-182.423Z" transform="translate(312 186)" fill="#1e0b4b"/>
    </g>
    <g id="Group_4246" data-name="Group 4246" transform="translate(-324.834 -163.172)">
      <rect id="Rectangle_1233" data-name="Rectangle 1233" width="41" height="4" transform="translate(-0.166 0.172)" fill="#1e0b4b"/>
    </g>
    <g id="Group_4247" data-name="Group 4247" transform="translate(-326.846 -170.018)">
      <path id="Path_8710" data-name="Path 8710" d="M-322.846-167.115h-5.366A1.789,1.789,0,0,1-330-168.9v-14.308A1.789,1.789,0,0,1-328.212-185h5.366a1.784,1.784,0,0,1,1.264.524l7.154,7.154a1.787,1.787,0,0,1,0,2.529l-7.154,7.154A1.784,1.784,0,0,1-322.846-167.115Zm-3.577-3.577h2.837l5.366-5.366-5.366-5.366h-2.837Z" transform="translate(330 185)" fill="#1e0b4b"/>
    </g>
    <g id="Group_4248" data-name="Group 4248" transform="translate(-326.846 -134.248)">
      <path id="Path_8711" data-name="Path 8711" d="M-321.057-156.057h-3.577A5.372,5.372,0,0,1-330-161.423V-165h3.577v3.577a1.792,1.792,0,0,0,1.789,1.789h3.577Z" transform="translate(330 165)" fill="#1e0b4b"/>
    </g>
    <g id="Group_4249" data-name="Group 4249" transform="translate(-314.003 -129.01)">
      <rect id="Rectangle_1234" data-name="Rectangle 1234" width="3" height="3" transform="translate(0.002 0.01)" fill="#1e0b4b"/>
    </g>
  </g>
</svg>
