<svg xmlns="http://www.w3.org/2000/svg" width="88" height="88" viewBox="0 0 88 88">
  <g id="react-repair-support" transform="translate(-11 -11)">
    <g id="Group_3907" data-name="Group 3907" transform="translate(14.321 14.321)">
      <rect id="Rectangle_993" data-name="Rectangle 993" width="85" height="85" rx="9" transform="translate(-0.321 -0.321)" fill="#fcfeff"/>
    </g>
    <g id="Group_3913" data-name="Group 3913" transform="translate(11 11)">
      <rect id="Rectangle_994" data-name="Rectangle 994" width="83" height="83" rx="8" transform="translate(1 1)" fill="#f1f6fb"/>
      <g id="Group_3908" data-name="Group 3908" transform="translate(0.83 0.83)">
        <path id="Path_7839" data-name="Path 7839" d="M88.377,12H18.642A6.642,6.642,0,0,0,12,18.642v2.491a6.642,6.642,0,0,1,6.642-6.642H88.377a6.642,6.642,0,0,1,6.642,6.642V18.642A6.642,6.642,0,0,0,88.377,12Z" transform="translate(-12 -12)" fill="#fff"/>
      </g>
      <g id="Group_3912" data-name="Group 3912">
        <path id="Path_7840" data-name="Path 7840" d="M58.42,70.558A16.154,16.154,0,1,1,70.576,58.334l8.874,8.874a27.265,27.265,0,0,0,2.383-6.853H86.6a1.97,1.97,0,0,0,1.97-1.97V51.308a1.971,1.971,0,0,0-1.97-1.971H81.834a27.388,27.388,0,0,0-4.015-9.678l3.372-3.372a1.97,1.97,0,0,0,0-2.786l-5-5a1.971,1.971,0,0,0-2.787,0L70.028,31.87a27.388,27.388,0,0,0-9.678-4.015V23.093a1.971,1.971,0,0,0-1.971-1.971H51.3a1.97,1.97,0,0,0-1.97,1.971v4.762a27.382,27.382,0,0,0-9.678,4.015L36.284,28.5a1.971,1.971,0,0,0-2.787,0l-5,5a1.97,1.97,0,0,0,0,2.786l3.371,3.372a27.388,27.388,0,0,0-4.015,9.678H23.088a1.971,1.971,0,0,0-1.971,1.971v7.077a1.97,1.97,0,0,0,1.971,1.97H27.85a27.382,27.382,0,0,0,4.015,9.678L28.493,73.4a1.971,1.971,0,0,0,0,2.787l5,5a1.971,1.971,0,0,0,2.787,0l3.372-3.371a27.382,27.382,0,0,0,9.678,4.015V86.6a1.97,1.97,0,0,0,1.97,1.971H58.38A1.971,1.971,0,0,0,60.351,86.6V81.839a27.272,27.272,0,0,0,6.928-2.423Z" transform="translate(-12.718 -12.719)" fill="#f15151"/>
        <g id="Group_3911" data-name="Group 3911">
          <g id="Group_3910" data-name="Group 3910">
            <path id="Path_7841" data-name="Path 7841" d="M67.156,50.911a11.432,11.432,0,0,0-11.594-2.794l7.45,7.45-7.381,7.381-7.45-7.45A11.435,11.435,0,0,0,63.466,69.563L85.227,91.324a4.357,4.357,0,0,0,6.161,0h0a4.357,4.357,0,0,0,0-6.161L69.626,63.4A11.44,11.44,0,0,0,67.156,50.911Z" transform="translate(-17.22 -17.209)" fill="#2f5bea"/>
            <g id="Group_3909" data-name="Group 3909">
              <path id="Path_7842" data-name="Path 7842" d="M11.83,48.639a.829.829,0,0,0,.83-.83v-5.6a.83.83,0,0,0-1.66,0v5.6A.829.829,0,0,0,11.83,48.639Z" transform="translate(-11 -16.158)" fill="#3a2c60"/>
              <path id="Path_7843" data-name="Path 7843" d="M88.208,11H18.472A7.48,7.48,0,0,0,11,18.472V33.623a.83.83,0,1,0,1.66,0V18.472a5.819,5.819,0,0,1,5.811-5.811H88.208a5.819,5.819,0,0,1,5.811,5.811V88.208a5.819,5.819,0,0,1-5.811,5.811H18.472a5.819,5.819,0,0,1-5.811-5.811V45.66a.83.83,0,1,0-1.66,0V88.208a7.48,7.48,0,0,0,7.472,7.472H88.208a7.48,7.48,0,0,0,7.472-7.472V18.472A7.48,7.48,0,0,0,88.208,11Z" transform="translate(-11 -11)" fill="#1e0b4b"/>
              <path id="Path_7844" data-name="Path 7844" d="M22.918,48.338a2.8,2.8,0,0,0-2.8,2.8v7.077a2.8,2.8,0,0,0,2.8,2.8H27.01a28.06,28.06,0,0,0,3.624,8.734l-2.9,2.9a2.8,2.8,0,0,0,0,3.961l5,5a2.8,2.8,0,0,0,3.961,0l2.9-2.9a28.094,28.094,0,0,0,8.734,3.624v4.092a2.8,2.8,0,0,0,2.8,2.8H58.21a2.8,2.8,0,0,0,2.8-2.8V82.338a28.186,28.186,0,0,0,6.474-2.351A.83.83,0,0,0,67.7,78.66L58.837,69.8a.831.831,0,0,0-.77-.223A15.32,15.32,0,1,1,69.6,57.985a.832.832,0,0,0,.223.766l8.874,8.874a.822.822,0,0,0,.718.232.831.831,0,0,0,.61-.446,28.218,28.218,0,0,0,2.312-6.4h4.092a2.8,2.8,0,0,0,2.8-2.8V51.138a2.8,2.8,0,0,0-2.8-2.8H82.335A28.115,28.115,0,0,0,78.71,39.6l2.9-2.9a2.806,2.806,0,0,0,0-3.962l-5-5a2.78,2.78,0,0,0-1.98-.82h0a2.779,2.779,0,0,0-1.979.821l-2.9,2.9a28.074,28.074,0,0,0-8.734-3.625V22.922a2.8,2.8,0,0,0-2.8-2.8H51.135a2.8,2.8,0,0,0-2.8,2.8v4.092A28.082,28.082,0,0,0,39.6,30.639l-2.9-2.9a2.783,2.783,0,0,0-1.98-.821h0a2.783,2.783,0,0,0-1.98.82l-5,5a2.8,2.8,0,0,0,0,3.962l2.9,2.9a28.114,28.114,0,0,0-3.624,8.734Zm5.576,1a26.445,26.445,0,0,1,3.893-9.385.831.831,0,0,0-.1-1.045L28.91,35.532a1.144,1.144,0,0,1,0-1.614l5-5a1.14,1.14,0,0,1,1.613,0L38.9,32.287a.831.831,0,0,0,1.045.105A26.445,26.445,0,0,1,49.329,28.5a.83.83,0,0,0,.664-.814V22.922a1.142,1.142,0,0,1,1.142-1.14H58.21a1.141,1.141,0,0,1,1.141,1.14v4.762a.831.831,0,0,0,.665.814A26.441,26.441,0,0,1,69.4,32.392a.831.831,0,0,0,1.045-.105l3.372-3.371a1.167,1.167,0,0,1,1.612,0l5,5a1.142,1.142,0,0,1,0,1.614L77.062,38.9a.83.83,0,0,0-.105,1.045,26.444,26.444,0,0,1,3.893,9.385.831.831,0,0,0,.814.664h4.762a1.142,1.142,0,0,1,1.141,1.14v7.077a1.142,1.142,0,0,1-1.141,1.141H81.664a.831.831,0,0,0-.814.665,26.33,26.33,0,0,1-1.812,5.6l-7.727-7.727a17.008,17.008,0,1,0-13.329,13.4l7.712,7.712a26.3,26.3,0,0,1-5.678,1.847.831.831,0,0,0-.665.814v4.762a1.142,1.142,0,0,1-1.141,1.141H51.135a1.142,1.142,0,0,1-1.142-1.141V81.669a.83.83,0,0,0-.664-.814,26.444,26.444,0,0,1-9.385-3.893.83.83,0,0,0-1.045.105l-3.371,3.371a1.141,1.141,0,0,1-1.613,0l-5-5a1.143,1.143,0,0,1,0-1.613l3.372-3.372a.832.832,0,0,0,.1-1.046,26.41,26.41,0,0,1-3.893-9.383.831.831,0,0,0-.814-.665H22.918a1.142,1.142,0,0,1-1.141-1.141V51.138A1.142,1.142,0,0,1,22.918,50h4.763A.831.831,0,0,0,28.494,49.334Z" transform="translate(-12.548 -12.549)" fill="#1e0b4b"/>
              <path id="Path_7845" data-name="Path 7845" d="M48.6,54.74a.83.83,0,0,0-1.377.333A12.264,12.264,0,0,0,63.092,70.361L84.469,91.739A5.186,5.186,0,0,0,91.8,84.4L70.425,63.027A12.265,12.265,0,0,0,55.137,47.155a.831.831,0,0,0-.333,1.378L61.666,55.4,55.46,61.6Zm14.83,1.243a.829.829,0,0,0,0-1.174l-6.415-6.415A10.6,10.6,0,0,1,68.689,62.911a.831.831,0,0,0,.179.907L90.63,85.579a3.526,3.526,0,1,1-4.987,4.985L63.882,68.8a.83.83,0,0,0-.906-.178A10.6,10.6,0,0,1,48.457,56.948l6.416,6.416a.831.831,0,0,0,1.174,0Z" transform="translate(-17.049 -17.038)" fill="#1e0b4b"/>
            </g>
          </g>
          <path id="Path_7846" data-name="Path 7846" d="M97.328,94.994a1.606,1.606,0,1,0,0,2.271A1.606,1.606,0,0,0,97.328,94.994Z" transform="translate(-25.194 -25.183)" fill="#d4fbff"/>
        </g>
      </g>
    </g>
  </g>
</svg>
