<svg xmlns="http://www.w3.org/2000/svg" width="91.932" height="80.389" viewBox="0 0 91.932 80.389">
  <g id="reviewing-code" transform="translate(-6 -13)">
    <g id="Group_3889" data-name="Group 3889" transform="translate(9.168 16.168)">
      <rect id="Rectangle_991" data-name="Rectangle 991" width="89" height="77" rx="5" transform="translate(-0.236 0.221)" fill="#fcfeff"/>
    </g>
    <g id="Group_3895" data-name="Group 3895" transform="translate(6 13)">
      <g id="Group_3894" data-name="Group 3894">
        <rect id="Rectangle_992" data-name="Rectangle 992" width="87" height="76" rx="4" transform="translate(2.932 2.389)" fill="#f1f6fb"/>
        <path id="Path_7817" data-name="Path 7817" d="M77.963,65.583V61.04A1.265,1.265,0,0,0,76.7,59.775H73.64a17.568,17.568,0,0,0-2.577-6.213L73.228,51.4a1.265,1.265,0,0,0,0-1.789L70.015,46.4a1.265,1.265,0,0,0-1.789,0l-2.165,2.165a17.555,17.555,0,0,0-6.213-2.578V42.926a1.265,1.265,0,0,0-1.266-1.265H54.04a1.265,1.265,0,0,0-1.266,1.265v3.058a17.555,17.555,0,0,0-6.213,2.578L44.4,46.4a1.266,1.266,0,0,0-1.79,0L39.4,49.608a1.265,1.265,0,0,0,0,1.789l2.164,2.165a17.568,17.568,0,0,0-2.577,6.213H35.926a1.265,1.265,0,0,0-1.265,1.266v4.543a1.265,1.265,0,0,0,1.265,1.266h3.058a17.574,17.574,0,0,0,2.577,6.213L39.4,75.226a1.266,1.266,0,0,0,0,1.79l3.212,3.212a1.266,1.266,0,0,0,1.79,0l2.164-2.164a17.568,17.568,0,0,0,6.213,2.577V83.7a1.265,1.265,0,0,0,1.266,1.265h4.543A1.265,1.265,0,0,0,59.849,83.7V80.64a17.568,17.568,0,0,0,6.213-2.577l2.165,2.164a1.265,1.265,0,0,0,1.789,0l3.212-3.212a1.266,1.266,0,0,0,0-1.79l-2.164-2.164a17.574,17.574,0,0,0,2.577-6.213H76.7A1.265,1.265,0,0,0,77.963,65.583Zm-21.651,8.08A10.351,10.351,0,1,1,66.663,63.312,10.351,10.351,0,0,1,56.312,73.663Z" transform="translate(-11.963 -18.963)" fill="#f15151"/>
        <path id="Path_7818" data-name="Path 7818" d="M90.945,14H10.168A3.168,3.168,0,0,0,7,17.168v8.315H94.113V17.168A3.168,3.168,0,0,0,90.945,14Z" transform="translate(-6.208 -13.208)" fill="#2f5bea"/>
        <g id="Group_3890" data-name="Group 3890" transform="translate(0.792 0.792)">
          <path id="Path_7819" data-name="Path 7819" d="M9.376,86.858V17.168A3.168,3.168,0,0,1,12.544,14H10.168A3.168,3.168,0,0,0,7,17.168v69.69a3.168,3.168,0,0,0,3.168,3.168h2.376A3.168,3.168,0,0,1,9.376,86.858Z" transform="translate(-7 -14)" fill="#fff"/>
        </g>
        <path id="Path_7820" data-name="Path 7820" d="M95.181,19.083a1.848,1.848,0,1,0,1.848,1.848A1.848,1.848,0,0,0,95.181,19.083Z" transform="translate(-24.171 -14.266)" fill="#fff"/>
        <path id="Path_7821" data-name="Path 7821" d="M102.182,19.083a1.848,1.848,0,1,0,1.848,1.848A1.848,1.848,0,0,0,102.182,19.083Z" transform="translate(-25.627 -14.266)" fill="#d4fbff"/>
        <path id="Path_7822" data-name="Path 7822" d="M109.182,19.083a1.848,1.848,0,1,0,1.848,1.848A1.848,1.848,0,0,0,109.182,19.083Z" transform="translate(-27.084 -14.266)" fill="#fa759e"/>
        <g id="Group_3893" data-name="Group 3893">
          <path id="Path_7823" data-name="Path 7823" d="M27.738,78.427a1.959,1.959,0,0,1,0,2.7,2,2,0,0,1-1.35.463h-2.9a4.633,4.633,0,0,1-3.454-1.235,4.688,4.688,0,0,1-1.216-3.435V69.434a3.672,3.672,0,0,0-.54-2.239,2.6,2.6,0,0,0-1.93-.81A1.785,1.785,0,0,1,14.5,64.493a1.814,1.814,0,0,1,.482-1.311,1.935,1.935,0,0,1,1.37-.54,2.607,2.607,0,0,0,1.93-.811,3.67,3.67,0,0,0,.54-2.239V52.105a4.687,4.687,0,0,1,1.216-3.435,4.63,4.63,0,0,1,3.454-1.235h2.9a2,2,0,0,1,1.35.463,1.959,1.959,0,0,1,0,2.7,2,2,0,0,1-1.35.463H25.152a1.652,1.652,0,0,0-1.216.405,1.766,1.766,0,0,0-.405,1.292v7.41a4.636,4.636,0,0,1-.907,2.914,3.685,3.685,0,0,1-2.142,1.448,3.709,3.709,0,0,1,2.142,1.428,4.552,4.552,0,0,1,.907,2.895v7.41a1.769,1.769,0,0,0,.405,1.293,1.651,1.651,0,0,0,1.216.4h1.235A2,2,0,0,1,27.738,78.427Z" transform="translate(-7.769 -20.165)" fill="#f15151"/>
          <g id="Group_3892" data-name="Group 3892">
            <path id="Path_7824" data-name="Path 7824" d="M105.4,63.182a1.814,1.814,0,0,1,.483,1.311,1.929,1.929,0,0,1-.463,1.332,1.872,1.872,0,0,1-1.39.56,2.605,2.605,0,0,0-1.93.81,3.672,3.672,0,0,0-.539,2.239v7.487a4.689,4.689,0,0,1-1.216,3.435,4.631,4.631,0,0,1-3.454,1.235h-2.9a2,2,0,0,1-1.351-.463,1.959,1.959,0,0,1,0-2.7,2,2,0,0,1,1.351-.463h1.235a1.651,1.651,0,0,0,1.216-.4,1.769,1.769,0,0,0,.4-1.293v-7.41a4.547,4.547,0,0,1,.908-2.895A3.7,3.7,0,0,1,99.9,64.533a3.679,3.679,0,0,1-2.141-1.448,4.631,4.631,0,0,1-.908-2.914v-7.41a1.766,1.766,0,0,0-.4-1.292,1.652,1.652,0,0,0-1.216-.405H93.992a2,2,0,0,1-1.351-.463,1.959,1.959,0,0,1,0-2.7,2,2,0,0,1,1.351-.463h2.9a4.629,4.629,0,0,1,3.454,1.235,4.687,4.687,0,0,1,1.216,3.435v7.487a3.671,3.671,0,0,0,.539,2.239,2.609,2.609,0,0,0,1.93.811A1.935,1.935,0,0,1,105.4,63.182Z" transform="translate(-23.914 -20.165)" fill="#f15151"/>
            <g id="Group_3891" data-name="Group 3891">
              <path id="Path_7825" data-name="Path 7825" d="M76.49,58.775H74.069a18.263,18.263,0,0,0-2.2-5.31l1.715-1.715a2.06,2.06,0,0,0,0-2.91l-3.212-3.212a2.106,2.106,0,0,0-2.909,0l-1.715,1.715a18.266,18.266,0,0,0-5.311-2.2V42.718a2.059,2.059,0,0,0-2.057-2.057H53.832a2.059,2.059,0,0,0-2.057,2.057v2.422a18.252,18.252,0,0,0-5.31,2.2l-1.715-1.715a2.107,2.107,0,0,0-2.91,0l-3.213,3.213a2.061,2.061,0,0,0,0,2.909l1.715,1.715a18.239,18.239,0,0,0-2.2,5.31H35.717a2.06,2.06,0,0,0-2.057,2.057v4.543a2.06,2.06,0,0,0,2.057,2.057h2.422a18.257,18.257,0,0,0,2.2,5.31l-1.716,1.716a2.061,2.061,0,0,0,0,2.909l3.212,3.212a2.107,2.107,0,0,0,2.91,0l1.715-1.715a18.252,18.252,0,0,0,5.31,2.2V83.49a2.059,2.059,0,0,0,2.057,2.057h4.543a2.059,2.059,0,0,0,2.057-2.057V81.068a18.266,18.266,0,0,0,5.311-2.2l1.715,1.715a2.106,2.106,0,0,0,2.91,0l3.212-3.212a2.06,2.06,0,0,0,0-2.91l-1.715-1.715a18.272,18.272,0,0,0,2.2-5.31H76.49a2.06,2.06,0,0,0,2.057-2.057V60.832A2.06,2.06,0,0,0,76.49,58.775Zm.474,6.6a.474.474,0,0,1-.474.474H73.433a.793.793,0,0,0-.777.634,16.738,16.738,0,0,1-2.461,5.933.792.792,0,0,0,.1,1l2.164,2.164a.475.475,0,0,1,0,.67L69.247,79.46a.484.484,0,0,1-.669,0l-2.164-2.165a.792.792,0,0,0-1-.1,16.727,16.727,0,0,1-5.934,2.461.793.793,0,0,0-.634.776V83.49a.474.474,0,0,1-.474.473H53.832a.474.474,0,0,1-.474-.473V80.432a.793.793,0,0,0-.634-.776,16.7,16.7,0,0,1-5.932-2.461.791.791,0,0,0-1,.1L43.63,79.46a.475.475,0,0,1-.67,0l-3.211-3.212a.474.474,0,0,1,0-.67l2.164-2.164a.792.792,0,0,0,.1-1,16.7,16.7,0,0,1-2.461-5.933.793.793,0,0,0-.777-.634H35.717a.474.474,0,0,1-.474-.474V60.832a.474.474,0,0,1,.474-.474h3.058a.793.793,0,0,0,.777-.634,16.709,16.709,0,0,1,2.461-5.933.792.792,0,0,0-.1-1L39.748,50.63a.474.474,0,0,1,0-.67l3.212-3.212a.475.475,0,0,1,.67,0l2.164,2.165a.794.794,0,0,0,1,.1,16.7,16.7,0,0,1,5.932-2.461.793.793,0,0,0,.634-.776V42.718a.474.474,0,0,1,.474-.473h4.543a.474.474,0,0,1,.474.473v3.058a.793.793,0,0,0,.634.776,16.727,16.727,0,0,1,5.934,2.461.793.793,0,0,0,1-.1l2.165-2.165a.485.485,0,0,1,.668,0l3.212,3.212a.474.474,0,0,1,0,.669l-2.164,2.165a.792.792,0,0,0-.1,1,16.738,16.738,0,0,1,2.461,5.933.793.793,0,0,0,.777.634H76.49a.474.474,0,0,1,.474.474Z" transform="translate(-11.755 -18.755)" fill="#1e0b4b"/>
              <path id="Path_7826" data-name="Path 7826" d="M59.073,54.93A11.143,11.143,0,1,0,70.215,66.073,11.155,11.155,0,0,0,59.073,54.93Zm0,20.7a9.559,9.559,0,1,1,9.559-9.559A9.57,9.57,0,0,1,59.073,75.632Z" transform="translate(-14.724 -21.724)" fill="#1e0b4b"/>
              <path id="Path_7827" data-name="Path 7827" d="M27.292,29.084h6.929a.792.792,0,1,0,0-1.584H27.292a.792.792,0,0,0,0,1.584Z" transform="translate(-10.265 -16.017)" fill="#3a2c60"/>
              <path id="Path_7828" data-name="Path 7828" d="M90.737,13H9.96A3.964,3.964,0,0,0,6,16.96V86.65a3.964,3.964,0,0,0,3.96,3.96H90.737a3.964,3.964,0,0,0,3.96-3.96V16.96A3.964,3.964,0,0,0,90.737,13Zm0,76.026H9.96A2.379,2.379,0,0,1,7.584,86.65V26.067H19.2a.792.792,0,0,0,0-1.584H7.584V16.96A2.379,2.379,0,0,1,9.96,14.584H90.737a2.379,2.379,0,0,1,2.376,2.376v7.523H33.929a.792.792,0,0,0,0,1.584H93.113V86.65A2.379,2.379,0,0,1,90.737,89.026Z" transform="translate(-6 -13)" fill="#3a2c60"/>
              <path id="Path_7829" data-name="Path 7829" d="M23.044,63.36a5.425,5.425,0,0,0,1.071-3.4V52.554a1.13,1.13,0,0,1,.173-.733,1,1,0,0,1,.656-.173H26.18a2.781,2.781,0,0,0,1.865-.653,2.741,2.741,0,0,0,0-3.905,2.777,2.777,0,0,0-1.865-.653h-2.9a5.408,5.408,0,0,0-4.019,1.472,5.468,5.468,0,0,0-1.443,3.99v7.487a2.9,2.9,0,0,1-.373,1.753,2.011,2.011,0,0,1-1.339.506,2.7,2.7,0,0,0-1.906.782,2.587,2.587,0,0,0-.7,1.861,2.659,2.659,0,0,0,.694,1.87,2.629,2.629,0,0,0,1.886.81,2.038,2.038,0,0,1,1.369.508,2.883,2.883,0,0,1,.374,1.753v7.487A5.469,5.469,0,0,0,19.266,80.7a5.411,5.411,0,0,0,4.018,1.471h2.9a2.777,2.777,0,0,0,1.865-.653,2.741,2.741,0,0,0,0-3.905,2.781,2.781,0,0,0-1.865-.653H24.944a1,1,0,0,1-.656-.173,1.13,1.13,0,0,1-.173-.733v-7.41a5.347,5.347,0,0,0-1.075-3.383,5.239,5.239,0,0,0-.944-.943A5.22,5.22,0,0,0,23.044,63.36Zm-.512-3.4a3.831,3.831,0,0,1-.742,2.43,2.888,2.888,0,0,1-1.684,1.157.792.792,0,0,0,0,1.547,2.922,2.922,0,0,1,1.688,1.143,3.757,3.757,0,0,1,.738,2.407v7.41a2.519,2.519,0,0,0,.637,1.852,2.411,2.411,0,0,0,1.776.638H26.18a1.211,1.211,0,0,1,.835.273,1.2,1.2,0,0,1,0,1.5,1.211,1.211,0,0,1-.835.272h-2.9a3.854,3.854,0,0,1-2.89-1,3.9,3.9,0,0,1-.988-2.88V69.226A4.355,4.355,0,0,0,18.7,66.5a3.375,3.375,0,0,0-2.521-1.115,1.134,1.134,0,0,1-.823-.306,1.1,1.1,0,0,1-.272-.794,1,1,0,0,1,.261-.763,1.215,1.215,0,0,1,.866-.3A3.352,3.352,0,0,0,18.7,62.109a4.362,4.362,0,0,0,.706-2.725V51.9a3.905,3.905,0,0,1,.988-2.879,3.854,3.854,0,0,1,2.891-1h2.9a1.211,1.211,0,0,1,.835.272,1.2,1.2,0,0,1,0,1.5,1.211,1.211,0,0,1-.835.272H24.944a2.414,2.414,0,0,0-1.776.637,2.52,2.52,0,0,0-.638,1.854Z" transform="translate(-7.56 -19.957)" fill="#1e0b4b"/>
              <path id="Path_7830" data-name="Path 7830" d="M105.759,62.423a2.686,2.686,0,0,0-1.875-.779,2.04,2.04,0,0,1-1.37-.507,2.893,2.893,0,0,1-.373-1.753V51.9a5.466,5.466,0,0,0-1.444-3.991,5.4,5.4,0,0,0-4.019-1.471H93.784a2.778,2.778,0,0,0-1.866.653,2.742,2.742,0,0,0,0,3.9,2.777,2.777,0,0,0,1.866.654H95.02a1,1,0,0,1,.656.173,1.13,1.13,0,0,1,.173.733v7.409a5.42,5.42,0,0,0,1.071,3.4,5.22,5.22,0,0,0,.948.961,5.256,5.256,0,0,0-.943.942,5.34,5.34,0,0,0-1.075,3.384v7.41a1.129,1.129,0,0,1-.174.733,1,1,0,0,1-.655.173H93.784a2.782,2.782,0,0,0-1.866.653,2.743,2.743,0,0,0,0,3.905,2.778,2.778,0,0,0,1.866.653h2.895A5.4,5.4,0,0,0,100.7,80.7a5.465,5.465,0,0,0,1.444-3.991V69.226a2.9,2.9,0,0,1,.372-1.753,2,2,0,0,1,1.338-.505,2.632,2.632,0,0,0,1.949-.825,2.7,2.7,0,0,0,.664-1.857,2.591,2.591,0,0,0-.7-1.86Zm-1.142,2.668a1.185,1.185,0,0,1-.864.3,3.353,3.353,0,0,0-2.49,1.113,4.357,4.357,0,0,0-.706,2.725v7.487a3.9,3.9,0,0,1-.989,2.88,3.847,3.847,0,0,1-2.89,1H93.784a1.23,1.23,0,0,1-.835-.272,1.2,1.2,0,0,1,0-1.5,1.226,1.226,0,0,1,.835-.273H95.02a2.41,2.41,0,0,0,1.776-.637,2.52,2.52,0,0,0,.638-1.853v-7.41a3.748,3.748,0,0,1,.738-2.407A2.918,2.918,0,0,1,99.858,65.1a.792.792,0,0,0,0-1.547,2.884,2.884,0,0,1-1.684-1.158,3.826,3.826,0,0,1-.741-2.43V52.554A2.52,2.52,0,0,0,96.8,50.7a2.414,2.414,0,0,0-1.776-.637H93.784a1.228,1.228,0,0,1-.835-.273,1.2,1.2,0,0,1,0-1.5,1.23,1.23,0,0,1,.835-.272h2.895a3.847,3.847,0,0,1,2.89,1,3.9,3.9,0,0,1,.989,2.879v7.487a4.358,4.358,0,0,0,.706,2.726,3.38,3.38,0,0,0,2.52,1.115,1.181,1.181,0,0,1,.834.3,1.011,1.011,0,0,1,.262.763A1.159,1.159,0,0,1,104.617,65.091Z" transform="translate(-23.707 -19.957)" fill="#1e0b4b"/>
            </g>
          </g>
        </g>
      </g>
    </g>
  </g>
</svg>
