<svg xmlns="http://www.w3.org/2000/svg" width="91.396" height="91.396" viewBox="0 0 91.396 91.396">
  <g id="safe-communication" transform="translate(-29.167 -29.167)">
    <path id="Path_7623" data-name="Path 7623" d="M85.921,122.11A36.189,36.189,0,1,1,122.11,85.921,36.23,36.23,0,0,1,85.921,122.11Zm0-70.066A33.877,33.877,0,1,0,119.8,85.921,33.916,33.916,0,0,0,85.921,52.044Z" transform="translate(-11.056 -11.056)" fill="#1e0b4b"/>
    <path id="Path_7624" data-name="Path 7624" d="M109.4,124.8a3.469,3.469,0,0,1-3.2-4.8l13.473-32.386a3.468,3.468,0,0,1,6.4,2.664L112.6,122.664A3.46,3.46,0,0,1,109.4,124.8Zm13.475-37.01a1.159,1.159,0,0,0-1.069.712l-13.472,32.386a1.157,1.157,0,0,0,.623,1.511,1.173,1.173,0,0,0,1.512-.624L123.939,89.39a1.155,1.155,0,0,0-1.065-1.6Z" transform="translate(-41.27 -30.275)" fill="#2f5bea"/>
    <path id="Path_7625" data-name="Path 7625" d="M155.125,125.718a3.468,3.468,0,0,1-2.452-5.92l8.11-8.11-8.11-8.11a3.467,3.467,0,0,1,4.9-4.9l10.562,10.562a3.468,3.468,0,0,1,0,4.9L157.577,124.7A3.445,3.445,0,0,1,155.125,125.718Zm0-25.747a1.155,1.155,0,0,0-.817,1.972l8.927,8.927a1.155,1.155,0,0,1,0,1.634l-8.927,8.928a1.157,1.157,0,0,0,0,1.635,1.184,1.184,0,0,0,1.635,0L166.5,112.506a1.157,1.157,0,0,0,0-1.635l-10.562-10.562A1.153,1.153,0,0,0,155.125,99.971Z" transform="translate(-65.854 -36.824)" fill="#1e0b4b"/>
    <path id="Path_7626" data-name="Path 7626" d="M80.53,125.718a3.443,3.443,0,0,1-2.452-1.016L67.516,114.141a3.468,3.468,0,0,1,0-4.9L78.078,98.674a3.468,3.468,0,1,1,4.9,4.9l-8.11,8.11,8.11,8.11a3.468,3.468,0,0,1-2.452,5.92Zm0-25.747a1.152,1.152,0,0,0-.817.338L69.15,110.871a1.157,1.157,0,0,0,0,1.635l10.562,10.562a1.185,1.185,0,0,0,1.635,0,1.157,1.157,0,0,0,0-1.634l-8.927-8.928a1.155,1.155,0,0,1,0-1.634l8.927-8.927a1.155,1.155,0,0,0-.817-1.972Z" transform="translate(-20.071 -36.824)" fill="#2f5bea"/>
    <path id="Path_7627" data-name="Path 7627" d="M74.865,29.167a45.749,45.749,0,0,0-45.7,45.7,45.285,45.285,0,0,0,8.842,27.02L33.55,116.217A1.156,1.156,0,0,0,35,117.663l14.779-4.6a45.7,45.7,0,1,0,25.088-83.9Zm0,89.084a43.168,43.168,0,0,1-24.258-7.41,1.154,1.154,0,0,0-.99-.146l-13.2,4.108,3.98-12.793a1.156,1.156,0,0,0-.181-1.04,43.387,43.387,0,1,1,34.654,17.281Z" fill="#1e0b4b"/>
  </g>
</svg>
