<svg xmlns="http://www.w3.org/2000/svg" width="101.628" height="89.28" viewBox="0 0 101.628 89.28">
  <g id="seamless-framework" transform="translate(-1.393 -9)">
    <g id="Group_3915" data-name="Group 3915" transform="translate(4.64 12.247)">
      <path id="Path_7847" data-name="Path 7847" d="M101.8,74.176h-2.17a16.949,16.949,0,0,0-1.994-4.806l1.536-1.536a1.98,1.98,0,0,0,0-2.8L96.3,62.163v-45.1A4.063,4.063,0,0,0,92.238,13H9.451a4.063,4.063,0,0,0-4.058,4.058V88.482A4.063,4.063,0,0,0,9.451,92.54H67.89l1.888,1.887a1.98,1.98,0,0,0,2.8,0l1.536-1.536a16.963,16.963,0,0,0,4.806,1.994v2.17A1.981,1.981,0,0,0,80.9,99.034h4.19a1.98,1.98,0,0,0,1.978-1.978v-2.17a16.94,16.94,0,0,0,4.806-1.994l1.537,1.536a1.981,1.981,0,0,0,2.8,0l2.962-2.963a1.98,1.98,0,0,0,0-2.8l-1.536-1.537a16.963,16.963,0,0,0,1.994-4.806h2.17a1.981,1.981,0,0,0,1.978-1.978v-4.19A1.981,1.981,0,0,0,101.8,74.176Z" transform="translate(-5.393 -13)" fill="#fcfeff"/>
    </g>
    <g id="Group_3926" data-name="Group 3926" transform="translate(1.393 9)">
      <rect id="Rectangle_995" data-name="Rectangle 995" width="89" height="78" rx="4" transform="translate(1.207 0.64)" fill="#f1f6fb"/>
      <g id="Group_3922" data-name="Group 3922" transform="translate(8.523 20.291)">
        <g id="Group_3916" data-name="Group 3916" transform="translate(18.532)">
          <path id="Path_7848" data-name="Path 7848" d="M41.064,35.623H35.539a.812.812,0,1,1,0-1.623h5.526a.812.812,0,0,1,0,1.623Z" transform="translate(-34.727 -34)" fill="#f15151"/>
        </g>
        <g id="Group_3917" data-name="Group 3917">
          <path id="Path_7849" data-name="Path 7849" d="M26.368,35.623H12.706a.812.812,0,0,1,0-1.623H26.368a.812.812,0,0,1,0,1.623Z" transform="translate(-11.894 -34)" fill="#f15151"/>
        </g>
        <g id="Group_3918" data-name="Group 3918" transform="translate(15.691 28.407)">
          <path id="Path_7850" data-name="Path 7850" d="M40.4,70.623H32.039a.812.812,0,0,1,0-1.623H40.4a.812.812,0,0,1,0,1.623Z" transform="translate(-31.227 -69)" fill="#f15151"/>
        </g>
        <g id="Group_3919" data-name="Group 3919" transform="translate(0 28.407)">
          <path id="Path_7851" data-name="Path 7851" d="M25.15,70.623H12.706a.812.812,0,0,1,0-1.623H25.15a.812.812,0,1,1,0,1.623Z" transform="translate(-11.894 -69)" fill="#f15151"/>
        </g>
        <g id="Group_3920" data-name="Group 3920" transform="translate(12.029 45.452)">
          <path id="Path_7852" data-name="Path 7852" d="M39.555,91.623H27.527a.812.812,0,1,1,0-1.623H39.555a.812.812,0,1,1,0,1.623Z" transform="translate(-26.715 -90)" fill="#f15151"/>
        </g>
        <g id="Group_3921" data-name="Group 3921" transform="translate(0 45.452)">
          <path id="Path_7853" data-name="Path 7853" d="M18.928,91.623H12.706a.812.812,0,1,1,0-1.623h6.223a.812.812,0,0,1,0,1.623Z" transform="translate(-11.894 -90)" fill="#f15151"/>
        </g>
      </g>
      <g id="Group_3923" data-name="Group 3923" transform="translate(0.812 73.047)">
        <path id="Path_7854" data-name="Path 7854" d="M88.427,102.247H5.64A3.247,3.247,0,0,1,2.393,99v2.435a3.247,3.247,0,0,0,3.247,3.247H88.427a3.246,3.246,0,0,0,3.247-3.247V99A3.246,3.246,0,0,1,88.427,102.247Z" transform="translate(-2.393 -99)" fill="#fff"/>
      </g>
      <path id="Path_7855" data-name="Path 7855" d="M88.427,10H5.64a3.247,3.247,0,0,0-3.247,3.247v8.522h89.28V13.247A3.246,3.246,0,0,0,88.427,10Z" transform="translate(-1.581 -9.188)" fill="#2f5bea"/>
      <path id="Path_7856" data-name="Path 7856" d="M90.621,15.083a1.894,1.894,0,1,0,1.894,1.894A1.894,1.894,0,0,0,90.621,15.083Z" transform="translate(-17.843 -10.146)" fill="#fff"/>
      <path id="Path_7857" data-name="Path 7857" d="M97.621,15.083a1.894,1.894,0,1,0,1.894,1.894A1.894,1.894,0,0,0,97.621,15.083Z" transform="translate(-19.162 -10.146)" fill="#d4fbff"/>
      <path id="Path_7858" data-name="Path 7858" d="M104.621,15.083a1.894,1.894,0,1,0,1.894,1.894A1.894,1.894,0,0,0,104.621,15.083Z" transform="translate(-20.481 -10.146)" fill="#fa759e"/>
      <g id="Group_3925" data-name="Group 3925">
        <path id="Path_7859" data-name="Path 7859" d="M112.337,86.854V82.662A1.167,1.167,0,0,0,111.17,81.5h-2.82a16.223,16.223,0,0,0-2.378-5.732l2-2a1.166,1.166,0,0,0,0-1.65l-2.962-2.963a1.167,1.167,0,0,0-1.651,0l-2,2a16.218,16.218,0,0,0-5.731-2.377v-2.82a1.167,1.167,0,0,0-1.167-1.167H90.27A1.167,1.167,0,0,0,89.1,65.953v2.82a16.212,16.212,0,0,0-5.731,2.377l-2-2a1.167,1.167,0,0,0-1.651,0l-2.963,2.963a1.167,1.167,0,0,0,0,1.65l2,2A16.237,16.237,0,0,0,76.381,81.5H73.56a1.167,1.167,0,0,0-1.167,1.166v4.191A1.167,1.167,0,0,0,73.56,88.02h2.82a16.237,16.237,0,0,0,2.377,5.732l-2,2a1.167,1.167,0,0,0,0,1.65l2.963,2.963a1.167,1.167,0,0,0,1.651,0l2-2a16.2,16.2,0,0,0,5.731,2.377v2.82a1.167,1.167,0,0,0,1.167,1.167h4.19a1.167,1.167,0,0,0,1.167-1.167v-2.82a16.2,16.2,0,0,0,5.731-2.377l2,2a1.167,1.167,0,0,0,1.651,0l2.962-2.963a1.166,1.166,0,0,0,0-1.65l-2-2a16.223,16.223,0,0,0,2.378-5.732h2.82A1.167,1.167,0,0,0,112.337,86.854ZM92.365,94.306a9.548,9.548,0,1,1,9.549-9.548A9.548,9.548,0,0,1,92.365,94.306Z" transform="translate(-14.767 -19.508)" fill="#f15151"/>
        <g id="Group_3924" data-name="Group 3924">
          <path id="Path_7860" data-name="Path 7860" d="M52.038,42.623h24.6a.812.812,0,0,0,0-1.623h-24.6a.812.812,0,0,0,0,1.623Z" transform="translate(-10.78 -15.028)" fill="#1e0b4b"/>
          <path id="Path_7861" data-name="Path 7861" d="M19.706,42.623H40.131a.812.812,0,0,0,0-1.623H19.706a.812.812,0,1,0,0,1.623Z" transform="translate(-4.69 -15.028)" fill="#1e0b4b"/>
          <path id="Path_7862" data-name="Path 7862" d="M37.315,48.812a.811.811,0,0,0,.812.812H82.134a.812.812,0,0,0,0-1.623H38.127A.811.811,0,0,0,37.315,48.812Z" transform="translate(-8.159 -16.346)" fill="#1e0b4b"/>
          <path id="Path_7863" data-name="Path 7863" d="M19.706,49.623h10.01a.812.812,0,1,0,0-1.623H19.706a.812.812,0,0,0,0,1.623Z" transform="translate(-4.69 -16.346)" fill="#1e0b4b"/>
          <path id="Path_7864" data-name="Path 7864" d="M19.706,56.623H78.664a.812.812,0,0,0,0-1.623H19.706a.812.812,0,0,0,0,1.623Z" transform="translate(-4.69 -17.665)" fill="#1e0b4b"/>
          <path id="Path_7865" data-name="Path 7865" d="M82.11,62H72.472a.812.812,0,0,0,0,1.623H82.11a.812.812,0,0,0,0-1.623Z" transform="translate(-14.629 -18.983)" fill="#1e0b4b"/>
          <path id="Path_7866" data-name="Path 7866" d="M19.706,63.623H58.461a.812.812,0,0,0,0-1.623H19.706a.812.812,0,0,0,0,1.623Z" transform="translate(-4.69 -18.983)" fill="#1e0b4b"/>
          <path id="Path_7867" data-name="Path 7867" d="M68.374,76h-8.5a.812.812,0,0,0,0,1.623h8.5a.812.812,0,0,0,0-1.623Z" transform="translate(-12.255 -21.62)" fill="#1e0b4b"/>
          <path id="Path_7868" data-name="Path 7868" d="M19.706,77.623H47.781a.812.812,0,0,0,0-1.623H19.706a.812.812,0,0,0,0,1.623Z" transform="translate(-4.69 -21.62)" fill="#1e0b4b"/>
          <path id="Path_7869" data-name="Path 7869" d="M55.126,83H19.706a.812.812,0,0,0,0,1.623H55.126a.812.812,0,1,0,0-1.623Z" transform="translate(-4.69 -22.939)" fill="#1e0b4b"/>
          <path id="Path_7870" data-name="Path 7870" d="M66.706,25.123h7.1a.812.812,0,1,0,0-1.623h-7.1a.812.812,0,1,0,0,1.623Z" transform="translate(-13.543 -11.731)" fill="#1e0b4b"/>
          <path id="Path_7871" data-name="Path 7871" d="M97.8,70.176h-2.17a16.9,16.9,0,0,0-1.994-4.806l1.538-1.536a1.981,1.981,0,0,0,0-2.8L92.3,58.163V13.058A4.063,4.063,0,0,0,88.239,9H5.451a4.063,4.063,0,0,0-4.058,4.058V84.482A4.063,4.063,0,0,0,5.451,88.54H63.89l1.887,1.887a1.98,1.98,0,0,0,2.8,0l1.538-1.536a16.929,16.929,0,0,0,4.8,1.994v2.17A1.981,1.981,0,0,0,76.9,95.034h4.19a1.981,1.981,0,0,0,1.979-1.979v-2.17a16.963,16.963,0,0,0,4.806-1.994l1.536,1.536a1.98,1.98,0,0,0,2.8,0l2.964-2.962a1.981,1.981,0,0,0,0-2.8l-1.538-1.537a16.9,16.9,0,0,0,1.994-4.806H97.8a1.981,1.981,0,0,0,1.98-1.978V72.154A1.981,1.981,0,0,0,97.8,70.176ZM3.016,84.482V22.392H50.633a.812.812,0,1,0,0-1.623H3.016V13.058a2.437,2.437,0,0,1,2.435-2.435H88.239a2.438,2.438,0,0,1,2.435,2.435v7.711H65.729a.812.812,0,1,0,0,1.623H90.674V57.506a1.961,1.961,0,0,0-1.266.567l-1.536,1.536a16.924,16.924,0,0,0-4.806-1.993v-2.17a1.982,1.982,0,0,0-1.979-1.98H76.9a1.981,1.981,0,0,0-1.979,1.98v2.17a16.9,16.9,0,0,0-4.8,1.993l-1.538-1.536a1.98,1.98,0,0,0-2.8,0l-2.962,2.962a1.98,1.98,0,0,0,0,2.8l1.536,1.536a16.922,16.922,0,0,0-1.994,4.806h-2.17a1.981,1.981,0,0,0-1.978,1.978v4.191a1.981,1.981,0,0,0,1.978,1.978h2.17a16.916,16.916,0,0,0,1.994,4.806l-1.536,1.537a1.972,1.972,0,0,0-.378,2.251H5.451A2.437,2.437,0,0,1,3.016,84.482Zm95.136-8.137a.356.356,0,0,1-.356.355h-2.82a.813.813,0,0,0-.8.65,15.314,15.314,0,0,1-2.259,5.444.812.812,0,0,0,.1,1.023l2,2a.356.356,0,0,1,0,.5L91.058,89.28a.357.357,0,0,1-.5,0l-2-2a.813.813,0,0,0-1.022-.1,15.369,15.369,0,0,1-5.444,2.26.812.812,0,0,0-.65.8v2.82a.356.356,0,0,1-.355.355H76.9a.355.355,0,0,1-.355-.355v-2.82a.812.812,0,0,0-.65-.8,15.356,15.356,0,0,1-5.444-2.26.812.812,0,0,0-1.022.1l-2,2a.357.357,0,0,1-.5,0l-2.962-2.962a.356.356,0,0,1,0-.5l2-2a.813.813,0,0,0,.1-1.023A15.316,15.316,0,0,1,63.8,77.35a.812.812,0,0,0-.8-.65h-2.82a.355.355,0,0,1-.355-.355V72.154a.355.355,0,0,1,.355-.355h2.82a.812.812,0,0,0,.8-.65,15.35,15.35,0,0,1,2.26-5.445.812.812,0,0,0-.1-1.022l-2-2a.356.356,0,0,1,0-.5l2.962-2.962a.357.357,0,0,1,.5,0l2,2a.811.811,0,0,0,1.022.1,15.336,15.336,0,0,1,5.444-2.258.813.813,0,0,0,.65-.8v-2.82a.356.356,0,0,1,.355-.356h4.19a.356.356,0,0,1,.355.356v2.82a.813.813,0,0,0,.65.8,15.342,15.342,0,0,1,5.444,2.258.812.812,0,0,0,1.022-.1l2-2a.357.357,0,0,1,.5,0l2.964,2.962a.356.356,0,0,1,0,.5l-2,2a.812.812,0,0,0-.1,1.023A15.314,15.314,0,0,1,94.18,71.15a.813.813,0,0,0,.8.65H97.8a.356.356,0,0,1,.356.355Z" transform="translate(-1.393 -9)" fill="#1e0b4b"/>
          <path id="Path_7872" data-name="Path 7872" d="M94.6,76.629A10.36,10.36,0,1,0,104.956,86.99,10.371,10.371,0,0,0,94.6,76.629Zm0,19.1a8.736,8.736,0,1,1,8.737-8.736A8.745,8.745,0,0,1,94.6,95.725Z" transform="translate(-16.998 -21.739)" fill="#1e0b4b"/>
        </g>
      </g>
    </g>
  </g>
</svg>
