<svg xmlns="http://www.w3.org/2000/svg" xmlns:xlink="http://www.w3.org/1999/xlink" width="90.831" height="82.664" viewBox="0 0 90.831 82.664">
  <defs>
    <linearGradient id="linear-gradient" y1="1.236" x2="0.92" gradientUnits="objectBoundingBox">
      <stop offset="0" stop-color="#1e0b4b"/>
      <stop offset="1" stop-color="#8f005b"/>
    </linearGradient>
  </defs>
  <g id="simple-to-auth" transform="translate(-1.5 -3.5)">
    <path id="Path_7765" data-name="Path 7765" d="M81.623,4H12.208A10.218,10.218,0,0,0,2,14.208v49A10.218,10.218,0,0,0,12.208,73.415H34.547c-.561,5.359-3.291,8.166-6.006,8.166a2.042,2.042,0,1,0,0,4.083H65.29a2.042,2.042,0,0,0,0-4.083c-2.715,0-5.445-2.807-6.006-8.166H81.623A10.218,10.218,0,0,0,91.831,63.207v-49A10.218,10.218,0,0,0,81.623,4ZM12.208,8.083H81.623a6.132,6.132,0,0,1,6.125,6.125V53H6.083V14.208A6.132,6.132,0,0,1,12.208,8.083Zm45.656,73.5h-21.9a16.227,16.227,0,0,0,2.654-8.166H55.21A16.227,16.227,0,0,0,57.865,81.581Zm23.758-12.25H12.208a6.132,6.132,0,0,1-6.125-6.125V57.082H87.748v6.125A6.132,6.132,0,0,1,81.623,69.331Z" stroke="rgba(0,0,0,0)" stroke-width="1" fill="url(#linear-gradient)"/>
    <path id="Path_7766" data-name="Path 7766" d="M28.125,32H24.042a2.042,2.042,0,1,0,0,4.083h4.083a2.042,2.042,0,1,0,0-4.083Z" transform="translate(20.832 29.165)" stroke="rgba(0,0,0,0)" stroke-width="1" fill="url(#linear-gradient)"/>
    <path id="Path_7767" data-name="Path 7767" d="M23.652,14.6a2.039,2.039,0,0,0-2.887,0l-2.64,2.64-2.64-2.64A2.041,2.041,0,0,0,12.6,17.485l2.64,2.64-2.64,2.64a2.041,2.041,0,1,0,2.887,2.887l2.64-2.64,2.64,2.64a2.041,2.041,0,1,0,2.887-2.887l-2.64-2.64,2.64-2.64A2.039,2.039,0,0,0,23.652,14.6Z" transform="translate(10.416 10.416)" stroke="rgba(0,0,0,0)" stroke-width="1" fill="url(#linear-gradient)"/>
    <path id="Path_7768" data-name="Path 7768" d="M32.652,14.6a2.039,2.039,0,0,0-2.887,0l-2.64,2.64-2.64-2.64A2.041,2.041,0,0,0,21.6,17.485l2.64,2.64-2.64,2.64a2.041,2.041,0,1,0,2.887,2.887l2.64-2.64,2.64,2.64a2.041,2.041,0,0,0,2.887-2.887l-2.64-2.64,2.64-2.64A2.039,2.039,0,0,0,32.652,14.6Z" transform="translate(19.79 10.416)" stroke="rgba(0,0,0,0)" stroke-width="1" fill="url(#linear-gradient)"/>
    <path id="Path_7769" data-name="Path 7769" d="M41.652,14.6a2.039,2.039,0,0,0-2.887,0l-2.64,2.64-2.64-2.64A2.041,2.041,0,0,0,30.6,17.485l2.64,2.64-2.64,2.64a2.041,2.041,0,1,0,2.887,2.887l2.64-2.64,2.64,2.64a2.041,2.041,0,0,0,2.887-2.887l-2.64-2.64,2.64-2.64A2.039,2.039,0,0,0,41.652,14.6Z" transform="translate(29.165 10.416)" stroke="rgba(0,0,0,0)" stroke-width="1" fill="url(#linear-gradient)"/>
    <path id="Path_7770" data-name="Path 7770" d="M10.042,38.583H71.29a2.04,2.04,0,0,0,2.042-2.042v-24.5A2.04,2.04,0,0,0,71.29,10H10.042A2.04,2.04,0,0,0,8,12.042v24.5A2.04,2.04,0,0,0,10.042,38.583Zm2.042-24.5H69.248V34.5H12.083Z" transform="translate(6.25 6.25)" stroke="rgba(0,0,0,0)" stroke-width="1" fill="url(#linear-gradient)"/>
  </g>
</svg>
