<svg xmlns="http://www.w3.org/2000/svg" width="92.039" height="91.628" viewBox="0 0 92.039 91.628">
  <g id="simple-to-grasp" transform="translate(-31.5 -31.965)">
    <path id="Path_7600" data-name="Path 7600" d="M50.1,118.412a1.192,1.192,0,0,1-1.192-1.192V60.692a1.192,1.192,0,0,1,2.384,0V117.22A1.192,1.192,0,0,1,50.1,118.412Z" transform="translate(-9.106 -14.404)" fill="#1e0b4b"/>
    <path id="Path_7601" data-name="Path 7601" d="M203.285,118.412a1.192,1.192,0,0,1-1.192-1.192V60.692a1.192,1.192,0,0,1,2.384,0V117.22A1.192,1.192,0,0,1,203.285,118.412Z" transform="translate(-89.24 -14.404)" fill="#1e0b4b"/>
    <g id="Group_3642" data-name="Group 3642" transform="translate(31.5 31.965)">
      <path id="Path_7602" data-name="Path 7602" d="M119.962,31.965H35.077A3.581,3.581,0,0,0,31.5,35.542v64.923a3.58,3.58,0,0,0,3.577,3.577H67.816a9.583,9.583,0,0,1-2.731,9.449l-1.627,1.519H59.875a4.292,4.292,0,1,0,0,8.584h35.29a4.292,4.292,0,0,0,0-8.584H91.581l-1.628-1.519a9.584,9.584,0,0,1-2.73-9.449h32.739a3.58,3.58,0,0,0,3.577-3.577V35.542A3.581,3.581,0,0,0,119.962,31.965ZM35.077,34.349h84.886a1.194,1.194,0,0,1,1.192,1.192V45.1H33.884V35.542A1.194,1.194,0,0,1,35.077,34.349Zm62,84.952a1.909,1.909,0,0,1-1.908,1.908H59.875a1.908,1.908,0,1,1,0-3.815h35.29A1.909,1.909,0,0,1,97.072,119.3Zm-8.979-4.292H66.946a11.97,11.97,0,0,0,3.322-10.968h14.5A11.97,11.97,0,0,0,88.093,115.009Zm31.87-13.352H35.077a1.194,1.194,0,0,1-1.192-1.192V47.48h87.27v52.984A1.194,1.194,0,0,1,119.962,101.657Z" transform="translate(-31.5 -31.965)" fill="#1e0b4b"/>
      <path id="Path_7603" data-name="Path 7603" d="M48.335,48.5a3.457,3.457,0,1,0-3.457-3.457A3.461,3.461,0,0,0,48.335,48.5Zm0-4.53a1.073,1.073,0,1,1-1.073,1.073A1.074,1.074,0,0,1,48.335,43.973Z" transform="translate(-38.498 -36.999)" fill="#1e0b4b"/>
      <path id="Path_7604" data-name="Path 7604" d="M66.835,48.5a3.457,3.457,0,1,0-3.457-3.457A3.461,3.461,0,0,0,66.835,48.5Zm0-4.53a1.073,1.073,0,1,1-1.073,1.073A1.074,1.074,0,0,1,66.835,43.973Z" transform="translate(-48.176 -36.999)" fill="#1e0b4b"/>
      <path id="Path_7605" data-name="Path 7605" d="M85.336,48.5a3.457,3.457,0,1,0-3.457-3.457A3.462,3.462,0,0,0,85.336,48.5Zm0-4.53a1.073,1.073,0,1,1-1.073,1.073A1.074,1.074,0,0,1,85.336,43.973Z" transform="translate(-57.854 -36.999)" fill="#1e0b4b"/>
      <path id="Path_7606" data-name="Path 7606" d="M175.025,48.723h13.83a1.192,1.192,0,1,0,0-2.384h-13.83a1.192,1.192,0,1,0,0,2.384Z" transform="translate(-105.956 -39.484)" fill="#2f5bea"/>
    </g>
    <path id="Path_7607" data-name="Path 7607" d="M70.077,119.884a3.576,3.576,0,0,1-2.529-6.106l8.364-8.365-8.364-8.365a3.577,3.577,0,0,1,5.058-5.058L83.5,102.885a3.576,3.576,0,0,1,0,5.058L72.606,118.836A3.553,3.553,0,0,1,70.077,119.884Zm0-26.555a1.192,1.192,0,0,0-.843,2.034l9.208,9.208a1.192,1.192,0,0,1,0,1.686l-9.208,9.208a1.193,1.193,0,0,0,0,1.686,1.223,1.223,0,0,0,1.687,0l10.893-10.894a1.193,1.193,0,0,0,0-1.686L70.92,93.677A1.19,1.19,0,0,0,70.077,93.329Z" transform="translate(-18.309 -30.853)" fill="#2f5bea"/>
    <path id="Path_7608" data-name="Path 7608" d="M123.016,143.664H102.332a3.63,3.63,0,0,1,0-7.261h20.683a3.63,3.63,0,0,1,0,7.261Zm-20.683-4.876a1.246,1.246,0,0,0,0,2.492h20.683a1.246,1.246,0,0,0,0-2.492Z" transform="translate(-35.154 -54.633)" fill="#1e0b4b"/>
  </g>
</svg>
