<svg xmlns="http://www.w3.org/2000/svg" width="77.586" height="91.791" viewBox="0 0 77.586 91.791">
  <g id="small-dimention" transform="translate(-38.827 -26.5)">
    <path id="Path_7595" data-name="Path 7595" d="M106.038,110.622a16.911,16.911,0,1,1,16.656-19.85,1.088,1.088,0,1,1-2.143.375,14.734,14.734,0,1,0,0,5.109,1.088,1.088,0,0,1,2.143.373A16.87,16.87,0,0,1,106.038,110.622Z" transform="translate(-28.418 -28.418)" fill="#2f5bea"/>
    <g id="Group_3640" data-name="Group 3640" transform="translate(38.827 26.5)">
      <path id="Path_7596" data-name="Path 7596" d="M121.117,173.379h0L118.1,172.6l1.584-2.684a2.535,2.535,0,0,0-.392-3.079l-2.322-2.322a2.537,2.537,0,0,0-3.08-.392l-2.684,1.584-.778-3.02a2.537,2.537,0,0,0-2.455-1.9h-3.283a2.536,2.536,0,0,0-2.455,1.9l-.777,3.018-2.685-1.585a2.536,2.536,0,0,0-3.079.392l-2.322,2.321a2.536,2.536,0,0,0-.391,3.08l1.584,2.683-3.019.779a2.536,2.536,0,0,0-1.9,2.454v3.283a2.537,2.537,0,0,0,1.9,2.455l3.017.777-1.584,2.685a2.535,2.535,0,0,0,.392,3.079l2.322,2.322a2.537,2.537,0,0,0,3.08.392l2.683-1.584.778,3.019a2.536,2.536,0,0,0,2.455,1.9h3.283a2.537,2.537,0,0,0,2.455-1.9l.777-3.018,2.685,1.585a2.535,2.535,0,0,0,3.079-.392l2.322-2.322a2.537,2.537,0,0,0,.391-3.08l-1.584-2.683,3.019-.778a2.536,2.536,0,0,0,1.9-2.455v-3.283A2.536,2.536,0,0,0,121.117,173.379Zm-.276,5.738a.36.36,0,0,1-.269.349l-4.418,1.138a1.087,1.087,0,0,0-.665,1.606l2.319,3.927a.363.363,0,0,1-.056.439l-2.321,2.321a.361.361,0,0,1-.437.057l-3.929-2.319a1.088,1.088,0,0,0-1.606.666l-1.138,4.416a.361.361,0,0,1-.349.271h-3.283a.361.361,0,0,1-.349-.269L103.2,187.3a1.088,1.088,0,0,0-1.606-.666l-3.927,2.318a.36.36,0,0,1-.438-.055l-2.322-2.321a.361.361,0,0,1-.057-.437l2.319-3.929a1.087,1.087,0,0,0-.665-1.606l-4.416-1.138a.361.361,0,0,1-.27-.349v-3.283a.36.36,0,0,1,.269-.349l4.417-1.138a1.087,1.087,0,0,0,.665-1.606l-2.318-3.927a.36.36,0,0,1,.056-.438l2.322-2.322a.358.358,0,0,1,.436-.056l3.929,2.319a1.088,1.088,0,0,0,1.606-.665l1.138-4.417a.361.361,0,0,1,.349-.27h3.283a.361.361,0,0,1,.349.269l1.138,4.418a1.088,1.088,0,0,0,1.606.665L114.993,166a.36.36,0,0,1,.438.056l2.322,2.322a.36.36,0,0,1,.056.436l-2.319,3.929a1.087,1.087,0,0,0,.665,1.606l4.416,1.138a.361.361,0,0,1,.271.349Z" transform="translate(-67.538 -102.369)" fill="#1e0b4b"/>
      <path id="Path_7597" data-name="Path 7597" d="M120.052,185.076a6.12,6.12,0,1,0,6.12,6.12A6.127,6.127,0,0,0,120.052,185.076Zm0,10.065A3.945,3.945,0,1,1,124,191.2,3.949,3.949,0,0,1,120.052,195.141Z" transform="translate(-81.259 -116.091)" fill="#2f5bea"/>
      <path id="Path_7598" data-name="Path 7598" d="M77.62,26.5A38.793,38.793,0,0,0,38.827,65.293,38.958,38.958,0,0,0,58.11,98.83a1.088,1.088,0,0,0,1.1-1.88A36.658,36.658,0,0,1,46.484,84.525l9.959-5.75a1.088,1.088,0,1,0-1.088-1.884L45.4,82.641a36.532,36.532,0,0,1-.021-34.708l9.979,5.761a1.088,1.088,0,1,0,1.088-1.884l-9.976-5.759a36.792,36.792,0,0,1,4.749-6.129A36.282,36.282,0,0,1,76.532,28.7v11.51a1.088,1.088,0,0,0,2.175,0V28.7a36.625,36.625,0,0,1,30.054,17.356L98.8,51.811a1.088,1.088,0,1,0,1.088,1.884l9.97-5.756a36.485,36.485,0,0,1-.015,34.7l-9.955-5.748A1.088,1.088,0,1,0,98.8,78.775l9.957,5.749A36.665,36.665,0,0,1,96.1,96.911a1.088,1.088,0,0,0,1.1,1.877A38.8,38.8,0,0,0,77.62,26.5Z" transform="translate(-38.827 -26.5)" fill="#1e0b4b"/>
    </g>
    <path id="Path_7599" data-name="Path 7599" d="M119.15,113.636a6.822,6.822,0,1,1,5.633-10.657h15.988a3.828,3.828,0,1,1,0,7.657H124.8a6.8,6.8,0,0,1-5.647,3Zm0-11.461a4.643,4.643,0,1,0,3.283,7.926,4.664,4.664,0,0,0,.8-1.071,1.087,1.087,0,0,1,.956-.569h16.585a1.653,1.653,0,1,0,0-3.306h-16.6a1.089,1.089,0,0,1-.954-.566,4.623,4.623,0,0,0-4.07-2.414Z" transform="translate(-41.53 -41.525)" fill="#1e0b4b"/>
  </g>
</svg>
