<svg id="strategizing" xmlns="http://www.w3.org/2000/svg" width="85.849" height="85.849" viewBox="0 0 85.849 85.849">
  <path id="Path_8671" data-name="Path 8671" d="M80.483,32.193h-7.2a32.165,32.165,0,0,0-1.309-3.139l5.1-5.1a5.365,5.365,0,0,0,0-7.589L69.484,8.778a5.5,5.5,0,0,0-7.59,0l-5.1,5.1a32.16,32.16,0,0,0-3.139-1.309v-7.2A5.372,5.372,0,0,0,48.29,0H37.559a5.372,5.372,0,0,0-5.366,5.366v7.2a32.161,32.161,0,0,0-3.139,1.309l-5.1-5.1a5.493,5.493,0,0,0-7.589,0L8.778,16.365a5.367,5.367,0,0,0,0,7.59l5.1,5.1a32.161,32.161,0,0,0-1.309,3.139h-7.2A5.372,5.372,0,0,0,0,37.559V48.29a5.372,5.372,0,0,0,5.366,5.366h7.2a32.16,32.16,0,0,0,1.309,3.139l-5.1,5.1a5.365,5.365,0,0,0,0,7.589l7.587,7.589a5.5,5.5,0,0,0,7.59,0,1.789,1.789,0,1,0-2.531-2.529,1.83,1.83,0,0,1-2.529,0l-7.589-7.589a1.788,1.788,0,0,1,0-2.529l6.017-6.015a1.791,1.791,0,0,0,.315-2.1,28.342,28.342,0,0,1-2.068-4.965,1.79,1.79,0,0,0-1.71-1.263h-8.5A1.791,1.791,0,0,1,3.577,48.29V37.559A1.791,1.791,0,0,1,5.366,35.77h8.5a1.79,1.79,0,0,0,1.71-1.263,28.342,28.342,0,0,1,2.068-4.965,1.791,1.791,0,0,0-.315-2.1l-6.017-6.015a1.788,1.788,0,0,1,0-2.529L18.9,11.307a1.83,1.83,0,0,1,2.529,0l6.015,6.017a1.79,1.79,0,0,0,2.1.315,28.342,28.342,0,0,1,4.965-2.068,1.79,1.79,0,0,0,1.263-1.71v-8.5a1.791,1.791,0,0,1,1.789-1.789H48.29a1.791,1.791,0,0,1,1.789,1.789v8.5a1.79,1.79,0,0,0,1.263,1.71,28.342,28.342,0,0,1,4.965,2.068,1.784,1.784,0,0,0,2.1-.315l6.015-6.017a1.83,1.83,0,0,1,2.529,0L74.542,18.9a1.788,1.788,0,0,1,0,2.529l-6.017,6.015a1.791,1.791,0,0,0-.315,2.1,28.342,28.342,0,0,1,2.068,4.965,1.79,1.79,0,0,0,1.71,1.263h8.5a1.791,1.791,0,0,1,1.789,1.789V48.29a1.791,1.791,0,0,1-1.789,1.789h-8.5a1.79,1.79,0,0,0-1.71,1.263,28.342,28.342,0,0,1-2.068,4.965,1.791,1.791,0,0,0,.315,2.1l6.017,6.015a1.788,1.788,0,0,1,0,2.529l-7.589,7.589a1.83,1.83,0,0,1-2.529,0,1.789,1.789,0,0,0-2.531,2.529,5.365,5.365,0,0,0,7.589,0l7.589-7.587a5.367,5.367,0,0,0,0-7.59l-5.1-5.1a32.164,32.164,0,0,0,1.309-3.139h7.2a5.372,5.372,0,0,0,5.366-5.366V37.559A5.372,5.372,0,0,0,80.483,32.193Z" fill="#1e0b4b"/>
  <path id="Path_8672" data-name="Path 8672" d="M47.982,67.29H46.193V63.713a3.581,3.581,0,0,0-3.577-3.577V54.77a1.789,1.789,0,0,0-1.789-1.789H39.039V44.039h1.789a1.789,1.789,0,1,0,0-3.577H39.039V36.885h1.789A1.789,1.789,0,0,0,42.616,35.1V30.472l1.264-1.264a1.784,1.784,0,0,0,.524-1.264V20.789A1.789,1.789,0,0,0,42.616,19H35.462a1.789,1.789,0,0,0-1.789,1.789v3.577H30.1V20.789A1.789,1.789,0,0,0,28.308,19H21.154a1.789,1.789,0,0,0-1.789,1.789v7.154a1.784,1.784,0,0,0,.524,1.264l1.264,1.264V35.1a1.789,1.789,0,0,0,1.789,1.789h1.789v3.577H22.943a1.789,1.789,0,1,0,0,3.577h1.789v8.943H22.943a1.789,1.789,0,0,0-1.789,1.789v5.366a3.581,3.581,0,0,0-3.577,3.577V67.29H15.789a1.789,1.789,0,1,0,0,3.577H47.982a1.789,1.789,0,1,0,0-3.577ZM24.207,28.467,22.943,27.2V22.577H26.52v3.577a1.789,1.789,0,0,0,1.789,1.789h7.154a1.789,1.789,0,0,0,1.789-1.789V22.577h3.577V27.2l-1.264,1.264a1.784,1.784,0,0,0-.524,1.264v3.577H33.674a1.789,1.789,0,1,0,0,3.577h1.789v3.577H28.308V35.1a1.789,1.789,0,0,0-1.789-1.789H24.731V29.731A1.784,1.784,0,0,0,24.207,28.467ZM35.462,44.039v8.943H28.308V44.039ZM42.616,67.29H21.154V63.713h12.52a1.789,1.789,0,0,0,0-3.577H24.731V56.559H39.039v5.366a1.789,1.789,0,0,0,1.789,1.789h1.789Z" transform="translate(11.039 14.982)" fill="#1e0b4b"/>
  <path id="Path_8673" data-name="Path 8673" d="M5.789,23a1.789,1.789,0,1,0,0,3.577H7.577a1.789,1.789,0,1,0,0-3.577Z" transform="translate(3.154 18.136)" fill="#1e0b4b"/>
  <path id="Path_8674" data-name="Path 8674" d="M44.577,26.577a1.789,1.789,0,1,0,0-3.577H42.789a1.789,1.789,0,0,0,0,3.577Z" transform="translate(32.329 18.136)" fill="#1e0b4b"/>
  <path id="Path_8675" data-name="Path 8675" d="M26.577,7.577V5.789a1.789,1.789,0,1,0-3.577,0V7.577a1.789,1.789,0,1,0,3.577,0Z" transform="translate(18.136 3.154)" fill="#1e0b4b"/>
</svg>
