<svg xmlns="http://www.w3.org/2000/svg" width="94.865" height="105.345" viewBox="0 0 94.865 105.345">
  <g id="Strong-security" transform="translate(0)">
    <path id="Path_7212" data-name="Path 7212" d="M98.23,19.767c-15.326,0-35.5-5.173-42.686-14.754a2.734,2.734,0,0,0-4.221,0C44.138,14.594,23.961,19.767,8.635,19.767A2.634,2.634,0,0,0,6,22.4V56.659c0,28.976,25.163,46.444,46.708,52.6a2.607,2.607,0,0,0,1.449,0c21.545-6.156,46.708-23.624,46.708-52.6V22.4A2.634,2.634,0,0,0,98.23,19.767ZM95.594,56.659c0,25.724-22.544,41.493-42.162,47.324C33.814,98.152,11.27,82.383,11.27,56.659V24.993c15.228-.516,33.242-5.426,42.162-14.4,8.92,8.97,26.934,13.879,42.162,14.4Z" transform="translate(-6 -4.017)" fill="#1e0b4b"/>
    <path id="Path_7213" data-name="Path 7213" d="M24.5,27.036a2.635,2.635,0,1,0-3.726,3.726l5.27,5.27a2.634,2.634,0,0,0,3.726,0L40.309,25.491a2.635,2.635,0,1,0-3.726-3.726l-8.677,8.677Z" transform="translate(16.891 23.743)" fill="#1e0b4b"/>
    <path id="Path_7214" data-name="Path 7214" d="M14,40.345A26.351,26.351,0,1,0,40.351,13.994,26.381,26.381,0,0,0,14,40.345Zm47.432,0A21.081,21.081,0,1,1,40.351,19.264,21.1,21.1,0,0,1,61.432,40.345Z" transform="translate(7.081 12.297)" fill="#1e0b4b"/>
  </g>
</svg>
