<svg xmlns="http://www.w3.org/2000/svg" width="117.881" height="91.396" viewBox="0 0 117.881 91.396">
  <g id="super-flexible-and-lightweight" transform="translate(-21.5 -47)">
    <path id="Path_7613" data-name="Path 7613" d="M99.932,159.531a5.266,5.266,0,1,1,5.265-5.266A5.272,5.272,0,0,1,99.932,159.531Zm0-7.711a2.445,2.445,0,1,0,2.445,2.445A2.447,2.447,0,0,0,99.932,151.821Z" transform="translate(-31.888 -44.455)" fill="#1e0b4b"/>
    <path id="Path_7614" data-name="Path 7614" d="M185.932,191.125a5.266,5.266,0,1,1,5.265-5.265A5.272,5.272,0,0,1,185.932,191.125Zm0-7.711a2.445,2.445,0,1,0,2.445,2.445A2.447,2.447,0,0,0,185.932,183.415Z" transform="translate(-69.37 -58.224)" fill="#2f5bea"/>
    <path id="Path_7615" data-name="Path 7615" d="M191.142,130.518H171.906a1.41,1.41,0,0,1-1.41-1.41V109.871a1.411,1.411,0,0,1,1.41-1.41h19.236a1.411,1.411,0,0,1,1.41,1.41v19.236A1.41,1.41,0,0,1,191.142,130.518ZM173.317,127.7h16.415V111.282H173.317Z" transform="translate(-64.937 -26.787)" fill="#1e0b4b"/>
    <g id="Group_3646" data-name="Group 3646" transform="translate(21.5 47)">
      <path id="Path_7616" data-name="Path 7616" d="M190.632,79h-36.52a4.564,4.564,0,0,0-4.558,4.559v64.224a4.564,4.564,0,0,0,4.558,4.559h36.52a4.564,4.564,0,0,0,4.559-4.559V83.559A4.564,4.564,0,0,0,190.632,79Zm1.738,68.783a1.74,1.74,0,0,1-1.738,1.738h-36.52a1.74,1.74,0,0,1-1.738-1.738V83.559a1.74,1.74,0,0,1,1.738-1.738h36.52a1.74,1.74,0,0,1,1.738,1.738Z" transform="translate(-77.31 -60.947)" fill="#1e0b4b"/>
      <path id="Path_7617" data-name="Path 7617" d="M89.513,118.085H25.731a1.412,1.412,0,0,1-1.41-1.41V51.231a1.412,1.412,0,0,1,1.41-1.41h84.626a1.412,1.412,0,0,1,1.41,1.41v8.886a1.41,1.41,0,0,0,2.821,0V51.231A4.236,4.236,0,0,0,110.357,47H25.731A4.236,4.236,0,0,0,21.5,51.231v65.444a4.236,4.236,0,0,0,4.231,4.231H89.513a1.41,1.41,0,0,0,0-2.821Z" transform="translate(-21.5 -47)" fill="#1e0b4b"/>
      <path id="Path_7618" data-name="Path 7618" d="M189,122.11l-4.551,4.55-2.225-2.225a1.41,1.41,0,0,0-1.994,1.995l3.223,3.223a1.41,1.41,0,0,0,1.994,0l5.547-5.547A1.41,1.41,0,0,0,189,122.11Z" transform="translate(-90.498 -79.555)" fill="#1e0b4b"/>
      <path id="Path_7619" data-name="Path 7619" d="M108.4,90.159V86.382A3.076,3.076,0,0,0,106.1,83.4h0l-3.267-.842,1.715-2.907a3.077,3.077,0,0,0-.476-3.736l-2.67-2.67a3.077,3.077,0,0,0-3.738-.475l-2.9,1.715-.842-3.269a3.076,3.076,0,0,0-2.978-2.3H87.159a3.077,3.077,0,0,0-2.978,2.306l-.842,3.267-2.907-1.716a3.076,3.076,0,0,0-3.735.476L74.025,75.92a3.078,3.078,0,0,0-.474,3.737l1.715,2.9L72,83.4a3.076,3.076,0,0,0-2.305,2.978v3.777A3.077,3.077,0,0,0,72,93.138l3.267.842L73.55,96.886a3.077,3.077,0,0,0,.476,3.736l2.67,2.67a3.077,3.077,0,0,0,3.738.475l2.9-1.715.842,3.268a3.077,3.077,0,0,0,2.978,2.305h3.778a3.077,3.077,0,0,0,2.978-2.307l.842-3.267,2.907,1.716a3.077,3.077,0,0,0,3.735-.476l2.671-2.671a3.078,3.078,0,0,0,.474-3.737l-1.715-2.9,3.268-.842A3.076,3.076,0,0,0,108.4,90.159Zm-2.821,0a.255.255,0,0,1-.19.247l-5.083,1.31a1.41,1.41,0,0,0-.863,2.082l2.667,4.518a.256.256,0,0,1-.039.31L99.4,101.3a.255.255,0,0,1-.308.04l-4.52-2.667a1.41,1.41,0,0,0-2.083.863l-1.309,5.08a.256.256,0,0,1-.247.192H87.159a.255.255,0,0,1-.247-.19L85.6,99.533a1.411,1.411,0,0,0-2.083-.863L79,101.337a.256.256,0,0,1-.31-.039l-2.671-2.67a.256.256,0,0,1-.04-.31l2.667-4.52a1.41,1.41,0,0,0-.863-2.082L72.7,90.406a.256.256,0,0,1-.192-.247V86.382a.255.255,0,0,1,.19-.247l5.083-1.31a1.411,1.411,0,0,0,.863-2.083l-2.667-4.518a.256.256,0,0,1,.039-.31l2.672-2.671A.254.254,0,0,1,79,75.2l4.52,2.667a1.41,1.41,0,0,0,2.083-.863l1.309-5.08a.255.255,0,0,1,.247-.191h3.778a.255.255,0,0,1,.247.19l1.309,5.082a1.41,1.41,0,0,0,2.083.863L99.093,75.2a.253.253,0,0,1,.31.039l2.671,2.67a.255.255,0,0,1,.04.309l-2.667,4.52a1.411,1.411,0,0,0,.863,2.083l5.083,1.31a.255.255,0,0,1,.19.247Z" transform="translate(-42.503 -56.552)" fill="#2f5bea"/>
      <path id="Path_7620" data-name="Path 7620" d="M98.438,90.46a7.2,7.2,0,1,0,7.2,7.2A7.209,7.209,0,0,0,98.438,90.46Zm0,11.58a4.379,4.379,0,1,1,4.38-4.379A4.385,4.385,0,0,1,98.438,102.04Z" transform="translate(-51.893 -65.941)" fill="#2f5bea"/>
    </g>
    <path id="Path_7621" data-name="Path 7621" d="M110.953,61.571H40.243a1.41,1.41,0,0,1,0-2.821h70.71a1.41,1.41,0,0,1,0,2.821Z" transform="translate(-7.554 -5.121)" fill="#1e0b4b"/>
    <path id="Path_7622" data-name="Path 7622" d="M192.223,93.821h-28.35a1.41,1.41,0,0,1,0-2.821h28.35a1.41,1.41,0,1,1,0,2.821Z" transform="translate(-61.436 -19.176)" fill="#1e0b4b"/>
  </g>
</svg>
