<svg xmlns="http://www.w3.org/2000/svg" width="89.684" height="67.457" viewBox="0 0 89.684 67.457">
  <g id="team-of-professionals" transform="translate(-844.044 -257.479)">
    <g id="Group_3645" data-name="Group 3645">
      <path id="Path_7886" data-name="Path 7886" d="M860.327,287.857c-4.582,0-8.485-5.566-8.7-12.41a5.762,5.762,0,0,0-.078-.826l-.052-.281a5.972,5.972,0,0,0-.189-.751c-.4-1.257-1.136-4.417.6-6.589,2.107-2.637,8.128-4.819,13.949-2.057a6.476,6.476,0,0,1,3.45,9.343l-.268.465v.141C869.036,281.153,865.536,287.857,860.327,287.857Zm-.105-21.553c-2.926,0-5.362,1.215-6.26,2.339-.771.965-.58,2.777-.146,4.152a8.493,8.493,0,0,1,.27,1.075l.052.281a8.3,8.3,0,0,1,.119,1.213c.165,5.253,3,9.862,6.07,9.862,3.084,0,5.9-4.632,6.069-9.844a12.266,12.266,0,0,1-6.945-.846,5.57,5.57,0,0,0-1.831-.493l-1.315.023-.047-2.631,1.315-.024a7.708,7.708,0,0,1,2.806.662,9.924,9.924,0,0,0,6.836.454,4.127,4.127,0,0,0,.144-2.637,4.589,4.589,0,0,0-2.631-2.569A10.489,10.489,0,0,0,860.222,266.3Z" fill="#1e0b4b"/>
    </g>
    <g id="Group_3646" data-name="Group 3646">
      <path id="Path_7887" data-name="Path 7887" d="M873.6,295.815l-.918-.942c-.108-.111-.219-.219-.335-.323a6.8,6.8,0,0,0-1.283-.906,6.729,6.729,0,0,0-3.209-.813h-1.316V290.2h1.316a9.315,9.315,0,0,1,6.249,2.393c.16.142.314.291.463.444l.919.943Z" fill="#1e0b4b"/>
    </g>
    <g id="Group_3647" data-name="Group 3647">
      <path id="Path_7888" data-name="Path 7888" d="M860.942,311.851h-16.9V299.535a9.351,9.351,0,0,1,9.346-9.336h1.316v2.632H853.39a6.715,6.715,0,0,0-6.713,6.7v9.684h14.265Z" fill="#1e0b4b"/>
    </g>
    <g id="Group_3650" data-name="Group 3650">
      <g id="Group_3648" data-name="Group 3648">
        <rect id="Rectangle_958" data-name="Rectangle 958" width="2.632" height="7.115" transform="translate(863.236 285.495) rotate(-10.798)" fill="#1e0b4b"/>
      </g>
      <g id="Group_3649" data-name="Group 3649">
        <rect id="Rectangle_959" data-name="Rectangle 959" width="7.74" height="2.632" transform="matrix(0.152, -0.988, 0.988, 0.152, 854.138, 292.003)" fill="#1e0b4b"/>
      </g>
    </g>
    <g id="Group_3651" data-name="Group 3651">
      <path id="Path_7889" data-name="Path 7889" d="M860.536,298.322a5.6,5.6,0,0,1-4.591-2.393l-3.31-4.744,2.158-1.507,3.311,4.744a2.965,2.965,0,0,0,4.878-.022l3.234-4.719,2.171,1.488-3.233,4.719A5.6,5.6,0,0,1,860.536,298.322Z" fill="#1e0b4b"/>
    </g>
    <g id="Group_3660" data-name="Group 3660">
      <g id="Group_3652" data-name="Group 3652">
        <path id="Path_7890" data-name="Path 7890" d="M917.149,287.857c-5.21,0-8.71-6.7-8.71-12.965l0-.142-.264-.464a6.477,6.477,0,0,1,3.449-9.343c5.821-2.763,11.842-.58,13.949,2.057,1.735,2.173,1,5.332.6,6.589a6.078,6.078,0,0,0-.191.748l-.049.282a5.514,5.514,0,0,0-.08.828C925.635,282.29,921.732,287.857,917.149,287.857ZM911.08,275.38c.167,5.213,2.984,9.846,6.069,9.846,3.069,0,5.905-4.608,6.07-9.861a7.918,7.918,0,0,1,.12-1.211l.05-.282a8.708,8.708,0,0,1,.271-1.077c.435-1.374.625-3.187-.145-4.152-1.337-1.673-6.074-3.544-10.766-1.322a4.6,4.6,0,0,0-2.633,2.569,4.127,4.127,0,0,0,.146,2.637,9.629,9.629,0,0,0,7.887-1.04,7.681,7.681,0,0,1,2.168-.891l1.295-.233.465,2.591-1.3.233a6.075,6.075,0,0,0-1.4.625A11.966,11.966,0,0,1,911.08,275.38Z" fill="#1e0b4b"/>
      </g>
      <g id="Group_3653" data-name="Group 3653">
        <path id="Path_7891" data-name="Path 7891" d="M933.727,311.851h-2.633V299.536a6.716,6.716,0,0,0-6.709-6.709h-1.317V290.2h1.317a9.352,9.352,0,0,1,9.342,9.341Z" fill="#1e0b4b"/>
      </g>
      <g id="Group_3654" data-name="Group 3654">
        <path id="Path_7892" data-name="Path 7892" d="M904.183,295.807l-1.887-1.835.918-.944a9.274,9.274,0,0,1,6.7-2.829h1.317v2.632H909.91a6.66,6.66,0,0,0-4.809,2.033Z" fill="#1e0b4b"/>
      </g>
      <g id="Group_3655" data-name="Group 3655">
        <rect id="Rectangle_960" data-name="Rectangle 960" width="16.893" height="2.632" transform="translate(916.834 309.219)" fill="#1e0b4b"/>
      </g>
      <g id="Group_3658" data-name="Group 3658">
        <g id="Group_3656" data-name="Group 3656">
          <rect id="Rectangle_961" data-name="Rectangle 961" width="2.632" height="7.115" transform="translate(919.761 285.495) rotate(-10.798)" fill="#1e0b4b"/>
        </g>
        <g id="Group_3657" data-name="Group 3657">
          <rect id="Rectangle_962" data-name="Rectangle 962" width="7.74" height="2.632" transform="matrix(0.152, -0.988, 0.988, 0.152, 910.662, 292.003)" fill="#1e0b4b"/>
        </g>
      </g>
      <g id="Group_3659" data-name="Group 3659">
        <path id="Path_7893" data-name="Path 7893" d="M917.06,298.322a5.6,5.6,0,0,1-4.59-2.393l-3.311-4.744,2.158-1.507,3.311,4.744a2.966,2.966,0,0,0,4.879-.022l3.232-4.719,2.171,1.487-3.231,4.72A5.6,5.6,0,0,1,917.06,298.322Z" fill="#1e0b4b"/>
      </g>
    </g>
    <g id="Group_3668" data-name="Group 3668">
      <g id="Group_3661" data-name="Group 3661">
        <path id="Path_7894" data-name="Path 7894" d="M888.887,289.226c-6.123,0-11.3-7.8-11.3-17.042v-.537l-.156-.045-.265-.464a9.013,9.013,0,0,1-.734-6.609c.711-2.262,2.458-4.065,5.187-5.359,7.646-3.628,15.525-.793,18.274,2.648,2.363,2.958,1.081,7.456.631,8.765a2.8,2.8,0,0,0-.111.43l-.207,1.147a1.713,1.713,0,0,0-.026.3C900.074,281.549,894.9,289.226,888.887,289.226Zm-8.664-16.933c.039,7.5,4.151,14.3,8.664,14.3s8.574-6.618,8.663-14.163a4.5,4.5,0,0,1,.069-.741l.206-1.14a5.47,5.47,0,0,1,.211-.819c.243-.706,1.367-4.312-.2-6.271-1.886-2.359-8.539-5.016-15.091-1.912a6.614,6.614,0,0,0-3.805,3.772,6.181,6.181,0,0,0,.3,4.058,13.6,13.6,0,0,0,11.208-1.383c1.526-.811,2.967-1.578,4.584-1.046l1.25.411-.822,2.5-1.25-.411c-.526-.175-1.266.2-2.527.87A15.825,15.825,0,0,1,880.223,272.293Z" fill="#1e0b4b"/>
      </g>
      <g id="Group_3662" data-name="Group 3662">
        <path id="Path_7895" data-name="Path 7895" d="M913.466,324.936H864.31V306.851A13.563,13.563,0,0,1,877.857,293.3h22.061a13.563,13.563,0,0,1,13.548,13.548ZM866.942,322.3h43.891V306.851a10.928,10.928,0,0,0-10.915-10.916H877.857a10.928,10.928,0,0,0-10.915,10.916Z" fill="#1e0b4b"/>
      </g>
      <g id="Group_3663" data-name="Group 3663">
        <path id="Path_7896" data-name="Path 7896" d="M892.029,300.969l-2.566-.584,1.013-4.45h-3.231l.866,4.5-2.585.5-1.167-6.068a1.316,1.316,0,0,1,1.292-1.564h6.474a1.316,1.316,0,0,1,1.283,1.608Z" fill="#1e0b4b"/>
      </g>
      <g id="Group_3664" data-name="Group 3664">
        <path id="Path_7897" data-name="Path 7897" d="M888.891,316.389l-5.946-4.987,2.518-12.929h6.857l2.516,12.929Zm-3.065-6.007,3.065,2.572,3.064-2.572-1.8-9.278h-2.517Z" fill="#1e0b4b"/>
      </g>
      <g id="Group_3667" data-name="Group 3667">
        <g id="Group_3665" data-name="Group 3665">
          <rect id="Rectangle_963" data-name="Rectangle 963" width="2.632" height="6.109" transform="translate(893.434 289.393) rotate(-10.798)" fill="#1e0b4b"/>
        </g>
        <g id="Group_3666" data-name="Group 3666">
          <rect id="Rectangle_964" data-name="Rectangle 964" width="9.527" height="2.632" transform="matrix(0.152, -0.988, 0.988, 0.152, 880.656, 294.898)" fill="#1e0b4b"/>
        </g>
      </g>
    </g>
  </g>
</svg>
