<svg xmlns="http://www.w3.org/2000/svg" width="74.482" height="82.574" viewBox="0 0 74.482 82.574">
  <g id="the-efficiency-of-time" transform="translate(-722.009 -569.78)">
    <g id="Group_3723" data-name="Group 3723" transform="translate(751.146 601.005)">
      <g id="Group_3720" data-name="Group 3720" transform="translate(0 3.824)">
        <g id="Group_3719" data-name="Group 3719">
          <path id="Path_7926" data-name="Path 7926" d="M753.709,618.5c-3.156,0-5.93-1.29-7.238-3.368l-.867-1.376,2.75-1.733.866,1.374a5.407,5.407,0,0,0,4.489,1.85c4.737,0,4.737-1.787,4.737-2.645s0-2.645-4.737-2.645c-5,0-7.99-2.2-7.99-5.9s2.987-5.9,7.99-5.9a8.776,8.776,0,0,1,6.866,2.849l1.02,1.266-2.531,2.04-1.019-1.266a5.724,5.724,0,0,0-4.336-1.637c-2.162,0-4.738.458-4.738,2.646s2.576,2.644,4.738,2.644c6.95,0,7.988,3.694,7.988,5.9S760.659,618.5,753.709,618.5Z" transform="translate(-745.604 -598.162)" fill="#1e0b4b"/>
        </g>
      </g>
      <g id="Group_3721" data-name="Group 3721" transform="translate(6.479)">
        <rect id="Rectangle_986" data-name="Rectangle 986" width="3.251" height="7.075" fill="#1e0b4b"/>
      </g>
      <g id="Group_3722" data-name="Group 3722" transform="translate(6.479 21.141)">
        <rect id="Rectangle_987" data-name="Rectangle 987" width="3.251" height="7.076" fill="#1e0b4b"/>
      </g>
    </g>
    <g id="Group_3724" data-name="Group 3724" transform="translate(730.847 586.709)">
      <path id="Path_7927" data-name="Path 7927" d="M757.57,640.3a28.4,28.4,0,1,1,28.4-28.4A28.436,28.436,0,0,1,757.57,640.3Zm0-53.556a25.152,25.152,0,1,0,25.152,25.152A25.181,25.181,0,0,0,757.57,586.74Z" transform="translate(-729.166 -583.489)" fill="#1e0b4b"/>
    </g>
    <g id="Group_3725" data-name="Group 3725" transform="translate(722.009 577.872)">
      <path id="Path_7928" data-name="Path 7928" d="M759.251,650.815a37.241,37.241,0,1,1,37.241-37.242A37.284,37.284,0,0,1,759.251,650.815Zm0-71.231a33.99,33.99,0,1,0,33.989,33.989A34.028,34.028,0,0,0,759.251,579.584Z" transform="translate(-722.009 -576.333)" fill="#1e0b4b"/>
    </g>
    <g id="Group_3731" data-name="Group 3731" transform="translate(738.845 582.789)">
      <g id="Group_3726" data-name="Group 3726" transform="translate(43.29)">
        <rect id="Rectangle_988" data-name="Rectangle 988" width="10.1" height="3.251" transform="translate(0 7.142) rotate(-45)" fill="#1e0b4b"/>
      </g>
      <g id="Group_3727" data-name="Group 3727" transform="translate(34.471 11.92)">
        <rect id="Rectangle_989" data-name="Rectangle 989" width="5.715" height="3.251" transform="translate(0 4.041) rotate(-45)" fill="#1e0b4b"/>
      </g>
      <g id="Group_3728" data-name="Group 3728" transform="translate(0 46.39)">
        <rect id="Rectangle_990" data-name="Rectangle 990" width="5.715" height="3.251" transform="translate(0 4.041) rotate(-45)" fill="#1e0b4b"/>
      </g>
      <g id="Group_3729" data-name="Group 3729" transform="translate(0 11.92)">
        <rect id="Rectangle_991" data-name="Rectangle 991" width="3.251" height="5.715" transform="translate(0 2.299) rotate(-45)" fill="#1e0b4b"/>
      </g>
      <g id="Group_3730" data-name="Group 3730" transform="translate(34.471 46.39)">
        <rect id="Rectangle_992" data-name="Rectangle 992" width="3.251" height="5.715" transform="translate(0 2.299) rotate(-45)" fill="#1e0b4b"/>
      </g>
    </g>
    <g id="Group_3736" data-name="Group 3736" transform="translate(732.018 587.882)">
      <g id="Group_3732" data-name="Group 3732" transform="translate(48.749 25.606)">
        <rect id="Rectangle_993" data-name="Rectangle 993" width="5.715" height="3.251" fill="#1e0b4b"/>
      </g>
      <g id="Group_3733" data-name="Group 3733" transform="translate(0 25.606)">
        <rect id="Rectangle_994" data-name="Rectangle 994" width="5.716" height="3.251" fill="#1e0b4b"/>
      </g>
      <g id="Group_3734" data-name="Group 3734" transform="translate(25.607)">
        <rect id="Rectangle_995" data-name="Rectangle 995" width="3.251" height="5.715" fill="#1e0b4b"/>
      </g>
      <g id="Group_3735" data-name="Group 3735" transform="translate(25.607 48.748)">
        <rect id="Rectangle_996" data-name="Rectangle 996" width="3.251" height="5.716" fill="#1e0b4b"/>
      </g>
    </g>
    <g id="Group_3737" data-name="Group 3737" transform="translate(752.807 569.78)">
      <path id="Path_7929" data-name="Path 7929" d="M759.838,580.484h-3.251v-7.453H750.2v7.453h-3.251v-10.7h12.889Z" transform="translate(-746.949 -569.78)" fill="#1e0b4b"/>
    </g>
    <g id="Group_3738" data-name="Group 3738" transform="translate(750.389 569.78)">
      <rect id="Rectangle_997" data-name="Rectangle 997" width="17.724" height="3.251" fill="#1e0b4b"/>
    </g>
    <g id="Group_3739" data-name="Group 3739" transform="translate(785.731 580.37)">
      <rect id="Rectangle_998" data-name="Rectangle 998" width="3.251" height="8.079" transform="translate(0 2.299) rotate(-45)" fill="#1e0b4b"/>
    </g>
  </g>
</svg>
