<svg xmlns="http://www.w3.org/2000/svg" width="95.098" height="82.574" viewBox="0 0 95.098 82.574">
  <g id="updated-resources" transform="translate(-194.14 -1353.681)">
    <g id="Group_3740" data-name="Group 3740" transform="translate(198.323 1362.022)">
      <path id="Path_7930" data-name="Path 7930" d="M204.17,1427.48V1381.4a7.726,7.726,0,0,1,7.717-7.717h2.5a1.46,1.46,0,0,1,0,2.919h-2.5a4.8,4.8,0,0,0-4.8,4.8v43.161l80.906-.013V1381.4a4.8,4.8,0,0,0-4.8-4.8H280.28a1.46,1.46,0,1,1,0-2.919H283.2a7.726,7.726,0,0,1,7.717,7.717v46.067Z" transform="translate(-204.17 -1373.681)" fill="#1e0b4b"/>
    </g>
    <g id="Group_3741" data-name="Group 3741" transform="translate(273.091 1366.734)">
      <path id="Path_7931" data-name="Path 7931" d="M388.547,1426.977a1.46,1.46,0,0,1-1.46-1.46v-35.441a2.179,2.179,0,0,0-2.176-2.176,1.46,1.46,0,1,1,0-2.919,5.1,5.1,0,0,1,5.1,5.1v35.441A1.46,1.46,0,0,1,388.547,1426.977Z" transform="translate(-383.452 -1384.981)" fill="#1e0b4b"/>
    </g>
    <g id="Group_3742" data-name="Group 3742" transform="translate(202.91 1366.734)">
      <path id="Path_7932" data-name="Path 7932" d="M216.63,1426.977a1.46,1.46,0,0,1-1.46-1.46v-35.441a5.1,5.1,0,0,1,5.1-5.1,1.46,1.46,0,1,1,0,2.919,2.179,2.179,0,0,0-2.177,2.176v35.441A1.46,1.46,0,0,1,216.63,1426.977Z" transform="translate(-215.17 -1384.981)" fill="#1e0b4b"/>
    </g>
    <g id="Group_3743" data-name="Group 3743" transform="translate(194.14 1413.177)">
      <path id="Path_7933" data-name="Path 7933" d="M195.6,1514.354a1.461,1.461,0,0,1-1.408-1.849l4.173-15.092a1.46,1.46,0,0,1,2.814.778l-4.173,15.092A1.46,1.46,0,0,1,195.6,1514.354Z" transform="translate(-194.14 -1496.342)" fill="#1e0b4b"/>
    </g>
    <g id="Group_3744" data-name="Group 3744" transform="translate(281.774 1413.177)">
      <path id="Path_7934" data-name="Path 7934" d="M409.906,1514.354a1.46,1.46,0,0,1-1.406-1.071l-4.173-15.092a1.46,1.46,0,0,1,2.814-.778l4.173,15.092a1.461,1.461,0,0,1-1.408,1.849Z" transform="translate(-404.274 -1496.342)" fill="#1e0b4b"/>
    </g>
    <g id="Group_3745" data-name="Group 3745" transform="translate(194.569 1427.915)">
      <path id="Path_7935" data-name="Path 7935" d="M286.083,1540.022H198.925a3.76,3.76,0,0,1-3.755-3.756v-2.982a1.606,1.606,0,0,1,1.6-1.6h91.483a1.583,1.583,0,0,1,1.582,1.582v3A3.76,3.76,0,0,1,286.083,1540.022Zm-87.994-5.422v1.666a.837.837,0,0,0,.836.836h87.158a.837.837,0,0,0,.836-.836V1534.6Z" transform="translate(-195.17 -1531.681)" fill="#1e0b4b"/>
    </g>
    <g id="Group_3746" data-name="Group 3746" transform="translate(203.266 1416.3)">
      <path id="Path_7936" data-name="Path 7936" d="M290,1513.361H218.124a2.1,2.1,0,0,1-2.044-2.581l1.37-5.822a1.459,1.459,0,1,1,2.841.669l-1.133,4.815h69.863l-.864-4.9a1.46,1.46,0,0,1,2.875-.507l1.033,5.857a2.1,2.1,0,0,1-2.068,2.465Z" transform="translate(-216.024 -1503.831)" fill="#1e0b4b"/>
    </g>
    <g id="Group_3754" data-name="Group 3754" transform="translate(212.502 1353.681)">
      <g id="Group_3747" data-name="Group 3747">
        <path id="Path_7937" data-name="Path 7937" d="M292.041,1404.977H242.685a4.52,4.52,0,0,1-4.515-4.515V1358.2a4.52,4.52,0,0,1,4.515-4.515h49.356a4.52,4.52,0,0,1,4.515,4.515v42.266A4.52,4.52,0,0,1,292.041,1404.977ZM242.685,1356.6a1.6,1.6,0,0,0-1.6,1.6v42.266a1.6,1.6,0,0,0,1.6,1.6h49.356a1.6,1.6,0,0,0,1.6-1.6V1358.2a1.6,1.6,0,0,0-1.6-1.6Z" transform="translate(-238.17 -1353.681)" fill="#1e0b4b"/>
      </g>
      <g id="Group_3748" data-name="Group 3748" transform="translate(0 11.677)">
        <path id="Path_7938" data-name="Path 7938" d="M287.59,1384.6H239.63a1.46,1.46,0,1,1,0-2.919h47.96a1.46,1.46,0,1,1,0,2.919Z" transform="translate(-238.17 -1381.681)" fill="#1e0b4b"/>
      </g>
      <g id="Group_3749" data-name="Group 3749" transform="translate(45.875 5.839)">
        <path id="Path_7939" data-name="Path 7939" d="M351.715,1370.6H349.63a1.46,1.46,0,0,1,0-2.919h2.085a1.46,1.46,0,0,1,0,2.919Z" transform="translate(-348.17 -1367.681)" fill="#1e0b4b"/>
      </g>
      <g id="Group_3750" data-name="Group 3750" transform="translate(38.785 5.839)">
        <path id="Path_7940" data-name="Path 7940" d="M335.132,1370.6h-2.5a1.46,1.46,0,1,1,0-2.919h2.5a1.46,1.46,0,1,1,0,2.919Z" transform="translate(-331.17 -1367.681)" fill="#1e0b4b"/>
      </g>
      <g id="Group_3751" data-name="Group 3751" transform="translate(14.943 23.026)">
        <path id="Path_7941" data-name="Path 7941" d="M282,1424.017a1.454,1.454,0,0,1-1.037-.432L274,1416.554l7.011-7.217a1.46,1.46,0,1,1,2.094,2.034l-5.016,5.163,4.947,5a1.46,1.46,0,0,1-1.038,2.487Z" transform="translate(-274 -1408.894)" fill="#1e0b4b"/>
      </g>
      <g id="Group_3752" data-name="Group 3752" transform="translate(34.94 23.026)">
        <path id="Path_7942" data-name="Path 7942" d="M323.471,1424.016a1.46,1.46,0,0,1-1.038-2.487l4.947-5-5.016-5.163a1.459,1.459,0,1,1,2.094-2.034l7.011,7.217-6.96,7.031A1.456,1.456,0,0,1,323.471,1424.016Z" transform="translate(-321.951 -1408.894)" fill="#1e0b4b"/>
      </g>
      <g id="Group_3753" data-name="Group 3753" transform="translate(26.288 21.279)">
        <path id="Path_7943" data-name="Path 7943" d="M302.666,1424.293a1.462,1.462,0,0,1-1.426-1.777l3.711-16.667a1.46,1.46,0,0,1,2.85.635l-3.711,16.667A1.461,1.461,0,0,1,302.666,1424.293Z" transform="translate(-301.205 -1404.705)" fill="#1e0b4b"/>
      </g>
    </g>
  </g>
</svg>
